<?xml version="1.0" encoding="utf-8" standalone="no"?>
<!DOCTYPE svg PUBLIC "-//W3C//DTD SVG 1.1//EN"
  "http://www.w3.org/Graphics/SVG/1.1/DTD/svg11.dtd">
<svg xmlns:xlink="http://www.w3.org/1999/xlink" width="684pt" height="258.40678pt" viewBox="0 0 684 258.40678" xmlns="http://www.w3.org/2000/svg" version="1.1">
 <metadata>
  <rdf:RDF xmlns:dc="http://purl.org/dc/elements/1.1/" xmlns:cc="http://creativecommons.org/ns#" xmlns:rdf="http://www.w3.org/1999/02/22-rdf-syntax-ns#">
   <cc:Work>
    <dc:type rdf:resource="http://purl.org/dc/dcmitype/StillImage"/>
    <dc:date>2025-12-29T10:35:11.365950</dc:date>
    <dc:format>image/svg+xml</dc:format>
    <dc:creator>
     <cc:Agent>
      <dc:title>Matplotlib v3.10.1, https://matplotlib.org/</dc:title>
     </cc:Agent>
    </dc:creator>
   </cc:Work>
  </rdf:RDF>
 </metadata>
 <defs>
  <style type="text/css">*{stroke-linejoin: round; stroke-linecap: butt}</style>
 </defs>
 <g id="figure_1">
  <g id="patch_1">
   <path d="M 0 258.40678 
L 684 258.40678 
L 684 0 
L 0 0 
z
" style="fill: #ffffff"/>
  </g>
  <g id="axes_1">
   <g id="patch_2">
    <path d="M 24.223729 228.508475 
L 307.952542 228.508475 
Q 313.627119 228.508475 313.627119 222.833898 
L 313.627119 24.223729 
Q 313.627119 18.549153 307.952542 18.549153 
L 24.223729 18.549153 
Q 18.549153 18.549153 18.549153 24.223729 
L 18.549153 222.833898 
Q 18.549153 228.508475 24.223729 228.508475 
z
" clip-path="url(#p796e885b2a)" style="fill: #fef2f2; stroke: #e85a4f; stroke-width: 2; stroke-linejoin: miter"/>
   </g>
   <g id="patch_3">
    <path d="M 336.325424 228.508475 
L 648.427119 228.508475 
Q 654.101695 228.508475 654.101695 222.833898 
L 654.101695 24.223729 
Q 654.101695 18.549153 648.427119 18.549153 
L 336.325424 18.549153 
Q 330.650847 18.549153 330.650847 24.223729 
L 330.650847 222.833898 
Q 330.650847 228.508475 336.325424 228.508475 
z
" clip-path="url(#p796e885b2a)" style="fill: #f0fdf4; stroke: #2a9d8f; stroke-width: 2; stroke-linejoin: miter"/>
   </g>
   <g id="text_1">
    <!-- Traditional ML -->
    <g style="fill: #e85a4f" transform="translate(113.980479 46.922034) scale(0.13 -0.13)">
     <defs>
      <path id="DejaVuSans-Bold-54" d="M 31 4666 
L 4331 4666 
L 4331 3756 
L 2784 3756 
L 2784 0 
L 1581 0 
L 1581 3756 
L 31 3756 
L 31 4666 
z
" transform="scale(0.015625)"/>
      <path id="DejaVuSans-Bold-72" d="M 3138 2547 
Q 2991 2616 2845 2648 
Q 2700 2681 2553 2681 
Q 2122 2681 1889 2404 
Q 1656 2128 1656 1613 
L 1656 0 
L 538 0 
L 538 3500 
L 1656 3500 
L 1656 2925 
Q 1872 3269 2151 3426 
Q 2431 3584 2822 3584 
Q 2878 3584 2943 3579 
Q 3009 3575 3134 3559 
L 3138 2547 
z
" transform="scale(0.015625)"/>
      <path id="DejaVuSans-Bold-61" d="M 2106 1575 
Q 1756 1575 1579 1456 
Q 1403 1338 1403 1106 
Q 1403 894 1545 773 
Q 1688 653 1941 653 
Q 2256 653 2472 879 
Q 2688 1106 2688 1447 
L 2688 1575 
L 2106 1575 
z
M 3816 1997 
L 3816 0 
L 2688 0 
L 2688 519 
Q 2463 200 2181 54 
Q 1900 -91 1497 -91 
Q 953 -91 614 226 
Q 275 544 275 1050 
Q 275 1666 698 1953 
Q 1122 2241 2028 2241 
L 2688 2241 
L 2688 2328 
Q 2688 2594 2478 2717 
Q 2269 2841 1825 2841 
Q 1466 2841 1156 2769 
Q 847 2697 581 2553 
L 581 3406 
Q 941 3494 1303 3539 
Q 1666 3584 2028 3584 
Q 2975 3584 3395 3211 
Q 3816 2838 3816 1997 
z
" transform="scale(0.015625)"/>
      <path id="DejaVuSans-Bold-64" d="M 2919 2988 
L 2919 4863 
L 4044 4863 
L 4044 0 
L 2919 0 
L 2919 506 
Q 2688 197 2409 53 
Q 2131 -91 1766 -91 
Q 1119 -91 703 423 
Q 288 938 288 1747 
Q 288 2556 703 3070 
Q 1119 3584 1766 3584 
Q 2128 3584 2408 3439 
Q 2688 3294 2919 2988 
z
M 2181 722 
Q 2541 722 2730 984 
Q 2919 1247 2919 1747 
Q 2919 2247 2730 2509 
Q 2541 2772 2181 2772 
Q 1825 2772 1636 2509 
Q 1447 2247 1447 1747 
Q 1447 1247 1636 984 
Q 1825 722 2181 722 
z
" transform="scale(0.015625)"/>
      <path id="DejaVuSans-Bold-69" d="M 538 3500 
L 1656 3500 
L 1656 0 
L 538 0 
L 538 3500 
z
M 538 4863 
L 1656 4863 
L 1656 3950 
L 538 3950 
L 538 4863 
z
" transform="scale(0.015625)"/>
      <path id="DejaVuSans-Bold-74" d="M 1759 4494 
L 1759 3500 
L 2913 3500 
L 2913 2700 
L 1759 2700 
L 1759 1216 
Q 1759 972 1856 886 
Q 1953 800 2241 800 
L 2816 800 
L 2816 0 
L 1856 0 
Q 1194 0 917 276 
Q 641 553 641 1216 
L 641 2700 
L 84 2700 
L 84 3500 
L 641 3500 
L 641 4494 
L 1759 4494 
z
" transform="scale(0.015625)"/>
      <path id="DejaVuSans-Bold-6f" d="M 2203 2784 
Q 1831 2784 1636 2517 
Q 1441 2250 1441 1747 
Q 1441 1244 1636 976 
Q 1831 709 2203 709 
Q 2569 709 2762 976 
Q 2956 1244 2956 1747 
Q 2956 2250 2762 2517 
Q 2569 2784 2203 2784 
z
M 2203 3584 
Q 3106 3584 3614 3096 
Q 4122 2609 4122 1747 
Q 4122 884 3614 396 
Q 3106 -91 2203 -91 
Q 1297 -91 786 396 
Q 275 884 275 1747 
Q 275 2609 786 3096 
Q 1297 3584 2203 3584 
z
" transform="scale(0.015625)"/>
      <path id="DejaVuSans-Bold-6e" d="M 4056 2131 
L 4056 0 
L 2931 0 
L 2931 347 
L 2931 1631 
Q 2931 2084 2911 2256 
Q 2891 2428 2841 2509 
Q 2775 2619 2662 2680 
Q 2550 2741 2406 2741 
Q 2056 2741 1856 2470 
Q 1656 2200 1656 1722 
L 1656 0 
L 538 0 
L 538 3500 
L 1656 3500 
L 1656 2988 
Q 1909 3294 2193 3439 
Q 2478 3584 2822 3584 
Q 3428 3584 3742 3212 
Q 4056 2841 4056 2131 
z
" transform="scale(0.015625)"/>
      <path id="DejaVuSans-Bold-6c" d="M 538 4863 
L 1656 4863 
L 1656 0 
L 538 0 
L 538 4863 
z
" transform="scale(0.015625)"/>
      <path id="DejaVuSans-Bold-20" transform="scale(0.015625)"/>
      <path id="DejaVuSans-Bold-4d" d="M 588 4666 
L 2119 4666 
L 3181 2169 
L 4250 4666 
L 5778 4666 
L 5778 0 
L 4641 0 
L 4641 3413 
L 3566 897 
L 2803 897 
L 1728 3413 
L 1728 0 
L 588 0 
L 588 4666 
z
" transform="scale(0.015625)"/>
      <path id="DejaVuSans-Bold-4c" d="M 588 4666 
L 1791 4666 
L 1791 909 
L 3903 909 
L 3903 0 
L 588 0 
L 588 4666 
z
" transform="scale(0.015625)"/>
     </defs>
     <use xlink:href="#DejaVuSans-Bold-54"/>
     <use xlink:href="#DejaVuSans-Bold-72" transform="translate(57.212891 0)"/>
     <use xlink:href="#DejaVuSans-Bold-61" transform="translate(106.529297 0)"/>
     <use xlink:href="#DejaVuSans-Bold-64" transform="translate(174.009766 0)"/>
     <use xlink:href="#DejaVuSans-Bold-69" transform="translate(245.591797 0)"/>
     <use xlink:href="#DejaVuSans-Bold-74" transform="translate(279.869141 0)"/>
     <use xlink:href="#DejaVuSans-Bold-69" transform="translate(327.671875 0)"/>
     <use xlink:href="#DejaVuSans-Bold-6f" transform="translate(361.949219 0)"/>
     <use xlink:href="#DejaVuSans-Bold-6e" transform="translate(430.650391 0)"/>
     <use xlink:href="#DejaVuSans-Bold-61" transform="translate(501.841797 0)"/>
     <use xlink:href="#DejaVuSans-Bold-6c" transform="translate(569.322266 0)"/>
     <use xlink:href="#DejaVuSans-Bold-20" transform="translate(603.599609 0)"/>
     <use xlink:href="#DejaVuSans-Bold-4d" transform="translate(638.414062 0)"/>
     <use xlink:href="#DejaVuSans-Bold-4c" transform="translate(737.925781 0)"/>
    </g>
   </g>
   <g id="text_2">
    <!-- Raw Data -->
    <g style="fill: #2d3748" transform="translate(30.958641 140.198692) scale(0.09 -0.09)">
     <defs>
      <path id="DejaVuSans-52" d="M 2841 2188 
Q 3044 2119 3236 1894 
Q 3428 1669 3622 1275 
L 4263 0 
L 3584 0 
L 2988 1197 
Q 2756 1666 2539 1819 
Q 2322 1972 1947 1972 
L 1259 1972 
L 1259 0 
L 628 0 
L 628 4666 
L 2053 4666 
Q 2853 4666 3247 4331 
Q 3641 3997 3641 3322 
Q 3641 2881 3436 2590 
Q 3231 2300 2841 2188 
z
M 1259 4147 
L 1259 2491 
L 2053 2491 
Q 2509 2491 2742 2702 
Q 2975 2913 2975 3322 
Q 2975 3731 2742 3939 
Q 2509 4147 2053 4147 
L 1259 4147 
z
" transform="scale(0.015625)"/>
      <path id="DejaVuSans-61" d="M 2194 1759 
Q 1497 1759 1228 1600 
Q 959 1441 959 1056 
Q 959 750 1161 570 
Q 1363 391 1709 391 
Q 2188 391 2477 730 
Q 2766 1069 2766 1631 
L 2766 1759 
L 2194 1759 
z
M 3341 1997 
L 3341 0 
L 2766 0 
L 2766 531 
Q 2569 213 2275 61 
Q 1981 -91 1556 -91 
Q 1019 -91 701 211 
Q 384 513 384 1019 
Q 384 1609 779 1909 
Q 1175 2209 1959 2209 
L 2766 2209 
L 2766 2266 
Q 2766 2663 2505 2880 
Q 2244 3097 1772 3097 
Q 1472 3097 1187 3025 
Q 903 2953 641 2809 
L 641 3341 
Q 956 3463 1253 3523 
Q 1550 3584 1831 3584 
Q 2591 3584 2966 3190 
Q 3341 2797 3341 1997 
z
" transform="scale(0.015625)"/>
      <path id="DejaVuSans-77" d="M 269 3500 
L 844 3500 
L 1563 769 
L 2278 3500 
L 2956 3500 
L 3675 769 
L 4391 3500 
L 4966 3500 
L 4050 0 
L 3372 0 
L 2619 2869 
L 1863 0 
L 1184 0 
L 269 3500 
z
" transform="scale(0.015625)"/>
      <path id="DejaVuSans-20" transform="scale(0.015625)"/>
      <path id="DejaVuSans-44" d="M 1259 4147 
L 1259 519 
L 2022 519 
Q 2988 519 3436 956 
Q 3884 1394 3884 2338 
Q 3884 3275 3436 3711 
Q 2988 4147 2022 4147 
L 1259 4147 
z
M 628 4666 
L 1925 4666 
Q 3281 4666 3915 4102 
Q 4550 3538 4550 2338 
Q 4550 1131 3912 565 
Q 3275 0 1925 0 
L 628 0 
L 628 4666 
z
" transform="scale(0.015625)"/>
      <path id="DejaVuSans-74" d="M 1172 4494 
L 1172 3500 
L 2356 3500 
L 2356 3053 
L 1172 3053 
L 1172 1153 
Q 1172 725 1289 603 
Q 1406 481 1766 481 
L 2356 481 
L 2356 0 
L 1766 0 
Q 1100 0 847 248 
Q 594 497 594 1153 
L 594 3053 
L 172 3053 
L 172 3500 
L 594 3500 
L 594 4494 
L 1172 4494 
z
" transform="scale(0.015625)"/>
     </defs>
     <use xlink:href="#DejaVuSans-52"/>
     <use xlink:href="#DejaVuSans-61" transform="translate(67.232422 0)"/>
     <use xlink:href="#DejaVuSans-77" transform="translate(128.511719 0)"/>
     <use xlink:href="#DejaVuSans-20" transform="translate(210.298828 0)"/>
     <use xlink:href="#DejaVuSans-44" transform="translate(242.085938 0)"/>
     <use xlink:href="#DejaVuSans-61" transform="translate(319.087891 0)"/>
     <use xlink:href="#DejaVuSans-74" transform="translate(380.367188 0)"/>
     <use xlink:href="#DejaVuSans-61" transform="translate(419.576172 0)"/>
    </g>
   </g>
   <g id="patch_4">
    <path d="M 77.292654 137.715254 
Q 86.643539 137.715254 94.317372 137.715254 
" style="fill: none; stroke: #94a3b8; stroke-width: 1.5; stroke-linecap: round"/>
    <path d="M 90.317372 135.715254 
L 94.317372 137.715254 
L 90.317372 139.715254 
" style="fill: none; stroke: #94a3b8; stroke-width: 1.5; stroke-linecap: round"/>
   </g>
   <g id="text_3">
    <!-- Hand-crafted -->
    <g style="fill: #e85a4f" transform="translate(87.291682 135.159676) scale(0.09 -0.09)">
     <defs>
      <path id="DejaVuSans-Bold-48" d="M 588 4666 
L 1791 4666 
L 1791 2888 
L 3566 2888 
L 3566 4666 
L 4769 4666 
L 4769 0 
L 3566 0 
L 3566 1978 
L 1791 1978 
L 1791 0 
L 588 0 
L 588 4666 
z
" transform="scale(0.015625)"/>
      <path id="DejaVuSans-Bold-2d" d="M 347 2297 
L 2309 2297 
L 2309 1388 
L 347 1388 
L 347 2297 
z
" transform="scale(0.015625)"/>
      <path id="DejaVuSans-Bold-63" d="M 3366 3391 
L 3366 2478 
Q 3138 2634 2908 2709 
Q 2678 2784 2431 2784 
Q 1963 2784 1702 2511 
Q 1441 2238 1441 1747 
Q 1441 1256 1702 982 
Q 1963 709 2431 709 
Q 2694 709 2930 787 
Q 3166 866 3366 1019 
L 3366 103 
Q 3103 6 2833 -42 
Q 2563 -91 2291 -91 
Q 1344 -91 809 395 
Q 275 881 275 1747 
Q 275 2613 809 3098 
Q 1344 3584 2291 3584 
Q 2566 3584 2833 3536 
Q 3100 3488 3366 3391 
z
" transform="scale(0.015625)"/>
      <path id="DejaVuSans-Bold-66" d="M 2841 4863 
L 2841 4128 
L 2222 4128 
Q 1984 4128 1890 4042 
Q 1797 3956 1797 3744 
L 1797 3500 
L 2753 3500 
L 2753 2700 
L 1797 2700 
L 1797 0 
L 678 0 
L 678 2700 
L 122 2700 
L 122 3500 
L 678 3500 
L 678 3744 
Q 678 4316 997 4589 
Q 1316 4863 1984 4863 
L 2841 4863 
z
" transform="scale(0.015625)"/>
      <path id="DejaVuSans-Bold-65" d="M 4031 1759 
L 4031 1441 
L 1416 1441 
Q 1456 1047 1700 850 
Q 1944 653 2381 653 
Q 2734 653 3104 758 
Q 3475 863 3866 1075 
L 3866 213 
Q 3469 63 3072 -14 
Q 2675 -91 2278 -91 
Q 1328 -91 801 392 
Q 275 875 275 1747 
Q 275 2603 792 3093 
Q 1309 3584 2216 3584 
Q 3041 3584 3536 3087 
Q 4031 2591 4031 1759 
z
M 2881 2131 
Q 2881 2450 2695 2645 
Q 2509 2841 2209 2841 
Q 1884 2841 1681 2658 
Q 1478 2475 1428 2131 
L 2881 2131 
z
" transform="scale(0.015625)"/>
     </defs>
     <use xlink:href="#DejaVuSans-Bold-48"/>
     <use xlink:href="#DejaVuSans-Bold-61" transform="translate(83.691406 0)"/>
     <use xlink:href="#DejaVuSans-Bold-6e" transform="translate(151.171875 0)"/>
     <use xlink:href="#DejaVuSans-Bold-64" transform="translate(222.363281 0)"/>
     <use xlink:href="#DejaVuSans-Bold-2d" transform="translate(293.945312 0)"/>
     <use xlink:href="#DejaVuSans-Bold-63" transform="translate(335.449219 0)"/>
     <use xlink:href="#DejaVuSans-Bold-72" transform="translate(394.726562 0)"/>
     <use xlink:href="#DejaVuSans-Bold-61" transform="translate(444.042969 0)"/>
     <use xlink:href="#DejaVuSans-Bold-66" transform="translate(511.523438 0)"/>
     <use xlink:href="#DejaVuSans-Bold-74" transform="translate(555.029297 0)"/>
     <use xlink:href="#DejaVuSans-Bold-65" transform="translate(602.832031 0)"/>
     <use xlink:href="#DejaVuSans-Bold-64" transform="translate(670.654297 0)"/>
    </g>
    <!-- Features -->
    <g style="fill: #e85a4f" transform="translate(98.404572 145.237707) scale(0.09 -0.09)">
     <defs>
      <path id="DejaVuSans-Bold-46" d="M 588 4666 
L 3834 4666 
L 3834 3756 
L 1791 3756 
L 1791 2888 
L 3713 2888 
L 3713 1978 
L 1791 1978 
L 1791 0 
L 588 0 
L 588 4666 
z
" transform="scale(0.015625)"/>
      <path id="DejaVuSans-Bold-75" d="M 500 1363 
L 500 3500 
L 1625 3500 
L 1625 3150 
Q 1625 2866 1622 2436 
Q 1619 2006 1619 1863 
Q 1619 1441 1641 1255 
Q 1663 1069 1716 984 
Q 1784 875 1895 815 
Q 2006 756 2150 756 
Q 2500 756 2700 1025 
Q 2900 1294 2900 1772 
L 2900 3500 
L 4019 3500 
L 4019 0 
L 2900 0 
L 2900 506 
Q 2647 200 2364 54 
Q 2081 -91 1741 -91 
Q 1134 -91 817 281 
Q 500 653 500 1363 
z
" transform="scale(0.015625)"/>
      <path id="DejaVuSans-Bold-73" d="M 3272 3391 
L 3272 2541 
Q 2913 2691 2578 2766 
Q 2244 2841 1947 2841 
Q 1628 2841 1473 2761 
Q 1319 2681 1319 2516 
Q 1319 2381 1436 2309 
Q 1553 2238 1856 2203 
L 2053 2175 
Q 2913 2066 3209 1816 
Q 3506 1566 3506 1031 
Q 3506 472 3093 190 
Q 2681 -91 1863 -91 
Q 1516 -91 1145 -36 
Q 775 19 384 128 
L 384 978 
Q 719 816 1070 734 
Q 1422 653 1784 653 
Q 2113 653 2278 743 
Q 2444 834 2444 1013 
Q 2444 1163 2330 1236 
Q 2216 1309 1875 1350 
L 1678 1375 
Q 931 1469 631 1722 
Q 331 1975 331 2491 
Q 331 3047 712 3315 
Q 1094 3584 1881 3584 
Q 2191 3584 2531 3537 
Q 2872 3491 3272 3391 
z
" transform="scale(0.015625)"/>
     </defs>
     <use xlink:href="#DejaVuSans-Bold-46"/>
     <use xlink:href="#DejaVuSans-Bold-65" transform="translate(64.310547 0)"/>
     <use xlink:href="#DejaVuSans-Bold-61" transform="translate(132.132812 0)"/>
     <use xlink:href="#DejaVuSans-Bold-74" transform="translate(199.613281 0)"/>
     <use xlink:href="#DejaVuSans-Bold-75" transform="translate(247.416016 0)"/>
     <use xlink:href="#DejaVuSans-Bold-72" transform="translate(318.607422 0)"/>
     <use xlink:href="#DejaVuSans-Bold-65" transform="translate(367.923828 0)"/>
     <use xlink:href="#DejaVuSans-Bold-73" transform="translate(435.746094 0)"/>
    </g>
   </g>
   <g id="patch_5">
    <path d="M 145.392418 137.715254 
Q 163.250679 137.715254 179.431889 137.715254 
" style="fill: none; stroke: #94a3b8; stroke-width: 1.5; stroke-linecap: round"/>
    <path d="M 175.431889 135.715254 
L 179.431889 137.715254 
L 175.431889 139.715254 
" style="fill: none; stroke: #94a3b8; stroke-width: 1.5; stroke-linecap: round"/>
   </g>
   <g id="text_4">
    <!-- Model -->
    <g style="fill: #2d3748" transform="translate(192.298216 140.198692) scale(0.09 -0.09)">
     <defs>
      <path id="DejaVuSans-4d" d="M 628 4666 
L 1569 4666 
L 2759 1491 
L 3956 4666 
L 4897 4666 
L 4897 0 
L 4281 0 
L 4281 4097 
L 3078 897 
L 2444 897 
L 1241 4097 
L 1241 0 
L 628 0 
L 628 4666 
z
" transform="scale(0.015625)"/>
      <path id="DejaVuSans-6f" d="M 1959 3097 
Q 1497 3097 1228 2736 
Q 959 2375 959 1747 
Q 959 1119 1226 758 
Q 1494 397 1959 397 
Q 2419 397 2687 759 
Q 2956 1122 2956 1747 
Q 2956 2369 2687 2733 
Q 2419 3097 1959 3097 
z
M 1959 3584 
Q 2709 3584 3137 3096 
Q 3566 2609 3566 1747 
Q 3566 888 3137 398 
Q 2709 -91 1959 -91 
Q 1206 -91 779 398 
Q 353 888 353 1747 
Q 353 2609 779 3096 
Q 1206 3584 1959 3584 
z
" transform="scale(0.015625)"/>
      <path id="DejaVuSans-64" d="M 2906 2969 
L 2906 4863 
L 3481 4863 
L 3481 0 
L 2906 0 
L 2906 525 
Q 2725 213 2448 61 
Q 2172 -91 1784 -91 
Q 1150 -91 751 415 
Q 353 922 353 1747 
Q 353 2572 751 3078 
Q 1150 3584 1784 3584 
Q 2172 3584 2448 3432 
Q 2725 3281 2906 2969 
z
M 947 1747 
Q 947 1113 1208 752 
Q 1469 391 1925 391 
Q 2381 391 2643 752 
Q 2906 1113 2906 1747 
Q 2906 2381 2643 2742 
Q 2381 3103 1925 3103 
Q 1469 3103 1208 2742 
Q 947 2381 947 1747 
z
" transform="scale(0.015625)"/>
      <path id="DejaVuSans-65" d="M 3597 1894 
L 3597 1613 
L 953 1613 
Q 991 1019 1311 708 
Q 1631 397 2203 397 
Q 2534 397 2845 478 
Q 3156 559 3463 722 
L 3463 178 
Q 3153 47 2828 -22 
Q 2503 -91 2169 -91 
Q 1331 -91 842 396 
Q 353 884 353 1716 
Q 353 2575 817 3079 
Q 1281 3584 2069 3584 
Q 2775 3584 3186 3129 
Q 3597 2675 3597 1894 
z
M 3022 2063 
Q 3016 2534 2758 2815 
Q 2500 3097 2075 3097 
Q 1594 3097 1305 2825 
Q 1016 2553 972 2059 
L 3022 2063 
z
" transform="scale(0.015625)"/>
      <path id="DejaVuSans-6c" d="M 603 4863 
L 1178 4863 
L 1178 0 
L 603 0 
L 603 4863 
z
" transform="scale(0.015625)"/>
     </defs>
     <use xlink:href="#DejaVuSans-4d"/>
     <use xlink:href="#DejaVuSans-6f" transform="translate(86.279297 0)"/>
     <use xlink:href="#DejaVuSans-64" transform="translate(147.460938 0)"/>
     <use xlink:href="#DejaVuSans-65" transform="translate(210.9375 0)"/>
     <use xlink:href="#DejaVuSans-6c" transform="translate(272.460938 0)"/>
    </g>
   </g>
   <g id="patch_6">
    <path d="M 230.506906 137.715254 
Q 242.694465 137.715254 253.204972 137.715254 
" style="fill: none; stroke: #94a3b8; stroke-width: 1.5; stroke-linecap: round"/>
    <path d="M 249.204972 135.715254 
L 253.204972 137.715254 
L 249.204972 139.715254 
" style="fill: none; stroke: #94a3b8; stroke-width: 1.5; stroke-linecap: round"/>
   </g>
   <g id="text_5">
    <!-- Output -->
    <g style="fill: #2d3748" transform="translate(263.948489 140.198692) scale(0.09 -0.09)">
     <defs>
      <path id="DejaVuSans-4f" d="M 2522 4238 
Q 1834 4238 1429 3725 
Q 1025 3213 1025 2328 
Q 1025 1447 1429 934 
Q 1834 422 2522 422 
Q 3209 422 3611 934 
Q 4013 1447 4013 2328 
Q 4013 3213 3611 3725 
Q 3209 4238 2522 4238 
z
M 2522 4750 
Q 3503 4750 4090 4092 
Q 4678 3434 4678 2328 
Q 4678 1225 4090 567 
Q 3503 -91 2522 -91 
Q 1538 -91 948 565 
Q 359 1222 359 2328 
Q 359 3434 948 4092 
Q 1538 4750 2522 4750 
z
" transform="scale(0.015625)"/>
      <path id="DejaVuSans-75" d="M 544 1381 
L 544 3500 
L 1119 3500 
L 1119 1403 
Q 1119 906 1312 657 
Q 1506 409 1894 409 
Q 2359 409 2629 706 
Q 2900 1003 2900 1516 
L 2900 3500 
L 3475 3500 
L 3475 0 
L 2900 0 
L 2900 538 
Q 2691 219 2414 64 
Q 2138 -91 1772 -91 
Q 1169 -91 856 284 
Q 544 659 544 1381 
z
M 1991 3584 
L 1991 3584 
z
" transform="scale(0.015625)"/>
      <path id="DejaVuSans-70" d="M 1159 525 
L 1159 -1331 
L 581 -1331 
L 581 3500 
L 1159 3500 
L 1159 2969 
Q 1341 3281 1617 3432 
Q 1894 3584 2278 3584 
Q 2916 3584 3314 3078 
Q 3713 2572 3713 1747 
Q 3713 922 3314 415 
Q 2916 -91 2278 -91 
Q 1894 -91 1617 61 
Q 1341 213 1159 525 
z
M 3116 1747 
Q 3116 2381 2855 2742 
Q 2594 3103 2138 3103 
Q 1681 3103 1420 2742 
Q 1159 2381 1159 1747 
Q 1159 1113 1420 752 
Q 1681 391 2138 391 
Q 2594 391 2855 752 
Q 3116 1113 3116 1747 
z
" transform="scale(0.015625)"/>
     </defs>
     <use xlink:href="#DejaVuSans-4f"/>
     <use xlink:href="#DejaVuSans-75" transform="translate(78.710938 0)"/>
     <use xlink:href="#DejaVuSans-74" transform="translate(142.089844 0)"/>
     <use xlink:href="#DejaVuSans-70" transform="translate(181.298828 0)"/>
     <use xlink:href="#DejaVuSans-75" transform="translate(244.775391 0)"/>
     <use xlink:href="#DejaVuSans-74" transform="translate(308.154297 0)"/>
    </g>
   </g>
   <g id="text_6">
    <!-- 👤 Human designs features -->
    <g style="fill: #e85a4f" transform="translate(106.905401 194.461017) scale(0.09 -0.09)">
     <defs>
      <path id="DejaVuSans-Oblique-1f464" d="M 319 -1131 
L 319 4513 
L 3519 4513 
L 3519 -1131 
L 319 -1131 
z
M 678 -775 
L 3163 -775 
L 3163 4153 
L 678 4153 
L 678 -775 
z
" transform="scale(0.015625)"/>
      <path id="DejaVuSans-Oblique-20" transform="scale(0.015625)"/>
      <path id="DejaVuSans-Oblique-48" d="M 1081 4666 
L 1716 4666 
L 1344 2753 
L 3634 2753 
L 4006 4666 
L 4641 4666 
L 3731 0 
L 3097 0 
L 3531 2222 
L 1241 2222 
L 806 0 
L 172 0 
L 1081 4666 
z
" transform="scale(0.015625)"/>
      <path id="DejaVuSans-Oblique-75" d="M 428 1388 
L 838 3500 
L 1416 3500 
L 1006 1409 
Q 975 1256 961 1147 
Q 947 1038 947 966 
Q 947 700 1109 554 
Q 1272 409 1569 409 
Q 2031 409 2368 721 
Q 2706 1034 2809 1563 
L 3194 3500 
L 3769 3500 
L 3091 0 
L 2516 0 
L 2631 550 
Q 2388 244 2052 76 
Q 1716 -91 1338 -91 
Q 878 -91 622 161 
Q 366 413 366 863 
Q 366 956 381 1097 
Q 397 1238 428 1388 
z
" transform="scale(0.015625)"/>
      <path id="DejaVuSans-Oblique-6d" d="M 5747 2113 
L 5338 0 
L 4763 0 
L 5166 2094 
Q 5191 2228 5203 2325 
Q 5216 2422 5216 2491 
Q 5216 2772 5059 2928 
Q 4903 3084 4622 3084 
Q 4203 3084 3875 2770 
Q 3547 2456 3450 1953 
L 3066 0 
L 2491 0 
L 2900 2094 
Q 2925 2209 2937 2307 
Q 2950 2406 2950 2484 
Q 2950 2769 2794 2926 
Q 2638 3084 2363 3084 
Q 1938 3084 1609 2770 
Q 1281 2456 1184 1953 
L 800 0 
L 225 0 
L 909 3500 
L 1484 3500 
L 1375 2956 
Q 1609 3263 1923 3423 
Q 2238 3584 2597 3584 
Q 2978 3584 3223 3384 
Q 3469 3184 3519 2828 
Q 3781 3197 4126 3390 
Q 4472 3584 4856 3584 
Q 5306 3584 5551 3325 
Q 5797 3066 5797 2591 
Q 5797 2488 5784 2364 
Q 5772 2241 5747 2113 
z
" transform="scale(0.015625)"/>
      <path id="DejaVuSans-Oblique-61" d="M 3438 1997 
L 3047 0 
L 2472 0 
L 2578 531 
Q 2325 219 2001 64 
Q 1678 -91 1281 -91 
Q 834 -91 548 182 
Q 263 456 263 884 
Q 263 1497 752 1853 
Q 1241 2209 2100 2209 
L 2900 2209 
L 2931 2363 
Q 2938 2388 2941 2417 
Q 2944 2447 2944 2509 
Q 2944 2788 2717 2942 
Q 2491 3097 2081 3097 
Q 1800 3097 1504 3025 
Q 1209 2953 897 2809 
L 997 3341 
Q 1322 3463 1633 3523 
Q 1944 3584 2234 3584 
Q 2853 3584 3176 3315 
Q 3500 3047 3500 2534 
Q 3500 2431 3484 2292 
Q 3469 2153 3438 1997 
z
M 2816 1759 
L 2241 1759 
Q 1534 1759 1195 1570 
Q 856 1381 856 984 
Q 856 709 1029 553 
Q 1203 397 1509 397 
Q 1978 397 2328 733 
Q 2678 1069 2791 1631 
L 2816 1759 
z
" transform="scale(0.015625)"/>
      <path id="DejaVuSans-Oblique-6e" d="M 3566 2113 
L 3156 0 
L 2578 0 
L 2988 2091 
Q 3016 2238 3031 2350 
Q 3047 2463 3047 2528 
Q 3047 2791 2881 2937 
Q 2716 3084 2419 3084 
Q 1956 3084 1622 2776 
Q 1288 2469 1184 1941 
L 800 0 
L 225 0 
L 903 3500 
L 1478 3500 
L 1363 2950 
Q 1603 3253 1940 3418 
Q 2278 3584 2650 3584 
Q 3113 3584 3367 3334 
Q 3622 3084 3622 2631 
Q 3622 2519 3608 2391 
Q 3594 2263 3566 2113 
z
" transform="scale(0.015625)"/>
      <path id="DejaVuSans-Oblique-64" d="M 2675 525 
Q 2444 222 2128 65 
Q 1813 -91 1428 -91 
Q 903 -91 598 267 
Q 294 625 294 1247 
Q 294 1766 478 2236 
Q 663 2706 1013 3078 
Q 1244 3325 1534 3454 
Q 1825 3584 2144 3584 
Q 2481 3584 2739 3421 
Q 2997 3259 3138 2956 
L 3513 4863 
L 4091 4863 
L 3144 0 
L 2566 0 
L 2675 525 
z
M 891 1350 
Q 891 897 1095 644 
Q 1300 391 1663 391 
Q 1931 391 2161 520 
Q 2391 650 2566 903 
Q 2750 1166 2856 1509 
Q 2963 1853 2963 2188 
Q 2963 2622 2758 2865 
Q 2553 3109 2194 3109 
Q 1922 3109 1687 2981 
Q 1453 2853 1288 2613 
Q 1106 2353 998 2009 
Q 891 1666 891 1350 
z
" transform="scale(0.015625)"/>
      <path id="DejaVuSans-Oblique-65" d="M 3078 2063 
Q 3088 2113 3092 2166 
Q 3097 2219 3097 2272 
Q 3097 2653 2873 2875 
Q 2650 3097 2266 3097 
Q 1838 3097 1509 2826 
Q 1181 2556 1013 2059 
L 3078 2063 
z
M 3578 1613 
L 903 1613 
Q 884 1494 878 1425 
Q 872 1356 872 1306 
Q 872 872 1139 634 
Q 1406 397 1894 397 
Q 2269 397 2603 481 
Q 2938 566 3225 728 
L 3116 159 
Q 2806 34 2476 -28 
Q 2147 -91 1806 -91 
Q 1078 -91 686 257 
Q 294 606 294 1247 
Q 294 1794 489 2264 
Q 684 2734 1063 3103 
Q 1306 3334 1642 3459 
Q 1978 3584 2356 3584 
Q 2950 3584 3301 3228 
Q 3653 2872 3653 2272 
Q 3653 2128 3634 1964 
Q 3616 1800 3578 1613 
z
" transform="scale(0.015625)"/>
      <path id="DejaVuSans-Oblique-73" d="M 3200 3397 
L 3091 2853 
Q 2863 2978 2609 3040 
Q 2356 3103 2088 3103 
Q 1634 3103 1373 2948 
Q 1113 2794 1113 2528 
Q 1113 2219 1719 2053 
Q 1766 2041 1788 2034 
L 1972 1978 
Q 2547 1819 2739 1644 
Q 2931 1469 2931 1166 
Q 2931 609 2489 259 
Q 2047 -91 1331 -91 
Q 1053 -91 747 -37 
Q 441 16 72 128 
L 184 722 
Q 500 559 806 475 
Q 1113 391 1394 391 
Q 1816 391 2080 572 
Q 2344 753 2344 1031 
Q 2344 1331 1650 1516 
L 1591 1531 
L 1394 1581 
Q 956 1697 753 1886 
Q 550 2075 550 2369 
Q 550 2928 970 3256 
Q 1391 3584 2113 3584 
Q 2397 3584 2667 3537 
Q 2938 3491 3200 3397 
z
" transform="scale(0.015625)"/>
      <path id="DejaVuSans-Oblique-69" d="M 1172 4863 
L 1747 4863 
L 1606 4134 
L 1031 4134 
L 1172 4863 
z
M 909 3500 
L 1484 3500 
L 800 0 
L 225 0 
L 909 3500 
z
" transform="scale(0.015625)"/>
      <path id="DejaVuSans-Oblique-67" d="M 3816 3500 
L 3219 434 
Q 3047 -456 2561 -893 
Q 2075 -1331 1253 -1331 
Q 950 -1331 690 -1286 
Q 431 -1241 206 -1147 
L 313 -588 
Q 525 -725 762 -790 
Q 1000 -856 1269 -856 
Q 1816 -856 2167 -557 
Q 2519 -259 2631 300 
L 2681 563 
Q 2441 288 2122 144 
Q 1803 0 1434 0 
Q 903 0 598 351 
Q 294 703 294 1319 
Q 294 1803 478 2267 
Q 663 2731 997 3091 
Q 1219 3328 1514 3456 
Q 1809 3584 2131 3584 
Q 2484 3584 2746 3420 
Q 3009 3256 3138 2956 
L 3238 3500 
L 3816 3500 
z
M 2950 2216 
Q 2950 2641 2750 2872 
Q 2550 3103 2181 3103 
Q 1953 3103 1747 3012 
Q 1541 2922 1394 2759 
Q 1156 2491 1023 2127 
Q 891 1763 891 1375 
Q 891 944 1092 712 
Q 1294 481 1672 481 
Q 2219 481 2584 976 
Q 2950 1472 2950 2216 
z
" transform="scale(0.015625)"/>
      <path id="DejaVuSans-Oblique-66" d="M 3059 4863 
L 2969 4384 
L 2419 4384 
Q 2106 4384 1964 4261 
Q 1822 4138 1753 3809 
L 1691 3500 
L 2638 3500 
L 2553 3053 
L 1606 3053 
L 1013 0 
L 434 0 
L 1031 3053 
L 481 3053 
L 563 3500 
L 1113 3500 
L 1159 3744 
Q 1278 4363 1576 4613 
Q 1875 4863 2516 4863 
L 3059 4863 
z
" transform="scale(0.015625)"/>
      <path id="DejaVuSans-Oblique-74" d="M 2706 3500 
L 2619 3053 
L 1472 3053 
L 1100 1153 
Q 1081 1047 1072 975 
Q 1063 903 1063 863 
Q 1063 663 1183 572 
Q 1303 481 1569 481 
L 2150 481 
L 2053 0 
L 1503 0 
Q 991 0 739 200 
Q 488 400 488 806 
Q 488 878 497 964 
Q 506 1050 525 1153 
L 897 3053 
L 409 3053 
L 500 3500 
L 978 3500 
L 1172 4494 
L 1747 4494 
L 1556 3500 
L 2706 3500 
z
" transform="scale(0.015625)"/>
      <path id="DejaVuSans-Oblique-72" d="M 2853 2969 
Q 2766 3016 2653 3041 
Q 2541 3066 2413 3066 
Q 1953 3066 1609 2717 
Q 1266 2369 1153 1784 
L 800 0 
L 225 0 
L 909 3500 
L 1484 3500 
L 1375 2956 
Q 1603 3259 1920 3421 
Q 2238 3584 2597 3584 
Q 2691 3584 2781 3573 
Q 2872 3563 2963 3538 
L 2853 2969 
z
" transform="scale(0.015625)"/>
     </defs>
     <use xlink:href="#DejaVuSans-Oblique-1f464"/>
     <use xlink:href="#DejaVuSans-Oblique-20" transform="translate(60.009766 0)"/>
     <use xlink:href="#DejaVuSans-Oblique-48" transform="translate(91.796875 0)"/>
     <use xlink:href="#DejaVuSans-Oblique-75" transform="translate(166.992188 0)"/>
     <use xlink:href="#DejaVuSans-Oblique-6d" transform="translate(230.371094 0)"/>
     <use xlink:href="#DejaVuSans-Oblique-61" transform="translate(327.783203 0)"/>
     <use xlink:href="#DejaVuSans-Oblique-6e" transform="translate(389.0625 0)"/>
     <use xlink:href="#DejaVuSans-Oblique-20" transform="translate(452.441406 0)"/>
     <use xlink:href="#DejaVuSans-Oblique-64" transform="translate(484.228516 0)"/>
     <use xlink:href="#DejaVuSans-Oblique-65" transform="translate(547.705078 0)"/>
     <use xlink:href="#DejaVuSans-Oblique-73" transform="translate(609.228516 0)"/>
     <use xlink:href="#DejaVuSans-Oblique-69" transform="translate(661.328125 0)"/>
     <use xlink:href="#DejaVuSans-Oblique-67" transform="translate(689.111328 0)"/>
     <use xlink:href="#DejaVuSans-Oblique-6e" transform="translate(752.587891 0)"/>
     <use xlink:href="#DejaVuSans-Oblique-73" transform="translate(815.966797 0)"/>
     <use xlink:href="#DejaVuSans-Oblique-20" transform="translate(868.066406 0)"/>
     <use xlink:href="#DejaVuSans-Oblique-66" transform="translate(899.853516 0)"/>
     <use xlink:href="#DejaVuSans-Oblique-65" transform="translate(935.058594 0)"/>
     <use xlink:href="#DejaVuSans-Oblique-61" transform="translate(996.582031 0)"/>
     <use xlink:href="#DejaVuSans-Oblique-74" transform="translate(1057.861328 0)"/>
     <use xlink:href="#DejaVuSans-Oblique-75" transform="translate(1097.070312 0)"/>
     <use xlink:href="#DejaVuSans-Oblique-72" transform="translate(1160.449219 0)"/>
     <use xlink:href="#DejaVuSans-Oblique-65" transform="translate(1201.5625 0)"/>
     <use xlink:href="#DejaVuSans-Oblique-73" transform="translate(1263.085938 0)"/>
    </g>
   </g>
   <g id="text_7">
    <!-- Deep Learning -->
    <g style="fill: #2a9d8f" transform="translate(438.969631 46.922034) scale(0.13 -0.13)">
     <defs>
      <path id="DejaVuSans-Bold-44" d="M 1791 3756 
L 1791 909 
L 2222 909 
Q 2959 909 3348 1275 
Q 3738 1641 3738 2338 
Q 3738 3031 3350 3393 
Q 2963 3756 2222 3756 
L 1791 3756 
z
M 588 4666 
L 1856 4666 
Q 2919 4666 3439 4514 
Q 3959 4363 4331 4000 
Q 4659 3684 4818 3271 
Q 4978 2859 4978 2338 
Q 4978 1809 4818 1395 
Q 4659 981 4331 666 
Q 3956 303 3431 151 
Q 2906 0 1856 0 
L 588 0 
L 588 4666 
z
" transform="scale(0.015625)"/>
      <path id="DejaVuSans-Bold-70" d="M 1656 506 
L 1656 -1331 
L 538 -1331 
L 538 3500 
L 1656 3500 
L 1656 2988 
Q 1888 3294 2169 3439 
Q 2450 3584 2816 3584 
Q 3463 3584 3878 3070 
Q 4294 2556 4294 1747 
Q 4294 938 3878 423 
Q 3463 -91 2816 -91 
Q 2450 -91 2169 54 
Q 1888 200 1656 506 
z
M 2400 2772 
Q 2041 2772 1848 2508 
Q 1656 2244 1656 1747 
Q 1656 1250 1848 986 
Q 2041 722 2400 722 
Q 2759 722 2948 984 
Q 3138 1247 3138 1747 
Q 3138 2247 2948 2509 
Q 2759 2772 2400 2772 
z
" transform="scale(0.015625)"/>
      <path id="DejaVuSans-Bold-67" d="M 2919 594 
Q 2688 288 2409 144 
Q 2131 0 1766 0 
Q 1125 0 706 504 
Q 288 1009 288 1791 
Q 288 2575 706 3076 
Q 1125 3578 1766 3578 
Q 2131 3578 2409 3434 
Q 2688 3291 2919 2981 
L 2919 3500 
L 4044 3500 
L 4044 353 
Q 4044 -491 3511 -936 
Q 2978 -1381 1966 -1381 
Q 1638 -1381 1331 -1331 
Q 1025 -1281 716 -1178 
L 716 -306 
Q 1009 -475 1290 -558 
Q 1572 -641 1856 -641 
Q 2406 -641 2662 -400 
Q 2919 -159 2919 353 
L 2919 594 
z
M 2181 2772 
Q 1834 2772 1640 2515 
Q 1447 2259 1447 1791 
Q 1447 1309 1634 1061 
Q 1822 813 2181 813 
Q 2531 813 2725 1069 
Q 2919 1325 2919 1791 
Q 2919 2259 2725 2515 
Q 2531 2772 2181 2772 
z
" transform="scale(0.015625)"/>
     </defs>
     <use xlink:href="#DejaVuSans-Bold-44"/>
     <use xlink:href="#DejaVuSans-Bold-65" transform="translate(83.007812 0)"/>
     <use xlink:href="#DejaVuSans-Bold-65" transform="translate(150.830078 0)"/>
     <use xlink:href="#DejaVuSans-Bold-70" transform="translate(218.652344 0)"/>
     <use xlink:href="#DejaVuSans-Bold-20" transform="translate(290.234375 0)"/>
     <use xlink:href="#DejaVuSans-Bold-4c" transform="translate(325.048828 0)"/>
     <use xlink:href="#DejaVuSans-Bold-65" transform="translate(388.769531 0)"/>
     <use xlink:href="#DejaVuSans-Bold-61" transform="translate(456.591797 0)"/>
     <use xlink:href="#DejaVuSans-Bold-72" transform="translate(524.072266 0)"/>
     <use xlink:href="#DejaVuSans-Bold-6e" transform="translate(573.388672 0)"/>
     <use xlink:href="#DejaVuSans-Bold-69" transform="translate(644.580078 0)"/>
     <use xlink:href="#DejaVuSans-Bold-6e" transform="translate(678.857422 0)"/>
     <use xlink:href="#DejaVuSans-Bold-67" transform="translate(750.048828 0)"/>
    </g>
   </g>
   <g id="text_8">
    <!-- Raw Data -->
    <g style="fill: #2d3748" transform="translate(354.409489 140.198692) scale(0.09 -0.09)">
     <use xlink:href="#DejaVuSans-52"/>
     <use xlink:href="#DejaVuSans-61" transform="translate(67.232422 0)"/>
     <use xlink:href="#DejaVuSans-77" transform="translate(128.511719 0)"/>
     <use xlink:href="#DejaVuSans-20" transform="translate(210.298828 0)"/>
     <use xlink:href="#DejaVuSans-44" transform="translate(242.085938 0)"/>
     <use xlink:href="#DejaVuSans-61" transform="translate(319.087891 0)"/>
     <use xlink:href="#DejaVuSans-74" transform="translate(380.367188 0)"/>
     <use xlink:href="#DejaVuSans-61" transform="translate(419.576172 0)"/>
    </g>
   </g>
   <g id="patch_7">
    <path d="M 406.417558 137.715254 
Q 431.373552 137.715254 454.652495 137.715254 
" style="fill: none; stroke: #94a3b8; stroke-width: 1.5; stroke-linecap: round"/>
    <path d="M 450.652495 135.715254 
L 454.652495 137.715254 
L 450.652495 139.715254 
" style="fill: none; stroke: #94a3b8; stroke-width: 1.5; stroke-linecap: round"/>
   </g>
   <g id="text_9">
    <!-- Neural Network -->
    <g style="fill: #2a9d8f" transform="translate(452.559709 135.159676) scale(0.09 -0.09)">
     <defs>
      <path id="DejaVuSans-Bold-4e" d="M 588 4666 
L 1931 4666 
L 3628 1466 
L 3628 4666 
L 4769 4666 
L 4769 0 
L 3425 0 
L 1728 3200 
L 1728 0 
L 588 0 
L 588 4666 
z
" transform="scale(0.015625)"/>
      <path id="DejaVuSans-Bold-77" d="M 225 3500 
L 1313 3500 
L 1900 1088 
L 2491 3500 
L 3425 3500 
L 4013 1113 
L 4603 3500 
L 5691 3500 
L 4769 0 
L 3547 0 
L 2956 2406 
L 2369 0 
L 1147 0 
L 225 3500 
z
" transform="scale(0.015625)"/>
      <path id="DejaVuSans-Bold-6b" d="M 538 4863 
L 1656 4863 
L 1656 2216 
L 2944 3500 
L 4244 3500 
L 2534 1894 
L 4378 0 
L 3022 0 
L 1656 1459 
L 1656 0 
L 538 0 
L 538 4863 
z
" transform="scale(0.015625)"/>
     </defs>
     <use xlink:href="#DejaVuSans-Bold-4e"/>
     <use xlink:href="#DejaVuSans-Bold-65" transform="translate(83.691406 0)"/>
     <use xlink:href="#DejaVuSans-Bold-75" transform="translate(151.513672 0)"/>
     <use xlink:href="#DejaVuSans-Bold-72" transform="translate(222.705078 0)"/>
     <use xlink:href="#DejaVuSans-Bold-61" transform="translate(272.021484 0)"/>
     <use xlink:href="#DejaVuSans-Bold-6c" transform="translate(339.501953 0)"/>
     <use xlink:href="#DejaVuSans-Bold-20" transform="translate(373.779297 0)"/>
     <use xlink:href="#DejaVuSans-Bold-4e" transform="translate(408.59375 0)"/>
     <use xlink:href="#DejaVuSans-Bold-65" transform="translate(492.285156 0)"/>
     <use xlink:href="#DejaVuSans-Bold-74" transform="translate(560.107422 0)"/>
     <use xlink:href="#DejaVuSans-Bold-77" transform="translate(607.910156 0)"/>
     <use xlink:href="#DejaVuSans-Bold-6f" transform="translate(700.292969 0)"/>
     <use xlink:href="#DejaVuSans-Bold-72" transform="translate(768.994141 0)"/>
     <use xlink:href="#DejaVuSans-Bold-6b" transform="translate(818.310547 0)"/>
    </g>
    <!-- (learns features) -->
    <g style="fill: #2a9d8f" transform="translate(449.613615 145.237707) scale(0.09 -0.09)">
     <defs>
      <path id="DejaVuSans-Bold-28" d="M 2413 -844 
L 1484 -844 
Q 1006 -72 778 623 
Q 550 1319 550 2003 
Q 550 2688 779 3389 
Q 1009 4091 1484 4856 
L 2413 4856 
Q 2013 4116 1813 3408 
Q 1613 2700 1613 2009 
Q 1613 1319 1811 609 
Q 2009 -100 2413 -844 
z
" transform="scale(0.015625)"/>
      <path id="DejaVuSans-Bold-29" d="M 513 -844 
Q 913 -100 1113 609 
Q 1313 1319 1313 2009 
Q 1313 2700 1113 3408 
Q 913 4116 513 4856 
L 1441 4856 
Q 1916 4091 2145 3389 
Q 2375 2688 2375 2003 
Q 2375 1319 2147 623 
Q 1919 -72 1441 -844 
L 513 -844 
z
" transform="scale(0.015625)"/>
     </defs>
     <use xlink:href="#DejaVuSans-Bold-28"/>
     <use xlink:href="#DejaVuSans-Bold-6c" transform="translate(45.703125 0)"/>
     <use xlink:href="#DejaVuSans-Bold-65" transform="translate(79.980469 0)"/>
     <use xlink:href="#DejaVuSans-Bold-61" transform="translate(147.802734 0)"/>
     <use xlink:href="#DejaVuSans-Bold-72" transform="translate(215.283203 0)"/>
     <use xlink:href="#DejaVuSans-Bold-6e" transform="translate(264.599609 0)"/>
     <use xlink:href="#DejaVuSans-Bold-73" transform="translate(335.791016 0)"/>
     <use xlink:href="#DejaVuSans-Bold-20" transform="translate(395.3125 0)"/>
     <use xlink:href="#DejaVuSans-Bold-66" transform="translate(430.126953 0)"/>
     <use xlink:href="#DejaVuSans-Bold-65" transform="translate(473.632812 0)"/>
     <use xlink:href="#DejaVuSans-Bold-61" transform="translate(541.455078 0)"/>
     <use xlink:href="#DejaVuSans-Bold-74" transform="translate(608.935547 0)"/>
     <use xlink:href="#DejaVuSans-Bold-75" transform="translate(656.738281 0)"/>
     <use xlink:href="#DejaVuSans-Bold-72" transform="translate(727.929688 0)"/>
     <use xlink:href="#DejaVuSans-Bold-65" transform="translate(777.246094 0)"/>
     <use xlink:href="#DejaVuSans-Bold-73" transform="translate(845.068359 0)"/>
     <use xlink:href="#DejaVuSans-Bold-29" transform="translate(904.589844 0)"/>
    </g>
   </g>
   <g id="patch_8">
    <path d="M 522.746372 137.715254 
Q 547.702366 137.715254 570.981308 137.715254 
" style="fill: none; stroke: #94a3b8; stroke-width: 1.5; stroke-linecap: round"/>
    <path d="M 566.981308 135.715254 
L 570.981308 137.715254 
L 566.981308 139.715254 
" style="fill: none; stroke: #94a3b8; stroke-width: 1.5; stroke-linecap: round"/>
   </g>
   <g id="text_10">
    <!-- Output -->
    <g style="fill: #2d3748" transform="translate(593.073913 140.198692) scale(0.09 -0.09)">
     <use xlink:href="#DejaVuSans-4f"/>
     <use xlink:href="#DejaVuSans-75" transform="translate(78.710938 0)"/>
     <use xlink:href="#DejaVuSans-74" transform="translate(142.089844 0)"/>
     <use xlink:href="#DejaVuSans-70" transform="translate(181.298828 0)"/>
     <use xlink:href="#DejaVuSans-75" transform="translate(244.775391 0)"/>
     <use xlink:href="#DejaVuSans-74" transform="translate(308.154297 0)"/>
    </g>
   </g>
   <g id="text_11">
    <!-- 🤖 Model learns features from data -->
    <g style="fill: #2a9d8f" transform="translate(415.793302 194.461017) scale(0.09 -0.09)">
     <defs>
      <path id="DejaVuSans-Oblique-1f916" d="M 319 -1131 
L 319 4513 
L 3519 4513 
L 3519 -1131 
L 319 -1131 
z
M 678 -775 
L 3163 -775 
L 3163 4153 
L 678 4153 
L 678 -775 
z
" transform="scale(0.015625)"/>
      <path id="DejaVuSans-Oblique-4d" d="M 1081 4666 
L 2028 4666 
L 2572 1522 
L 4378 4666 
L 5350 4666 
L 4441 0 
L 3828 0 
L 4622 4091 
L 2791 897 
L 2175 897 
L 1581 4103 
L 788 0 
L 172 0 
L 1081 4666 
z
" transform="scale(0.015625)"/>
      <path id="DejaVuSans-Oblique-6f" d="M 1625 -91 
Q 1009 -91 651 289 
Q 294 669 294 1325 
Q 294 1706 417 2101 
Q 541 2497 738 2766 
Q 1047 3184 1428 3384 
Q 1809 3584 2291 3584 
Q 2888 3584 3255 3212 
Q 3622 2841 3622 2241 
Q 3622 1825 3500 1412 
Q 3378 1000 3181 728 
Q 2875 309 2494 109 
Q 2113 -91 1625 -91 
z
M 891 1344 
Q 891 869 1089 633 
Q 1288 397 1691 397 
Q 2269 397 2648 901 
Q 3028 1406 3028 2181 
Q 3028 2634 2825 2865 
Q 2622 3097 2228 3097 
Q 1903 3097 1650 2945 
Q 1397 2794 1197 2484 
Q 1050 2253 970 1956 
Q 891 1659 891 1344 
z
" transform="scale(0.015625)"/>
      <path id="DejaVuSans-Oblique-6c" d="M 1172 4863 
L 1747 4863 
L 800 0 
L 225 0 
L 1172 4863 
z
" transform="scale(0.015625)"/>
     </defs>
     <use xlink:href="#DejaVuSans-Oblique-1f916"/>
     <use xlink:href="#DejaVuSans-Oblique-20" transform="translate(60.009766 0)"/>
     <use xlink:href="#DejaVuSans-Oblique-4d" transform="translate(91.796875 0)"/>
     <use xlink:href="#DejaVuSans-Oblique-6f" transform="translate(178.076172 0)"/>
     <use xlink:href="#DejaVuSans-Oblique-64" transform="translate(239.257812 0)"/>
     <use xlink:href="#DejaVuSans-Oblique-65" transform="translate(302.734375 0)"/>
     <use xlink:href="#DejaVuSans-Oblique-6c" transform="translate(364.257812 0)"/>
     <use xlink:href="#DejaVuSans-Oblique-20" transform="translate(392.041016 0)"/>
     <use xlink:href="#DejaVuSans-Oblique-6c" transform="translate(423.828125 0)"/>
     <use xlink:href="#DejaVuSans-Oblique-65" transform="translate(451.611328 0)"/>
     <use xlink:href="#DejaVuSans-Oblique-61" transform="translate(513.134766 0)"/>
     <use xlink:href="#DejaVuSans-Oblique-72" transform="translate(574.414062 0)"/>
     <use xlink:href="#DejaVuSans-Oblique-6e" transform="translate(615.527344 0)"/>
     <use xlink:href="#DejaVuSans-Oblique-73" transform="translate(678.90625 0)"/>
     <use xlink:href="#DejaVuSans-Oblique-20" transform="translate(731.005859 0)"/>
     <use xlink:href="#DejaVuSans-Oblique-66" transform="translate(762.792969 0)"/>
     <use xlink:href="#DejaVuSans-Oblique-65" transform="translate(797.998047 0)"/>
     <use xlink:href="#DejaVuSans-Oblique-61" transform="translate(859.521484 0)"/>
     <use xlink:href="#DejaVuSans-Oblique-74" transform="translate(920.800781 0)"/>
     <use xlink:href="#DejaVuSans-Oblique-75" transform="translate(960.009766 0)"/>
     <use xlink:href="#DejaVuSans-Oblique-72" transform="translate(1023.388672 0)"/>
     <use xlink:href="#DejaVuSans-Oblique-65" transform="translate(1064.501953 0)"/>
     <use xlink:href="#DejaVuSans-Oblique-73" transform="translate(1126.025391 0)"/>
     <use xlink:href="#DejaVuSans-Oblique-20" transform="translate(1178.125 0)"/>
     <use xlink:href="#DejaVuSans-Oblique-66" transform="translate(1209.912109 0)"/>
     <use xlink:href="#DejaVuSans-Oblique-72" transform="translate(1245.117188 0)"/>
     <use xlink:href="#DejaVuSans-Oblique-6f" transform="translate(1286.230469 0)"/>
     <use xlink:href="#DejaVuSans-Oblique-6d" transform="translate(1347.412109 0)"/>
     <use xlink:href="#DejaVuSans-Oblique-20" transform="translate(1444.824219 0)"/>
     <use xlink:href="#DejaVuSans-Oblique-64" transform="translate(1476.611328 0)"/>
     <use xlink:href="#DejaVuSans-Oblique-61" transform="translate(1540.087891 0)"/>
     <use xlink:href="#DejaVuSans-Oblique-74" transform="translate(1601.367188 0)"/>
     <use xlink:href="#DejaVuSans-Oblique-61" transform="translate(1640.576172 0)"/>
    </g>
   </g>
  </g>
 </g>
 <defs>
  <clipPath id="p796e885b2a">
   <rect x="7.2" y="7.2" width="669.6" height="244.00678"/>
  </clipPath>
 </defs>
</svg>
