<?xml version="1.0" encoding="utf-8" standalone="no"?>
<!DOCTYPE svg PUBLIC "-//W3C//DTD SVG 1.1//EN"
  "http://www.w3.org/Graphics/SVG/1.1/DTD/svg11.dtd">
<svg xmlns:xlink="http://www.w3.org/1999/xlink" width="836.228571pt" height="352.8pt" viewBox="0 0 836.228571 352.8" xmlns="http://www.w3.org/2000/svg" version="1.1">
 <metadata>
  <rdf:RDF xmlns:dc="http://purl.org/dc/elements/1.1/" xmlns:cc="http://creativecommons.org/ns#" xmlns:rdf="http://www.w3.org/1999/02/22-rdf-syntax-ns#">
   <cc:Work>
    <dc:type rdf:resource="http://purl.org/dc/dcmitype/StillImage"/>
    <dc:date>2025-12-29T07:49:36.909628</dc:date>
    <dc:format>image/svg+xml</dc:format>
    <dc:creator>
     <cc:Agent>
      <dc:title>Matplotlib v3.10.1, https://matplotlib.org/</dc:title>
     </cc:Agent>
    </dc:creator>
   </cc:Work>
  </rdf:RDF>
 </metadata>
 <defs>
  <style type="text/css">*{stroke-linejoin: round; stroke-linecap: butt}</style>
 </defs>
 <g id="figure_1">
  <g id="patch_1">
   <path d="M 0 352.8 
L 836.228571 352.8 
L 836.228571 0 
L 0 0 
z
" style="fill: #ffffff"/>
  </g>
  <g id="axes_1">
   <g id="patch_2">
    <path d="M 55.542857 244.08 
C 59.38906 244.08 63.07825 242.551887 65.797926 239.832211 
C 68.517602 237.112535 70.045714 233.423346 70.045714 229.577143 
C 70.045714 225.73094 68.517602 222.04175 65.797926 219.322074 
C 63.07825 216.602398 59.38906 215.074286 55.542857 215.074286 
C 51.696654 215.074286 48.007465 216.602398 45.287789 219.322074 
C 42.568113 222.04175 41.04 225.73094 41.04 229.577143 
C 41.04 233.423346 42.568113 237.112535 45.287789 239.832211 
C 48.007465 242.551887 51.696654 244.08 55.542857 244.08 
z
" clip-path="url(#pca50b6be03)" style="fill: #e3f2fd; stroke: #1e3a5f; stroke-width: 2; stroke-linejoin: miter"/>
   </g>
   <g id="patch_3">
    <path d="M 55.542857 195.737143 
C 59.38906 195.737143 63.07825 194.20903 65.797926 191.489354 
C 68.517602 188.769678 70.045714 185.080488 70.045714 181.234286 
C 70.045714 177.388083 68.517602 173.698893 65.797926 170.979217 
C 63.07825 168.259541 59.38906 166.731429 55.542857 166.731429 
C 51.696654 166.731429 48.007465 168.259541 45.287789 170.979217 
C 42.568113 173.698893 41.04 177.388083 41.04 181.234286 
C 41.04 185.080488 42.568113 188.769678 45.287789 191.489354 
C 48.007465 194.20903 51.696654 195.737143 55.542857 195.737143 
z
" clip-path="url(#pca50b6be03)" style="fill: #e3f2fd; stroke: #1e3a5f; stroke-width: 2; stroke-linejoin: miter"/>
   </g>
   <g id="patch_4">
    <path d="M 55.542857 147.394286 
C 59.38906 147.394286 63.07825 145.866173 65.797926 143.146497 
C 68.517602 140.426821 70.045714 136.737631 70.045714 132.891429 
C 70.045714 129.045226 68.517602 125.356036 65.797926 122.63636 
C 63.07825 119.916684 59.38906 118.388571 55.542857 118.388571 
C 51.696654 118.388571 48.007465 119.916684 45.287789 122.63636 
C 42.568113 125.356036 41.04 129.045226 41.04 132.891429 
C 41.04 136.737631 42.568113 140.426821 45.287789 143.146497 
C 48.007465 145.866173 51.696654 147.394286 55.542857 147.394286 
z
" clip-path="url(#pca50b6be03)" style="fill: #e3f2fd; stroke: #1e3a5f; stroke-width: 2; stroke-linejoin: miter"/>
   </g>
   <g id="patch_5">
    <path d="M 55.542857 99.051429 
C 59.38906 99.051429 63.07825 97.523316 65.797926 94.80364 
C 68.517602 92.083964 70.045714 88.394774 70.045714 84.548571 
C 70.045714 80.702369 68.517602 77.013179 65.797926 74.293503 
C 63.07825 71.573827 59.38906 70.045714 55.542857 70.045714 
C 51.696654 70.045714 48.007465 71.573827 45.287789 74.293503 
C 42.568113 77.013179 41.04 80.702369 41.04 84.548571 
C 41.04 88.394774 42.568113 92.083964 45.287789 94.80364 
C 48.007465 97.523316 51.696654 99.051429 55.542857 99.051429 
z
" clip-path="url(#pca50b6be03)" style="fill: #e3f2fd; stroke: #1e3a5f; stroke-width: 2; stroke-linejoin: miter"/>
   </g>
   <g id="patch_6">
    <path d="M 200.571429 234.411429 
C 204.417631 234.411429 208.106821 232.883316 210.826497 230.16364 
C 213.546173 227.443964 215.074286 223.754774 215.074286 219.908571 
C 215.074286 216.062369 213.546173 212.373179 210.826497 209.653503 
C 208.106821 206.933827 204.417631 205.405714 200.571429 205.405714 
C 196.725226 205.405714 193.036036 206.933827 190.31636 209.653503 
C 187.596684 212.373179 186.068571 216.062369 186.068571 219.908571 
C 186.068571 223.754774 187.596684 227.443964 190.31636 230.16364 
C 193.036036 232.883316 196.725226 234.411429 200.571429 234.411429 
z
" clip-path="url(#pca50b6be03)" style="fill: #fff8e1; stroke: #ff9800; stroke-width: 2; stroke-linejoin: miter"/>
   </g>
   <g id="patch_7">
    <path d="M 200.571429 186.068571 
C 204.417631 186.068571 208.106821 184.540459 210.826497 181.820783 
C 213.546173 179.101107 215.074286 175.411917 215.074286 171.565714 
C 215.074286 167.719512 213.546173 164.030322 210.826497 161.310646 
C 208.106821 158.59097 204.417631 157.062857 200.571429 157.062857 
C 196.725226 157.062857 193.036036 158.59097 190.31636 161.310646 
C 187.596684 164.030322 186.068571 167.719512 186.068571 171.565714 
C 186.068571 175.411917 187.596684 179.101107 190.31636 181.820783 
C 193.036036 184.540459 196.725226 186.068571 200.571429 186.068571 
z
" clip-path="url(#pca50b6be03)" style="fill: #fff8e1; stroke: #ff9800; stroke-width: 2; stroke-linejoin: miter"/>
   </g>
   <g id="patch_8">
    <path d="M 200.571429 137.725714 
C 204.417631 137.725714 208.106821 136.197602 210.826497 133.477926 
C 213.546173 130.75825 215.074286 127.06906 215.074286 123.222857 
C 215.074286 119.376654 213.546173 115.687465 210.826497 112.967789 
C 208.106821 110.248113 204.417631 108.72 200.571429 108.72 
C 196.725226 108.72 193.036036 110.248113 190.31636 112.967789 
C 187.596684 115.687465 186.068571 119.376654 186.068571 123.222857 
C 186.068571 127.06906 187.596684 130.75825 190.31636 133.477926 
C 193.036036 136.197602 196.725226 137.725714 200.571429 137.725714 
z
" clip-path="url(#pca50b6be03)" style="fill: #fff8e1; stroke: #ff9800; stroke-width: 2; stroke-linejoin: miter"/>
   </g>
   <g id="patch_9">
    <path d="M 345.6 215.074286 
C 349.446203 215.074286 353.135393 213.546173 355.855069 210.826497 
C 358.574745 208.106821 360.102857 204.417631 360.102857 200.571429 
C 360.102857 196.725226 358.574745 193.036036 355.855069 190.31636 
C 353.135393 187.596684 349.446203 186.068571 345.6 186.068571 
C 341.753797 186.068571 338.064607 187.596684 335.344931 190.31636 
C 332.625255 193.036036 331.097143 196.725226 331.097143 200.571429 
C 331.097143 204.417631 332.625255 208.106821 335.344931 210.826497 
C 338.064607 213.546173 341.753797 215.074286 345.6 215.074286 
z
" clip-path="url(#pca50b6be03)" style="fill: #fff8e1; stroke: #ff9800; stroke-width: 2; stroke-linejoin: miter"/>
   </g>
   <g id="patch_10">
    <path d="M 345.6 166.731429 
C 349.446203 166.731429 353.135393 165.203316 355.855069 162.48364 
C 358.574745 159.763964 360.102857 156.074774 360.102857 152.228571 
C 360.102857 148.382369 358.574745 144.693179 355.855069 141.973503 
C 353.135393 139.253827 349.446203 137.725714 345.6 137.725714 
C 341.753797 137.725714 338.064607 139.253827 335.344931 141.973503 
C 332.625255 144.693179 331.097143 148.382369 331.097143 152.228571 
C 331.097143 156.074774 332.625255 159.763964 335.344931 162.48364 
C 338.064607 165.203316 341.753797 166.731429 345.6 166.731429 
z
" clip-path="url(#pca50b6be03)" style="fill: #fff8e1; stroke: #ff9800; stroke-width: 2; stroke-linejoin: miter"/>
   </g>
   <g id="patch_11">
    <path d="M 345.6 118.388571 
C 349.446203 118.388571 353.135393 116.860459 355.855069 114.140783 
C 358.574745 111.421107 360.102857 107.731917 360.102857 103.885714 
C 360.102857 100.039512 358.574745 96.350322 355.855069 93.630646 
C 353.135393 90.91097 349.446203 89.382857 345.6 89.382857 
C 341.753797 89.382857 338.064607 90.91097 335.344931 93.630646 
C 332.625255 96.350322 331.097143 100.039512 331.097143 103.885714 
C 331.097143 107.731917 332.625255 111.421107 335.344931 114.140783 
C 338.064607 116.860459 341.753797 118.388571 345.6 118.388571 
z
" clip-path="url(#pca50b6be03)" style="fill: #fff8e1; stroke: #ff9800; stroke-width: 2; stroke-linejoin: miter"/>
   </g>
   <g id="patch_12">
    <path d="M 490.628571 166.731429 
C 494.474774 166.731429 498.163964 165.203316 500.88364 162.48364 
C 503.603316 159.763964 505.131429 156.074774 505.131429 152.228571 
C 505.131429 148.382369 503.603316 144.693179 500.88364 141.973503 
C 498.163964 139.253827 494.474774 137.725714 490.628571 137.725714 
C 486.782369 137.725714 483.093179 139.253827 480.373503 141.973503 
C 477.653827 144.693179 476.125714 148.382369 476.125714 152.228571 
C 476.125714 156.074774 477.653827 159.763964 480.373503 162.48364 
C 483.093179 165.203316 486.782369 166.731429 490.628571 166.731429 
z
" clip-path="url(#pca50b6be03)" style="fill: #e8f5e9; stroke: #2a9d8f; stroke-width: 2; stroke-linejoin: miter"/>
   </g>
   <g id="patch_13">
    <path d="M 633.723429 202.505143 
L 792.288 202.505143 
Q 801.956571 202.505143 801.956571 192.836571 
L 801.956571 111.620571 
Q 801.956571 101.952 792.288 101.952 
L 633.723429 101.952 
Q 624.054857 101.952 624.054857 111.620571 
L 624.054857 192.836571 
Q 624.054857 202.505143 633.723429 202.505143 
z
" clip-path="url(#pca50b6be03)" style="fill: #ffebee; stroke: #e85a4f; stroke-width: 2; stroke-linejoin: miter"/>
   </g>
   <g id="line2d_1">
    <path d="M 70.045714 229.577143 
L 186.068571 219.908571 
" clip-path="url(#pca50b6be03)" style="fill: none; stroke: #1e3a5f; stroke-opacity: 0.3; stroke-width: 0.5; stroke-linecap: square"/>
   </g>
   <g id="line2d_2">
    <path d="M 70.045714 229.577143 
L 186.068571 171.565714 
" clip-path="url(#pca50b6be03)" style="fill: none; stroke: #1e3a5f; stroke-opacity: 0.3; stroke-width: 0.5; stroke-linecap: square"/>
   </g>
   <g id="line2d_3">
    <path d="M 70.045714 229.577143 
L 186.068571 123.222857 
" clip-path="url(#pca50b6be03)" style="fill: none; stroke: #1e3a5f; stroke-opacity: 0.3; stroke-width: 0.5; stroke-linecap: square"/>
   </g>
   <g id="line2d_4">
    <path d="M 70.045714 181.234286 
L 186.068571 219.908571 
" clip-path="url(#pca50b6be03)" style="fill: none; stroke: #1e3a5f; stroke-opacity: 0.3; stroke-width: 0.5; stroke-linecap: square"/>
   </g>
   <g id="line2d_5">
    <path d="M 70.045714 181.234286 
L 186.068571 171.565714 
" clip-path="url(#pca50b6be03)" style="fill: none; stroke: #1e3a5f; stroke-opacity: 0.3; stroke-width: 0.5; stroke-linecap: square"/>
   </g>
   <g id="line2d_6">
    <path d="M 70.045714 181.234286 
L 186.068571 123.222857 
" clip-path="url(#pca50b6be03)" style="fill: none; stroke: #1e3a5f; stroke-opacity: 0.3; stroke-width: 0.5; stroke-linecap: square"/>
   </g>
   <g id="line2d_7">
    <path d="M 70.045714 132.891429 
L 186.068571 219.908571 
" clip-path="url(#pca50b6be03)" style="fill: none; stroke: #1e3a5f; stroke-opacity: 0.3; stroke-width: 0.5; stroke-linecap: square"/>
   </g>
   <g id="line2d_8">
    <path d="M 70.045714 132.891429 
L 186.068571 171.565714 
" clip-path="url(#pca50b6be03)" style="fill: none; stroke: #1e3a5f; stroke-opacity: 0.3; stroke-width: 0.5; stroke-linecap: square"/>
   </g>
   <g id="line2d_9">
    <path d="M 70.045714 132.891429 
L 186.068571 123.222857 
" clip-path="url(#pca50b6be03)" style="fill: none; stroke: #1e3a5f; stroke-opacity: 0.3; stroke-width: 0.5; stroke-linecap: square"/>
   </g>
   <g id="line2d_10">
    <path d="M 70.045714 84.548571 
L 186.068571 219.908571 
" clip-path="url(#pca50b6be03)" style="fill: none; stroke: #1e3a5f; stroke-opacity: 0.3; stroke-width: 0.5; stroke-linecap: square"/>
   </g>
   <g id="line2d_11">
    <path d="M 70.045714 84.548571 
L 186.068571 171.565714 
" clip-path="url(#pca50b6be03)" style="fill: none; stroke: #1e3a5f; stroke-opacity: 0.3; stroke-width: 0.5; stroke-linecap: square"/>
   </g>
   <g id="line2d_12">
    <path d="M 70.045714 84.548571 
L 186.068571 123.222857 
" clip-path="url(#pca50b6be03)" style="fill: none; stroke: #1e3a5f; stroke-opacity: 0.3; stroke-width: 0.5; stroke-linecap: square"/>
   </g>
   <g id="line2d_13">
    <path d="M 215.074286 219.908571 
L 331.097143 200.571429 
" clip-path="url(#pca50b6be03)" style="fill: none; stroke: #ff9800; stroke-opacity: 0.3; stroke-width: 0.5; stroke-linecap: square"/>
   </g>
   <g id="line2d_14">
    <path d="M 215.074286 219.908571 
L 331.097143 152.228571 
" clip-path="url(#pca50b6be03)" style="fill: none; stroke: #ff9800; stroke-opacity: 0.3; stroke-width: 0.5; stroke-linecap: square"/>
   </g>
   <g id="line2d_15">
    <path d="M 215.074286 219.908571 
L 331.097143 103.885714 
" clip-path="url(#pca50b6be03)" style="fill: none; stroke: #ff9800; stroke-opacity: 0.3; stroke-width: 0.5; stroke-linecap: square"/>
   </g>
   <g id="line2d_16">
    <path d="M 215.074286 171.565714 
L 331.097143 200.571429 
" clip-path="url(#pca50b6be03)" style="fill: none; stroke: #ff9800; stroke-opacity: 0.3; stroke-width: 0.5; stroke-linecap: square"/>
   </g>
   <g id="line2d_17">
    <path d="M 215.074286 171.565714 
L 331.097143 152.228571 
" clip-path="url(#pca50b6be03)" style="fill: none; stroke: #ff9800; stroke-opacity: 0.3; stroke-width: 0.5; stroke-linecap: square"/>
   </g>
   <g id="line2d_18">
    <path d="M 215.074286 171.565714 
L 331.097143 103.885714 
" clip-path="url(#pca50b6be03)" style="fill: none; stroke: #ff9800; stroke-opacity: 0.3; stroke-width: 0.5; stroke-linecap: square"/>
   </g>
   <g id="line2d_19">
    <path d="M 215.074286 123.222857 
L 331.097143 200.571429 
" clip-path="url(#pca50b6be03)" style="fill: none; stroke: #ff9800; stroke-opacity: 0.3; stroke-width: 0.5; stroke-linecap: square"/>
   </g>
   <g id="line2d_20">
    <path d="M 215.074286 123.222857 
L 331.097143 152.228571 
" clip-path="url(#pca50b6be03)" style="fill: none; stroke: #ff9800; stroke-opacity: 0.3; stroke-width: 0.5; stroke-linecap: square"/>
   </g>
   <g id="line2d_21">
    <path d="M 215.074286 123.222857 
L 331.097143 103.885714 
" clip-path="url(#pca50b6be03)" style="fill: none; stroke: #ff9800; stroke-opacity: 0.3; stroke-width: 0.5; stroke-linecap: square"/>
   </g>
   <g id="line2d_22">
    <path d="M 360.102857 200.571429 
L 476.125714 152.228571 
" clip-path="url(#pca50b6be03)" style="fill: none; stroke: #ff9800; stroke-opacity: 0.3; stroke-width: 0.5; stroke-linecap: square"/>
   </g>
   <g id="line2d_23">
    <path d="M 360.102857 152.228571 
L 476.125714 152.228571 
" clip-path="url(#pca50b6be03)" style="fill: none; stroke: #ff9800; stroke-opacity: 0.3; stroke-width: 0.5; stroke-linecap: square"/>
   </g>
   <g id="line2d_24">
    <path d="M 360.102857 103.885714 
L 476.125714 152.228571 
" clip-path="url(#pca50b6be03)" style="fill: none; stroke: #ff9800; stroke-opacity: 0.3; stroke-width: 0.5; stroke-linecap: square"/>
   </g>
   <g id="text_1">
    <!-- $x_1$ -->
    <g style="fill: #1e3a5f" transform="translate(51.582857 231.784643) scale(0.08 -0.08)">
     <defs>
      <path id="Cmmi10-78" d="M 500 184 
Q 613 97 819 97 
Q 1019 97 1172 289 
Q 1325 481 1381 709 
L 1672 1844 
Q 1741 2153 1741 2266 
Q 1741 2425 1652 2544 
Q 1563 2663 1403 2663 
Q 1200 2663 1022 2536 
Q 844 2409 722 2214 
Q 600 2019 550 1819 
Q 538 1778 500 1778 
L 422 1778 
Q 372 1778 372 1838 
L 372 1856 
Q 434 2094 584 2320 
Q 734 2547 951 2687 
Q 1169 2828 1416 2828 
Q 1650 2828 1839 2703 
Q 2028 2578 2106 2363 
Q 2216 2559 2386 2693 
Q 2556 2828 2759 2828 
Q 2897 2828 3040 2779 
Q 3184 2731 3275 2631 
Q 3366 2531 3366 2381 
Q 3366 2219 3261 2101 
Q 3156 1984 2994 1984 
Q 2891 1984 2822 2050 
Q 2753 2116 2753 2216 
Q 2753 2350 2845 2451 
Q 2938 2553 3066 2572 
Q 2950 2663 2747 2663 
Q 2541 2663 2389 2472 
Q 2238 2281 2175 2047 
L 1894 916 
Q 1825 659 1825 494 
Q 1825 331 1917 214 
Q 2009 97 2163 97 
Q 2463 97 2698 361 
Q 2934 625 3009 941 
Q 3022 978 3059 978 
L 3138 978 
Q 3163 978 3178 961 
Q 3194 944 3194 922 
Q 3194 916 3188 903 
Q 3097 522 2806 225 
Q 2516 -72 2150 -72 
Q 1916 -72 1727 54 
Q 1538 181 1459 397 
Q 1359 209 1182 68 
Q 1006 -72 806 -72 
Q 669 -72 523 -23 
Q 378 25 287 125 
Q 197 225 197 378 
Q 197 528 301 651 
Q 406 775 563 775 
Q 669 775 741 711 
Q 813 647 813 544 
Q 813 409 723 309 
Q 634 209 500 184 
z
" transform="scale(0.015625)"/>
      <path id="Cmr10-31" d="M 594 0 
L 594 225 
Q 1394 225 1394 428 
L 1394 3788 
Q 1063 3628 556 3628 
L 556 3853 
Q 1341 3853 1741 4263 
L 1831 4263 
Q 1853 4263 1873 4245 
Q 1894 4228 1894 4206 
L 1894 428 
Q 1894 225 2694 225 
L 2694 0 
L 594 0 
z
" transform="scale(0.015625)"/>
     </defs>
     <use xlink:href="#Cmmi10-78" transform="translate(0 0.8125)"/>
     <use xlink:href="#Cmr10-31" transform="translate(57.080078 -16.19375) scale(0.7)"/>
    </g>
   </g>
   <g id="text_2">
    <!-- $x_2$ -->
    <g style="fill: #1e3a5f" transform="translate(51.582857 183.441786) scale(0.08 -0.08)">
     <defs>
      <path id="Cmr10-32" d="M 319 0 
L 319 172 
Q 319 188 331 206 
L 1325 1306 
Q 1550 1550 1690 1715 
Q 1831 1881 1968 2097 
Q 2106 2313 2186 2536 
Q 2266 2759 2266 3009 
Q 2266 3272 2169 3511 
Q 2072 3750 1880 3894 
Q 1688 4038 1416 4038 
Q 1138 4038 916 3870 
Q 694 3703 603 3438 
Q 628 3444 672 3444 
Q 816 3444 917 3347 
Q 1019 3250 1019 3097 
Q 1019 2950 917 2848 
Q 816 2747 672 2747 
Q 522 2747 420 2851 
Q 319 2956 319 3097 
Q 319 3338 409 3548 
Q 500 3759 670 3923 
Q 841 4088 1055 4175 
Q 1269 4263 1509 4263 
Q 1875 4263 2190 4108 
Q 2506 3953 2690 3670 
Q 2875 3388 2875 3009 
Q 2875 2731 2753 2481 
Q 2631 2231 2440 2026 
Q 2250 1822 1953 1562 
Q 1656 1303 1563 1216 
L 838 519 
L 1453 519 
Q 1906 519 2211 526 
Q 2516 534 2534 550 
Q 2609 631 2688 1141 
L 2875 1141 
L 2694 0 
L 319 0 
z
" transform="scale(0.015625)"/>
     </defs>
     <use xlink:href="#Cmmi10-78" transform="translate(0 0.8125)"/>
     <use xlink:href="#Cmr10-32" transform="translate(57.080078 -16.19375) scale(0.7)"/>
    </g>
   </g>
   <g id="text_3">
    <!-- ... -->
    <g style="fill: #1e3a5f" transform="translate(51.729107 135.098929) scale(0.08 -0.08)">
     <defs>
      <path id="DejaVuSans-2e" d="M 684 794 
L 1344 794 
L 1344 0 
L 684 0 
L 684 794 
z
" transform="scale(0.015625)"/>
     </defs>
     <use xlink:href="#DejaVuSans-2e"/>
     <use xlink:href="#DejaVuSans-2e" transform="translate(31.787109 0)"/>
     <use xlink:href="#DejaVuSans-2e" transform="translate(63.574219 0)"/>
    </g>
   </g>
   <g id="text_4">
    <!-- $x_d$ -->
    <g style="fill: #1e3a5f" transform="translate(51.542857 86.756071) scale(0.08 -0.08)">
     <defs>
      <path id="Cmmi10-64" d="M 1113 -72 
Q 709 -72 476 233 
Q 244 538 244 953 
Q 244 1363 456 1803 
Q 669 2244 1030 2536 
Q 1391 2828 1806 2828 
Q 1994 2828 2145 2723 
Q 2297 2619 2381 2444 
L 2741 3872 
Q 2766 3981 2772 4044 
Q 2772 4147 2356 4147 
Q 2291 4147 2291 4231 
Q 2294 4247 2305 4287 
Q 2316 4328 2333 4350 
Q 2350 4372 2381 4372 
L 3244 4441 
Q 3322 4441 3322 4359 
L 2400 678 
Q 2356 572 2356 372 
Q 2356 97 2541 97 
Q 2741 97 2845 351 
Q 2950 606 3022 941 
Q 3034 978 3072 978 
L 3150 978 
Q 3175 978 3190 956 
Q 3206 934 3206 916 
Q 3094 469 2961 198 
Q 2828 -72 2528 -72 
Q 2313 -72 2147 54 
Q 1981 181 1941 391 
Q 1528 -72 1113 -72 
z
M 1119 97 
Q 1350 97 1567 270 
Q 1784 444 1941 678 
Q 1947 684 1947 703 
L 2297 2113 
Q 2259 2338 2131 2500 
Q 2003 2663 1791 2663 
Q 1575 2663 1389 2486 
Q 1203 2309 1075 2069 
Q 950 1813 836 1366 
Q 722 919 722 672 
Q 722 450 817 273 
Q 913 97 1119 97 
z
" transform="scale(0.015625)"/>
     </defs>
     <use xlink:href="#Cmmi10-78" transform="translate(0 0.8125)"/>
     <use xlink:href="#Cmmi10-64" transform="translate(57.080078 -16.19375) scale(0.7)"/>
    </g>
   </g>
   <g id="text_5">
    <!-- Input -->
    <g style="fill: #1e3a5f" transform="translate(40.595201 32.596786) scale(0.1 -0.1)">
     <defs>
      <path id="DejaVuSans-Bold-49" d="M 588 4666 
L 1791 4666 
L 1791 0 
L 588 0 
L 588 4666 
z
" transform="scale(0.015625)"/>
      <path id="DejaVuSans-Bold-6e" d="M 4056 2131 
L 4056 0 
L 2931 0 
L 2931 347 
L 2931 1631 
Q 2931 2084 2911 2256 
Q 2891 2428 2841 2509 
Q 2775 2619 2662 2680 
Q 2550 2741 2406 2741 
Q 2056 2741 1856 2470 
Q 1656 2200 1656 1722 
L 1656 0 
L 538 0 
L 538 3500 
L 1656 3500 
L 1656 2988 
Q 1909 3294 2193 3439 
Q 2478 3584 2822 3584 
Q 3428 3584 3742 3212 
Q 4056 2841 4056 2131 
z
" transform="scale(0.015625)"/>
      <path id="DejaVuSans-Bold-70" d="M 1656 506 
L 1656 -1331 
L 538 -1331 
L 538 3500 
L 1656 3500 
L 1656 2988 
Q 1888 3294 2169 3439 
Q 2450 3584 2816 3584 
Q 3463 3584 3878 3070 
Q 4294 2556 4294 1747 
Q 4294 938 3878 423 
Q 3463 -91 2816 -91 
Q 2450 -91 2169 54 
Q 1888 200 1656 506 
z
M 2400 2772 
Q 2041 2772 1848 2508 
Q 1656 2244 1656 1747 
Q 1656 1250 1848 986 
Q 2041 722 2400 722 
Q 2759 722 2948 984 
Q 3138 1247 3138 1747 
Q 3138 2247 2948 2509 
Q 2759 2772 2400 2772 
z
" transform="scale(0.015625)"/>
      <path id="DejaVuSans-Bold-75" d="M 500 1363 
L 500 3500 
L 1625 3500 
L 1625 3150 
Q 1625 2866 1622 2436 
Q 1619 2006 1619 1863 
Q 1619 1441 1641 1255 
Q 1663 1069 1716 984 
Q 1784 875 1895 815 
Q 2006 756 2150 756 
Q 2500 756 2700 1025 
Q 2900 1294 2900 1772 
L 2900 3500 
L 4019 3500 
L 4019 0 
L 2900 0 
L 2900 506 
Q 2647 200 2364 54 
Q 2081 -91 1741 -91 
Q 1134 -91 817 281 
Q 500 653 500 1363 
z
" transform="scale(0.015625)"/>
      <path id="DejaVuSans-Bold-74" d="M 1759 4494 
L 1759 3500 
L 2913 3500 
L 2913 2700 
L 1759 2700 
L 1759 1216 
Q 1759 972 1856 886 
Q 1953 800 2241 800 
L 2816 800 
L 2816 0 
L 1856 0 
Q 1194 0 917 276 
Q 641 553 641 1216 
L 641 2700 
L 84 2700 
L 84 3500 
L 641 3500 
L 641 4494 
L 1759 4494 
z
" transform="scale(0.015625)"/>
     </defs>
     <use xlink:href="#DejaVuSans-Bold-49"/>
     <use xlink:href="#DejaVuSans-Bold-6e" transform="translate(37.207031 0)"/>
     <use xlink:href="#DejaVuSans-Bold-70" transform="translate(108.398438 0)"/>
     <use xlink:href="#DejaVuSans-Bold-75" transform="translate(179.980469 0)"/>
     <use xlink:href="#DejaVuSans-Bold-74" transform="translate(251.171875 0)"/>
    </g>
    <!-- (d features) -->
    <g style="fill: #1e3a5f" transform="translate(21.930357 43.794598) scale(0.1 -0.1)">
     <defs>
      <path id="DejaVuSans-Bold-28" d="M 2413 -844 
L 1484 -844 
Q 1006 -72 778 623 
Q 550 1319 550 2003 
Q 550 2688 779 3389 
Q 1009 4091 1484 4856 
L 2413 4856 
Q 2013 4116 1813 3408 
Q 1613 2700 1613 2009 
Q 1613 1319 1811 609 
Q 2009 -100 2413 -844 
z
" transform="scale(0.015625)"/>
      <path id="DejaVuSans-Bold-64" d="M 2919 2988 
L 2919 4863 
L 4044 4863 
L 4044 0 
L 2919 0 
L 2919 506 
Q 2688 197 2409 53 
Q 2131 -91 1766 -91 
Q 1119 -91 703 423 
Q 288 938 288 1747 
Q 288 2556 703 3070 
Q 1119 3584 1766 3584 
Q 2128 3584 2408 3439 
Q 2688 3294 2919 2988 
z
M 2181 722 
Q 2541 722 2730 984 
Q 2919 1247 2919 1747 
Q 2919 2247 2730 2509 
Q 2541 2772 2181 2772 
Q 1825 2772 1636 2509 
Q 1447 2247 1447 1747 
Q 1447 1247 1636 984 
Q 1825 722 2181 722 
z
" transform="scale(0.015625)"/>
      <path id="DejaVuSans-Bold-20" transform="scale(0.015625)"/>
      <path id="DejaVuSans-Bold-66" d="M 2841 4863 
L 2841 4128 
L 2222 4128 
Q 1984 4128 1890 4042 
Q 1797 3956 1797 3744 
L 1797 3500 
L 2753 3500 
L 2753 2700 
L 1797 2700 
L 1797 0 
L 678 0 
L 678 2700 
L 122 2700 
L 122 3500 
L 678 3500 
L 678 3744 
Q 678 4316 997 4589 
Q 1316 4863 1984 4863 
L 2841 4863 
z
" transform="scale(0.015625)"/>
      <path id="DejaVuSans-Bold-65" d="M 4031 1759 
L 4031 1441 
L 1416 1441 
Q 1456 1047 1700 850 
Q 1944 653 2381 653 
Q 2734 653 3104 758 
Q 3475 863 3866 1075 
L 3866 213 
Q 3469 63 3072 -14 
Q 2675 -91 2278 -91 
Q 1328 -91 801 392 
Q 275 875 275 1747 
Q 275 2603 792 3093 
Q 1309 3584 2216 3584 
Q 3041 3584 3536 3087 
Q 4031 2591 4031 1759 
z
M 2881 2131 
Q 2881 2450 2695 2645 
Q 2509 2841 2209 2841 
Q 1884 2841 1681 2658 
Q 1478 2475 1428 2131 
L 2881 2131 
z
" transform="scale(0.015625)"/>
      <path id="DejaVuSans-Bold-61" d="M 2106 1575 
Q 1756 1575 1579 1456 
Q 1403 1338 1403 1106 
Q 1403 894 1545 773 
Q 1688 653 1941 653 
Q 2256 653 2472 879 
Q 2688 1106 2688 1447 
L 2688 1575 
L 2106 1575 
z
M 3816 1997 
L 3816 0 
L 2688 0 
L 2688 519 
Q 2463 200 2181 54 
Q 1900 -91 1497 -91 
Q 953 -91 614 226 
Q 275 544 275 1050 
Q 275 1666 698 1953 
Q 1122 2241 2028 2241 
L 2688 2241 
L 2688 2328 
Q 2688 2594 2478 2717 
Q 2269 2841 1825 2841 
Q 1466 2841 1156 2769 
Q 847 2697 581 2553 
L 581 3406 
Q 941 3494 1303 3539 
Q 1666 3584 2028 3584 
Q 2975 3584 3395 3211 
Q 3816 2838 3816 1997 
z
" transform="scale(0.015625)"/>
      <path id="DejaVuSans-Bold-72" d="M 3138 2547 
Q 2991 2616 2845 2648 
Q 2700 2681 2553 2681 
Q 2122 2681 1889 2404 
Q 1656 2128 1656 1613 
L 1656 0 
L 538 0 
L 538 3500 
L 1656 3500 
L 1656 2925 
Q 1872 3269 2151 3426 
Q 2431 3584 2822 3584 
Q 2878 3584 2943 3579 
Q 3009 3575 3134 3559 
L 3138 2547 
z
" transform="scale(0.015625)"/>
      <path id="DejaVuSans-Bold-73" d="M 3272 3391 
L 3272 2541 
Q 2913 2691 2578 2766 
Q 2244 2841 1947 2841 
Q 1628 2841 1473 2761 
Q 1319 2681 1319 2516 
Q 1319 2381 1436 2309 
Q 1553 2238 1856 2203 
L 2053 2175 
Q 2913 2066 3209 1816 
Q 3506 1566 3506 1031 
Q 3506 472 3093 190 
Q 2681 -91 1863 -91 
Q 1516 -91 1145 -36 
Q 775 19 384 128 
L 384 978 
Q 719 816 1070 734 
Q 1422 653 1784 653 
Q 2113 653 2278 743 
Q 2444 834 2444 1013 
Q 2444 1163 2330 1236 
Q 2216 1309 1875 1350 
L 1678 1375 
Q 931 1469 631 1722 
Q 331 1975 331 2491 
Q 331 3047 712 3315 
Q 1094 3584 1881 3584 
Q 2191 3584 2531 3537 
Q 2872 3491 3272 3391 
z
" transform="scale(0.015625)"/>
      <path id="DejaVuSans-Bold-29" d="M 513 -844 
Q 913 -100 1113 609 
Q 1313 1319 1313 2009 
Q 1313 2700 1113 3408 
Q 913 4116 513 4856 
L 1441 4856 
Q 1916 4091 2145 3389 
Q 2375 2688 2375 2003 
Q 2375 1319 2147 623 
Q 1919 -72 1441 -844 
L 513 -844 
z
" transform="scale(0.015625)"/>
     </defs>
     <use xlink:href="#DejaVuSans-Bold-28"/>
     <use xlink:href="#DejaVuSans-Bold-64" transform="translate(45.703125 0)"/>
     <use xlink:href="#DejaVuSans-Bold-20" transform="translate(117.285156 0)"/>
     <use xlink:href="#DejaVuSans-Bold-66" transform="translate(152.099609 0)"/>
     <use xlink:href="#DejaVuSans-Bold-65" transform="translate(195.605469 0)"/>
     <use xlink:href="#DejaVuSans-Bold-61" transform="translate(263.427734 0)"/>
     <use xlink:href="#DejaVuSans-Bold-74" transform="translate(330.908203 0)"/>
     <use xlink:href="#DejaVuSans-Bold-75" transform="translate(378.710938 0)"/>
     <use xlink:href="#DejaVuSans-Bold-72" transform="translate(449.902344 0)"/>
     <use xlink:href="#DejaVuSans-Bold-65" transform="translate(499.21875 0)"/>
     <use xlink:href="#DejaVuSans-Bold-73" transform="translate(567.041016 0)"/>
     <use xlink:href="#DejaVuSans-Bold-29" transform="translate(626.5625 0)"/>
    </g>
   </g>
   <g id="text_6">
    <!-- Hidden 1 -->
    <g style="fill: #ff9800" transform="translate(175.344866 82.468884) scale(0.1 -0.1)">
     <defs>
      <path id="DejaVuSans-Bold-48" d="M 588 4666 
L 1791 4666 
L 1791 2888 
L 3566 2888 
L 3566 4666 
L 4769 4666 
L 4769 0 
L 3566 0 
L 3566 1978 
L 1791 1978 
L 1791 0 
L 588 0 
L 588 4666 
z
" transform="scale(0.015625)"/>
      <path id="DejaVuSans-Bold-69" d="M 538 3500 
L 1656 3500 
L 1656 0 
L 538 0 
L 538 3500 
z
M 538 4863 
L 1656 4863 
L 1656 3950 
L 538 3950 
L 538 4863 
z
" transform="scale(0.015625)"/>
      <path id="DejaVuSans-Bold-31" d="M 750 831 
L 1813 831 
L 1813 3847 
L 722 3622 
L 722 4441 
L 1806 4666 
L 2950 4666 
L 2950 831 
L 4013 831 
L 4013 0 
L 750 0 
L 750 831 
z
" transform="scale(0.015625)"/>
     </defs>
     <use xlink:href="#DejaVuSans-Bold-48"/>
     <use xlink:href="#DejaVuSans-Bold-69" transform="translate(83.691406 0)"/>
     <use xlink:href="#DejaVuSans-Bold-64" transform="translate(117.96875 0)"/>
     <use xlink:href="#DejaVuSans-Bold-64" transform="translate(189.550781 0)"/>
     <use xlink:href="#DejaVuSans-Bold-65" transform="translate(261.132812 0)"/>
     <use xlink:href="#DejaVuSans-Bold-6e" transform="translate(328.955078 0)"/>
     <use xlink:href="#DejaVuSans-Bold-20" transform="translate(400.146484 0)"/>
     <use xlink:href="#DejaVuSans-Bold-31" transform="translate(434.960938 0)"/>
    </g>
   </g>
   <g id="text_7">
    <!-- Hidden 2 -->
    <g style="fill: #ff9800" transform="translate(320.373437 63.131741) scale(0.1 -0.1)">
     <defs>
      <path id="DejaVuSans-Bold-32" d="M 1844 884 
L 3897 884 
L 3897 0 
L 506 0 
L 506 884 
L 2209 2388 
Q 2438 2594 2547 2791 
Q 2656 2988 2656 3200 
Q 2656 3528 2436 3728 
Q 2216 3928 1850 3928 
Q 1569 3928 1234 3808 
Q 900 3688 519 3450 
L 519 4475 
Q 925 4609 1322 4679 
Q 1719 4750 2100 4750 
Q 2938 4750 3402 4381 
Q 3866 4013 3866 3353 
Q 3866 2972 3669 2642 
Q 3472 2313 2841 1759 
L 1844 884 
z
" transform="scale(0.015625)"/>
     </defs>
     <use xlink:href="#DejaVuSans-Bold-48"/>
     <use xlink:href="#DejaVuSans-Bold-69" transform="translate(83.691406 0)"/>
     <use xlink:href="#DejaVuSans-Bold-64" transform="translate(117.96875 0)"/>
     <use xlink:href="#DejaVuSans-Bold-64" transform="translate(189.550781 0)"/>
     <use xlink:href="#DejaVuSans-Bold-65" transform="translate(261.132812 0)"/>
     <use xlink:href="#DejaVuSans-Bold-6e" transform="translate(328.955078 0)"/>
     <use xlink:href="#DejaVuSans-Bold-20" transform="translate(400.146484 0)"/>
     <use xlink:href="#DejaVuSans-Bold-32" transform="translate(434.960938 0)"/>
    </g>
   </g>
   <g id="text_8">
    <!-- $\sigma$ -->
    <g style="fill: #2a9d8f" transform="translate(488.308571 154.436071) scale(0.08 -0.08)">
     <defs>
      <path id="Cmmi10-be" d="M 1197 -72 
Q 913 -72 692 64 
Q 472 200 351 431 
Q 231 663 231 941 
Q 231 1238 365 1566 
Q 500 1894 733 2166 
Q 966 2438 1259 2598 
Q 1553 2759 1863 2759 
L 3475 2759 
Q 3541 2759 3587 2715 
Q 3634 2672 3634 2597 
Q 3634 2503 3567 2433 
Q 3500 2363 3406 2363 
L 2625 2363 
Q 2809 2088 2809 1697 
Q 2809 1375 2684 1062 
Q 2559 750 2337 492 
Q 2116 234 1820 81 
Q 1525 -72 1197 -72 
z
M 1203 97 
Q 1553 97 1823 370 
Q 2094 644 2237 1039 
Q 2381 1434 2381 1772 
Q 2381 2047 2229 2205 
Q 2078 2363 1806 2363 
Q 1434 2363 1173 2113 
Q 913 1863 783 1484 
Q 653 1106 653 756 
Q 653 481 798 289 
Q 944 97 1203 97 
z
" transform="scale(0.015625)"/>
     </defs>
     <use xlink:href="#Cmmi10-be" transform="translate(0 0.890625)"/>
    </g>
   </g>
   <g id="text_9">
    <!-- Output -->
    <g style="fill: #2a9d8f" transform="translate(470.900446 100.276786) scale(0.1 -0.1)">
     <defs>
      <path id="DejaVuSans-Bold-4f" d="M 2719 3878 
Q 2169 3878 1866 3472 
Q 1563 3066 1563 2328 
Q 1563 1594 1866 1187 
Q 2169 781 2719 781 
Q 3272 781 3575 1187 
Q 3878 1594 3878 2328 
Q 3878 3066 3575 3472 
Q 3272 3878 2719 3878 
z
M 2719 4750 
Q 3844 4750 4481 4106 
Q 5119 3463 5119 2328 
Q 5119 1197 4481 553 
Q 3844 -91 2719 -91 
Q 1597 -91 958 553 
Q 319 1197 319 2328 
Q 319 3463 958 4106 
Q 1597 4750 2719 4750 
z
" transform="scale(0.015625)"/>
     </defs>
     <use xlink:href="#DejaVuSans-Bold-4f"/>
     <use xlink:href="#DejaVuSans-Bold-75" transform="translate(85.009766 0)"/>
     <use xlink:href="#DejaVuSans-Bold-74" transform="translate(156.201172 0)"/>
     <use xlink:href="#DejaVuSans-Bold-70" transform="translate(204.003906 0)"/>
     <use xlink:href="#DejaVuSans-Bold-75" transform="translate(275.585938 0)"/>
     <use xlink:href="#DejaVuSans-Bold-74" transform="translate(346.777344 0)"/>
    </g>
    <!-- (1 neuron) -->
    <g style="fill: #2a9d8f" transform="translate(460.868415 111.474598) scale(0.1 -0.1)">
     <defs>
      <path id="DejaVuSans-Bold-6f" d="M 2203 2784 
Q 1831 2784 1636 2517 
Q 1441 2250 1441 1747 
Q 1441 1244 1636 976 
Q 1831 709 2203 709 
Q 2569 709 2762 976 
Q 2956 1244 2956 1747 
Q 2956 2250 2762 2517 
Q 2569 2784 2203 2784 
z
M 2203 3584 
Q 3106 3584 3614 3096 
Q 4122 2609 4122 1747 
Q 4122 884 3614 396 
Q 3106 -91 2203 -91 
Q 1297 -91 786 396 
Q 275 884 275 1747 
Q 275 2609 786 3096 
Q 1297 3584 2203 3584 
z
" transform="scale(0.015625)"/>
     </defs>
     <use xlink:href="#DejaVuSans-Bold-28"/>
     <use xlink:href="#DejaVuSans-Bold-31" transform="translate(45.703125 0)"/>
     <use xlink:href="#DejaVuSans-Bold-20" transform="translate(115.283203 0)"/>
     <use xlink:href="#DejaVuSans-Bold-6e" transform="translate(150.097656 0)"/>
     <use xlink:href="#DejaVuSans-Bold-65" transform="translate(221.289062 0)"/>
     <use xlink:href="#DejaVuSans-Bold-75" transform="translate(289.111328 0)"/>
     <use xlink:href="#DejaVuSans-Bold-72" transform="translate(360.302734 0)"/>
     <use xlink:href="#DejaVuSans-Bold-6f" transform="translate(409.619141 0)"/>
     <use xlink:href="#DejaVuSans-Bold-6e" transform="translate(478.320312 0)"/>
     <use xlink:href="#DejaVuSans-Bold-29" transform="translate(549.511719 0)"/>
    </g>
   </g>
   <g id="patch_14">
    <path d="M 507.130027 152.228571 
Q 560.723683 152.228571 612.081272 152.228571 
" style="fill: none; stroke: #2a9d8f; stroke-width: 2; stroke-linecap: round"/>
    <path d="M 608.081272 150.228571 
L 612.081272 152.228571 
L 608.081272 154.228571 
" style="fill: none; stroke: #2a9d8f; stroke-width: 2; stroke-linecap: round"/>
   </g>
   <g id="text_10">
    <!-- $p = 0.87$ -->
    <g style="fill: #e85a4f" transform="translate(695.955714 130.816518) scale(0.1 -0.1)">
     <defs>
      <path id="Cmmi10-70" d="M -159 -1241 
Q -219 -1241 -219 -1159 
Q -197 -1019 -134 -1019 
Q 66 -1019 145 -983 
Q 225 -947 269 -800 
L 991 2081 
Q 1038 2200 1038 2388 
Q 1038 2663 850 2663 
Q 650 2663 553 2423 
Q 456 2184 366 1819 
Q 366 1778 313 1778 
L 238 1778 
Q 222 1778 203 1801 
Q 184 1825 184 1844 
Q 253 2122 317 2315 
Q 381 2509 517 2668 
Q 653 2828 856 2828 
Q 1075 2828 1240 2704 
Q 1406 2581 1453 2369 
Q 1628 2572 1840 2700 
Q 2053 2828 2278 2828 
Q 2547 2828 2745 2684 
Q 2944 2541 3044 2308 
Q 3144 2075 3144 1806 
Q 3144 1394 2933 953 
Q 2722 513 2361 220 
Q 2000 -72 1588 -72 
Q 1400 -72 1248 34 
Q 1097 141 1013 313 
L 722 -825 
Q 706 -919 703 -934 
Q 703 -1019 1125 -1019 
Q 1191 -1019 1191 -1100 
Q 1169 -1184 1155 -1212 
Q 1141 -1241 1081 -1241 
L -159 -1241 
z
M 1594 97 
Q 1816 97 2006 280 
Q 2197 463 2316 691 
Q 2403 863 2479 1111 
Q 2556 1359 2612 1640 
Q 2669 1922 2669 2088 
Q 2669 2234 2630 2362 
Q 2591 2491 2502 2577 
Q 2413 2663 2266 2663 
Q 2031 2663 1823 2495 
Q 1616 2328 1447 2081 
L 1447 2059 
L 1094 647 
Q 1138 419 1263 258 
Q 1388 97 1594 97 
z
" transform="scale(0.015625)"/>
      <path id="Cmr10-3d" d="M 481 850 
Q 428 850 393 890 
Q 359 931 359 978 
Q 359 1031 393 1068 
Q 428 1106 481 1106 
L 4500 1106 
Q 4547 1106 4581 1068 
Q 4616 1031 4616 978 
Q 4616 931 4581 890 
Q 4547 850 4500 850 
L 481 850 
z
M 481 2094 
Q 428 2094 393 2131 
Q 359 2169 359 2222 
Q 359 2269 393 2309 
Q 428 2350 481 2350 
L 4500 2350 
Q 4547 2350 4581 2309 
Q 4616 2269 4616 2222 
Q 4616 2169 4581 2131 
Q 4547 2094 4500 2094 
L 481 2094 
z
" transform="scale(0.015625)"/>
      <path id="Cmr10-30" d="M 1600 -141 
Q 816 -141 533 504 
Q 250 1150 250 2041 
Q 250 2597 351 3087 
Q 453 3578 754 3920 
Q 1056 4263 1600 4263 
Q 2022 4263 2290 4056 
Q 2559 3850 2700 3523 
Q 2841 3197 2892 2823 
Q 2944 2450 2944 2041 
Q 2944 1491 2842 1011 
Q 2741 531 2444 195 
Q 2147 -141 1600 -141 
z
M 1600 25 
Q 1956 25 2131 390 
Q 2306 756 2347 1200 
Q 2388 1644 2388 2144 
Q 2388 2625 2347 3031 
Q 2306 3438 2132 3767 
Q 1959 4097 1600 4097 
Q 1238 4097 1063 3765 
Q 888 3434 847 3029 
Q 806 2625 806 2144 
Q 806 1788 823 1472 
Q 841 1156 916 820 
Q 991 484 1158 254 
Q 1325 25 1600 25 
z
" transform="scale(0.015625)"/>
      <path id="Cmmi10-3a" d="M 538 353 
Q 538 497 644 600 
Q 750 703 891 703 
Q 978 703 1062 656 
Q 1147 609 1194 525 
Q 1241 441 1241 353 
Q 1241 213 1137 106 
Q 1034 0 891 0 
Q 750 0 644 106 
Q 538 213 538 353 
z
" transform="scale(0.015625)"/>
      <path id="Cmr10-38" d="M 269 972 
Q 269 1356 522 1651 
Q 775 1947 1172 2144 
L 934 2297 
Q 716 2441 578 2680 
Q 441 2919 441 3181 
Q 441 3488 602 3734 
Q 763 3981 1030 4122 
Q 1297 4263 1600 4263 
Q 1884 4263 2148 4147 
Q 2413 4031 2583 3815 
Q 2753 3600 2753 3303 
Q 2753 3088 2651 2903 
Q 2550 2719 2373 2572 
Q 2197 2425 1997 2322 
L 2363 2088 
Q 2616 1922 2770 1653 
Q 2925 1384 2925 1088 
Q 2925 741 2739 456 
Q 2553 172 2247 15 
Q 1941 -141 1600 -141 
Q 1269 -141 961 -6 
Q 653 128 461 383 
Q 269 638 269 972 
z
M 616 972 
Q 616 719 755 509 
Q 894 300 1122 181 
Q 1350 63 1600 63 
Q 1972 63 2275 280 
Q 2578 497 2578 856 
Q 2578 978 2529 1098 
Q 2481 1219 2395 1317 
Q 2309 1416 2203 1478 
L 1344 2034 
Q 1144 1928 976 1765 
Q 809 1603 712 1400 
Q 616 1197 616 972 
z
M 1056 2925 
L 1831 2425 
Q 2100 2581 2272 2803 
Q 2444 3025 2444 3303 
Q 2444 3519 2323 3698 
Q 2203 3878 2009 3978 
Q 1816 4078 1594 4078 
Q 1400 4078 1203 4003 
Q 1006 3928 878 3779 
Q 750 3631 750 3431 
Q 750 3131 1056 2925 
z
" transform="scale(0.015625)"/>
      <path id="Cmr10-37" d="M 1113 166 
Q 1113 522 1175 862 
Q 1238 1203 1358 1536 
Q 1478 1869 1648 2189 
Q 1819 2509 2022 2791 
L 2606 3603 
L 1875 3603 
Q 738 3603 703 3572 
Q 619 3469 544 2981 
L 359 2981 
L 569 4325 
L 756 4325 
L 756 4306 
Q 756 4191 1147 4156 
Q 1538 4122 1913 4122 
L 3103 4122 
L 3103 3956 
Q 3103 3950 3101 3947 
Q 3100 3944 3097 3938 
L 2216 2700 
Q 1891 2219 1809 1631 
Q 1728 1044 1728 166 
Q 1728 41 1637 -50 
Q 1547 -141 1422 -141 
Q 1294 -141 1203 -50 
Q 1113 41 1113 166 
z
" transform="scale(0.015625)"/>
     </defs>
     <use xlink:href="#Cmmi10-70" transform="translate(0 0.421875)"/>
     <use xlink:href="#Cmr10-3d" transform="translate(67.851562 0.421875)"/>
     <use xlink:href="#Cmr10-30" transform="translate(163.095703 0.421875)"/>
     <use xlink:href="#Cmmi10-3a" transform="translate(213.095703 0.421875)"/>
     <use xlink:href="#Cmr10-38" transform="translate(240.78125 0.421875)"/>
     <use xlink:href="#Cmr10-37" transform="translate(290.78125 0.421875)"/>
    </g>
   </g>
   <g id="text_11">
    <!-- Disease? Yes -->
    <g style="fill: #2d3748" transform="translate(684.222589 170.826295) scale(0.09 -0.09)">
     <defs>
      <path id="DejaVuSans-44" d="M 1259 4147 
L 1259 519 
L 2022 519 
Q 2988 519 3436 956 
Q 3884 1394 3884 2338 
Q 3884 3275 3436 3711 
Q 2988 4147 2022 4147 
L 1259 4147 
z
M 628 4666 
L 1925 4666 
Q 3281 4666 3915 4102 
Q 4550 3538 4550 2338 
Q 4550 1131 3912 565 
Q 3275 0 1925 0 
L 628 0 
L 628 4666 
z
" transform="scale(0.015625)"/>
      <path id="DejaVuSans-69" d="M 603 3500 
L 1178 3500 
L 1178 0 
L 603 0 
L 603 3500 
z
M 603 4863 
L 1178 4863 
L 1178 4134 
L 603 4134 
L 603 4863 
z
" transform="scale(0.015625)"/>
      <path id="DejaVuSans-73" d="M 2834 3397 
L 2834 2853 
Q 2591 2978 2328 3040 
Q 2066 3103 1784 3103 
Q 1356 3103 1142 2972 
Q 928 2841 928 2578 
Q 928 2378 1081 2264 
Q 1234 2150 1697 2047 
L 1894 2003 
Q 2506 1872 2764 1633 
Q 3022 1394 3022 966 
Q 3022 478 2636 193 
Q 2250 -91 1575 -91 
Q 1294 -91 989 -36 
Q 684 19 347 128 
L 347 722 
Q 666 556 975 473 
Q 1284 391 1588 391 
Q 1994 391 2212 530 
Q 2431 669 2431 922 
Q 2431 1156 2273 1281 
Q 2116 1406 1581 1522 
L 1381 1569 
Q 847 1681 609 1914 
Q 372 2147 372 2553 
Q 372 3047 722 3315 
Q 1072 3584 1716 3584 
Q 2034 3584 2315 3537 
Q 2597 3491 2834 3397 
z
" transform="scale(0.015625)"/>
      <path id="DejaVuSans-65" d="M 3597 1894 
L 3597 1613 
L 953 1613 
Q 991 1019 1311 708 
Q 1631 397 2203 397 
Q 2534 397 2845 478 
Q 3156 559 3463 722 
L 3463 178 
Q 3153 47 2828 -22 
Q 2503 -91 2169 -91 
Q 1331 -91 842 396 
Q 353 884 353 1716 
Q 353 2575 817 3079 
Q 1281 3584 2069 3584 
Q 2775 3584 3186 3129 
Q 3597 2675 3597 1894 
z
M 3022 2063 
Q 3016 2534 2758 2815 
Q 2500 3097 2075 3097 
Q 1594 3097 1305 2825 
Q 1016 2553 972 2059 
L 3022 2063 
z
" transform="scale(0.015625)"/>
      <path id="DejaVuSans-61" d="M 2194 1759 
Q 1497 1759 1228 1600 
Q 959 1441 959 1056 
Q 959 750 1161 570 
Q 1363 391 1709 391 
Q 2188 391 2477 730 
Q 2766 1069 2766 1631 
L 2766 1759 
L 2194 1759 
z
M 3341 1997 
L 3341 0 
L 2766 0 
L 2766 531 
Q 2569 213 2275 61 
Q 1981 -91 1556 -91 
Q 1019 -91 701 211 
Q 384 513 384 1019 
Q 384 1609 779 1909 
Q 1175 2209 1959 2209 
L 2766 2209 
L 2766 2266 
Q 2766 2663 2505 2880 
Q 2244 3097 1772 3097 
Q 1472 3097 1187 3025 
Q 903 2953 641 2809 
L 641 3341 
Q 956 3463 1253 3523 
Q 1550 3584 1831 3584 
Q 2591 3584 2966 3190 
Q 3341 2797 3341 1997 
z
" transform="scale(0.015625)"/>
      <path id="DejaVuSans-3f" d="M 1222 794 
L 1856 794 
L 1856 0 
L 1222 0 
L 1222 794 
z
M 1838 1253 
L 1241 1253 
L 1241 1734 
Q 1241 2050 1328 2253 
Q 1416 2456 1697 2725 
L 1978 3003 
Q 2156 3169 2236 3316 
Q 2316 3463 2316 3616 
Q 2316 3894 2111 4066 
Q 1906 4238 1569 4238 
Q 1322 4238 1042 4128 
Q 763 4019 459 3809 
L 459 4397 
Q 753 4575 1054 4662 
Q 1356 4750 1678 4750 
Q 2253 4750 2601 4447 
Q 2950 4144 2950 3647 
Q 2950 3409 2837 3195 
Q 2725 2981 2444 2713 
L 2169 2444 
Q 2022 2297 1961 2214 
Q 1900 2131 1875 2053 
Q 1856 1988 1847 1894 
Q 1838 1800 1838 1638 
L 1838 1253 
z
" transform="scale(0.015625)"/>
      <path id="DejaVuSans-20" transform="scale(0.015625)"/>
      <path id="DejaVuSans-59" d="M -13 4666 
L 666 4666 
L 1959 2747 
L 3244 4666 
L 3922 4666 
L 2272 2222 
L 2272 0 
L 1638 0 
L 1638 2222 
L -13 4666 
z
" transform="scale(0.015625)"/>
     </defs>
     <use xlink:href="#DejaVuSans-44"/>
     <use xlink:href="#DejaVuSans-69" transform="translate(77.001953 0)"/>
     <use xlink:href="#DejaVuSans-73" transform="translate(104.785156 0)"/>
     <use xlink:href="#DejaVuSans-65" transform="translate(156.884766 0)"/>
     <use xlink:href="#DejaVuSans-61" transform="translate(218.408203 0)"/>
     <use xlink:href="#DejaVuSans-73" transform="translate(279.6875 0)"/>
     <use xlink:href="#DejaVuSans-65" transform="translate(331.787109 0)"/>
     <use xlink:href="#DejaVuSans-3f" transform="translate(393.310547 0)"/>
     <use xlink:href="#DejaVuSans-20" transform="translate(446.386719 0)"/>
     <use xlink:href="#DejaVuSans-59" transform="translate(478.173828 0)"/>
     <use xlink:href="#DejaVuSans-65" transform="translate(526.007812 0)"/>
     <use xlink:href="#DejaVuSans-73" transform="translate(587.53125 0)"/>
    </g>
   </g>
   <g id="text_12">
    <!-- $\sigma(z) = \frac{1}{1+e^{-z}}$ -->
    <g style="fill: #2a9d8f" transform="translate(461.863571 287.27) scale(0.11 -0.11)">
     <defs>
      <path id="Cmr10-28" d="M 1984 -1588 
Q 1628 -1306 1370 -942 
Q 1113 -578 948 -165 
Q 784 247 703 697 
Q 622 1147 622 1600 
Q 622 2059 703 2509 
Q 784 2959 951 3375 
Q 1119 3791 1378 4153 
Q 1638 4516 1984 4788 
Q 1984 4800 2016 4800 
L 2075 4800 
Q 2094 4800 2109 4783 
Q 2125 4766 2125 4744 
Q 2125 4716 2113 4703 
Q 1800 4397 1592 4047 
Q 1384 3697 1257 3301 
Q 1131 2906 1075 2482 
Q 1019 2059 1019 1600 
Q 1019 -434 2106 -1491 
Q 2125 -1509 2125 -1544 
Q 2125 -1559 2108 -1579 
Q 2091 -1600 2075 -1600 
L 2016 -1600 
Q 1984 -1600 1984 -1588 
z
" transform="scale(0.015625)"/>
      <path id="Cmmi10-7a" d="M 313 -72 
Q 263 -72 263 -13 
Q 263 19 275 31 
Q 447 328 689 598 
Q 931 869 1239 1145 
Q 1547 1422 1858 1700 
Q 2169 1978 2363 2194 
L 2338 2194 
Q 2197 2194 1925 2284 
Q 1653 2375 1497 2375 
Q 1328 2375 1168 2301 
Q 1009 2228 966 2075 
Q 956 2028 916 2028 
L 838 2028 
Q 788 2028 788 2094 
L 788 2113 
Q 838 2300 952 2462 
Q 1066 2625 1233 2726 
Q 1400 2828 1581 2828 
Q 1709 2828 1793 2770 
Q 1878 2713 1990 2591 
Q 2103 2469 2173 2416 
Q 2244 2363 2350 2363 
Q 2491 2363 2602 2491 
Q 2713 2619 2822 2809 
Q 2841 2828 2869 2828 
L 2944 2828 
Q 2966 2828 2980 2812 
Q 2994 2797 2994 2772 
Q 2994 2750 2981 2731 
Q 2809 2434 2579 2176 
Q 2350 1919 1979 1586 
Q 1609 1253 1354 1023 
Q 1100 794 878 550 
Q 928 563 1013 563 
Q 1169 563 1439 473 
Q 1709 384 1856 384 
Q 2016 384 2178 453 
Q 2341 522 2459 647 
Q 2578 772 2619 934 
Q 2634 978 2669 978 
L 2747 978 
Q 2772 978 2787 958 
Q 2803 938 2803 916 
Q 2803 909 2797 897 
Q 2738 653 2591 433 
Q 2444 213 2230 70 
Q 2016 -72 1772 -72 
Q 1650 -72 1565 -15 
Q 1481 41 1367 164 
Q 1253 288 1181 342 
Q 1109 397 1006 397 
Q 688 397 434 -50 
Q 413 -72 391 -72 
L 313 -72 
z
" transform="scale(0.015625)"/>
      <path id="Cmr10-29" d="M 416 -1600 
Q 359 -1600 359 -1544 
Q 359 -1516 372 -1503 
Q 1466 -434 1466 1600 
Q 1466 3634 384 4691 
Q 359 4706 359 4744 
Q 359 4766 376 4783 
Q 394 4800 416 4800 
L 475 4800 
Q 494 4800 506 4788 
Q 966 4425 1272 3906 
Q 1578 3388 1720 2800 
Q 1863 2213 1863 1600 
Q 1863 1147 1786 708 
Q 1709 269 1542 -157 
Q 1375 -584 1119 -945 
Q 863 -1306 506 -1588 
Q 494 -1600 475 -1600 
L 416 -1600 
z
" transform="scale(0.015625)"/>
      <path id="Cmr10-2b" d="M 481 1472 
Q 428 1472 393 1512 
Q 359 1553 359 1600 
Q 359 1647 393 1687 
Q 428 1728 481 1728 
L 2363 1728 
L 2363 3616 
Q 2363 3666 2400 3698 
Q 2438 3731 2491 3731 
Q 2538 3731 2578 3698 
Q 2619 3666 2619 3616 
L 2619 1728 
L 4500 1728 
Q 4547 1728 4581 1687 
Q 4616 1647 4616 1600 
Q 4616 1553 4581 1512 
Q 4547 1472 4500 1472 
L 2619 1472 
L 2619 -416 
Q 2619 -466 2578 -498 
Q 2538 -531 2491 -531 
Q 2438 -531 2400 -498 
Q 2363 -466 2363 -416 
L 2363 1472 
L 481 1472 
z
" transform="scale(0.015625)"/>
      <path id="Cmmi10-65" d="M 1288 -72 
Q 981 -72 751 87 
Q 522 247 401 517 
Q 281 788 281 1088 
Q 281 1544 511 1945 
Q 741 2347 1134 2587 
Q 1528 2828 1978 2828 
Q 2253 2828 2458 2686 
Q 2663 2544 2663 2278 
Q 2663 1909 2369 1729 
Q 2075 1550 1706 1508 
Q 1338 1466 891 1466 
L 872 1466 
Q 769 1084 769 813 
Q 769 528 900 312 
Q 1031 97 1300 97 
Q 1681 97 2032 272 
Q 2384 447 2606 756 
Q 2625 775 2656 775 
Q 2688 775 2720 739 
Q 2753 703 2753 672 
Q 2753 647 2741 634 
Q 2506 306 2109 117 
Q 1713 -72 1288 -72 
z
M 909 1631 
Q 1281 1631 1597 1665 
Q 1913 1700 2169 1839 
Q 2425 1978 2425 2272 
Q 2425 2391 2359 2480 
Q 2294 2569 2189 2616 
Q 2084 2663 1972 2663 
Q 1700 2663 1483 2516 
Q 1266 2369 1125 2133 
Q 984 1897 909 1631 
z
" transform="scale(0.015625)"/>
      <path id="Cmsy10-a1" d="M 653 1472 
Q 600 1472 565 1512 
Q 531 1553 531 1600 
Q 531 1647 565 1687 
Q 600 1728 653 1728 
L 4325 1728 
Q 4375 1728 4408 1687 
Q 4441 1647 4441 1600 
Q 4441 1553 4408 1512 
Q 4375 1472 4325 1472 
L 653 1472 
z
" transform="scale(0.015625)"/>
     </defs>
     <use xlink:href="#Cmmi10-be" transform="translate(0 0.873437)"/>
     <use xlink:href="#Cmr10-28" transform="translate(57.080078 0.873437)"/>
     <use xlink:href="#Cmmi10-7a" transform="translate(95.898438 0.873437)"/>
     <use xlink:href="#Cmr10-29" transform="translate(142.382812 0.873437)"/>
     <use xlink:href="#Cmr10-3d" transform="translate(198.759766 0.873437)"/>
     <use xlink:href="#Cmr10-31" transform="translate(385.003906 38.373438) scale(0.7)"/>
     <use xlink:href="#Cmr10-31" transform="translate(294.003906 -41.313281) scale(0.7)"/>
     <use xlink:href="#Cmr10-2b" transform="translate(341.294922 -41.313281) scale(0.7)"/>
     <use xlink:href="#Cmmi10-65" transform="translate(407.96582 -41.313281) scale(0.7)"/>
     <use xlink:href="#Cmsy10-a1" transform="translate(444.91718 -14.528437) scale(0.49)"/>
     <use xlink:href="#Cmmi10-7a" transform="translate(482.983098 -14.528437) scale(0.49)"/>
     <path d="M 294.003906 13.373437 
L 294.003906 19.623437 
L 510.224582 19.623437 
L 510.224582 13.373437 
L 294.003906 13.373437 
z
"/>
    </g>
   </g>
   <g id="text_13">
    <!-- $p \in [0, 1]$ -->
    <g style="fill: #e85a4f" transform="translate(695.355714 227.408571) scale(0.1 -0.1)">
     <defs>
      <path id="Cmsy10-32" d="M 1356 403 
Q 1838 0 2497 0 
L 3616 0 
Q 3666 0 3698 -37 
Q 3731 -75 3731 -128 
Q 3731 -175 3698 -215 
Q 3666 -256 3616 -256 
L 2478 -256 
Q 1969 -256 1519 -12 
Q 1069 231 800 657 
Q 531 1084 531 1600 
Q 531 2116 800 2542 
Q 1069 2969 1519 3212 
Q 1969 3456 2478 3456 
L 3616 3456 
Q 3666 3456 3698 3415 
Q 3731 3375 3731 3328 
Q 3731 3275 3698 3237 
Q 3666 3200 3616 3200 
L 2497 3200 
Q 2184 3200 1889 3097 
Q 1594 2994 1356 2797 
Q 1122 2600 958 2304 
Q 794 2009 794 1728 
L 3616 1728 
Q 3666 1728 3698 1687 
Q 3731 1647 3731 1600 
Q 3731 1553 3698 1512 
Q 3666 1472 3616 1472 
L 794 1472 
Q 794 1194 958 897 
Q 1122 600 1356 403 
z
" transform="scale(0.015625)"/>
      <path id="Cmr10-5b" d="M 756 -1600 
L 756 4800 
L 1631 4800 
L 1631 4544 
L 1013 4544 
L 1013 -1344 
L 1631 -1344 
L 1631 -1600 
L 756 -1600 
z
" transform="scale(0.015625)"/>
      <path id="Cmmi10-3b" d="M 634 -1153 
Q 634 -1125 659 -1100 
Q 891 -878 1019 -587 
Q 1147 -297 1147 25 
L 1147 103 
Q 1044 0 891 0 
Q 744 0 641 103 
Q 538 206 538 353 
Q 538 503 641 603 
Q 744 703 891 703 
Q 1119 703 1216 492 
Q 1313 281 1313 25 
Q 1313 -331 1170 -651 
Q 1028 -972 769 -1228 
Q 744 -1241 728 -1241 
Q 697 -1241 665 -1212 
Q 634 -1184 634 -1153 
z
" transform="scale(0.015625)"/>
      <path id="Cmr10-5d" d="M 141 -1600 
L 141 -1344 
L 763 -1344 
L 763 4544 
L 141 4544 
L 141 4800 
L 1019 4800 
L 1019 -1600 
L 141 -1600 
z
" transform="scale(0.015625)"/>
     </defs>
     <use xlink:href="#Cmmi10-70"/>
     <use xlink:href="#Cmsy10-32" transform="translate(67.851562 0)"/>
     <use xlink:href="#Cmr10-5b" transform="translate(152.011719 0)"/>
     <use xlink:href="#Cmr10-30" transform="translate(179.697266 0)"/>
     <use xlink:href="#Cmmi10-3b" transform="translate(229.697266 0)"/>
     <use xlink:href="#Cmr10-31" transform="translate(274.941406 0)"/>
     <use xlink:href="#Cmr10-5d" transform="translate(324.941406 0)"/>
    </g>
   </g>
  </g>
 </g>
 <defs>
  <clipPath id="pca50b6be03">
   <rect x="7.2" y="7.2" width="821.828571" height="338.4"/>
  </clipPath>
 </defs>
</svg>
