<?xml version="1.0" encoding="utf-8" standalone="no"?>
<!DOCTYPE svg PUBLIC "-//W3C//DTD SVG 1.1//EN"
  "http://www.w3.org/Graphics/SVG/1.1/DTD/svg11.dtd">
<svg xmlns:xlink="http://www.w3.org/1999/xlink" width="793.80432pt" height="424.6128pt" viewBox="0 0 793.80432 424.6128" xmlns="http://www.w3.org/2000/svg" version="1.1">
 <metadata>
  <rdf:RDF xmlns:dc="http://purl.org/dc/elements/1.1/" xmlns:cc="http://creativecommons.org/ns#" xmlns:rdf="http://www.w3.org/1999/02/22-rdf-syntax-ns#">
   <cc:Work>
    <dc:type rdf:resource="http://purl.org/dc/dcmitype/StillImage"/>
    <dc:date>2025-12-29T07:49:37.208069</dc:date>
    <dc:format>image/svg+xml</dc:format>
    <dc:creator>
     <cc:Agent>
      <dc:title>Matplotlib v3.10.1, https://matplotlib.org/</dc:title>
     </cc:Agent>
    </dc:creator>
   </cc:Work>
  </rdf:RDF>
 </metadata>
 <defs>
  <style type="text/css">*{stroke-linejoin: round; stroke-linecap: butt}</style>
 </defs>
 <g id="figure_1">
  <g id="patch_1">
   <path d="M 0 424.6128 
L 793.80432 424.6128 
L 793.80432 0 
L 0 0 
z
" style="fill: #ffffff"/>
  </g>
  <g id="axes_1">
   <g id="patch_2">
    <path d="M 23.608512 279.581299 
L 89.24256 279.581299 
Q 90.883411 279.581299 90.883411 277.940448 
L 90.883411 146.672352 
Q 90.883411 145.031501 89.24256 145.031501 
L 23.608512 145.031501 
Q 21.967661 145.031501 21.967661 146.672352 
L 21.967661 277.940448 
Q 21.967661 279.581299 23.608512 279.581299 
z
" clip-path="url(#p030cdbe4d1)" style="fill: #e3f2fd; stroke: #1e3a5f; stroke-width: 2; stroke-linejoin: miter"/>
   </g>
   <g id="patch_3">
    <path d="M 171.28512 273.83832 
C 174.548811 273.83832 177.679269 272.541642 179.987048 270.233864 
C 182.294826 267.926085 183.591504 264.795627 183.591504 261.531936 
C 183.591504 258.268245 182.294826 255.137787 179.987048 252.830008 
C 177.679269 250.52223 174.548811 249.225552 171.28512 249.225552 
C 168.021429 249.225552 164.890971 250.52223 162.583192 252.830008 
C 160.275414 255.137787 158.978736 258.268245 158.978736 261.531936 
C 158.978736 264.795627 160.275414 267.926085 162.583192 270.233864 
C 164.890971 272.541642 168.021429 273.83832 171.28512 273.83832 
z
" clip-path="url(#p030cdbe4d1)" style="fill: #fff8e1; stroke: #ff9800; stroke-width: 2; stroke-linejoin: miter"/>
   </g>
   <g id="patch_4">
    <path d="M 171.28512 232.81704 
C 174.548811 232.81704 177.679269 231.520362 179.987048 229.212584 
C 182.294826 226.904805 183.591504 223.774347 183.591504 220.510656 
C 183.591504 217.246965 182.294826 214.116507 179.987048 211.808728 
C 177.679269 209.50095 174.548811 208.204272 171.28512 208.204272 
C 168.021429 208.204272 164.890971 209.50095 162.583192 211.808728 
C 160.275414 214.116507 158.978736 217.246965 158.978736 220.510656 
C 158.978736 223.774347 160.275414 226.904805 162.583192 229.212584 
C 164.890971 231.520362 168.021429 232.81704 171.28512 232.81704 
z
" clip-path="url(#p030cdbe4d1)" style="fill: #fff8e1; stroke: #ff9800; stroke-width: 2; stroke-linejoin: miter"/>
   </g>
   <g id="patch_5">
    <path d="M 171.28512 191.79576 
C 174.548811 191.79576 177.679269 190.499082 179.987048 188.191304 
C 182.294826 185.883525 183.591504 182.753067 183.591504 179.489376 
C 183.591504 176.225685 182.294826 173.095227 179.987048 170.787448 
C 177.679269 168.47967 174.548811 167.182992 171.28512 167.182992 
C 168.021429 167.182992 164.890971 168.47967 162.583192 170.787448 
C 160.275414 173.095227 158.978736 176.225685 158.978736 179.489376 
C 158.978736 182.753067 160.275414 185.883525 162.583192 188.191304 
C 164.890971 190.499082 168.021429 191.79576 171.28512 191.79576 
z
" clip-path="url(#p030cdbe4d1)" style="fill: #fff8e1; stroke: #ff9800; stroke-width: 2; stroke-linejoin: miter"/>
   </g>
   <g id="patch_6">
    <path d="M 277.940448 265.634064 
C 281.204139 265.634064 284.334597 264.337386 286.642376 262.029608 
C 288.950154 259.721829 290.246832 256.591371 290.246832 253.32768 
C 290.246832 250.063989 288.950154 246.933531 286.642376 244.625752 
C 284.334597 242.317974 281.204139 241.021296 277.940448 241.021296 
C 274.676757 241.021296 271.546299 242.317974 269.23852 244.625752 
C 266.930742 246.933531 265.634064 250.063989 265.634064 253.32768 
C 265.634064 256.591371 266.930742 259.721829 269.23852 262.029608 
C 271.546299 264.337386 274.676757 265.634064 277.940448 265.634064 
z
" clip-path="url(#p030cdbe4d1)" style="fill: #fff8e1; stroke: #ff9800; stroke-width: 2; stroke-linejoin: miter"/>
   </g>
   <g id="patch_7">
    <path d="M 277.940448 224.612784 
C 281.204139 224.612784 284.334597 223.316106 286.642376 221.008328 
C 288.950154 218.700549 290.246832 215.570091 290.246832 212.3064 
C 290.246832 209.042709 288.950154 205.912251 286.642376 203.604472 
C 284.334597 201.296694 281.204139 200.000016 277.940448 200.000016 
C 274.676757 200.000016 271.546299 201.296694 269.23852 203.604472 
C 266.930742 205.912251 265.634064 209.042709 265.634064 212.3064 
C 265.634064 215.570091 266.930742 218.700549 269.23852 221.008328 
C 271.546299 223.316106 274.676757 224.612784 277.940448 224.612784 
z
" clip-path="url(#p030cdbe4d1)" style="fill: #fff8e1; stroke: #ff9800; stroke-width: 2; stroke-linejoin: miter"/>
   </g>
   <g id="patch_8">
    <path d="M 277.940448 183.591504 
C 281.204139 183.591504 284.334597 182.294826 286.642376 179.987048 
C 288.950154 177.679269 290.246832 174.548811 290.246832 171.28512 
C 290.246832 168.021429 288.950154 164.890971 286.642376 162.583192 
C 284.334597 160.275414 281.204139 158.978736 277.940448 158.978736 
C 274.676757 158.978736 271.546299 160.275414 269.23852 162.583192 
C 266.930742 164.890971 265.634064 168.021429 265.634064 171.28512 
C 265.634064 174.548811 266.930742 177.679269 269.23852 179.987048 
C 271.546299 182.294826 274.676757 183.591504 277.940448 183.591504 
z
" clip-path="url(#p030cdbe4d1)" style="fill: #fff8e1; stroke: #ff9800; stroke-width: 2; stroke-linejoin: miter"/>
   </g>
   <g id="patch_9">
    <path d="M 417.4128 126.161712 
C 420.676491 126.161712 423.806949 124.865034 426.114728 122.557256 
C 428.422506 120.249477 429.719184 117.119019 429.719184 113.855328 
C 429.719184 110.591637 428.422506 107.461179 426.114728 105.1534 
C 423.806949 102.845622 420.676491 101.548944 417.4128 101.548944 
C 414.149109 101.548944 411.018651 102.845622 408.710872 105.1534 
C 406.403094 107.461179 405.106416 110.591637 405.106416 113.855328 
C 405.106416 117.119019 406.403094 120.249477 408.710872 122.557256 
C 411.018651 124.865034 414.149109 126.161712 417.4128 126.161712 
z
" clip-path="url(#p030cdbe4d1)" style="fill: #c8e6c9; stroke: #2a9d8f; stroke-width: 2; stroke-linejoin: miter"/>
   </g>
   <g id="patch_10">
    <path d="M 417.4128 93.344688 
C 420.676491 93.344688 423.806949 92.04801 426.114728 89.740232 
C 428.422506 87.432453 429.719184 84.301995 429.719184 81.038304 
C 429.719184 77.774613 428.422506 74.644155 426.114728 72.336376 
C 423.806949 70.028598 420.676491 68.73192 417.4128 68.73192 
C 414.149109 68.73192 411.018651 70.028598 408.710872 72.336376 
C 406.403094 74.644155 405.106416 77.774613 405.106416 81.038304 
C 405.106416 84.301995 406.403094 87.432453 408.710872 89.740232 
C 411.018651 92.04801 414.149109 93.344688 417.4128 93.344688 
z
" clip-path="url(#p030cdbe4d1)" style="fill: #c8e6c9; stroke: #2a9d8f; stroke-width: 2; stroke-linejoin: miter"/>
   </g>
   <g id="patch_11">
    <path d="M 417.4128 60.527664 
C 420.676491 60.527664 423.806949 59.230986 426.114728 56.923208 
C 428.422506 54.615429 429.719184 51.484971 429.719184 48.22128 
C 429.719184 44.957589 428.422506 41.827131 426.114728 39.519352 
C 423.806949 37.211574 420.676491 35.914896 417.4128 35.914896 
C 414.149109 35.914896 411.018651 37.211574 408.710872 39.519352 
C 406.403094 41.827131 405.106416 44.957589 405.106416 48.22128 
C 405.106416 51.484971 406.403094 54.615429 408.710872 56.923208 
C 411.018651 59.230986 414.149109 60.527664 417.4128 60.527664 
z
" clip-path="url(#p030cdbe4d1)" style="fill: #c8e6c9; stroke: #2a9d8f; stroke-width: 2; stroke-linejoin: miter"/>
   </g>
   <g id="patch_12">
    <path d="M 417.4128 224.612784 
C 420.676491 224.612784 423.806949 223.316106 426.114728 221.008328 
C 428.422506 218.700549 429.719184 215.570091 429.719184 212.3064 
C 429.719184 209.042709 428.422506 205.912251 426.114728 203.604472 
C 423.806949 201.296694 420.676491 200.000016 417.4128 200.000016 
C 414.149109 200.000016 411.018651 201.296694 408.710872 203.604472 
C 406.403094 205.912251 405.106416 209.042709 405.106416 212.3064 
C 405.106416 215.570091 406.403094 218.700549 408.710872 221.008328 
C 411.018651 223.316106 414.149109 224.612784 417.4128 224.612784 
z
" clip-path="url(#p030cdbe4d1)" style="fill: #c8e6c9; stroke: #2a9d8f; stroke-width: 2; stroke-linejoin: miter"/>
   </g>
   <g id="patch_13">
    <path d="M 417.4128 339.472368 
C 420.676491 339.472368 423.806949 338.17569 426.114728 335.867912 
C 428.422506 333.560133 429.719184 330.429675 429.719184 327.165984 
C 429.719184 323.902293 428.422506 320.771835 426.114728 318.464056 
C 423.806949 316.156278 420.676491 314.8596 417.4128 314.8596 
C 414.149109 314.8596 411.018651 316.156278 408.710872 318.464056 
C 406.403094 320.771835 405.106416 323.902293 405.106416 327.165984 
C 405.106416 330.429675 406.403094 333.560133 408.710872 335.867912 
C 411.018651 338.17569 414.149109 339.472368 417.4128 339.472368 
z
" clip-path="url(#p030cdbe4d1)" style="fill: #c8e6c9; stroke: #2a9d8f; stroke-width: 2; stroke-linejoin: miter"/>
   </g>
   <g id="patch_14">
    <path d="M 417.4128 306.655344 
C 420.676491 306.655344 423.806949 305.358666 426.114728 303.050888 
C 428.422506 300.743109 429.719184 297.612651 429.719184 294.34896 
C 429.719184 291.085269 428.422506 287.954811 426.114728 285.647032 
C 423.806949 283.339254 420.676491 282.042576 417.4128 282.042576 
C 414.149109 282.042576 411.018651 283.339254 408.710872 285.647032 
C 406.403094 287.954811 405.106416 291.085269 405.106416 294.34896 
C 405.106416 297.612651 406.403094 300.743109 408.710872 303.050888 
C 411.018651 305.358666 414.149109 306.655344 417.4128 306.655344 
z
" clip-path="url(#p030cdbe4d1)" style="fill: #c8e6c9; stroke: #2a9d8f; stroke-width: 2; stroke-linejoin: miter"/>
   </g>
   <g id="patch_15">
    <path d="M 417.4128 273.83832 
C 420.676491 273.83832 423.806949 272.541642 426.114728 270.233864 
C 428.422506 267.926085 429.719184 264.795627 429.719184 261.531936 
C 429.719184 258.268245 428.422506 255.137787 426.114728 252.830008 
C 423.806949 250.52223 420.676491 249.225552 417.4128 249.225552 
C 414.149109 249.225552 411.018651 250.52223 408.710872 252.830008 
C 406.403094 255.137787 405.106416 258.268245 405.106416 261.531936 
C 405.106416 264.795627 406.403094 267.926085 408.710872 270.233864 
C 411.018651 272.541642 414.149109 273.83832 417.4128 273.83832 
z
" clip-path="url(#p030cdbe4d1)" style="fill: #c8e6c9; stroke: #2a9d8f; stroke-width: 2; stroke-linejoin: miter"/>
   </g>
   <g id="patch_16">
    <path d="M 579.857069 287.785555 
L 747.223891 287.785555 
Q 755.428147 287.785555 755.428147 279.581299 
L 755.428147 145.031501 
Q 755.428147 136.827245 747.223891 136.827245 
L 579.857069 136.827245 
Q 571.652813 136.827245 571.652813 145.031501 
L 571.652813 279.581299 
Q 571.652813 287.785555 579.857069 287.785555 
z
" clip-path="url(#p030cdbe4d1)" style="fill: #ffebee; stroke: #e85a4f; stroke-width: 2; stroke-linejoin: miter"/>
   </g>
   <g id="line2d_1">
    <path d="M 101.548944 245.123424 
L 158.978736 261.531936 
" clip-path="url(#p030cdbe4d1)" style="fill: none; stroke: #1e3a5f; stroke-opacity: 0.4; stroke-width: 0.5; stroke-linecap: square"/>
   </g>
   <g id="line2d_2">
    <path d="M 101.548944 245.123424 
L 158.978736 220.510656 
" clip-path="url(#p030cdbe4d1)" style="fill: none; stroke: #1e3a5f; stroke-opacity: 0.4; stroke-width: 0.5; stroke-linecap: square"/>
   </g>
   <g id="line2d_3">
    <path d="M 101.548944 245.123424 
L 158.978736 179.489376 
" clip-path="url(#p030cdbe4d1)" style="fill: none; stroke: #1e3a5f; stroke-opacity: 0.4; stroke-width: 0.5; stroke-linecap: square"/>
   </g>
   <g id="line2d_4">
    <path d="M 101.548944 212.3064 
L 158.978736 261.531936 
" clip-path="url(#p030cdbe4d1)" style="fill: none; stroke: #1e3a5f; stroke-opacity: 0.4; stroke-width: 0.5; stroke-linecap: square"/>
   </g>
   <g id="line2d_5">
    <path d="M 101.548944 212.3064 
L 158.978736 220.510656 
" clip-path="url(#p030cdbe4d1)" style="fill: none; stroke: #1e3a5f; stroke-opacity: 0.4; stroke-width: 0.5; stroke-linecap: square"/>
   </g>
   <g id="line2d_6">
    <path d="M 101.548944 212.3064 
L 158.978736 179.489376 
" clip-path="url(#p030cdbe4d1)" style="fill: none; stroke: #1e3a5f; stroke-opacity: 0.4; stroke-width: 0.5; stroke-linecap: square"/>
   </g>
   <g id="line2d_7">
    <path d="M 101.548944 179.489376 
L 158.978736 261.531936 
" clip-path="url(#p030cdbe4d1)" style="fill: none; stroke: #1e3a5f; stroke-opacity: 0.4; stroke-width: 0.5; stroke-linecap: square"/>
   </g>
   <g id="line2d_8">
    <path d="M 101.548944 179.489376 
L 158.978736 220.510656 
" clip-path="url(#p030cdbe4d1)" style="fill: none; stroke: #1e3a5f; stroke-opacity: 0.4; stroke-width: 0.5; stroke-linecap: square"/>
   </g>
   <g id="line2d_9">
    <path d="M 101.548944 179.489376 
L 158.978736 179.489376 
" clip-path="url(#p030cdbe4d1)" style="fill: none; stroke: #1e3a5f; stroke-opacity: 0.4; stroke-width: 0.5; stroke-linecap: square"/>
   </g>
   <g id="line2d_10">
    <path d="M 183.591504 261.531936 
L 265.634064 253.32768 
" clip-path="url(#p030cdbe4d1)" style="fill: none; stroke: #ff9800; stroke-opacity: 0.4; stroke-width: 0.5; stroke-linecap: square"/>
   </g>
   <g id="line2d_11">
    <path d="M 183.591504 261.531936 
L 265.634064 212.3064 
" clip-path="url(#p030cdbe4d1)" style="fill: none; stroke: #ff9800; stroke-opacity: 0.4; stroke-width: 0.5; stroke-linecap: square"/>
   </g>
   <g id="line2d_12">
    <path d="M 183.591504 261.531936 
L 265.634064 171.28512 
" clip-path="url(#p030cdbe4d1)" style="fill: none; stroke: #ff9800; stroke-opacity: 0.4; stroke-width: 0.5; stroke-linecap: square"/>
   </g>
   <g id="line2d_13">
    <path d="M 183.591504 220.510656 
L 265.634064 253.32768 
" clip-path="url(#p030cdbe4d1)" style="fill: none; stroke: #ff9800; stroke-opacity: 0.4; stroke-width: 0.5; stroke-linecap: square"/>
   </g>
   <g id="line2d_14">
    <path d="M 183.591504 220.510656 
L 265.634064 212.3064 
" clip-path="url(#p030cdbe4d1)" style="fill: none; stroke: #ff9800; stroke-opacity: 0.4; stroke-width: 0.5; stroke-linecap: square"/>
   </g>
   <g id="line2d_15">
    <path d="M 183.591504 220.510656 
L 265.634064 171.28512 
" clip-path="url(#p030cdbe4d1)" style="fill: none; stroke: #ff9800; stroke-opacity: 0.4; stroke-width: 0.5; stroke-linecap: square"/>
   </g>
   <g id="line2d_16">
    <path d="M 183.591504 179.489376 
L 265.634064 253.32768 
" clip-path="url(#p030cdbe4d1)" style="fill: none; stroke: #ff9800; stroke-opacity: 0.4; stroke-width: 0.5; stroke-linecap: square"/>
   </g>
   <g id="line2d_17">
    <path d="M 183.591504 179.489376 
L 265.634064 212.3064 
" clip-path="url(#p030cdbe4d1)" style="fill: none; stroke: #ff9800; stroke-opacity: 0.4; stroke-width: 0.5; stroke-linecap: square"/>
   </g>
   <g id="line2d_18">
    <path d="M 183.591504 179.489376 
L 265.634064 171.28512 
" clip-path="url(#p030cdbe4d1)" style="fill: none; stroke: #ff9800; stroke-opacity: 0.4; stroke-width: 0.5; stroke-linecap: square"/>
   </g>
   <g id="line2d_19">
    <path d="M 290.246832 253.32768 
L 405.106416 113.855328 
" clip-path="url(#p030cdbe4d1)" style="fill: none; stroke: #ff9800; stroke-opacity: 0.2; stroke-width: 0.5; stroke-linecap: square"/>
   </g>
   <g id="line2d_20">
    <path d="M 290.246832 253.32768 
L 405.106416 81.038304 
" clip-path="url(#p030cdbe4d1)" style="fill: none; stroke: #ff9800; stroke-opacity: 0.2; stroke-width: 0.5; stroke-linecap: square"/>
   </g>
   <g id="line2d_21">
    <path d="M 290.246832 253.32768 
L 405.106416 48.22128 
" clip-path="url(#p030cdbe4d1)" style="fill: none; stroke: #ff9800; stroke-opacity: 0.2; stroke-width: 0.5; stroke-linecap: square"/>
   </g>
   <g id="line2d_22">
    <path d="M 290.246832 253.32768 
L 405.106416 212.3064 
" clip-path="url(#p030cdbe4d1)" style="fill: none; stroke: #ff9800; stroke-opacity: 0.2; stroke-width: 0.5; stroke-linecap: square"/>
   </g>
   <g id="line2d_23">
    <path d="M 290.246832 253.32768 
L 405.106416 327.165984 
" clip-path="url(#p030cdbe4d1)" style="fill: none; stroke: #ff9800; stroke-opacity: 0.2; stroke-width: 0.5; stroke-linecap: square"/>
   </g>
   <g id="line2d_24">
    <path d="M 290.246832 253.32768 
L 405.106416 294.34896 
" clip-path="url(#p030cdbe4d1)" style="fill: none; stroke: #ff9800; stroke-opacity: 0.2; stroke-width: 0.5; stroke-linecap: square"/>
   </g>
   <g id="line2d_25">
    <path d="M 290.246832 253.32768 
L 405.106416 261.531936 
" clip-path="url(#p030cdbe4d1)" style="fill: none; stroke: #ff9800; stroke-opacity: 0.2; stroke-width: 0.5; stroke-linecap: square"/>
   </g>
   <g id="line2d_26">
    <path d="M 290.246832 212.3064 
L 405.106416 113.855328 
" clip-path="url(#p030cdbe4d1)" style="fill: none; stroke: #ff9800; stroke-opacity: 0.2; stroke-width: 0.5; stroke-linecap: square"/>
   </g>
   <g id="line2d_27">
    <path d="M 290.246832 212.3064 
L 405.106416 81.038304 
" clip-path="url(#p030cdbe4d1)" style="fill: none; stroke: #ff9800; stroke-opacity: 0.2; stroke-width: 0.5; stroke-linecap: square"/>
   </g>
   <g id="line2d_28">
    <path d="M 290.246832 212.3064 
L 405.106416 48.22128 
" clip-path="url(#p030cdbe4d1)" style="fill: none; stroke: #ff9800; stroke-opacity: 0.2; stroke-width: 0.5; stroke-linecap: square"/>
   </g>
   <g id="line2d_29">
    <path d="M 290.246832 212.3064 
L 405.106416 212.3064 
" clip-path="url(#p030cdbe4d1)" style="fill: none; stroke: #ff9800; stroke-opacity: 0.2; stroke-width: 0.5; stroke-linecap: square"/>
   </g>
   <g id="line2d_30">
    <path d="M 290.246832 212.3064 
L 405.106416 327.165984 
" clip-path="url(#p030cdbe4d1)" style="fill: none; stroke: #ff9800; stroke-opacity: 0.2; stroke-width: 0.5; stroke-linecap: square"/>
   </g>
   <g id="line2d_31">
    <path d="M 290.246832 212.3064 
L 405.106416 294.34896 
" clip-path="url(#p030cdbe4d1)" style="fill: none; stroke: #ff9800; stroke-opacity: 0.2; stroke-width: 0.5; stroke-linecap: square"/>
   </g>
   <g id="line2d_32">
    <path d="M 290.246832 212.3064 
L 405.106416 261.531936 
" clip-path="url(#p030cdbe4d1)" style="fill: none; stroke: #ff9800; stroke-opacity: 0.2; stroke-width: 0.5; stroke-linecap: square"/>
   </g>
   <g id="line2d_33">
    <path d="M 290.246832 171.28512 
L 405.106416 113.855328 
" clip-path="url(#p030cdbe4d1)" style="fill: none; stroke: #ff9800; stroke-opacity: 0.2; stroke-width: 0.5; stroke-linecap: square"/>
   </g>
   <g id="line2d_34">
    <path d="M 290.246832 171.28512 
L 405.106416 81.038304 
" clip-path="url(#p030cdbe4d1)" style="fill: none; stroke: #ff9800; stroke-opacity: 0.2; stroke-width: 0.5; stroke-linecap: square"/>
   </g>
   <g id="line2d_35">
    <path d="M 290.246832 171.28512 
L 405.106416 48.22128 
" clip-path="url(#p030cdbe4d1)" style="fill: none; stroke: #ff9800; stroke-opacity: 0.2; stroke-width: 0.5; stroke-linecap: square"/>
   </g>
   <g id="line2d_36">
    <path d="M 290.246832 171.28512 
L 405.106416 212.3064 
" clip-path="url(#p030cdbe4d1)" style="fill: none; stroke: #ff9800; stroke-opacity: 0.2; stroke-width: 0.5; stroke-linecap: square"/>
   </g>
   <g id="line2d_37">
    <path d="M 290.246832 171.28512 
L 405.106416 327.165984 
" clip-path="url(#p030cdbe4d1)" style="fill: none; stroke: #ff9800; stroke-opacity: 0.2; stroke-width: 0.5; stroke-linecap: square"/>
   </g>
   <g id="line2d_38">
    <path d="M 290.246832 171.28512 
L 405.106416 294.34896 
" clip-path="url(#p030cdbe4d1)" style="fill: none; stroke: #ff9800; stroke-opacity: 0.2; stroke-width: 0.5; stroke-linecap: square"/>
   </g>
   <g id="line2d_39">
    <path d="M 290.246832 171.28512 
L 405.106416 261.531936 
" clip-path="url(#p030cdbe4d1)" style="fill: none; stroke: #ff9800; stroke-opacity: 0.2; stroke-width: 0.5; stroke-linecap: square"/>
   </g>
   <g id="line2d_40">
    <path d="M 458.43408 343.574496 
L 483.046848 343.574496 
L 483.046848 31.812768 
L 458.43408 31.812768 
" clip-path="url(#p030cdbe4d1)" style="fill: none; stroke: #2a9d8f; stroke-width: 2; stroke-linecap: square"/>
   </g>
   <g id="text_1">
    <!-- Image -->
    <g style="fill: #1e3a5f" transform="translate(42.331395 209.750822) scale(0.09 -0.09)">
     <defs>
      <path id="DejaVuSans-49" d="M 628 4666 
L 1259 4666 
L 1259 0 
L 628 0 
L 628 4666 
z
" transform="scale(0.015625)"/>
      <path id="DejaVuSans-6d" d="M 3328 2828 
Q 3544 3216 3844 3400 
Q 4144 3584 4550 3584 
Q 5097 3584 5394 3201 
Q 5691 2819 5691 2113 
L 5691 0 
L 5113 0 
L 5113 2094 
Q 5113 2597 4934 2840 
Q 4756 3084 4391 3084 
Q 3944 3084 3684 2787 
Q 3425 2491 3425 1978 
L 3425 0 
L 2847 0 
L 2847 2094 
Q 2847 2600 2669 2842 
Q 2491 3084 2119 3084 
Q 1678 3084 1418 2786 
Q 1159 2488 1159 1978 
L 1159 0 
L 581 0 
L 581 3500 
L 1159 3500 
L 1159 2956 
Q 1356 3278 1631 3431 
Q 1906 3584 2284 3584 
Q 2666 3584 2933 3390 
Q 3200 3197 3328 2828 
z
" transform="scale(0.015625)"/>
      <path id="DejaVuSans-61" d="M 2194 1759 
Q 1497 1759 1228 1600 
Q 959 1441 959 1056 
Q 959 750 1161 570 
Q 1363 391 1709 391 
Q 2188 391 2477 730 
Q 2766 1069 2766 1631 
L 2766 1759 
L 2194 1759 
z
M 3341 1997 
L 3341 0 
L 2766 0 
L 2766 531 
Q 2569 213 2275 61 
Q 1981 -91 1556 -91 
Q 1019 -91 701 211 
Q 384 513 384 1019 
Q 384 1609 779 1909 
Q 1175 2209 1959 2209 
L 2766 2209 
L 2766 2266 
Q 2766 2663 2505 2880 
Q 2244 3097 1772 3097 
Q 1472 3097 1187 3025 
Q 903 2953 641 2809 
L 641 3341 
Q 956 3463 1253 3523 
Q 1550 3584 1831 3584 
Q 2591 3584 2966 3190 
Q 3341 2797 3341 1997 
z
" transform="scale(0.015625)"/>
      <path id="DejaVuSans-67" d="M 2906 1791 
Q 2906 2416 2648 2759 
Q 2391 3103 1925 3103 
Q 1463 3103 1205 2759 
Q 947 2416 947 1791 
Q 947 1169 1205 825 
Q 1463 481 1925 481 
Q 2391 481 2648 825 
Q 2906 1169 2906 1791 
z
M 3481 434 
Q 3481 -459 3084 -895 
Q 2688 -1331 1869 -1331 
Q 1566 -1331 1297 -1286 
Q 1028 -1241 775 -1147 
L 775 -588 
Q 1028 -725 1275 -790 
Q 1522 -856 1778 -856 
Q 2344 -856 2625 -561 
Q 2906 -266 2906 331 
L 2906 616 
Q 2728 306 2450 153 
Q 2172 0 1784 0 
Q 1141 0 747 490 
Q 353 981 353 1791 
Q 353 2603 747 3093 
Q 1141 3584 1784 3584 
Q 2172 3584 2450 3431 
Q 2728 3278 2906 2969 
L 2906 3500 
L 3481 3500 
L 3481 434 
z
" transform="scale(0.015625)"/>
      <path id="DejaVuSans-65" d="M 3597 1894 
L 3597 1613 
L 953 1613 
Q 991 1019 1311 708 
Q 1631 397 2203 397 
Q 2534 397 2845 478 
Q 3156 559 3463 722 
L 3463 178 
Q 3153 47 2828 -22 
Q 2503 -91 2169 -91 
Q 1331 -91 842 396 
Q 353 884 353 1716 
Q 353 2575 817 3079 
Q 1281 3584 2069 3584 
Q 2775 3584 3186 3129 
Q 3597 2675 3597 1894 
z
M 3022 2063 
Q 3016 2534 2758 2815 
Q 2500 3097 2075 3097 
Q 1594 3097 1305 2825 
Q 1016 2553 972 2059 
L 3022 2063 
z
" transform="scale(0.015625)"/>
     </defs>
     <use xlink:href="#DejaVuSans-49"/>
     <use xlink:href="#DejaVuSans-6d" transform="translate(29.492188 0)"/>
     <use xlink:href="#DejaVuSans-61" transform="translate(126.904297 0)"/>
     <use xlink:href="#DejaVuSans-67" transform="translate(188.183594 0)"/>
     <use xlink:href="#DejaVuSans-65" transform="translate(251.660156 0)"/>
    </g>
    <!-- 416×416 -->
    <g style="fill: #1e3a5f" transform="translate(35.475927 219.828853) scale(0.09 -0.09)">
     <defs>
      <path id="DejaVuSans-34" d="M 2419 4116 
L 825 1625 
L 2419 1625 
L 2419 4116 
z
M 2253 4666 
L 3047 4666 
L 3047 1625 
L 3713 1625 
L 3713 1100 
L 3047 1100 
L 3047 0 
L 2419 0 
L 2419 1100 
L 313 1100 
L 313 1709 
L 2253 4666 
z
" transform="scale(0.015625)"/>
      <path id="DejaVuSans-31" d="M 794 531 
L 1825 531 
L 1825 4091 
L 703 3866 
L 703 4441 
L 1819 4666 
L 2450 4666 
L 2450 531 
L 3481 531 
L 3481 0 
L 794 0 
L 794 531 
z
" transform="scale(0.015625)"/>
      <path id="DejaVuSans-36" d="M 2113 2584 
Q 1688 2584 1439 2293 
Q 1191 2003 1191 1497 
Q 1191 994 1439 701 
Q 1688 409 2113 409 
Q 2538 409 2786 701 
Q 3034 994 3034 1497 
Q 3034 2003 2786 2293 
Q 2538 2584 2113 2584 
z
M 3366 4563 
L 3366 3988 
Q 3128 4100 2886 4159 
Q 2644 4219 2406 4219 
Q 1781 4219 1451 3797 
Q 1122 3375 1075 2522 
Q 1259 2794 1537 2939 
Q 1816 3084 2150 3084 
Q 2853 3084 3261 2657 
Q 3669 2231 3669 1497 
Q 3669 778 3244 343 
Q 2819 -91 2113 -91 
Q 1303 -91 875 529 
Q 447 1150 447 2328 
Q 447 3434 972 4092 
Q 1497 4750 2381 4750 
Q 2619 4750 2861 4703 
Q 3103 4656 3366 4563 
z
" transform="scale(0.015625)"/>
      <path id="DejaVuSans-d7" d="M 4488 3438 
L 3059 2003 
L 4488 575 
L 4116 197 
L 2681 1631 
L 1247 197 
L 878 575 
L 2303 2003 
L 878 3438 
L 1247 3816 
L 2681 2381 
L 4116 3816 
L 4488 3438 
z
" transform="scale(0.015625)"/>
     </defs>
     <use xlink:href="#DejaVuSans-34"/>
     <use xlink:href="#DejaVuSans-31" transform="translate(63.623047 0)"/>
     <use xlink:href="#DejaVuSans-36" transform="translate(127.246094 0)"/>
     <use xlink:href="#DejaVuSans-d7" transform="translate(190.869141 0)"/>
     <use xlink:href="#DejaVuSans-34" transform="translate(274.658203 0)"/>
     <use xlink:href="#DejaVuSans-31" transform="translate(338.28125 0)"/>
     <use xlink:href="#DejaVuSans-36" transform="translate(401.904297 0)"/>
    </g>
   </g>
   <g id="text_2">
    <!-- Input -->
    <g style="fill: #1e3a5f" transform="translate(41.47788 122.059584) scale(0.1 -0.1)">
     <defs>
      <path id="DejaVuSans-Bold-49" d="M 588 4666 
L 1791 4666 
L 1791 0 
L 588 0 
L 588 4666 
z
" transform="scale(0.015625)"/>
      <path id="DejaVuSans-Bold-6e" d="M 4056 2131 
L 4056 0 
L 2931 0 
L 2931 347 
L 2931 1631 
Q 2931 2084 2911 2256 
Q 2891 2428 2841 2509 
Q 2775 2619 2662 2680 
Q 2550 2741 2406 2741 
Q 2056 2741 1856 2470 
Q 1656 2200 1656 1722 
L 1656 0 
L 538 0 
L 538 3500 
L 1656 3500 
L 1656 2988 
Q 1909 3294 2193 3439 
Q 2478 3584 2822 3584 
Q 3428 3584 3742 3212 
Q 4056 2841 4056 2131 
z
" transform="scale(0.015625)"/>
      <path id="DejaVuSans-Bold-70" d="M 1656 506 
L 1656 -1331 
L 538 -1331 
L 538 3500 
L 1656 3500 
L 1656 2988 
Q 1888 3294 2169 3439 
Q 2450 3584 2816 3584 
Q 3463 3584 3878 3070 
Q 4294 2556 4294 1747 
Q 4294 938 3878 423 
Q 3463 -91 2816 -91 
Q 2450 -91 2169 54 
Q 1888 200 1656 506 
z
M 2400 2772 
Q 2041 2772 1848 2508 
Q 1656 2244 1656 1747 
Q 1656 1250 1848 986 
Q 2041 722 2400 722 
Q 2759 722 2948 984 
Q 3138 1247 3138 1747 
Q 3138 2247 2948 2509 
Q 2759 2772 2400 2772 
z
" transform="scale(0.015625)"/>
      <path id="DejaVuSans-Bold-75" d="M 500 1363 
L 500 3500 
L 1625 3500 
L 1625 3150 
Q 1625 2866 1622 2436 
Q 1619 2006 1619 1863 
Q 1619 1441 1641 1255 
Q 1663 1069 1716 984 
Q 1784 875 1895 815 
Q 2006 756 2150 756 
Q 2500 756 2700 1025 
Q 2900 1294 2900 1772 
L 2900 3500 
L 4019 3500 
L 4019 0 
L 2900 0 
L 2900 506 
Q 2647 200 2364 54 
Q 2081 -91 1741 -91 
Q 1134 -91 817 281 
Q 500 653 500 1363 
z
" transform="scale(0.015625)"/>
      <path id="DejaVuSans-Bold-74" d="M 1759 4494 
L 1759 3500 
L 2913 3500 
L 2913 2700 
L 1759 2700 
L 1759 1216 
Q 1759 972 1856 886 
Q 1953 800 2241 800 
L 2816 800 
L 2816 0 
L 1856 0 
Q 1194 0 917 276 
Q 641 553 641 1216 
L 641 2700 
L 84 2700 
L 84 3500 
L 641 3500 
L 641 4494 
L 1759 4494 
z
" transform="scale(0.015625)"/>
     </defs>
     <use xlink:href="#DejaVuSans-Bold-49"/>
     <use xlink:href="#DejaVuSans-Bold-6e" transform="translate(37.207031 0)"/>
     <use xlink:href="#DejaVuSans-Bold-70" transform="translate(108.398438 0)"/>
     <use xlink:href="#DejaVuSans-Bold-75" transform="translate(179.980469 0)"/>
     <use xlink:href="#DejaVuSans-Bold-74" transform="translate(251.171875 0)"/>
    </g>
   </g>
   <g id="text_3">
    <!-- CNN -->
    <g style="fill: #ff9800" transform="translate(159.246839 133.394852) scale(0.1 -0.1)">
     <defs>
      <path id="DejaVuSans-Bold-43" d="M 4288 256 
Q 3956 84 3597 -3 
Q 3238 -91 2847 -91 
Q 1681 -91 1000 561 
Q 319 1213 319 2328 
Q 319 3447 1000 4098 
Q 1681 4750 2847 4750 
Q 3238 4750 3597 4662 
Q 3956 4575 4288 4403 
L 4288 3438 
Q 3953 3666 3628 3772 
Q 3303 3878 2944 3878 
Q 2300 3878 1931 3465 
Q 1563 3053 1563 2328 
Q 1563 1606 1931 1193 
Q 2300 781 2944 781 
Q 3303 781 3628 887 
Q 3953 994 4288 1222 
L 4288 256 
z
" transform="scale(0.015625)"/>
      <path id="DejaVuSans-Bold-4e" d="M 588 4666 
L 1931 4666 
L 3628 1466 
L 3628 4666 
L 4769 4666 
L 4769 0 
L 3425 0 
L 1728 3200 
L 1728 0 
L 588 0 
L 588 4666 
z
" transform="scale(0.015625)"/>
     </defs>
     <use xlink:href="#DejaVuSans-Bold-43"/>
     <use xlink:href="#DejaVuSans-Bold-4e" transform="translate(73.388672 0)"/>
     <use xlink:href="#DejaVuSans-Bold-4e" transform="translate(157.080078 0)"/>
    </g>
    <!-- Backbone -->
    <g style="fill: #ff9800" transform="translate(143.846057 144.592665) scale(0.1 -0.1)">
     <defs>
      <path id="DejaVuSans-Bold-42" d="M 2456 2859 
Q 2741 2859 2887 2984 
Q 3034 3109 3034 3353 
Q 3034 3594 2887 3720 
Q 2741 3847 2456 3847 
L 1791 3847 
L 1791 2859 
L 2456 2859 
z
M 2497 819 
Q 2859 819 3042 972 
Q 3225 1125 3225 1434 
Q 3225 1738 3044 1889 
Q 2863 2041 2497 2041 
L 1791 2041 
L 1791 819 
L 2497 819 
z
M 3616 2497 
Q 4003 2384 4215 2081 
Q 4428 1778 4428 1338 
Q 4428 663 3972 331 
Q 3516 0 2584 0 
L 588 0 
L 588 4666 
L 2394 4666 
Q 3366 4666 3802 4372 
Q 4238 4078 4238 3431 
Q 4238 3091 4078 2852 
Q 3919 2613 3616 2497 
z
" transform="scale(0.015625)"/>
      <path id="DejaVuSans-Bold-61" d="M 2106 1575 
Q 1756 1575 1579 1456 
Q 1403 1338 1403 1106 
Q 1403 894 1545 773 
Q 1688 653 1941 653 
Q 2256 653 2472 879 
Q 2688 1106 2688 1447 
L 2688 1575 
L 2106 1575 
z
M 3816 1997 
L 3816 0 
L 2688 0 
L 2688 519 
Q 2463 200 2181 54 
Q 1900 -91 1497 -91 
Q 953 -91 614 226 
Q 275 544 275 1050 
Q 275 1666 698 1953 
Q 1122 2241 2028 2241 
L 2688 2241 
L 2688 2328 
Q 2688 2594 2478 2717 
Q 2269 2841 1825 2841 
Q 1466 2841 1156 2769 
Q 847 2697 581 2553 
L 581 3406 
Q 941 3494 1303 3539 
Q 1666 3584 2028 3584 
Q 2975 3584 3395 3211 
Q 3816 2838 3816 1997 
z
" transform="scale(0.015625)"/>
      <path id="DejaVuSans-Bold-63" d="M 3366 3391 
L 3366 2478 
Q 3138 2634 2908 2709 
Q 2678 2784 2431 2784 
Q 1963 2784 1702 2511 
Q 1441 2238 1441 1747 
Q 1441 1256 1702 982 
Q 1963 709 2431 709 
Q 2694 709 2930 787 
Q 3166 866 3366 1019 
L 3366 103 
Q 3103 6 2833 -42 
Q 2563 -91 2291 -91 
Q 1344 -91 809 395 
Q 275 881 275 1747 
Q 275 2613 809 3098 
Q 1344 3584 2291 3584 
Q 2566 3584 2833 3536 
Q 3100 3488 3366 3391 
z
" transform="scale(0.015625)"/>
      <path id="DejaVuSans-Bold-6b" d="M 538 4863 
L 1656 4863 
L 1656 2216 
L 2944 3500 
L 4244 3500 
L 2534 1894 
L 4378 0 
L 3022 0 
L 1656 1459 
L 1656 0 
L 538 0 
L 538 4863 
z
" transform="scale(0.015625)"/>
      <path id="DejaVuSans-Bold-62" d="M 2400 722 
Q 2759 722 2948 984 
Q 3138 1247 3138 1747 
Q 3138 2247 2948 2509 
Q 2759 2772 2400 2772 
Q 2041 2772 1848 2508 
Q 1656 2244 1656 1747 
Q 1656 1250 1848 986 
Q 2041 722 2400 722 
z
M 1656 2988 
Q 1888 3294 2169 3439 
Q 2450 3584 2816 3584 
Q 3463 3584 3878 3070 
Q 4294 2556 4294 1747 
Q 4294 938 3878 423 
Q 3463 -91 2816 -91 
Q 2450 -91 2169 54 
Q 1888 200 1656 506 
L 1656 0 
L 538 0 
L 538 4863 
L 1656 4863 
L 1656 2988 
z
" transform="scale(0.015625)"/>
      <path id="DejaVuSans-Bold-6f" d="M 2203 2784 
Q 1831 2784 1636 2517 
Q 1441 2250 1441 1747 
Q 1441 1244 1636 976 
Q 1831 709 2203 709 
Q 2569 709 2762 976 
Q 2956 1244 2956 1747 
Q 2956 2250 2762 2517 
Q 2569 2784 2203 2784 
z
M 2203 3584 
Q 3106 3584 3614 3096 
Q 4122 2609 4122 1747 
Q 4122 884 3614 396 
Q 3106 -91 2203 -91 
Q 1297 -91 786 396 
Q 275 884 275 1747 
Q 275 2609 786 3096 
Q 1297 3584 2203 3584 
z
" transform="scale(0.015625)"/>
      <path id="DejaVuSans-Bold-65" d="M 4031 1759 
L 4031 1441 
L 1416 1441 
Q 1456 1047 1700 850 
Q 1944 653 2381 653 
Q 2734 653 3104 758 
Q 3475 863 3866 1075 
L 3866 213 
Q 3469 63 3072 -14 
Q 2675 -91 2278 -91 
Q 1328 -91 801 392 
Q 275 875 275 1747 
Q 275 2603 792 3093 
Q 1309 3584 2216 3584 
Q 3041 3584 3536 3087 
Q 4031 2591 4031 1759 
z
M 2881 2131 
Q 2881 2450 2695 2645 
Q 2509 2841 2209 2841 
Q 1884 2841 1681 2658 
Q 1478 2475 1428 2131 
L 2881 2131 
z
" transform="scale(0.015625)"/>
     </defs>
     <use xlink:href="#DejaVuSans-Bold-42"/>
     <use xlink:href="#DejaVuSans-Bold-61" transform="translate(76.220703 0)"/>
     <use xlink:href="#DejaVuSans-Bold-63" transform="translate(143.701172 0)"/>
     <use xlink:href="#DejaVuSans-Bold-6b" transform="translate(202.978516 0)"/>
     <use xlink:href="#DejaVuSans-Bold-62" transform="translate(269.482422 0)"/>
     <use xlink:href="#DejaVuSans-Bold-6f" transform="translate(341.064453 0)"/>
     <use xlink:href="#DejaVuSans-Bold-6e" transform="translate(409.765625 0)"/>
     <use xlink:href="#DejaVuSans-Bold-65" transform="translate(480.957031 0)"/>
    </g>
   </g>
   <g id="text_4">
    <!-- x -->
    <g style="fill: #2a9d8f" transform="translate(415.0453 116.062828) scale(0.08 -0.08)">
     <defs>
      <path id="DejaVuSans-78" d="M 3513 3500 
L 2247 1797 
L 3578 0 
L 2900 0 
L 1881 1375 
L 863 0 
L 184 0 
L 1544 1831 
L 300 3500 
L 978 3500 
L 1906 2253 
L 2834 3500 
L 3513 3500 
z
" transform="scale(0.015625)"/>
     </defs>
     <use xlink:href="#DejaVuSans-78"/>
    </g>
   </g>
   <g id="text_5">
    <!-- y -->
    <g style="fill: #2a9d8f" transform="translate(415.0453 83.245804) scale(0.08 -0.08)">
     <defs>
      <path id="DejaVuSans-79" d="M 2059 -325 
Q 1816 -950 1584 -1140 
Q 1353 -1331 966 -1331 
L 506 -1331 
L 506 -850 
L 844 -850 
Q 1081 -850 1212 -737 
Q 1344 -625 1503 -206 
L 1606 56 
L 191 3500 
L 800 3500 
L 1894 763 
L 2988 3500 
L 3597 3500 
L 2059 -325 
z
" transform="scale(0.015625)"/>
     </defs>
     <use xlink:href="#DejaVuSans-79"/>
    </g>
   </g>
   <g id="text_6">
    <!-- w,h -->
    <g style="fill: #2a9d8f" transform="translate(410.3353 50.42878) scale(0.08 -0.08)">
     <defs>
      <path id="DejaVuSans-77" d="M 269 3500 
L 844 3500 
L 1563 769 
L 2278 3500 
L 2956 3500 
L 3675 769 
L 4391 3500 
L 4966 3500 
L 4050 0 
L 3372 0 
L 2619 2869 
L 1863 0 
L 1184 0 
L 269 3500 
z
" transform="scale(0.015625)"/>
      <path id="DejaVuSans-2c" d="M 750 794 
L 1409 794 
L 1409 256 
L 897 -744 
L 494 -744 
L 750 256 
L 750 794 
z
" transform="scale(0.015625)"/>
      <path id="DejaVuSans-68" d="M 3513 2113 
L 3513 0 
L 2938 0 
L 2938 2094 
Q 2938 2591 2744 2837 
Q 2550 3084 2163 3084 
Q 1697 3084 1428 2787 
Q 1159 2491 1159 1978 
L 1159 0 
L 581 0 
L 581 4863 
L 1159 4863 
L 1159 2956 
Q 1366 3272 1645 3428 
Q 1925 3584 2291 3584 
Q 2894 3584 3203 3211 
Q 3513 2838 3513 2113 
z
" transform="scale(0.015625)"/>
     </defs>
     <use xlink:href="#DejaVuSans-77"/>
     <use xlink:href="#DejaVuSans-2c" transform="translate(81.787109 0)"/>
     <use xlink:href="#DejaVuSans-68" transform="translate(113.574219 0)"/>
    </g>
   </g>
   <g id="text_7">
    <!-- Box (4) -->
    <g style="fill: #2a9d8f" transform="translate(399.177956 15.404256) scale(0.09 -0.09)">
     <defs>
      <path id="DejaVuSans-Bold-78" d="M 1422 1791 
L 159 3500 
L 1344 3500 
L 2059 2463 
L 2784 3500 
L 3969 3500 
L 2706 1797 
L 4031 0 
L 2847 0 
L 2059 1106 
L 1281 0 
L 97 0 
L 1422 1791 
z
" transform="scale(0.015625)"/>
      <path id="DejaVuSans-Bold-20" transform="scale(0.015625)"/>
      <path id="DejaVuSans-Bold-28" d="M 2413 -844 
L 1484 -844 
Q 1006 -72 778 623 
Q 550 1319 550 2003 
Q 550 2688 779 3389 
Q 1009 4091 1484 4856 
L 2413 4856 
Q 2013 4116 1813 3408 
Q 1613 2700 1613 2009 
Q 1613 1319 1811 609 
Q 2009 -100 2413 -844 
z
" transform="scale(0.015625)"/>
      <path id="DejaVuSans-Bold-34" d="M 2356 3675 
L 1038 1722 
L 2356 1722 
L 2356 3675 
z
M 2156 4666 
L 3494 4666 
L 3494 1722 
L 4159 1722 
L 4159 850 
L 3494 850 
L 3494 0 
L 2356 0 
L 2356 850 
L 288 850 
L 288 1881 
L 2156 4666 
z
" transform="scale(0.015625)"/>
      <path id="DejaVuSans-Bold-29" d="M 513 -844 
Q 913 -100 1113 609 
Q 1313 1319 1313 2009 
Q 1313 2700 1113 3408 
Q 913 4116 513 4856 
L 1441 4856 
Q 1916 4091 2145 3389 
Q 2375 2688 2375 2003 
Q 2375 1319 2147 623 
Q 1919 -72 1441 -844 
L 513 -844 
z
" transform="scale(0.015625)"/>
     </defs>
     <use xlink:href="#DejaVuSans-Bold-42"/>
     <use xlink:href="#DejaVuSans-Bold-6f" transform="translate(76.220703 0)"/>
     <use xlink:href="#DejaVuSans-Bold-78" transform="translate(144.921875 0)"/>
     <use xlink:href="#DejaVuSans-Bold-20" transform="translate(209.423828 0)"/>
     <use xlink:href="#DejaVuSans-Bold-28" transform="translate(244.238281 0)"/>
     <use xlink:href="#DejaVuSans-Bold-34" transform="translate(289.941406 0)"/>
     <use xlink:href="#DejaVuSans-Bold-29" transform="translate(359.521484 0)"/>
    </g>
   </g>
   <g id="text_8">
    <!-- obj -->
    <g style="fill: #2a9d8f" transform="translate(411.314675 214.5139) scale(0.08 -0.08)">
     <defs>
      <path id="DejaVuSans-6f" d="M 1959 3097 
Q 1497 3097 1228 2736 
Q 959 2375 959 1747 
Q 959 1119 1226 758 
Q 1494 397 1959 397 
Q 2419 397 2687 759 
Q 2956 1122 2956 1747 
Q 2956 2369 2687 2733 
Q 2419 3097 1959 3097 
z
M 1959 3584 
Q 2709 3584 3137 3096 
Q 3566 2609 3566 1747 
Q 3566 888 3137 398 
Q 2709 -91 1959 -91 
Q 1206 -91 779 398 
Q 353 888 353 1747 
Q 353 2609 779 3096 
Q 1206 3584 1959 3584 
z
" transform="scale(0.015625)"/>
      <path id="DejaVuSans-62" d="M 3116 1747 
Q 3116 2381 2855 2742 
Q 2594 3103 2138 3103 
Q 1681 3103 1420 2742 
Q 1159 2381 1159 1747 
Q 1159 1113 1420 752 
Q 1681 391 2138 391 
Q 2594 391 2855 752 
Q 3116 1113 3116 1747 
z
M 1159 2969 
Q 1341 3281 1617 3432 
Q 1894 3584 2278 3584 
Q 2916 3584 3314 3078 
Q 3713 2572 3713 1747 
Q 3713 922 3314 415 
Q 2916 -91 2278 -91 
Q 1894 -91 1617 61 
Q 1341 213 1159 525 
L 1159 0 
L 581 0 
L 581 4863 
L 1159 4863 
L 1159 2969 
z
" transform="scale(0.015625)"/>
      <path id="DejaVuSans-6a" d="M 603 3500 
L 1178 3500 
L 1178 -63 
Q 1178 -731 923 -1031 
Q 669 -1331 103 -1331 
L -116 -1331 
L -116 -844 
L 38 -844 
Q 366 -844 484 -692 
Q 603 -541 603 -63 
L 603 3500 
z
M 603 4863 
L 1178 4863 
L 1178 4134 
L 603 4134 
L 603 4863 
z
" transform="scale(0.015625)"/>
     </defs>
     <use xlink:href="#DejaVuSans-6f"/>
     <use xlink:href="#DejaVuSans-62" transform="translate(61.181641 0)"/>
     <use xlink:href="#DejaVuSans-6a" transform="translate(124.658203 0)"/>
    </g>
   </g>
   <g id="text_9">
    <!-- Obj (1) -->
    <g style="fill: #2a9d8f" transform="translate(400.012566 171.28512) scale(0.09 -0.09)">
     <defs>
      <path id="DejaVuSans-Bold-4f" d="M 2719 3878 
Q 2169 3878 1866 3472 
Q 1563 3066 1563 2328 
Q 1563 1594 1866 1187 
Q 2169 781 2719 781 
Q 3272 781 3575 1187 
Q 3878 1594 3878 2328 
Q 3878 3066 3575 3472 
Q 3272 3878 2719 3878 
z
M 2719 4750 
Q 3844 4750 4481 4106 
Q 5119 3463 5119 2328 
Q 5119 1197 4481 553 
Q 3844 -91 2719 -91 
Q 1597 -91 958 553 
Q 319 1197 319 2328 
Q 319 3463 958 4106 
Q 1597 4750 2719 4750 
z
" transform="scale(0.015625)"/>
      <path id="DejaVuSans-Bold-6a" d="M 538 3500 
L 1656 3500 
L 1656 63 
Q 1656 -641 1318 -1011 
Q 981 -1381 341 -1381 
L -213 -1381 
L -213 -647 
L -19 -647 
Q 300 -647 419 -503 
Q 538 -359 538 63 
L 538 3500 
z
M 538 4863 
L 1656 4863 
L 1656 3950 
L 538 3950 
L 538 4863 
z
" transform="scale(0.015625)"/>
      <path id="DejaVuSans-Bold-31" d="M 750 831 
L 1813 831 
L 1813 3847 
L 722 3622 
L 722 4441 
L 1806 4666 
L 2950 4666 
L 2950 831 
L 4013 831 
L 4013 0 
L 750 0 
L 750 831 
z
" transform="scale(0.015625)"/>
     </defs>
     <use xlink:href="#DejaVuSans-Bold-4f"/>
     <use xlink:href="#DejaVuSans-Bold-62" transform="translate(85.009766 0)"/>
     <use xlink:href="#DejaVuSans-Bold-6a" transform="translate(156.591797 0)"/>
     <use xlink:href="#DejaVuSans-Bold-20" transform="translate(190.869141 0)"/>
     <use xlink:href="#DejaVuSans-Bold-28" transform="translate(225.683594 0)"/>
     <use xlink:href="#DejaVuSans-Bold-31" transform="translate(271.386719 0)"/>
     <use xlink:href="#DejaVuSans-Bold-29" transform="translate(340.966797 0)"/>
    </g>
   </g>
   <g id="text_10">
    <!-- c1 -->
    <g style="fill: #2a9d8f" transform="translate(412.668425 329.373484) scale(0.08 -0.08)">
     <defs>
      <path id="DejaVuSans-63" d="M 3122 3366 
L 3122 2828 
Q 2878 2963 2633 3030 
Q 2388 3097 2138 3097 
Q 1578 3097 1268 2742 
Q 959 2388 959 1747 
Q 959 1106 1268 751 
Q 1578 397 2138 397 
Q 2388 397 2633 464 
Q 2878 531 3122 666 
L 3122 134 
Q 2881 22 2623 -34 
Q 2366 -91 2075 -91 
Q 1284 -91 818 406 
Q 353 903 353 1747 
Q 353 2603 823 3093 
Q 1294 3584 2113 3584 
Q 2378 3584 2631 3529 
Q 2884 3475 3122 3366 
z
" transform="scale(0.015625)"/>
     </defs>
     <use xlink:href="#DejaVuSans-63"/>
     <use xlink:href="#DejaVuSans-31" transform="translate(54.980469 0)"/>
    </g>
   </g>
   <g id="text_11">
    <!-- ... -->
    <g style="fill: #2a9d8f" transform="translate(413.59905 296.55646) scale(0.08 -0.08)">
     <defs>
      <path id="DejaVuSans-2e" d="M 684 794 
L 1344 794 
L 1344 0 
L 684 0 
L 684 794 
z
" transform="scale(0.015625)"/>
     </defs>
     <use xlink:href="#DejaVuSans-2e"/>
     <use xlink:href="#DejaVuSans-2e" transform="translate(31.787109 0)"/>
     <use xlink:href="#DejaVuSans-2e" transform="translate(63.574219 0)"/>
    </g>
   </g>
   <g id="text_12">
    <!-- cK -->
    <g style="fill: #2a9d8f" transform="translate(412.5903 263.739436) scale(0.08 -0.08)">
     <defs>
      <path id="DejaVuSans-4b" d="M 628 4666 
L 1259 4666 
L 1259 2694 
L 3353 4666 
L 4166 4666 
L 1850 2491 
L 4331 0 
L 3500 0 
L 1259 2247 
L 1259 0 
L 628 0 
L 628 4666 
z
" transform="scale(0.015625)"/>
     </defs>
     <use xlink:href="#DejaVuSans-63"/>
     <use xlink:href="#DejaVuSans-4b" transform="translate(54.980469 0)"/>
    </g>
   </g>
   <g id="text_13">
    <!-- Class (K) -->
    <g style="fill: #2a9d8f" transform="translate(395.007722 220.510656) scale(0.09 -0.09)">
     <defs>
      <path id="DejaVuSans-Bold-6c" d="M 538 4863 
L 1656 4863 
L 1656 0 
L 538 0 
L 538 4863 
z
" transform="scale(0.015625)"/>
      <path id="DejaVuSans-Bold-73" d="M 3272 3391 
L 3272 2541 
Q 2913 2691 2578 2766 
Q 2244 2841 1947 2841 
Q 1628 2841 1473 2761 
Q 1319 2681 1319 2516 
Q 1319 2381 1436 2309 
Q 1553 2238 1856 2203 
L 2053 2175 
Q 2913 2066 3209 1816 
Q 3506 1566 3506 1031 
Q 3506 472 3093 190 
Q 2681 -91 1863 -91 
Q 1516 -91 1145 -36 
Q 775 19 384 128 
L 384 978 
Q 719 816 1070 734 
Q 1422 653 1784 653 
Q 2113 653 2278 743 
Q 2444 834 2444 1013 
Q 2444 1163 2330 1236 
Q 2216 1309 1875 1350 
L 1678 1375 
Q 931 1469 631 1722 
Q 331 1975 331 2491 
Q 331 3047 712 3315 
Q 1094 3584 1881 3584 
Q 2191 3584 2531 3537 
Q 2872 3491 3272 3391 
z
" transform="scale(0.015625)"/>
      <path id="DejaVuSans-Bold-4b" d="M 588 4666 
L 1791 4666 
L 1791 2963 
L 3525 4666 
L 4922 4666 
L 2675 2456 
L 5153 0 
L 3647 0 
L 1791 1838 
L 1791 0 
L 588 0 
L 588 4666 
z
" transform="scale(0.015625)"/>
     </defs>
     <use xlink:href="#DejaVuSans-Bold-43"/>
     <use xlink:href="#DejaVuSans-Bold-6c" transform="translate(73.388672 0)"/>
     <use xlink:href="#DejaVuSans-Bold-61" transform="translate(107.666016 0)"/>
     <use xlink:href="#DejaVuSans-Bold-73" transform="translate(175.146484 0)"/>
     <use xlink:href="#DejaVuSans-Bold-73" transform="translate(234.667969 0)"/>
     <use xlink:href="#DejaVuSans-Bold-20" transform="translate(294.189453 0)"/>
     <use xlink:href="#DejaVuSans-Bold-28" transform="translate(329.003906 0)"/>
     <use xlink:href="#DejaVuSans-Bold-4b" transform="translate(374.707031 0)"/>
     <use xlink:href="#DejaVuSans-Bold-29" transform="translate(452.197266 0)"/>
    </g>
   </g>
   <g id="text_14">
    <!-- Per -->
    <g style="fill: #2a9d8f" transform="translate(499.45536 185.138054) scale(0.09 -0.09)">
     <defs>
      <path id="DejaVuSans-50" d="M 1259 4147 
L 1259 2394 
L 2053 2394 
Q 2494 2394 2734 2622 
Q 2975 2850 2975 3272 
Q 2975 3691 2734 3919 
Q 2494 4147 2053 4147 
L 1259 4147 
z
M 628 4666 
L 2053 4666 
Q 2838 4666 3239 4311 
Q 3641 3956 3641 3272 
Q 3641 2581 3239 2228 
Q 2838 1875 2053 1875 
L 1259 1875 
L 1259 0 
L 628 0 
L 628 4666 
z
" transform="scale(0.015625)"/>
      <path id="DejaVuSans-72" d="M 2631 2963 
Q 2534 3019 2420 3045 
Q 2306 3072 2169 3072 
Q 1681 3072 1420 2755 
Q 1159 2438 1159 1844 
L 1159 0 
L 581 0 
L 581 3500 
L 1159 3500 
L 1159 2956 
Q 1341 3275 1631 3429 
Q 1922 3584 2338 3584 
Q 2397 3584 2469 3576 
Q 2541 3569 2628 3553 
L 2631 2963 
z
" transform="scale(0.015625)"/>
     </defs>
     <use xlink:href="#DejaVuSans-50"/>
     <use xlink:href="#DejaVuSans-65" transform="translate(56.677734 0)"/>
     <use xlink:href="#DejaVuSans-72" transform="translate(118.201172 0)"/>
    </g>
    <!-- Anchor -->
    <g style="fill: #2a9d8f" transform="translate(499.45536 195.216085) scale(0.09 -0.09)">
     <defs>
      <path id="DejaVuSans-41" d="M 2188 4044 
L 1331 1722 
L 3047 1722 
L 2188 4044 
z
M 1831 4666 
L 2547 4666 
L 4325 0 
L 3669 0 
L 3244 1197 
L 1141 1197 
L 716 0 
L 50 0 
L 1831 4666 
z
" transform="scale(0.015625)"/>
      <path id="DejaVuSans-6e" d="M 3513 2113 
L 3513 0 
L 2938 0 
L 2938 2094 
Q 2938 2591 2744 2837 
Q 2550 3084 2163 3084 
Q 1697 3084 1428 2787 
Q 1159 2491 1159 1978 
L 1159 0 
L 581 0 
L 581 3500 
L 1159 3500 
L 1159 2956 
Q 1366 3272 1645 3428 
Q 1925 3584 2291 3584 
Q 2894 3584 3203 3211 
Q 3513 2838 3513 2113 
z
" transform="scale(0.015625)"/>
     </defs>
     <use xlink:href="#DejaVuSans-41"/>
     <use xlink:href="#DejaVuSans-6e" transform="translate(68.408203 0)"/>
     <use xlink:href="#DejaVuSans-63" transform="translate(131.787109 0)"/>
     <use xlink:href="#DejaVuSans-68" transform="translate(186.767578 0)"/>
     <use xlink:href="#DejaVuSans-6f" transform="translate(250.146484 0)"/>
     <use xlink:href="#DejaVuSans-72" transform="translate(311.328125 0)"/>
    </g>
   </g>
   <g id="patch_17">
    <path d="M 526.069618 212.3064 
Q 552.78407 212.3064 577.262455 212.3064 
" style="fill: none; stroke: #2a9d8f; stroke-width: 2; stroke-linecap: round"/>
    <path d="M 573.262455 210.3064 
L 577.262455 212.3064 
L 573.262455 214.3064 
" style="fill: none; stroke: #2a9d8f; stroke-width: 2; stroke-linecap: round"/>
   </g>
   <g id="text_15">
    <!-- Detections -->
    <g style="fill: #e85a4f" transform="translate(633.178761 178.146623) scale(0.1 -0.1)">
     <defs>
      <path id="DejaVuSans-Bold-44" d="M 1791 3756 
L 1791 909 
L 2222 909 
Q 2959 909 3348 1275 
Q 3738 1641 3738 2338 
Q 3738 3031 3350 3393 
Q 2963 3756 2222 3756 
L 1791 3756 
z
M 588 4666 
L 1856 4666 
Q 2919 4666 3439 4514 
Q 3959 4363 4331 4000 
Q 4659 3684 4818 3271 
Q 4978 2859 4978 2338 
Q 4978 1809 4818 1395 
Q 4659 981 4331 666 
Q 3956 303 3431 151 
Q 2906 0 1856 0 
L 588 0 
L 588 4666 
z
" transform="scale(0.015625)"/>
      <path id="DejaVuSans-Bold-69" d="M 538 3500 
L 1656 3500 
L 1656 0 
L 538 0 
L 538 3500 
z
M 538 4863 
L 1656 4863 
L 1656 3950 
L 538 3950 
L 538 4863 
z
" transform="scale(0.015625)"/>
     </defs>
     <use xlink:href="#DejaVuSans-Bold-44"/>
     <use xlink:href="#DejaVuSans-Bold-65" transform="translate(83.007812 0)"/>
     <use xlink:href="#DejaVuSans-Bold-74" transform="translate(150.830078 0)"/>
     <use xlink:href="#DejaVuSans-Bold-65" transform="translate(198.632812 0)"/>
     <use xlink:href="#DejaVuSans-Bold-63" transform="translate(266.455078 0)"/>
     <use xlink:href="#DejaVuSans-Bold-74" transform="translate(325.732422 0)"/>
     <use xlink:href="#DejaVuSans-Bold-69" transform="translate(373.535156 0)"/>
     <use xlink:href="#DejaVuSans-Bold-6f" transform="translate(407.8125 0)"/>
     <use xlink:href="#DejaVuSans-Bold-6e" transform="translate(476.513672 0)"/>
     <use xlink:href="#DejaVuSans-Bold-73" transform="translate(547.705078 0)"/>
    </g>
   </g>
   <g id="text_16">
    <!-- Dog: 95% -->
    <g style="fill: #2d3748" transform="translate(641.517199 224.285559) scale(0.09 -0.09)">
     <defs>
      <path id="DejaVuSans-44" d="M 1259 4147 
L 1259 519 
L 2022 519 
Q 2988 519 3436 956 
Q 3884 1394 3884 2338 
Q 3884 3275 3436 3711 
Q 2988 4147 2022 4147 
L 1259 4147 
z
M 628 4666 
L 1925 4666 
Q 3281 4666 3915 4102 
Q 4550 3538 4550 2338 
Q 4550 1131 3912 565 
Q 3275 0 1925 0 
L 628 0 
L 628 4666 
z
" transform="scale(0.015625)"/>
      <path id="DejaVuSans-3a" d="M 750 794 
L 1409 794 
L 1409 0 
L 750 0 
L 750 794 
z
M 750 3309 
L 1409 3309 
L 1409 2516 
L 750 2516 
L 750 3309 
z
" transform="scale(0.015625)"/>
      <path id="DejaVuSans-20" transform="scale(0.015625)"/>
      <path id="DejaVuSans-39" d="M 703 97 
L 703 672 
Q 941 559 1184 500 
Q 1428 441 1663 441 
Q 2288 441 2617 861 
Q 2947 1281 2994 2138 
Q 2813 1869 2534 1725 
Q 2256 1581 1919 1581 
Q 1219 1581 811 2004 
Q 403 2428 403 3163 
Q 403 3881 828 4315 
Q 1253 4750 1959 4750 
Q 2769 4750 3195 4129 
Q 3622 3509 3622 2328 
Q 3622 1225 3098 567 
Q 2575 -91 1691 -91 
Q 1453 -91 1209 -44 
Q 966 3 703 97 
z
M 1959 2075 
Q 2384 2075 2632 2365 
Q 2881 2656 2881 3163 
Q 2881 3666 2632 3958 
Q 2384 4250 1959 4250 
Q 1534 4250 1286 3958 
Q 1038 3666 1038 3163 
Q 1038 2656 1286 2365 
Q 1534 2075 1959 2075 
z
" transform="scale(0.015625)"/>
      <path id="DejaVuSans-35" d="M 691 4666 
L 3169 4666 
L 3169 4134 
L 1269 4134 
L 1269 2991 
Q 1406 3038 1543 3061 
Q 1681 3084 1819 3084 
Q 2600 3084 3056 2656 
Q 3513 2228 3513 1497 
Q 3513 744 3044 326 
Q 2575 -91 1722 -91 
Q 1428 -91 1123 -41 
Q 819 9 494 109 
L 494 744 
Q 775 591 1075 516 
Q 1375 441 1709 441 
Q 2250 441 2565 725 
Q 2881 1009 2881 1497 
Q 2881 1984 2565 2268 
Q 2250 2553 1709 2553 
Q 1456 2553 1204 2497 
Q 953 2441 691 2322 
L 691 4666 
z
" transform="scale(0.015625)"/>
      <path id="DejaVuSans-25" d="M 4653 2053 
Q 4381 2053 4226 1822 
Q 4072 1591 4072 1178 
Q 4072 772 4226 539 
Q 4381 306 4653 306 
Q 4919 306 5073 539 
Q 5228 772 5228 1178 
Q 5228 1588 5073 1820 
Q 4919 2053 4653 2053 
z
M 4653 2450 
Q 5147 2450 5437 2106 
Q 5728 1763 5728 1178 
Q 5728 594 5436 251 
Q 5144 -91 4653 -91 
Q 4153 -91 3862 251 
Q 3572 594 3572 1178 
Q 3572 1766 3864 2108 
Q 4156 2450 4653 2450 
z
M 1428 4353 
Q 1159 4353 1004 4120 
Q 850 3888 850 3481 
Q 850 3069 1003 2837 
Q 1156 2606 1428 2606 
Q 1700 2606 1854 2837 
Q 2009 3069 2009 3481 
Q 2009 3884 1853 4118 
Q 1697 4353 1428 4353 
z
M 4250 4750 
L 4750 4750 
L 1831 -91 
L 1331 -91 
L 4250 4750 
z
M 1428 4750 
Q 1922 4750 2215 4408 
Q 2509 4066 2509 3481 
Q 2509 2891 2217 2550 
Q 1925 2209 1428 2209 
Q 931 2209 642 2551 
Q 353 2894 353 3481 
Q 353 4063 643 4406 
Q 934 4750 1428 4750 
z
" transform="scale(0.015625)"/>
     </defs>
     <use xlink:href="#DejaVuSans-44"/>
     <use xlink:href="#DejaVuSans-6f" transform="translate(77.001953 0)"/>
     <use xlink:href="#DejaVuSans-67" transform="translate(138.183594 0)"/>
     <use xlink:href="#DejaVuSans-3a" transform="translate(201.660156 0)"/>
     <use xlink:href="#DejaVuSans-20" transform="translate(235.351562 0)"/>
     <use xlink:href="#DejaVuSans-39" transform="translate(267.138672 0)"/>
     <use xlink:href="#DejaVuSans-35" transform="translate(330.761719 0)"/>
     <use xlink:href="#DejaVuSans-25" transform="translate(394.384766 0)"/>
    </g>
    <!-- [120, 80, 200, 150] -->
    <g style="fill: #2d3748" transform="translate(619.953761 234.36359) scale(0.09 -0.09)">
     <defs>
      <path id="DejaVuSans-5b" d="M 550 4863 
L 1875 4863 
L 1875 4416 
L 1125 4416 
L 1125 -397 
L 1875 -397 
L 1875 -844 
L 550 -844 
L 550 4863 
z
" transform="scale(0.015625)"/>
      <path id="DejaVuSans-32" d="M 1228 531 
L 3431 531 
L 3431 0 
L 469 0 
L 469 531 
Q 828 903 1448 1529 
Q 2069 2156 2228 2338 
Q 2531 2678 2651 2914 
Q 2772 3150 2772 3378 
Q 2772 3750 2511 3984 
Q 2250 4219 1831 4219 
Q 1534 4219 1204 4116 
Q 875 4013 500 3803 
L 500 4441 
Q 881 4594 1212 4672 
Q 1544 4750 1819 4750 
Q 2544 4750 2975 4387 
Q 3406 4025 3406 3419 
Q 3406 3131 3298 2873 
Q 3191 2616 2906 2266 
Q 2828 2175 2409 1742 
Q 1991 1309 1228 531 
z
" transform="scale(0.015625)"/>
      <path id="DejaVuSans-30" d="M 2034 4250 
Q 1547 4250 1301 3770 
Q 1056 3291 1056 2328 
Q 1056 1369 1301 889 
Q 1547 409 2034 409 
Q 2525 409 2770 889 
Q 3016 1369 3016 2328 
Q 3016 3291 2770 3770 
Q 2525 4250 2034 4250 
z
M 2034 4750 
Q 2819 4750 3233 4129 
Q 3647 3509 3647 2328 
Q 3647 1150 3233 529 
Q 2819 -91 2034 -91 
Q 1250 -91 836 529 
Q 422 1150 422 2328 
Q 422 3509 836 4129 
Q 1250 4750 2034 4750 
z
" transform="scale(0.015625)"/>
      <path id="DejaVuSans-38" d="M 2034 2216 
Q 1584 2216 1326 1975 
Q 1069 1734 1069 1313 
Q 1069 891 1326 650 
Q 1584 409 2034 409 
Q 2484 409 2743 651 
Q 3003 894 3003 1313 
Q 3003 1734 2745 1975 
Q 2488 2216 2034 2216 
z
M 1403 2484 
Q 997 2584 770 2862 
Q 544 3141 544 3541 
Q 544 4100 942 4425 
Q 1341 4750 2034 4750 
Q 2731 4750 3128 4425 
Q 3525 4100 3525 3541 
Q 3525 3141 3298 2862 
Q 3072 2584 2669 2484 
Q 3125 2378 3379 2068 
Q 3634 1759 3634 1313 
Q 3634 634 3220 271 
Q 2806 -91 2034 -91 
Q 1263 -91 848 271 
Q 434 634 434 1313 
Q 434 1759 690 2068 
Q 947 2378 1403 2484 
z
M 1172 3481 
Q 1172 3119 1398 2916 
Q 1625 2713 2034 2713 
Q 2441 2713 2670 2916 
Q 2900 3119 2900 3481 
Q 2900 3844 2670 4047 
Q 2441 4250 2034 4250 
Q 1625 4250 1398 4047 
Q 1172 3844 1172 3481 
z
" transform="scale(0.015625)"/>
      <path id="DejaVuSans-5d" d="M 1947 4863 
L 1947 -844 
L 622 -844 
L 622 -397 
L 1369 -397 
L 1369 4416 
L 622 4416 
L 622 4863 
L 1947 4863 
z
" transform="scale(0.015625)"/>
     </defs>
     <use xlink:href="#DejaVuSans-5b"/>
     <use xlink:href="#DejaVuSans-31" transform="translate(39.013672 0)"/>
     <use xlink:href="#DejaVuSans-32" transform="translate(102.636719 0)"/>
     <use xlink:href="#DejaVuSans-30" transform="translate(166.259766 0)"/>
     <use xlink:href="#DejaVuSans-2c" transform="translate(229.882812 0)"/>
     <use xlink:href="#DejaVuSans-20" transform="translate(261.669922 0)"/>
     <use xlink:href="#DejaVuSans-38" transform="translate(293.457031 0)"/>
     <use xlink:href="#DejaVuSans-30" transform="translate(357.080078 0)"/>
     <use xlink:href="#DejaVuSans-2c" transform="translate(420.703125 0)"/>
     <use xlink:href="#DejaVuSans-20" transform="translate(452.490234 0)"/>
     <use xlink:href="#DejaVuSans-32" transform="translate(484.277344 0)"/>
     <use xlink:href="#DejaVuSans-30" transform="translate(547.900391 0)"/>
     <use xlink:href="#DejaVuSans-30" transform="translate(611.523438 0)"/>
     <use xlink:href="#DejaVuSans-2c" transform="translate(675.146484 0)"/>
     <use xlink:href="#DejaVuSans-20" transform="translate(706.933594 0)"/>
     <use xlink:href="#DejaVuSans-31" transform="translate(738.720703 0)"/>
     <use xlink:href="#DejaVuSans-35" transform="translate(802.34375 0)"/>
     <use xlink:href="#DejaVuSans-30" transform="translate(865.966797 0)"/>
     <use xlink:href="#DejaVuSans-5d" transform="translate(929.589844 0)"/>
    </g>
    <!-- Cat: 87% -->
    <g style="fill: #2d3748" transform="translate(642.928371 244.441621) scale(0.09 -0.09)">
     <defs>
      <path id="DejaVuSans-43" d="M 4122 4306 
L 4122 3641 
Q 3803 3938 3442 4084 
Q 3081 4231 2675 4231 
Q 1875 4231 1450 3742 
Q 1025 3253 1025 2328 
Q 1025 1406 1450 917 
Q 1875 428 2675 428 
Q 3081 428 3442 575 
Q 3803 722 4122 1019 
L 4122 359 
Q 3791 134 3420 21 
Q 3050 -91 2638 -91 
Q 1578 -91 968 557 
Q 359 1206 359 2328 
Q 359 3453 968 4101 
Q 1578 4750 2638 4750 
Q 3056 4750 3426 4639 
Q 3797 4528 4122 4306 
z
" transform="scale(0.015625)"/>
      <path id="DejaVuSans-74" d="M 1172 4494 
L 1172 3500 
L 2356 3500 
L 2356 3053 
L 1172 3053 
L 1172 1153 
Q 1172 725 1289 603 
Q 1406 481 1766 481 
L 2356 481 
L 2356 0 
L 1766 0 
Q 1100 0 847 248 
Q 594 497 594 1153 
L 594 3053 
L 172 3053 
L 172 3500 
L 594 3500 
L 594 4494 
L 1172 4494 
z
" transform="scale(0.015625)"/>
      <path id="DejaVuSans-37" d="M 525 4666 
L 3525 4666 
L 3525 4397 
L 1831 0 
L 1172 0 
L 2766 4134 
L 525 4134 
L 525 4666 
z
" transform="scale(0.015625)"/>
     </defs>
     <use xlink:href="#DejaVuSans-43"/>
     <use xlink:href="#DejaVuSans-61" transform="translate(69.824219 0)"/>
     <use xlink:href="#DejaVuSans-74" transform="translate(131.103516 0)"/>
     <use xlink:href="#DejaVuSans-3a" transform="translate(170.3125 0)"/>
     <use xlink:href="#DejaVuSans-20" transform="translate(204.003906 0)"/>
     <use xlink:href="#DejaVuSans-38" transform="translate(235.791016 0)"/>
     <use xlink:href="#DejaVuSans-37" transform="translate(299.414062 0)"/>
     <use xlink:href="#DejaVuSans-25" transform="translate(363.037109 0)"/>
    </g>
    <!-- [300, 100, 120, 80] -->
    <g style="fill: #2d3748" transform="translate(619.953761 254.519652) scale(0.09 -0.09)">
     <defs>
      <path id="DejaVuSans-33" d="M 2597 2516 
Q 3050 2419 3304 2112 
Q 3559 1806 3559 1356 
Q 3559 666 3084 287 
Q 2609 -91 1734 -91 
Q 1441 -91 1130 -33 
Q 819 25 488 141 
L 488 750 
Q 750 597 1062 519 
Q 1375 441 1716 441 
Q 2309 441 2620 675 
Q 2931 909 2931 1356 
Q 2931 1769 2642 2001 
Q 2353 2234 1838 2234 
L 1294 2234 
L 1294 2753 
L 1863 2753 
Q 2328 2753 2575 2939 
Q 2822 3125 2822 3475 
Q 2822 3834 2567 4026 
Q 2313 4219 1838 4219 
Q 1578 4219 1281 4162 
Q 984 4106 628 3988 
L 628 4550 
Q 988 4650 1302 4700 
Q 1616 4750 1894 4750 
Q 2613 4750 3031 4423 
Q 3450 4097 3450 3541 
Q 3450 3153 3228 2886 
Q 3006 2619 2597 2516 
z
" transform="scale(0.015625)"/>
     </defs>
     <use xlink:href="#DejaVuSans-5b"/>
     <use xlink:href="#DejaVuSans-33" transform="translate(39.013672 0)"/>
     <use xlink:href="#DejaVuSans-30" transform="translate(102.636719 0)"/>
     <use xlink:href="#DejaVuSans-30" transform="translate(166.259766 0)"/>
     <use xlink:href="#DejaVuSans-2c" transform="translate(229.882812 0)"/>
     <use xlink:href="#DejaVuSans-20" transform="translate(261.669922 0)"/>
     <use xlink:href="#DejaVuSans-31" transform="translate(293.457031 0)"/>
     <use xlink:href="#DejaVuSans-30" transform="translate(357.080078 0)"/>
     <use xlink:href="#DejaVuSans-30" transform="translate(420.703125 0)"/>
     <use xlink:href="#DejaVuSans-2c" transform="translate(484.326172 0)"/>
     <use xlink:href="#DejaVuSans-20" transform="translate(516.113281 0)"/>
     <use xlink:href="#DejaVuSans-31" transform="translate(547.900391 0)"/>
     <use xlink:href="#DejaVuSans-32" transform="translate(611.523438 0)"/>
     <use xlink:href="#DejaVuSans-30" transform="translate(675.146484 0)"/>
     <use xlink:href="#DejaVuSans-2c" transform="translate(738.769531 0)"/>
     <use xlink:href="#DejaVuSans-20" transform="translate(770.556641 0)"/>
     <use xlink:href="#DejaVuSans-38" transform="translate(802.34375 0)"/>
     <use xlink:href="#DejaVuSans-30" transform="translate(865.966797 0)"/>
     <use xlink:href="#DejaVuSans-5d" transform="translate(929.589844 0)"/>
    </g>
   </g>
   <g id="text_17">
    <!-- Total per cell: 4 + 1 + K = 5 + K values -->
    <g style="fill: #2a9d8f" transform="translate(318.949519 392.800032) scale(0.1 -0.1)">
     <defs>
      <path id="DejaVuSans-54" d="M -19 4666 
L 3928 4666 
L 3928 4134 
L 2272 4134 
L 2272 0 
L 1638 0 
L 1638 4134 
L -19 4134 
L -19 4666 
z
" transform="scale(0.015625)"/>
      <path id="DejaVuSans-6c" d="M 603 4863 
L 1178 4863 
L 1178 0 
L 603 0 
L 603 4863 
z
" transform="scale(0.015625)"/>
      <path id="DejaVuSans-70" d="M 1159 525 
L 1159 -1331 
L 581 -1331 
L 581 3500 
L 1159 3500 
L 1159 2969 
Q 1341 3281 1617 3432 
Q 1894 3584 2278 3584 
Q 2916 3584 3314 3078 
Q 3713 2572 3713 1747 
Q 3713 922 3314 415 
Q 2916 -91 2278 -91 
Q 1894 -91 1617 61 
Q 1341 213 1159 525 
z
M 3116 1747 
Q 3116 2381 2855 2742 
Q 2594 3103 2138 3103 
Q 1681 3103 1420 2742 
Q 1159 2381 1159 1747 
Q 1159 1113 1420 752 
Q 1681 391 2138 391 
Q 2594 391 2855 752 
Q 3116 1113 3116 1747 
z
" transform="scale(0.015625)"/>
      <path id="DejaVuSans-2b" d="M 2944 4013 
L 2944 2272 
L 4684 2272 
L 4684 1741 
L 2944 1741 
L 2944 0 
L 2419 0 
L 2419 1741 
L 678 1741 
L 678 2272 
L 2419 2272 
L 2419 4013 
L 2944 4013 
z
" transform="scale(0.015625)"/>
      <path id="DejaVuSans-3d" d="M 678 2906 
L 4684 2906 
L 4684 2381 
L 678 2381 
L 678 2906 
z
M 678 1631 
L 4684 1631 
L 4684 1100 
L 678 1100 
L 678 1631 
z
" transform="scale(0.015625)"/>
      <path id="DejaVuSans-76" d="M 191 3500 
L 800 3500 
L 1894 563 
L 2988 3500 
L 3597 3500 
L 2284 0 
L 1503 0 
L 191 3500 
z
" transform="scale(0.015625)"/>
      <path id="DejaVuSans-75" d="M 544 1381 
L 544 3500 
L 1119 3500 
L 1119 1403 
Q 1119 906 1312 657 
Q 1506 409 1894 409 
Q 2359 409 2629 706 
Q 2900 1003 2900 1516 
L 2900 3500 
L 3475 3500 
L 3475 0 
L 2900 0 
L 2900 538 
Q 2691 219 2414 64 
Q 2138 -91 1772 -91 
Q 1169 -91 856 284 
Q 544 659 544 1381 
z
M 1991 3584 
L 1991 3584 
z
" transform="scale(0.015625)"/>
      <path id="DejaVuSans-73" d="M 2834 3397 
L 2834 2853 
Q 2591 2978 2328 3040 
Q 2066 3103 1784 3103 
Q 1356 3103 1142 2972 
Q 928 2841 928 2578 
Q 928 2378 1081 2264 
Q 1234 2150 1697 2047 
L 1894 2003 
Q 2506 1872 2764 1633 
Q 3022 1394 3022 966 
Q 3022 478 2636 193 
Q 2250 -91 1575 -91 
Q 1294 -91 989 -36 
Q 684 19 347 128 
L 347 722 
Q 666 556 975 473 
Q 1284 391 1588 391 
Q 1994 391 2212 530 
Q 2431 669 2431 922 
Q 2431 1156 2273 1281 
Q 2116 1406 1581 1522 
L 1381 1569 
Q 847 1681 609 1914 
Q 372 2147 372 2553 
Q 372 3047 722 3315 
Q 1072 3584 1716 3584 
Q 2034 3584 2315 3537 
Q 2597 3491 2834 3397 
z
" transform="scale(0.015625)"/>
     </defs>
     <use xlink:href="#DejaVuSans-54"/>
     <use xlink:href="#DejaVuSans-6f" transform="translate(44.083984 0)"/>
     <use xlink:href="#DejaVuSans-74" transform="translate(105.265625 0)"/>
     <use xlink:href="#DejaVuSans-61" transform="translate(144.474609 0)"/>
     <use xlink:href="#DejaVuSans-6c" transform="translate(205.753906 0)"/>
     <use xlink:href="#DejaVuSans-20" transform="translate(233.537109 0)"/>
     <use xlink:href="#DejaVuSans-70" transform="translate(265.324219 0)"/>
     <use xlink:href="#DejaVuSans-65" transform="translate(328.800781 0)"/>
     <use xlink:href="#DejaVuSans-72" transform="translate(390.324219 0)"/>
     <use xlink:href="#DejaVuSans-20" transform="translate(431.4375 0)"/>
     <use xlink:href="#DejaVuSans-63" transform="translate(463.224609 0)"/>
     <use xlink:href="#DejaVuSans-65" transform="translate(518.205078 0)"/>
     <use xlink:href="#DejaVuSans-6c" transform="translate(579.728516 0)"/>
     <use xlink:href="#DejaVuSans-6c" transform="translate(607.511719 0)"/>
     <use xlink:href="#DejaVuSans-3a" transform="translate(635.294922 0)"/>
     <use xlink:href="#DejaVuSans-20" transform="translate(668.986328 0)"/>
     <use xlink:href="#DejaVuSans-34" transform="translate(700.773438 0)"/>
     <use xlink:href="#DejaVuSans-20" transform="translate(764.396484 0)"/>
     <use xlink:href="#DejaVuSans-2b" transform="translate(796.183594 0)"/>
     <use xlink:href="#DejaVuSans-20" transform="translate(879.972656 0)"/>
     <use xlink:href="#DejaVuSans-31" transform="translate(911.759766 0)"/>
     <use xlink:href="#DejaVuSans-20" transform="translate(975.382812 0)"/>
     <use xlink:href="#DejaVuSans-2b" transform="translate(1007.169922 0)"/>
     <use xlink:href="#DejaVuSans-20" transform="translate(1090.958984 0)"/>
     <use xlink:href="#DejaVuSans-4b" transform="translate(1122.746094 0)"/>
     <use xlink:href="#DejaVuSans-20" transform="translate(1188.322266 0)"/>
     <use xlink:href="#DejaVuSans-3d" transform="translate(1220.109375 0)"/>
     <use xlink:href="#DejaVuSans-20" transform="translate(1303.898438 0)"/>
     <use xlink:href="#DejaVuSans-35" transform="translate(1335.685547 0)"/>
     <use xlink:href="#DejaVuSans-20" transform="translate(1399.308594 0)"/>
     <use xlink:href="#DejaVuSans-2b" transform="translate(1431.095703 0)"/>
     <use xlink:href="#DejaVuSans-20" transform="translate(1514.884766 0)"/>
     <use xlink:href="#DejaVuSans-4b" transform="translate(1546.671875 0)"/>
     <use xlink:href="#DejaVuSans-20" transform="translate(1612.248047 0)"/>
     <use xlink:href="#DejaVuSans-76" transform="translate(1644.035156 0)"/>
     <use xlink:href="#DejaVuSans-61" transform="translate(1703.214844 0)"/>
     <use xlink:href="#DejaVuSans-6c" transform="translate(1764.494141 0)"/>
     <use xlink:href="#DejaVuSans-75" transform="translate(1792.277344 0)"/>
     <use xlink:href="#DejaVuSans-65" transform="translate(1855.65625 0)"/>
     <use xlink:href="#DejaVuSans-73" transform="translate(1917.179688 0)"/>
    </g>
   </g>
  </g>
 </g>
 <defs>
  <clipPath id="p030cdbe4d1">
   <rect x="7.2" y="7.2" width="779.40432" height="410.2128"/>
  </clipPath>
 </defs>
</svg>
