<?xml version="1.0" encoding="utf-8" standalone="no"?>
<!DOCTYPE svg PUBLIC "-//W3C//DTD SVG 1.1//EN"
  "http://www.w3.org/Graphics/SVG/1.1/DTD/svg11.dtd">
<svg xmlns:xlink="http://www.w3.org/1999/xlink" width="739.8pt" height="355.118182pt" viewBox="0 0 739.8 355.118182" xmlns="http://www.w3.org/2000/svg" version="1.1">
 <metadata>
  <rdf:RDF xmlns:dc="http://purl.org/dc/elements/1.1/" xmlns:cc="http://creativecommons.org/ns#" xmlns:rdf="http://www.w3.org/1999/02/22-rdf-syntax-ns#">
   <cc:Work>
    <dc:type rdf:resource="http://purl.org/dc/dcmitype/StillImage"/>
    <dc:date>2025-12-29T10:49:44.017322</dc:date>
    <dc:format>image/svg+xml</dc:format>
    <dc:creator>
     <cc:Agent>
      <dc:title>Matplotlib v3.10.1, https://matplotlib.org/</dc:title>
     </cc:Agent>
    </dc:creator>
   </cc:Work>
  </rdf:RDF>
 </metadata>
 <defs>
  <style type="text/css">*{stroke-linejoin: round; stroke-linecap: butt}</style>
 </defs>
 <g id="figure_1">
  <g id="patch_1">
   <path d="M 0 355.118182 
L 739.8 355.118182 
L 739.8 0 
L 0 0 
z
" style="fill: #ffffff"/>
  </g>
  <g id="axes_1">
   <g id="patch_2">
    <path d="M 51.163636 243.504545 
C 54.807165 243.504545 58.301955 242.056956 60.878319 239.480592 
C 63.454683 236.904228 64.902273 233.409438 64.902273 229.765909 
C 64.902273 226.12238 63.454683 222.62759 60.878319 220.051226 
C 58.301955 217.474862 54.807165 216.027273 51.163636 216.027273 
C 47.520107 216.027273 44.025317 217.474862 41.448953 220.051226 
C 38.872589 222.62759 37.425 226.12238 37.425 229.765909 
C 37.425 233.409438 38.872589 236.904228 41.448953 239.480592 
C 44.025317 242.056956 47.520107 243.504545 51.163636 243.504545 
z
" clip-path="url(#p791729e090)" style="fill: #e2e8f0; stroke: #2d3748; stroke-width: 1.5; stroke-linejoin: miter"/>
   </g>
   <g id="patch_3">
    <path d="M 51.163636 205.036364 
C 54.807165 205.036364 58.301955 203.588774 60.878319 201.01241 
C 63.454683 198.436046 64.902273 194.941256 64.902273 191.297727 
C 64.902273 187.654198 63.454683 184.159408 60.878319 181.583044 
C 58.301955 179.00668 54.807165 177.559091 51.163636 177.559091 
C 47.520107 177.559091 44.025317 179.00668 41.448953 181.583044 
C 38.872589 184.159408 37.425 187.654198 37.425 191.297727 
C 37.425 194.941256 38.872589 198.436046 41.448953 201.01241 
C 44.025317 203.588774 47.520107 205.036364 51.163636 205.036364 
z
" clip-path="url(#p791729e090)" style="fill: #e2e8f0; stroke: #2d3748; stroke-width: 1.5; stroke-linejoin: miter"/>
   </g>
   <g id="patch_4">
    <path d="M 51.163636 166.568182 
C 54.807165 166.568182 58.301955 165.120592 60.878319 162.544228 
C 63.454683 159.967864 64.902273 156.473074 64.902273 152.829545 
C 64.902273 149.186017 63.454683 145.691227 60.878319 143.114863 
C 58.301955 140.538498 54.807165 139.090909 51.163636 139.090909 
C 47.520107 139.090909 44.025317 140.538498 41.448953 143.114863 
C 38.872589 145.691227 37.425 149.186017 37.425 152.829545 
C 37.425 156.473074 38.872589 159.967864 41.448953 162.544228 
C 44.025317 165.120592 47.520107 166.568182 51.163636 166.568182 
z
" clip-path="url(#p791729e090)" style="fill: #e2e8f0; stroke: #2d3748; stroke-width: 1.5; stroke-linejoin: miter"/>
   </g>
   <g id="patch_5">
    <path d="M 51.163636 128.1 
C 54.807165 128.1 58.301955 126.652411 60.878319 124.076047 
C 63.454683 121.499683 64.902273 118.004893 64.902273 114.361364 
C 64.902273 110.717835 63.454683 107.223045 60.878319 104.646681 
C 58.301955 102.070317 54.807165 100.622727 51.163636 100.622727 
C 47.520107 100.622727 44.025317 102.070317 41.448953 104.646681 
C 38.872589 107.223045 37.425 110.717835 37.425 114.361364 
C 37.425 118.004893 38.872589 121.499683 41.448953 124.076047 
C 44.025317 126.652411 47.520107 128.1 51.163636 128.1 
z
" clip-path="url(#p791729e090)" style="fill: #e2e8f0; stroke: #2d3748; stroke-width: 1.5; stroke-linejoin: miter"/>
   </g>
   <g id="patch_6">
    <path d="M 144.586364 281.972727 
C 148.229893 281.972727 151.724683 280.525138 154.301047 277.948774 
C 156.877411 275.37241 158.325 271.87762 158.325 268.234091 
C 158.325 264.590562 156.877411 261.095772 154.301047 258.519408 
C 151.724683 255.943044 148.229893 254.495455 144.586364 254.495455 
C 140.942835 254.495455 137.448045 255.943044 134.871681 258.519408 
C 132.295317 261.095772 130.847727 264.590562 130.847727 268.234091 
C 130.847727 271.87762 132.295317 275.37241 134.871681 277.948774 
C 137.448045 280.525138 140.942835 281.972727 144.586364 281.972727 
z
" clip-path="url(#p791729e090)" style="fill: #2e5a8f; stroke: #2d3748; stroke-width: 1.5; stroke-linejoin: miter"/>
   </g>
   <g id="patch_7">
    <path d="M 144.586364 243.504545 
C 148.229893 243.504545 151.724683 242.056956 154.301047 239.480592 
C 156.877411 236.904228 158.325 233.409438 158.325 229.765909 
C 158.325 226.12238 156.877411 222.62759 154.301047 220.051226 
C 151.724683 217.474862 148.229893 216.027273 144.586364 216.027273 
C 140.942835 216.027273 137.448045 217.474862 134.871681 220.051226 
C 132.295317 222.62759 130.847727 226.12238 130.847727 229.765909 
C 130.847727 233.409438 132.295317 236.904228 134.871681 239.480592 
C 137.448045 242.056956 140.942835 243.504545 144.586364 243.504545 
z
" clip-path="url(#p791729e090)" style="fill: #2e5a8f; stroke: #2d3748; stroke-width: 1.5; stroke-linejoin: miter"/>
   </g>
   <g id="patch_8">
    <path d="M 144.586364 205.036364 
C 148.229893 205.036364 151.724683 203.588774 154.301047 201.01241 
C 156.877411 198.436046 158.325 194.941256 158.325 191.297727 
C 158.325 187.654198 156.877411 184.159408 154.301047 181.583044 
C 151.724683 179.00668 148.229893 177.559091 144.586364 177.559091 
C 140.942835 177.559091 137.448045 179.00668 134.871681 181.583044 
C 132.295317 184.159408 130.847727 187.654198 130.847727 191.297727 
C 130.847727 194.941256 132.295317 198.436046 134.871681 201.01241 
C 137.448045 203.588774 140.942835 205.036364 144.586364 205.036364 
z
" clip-path="url(#p791729e090)" style="fill: #2e5a8f; stroke: #2d3748; stroke-width: 1.5; stroke-linejoin: miter"/>
   </g>
   <g id="patch_9">
    <path d="M 144.586364 166.568182 
C 148.229893 166.568182 151.724683 165.120592 154.301047 162.544228 
C 156.877411 159.967864 158.325 156.473074 158.325 152.829545 
C 158.325 149.186017 156.877411 145.691227 154.301047 143.114863 
C 151.724683 140.538498 148.229893 139.090909 144.586364 139.090909 
C 140.942835 139.090909 137.448045 140.538498 134.871681 143.114863 
C 132.295317 145.691227 130.847727 149.186017 130.847727 152.829545 
C 130.847727 156.473074 132.295317 159.967864 134.871681 162.544228 
C 137.448045 165.120592 140.942835 166.568182 144.586364 166.568182 
z
" clip-path="url(#p791729e090)" style="fill: #2e5a8f; stroke: #2d3748; stroke-width: 1.5; stroke-linejoin: miter"/>
   </g>
   <g id="patch_10">
    <path d="M 144.586364 128.1 
C 148.229893 128.1 151.724683 126.652411 154.301047 124.076047 
C 156.877411 121.499683 158.325 118.004893 158.325 114.361364 
C 158.325 110.717835 156.877411 107.223045 154.301047 104.646681 
C 151.724683 102.070317 148.229893 100.622727 144.586364 100.622727 
C 140.942835 100.622727 137.448045 102.070317 134.871681 104.646681 
C 132.295317 107.223045 130.847727 110.717835 130.847727 114.361364 
C 130.847727 118.004893 132.295317 121.499683 134.871681 124.076047 
C 137.448045 126.652411 140.942835 128.1 144.586364 128.1 
z
" clip-path="url(#p791729e090)" style="fill: #2e5a8f; stroke: #2d3748; stroke-width: 1.5; stroke-linejoin: miter"/>
   </g>
   <g id="patch_11">
    <path d="M 144.586364 89.631818 
C 148.229893 89.631818 151.724683 88.184229 154.301047 85.607865 
C 156.877411 83.031501 158.325 79.536711 158.325 75.893182 
C 158.325 72.249653 156.877411 68.754863 154.301047 66.178499 
C 151.724683 63.602135 148.229893 62.154545 144.586364 62.154545 
C 140.942835 62.154545 137.448045 63.602135 134.871681 66.178499 
C 132.295317 68.754863 130.847727 72.249653 130.847727 75.893182 
C 130.847727 79.536711 132.295317 83.031501 134.871681 85.607865 
C 137.448045 88.184229 140.942835 89.631818 144.586364 89.631818 
z
" clip-path="url(#p791729e090)" style="fill: #2e5a8f; stroke: #2d3748; stroke-width: 1.5; stroke-linejoin: miter"/>
   </g>
   <g id="patch_12">
    <path d="M 238.009091 281.972727 
C 241.65262 281.972727 245.14741 280.525138 247.723774 277.948774 
C 250.300138 275.37241 251.747727 271.87762 251.747727 268.234091 
C 251.747727 264.590562 250.300138 261.095772 247.723774 258.519408 
C 245.14741 255.943044 241.65262 254.495455 238.009091 254.495455 
C 234.365562 254.495455 230.870772 255.943044 228.294408 258.519408 
C 225.718044 261.095772 224.270455 264.590562 224.270455 268.234091 
C 224.270455 271.87762 225.718044 275.37241 228.294408 277.948774 
C 230.870772 280.525138 234.365562 281.972727 238.009091 281.972727 
z
" clip-path="url(#p791729e090)" style="fill: #2e5a8f; stroke: #2d3748; stroke-width: 1.5; stroke-linejoin: miter"/>
   </g>
   <g id="patch_13">
    <path d="M 238.009091 243.504545 
C 241.65262 243.504545 245.14741 242.056956 247.723774 239.480592 
C 250.300138 236.904228 251.747727 233.409438 251.747727 229.765909 
C 251.747727 226.12238 250.300138 222.62759 247.723774 220.051226 
C 245.14741 217.474862 241.65262 216.027273 238.009091 216.027273 
C 234.365562 216.027273 230.870772 217.474862 228.294408 220.051226 
C 225.718044 222.62759 224.270455 226.12238 224.270455 229.765909 
C 224.270455 233.409438 225.718044 236.904228 228.294408 239.480592 
C 230.870772 242.056956 234.365562 243.504545 238.009091 243.504545 
z
" clip-path="url(#p791729e090)" style="fill: #2e5a8f; stroke: #2d3748; stroke-width: 1.5; stroke-linejoin: miter"/>
   </g>
   <g id="patch_14">
    <path d="M 238.009091 205.036364 
C 241.65262 205.036364 245.14741 203.588774 247.723774 201.01241 
C 250.300138 198.436046 251.747727 194.941256 251.747727 191.297727 
C 251.747727 187.654198 250.300138 184.159408 247.723774 181.583044 
C 245.14741 179.00668 241.65262 177.559091 238.009091 177.559091 
C 234.365562 177.559091 230.870772 179.00668 228.294408 181.583044 
C 225.718044 184.159408 224.270455 187.654198 224.270455 191.297727 
C 224.270455 194.941256 225.718044 198.436046 228.294408 201.01241 
C 230.870772 203.588774 234.365562 205.036364 238.009091 205.036364 
z
" clip-path="url(#p791729e090)" style="fill: #2e5a8f; stroke: #2d3748; stroke-width: 1.5; stroke-linejoin: miter"/>
   </g>
   <g id="patch_15">
    <path d="M 238.009091 166.568182 
C 241.65262 166.568182 245.14741 165.120592 247.723774 162.544228 
C 250.300138 159.967864 251.747727 156.473074 251.747727 152.829545 
C 251.747727 149.186017 250.300138 145.691227 247.723774 143.114863 
C 245.14741 140.538498 241.65262 139.090909 238.009091 139.090909 
C 234.365562 139.090909 230.870772 140.538498 228.294408 143.114863 
C 225.718044 145.691227 224.270455 149.186017 224.270455 152.829545 
C 224.270455 156.473074 225.718044 159.967864 228.294408 162.544228 
C 230.870772 165.120592 234.365562 166.568182 238.009091 166.568182 
z
" clip-path="url(#p791729e090)" style="fill: #2e5a8f; stroke: #2d3748; stroke-width: 1.5; stroke-linejoin: miter"/>
   </g>
   <g id="patch_16">
    <path d="M 238.009091 128.1 
C 241.65262 128.1 245.14741 126.652411 247.723774 124.076047 
C 250.300138 121.499683 251.747727 118.004893 251.747727 114.361364 
C 251.747727 110.717835 250.300138 107.223045 247.723774 104.646681 
C 245.14741 102.070317 241.65262 100.622727 238.009091 100.622727 
C 234.365562 100.622727 230.870772 102.070317 228.294408 104.646681 
C 225.718044 107.223045 224.270455 110.717835 224.270455 114.361364 
C 224.270455 118.004893 225.718044 121.499683 228.294408 124.076047 
C 230.870772 126.652411 234.365562 128.1 238.009091 128.1 
z
" clip-path="url(#p791729e090)" style="fill: #2e5a8f; stroke: #2d3748; stroke-width: 1.5; stroke-linejoin: miter"/>
   </g>
   <g id="patch_17">
    <path d="M 238.009091 89.631818 
C 241.65262 89.631818 245.14741 88.184229 247.723774 85.607865 
C 250.300138 83.031501 251.747727 79.536711 251.747727 75.893182 
C 251.747727 72.249653 250.300138 68.754863 247.723774 66.178499 
C 245.14741 63.602135 241.65262 62.154545 238.009091 62.154545 
C 234.365562 62.154545 230.870772 63.602135 228.294408 66.178499 
C 225.718044 68.754863 224.270455 72.249653 224.270455 75.893182 
C 224.270455 79.536711 225.718044 83.031501 228.294408 85.607865 
C 230.870772 88.184229 234.365562 89.631818 238.009091 89.631818 
z
" clip-path="url(#p791729e090)" style="fill: #2e5a8f; stroke: #2d3748; stroke-width: 1.5; stroke-linejoin: miter"/>
   </g>
   <g id="patch_18">
    <path d="M 364.404545 159.424091 
C 367.610851 159.424091 370.686266 158.150212 372.953466 155.883012 
C 375.220667 153.615812 376.494545 150.540396 376.494545 147.334091 
C 376.494545 144.127785 375.220667 141.05237 372.953466 138.78517 
C 370.686266 136.51797 367.610851 135.244091 364.404545 135.244091 
C 361.19824 135.244091 358.122825 136.51797 355.855624 138.78517 
C 353.588424 141.05237 352.314545 144.127785 352.314545 147.334091 
C 352.314545 150.540396 353.588424 153.615812 355.855624 155.883012 
C 358.122825 158.150212 361.19824 159.424091 364.404545 159.424091 
z
" clip-path="url(#p791729e090)" style="fill: #e85a4f; stroke: #2d3748; stroke-width: 1.5; stroke-linejoin: miter"/>
   </g>
   <g id="patch_19">
    <path d="M 364.404545 120.955909 
C 367.610851 120.955909 370.686266 119.68203 372.953466 117.41483 
C 375.220667 115.14763 376.494545 112.072215 376.494545 108.865909 
C 376.494545 105.659604 375.220667 102.584188 372.953466 100.316988 
C 370.686266 98.049788 367.610851 96.775909 364.404545 96.775909 
C 361.19824 96.775909 358.122825 98.049788 355.855624 100.316988 
C 353.588424 102.584188 352.314545 105.659604 352.314545 108.865909 
C 352.314545 112.072215 353.588424 115.14763 355.855624 117.41483 
C 358.122825 119.68203 361.19824 120.955909 364.404545 120.955909 
z
" clip-path="url(#p791729e090)" style="fill: #e85a4f; stroke: #2d3748; stroke-width: 1.5; stroke-linejoin: miter"/>
   </g>
   <g id="patch_20">
    <path d="M 364.404545 82.487727 
C 367.610851 82.487727 370.686266 81.213849 372.953466 78.946648 
C 375.220667 76.679448 376.494545 73.604033 376.494545 70.397727 
C 376.494545 67.191422 375.220667 64.116007 372.953466 61.848806 
C 370.686266 59.581606 367.610851 58.307727 364.404545 58.307727 
C 361.19824 58.307727 358.122825 59.581606 355.855624 61.848806 
C 353.588424 64.116007 352.314545 67.191422 352.314545 70.397727 
C 352.314545 73.604033 353.588424 76.679448 355.855624 78.946648 
C 358.122825 81.213849 361.19824 82.487727 364.404545 82.487727 
z
" clip-path="url(#p791729e090)" style="fill: #e85a4f; stroke: #2d3748; stroke-width: 1.5; stroke-linejoin: miter"/>
   </g>
   <g id="patch_21">
    <path d="M 364.404545 44.019545 
C 367.610851 44.019545 370.686266 42.745667 372.953466 40.478466 
C 375.220667 38.211266 376.494545 35.135851 376.494545 31.929545 
C 376.494545 28.72324 375.220667 25.647825 372.953466 23.380624 
C 370.686266 21.113424 367.610851 19.839545 364.404545 19.839545 
C 361.19824 19.839545 358.122825 21.113424 355.855624 23.380624 
C 353.588424 25.647825 352.314545 28.72324 352.314545 31.929545 
C 352.314545 35.135851 353.588424 38.211266 355.855624 40.478466 
C 358.122825 42.745667 361.19824 44.019545 364.404545 44.019545 
z
" clip-path="url(#p791729e090)" style="fill: #e85a4f; stroke: #2d3748; stroke-width: 1.5; stroke-linejoin: miter"/>
   </g>
   <g id="patch_22">
    <path d="M 419.359091 137.991818 
L 573.231818 137.991818 
Q 577.628182 137.991818 577.628182 133.595455 
L 577.628182 45.668182 
Q 577.628182 41.271818 573.231818 41.271818 
L 419.359091 41.271818 
Q 414.962727 41.271818 414.962727 45.668182 
L 414.962727 133.595455 
Q 414.962727 137.991818 419.359091 137.991818 
z
" clip-path="url(#p791729e090)" style="fill: #fef2f2; stroke: #e85a4f; stroke-width: 1.5; stroke-linejoin: miter"/>
   </g>
   <g id="patch_23">
    <path d="M 364.404545 187.450909 
C 368.485298 187.450909 372.399463 185.829609 375.28499 182.944081 
C 378.170518 180.058554 379.791818 176.144389 379.791818 172.063636 
C 379.791818 167.982884 378.170518 164.068719 375.28499 161.183191 
C 372.399463 158.297664 368.485298 156.676364 364.404545 156.676364 
C 360.323793 156.676364 356.409628 158.297664 353.524101 161.183191 
C 350.638573 164.068719 349.017273 167.982884 349.017273 172.063636 
C 349.017273 176.144389 350.638573 180.058554 353.524101 182.944081 
C 356.409628 185.829609 360.323793 187.450909 364.404545 187.450909 
z
" clip-path="url(#p791729e090)" style="fill: #2a9d8f; stroke: #2d3748; stroke-width: 1.5; stroke-linejoin: miter"/>
   </g>
   <g id="patch_24">
    <path d="M 419.359091 220.423636 
L 573.231818 220.423636 
Q 577.628182 220.423636 577.628182 216.027273 
L 577.628182 144.586364 
Q 577.628182 140.19 573.231818 140.19 
L 419.359091 140.19 
Q 414.962727 140.19 414.962727 144.586364 
L 414.962727 216.027273 
Q 414.962727 220.423636 419.359091 220.423636 
z
" clip-path="url(#p791729e090)" style="fill: #f0fff4; stroke: #2a9d8f; stroke-width: 1.5; stroke-linejoin: miter"/>
   </g>
   <g id="patch_25">
    <path d="M 364.404545 316.044545 
C 367.610851 316.044545 370.686266 314.770667 372.953466 312.503466 
C 375.220667 310.236266 376.494545 307.160851 376.494545 303.954545 
C 376.494545 300.74824 375.220667 297.672825 372.953466 295.405624 
C 370.686266 293.138424 367.610851 291.864545 364.404545 291.864545 
C 361.19824 291.864545 358.122825 293.138424 355.855624 295.405624 
C 353.588424 297.672825 352.314545 300.74824 352.314545 303.954545 
C 352.314545 307.160851 353.588424 310.236266 355.855624 312.503466 
C 358.122825 314.770667 361.19824 316.044545 364.404545 316.044545 
z
" clip-path="url(#p791729e090)" style="fill: #3b82f6; stroke: #2d3748; stroke-width: 1.5; stroke-linejoin: miter"/>
   </g>
   <g id="patch_26">
    <path d="M 364.404545 277.576364 
C 367.610851 277.576364 370.686266 276.302485 372.953466 274.035285 
C 375.220667 271.768084 376.494545 268.692669 376.494545 265.486364 
C 376.494545 262.280058 375.220667 259.204643 372.953466 256.937443 
C 370.686266 254.670242 367.610851 253.396364 364.404545 253.396364 
C 361.19824 253.396364 358.122825 254.670242 355.855624 256.937443 
C 353.588424 259.204643 352.314545 262.280058 352.314545 265.486364 
C 352.314545 268.692669 353.588424 271.768084 355.855624 274.035285 
C 358.122825 276.302485 361.19824 277.576364 364.404545 277.576364 
z
" clip-path="url(#p791729e090)" style="fill: #3b82f6; stroke: #2d3748; stroke-width: 1.5; stroke-linejoin: miter"/>
   </g>
   <g id="patch_27">
    <path d="M 364.404545 239.108182 
C 367.610851 239.108182 370.686266 237.834303 372.953466 235.567103 
C 375.220667 233.299902 376.494545 230.224487 376.494545 227.018182 
C 376.494545 223.811876 375.220667 220.736461 372.953466 218.469261 
C 370.686266 216.20206 367.610851 214.928182 364.404545 214.928182 
C 361.19824 214.928182 358.122825 216.20206 355.855624 218.469261 
C 353.588424 220.736461 352.314545 223.811876 352.314545 227.018182 
C 352.314545 230.224487 353.588424 233.299902 355.855624 235.567103 
C 358.122825 237.834303 361.19824 239.108182 364.404545 239.108182 
z
" clip-path="url(#p791729e090)" style="fill: #3b82f6; stroke: #2d3748; stroke-width: 1.5; stroke-linejoin: miter"/>
   </g>
   <g id="patch_28">
    <path d="M 419.359091 324.837273 
L 573.231818 324.837273 
Q 577.628182 324.837273 577.628182 320.440909 
L 577.628182 232.513636 
Q 577.628182 228.117273 573.231818 228.117273 
L 419.359091 228.117273 
Q 414.962727 228.117273 414.962727 232.513636 
L 414.962727 320.440909 
Q 414.962727 324.837273 419.359091 324.837273 
z
" clip-path="url(#p791729e090)" style="fill: #eff6ff; stroke: #3b82f6; stroke-width: 1.5; stroke-linejoin: miter"/>
   </g>
   <g id="patch_29">
    <path d="M 600.709091 216.027273 
L 710.618182 216.027273 
Q 716.113636 216.027273 716.113636 210.531818 
L 716.113636 133.595455 
Q 716.113636 128.1 710.618182 128.1 
L 600.709091 128.1 
Q 595.213636 128.1 595.213636 133.595455 
L 595.213636 210.531818 
Q 595.213636 216.027273 600.709091 216.027273 
z
" clip-path="url(#p791729e090)" style="fill: #e9c46a; opacity: 0.3; stroke: #e9c46a; stroke-width: 2; stroke-linejoin: miter"/>
   </g>
   <g id="line2d_1">
    <path d="M 238.009091 268.234091 
L 364.404545 147.334091 
" clip-path="url(#p791729e090)" style="fill: none; stroke: #94a3b8; stroke-opacity: 0.2; stroke-width: 0.8; stroke-linecap: square"/>
   </g>
   <g id="line2d_2">
    <path d="M 238.009091 268.234091 
L 364.404545 108.865909 
" clip-path="url(#p791729e090)" style="fill: none; stroke: #94a3b8; stroke-opacity: 0.2; stroke-width: 0.8; stroke-linecap: square"/>
   </g>
   <g id="line2d_3">
    <path d="M 238.009091 268.234091 
L 364.404545 70.397727 
" clip-path="url(#p791729e090)" style="fill: none; stroke: #94a3b8; stroke-opacity: 0.2; stroke-width: 0.8; stroke-linecap: square"/>
   </g>
   <g id="line2d_4">
    <path d="M 238.009091 268.234091 
L 364.404545 31.929545 
" clip-path="url(#p791729e090)" style="fill: none; stroke: #94a3b8; stroke-opacity: 0.2; stroke-width: 0.8; stroke-linecap: square"/>
   </g>
   <g id="line2d_5">
    <path d="M 238.009091 229.765909 
L 364.404545 147.334091 
" clip-path="url(#p791729e090)" style="fill: none; stroke: #94a3b8; stroke-opacity: 0.2; stroke-width: 0.8; stroke-linecap: square"/>
   </g>
   <g id="line2d_6">
    <path d="M 238.009091 229.765909 
L 364.404545 108.865909 
" clip-path="url(#p791729e090)" style="fill: none; stroke: #94a3b8; stroke-opacity: 0.2; stroke-width: 0.8; stroke-linecap: square"/>
   </g>
   <g id="line2d_7">
    <path d="M 238.009091 229.765909 
L 364.404545 70.397727 
" clip-path="url(#p791729e090)" style="fill: none; stroke: #94a3b8; stroke-opacity: 0.2; stroke-width: 0.8; stroke-linecap: square"/>
   </g>
   <g id="line2d_8">
    <path d="M 238.009091 229.765909 
L 364.404545 31.929545 
" clip-path="url(#p791729e090)" style="fill: none; stroke: #94a3b8; stroke-opacity: 0.2; stroke-width: 0.8; stroke-linecap: square"/>
   </g>
   <g id="line2d_9">
    <path d="M 238.009091 191.297727 
L 364.404545 147.334091 
" clip-path="url(#p791729e090)" style="fill: none; stroke: #94a3b8; stroke-opacity: 0.2; stroke-width: 0.8; stroke-linecap: square"/>
   </g>
   <g id="line2d_10">
    <path d="M 238.009091 191.297727 
L 364.404545 108.865909 
" clip-path="url(#p791729e090)" style="fill: none; stroke: #94a3b8; stroke-opacity: 0.2; stroke-width: 0.8; stroke-linecap: square"/>
   </g>
   <g id="line2d_11">
    <path d="M 238.009091 191.297727 
L 364.404545 70.397727 
" clip-path="url(#p791729e090)" style="fill: none; stroke: #94a3b8; stroke-opacity: 0.2; stroke-width: 0.8; stroke-linecap: square"/>
   </g>
   <g id="line2d_12">
    <path d="M 238.009091 191.297727 
L 364.404545 31.929545 
" clip-path="url(#p791729e090)" style="fill: none; stroke: #94a3b8; stroke-opacity: 0.2; stroke-width: 0.8; stroke-linecap: square"/>
   </g>
   <g id="line2d_13">
    <path d="M 238.009091 152.829545 
L 364.404545 147.334091 
" clip-path="url(#p791729e090)" style="fill: none; stroke: #94a3b8; stroke-opacity: 0.2; stroke-width: 0.8; stroke-linecap: square"/>
   </g>
   <g id="line2d_14">
    <path d="M 238.009091 152.829545 
L 364.404545 108.865909 
" clip-path="url(#p791729e090)" style="fill: none; stroke: #94a3b8; stroke-opacity: 0.2; stroke-width: 0.8; stroke-linecap: square"/>
   </g>
   <g id="line2d_15">
    <path d="M 238.009091 152.829545 
L 364.404545 70.397727 
" clip-path="url(#p791729e090)" style="fill: none; stroke: #94a3b8; stroke-opacity: 0.2; stroke-width: 0.8; stroke-linecap: square"/>
   </g>
   <g id="line2d_16">
    <path d="M 238.009091 152.829545 
L 364.404545 31.929545 
" clip-path="url(#p791729e090)" style="fill: none; stroke: #94a3b8; stroke-opacity: 0.2; stroke-width: 0.8; stroke-linecap: square"/>
   </g>
   <g id="line2d_17">
    <path d="M 238.009091 114.361364 
L 364.404545 147.334091 
" clip-path="url(#p791729e090)" style="fill: none; stroke: #94a3b8; stroke-opacity: 0.2; stroke-width: 0.8; stroke-linecap: square"/>
   </g>
   <g id="line2d_18">
    <path d="M 238.009091 114.361364 
L 364.404545 108.865909 
" clip-path="url(#p791729e090)" style="fill: none; stroke: #94a3b8; stroke-opacity: 0.2; stroke-width: 0.8; stroke-linecap: square"/>
   </g>
   <g id="line2d_19">
    <path d="M 238.009091 114.361364 
L 364.404545 70.397727 
" clip-path="url(#p791729e090)" style="fill: none; stroke: #94a3b8; stroke-opacity: 0.2; stroke-width: 0.8; stroke-linecap: square"/>
   </g>
   <g id="line2d_20">
    <path d="M 238.009091 114.361364 
L 364.404545 31.929545 
" clip-path="url(#p791729e090)" style="fill: none; stroke: #94a3b8; stroke-opacity: 0.2; stroke-width: 0.8; stroke-linecap: square"/>
   </g>
   <g id="line2d_21">
    <path d="M 238.009091 75.893182 
L 364.404545 147.334091 
" clip-path="url(#p791729e090)" style="fill: none; stroke: #94a3b8; stroke-opacity: 0.2; stroke-width: 0.8; stroke-linecap: square"/>
   </g>
   <g id="line2d_22">
    <path d="M 238.009091 75.893182 
L 364.404545 108.865909 
" clip-path="url(#p791729e090)" style="fill: none; stroke: #94a3b8; stroke-opacity: 0.2; stroke-width: 0.8; stroke-linecap: square"/>
   </g>
   <g id="line2d_23">
    <path d="M 238.009091 75.893182 
L 364.404545 70.397727 
" clip-path="url(#p791729e090)" style="fill: none; stroke: #94a3b8; stroke-opacity: 0.2; stroke-width: 0.8; stroke-linecap: square"/>
   </g>
   <g id="line2d_24">
    <path d="M 238.009091 75.893182 
L 364.404545 31.929545 
" clip-path="url(#p791729e090)" style="fill: none; stroke: #94a3b8; stroke-opacity: 0.2; stroke-width: 0.8; stroke-linecap: square"/>
   </g>
   <g id="line2d_25">
    <path d="M 238.009091 268.234091 
L 364.404545 172.063636 
" clip-path="url(#p791729e090)" style="fill: none; stroke: #94a3b8; stroke-opacity: 0.2; stroke-width: 0.8; stroke-linecap: square"/>
   </g>
   <g id="line2d_26">
    <path d="M 238.009091 229.765909 
L 364.404545 172.063636 
" clip-path="url(#p791729e090)" style="fill: none; stroke: #94a3b8; stroke-opacity: 0.2; stroke-width: 0.8; stroke-linecap: square"/>
   </g>
   <g id="line2d_27">
    <path d="M 238.009091 191.297727 
L 364.404545 172.063636 
" clip-path="url(#p791729e090)" style="fill: none; stroke: #94a3b8; stroke-opacity: 0.2; stroke-width: 0.8; stroke-linecap: square"/>
   </g>
   <g id="line2d_28">
    <path d="M 238.009091 152.829545 
L 364.404545 172.063636 
" clip-path="url(#p791729e090)" style="fill: none; stroke: #94a3b8; stroke-opacity: 0.2; stroke-width: 0.8; stroke-linecap: square"/>
   </g>
   <g id="line2d_29">
    <path d="M 238.009091 114.361364 
L 364.404545 172.063636 
" clip-path="url(#p791729e090)" style="fill: none; stroke: #94a3b8; stroke-opacity: 0.2; stroke-width: 0.8; stroke-linecap: square"/>
   </g>
   <g id="line2d_30">
    <path d="M 238.009091 75.893182 
L 364.404545 172.063636 
" clip-path="url(#p791729e090)" style="fill: none; stroke: #94a3b8; stroke-opacity: 0.2; stroke-width: 0.8; stroke-linecap: square"/>
   </g>
   <g id="line2d_31">
    <path d="M 238.009091 268.234091 
L 364.404545 303.954545 
" clip-path="url(#p791729e090)" style="fill: none; stroke: #94a3b8; stroke-opacity: 0.2; stroke-width: 0.8; stroke-linecap: square"/>
   </g>
   <g id="line2d_32">
    <path d="M 238.009091 268.234091 
L 364.404545 265.486364 
" clip-path="url(#p791729e090)" style="fill: none; stroke: #94a3b8; stroke-opacity: 0.2; stroke-width: 0.8; stroke-linecap: square"/>
   </g>
   <g id="line2d_33">
    <path d="M 238.009091 268.234091 
L 364.404545 227.018182 
" clip-path="url(#p791729e090)" style="fill: none; stroke: #94a3b8; stroke-opacity: 0.2; stroke-width: 0.8; stroke-linecap: square"/>
   </g>
   <g id="line2d_34">
    <path d="M 238.009091 229.765909 
L 364.404545 303.954545 
" clip-path="url(#p791729e090)" style="fill: none; stroke: #94a3b8; stroke-opacity: 0.2; stroke-width: 0.8; stroke-linecap: square"/>
   </g>
   <g id="line2d_35">
    <path d="M 238.009091 229.765909 
L 364.404545 265.486364 
" clip-path="url(#p791729e090)" style="fill: none; stroke: #94a3b8; stroke-opacity: 0.2; stroke-width: 0.8; stroke-linecap: square"/>
   </g>
   <g id="line2d_36">
    <path d="M 238.009091 229.765909 
L 364.404545 227.018182 
" clip-path="url(#p791729e090)" style="fill: none; stroke: #94a3b8; stroke-opacity: 0.2; stroke-width: 0.8; stroke-linecap: square"/>
   </g>
   <g id="line2d_37">
    <path d="M 238.009091 191.297727 
L 364.404545 303.954545 
" clip-path="url(#p791729e090)" style="fill: none; stroke: #94a3b8; stroke-opacity: 0.2; stroke-width: 0.8; stroke-linecap: square"/>
   </g>
   <g id="line2d_38">
    <path d="M 238.009091 191.297727 
L 364.404545 265.486364 
" clip-path="url(#p791729e090)" style="fill: none; stroke: #94a3b8; stroke-opacity: 0.2; stroke-width: 0.8; stroke-linecap: square"/>
   </g>
   <g id="line2d_39">
    <path d="M 238.009091 191.297727 
L 364.404545 227.018182 
" clip-path="url(#p791729e090)" style="fill: none; stroke: #94a3b8; stroke-opacity: 0.2; stroke-width: 0.8; stroke-linecap: square"/>
   </g>
   <g id="line2d_40">
    <path d="M 238.009091 152.829545 
L 364.404545 303.954545 
" clip-path="url(#p791729e090)" style="fill: none; stroke: #94a3b8; stroke-opacity: 0.2; stroke-width: 0.8; stroke-linecap: square"/>
   </g>
   <g id="line2d_41">
    <path d="M 238.009091 152.829545 
L 364.404545 265.486364 
" clip-path="url(#p791729e090)" style="fill: none; stroke: #94a3b8; stroke-opacity: 0.2; stroke-width: 0.8; stroke-linecap: square"/>
   </g>
   <g id="line2d_42">
    <path d="M 238.009091 152.829545 
L 364.404545 227.018182 
" clip-path="url(#p791729e090)" style="fill: none; stroke: #94a3b8; stroke-opacity: 0.2; stroke-width: 0.8; stroke-linecap: square"/>
   </g>
   <g id="line2d_43">
    <path d="M 238.009091 114.361364 
L 364.404545 303.954545 
" clip-path="url(#p791729e090)" style="fill: none; stroke: #94a3b8; stroke-opacity: 0.2; stroke-width: 0.8; stroke-linecap: square"/>
   </g>
   <g id="line2d_44">
    <path d="M 238.009091 114.361364 
L 364.404545 265.486364 
" clip-path="url(#p791729e090)" style="fill: none; stroke: #94a3b8; stroke-opacity: 0.2; stroke-width: 0.8; stroke-linecap: square"/>
   </g>
   <g id="line2d_45">
    <path d="M 238.009091 114.361364 
L 364.404545 227.018182 
" clip-path="url(#p791729e090)" style="fill: none; stroke: #94a3b8; stroke-opacity: 0.2; stroke-width: 0.8; stroke-linecap: square"/>
   </g>
   <g id="line2d_46">
    <path d="M 238.009091 75.893182 
L 364.404545 303.954545 
" clip-path="url(#p791729e090)" style="fill: none; stroke: #94a3b8; stroke-opacity: 0.2; stroke-width: 0.8; stroke-linecap: square"/>
   </g>
   <g id="line2d_47">
    <path d="M 238.009091 75.893182 
L 364.404545 265.486364 
" clip-path="url(#p791729e090)" style="fill: none; stroke: #94a3b8; stroke-opacity: 0.2; stroke-width: 0.8; stroke-linecap: square"/>
   </g>
   <g id="line2d_48">
    <path d="M 238.009091 75.893182 
L 364.404545 227.018182 
" clip-path="url(#p791729e090)" style="fill: none; stroke: #94a3b8; stroke-opacity: 0.2; stroke-width: 0.8; stroke-linecap: square"/>
   </g>
   <g id="text_1">
    <!-- Input -->
    <g style="fill: #4a5568" transform="translate(38.216761 70.190824) scale(0.1 -0.1)">
     <defs>
      <path id="DejaVuSans-49" d="M 628 4666 
L 1259 4666 
L 1259 0 
L 628 0 
L 628 4666 
z
" transform="scale(0.015625)"/>
      <path id="DejaVuSans-6e" d="M 3513 2113 
L 3513 0 
L 2938 0 
L 2938 2094 
Q 2938 2591 2744 2837 
Q 2550 3084 2163 3084 
Q 1697 3084 1428 2787 
Q 1159 2491 1159 1978 
L 1159 0 
L 581 0 
L 581 3500 
L 1159 3500 
L 1159 2956 
Q 1366 3272 1645 3428 
Q 1925 3584 2291 3584 
Q 2894 3584 3203 3211 
Q 3513 2838 3513 2113 
z
" transform="scale(0.015625)"/>
      <path id="DejaVuSans-70" d="M 1159 525 
L 1159 -1331 
L 581 -1331 
L 581 3500 
L 1159 3500 
L 1159 2969 
Q 1341 3281 1617 3432 
Q 1894 3584 2278 3584 
Q 2916 3584 3314 3078 
Q 3713 2572 3713 1747 
Q 3713 922 3314 415 
Q 2916 -91 2278 -91 
Q 1894 -91 1617 61 
Q 1341 213 1159 525 
z
M 3116 1747 
Q 3116 2381 2855 2742 
Q 2594 3103 2138 3103 
Q 1681 3103 1420 2742 
Q 1159 2381 1159 1747 
Q 1159 1113 1420 752 
Q 1681 391 2138 391 
Q 2594 391 2855 752 
Q 3116 1113 3116 1747 
z
" transform="scale(0.015625)"/>
      <path id="DejaVuSans-75" d="M 544 1381 
L 544 3500 
L 1119 3500 
L 1119 1403 
Q 1119 906 1312 657 
Q 1506 409 1894 409 
Q 2359 409 2629 706 
Q 2900 1003 2900 1516 
L 2900 3500 
L 3475 3500 
L 3475 0 
L 2900 0 
L 2900 538 
Q 2691 219 2414 64 
Q 2138 -91 1772 -91 
Q 1169 -91 856 284 
Q 544 659 544 1381 
z
M 1991 3584 
L 1991 3584 
z
" transform="scale(0.015625)"/>
      <path id="DejaVuSans-74" d="M 1172 4494 
L 1172 3500 
L 2356 3500 
L 2356 3053 
L 1172 3053 
L 1172 1153 
Q 1172 725 1289 603 
Q 1406 481 1766 481 
L 2356 481 
L 2356 0 
L 1766 0 
Q 1100 0 847 248 
Q 594 497 594 1153 
L 594 3053 
L 172 3053 
L 172 3500 
L 594 3500 
L 594 4494 
L 1172 4494 
z
" transform="scale(0.015625)"/>
     </defs>
     <use xlink:href="#DejaVuSans-49"/>
     <use xlink:href="#DejaVuSans-6e" transform="translate(29.492188 0)"/>
     <use xlink:href="#DejaVuSans-70" transform="translate(92.871094 0)"/>
     <use xlink:href="#DejaVuSans-75" transform="translate(156.347656 0)"/>
     <use xlink:href="#DejaVuSans-74" transform="translate(219.726562 0)"/>
    </g>
    <!-- (image) -->
    <g style="fill: #4a5568" transform="translate(31.687855 81.388636) scale(0.1 -0.1)">
     <defs>
      <path id="DejaVuSans-28" d="M 1984 4856 
Q 1566 4138 1362 3434 
Q 1159 2731 1159 2009 
Q 1159 1288 1364 580 
Q 1569 -128 1984 -844 
L 1484 -844 
Q 1016 -109 783 600 
Q 550 1309 550 2009 
Q 550 2706 781 3412 
Q 1013 4119 1484 4856 
L 1984 4856 
z
" transform="scale(0.015625)"/>
      <path id="DejaVuSans-69" d="M 603 3500 
L 1178 3500 
L 1178 0 
L 603 0 
L 603 3500 
z
M 603 4863 
L 1178 4863 
L 1178 4134 
L 603 4134 
L 603 4863 
z
" transform="scale(0.015625)"/>
      <path id="DejaVuSans-6d" d="M 3328 2828 
Q 3544 3216 3844 3400 
Q 4144 3584 4550 3584 
Q 5097 3584 5394 3201 
Q 5691 2819 5691 2113 
L 5691 0 
L 5113 0 
L 5113 2094 
Q 5113 2597 4934 2840 
Q 4756 3084 4391 3084 
Q 3944 3084 3684 2787 
Q 3425 2491 3425 1978 
L 3425 0 
L 2847 0 
L 2847 2094 
Q 2847 2600 2669 2842 
Q 2491 3084 2119 3084 
Q 1678 3084 1418 2786 
Q 1159 2488 1159 1978 
L 1159 0 
L 581 0 
L 581 3500 
L 1159 3500 
L 1159 2956 
Q 1356 3278 1631 3431 
Q 1906 3584 2284 3584 
Q 2666 3584 2933 3390 
Q 3200 3197 3328 2828 
z
" transform="scale(0.015625)"/>
      <path id="DejaVuSans-61" d="M 2194 1759 
Q 1497 1759 1228 1600 
Q 959 1441 959 1056 
Q 959 750 1161 570 
Q 1363 391 1709 391 
Q 2188 391 2477 730 
Q 2766 1069 2766 1631 
L 2766 1759 
L 2194 1759 
z
M 3341 1997 
L 3341 0 
L 2766 0 
L 2766 531 
Q 2569 213 2275 61 
Q 1981 -91 1556 -91 
Q 1019 -91 701 211 
Q 384 513 384 1019 
Q 384 1609 779 1909 
Q 1175 2209 1959 2209 
L 2766 2209 
L 2766 2266 
Q 2766 2663 2505 2880 
Q 2244 3097 1772 3097 
Q 1472 3097 1187 3025 
Q 903 2953 641 2809 
L 641 3341 
Q 956 3463 1253 3523 
Q 1550 3584 1831 3584 
Q 2591 3584 2966 3190 
Q 3341 2797 3341 1997 
z
" transform="scale(0.015625)"/>
      <path id="DejaVuSans-67" d="M 2906 1791 
Q 2906 2416 2648 2759 
Q 2391 3103 1925 3103 
Q 1463 3103 1205 2759 
Q 947 2416 947 1791 
Q 947 1169 1205 825 
Q 1463 481 1925 481 
Q 2391 481 2648 825 
Q 2906 1169 2906 1791 
z
M 3481 434 
Q 3481 -459 3084 -895 
Q 2688 -1331 1869 -1331 
Q 1566 -1331 1297 -1286 
Q 1028 -1241 775 -1147 
L 775 -588 
Q 1028 -725 1275 -790 
Q 1522 -856 1778 -856 
Q 2344 -856 2625 -561 
Q 2906 -266 2906 331 
L 2906 616 
Q 2728 306 2450 153 
Q 2172 0 1784 0 
Q 1141 0 747 490 
Q 353 981 353 1791 
Q 353 2603 747 3093 
Q 1141 3584 1784 3584 
Q 2172 3584 2450 3431 
Q 2728 3278 2906 2969 
L 2906 3500 
L 3481 3500 
L 3481 434 
z
" transform="scale(0.015625)"/>
      <path id="DejaVuSans-65" d="M 3597 1894 
L 3597 1613 
L 953 1613 
Q 991 1019 1311 708 
Q 1631 397 2203 397 
Q 2534 397 2845 478 
Q 3156 559 3463 722 
L 3463 178 
Q 3153 47 2828 -22 
Q 2503 -91 2169 -91 
Q 1331 -91 842 396 
Q 353 884 353 1716 
Q 353 2575 817 3079 
Q 1281 3584 2069 3584 
Q 2775 3584 3186 3129 
Q 3597 2675 3597 1894 
z
M 3022 2063 
Q 3016 2534 2758 2815 
Q 2500 3097 2075 3097 
Q 1594 3097 1305 2825 
Q 1016 2553 972 2059 
L 3022 2063 
z
" transform="scale(0.015625)"/>
      <path id="DejaVuSans-29" d="M 513 4856 
L 1013 4856 
Q 1481 4119 1714 3412 
Q 1947 2706 1947 2009 
Q 1947 1309 1714 600 
Q 1481 -109 1013 -844 
L 513 -844 
Q 928 -128 1133 580 
Q 1338 1288 1338 2009 
Q 1338 2731 1133 3434 
Q 928 4138 513 4856 
z
" transform="scale(0.015625)"/>
     </defs>
     <use xlink:href="#DejaVuSans-28"/>
     <use xlink:href="#DejaVuSans-69" transform="translate(39.013672 0)"/>
     <use xlink:href="#DejaVuSans-6d" transform="translate(66.796875 0)"/>
     <use xlink:href="#DejaVuSans-61" transform="translate(164.208984 0)"/>
     <use xlink:href="#DejaVuSans-67" transform="translate(225.488281 0)"/>
     <use xlink:href="#DejaVuSans-65" transform="translate(288.964844 0)"/>
     <use xlink:href="#DejaVuSans-29" transform="translate(350.488281 0)"/>
    </g>
   </g>
   <g id="text_2">
    <!-- Backbone CNN -->
    <g style="fill: #4a5568" transform="translate(150.400071 34.677273) scale(0.11 -0.11)">
     <defs>
      <path id="DejaVuSans-42" d="M 1259 2228 
L 1259 519 
L 2272 519 
Q 2781 519 3026 730 
Q 3272 941 3272 1375 
Q 3272 1813 3026 2020 
Q 2781 2228 2272 2228 
L 1259 2228 
z
M 1259 4147 
L 1259 2741 
L 2194 2741 
Q 2656 2741 2882 2914 
Q 3109 3088 3109 3444 
Q 3109 3797 2882 3972 
Q 2656 4147 2194 4147 
L 1259 4147 
z
M 628 4666 
L 2241 4666 
Q 2963 4666 3353 4366 
Q 3744 4066 3744 3513 
Q 3744 3084 3544 2831 
Q 3344 2578 2956 2516 
Q 3422 2416 3680 2098 
Q 3938 1781 3938 1306 
Q 3938 681 3513 340 
Q 3088 0 2303 0 
L 628 0 
L 628 4666 
z
" transform="scale(0.015625)"/>
      <path id="DejaVuSans-63" d="M 3122 3366 
L 3122 2828 
Q 2878 2963 2633 3030 
Q 2388 3097 2138 3097 
Q 1578 3097 1268 2742 
Q 959 2388 959 1747 
Q 959 1106 1268 751 
Q 1578 397 2138 397 
Q 2388 397 2633 464 
Q 2878 531 3122 666 
L 3122 134 
Q 2881 22 2623 -34 
Q 2366 -91 2075 -91 
Q 1284 -91 818 406 
Q 353 903 353 1747 
Q 353 2603 823 3093 
Q 1294 3584 2113 3584 
Q 2378 3584 2631 3529 
Q 2884 3475 3122 3366 
z
" transform="scale(0.015625)"/>
      <path id="DejaVuSans-6b" d="M 581 4863 
L 1159 4863 
L 1159 1991 
L 2875 3500 
L 3609 3500 
L 1753 1863 
L 3688 0 
L 2938 0 
L 1159 1709 
L 1159 0 
L 581 0 
L 581 4863 
z
" transform="scale(0.015625)"/>
      <path id="DejaVuSans-62" d="M 3116 1747 
Q 3116 2381 2855 2742 
Q 2594 3103 2138 3103 
Q 1681 3103 1420 2742 
Q 1159 2381 1159 1747 
Q 1159 1113 1420 752 
Q 1681 391 2138 391 
Q 2594 391 2855 752 
Q 3116 1113 3116 1747 
z
M 1159 2969 
Q 1341 3281 1617 3432 
Q 1894 3584 2278 3584 
Q 2916 3584 3314 3078 
Q 3713 2572 3713 1747 
Q 3713 922 3314 415 
Q 2916 -91 2278 -91 
Q 1894 -91 1617 61 
Q 1341 213 1159 525 
L 1159 0 
L 581 0 
L 581 4863 
L 1159 4863 
L 1159 2969 
z
" transform="scale(0.015625)"/>
      <path id="DejaVuSans-6f" d="M 1959 3097 
Q 1497 3097 1228 2736 
Q 959 2375 959 1747 
Q 959 1119 1226 758 
Q 1494 397 1959 397 
Q 2419 397 2687 759 
Q 2956 1122 2956 1747 
Q 2956 2369 2687 2733 
Q 2419 3097 1959 3097 
z
M 1959 3584 
Q 2709 3584 3137 3096 
Q 3566 2609 3566 1747 
Q 3566 888 3137 398 
Q 2709 -91 1959 -91 
Q 1206 -91 779 398 
Q 353 888 353 1747 
Q 353 2609 779 3096 
Q 1206 3584 1959 3584 
z
" transform="scale(0.015625)"/>
      <path id="DejaVuSans-20" transform="scale(0.015625)"/>
      <path id="DejaVuSans-43" d="M 4122 4306 
L 4122 3641 
Q 3803 3938 3442 4084 
Q 3081 4231 2675 4231 
Q 1875 4231 1450 3742 
Q 1025 3253 1025 2328 
Q 1025 1406 1450 917 
Q 1875 428 2675 428 
Q 3081 428 3442 575 
Q 3803 722 4122 1019 
L 4122 359 
Q 3791 134 3420 21 
Q 3050 -91 2638 -91 
Q 1578 -91 968 557 
Q 359 1206 359 2328 
Q 359 3453 968 4101 
Q 1578 4750 2638 4750 
Q 3056 4750 3426 4639 
Q 3797 4528 4122 4306 
z
" transform="scale(0.015625)"/>
      <path id="DejaVuSans-4e" d="M 628 4666 
L 1478 4666 
L 3547 763 
L 3547 4666 
L 4159 4666 
L 4159 0 
L 3309 0 
L 1241 3903 
L 1241 0 
L 628 0 
L 628 4666 
z
" transform="scale(0.015625)"/>
     </defs>
     <use xlink:href="#DejaVuSans-42"/>
     <use xlink:href="#DejaVuSans-61" transform="translate(68.603516 0)"/>
     <use xlink:href="#DejaVuSans-63" transform="translate(129.882812 0)"/>
     <use xlink:href="#DejaVuSans-6b" transform="translate(184.863281 0)"/>
     <use xlink:href="#DejaVuSans-62" transform="translate(242.773438 0)"/>
     <use xlink:href="#DejaVuSans-6f" transform="translate(306.25 0)"/>
     <use xlink:href="#DejaVuSans-6e" transform="translate(367.431641 0)"/>
     <use xlink:href="#DejaVuSans-65" transform="translate(430.810547 0)"/>
     <use xlink:href="#DejaVuSans-20" transform="translate(492.333984 0)"/>
     <use xlink:href="#DejaVuSans-43" transform="translate(524.121094 0)"/>
     <use xlink:href="#DejaVuSans-4e" transform="translate(593.945312 0)"/>
     <use xlink:href="#DejaVuSans-4e" transform="translate(668.75 0)"/>
    </g>
   </g>
   <g id="text_3">
    <!-- Box (Regression) -->
    <g style="fill: #e85a4f" transform="translate(448.175923 62.154545) scale(0.1 -0.1)">
     <defs>
      <path id="DejaVuSans-Bold-42" d="M 2456 2859 
Q 2741 2859 2887 2984 
Q 3034 3109 3034 3353 
Q 3034 3594 2887 3720 
Q 2741 3847 2456 3847 
L 1791 3847 
L 1791 2859 
L 2456 2859 
z
M 2497 819 
Q 2859 819 3042 972 
Q 3225 1125 3225 1434 
Q 3225 1738 3044 1889 
Q 2863 2041 2497 2041 
L 1791 2041 
L 1791 819 
L 2497 819 
z
M 3616 2497 
Q 4003 2384 4215 2081 
Q 4428 1778 4428 1338 
Q 4428 663 3972 331 
Q 3516 0 2584 0 
L 588 0 
L 588 4666 
L 2394 4666 
Q 3366 4666 3802 4372 
Q 4238 4078 4238 3431 
Q 4238 3091 4078 2852 
Q 3919 2613 3616 2497 
z
" transform="scale(0.015625)"/>
      <path id="DejaVuSans-Bold-6f" d="M 2203 2784 
Q 1831 2784 1636 2517 
Q 1441 2250 1441 1747 
Q 1441 1244 1636 976 
Q 1831 709 2203 709 
Q 2569 709 2762 976 
Q 2956 1244 2956 1747 
Q 2956 2250 2762 2517 
Q 2569 2784 2203 2784 
z
M 2203 3584 
Q 3106 3584 3614 3096 
Q 4122 2609 4122 1747 
Q 4122 884 3614 396 
Q 3106 -91 2203 -91 
Q 1297 -91 786 396 
Q 275 884 275 1747 
Q 275 2609 786 3096 
Q 1297 3584 2203 3584 
z
" transform="scale(0.015625)"/>
      <path id="DejaVuSans-Bold-78" d="M 1422 1791 
L 159 3500 
L 1344 3500 
L 2059 2463 
L 2784 3500 
L 3969 3500 
L 2706 1797 
L 4031 0 
L 2847 0 
L 2059 1106 
L 1281 0 
L 97 0 
L 1422 1791 
z
" transform="scale(0.015625)"/>
      <path id="DejaVuSans-Bold-20" transform="scale(0.015625)"/>
      <path id="DejaVuSans-Bold-28" d="M 2413 -844 
L 1484 -844 
Q 1006 -72 778 623 
Q 550 1319 550 2003 
Q 550 2688 779 3389 
Q 1009 4091 1484 4856 
L 2413 4856 
Q 2013 4116 1813 3408 
Q 1613 2700 1613 2009 
Q 1613 1319 1811 609 
Q 2009 -100 2413 -844 
z
" transform="scale(0.015625)"/>
      <path id="DejaVuSans-Bold-52" d="M 2297 2597 
Q 2675 2597 2839 2737 
Q 3003 2878 3003 3200 
Q 3003 3519 2839 3656 
Q 2675 3794 2297 3794 
L 1791 3794 
L 1791 2597 
L 2297 2597 
z
M 1791 1766 
L 1791 0 
L 588 0 
L 588 4666 
L 2425 4666 
Q 3347 4666 3776 4356 
Q 4206 4047 4206 3378 
Q 4206 2916 3982 2619 
Q 3759 2322 3309 2181 
Q 3556 2125 3751 1926 
Q 3947 1728 4147 1325 
L 4800 0 
L 3519 0 
L 2950 1159 
Q 2778 1509 2601 1637 
Q 2425 1766 2131 1766 
L 1791 1766 
z
" transform="scale(0.015625)"/>
      <path id="DejaVuSans-Bold-65" d="M 4031 1759 
L 4031 1441 
L 1416 1441 
Q 1456 1047 1700 850 
Q 1944 653 2381 653 
Q 2734 653 3104 758 
Q 3475 863 3866 1075 
L 3866 213 
Q 3469 63 3072 -14 
Q 2675 -91 2278 -91 
Q 1328 -91 801 392 
Q 275 875 275 1747 
Q 275 2603 792 3093 
Q 1309 3584 2216 3584 
Q 3041 3584 3536 3087 
Q 4031 2591 4031 1759 
z
M 2881 2131 
Q 2881 2450 2695 2645 
Q 2509 2841 2209 2841 
Q 1884 2841 1681 2658 
Q 1478 2475 1428 2131 
L 2881 2131 
z
" transform="scale(0.015625)"/>
      <path id="DejaVuSans-Bold-67" d="M 2919 594 
Q 2688 288 2409 144 
Q 2131 0 1766 0 
Q 1125 0 706 504 
Q 288 1009 288 1791 
Q 288 2575 706 3076 
Q 1125 3578 1766 3578 
Q 2131 3578 2409 3434 
Q 2688 3291 2919 2981 
L 2919 3500 
L 4044 3500 
L 4044 353 
Q 4044 -491 3511 -936 
Q 2978 -1381 1966 -1381 
Q 1638 -1381 1331 -1331 
Q 1025 -1281 716 -1178 
L 716 -306 
Q 1009 -475 1290 -558 
Q 1572 -641 1856 -641 
Q 2406 -641 2662 -400 
Q 2919 -159 2919 353 
L 2919 594 
z
M 2181 2772 
Q 1834 2772 1640 2515 
Q 1447 2259 1447 1791 
Q 1447 1309 1634 1061 
Q 1822 813 2181 813 
Q 2531 813 2725 1069 
Q 2919 1325 2919 1791 
Q 2919 2259 2725 2515 
Q 2531 2772 2181 2772 
z
" transform="scale(0.015625)"/>
      <path id="DejaVuSans-Bold-72" d="M 3138 2547 
Q 2991 2616 2845 2648 
Q 2700 2681 2553 2681 
Q 2122 2681 1889 2404 
Q 1656 2128 1656 1613 
L 1656 0 
L 538 0 
L 538 3500 
L 1656 3500 
L 1656 2925 
Q 1872 3269 2151 3426 
Q 2431 3584 2822 3584 
Q 2878 3584 2943 3579 
Q 3009 3575 3134 3559 
L 3138 2547 
z
" transform="scale(0.015625)"/>
      <path id="DejaVuSans-Bold-73" d="M 3272 3391 
L 3272 2541 
Q 2913 2691 2578 2766 
Q 2244 2841 1947 2841 
Q 1628 2841 1473 2761 
Q 1319 2681 1319 2516 
Q 1319 2381 1436 2309 
Q 1553 2238 1856 2203 
L 2053 2175 
Q 2913 2066 3209 1816 
Q 3506 1566 3506 1031 
Q 3506 472 3093 190 
Q 2681 -91 1863 -91 
Q 1516 -91 1145 -36 
Q 775 19 384 128 
L 384 978 
Q 719 816 1070 734 
Q 1422 653 1784 653 
Q 2113 653 2278 743 
Q 2444 834 2444 1013 
Q 2444 1163 2330 1236 
Q 2216 1309 1875 1350 
L 1678 1375 
Q 931 1469 631 1722 
Q 331 1975 331 2491 
Q 331 3047 712 3315 
Q 1094 3584 1881 3584 
Q 2191 3584 2531 3537 
Q 2872 3491 3272 3391 
z
" transform="scale(0.015625)"/>
      <path id="DejaVuSans-Bold-69" d="M 538 3500 
L 1656 3500 
L 1656 0 
L 538 0 
L 538 3500 
z
M 538 4863 
L 1656 4863 
L 1656 3950 
L 538 3950 
L 538 4863 
z
" transform="scale(0.015625)"/>
      <path id="DejaVuSans-Bold-6e" d="M 4056 2131 
L 4056 0 
L 2931 0 
L 2931 347 
L 2931 1631 
Q 2931 2084 2911 2256 
Q 2891 2428 2841 2509 
Q 2775 2619 2662 2680 
Q 2550 2741 2406 2741 
Q 2056 2741 1856 2470 
Q 1656 2200 1656 1722 
L 1656 0 
L 538 0 
L 538 3500 
L 1656 3500 
L 1656 2988 
Q 1909 3294 2193 3439 
Q 2478 3584 2822 3584 
Q 3428 3584 3742 3212 
Q 4056 2841 4056 2131 
z
" transform="scale(0.015625)"/>
      <path id="DejaVuSans-Bold-29" d="M 513 -844 
Q 913 -100 1113 609 
Q 1313 1319 1313 2009 
Q 1313 2700 1113 3408 
Q 913 4116 513 4856 
L 1441 4856 
Q 1916 4091 2145 3389 
Q 2375 2688 2375 2003 
Q 2375 1319 2147 623 
Q 1919 -72 1441 -844 
L 513 -844 
z
" transform="scale(0.015625)"/>
     </defs>
     <use xlink:href="#DejaVuSans-Bold-42"/>
     <use xlink:href="#DejaVuSans-Bold-6f" transform="translate(76.220703 0)"/>
     <use xlink:href="#DejaVuSans-Bold-78" transform="translate(144.921875 0)"/>
     <use xlink:href="#DejaVuSans-Bold-20" transform="translate(209.423828 0)"/>
     <use xlink:href="#DejaVuSans-Bold-28" transform="translate(244.238281 0)"/>
     <use xlink:href="#DejaVuSans-Bold-52" transform="translate(289.941406 0)"/>
     <use xlink:href="#DejaVuSans-Bold-65" transform="translate(366.943359 0)"/>
     <use xlink:href="#DejaVuSans-Bold-67" transform="translate(434.765625 0)"/>
     <use xlink:href="#DejaVuSans-Bold-72" transform="translate(506.347656 0)"/>
     <use xlink:href="#DejaVuSans-Bold-65" transform="translate(555.664062 0)"/>
     <use xlink:href="#DejaVuSans-Bold-73" transform="translate(623.486328 0)"/>
     <use xlink:href="#DejaVuSans-Bold-73" transform="translate(683.007812 0)"/>
     <use xlink:href="#DejaVuSans-Bold-69" transform="translate(742.529297 0)"/>
     <use xlink:href="#DejaVuSans-Bold-6f" transform="translate(776.806641 0)"/>
     <use xlink:href="#DejaVuSans-Bold-6e" transform="translate(845.507812 0)"/>
     <use xlink:href="#DejaVuSans-Bold-29" transform="translate(916.699219 0)"/>
    </g>
   </g>
   <g id="text_4">
    <!-- x, y, w, h -->
    <g style="fill: #2d3748" transform="translate(430.35 89.631818) scale(0.11 -0.11)">
     <defs>
      <path id="DejaVuSansMono-78" d="M 3494 3500 
L 2241 1825 
L 3616 0 
L 2950 0 
L 1925 1403 
L 903 0 
L 238 0 
L 1613 1825 
L 359 3500 
L 997 3500 
L 1925 2234 
L 2847 3500 
L 3494 3500 
z
" transform="scale(0.015625)"/>
      <path id="DejaVuSansMono-2c" d="M 1569 947 
L 2356 947 
L 2356 300 
L 1741 -897 
L 1259 -897 
L 1569 300 
L 1569 947 
z
" transform="scale(0.015625)"/>
      <path id="DejaVuSansMono-20" transform="scale(0.015625)"/>
      <path id="DejaVuSansMono-79" d="M 2681 1125 
Q 2538 759 2316 163 
Q 2006 -663 1900 -844 
Q 1756 -1088 1540 -1209 
Q 1325 -1331 1038 -1331 
L 575 -1331 
L 575 -850 
L 916 -850 
Q 1169 -850 1312 -703 
Q 1456 -556 1678 56 
L 325 3500 
L 934 3500 
L 1972 763 
L 2994 3500 
L 3603 3500 
L 2681 1125 
z
" transform="scale(0.015625)"/>
      <path id="DejaVuSansMono-77" d="M 0 3500 
L 569 3500 
L 1178 672 
L 1678 2478 
L 2169 2478 
L 2675 672 
L 3284 3500 
L 3853 3500 
L 3034 0 
L 2484 0 
L 1925 1919 
L 1369 0 
L 819 0 
L 0 3500 
z
" transform="scale(0.015625)"/>
      <path id="DejaVuSansMono-68" d="M 3284 2169 
L 3284 0 
L 2706 0 
L 2706 2169 
Q 2706 2641 2540 2862 
Q 2375 3084 2022 3084 
Q 1619 3084 1401 2798 
Q 1184 2513 1184 1978 
L 1184 0 
L 609 0 
L 609 4863 
L 1184 4863 
L 1184 2975 
Q 1338 3275 1600 3429 
Q 1863 3584 2222 3584 
Q 2756 3584 3020 3232 
Q 3284 2881 3284 2169 
z
" transform="scale(0.015625)"/>
     </defs>
     <use xlink:href="#DejaVuSansMono-78"/>
     <use xlink:href="#DejaVuSansMono-2c" transform="translate(60.205078 0)"/>
     <use xlink:href="#DejaVuSansMono-20" transform="translate(120.410156 0)"/>
     <use xlink:href="#DejaVuSansMono-79" transform="translate(180.615234 0)"/>
     <use xlink:href="#DejaVuSansMono-2c" transform="translate(240.820312 0)"/>
     <use xlink:href="#DejaVuSansMono-20" transform="translate(301.025391 0)"/>
     <use xlink:href="#DejaVuSansMono-77" transform="translate(361.230469 0)"/>
     <use xlink:href="#DejaVuSansMono-2c" transform="translate(421.435547 0)"/>
     <use xlink:href="#DejaVuSansMono-20" transform="translate(481.640625 0)"/>
     <use xlink:href="#DejaVuSansMono-68" transform="translate(541.845703 0)"/>
    </g>
   </g>
   <g id="text_5">
    <!-- 4 real numbers -->
    <g style="fill: #4a5568" transform="translate(430.35 117.109091) scale(0.09 -0.09)">
     <defs>
      <path id="DejaVuSans-34" d="M 2419 4116 
L 825 1625 
L 2419 1625 
L 2419 4116 
z
M 2253 4666 
L 3047 4666 
L 3047 1625 
L 3713 1625 
L 3713 1100 
L 3047 1100 
L 3047 0 
L 2419 0 
L 2419 1100 
L 313 1100 
L 313 1709 
L 2253 4666 
z
" transform="scale(0.015625)"/>
      <path id="DejaVuSans-72" d="M 2631 2963 
Q 2534 3019 2420 3045 
Q 2306 3072 2169 3072 
Q 1681 3072 1420 2755 
Q 1159 2438 1159 1844 
L 1159 0 
L 581 0 
L 581 3500 
L 1159 3500 
L 1159 2956 
Q 1341 3275 1631 3429 
Q 1922 3584 2338 3584 
Q 2397 3584 2469 3576 
Q 2541 3569 2628 3553 
L 2631 2963 
z
" transform="scale(0.015625)"/>
      <path id="DejaVuSans-6c" d="M 603 4863 
L 1178 4863 
L 1178 0 
L 603 0 
L 603 4863 
z
" transform="scale(0.015625)"/>
      <path id="DejaVuSans-73" d="M 2834 3397 
L 2834 2853 
Q 2591 2978 2328 3040 
Q 2066 3103 1784 3103 
Q 1356 3103 1142 2972 
Q 928 2841 928 2578 
Q 928 2378 1081 2264 
Q 1234 2150 1697 2047 
L 1894 2003 
Q 2506 1872 2764 1633 
Q 3022 1394 3022 966 
Q 3022 478 2636 193 
Q 2250 -91 1575 -91 
Q 1294 -91 989 -36 
Q 684 19 347 128 
L 347 722 
Q 666 556 975 473 
Q 1284 391 1588 391 
Q 1994 391 2212 530 
Q 2431 669 2431 922 
Q 2431 1156 2273 1281 
Q 2116 1406 1581 1522 
L 1381 1569 
Q 847 1681 609 1914 
Q 372 2147 372 2553 
Q 372 3047 722 3315 
Q 1072 3584 1716 3584 
Q 2034 3584 2315 3537 
Q 2597 3491 2834 3397 
z
" transform="scale(0.015625)"/>
     </defs>
     <use xlink:href="#DejaVuSans-34"/>
     <use xlink:href="#DejaVuSans-20" transform="translate(63.623047 0)"/>
     <use xlink:href="#DejaVuSans-72" transform="translate(95.410156 0)"/>
     <use xlink:href="#DejaVuSans-65" transform="translate(134.273438 0)"/>
     <use xlink:href="#DejaVuSans-61" transform="translate(195.796875 0)"/>
     <use xlink:href="#DejaVuSans-6c" transform="translate(257.076172 0)"/>
     <use xlink:href="#DejaVuSans-20" transform="translate(284.859375 0)"/>
     <use xlink:href="#DejaVuSans-6e" transform="translate(316.646484 0)"/>
     <use xlink:href="#DejaVuSans-75" transform="translate(380.025391 0)"/>
     <use xlink:href="#DejaVuSans-6d" transform="translate(443.404297 0)"/>
     <use xlink:href="#DejaVuSans-62" transform="translate(540.816406 0)"/>
     <use xlink:href="#DejaVuSans-65" transform="translate(604.292969 0)"/>
     <use xlink:href="#DejaVuSans-72" transform="translate(665.816406 0)"/>
     <use xlink:href="#DejaVuSans-73" transform="translate(706.929688 0)"/>
    </g>
   </g>
   <g id="patch_30">
    <path d="M 393.880897 89.631818 
Q 402.874593 89.631818 410.191239 89.631818 
" style="fill: none; stroke: #e85a4f; stroke-width: 1.5; stroke-linecap: round"/>
    <path d="M 406.191239 87.631818 
L 410.191239 89.631818 
L 406.191239 91.631818 
" style="fill: none; stroke: #e85a4f; stroke-width: 1.5; stroke-linecap: round"/>
   </g>
   <g id="text_6">
    <!-- Objectness -->
    <g style="fill: #2a9d8f" transform="translate(465.104048 161.072727) scale(0.1 -0.1)">
     <defs>
      <path id="DejaVuSans-Bold-4f" d="M 2719 3878 
Q 2169 3878 1866 3472 
Q 1563 3066 1563 2328 
Q 1563 1594 1866 1187 
Q 2169 781 2719 781 
Q 3272 781 3575 1187 
Q 3878 1594 3878 2328 
Q 3878 3066 3575 3472 
Q 3272 3878 2719 3878 
z
M 2719 4750 
Q 3844 4750 4481 4106 
Q 5119 3463 5119 2328 
Q 5119 1197 4481 553 
Q 3844 -91 2719 -91 
Q 1597 -91 958 553 
Q 319 1197 319 2328 
Q 319 3463 958 4106 
Q 1597 4750 2719 4750 
z
" transform="scale(0.015625)"/>
      <path id="DejaVuSans-Bold-62" d="M 2400 722 
Q 2759 722 2948 984 
Q 3138 1247 3138 1747 
Q 3138 2247 2948 2509 
Q 2759 2772 2400 2772 
Q 2041 2772 1848 2508 
Q 1656 2244 1656 1747 
Q 1656 1250 1848 986 
Q 2041 722 2400 722 
z
M 1656 2988 
Q 1888 3294 2169 3439 
Q 2450 3584 2816 3584 
Q 3463 3584 3878 3070 
Q 4294 2556 4294 1747 
Q 4294 938 3878 423 
Q 3463 -91 2816 -91 
Q 2450 -91 2169 54 
Q 1888 200 1656 506 
L 1656 0 
L 538 0 
L 538 4863 
L 1656 4863 
L 1656 2988 
z
" transform="scale(0.015625)"/>
      <path id="DejaVuSans-Bold-6a" d="M 538 3500 
L 1656 3500 
L 1656 63 
Q 1656 -641 1318 -1011 
Q 981 -1381 341 -1381 
L -213 -1381 
L -213 -647 
L -19 -647 
Q 300 -647 419 -503 
Q 538 -359 538 63 
L 538 3500 
z
M 538 4863 
L 1656 4863 
L 1656 3950 
L 538 3950 
L 538 4863 
z
" transform="scale(0.015625)"/>
      <path id="DejaVuSans-Bold-63" d="M 3366 3391 
L 3366 2478 
Q 3138 2634 2908 2709 
Q 2678 2784 2431 2784 
Q 1963 2784 1702 2511 
Q 1441 2238 1441 1747 
Q 1441 1256 1702 982 
Q 1963 709 2431 709 
Q 2694 709 2930 787 
Q 3166 866 3366 1019 
L 3366 103 
Q 3103 6 2833 -42 
Q 2563 -91 2291 -91 
Q 1344 -91 809 395 
Q 275 881 275 1747 
Q 275 2613 809 3098 
Q 1344 3584 2291 3584 
Q 2566 3584 2833 3536 
Q 3100 3488 3366 3391 
z
" transform="scale(0.015625)"/>
      <path id="DejaVuSans-Bold-74" d="M 1759 4494 
L 1759 3500 
L 2913 3500 
L 2913 2700 
L 1759 2700 
L 1759 1216 
Q 1759 972 1856 886 
Q 1953 800 2241 800 
L 2816 800 
L 2816 0 
L 1856 0 
Q 1194 0 917 276 
Q 641 553 641 1216 
L 641 2700 
L 84 2700 
L 84 3500 
L 641 3500 
L 641 4494 
L 1759 4494 
z
" transform="scale(0.015625)"/>
     </defs>
     <use xlink:href="#DejaVuSans-Bold-4f"/>
     <use xlink:href="#DejaVuSans-Bold-62" transform="translate(85.009766 0)"/>
     <use xlink:href="#DejaVuSans-Bold-6a" transform="translate(156.591797 0)"/>
     <use xlink:href="#DejaVuSans-Bold-65" transform="translate(190.869141 0)"/>
     <use xlink:href="#DejaVuSans-Bold-63" transform="translate(258.691406 0)"/>
     <use xlink:href="#DejaVuSans-Bold-74" transform="translate(317.96875 0)"/>
     <use xlink:href="#DejaVuSans-Bold-6e" transform="translate(365.771484 0)"/>
     <use xlink:href="#DejaVuSans-Bold-65" transform="translate(436.962891 0)"/>
     <use xlink:href="#DejaVuSans-Bold-73" transform="translate(504.785156 0)"/>
     <use xlink:href="#DejaVuSans-Bold-73" transform="translate(564.306641 0)"/>
    </g>
   </g>
   <g id="text_7">
    <!--   [0,1] -->
    <g style="fill: #2d3748" transform="translate(430.35 183.054545) scale(0.11 -0.11)">
     <defs>
      <path id="DejaVuSansMono-3c3" d="M 1903 2922 
Q 1481 2922 1263 2672 
Q 1038 2413 1038 1747 
Q 1038 1081 1263 739 
Q 1488 397 1925 397 
Q 2366 397 2591 739 
Q 2816 1081 2816 1538 
Q 2816 2316 2278 2719 
Q 2091 2859 1903 2922 
z
M 2781 2925 
Q 3425 2419 3425 1538 
Q 3425 825 2953 303 
Q 2597 -94 1925 -91 
Q 1197 -91 812 379 
Q 428 850 428 1747 
Q 428 2575 813 3053 
Q 1172 3500 1925 3500 
L 3534 3500 
L 3534 2925 
L 2781 2925 
z
" transform="scale(0.015625)"/>
      <path id="DejaVuSansMono-2192" d="M 3647 1625 
L 2738 716 
L 2456 997 
L 2956 1497 
L 206 1497 
L 206 2009 
L 2956 2009 
L 2456 2509 
L 2738 2791 
L 3647 1881 
L 3647 1625 
z
" transform="scale(0.015625)"/>
      <path id="DejaVuSansMono-5b" d="M 1447 4863 
L 2772 4863 
L 2772 4416 
L 2022 4416 
L 2022 -397 
L 2772 -397 
L 2772 -844 
L 1447 -844 
L 1447 4863 
z
" transform="scale(0.015625)"/>
      <path id="DejaVuSansMono-30" d="M 1509 2344 
Q 1509 2516 1629 2641 
Q 1750 2766 1919 2766 
Q 2094 2766 2219 2641 
Q 2344 2516 2344 2344 
Q 2344 2169 2220 2047 
Q 2097 1925 1919 1925 
Q 1744 1925 1626 2044 
Q 1509 2163 1509 2344 
z
M 1925 4250 
Q 1484 4250 1267 3775 
Q 1050 3300 1050 2328 
Q 1050 1359 1267 884 
Q 1484 409 1925 409 
Q 2369 409 2586 884 
Q 2803 1359 2803 2328 
Q 2803 3300 2586 3775 
Q 2369 4250 1925 4250 
z
M 1925 4750 
Q 2672 4750 3055 4137 
Q 3438 3525 3438 2328 
Q 3438 1134 3055 521 
Q 2672 -91 1925 -91 
Q 1178 -91 797 521 
Q 416 1134 416 2328 
Q 416 3525 797 4137 
Q 1178 4750 1925 4750 
z
" transform="scale(0.015625)"/>
      <path id="DejaVuSansMono-31" d="M 844 531 
L 1825 531 
L 1825 4097 
L 769 3859 
L 769 4434 
L 1819 4666 
L 2450 4666 
L 2450 531 
L 3419 531 
L 3419 0 
L 844 0 
L 844 531 
z
" transform="scale(0.015625)"/>
      <path id="DejaVuSansMono-5d" d="M 2406 4863 
L 2406 -844 
L 1081 -844 
L 1081 -397 
L 1831 -397 
L 1831 4416 
L 1081 4416 
L 1081 4863 
L 2406 4863 
z
" transform="scale(0.015625)"/>
     </defs>
     <use xlink:href="#DejaVuSansMono-3c3"/>
     <use xlink:href="#DejaVuSansMono-20" transform="translate(60.205078 0)"/>
     <use xlink:href="#DejaVuSansMono-2192" transform="translate(120.410156 0)"/>
     <use xlink:href="#DejaVuSansMono-20" transform="translate(180.615234 0)"/>
     <use xlink:href="#DejaVuSansMono-5b" transform="translate(240.820312 0)"/>
     <use xlink:href="#DejaVuSansMono-30" transform="translate(301.025391 0)"/>
     <use xlink:href="#DejaVuSansMono-2c" transform="translate(361.230469 0)"/>
     <use xlink:href="#DejaVuSansMono-31" transform="translate(421.435547 0)"/>
     <use xlink:href="#DejaVuSansMono-5d" transform="translate(481.640625 0)"/>
    </g>
   </g>
   <g id="text_8">
    <!-- "Is there an object?" -->
    <g style="fill: #4a5568" transform="translate(430.35 205.036364) scale(0.09 -0.09)">
     <defs>
      <path id="DejaVuSans-22" d="M 1147 4666 
L 1147 2931 
L 616 2931 
L 616 4666 
L 1147 4666 
z
M 2328 4666 
L 2328 2931 
L 1797 2931 
L 1797 4666 
L 2328 4666 
z
" transform="scale(0.015625)"/>
      <path id="DejaVuSans-68" d="M 3513 2113 
L 3513 0 
L 2938 0 
L 2938 2094 
Q 2938 2591 2744 2837 
Q 2550 3084 2163 3084 
Q 1697 3084 1428 2787 
Q 1159 2491 1159 1978 
L 1159 0 
L 581 0 
L 581 4863 
L 1159 4863 
L 1159 2956 
Q 1366 3272 1645 3428 
Q 1925 3584 2291 3584 
Q 2894 3584 3203 3211 
Q 3513 2838 3513 2113 
z
" transform="scale(0.015625)"/>
      <path id="DejaVuSans-6a" d="M 603 3500 
L 1178 3500 
L 1178 -63 
Q 1178 -731 923 -1031 
Q 669 -1331 103 -1331 
L -116 -1331 
L -116 -844 
L 38 -844 
Q 366 -844 484 -692 
Q 603 -541 603 -63 
L 603 3500 
z
M 603 4863 
L 1178 4863 
L 1178 4134 
L 603 4134 
L 603 4863 
z
" transform="scale(0.015625)"/>
      <path id="DejaVuSans-3f" d="M 1222 794 
L 1856 794 
L 1856 0 
L 1222 0 
L 1222 794 
z
M 1838 1253 
L 1241 1253 
L 1241 1734 
Q 1241 2050 1328 2253 
Q 1416 2456 1697 2725 
L 1978 3003 
Q 2156 3169 2236 3316 
Q 2316 3463 2316 3616 
Q 2316 3894 2111 4066 
Q 1906 4238 1569 4238 
Q 1322 4238 1042 4128 
Q 763 4019 459 3809 
L 459 4397 
Q 753 4575 1054 4662 
Q 1356 4750 1678 4750 
Q 2253 4750 2601 4447 
Q 2950 4144 2950 3647 
Q 2950 3409 2837 3195 
Q 2725 2981 2444 2713 
L 2169 2444 
Q 2022 2297 1961 2214 
Q 1900 2131 1875 2053 
Q 1856 1988 1847 1894 
Q 1838 1800 1838 1638 
L 1838 1253 
z
" transform="scale(0.015625)"/>
     </defs>
     <use xlink:href="#DejaVuSans-22"/>
     <use xlink:href="#DejaVuSans-49" transform="translate(45.996094 0)"/>
     <use xlink:href="#DejaVuSans-73" transform="translate(75.488281 0)"/>
     <use xlink:href="#DejaVuSans-20" transform="translate(127.587891 0)"/>
     <use xlink:href="#DejaVuSans-74" transform="translate(159.375 0)"/>
     <use xlink:href="#DejaVuSans-68" transform="translate(198.583984 0)"/>
     <use xlink:href="#DejaVuSans-65" transform="translate(261.962891 0)"/>
     <use xlink:href="#DejaVuSans-72" transform="translate(323.486328 0)"/>
     <use xlink:href="#DejaVuSans-65" transform="translate(362.349609 0)"/>
     <use xlink:href="#DejaVuSans-20" transform="translate(423.873047 0)"/>
     <use xlink:href="#DejaVuSans-61" transform="translate(455.660156 0)"/>
     <use xlink:href="#DejaVuSans-6e" transform="translate(516.939453 0)"/>
     <use xlink:href="#DejaVuSans-20" transform="translate(580.318359 0)"/>
     <use xlink:href="#DejaVuSans-6f" transform="translate(612.105469 0)"/>
     <use xlink:href="#DejaVuSans-62" transform="translate(673.287109 0)"/>
     <use xlink:href="#DejaVuSans-6a" transform="translate(736.763672 0)"/>
     <use xlink:href="#DejaVuSans-65" transform="translate(764.546875 0)"/>
     <use xlink:href="#DejaVuSans-63" transform="translate(826.070312 0)"/>
     <use xlink:href="#DejaVuSans-74" transform="translate(881.050781 0)"/>
     <use xlink:href="#DejaVuSans-3f" transform="translate(920.259766 0)"/>
     <use xlink:href="#DejaVuSans-22" transform="translate(973.335938 0)"/>
    </g>
   </g>
   <g id="patch_31">
    <path d="M 393.752097 172.764991 
Q 402.871276 176.184683 410.420183 179.015523 
" style="fill: none; stroke: #2a9d8f; stroke-width: 1.5; stroke-linecap: round"/>
    <path d="M 407.377113 175.738371 
L 410.420183 179.015523 
L 405.972619 179.483688 
" style="fill: none; stroke: #2a9d8f; stroke-width: 1.5; stroke-linecap: round"/>
   </g>
   <g id="text_9">
    <!-- Class (Softmax) -->
    <g style="fill: #3b82f6" transform="translate(451.864986 249) scale(0.1 -0.1)">
     <defs>
      <path id="DejaVuSans-Bold-43" d="M 4288 256 
Q 3956 84 3597 -3 
Q 3238 -91 2847 -91 
Q 1681 -91 1000 561 
Q 319 1213 319 2328 
Q 319 3447 1000 4098 
Q 1681 4750 2847 4750 
Q 3238 4750 3597 4662 
Q 3956 4575 4288 4403 
L 4288 3438 
Q 3953 3666 3628 3772 
Q 3303 3878 2944 3878 
Q 2300 3878 1931 3465 
Q 1563 3053 1563 2328 
Q 1563 1606 1931 1193 
Q 2300 781 2944 781 
Q 3303 781 3628 887 
Q 3953 994 4288 1222 
L 4288 256 
z
" transform="scale(0.015625)"/>
      <path id="DejaVuSans-Bold-6c" d="M 538 4863 
L 1656 4863 
L 1656 0 
L 538 0 
L 538 4863 
z
" transform="scale(0.015625)"/>
      <path id="DejaVuSans-Bold-61" d="M 2106 1575 
Q 1756 1575 1579 1456 
Q 1403 1338 1403 1106 
Q 1403 894 1545 773 
Q 1688 653 1941 653 
Q 2256 653 2472 879 
Q 2688 1106 2688 1447 
L 2688 1575 
L 2106 1575 
z
M 3816 1997 
L 3816 0 
L 2688 0 
L 2688 519 
Q 2463 200 2181 54 
Q 1900 -91 1497 -91 
Q 953 -91 614 226 
Q 275 544 275 1050 
Q 275 1666 698 1953 
Q 1122 2241 2028 2241 
L 2688 2241 
L 2688 2328 
Q 2688 2594 2478 2717 
Q 2269 2841 1825 2841 
Q 1466 2841 1156 2769 
Q 847 2697 581 2553 
L 581 3406 
Q 941 3494 1303 3539 
Q 1666 3584 2028 3584 
Q 2975 3584 3395 3211 
Q 3816 2838 3816 1997 
z
" transform="scale(0.015625)"/>
      <path id="DejaVuSans-Bold-53" d="M 3834 4519 
L 3834 3531 
Q 3450 3703 3084 3790 
Q 2719 3878 2394 3878 
Q 1963 3878 1756 3759 
Q 1550 3641 1550 3391 
Q 1550 3203 1689 3098 
Q 1828 2994 2194 2919 
L 2706 2816 
Q 3484 2659 3812 2340 
Q 4141 2022 4141 1434 
Q 4141 663 3683 286 
Q 3225 -91 2284 -91 
Q 1841 -91 1394 -6 
Q 947 78 500 244 
L 500 1259 
Q 947 1022 1364 901 
Q 1781 781 2169 781 
Q 2563 781 2772 912 
Q 2981 1044 2981 1288 
Q 2981 1506 2839 1625 
Q 2697 1744 2272 1838 
L 1806 1941 
Q 1106 2091 782 2419 
Q 459 2747 459 3303 
Q 459 4000 909 4375 
Q 1359 4750 2203 4750 
Q 2588 4750 2994 4692 
Q 3400 4634 3834 4519 
z
" transform="scale(0.015625)"/>
      <path id="DejaVuSans-Bold-66" d="M 2841 4863 
L 2841 4128 
L 2222 4128 
Q 1984 4128 1890 4042 
Q 1797 3956 1797 3744 
L 1797 3500 
L 2753 3500 
L 2753 2700 
L 1797 2700 
L 1797 0 
L 678 0 
L 678 2700 
L 122 2700 
L 122 3500 
L 678 3500 
L 678 3744 
Q 678 4316 997 4589 
Q 1316 4863 1984 4863 
L 2841 4863 
z
" transform="scale(0.015625)"/>
      <path id="DejaVuSans-Bold-6d" d="M 3781 2919 
Q 3994 3244 4286 3414 
Q 4578 3584 4928 3584 
Q 5531 3584 5847 3212 
Q 6163 2841 6163 2131 
L 6163 0 
L 5038 0 
L 5038 1825 
Q 5041 1866 5042 1909 
Q 5044 1953 5044 2034 
Q 5044 2406 4934 2573 
Q 4825 2741 4581 2741 
Q 4263 2741 4089 2478 
Q 3916 2216 3909 1719 
L 3909 0 
L 2784 0 
L 2784 1825 
Q 2784 2406 2684 2573 
Q 2584 2741 2328 2741 
Q 2006 2741 1831 2477 
Q 1656 2213 1656 1722 
L 1656 0 
L 531 0 
L 531 3500 
L 1656 3500 
L 1656 2988 
Q 1863 3284 2130 3434 
Q 2397 3584 2719 3584 
Q 3081 3584 3359 3409 
Q 3638 3234 3781 2919 
z
" transform="scale(0.015625)"/>
     </defs>
     <use xlink:href="#DejaVuSans-Bold-43"/>
     <use xlink:href="#DejaVuSans-Bold-6c" transform="translate(73.388672 0)"/>
     <use xlink:href="#DejaVuSans-Bold-61" transform="translate(107.666016 0)"/>
     <use xlink:href="#DejaVuSans-Bold-73" transform="translate(175.146484 0)"/>
     <use xlink:href="#DejaVuSans-Bold-73" transform="translate(234.667969 0)"/>
     <use xlink:href="#DejaVuSans-Bold-20" transform="translate(294.189453 0)"/>
     <use xlink:href="#DejaVuSans-Bold-28" transform="translate(329.003906 0)"/>
     <use xlink:href="#DejaVuSans-Bold-53" transform="translate(374.707031 0)"/>
     <use xlink:href="#DejaVuSans-Bold-6f" transform="translate(446.728516 0)"/>
     <use xlink:href="#DejaVuSans-Bold-66" transform="translate(515.429688 0)"/>
     <use xlink:href="#DejaVuSans-Bold-74" transform="translate(558.935547 0)"/>
     <use xlink:href="#DejaVuSans-Bold-6d" transform="translate(606.738281 0)"/>
     <use xlink:href="#DejaVuSans-Bold-61" transform="translate(710.9375 0)"/>
     <use xlink:href="#DejaVuSans-Bold-78" transform="translate(778.417969 0)"/>
     <use xlink:href="#DejaVuSans-Bold-29" transform="translate(842.919922 0)"/>
    </g>
   </g>
   <g id="text_10">
    <!-- C probabilities -->
    <g style="fill: #2d3748" transform="translate(430.35 276.477273) scale(0.11 -0.11)">
     <defs>
      <path id="DejaVuSansMono-43" d="M 3353 166 
Q 3113 38 2859 -26 
Q 2606 -91 2322 -91 
Q 1425 -91 929 543 
Q 434 1178 434 2328 
Q 434 3472 932 4111 
Q 1431 4750 2322 4750 
Q 2606 4750 2859 4686 
Q 3113 4622 3353 4494 
L 3353 3847 
Q 3122 4038 2856 4138 
Q 2591 4238 2322 4238 
Q 1706 4238 1400 3763 
Q 1094 3288 1094 2328 
Q 1094 1372 1400 897 
Q 1706 422 2322 422 
Q 2597 422 2861 522 
Q 3125 622 3353 813 
L 3353 166 
z
" transform="scale(0.015625)"/>
      <path id="DejaVuSansMono-70" d="M 1172 441 
L 1172 -1331 
L 594 -1331 
L 594 3500 
L 1172 3500 
L 1172 3053 
Q 1316 3313 1555 3448 
Q 1794 3584 2106 3584 
Q 2741 3584 3102 3093 
Q 3463 2603 3463 1734 
Q 3463 881 3100 395 
Q 2738 -91 2106 -91 
Q 1788 -91 1548 45 
Q 1309 181 1172 441 
z
M 2859 1747 
Q 2859 2416 2648 2756 
Q 2438 3097 2022 3097 
Q 1603 3097 1387 2755 
Q 1172 2413 1172 1747 
Q 1172 1084 1387 740 
Q 1603 397 2022 397 
Q 2438 397 2648 737 
Q 2859 1078 2859 1747 
z
" transform="scale(0.015625)"/>
      <path id="DejaVuSansMono-72" d="M 3609 2778 
Q 3425 2922 3234 2987 
Q 3044 3053 2816 3053 
Q 2278 3053 1993 2715 
Q 1709 2378 1709 1741 
L 1709 0 
L 1131 0 
L 1131 3500 
L 1709 3500 
L 1709 2816 
Q 1853 3188 2151 3386 
Q 2450 3584 2859 3584 
Q 3072 3584 3256 3531 
Q 3441 3478 3609 3366 
L 3609 2778 
z
" transform="scale(0.015625)"/>
      <path id="DejaVuSansMono-6f" d="M 1925 3097 
Q 1488 3097 1263 2756 
Q 1038 2416 1038 1747 
Q 1038 1081 1263 739 
Q 1488 397 1925 397 
Q 2366 397 2591 739 
Q 2816 1081 2816 1747 
Q 2816 2416 2591 2756 
Q 2366 3097 1925 3097 
z
M 1925 3584 
Q 2653 3584 3039 3112 
Q 3425 2641 3425 1747 
Q 3425 850 3040 379 
Q 2656 -91 1925 -91 
Q 1197 -91 812 379 
Q 428 850 428 1747 
Q 428 2641 812 3112 
Q 1197 3584 1925 3584 
z
" transform="scale(0.015625)"/>
      <path id="DejaVuSansMono-62" d="M 2869 1747 
Q 2869 2416 2656 2756 
Q 2444 3097 2028 3097 
Q 1609 3097 1393 2755 
Q 1178 2413 1178 1747 
Q 1178 1084 1393 740 
Q 1609 397 2028 397 
Q 2444 397 2656 737 
Q 2869 1078 2869 1747 
z
M 1178 3053 
Q 1316 3309 1558 3446 
Q 1800 3584 2119 3584 
Q 2750 3584 3112 3098 
Q 3475 2613 3475 1759 
Q 3475 894 3111 401 
Q 2747 -91 2113 -91 
Q 1800 -91 1561 45 
Q 1322 181 1178 441 
L 1178 0 
L 603 0 
L 603 4863 
L 1178 4863 
L 1178 3053 
z
" transform="scale(0.015625)"/>
      <path id="DejaVuSansMono-61" d="M 2194 1759 
L 2003 1759 
Q 1500 1759 1245 1582 
Q 991 1406 991 1056 
Q 991 741 1181 566 
Q 1372 391 1709 391 
Q 2184 391 2456 720 
Q 2728 1050 2731 1631 
L 2731 1759 
L 2194 1759 
z
M 3309 1997 
L 3309 0 
L 2731 0 
L 2731 519 
Q 2547 206 2267 57 
Q 1988 -91 1588 -91 
Q 1053 -91 734 211 
Q 416 513 416 1019 
Q 416 1603 808 1906 
Q 1200 2209 1959 2209 
L 2731 2209 
L 2731 2300 
Q 2728 2719 2518 2908 
Q 2309 3097 1850 3097 
Q 1556 3097 1256 3012 
Q 956 2928 672 2766 
L 672 3341 
Q 991 3463 1283 3523 
Q 1575 3584 1850 3584 
Q 2284 3584 2592 3456 
Q 2900 3328 3091 3072 
Q 3209 2916 3259 2686 
Q 3309 2456 3309 1997 
z
" transform="scale(0.015625)"/>
      <path id="DejaVuSansMono-69" d="M 800 3500 
L 2272 3500 
L 2272 447 
L 3413 447 
L 3413 0 
L 556 0 
L 556 447 
L 1697 447 
L 1697 3053 
L 800 3053 
L 800 3500 
z
M 1697 4863 
L 2272 4863 
L 2272 4134 
L 1697 4134 
L 1697 4863 
z
" transform="scale(0.015625)"/>
      <path id="DejaVuSansMono-6c" d="M 1997 1269 
Q 1997 881 2139 684 
Q 2281 488 2559 488 
L 3231 488 
L 3231 0 
L 2503 0 
Q 1988 0 1705 331 
Q 1422 663 1422 1269 
L 1422 4447 
L 500 4447 
L 500 4897 
L 1997 4897 
L 1997 1269 
z
" transform="scale(0.015625)"/>
      <path id="DejaVuSansMono-74" d="M 1919 4494 
L 1919 3500 
L 3225 3500 
L 3225 3053 
L 1919 3053 
L 1919 1153 
Q 1919 766 2066 612 
Q 2213 459 2578 459 
L 3225 459 
L 3225 0 
L 2522 0 
Q 1875 0 1609 259 
Q 1344 519 1344 1153 
L 1344 3053 
L 409 3053 
L 409 3500 
L 1344 3500 
L 1344 4494 
L 1919 4494 
z
" transform="scale(0.015625)"/>
      <path id="DejaVuSansMono-65" d="M 3475 1894 
L 3475 1613 
L 984 1613 
L 984 1594 
Q 984 1022 1282 709 
Q 1581 397 2125 397 
Q 2400 397 2700 484 
Q 3000 572 3341 750 
L 3341 178 
Q 3013 44 2708 -23 
Q 2403 -91 2119 -91 
Q 1303 -91 843 398 
Q 384 888 384 1747 
Q 384 2584 834 3084 
Q 1284 3584 2034 3584 
Q 2703 3584 3089 3131 
Q 3475 2678 3475 1894 
z
M 2900 2063 
Q 2888 2569 2661 2833 
Q 2434 3097 2009 3097 
Q 1594 3097 1325 2822 
Q 1056 2547 1006 2059 
L 2900 2063 
z
" transform="scale(0.015625)"/>
      <path id="DejaVuSansMono-73" d="M 3041 3378 
L 3041 2816 
Q 2794 2959 2544 3031 
Q 2294 3103 2034 3103 
Q 1644 3103 1451 2976 
Q 1259 2850 1259 2591 
Q 1259 2356 1403 2240 
Q 1547 2125 2119 2016 
L 2350 1972 
Q 2778 1891 2998 1647 
Q 3219 1403 3219 1013 
Q 3219 494 2850 201 
Q 2481 -91 1825 -91 
Q 1566 -91 1281 -36 
Q 997 19 666 128 
L 666 722 
Q 988 556 1281 473 
Q 1575 391 1838 391 
Q 2219 391 2428 545 
Q 2638 700 2638 978 
Q 2638 1378 1872 1531 
L 1847 1538 
L 1631 1581 
Q 1134 1678 906 1908 
Q 678 2138 678 2534 
Q 678 3038 1018 3311 
Q 1359 3584 1991 3584 
Q 2272 3584 2531 3532 
Q 2791 3481 3041 3378 
z
" transform="scale(0.015625)"/>
     </defs>
     <use xlink:href="#DejaVuSansMono-43"/>
     <use xlink:href="#DejaVuSansMono-20" transform="translate(60.205078 0)"/>
     <use xlink:href="#DejaVuSansMono-70" transform="translate(120.410156 0)"/>
     <use xlink:href="#DejaVuSansMono-72" transform="translate(180.615234 0)"/>
     <use xlink:href="#DejaVuSansMono-6f" transform="translate(240.820312 0)"/>
     <use xlink:href="#DejaVuSansMono-62" transform="translate(301.025391 0)"/>
     <use xlink:href="#DejaVuSansMono-61" transform="translate(361.230469 0)"/>
     <use xlink:href="#DejaVuSansMono-62" transform="translate(421.435547 0)"/>
     <use xlink:href="#DejaVuSansMono-69" transform="translate(481.640625 0)"/>
     <use xlink:href="#DejaVuSansMono-6c" transform="translate(541.845703 0)"/>
     <use xlink:href="#DejaVuSansMono-69" transform="translate(602.050781 0)"/>
     <use xlink:href="#DejaVuSansMono-74" transform="translate(662.255859 0)"/>
     <use xlink:href="#DejaVuSansMono-69" transform="translate(722.460938 0)"/>
     <use xlink:href="#DejaVuSansMono-65" transform="translate(782.666016 0)"/>
     <use xlink:href="#DejaVuSansMono-73" transform="translate(842.871094 0)"/>
    </g>
   </g>
   <g id="text_11">
    <!--  = 1.0 -->
    <g style="fill: #4a5568" transform="translate(430.35 303.954545) scale(0.09 -0.09)">
     <defs>
      <path id="DejaVuSans-3a3" d="M 1353 531 
L 3634 531 
L 3634 0 
L 628 0 
L 628 531 
L 2125 2481 
L 628 4134 
L 628 4666 
L 3578 4666 
L 3578 4134 
L 1353 4134 
L 2850 2494 
L 1353 531 
z
" transform="scale(0.015625)"/>
      <path id="DejaVuSans-3d" d="M 678 2906 
L 4684 2906 
L 4684 2381 
L 678 2381 
L 678 2906 
z
M 678 1631 
L 4684 1631 
L 4684 1100 
L 678 1100 
L 678 1631 
z
" transform="scale(0.015625)"/>
      <path id="DejaVuSans-31" d="M 794 531 
L 1825 531 
L 1825 4091 
L 703 3866 
L 703 4441 
L 1819 4666 
L 2450 4666 
L 2450 531 
L 3481 531 
L 3481 0 
L 794 0 
L 794 531 
z
" transform="scale(0.015625)"/>
      <path id="DejaVuSans-2e" d="M 684 794 
L 1344 794 
L 1344 0 
L 684 0 
L 684 794 
z
" transform="scale(0.015625)"/>
      <path id="DejaVuSans-30" d="M 2034 4250 
Q 1547 4250 1301 3770 
Q 1056 3291 1056 2328 
Q 1056 1369 1301 889 
Q 1547 409 2034 409 
Q 2525 409 2770 889 
Q 3016 1369 3016 2328 
Q 3016 3291 2770 3770 
Q 2525 4250 2034 4250 
z
M 2034 4750 
Q 2819 4750 3233 4129 
Q 3647 3509 3647 2328 
Q 3647 1150 3233 529 
Q 2819 -91 2034 -91 
Q 1250 -91 836 529 
Q 422 1150 422 2328 
Q 422 3509 836 4129 
Q 1250 4750 2034 4750 
z
" transform="scale(0.015625)"/>
     </defs>
     <use xlink:href="#DejaVuSans-3a3"/>
     <use xlink:href="#DejaVuSans-20" transform="translate(63.183594 0)"/>
     <use xlink:href="#DejaVuSans-3d" transform="translate(94.970703 0)"/>
     <use xlink:href="#DejaVuSans-20" transform="translate(178.759766 0)"/>
     <use xlink:href="#DejaVuSans-31" transform="translate(210.546875 0)"/>
     <use xlink:href="#DejaVuSans-2e" transform="translate(274.169922 0)"/>
     <use xlink:href="#DejaVuSans-30" transform="translate(305.957031 0)"/>
    </g>
   </g>
   <g id="patch_32">
    <path d="M 393.880897 265.486364 
Q 402.874593 265.486364 410.191239 265.486364 
" style="fill: none; stroke: #3b82f6; stroke-width: 1.5; stroke-linecap: round"/>
    <path d="M 406.191239 263.486364 
L 410.191239 265.486364 
L 406.191239 267.486364 
" style="fill: none; stroke: #3b82f6; stroke-width: 1.5; stroke-linecap: round"/>
   </g>
   <g id="text_12">
    <!-- Combined Loss -->
    <g style="fill: #2d3748" transform="translate(613.212855 155.577273) scale(0.1 -0.1)">
     <defs>
      <path id="DejaVuSans-Bold-64" d="M 2919 2988 
L 2919 4863 
L 4044 4863 
L 4044 0 
L 2919 0 
L 2919 506 
Q 2688 197 2409 53 
Q 2131 -91 1766 -91 
Q 1119 -91 703 423 
Q 288 938 288 1747 
Q 288 2556 703 3070 
Q 1119 3584 1766 3584 
Q 2128 3584 2408 3439 
Q 2688 3294 2919 2988 
z
M 2181 722 
Q 2541 722 2730 984 
Q 2919 1247 2919 1747 
Q 2919 2247 2730 2509 
Q 2541 2772 2181 2772 
Q 1825 2772 1636 2509 
Q 1447 2247 1447 1747 
Q 1447 1247 1636 984 
Q 1825 722 2181 722 
z
" transform="scale(0.015625)"/>
      <path id="DejaVuSans-Bold-4c" d="M 588 4666 
L 1791 4666 
L 1791 909 
L 3903 909 
L 3903 0 
L 588 0 
L 588 4666 
z
" transform="scale(0.015625)"/>
     </defs>
     <use xlink:href="#DejaVuSans-Bold-43"/>
     <use xlink:href="#DejaVuSans-Bold-6f" transform="translate(73.388672 0)"/>
     <use xlink:href="#DejaVuSans-Bold-6d" transform="translate(142.089844 0)"/>
     <use xlink:href="#DejaVuSans-Bold-62" transform="translate(246.289062 0)"/>
     <use xlink:href="#DejaVuSans-Bold-69" transform="translate(317.871094 0)"/>
     <use xlink:href="#DejaVuSans-Bold-6e" transform="translate(352.148438 0)"/>
     <use xlink:href="#DejaVuSans-Bold-65" transform="translate(423.339844 0)"/>
     <use xlink:href="#DejaVuSans-Bold-64" transform="translate(491.162109 0)"/>
     <use xlink:href="#DejaVuSans-Bold-20" transform="translate(562.744141 0)"/>
     <use xlink:href="#DejaVuSans-Bold-4c" transform="translate(597.558594 0)"/>
     <use xlink:href="#DejaVuSans-Bold-6f" transform="translate(661.279297 0)"/>
     <use xlink:href="#DejaVuSans-Bold-73" transform="translate(729.980469 0)"/>
     <use xlink:href="#DejaVuSans-Bold-73" transform="translate(789.501953 0)"/>
    </g>
   </g>
   <g id="text_13">
    <!-- L = Lbox -->
    <g style="fill: #2d3748" transform="translate(631.417074 180.306818) scale(0.09 -0.09)">
     <defs>
      <path id="DejaVuSans-4c" d="M 628 4666 
L 1259 4666 
L 1259 531 
L 3531 531 
L 3531 0 
L 628 0 
L 628 4666 
z
" transform="scale(0.015625)"/>
      <path id="DejaVuSans-3bb" d="M 1981 4316 
L 3597 0 
L 2988 0 
L 2006 2588 
L 800 0 
L 191 0 
L 1725 3356 
L 1494 3975 
Q 1347 4369 1013 4369 
L 713 4369 
L 713 4863 
L 1078 4856 
Q 1784 4847 1981 4316 
z
" transform="scale(0.015625)"/>
      <path id="DejaVuSans-2081" d="M 488 319 
L 1125 319 
L 1125 2229 
L 428 2101 
L 428 2463 
L 1147 2585 
L 1575 2585 
L 1575 319 
L 2216 319 
L 2216 -24 
L 488 -24 
L 488 319 
z
" transform="scale(0.015625)"/>
      <path id="DejaVuSans-78" d="M 3513 3500 
L 2247 1797 
L 3578 0 
L 2900 0 
L 1881 1375 
L 863 0 
L 184 0 
L 1544 1831 
L 300 3500 
L 978 3500 
L 1906 2253 
L 2834 3500 
L 3513 3500 
z
" transform="scale(0.015625)"/>
     </defs>
     <use xlink:href="#DejaVuSans-4c"/>
     <use xlink:href="#DejaVuSans-20" transform="translate(55.712891 0)"/>
     <use xlink:href="#DejaVuSans-3d" transform="translate(87.5 0)"/>
     <use xlink:href="#DejaVuSans-20" transform="translate(171.289062 0)"/>
     <use xlink:href="#DejaVuSans-3bb" transform="translate(203.076172 0)"/>
     <use xlink:href="#DejaVuSans-2081" transform="translate(262.255859 0)"/>
     <use xlink:href="#DejaVuSans-4c" transform="translate(302.34375 0)"/>
     <use xlink:href="#DejaVuSans-62" transform="translate(358.056641 0)"/>
     <use xlink:href="#DejaVuSans-6f" transform="translate(421.533203 0)"/>
     <use xlink:href="#DejaVuSans-78" transform="translate(479.589844 0)"/>
    </g>
   </g>
   <g id="text_14">
    <!--   + Lobj -->
    <g style="fill: #2d3748" transform="translate(633.845668 196.793182) scale(0.09 -0.09)">
     <defs>
      <path id="DejaVuSans-2b" d="M 2944 4013 
L 2944 2272 
L 4684 2272 
L 4684 1741 
L 2944 1741 
L 2944 0 
L 2419 0 
L 2419 1741 
L 678 1741 
L 678 2272 
L 2419 2272 
L 2419 4013 
L 2944 4013 
z
" transform="scale(0.015625)"/>
      <path id="DejaVuSans-2082" d="M 838 332 
L 2163 332 
L 2163 -24 
L 294 -24 
L 294 319 
Q 400 416 597 591 
Q 1672 1544 1672 1838 
Q 1672 2044 1509 2170 
Q 1347 2297 1081 2297 
Q 919 2297 728 2242 
Q 538 2188 313 2079 
L 313 2463 
Q 553 2551 761 2594 
Q 969 2638 1147 2638 
Q 1600 2638 1872 2432 
Q 2144 2226 2144 1888 
Q 2144 1454 1109 566 
Q 934 416 838 332 
z
" transform="scale(0.015625)"/>
     </defs>
     <use xlink:href="#DejaVuSans-20"/>
     <use xlink:href="#DejaVuSans-20" transform="translate(31.787109 0)"/>
     <use xlink:href="#DejaVuSans-2b" transform="translate(63.574219 0)"/>
     <use xlink:href="#DejaVuSans-20" transform="translate(147.363281 0)"/>
     <use xlink:href="#DejaVuSans-3bb" transform="translate(179.150391 0)"/>
     <use xlink:href="#DejaVuSans-2082" transform="translate(238.330078 0)"/>
     <use xlink:href="#DejaVuSans-4c" transform="translate(278.417969 0)"/>
     <use xlink:href="#DejaVuSans-6f" transform="translate(332.380859 0)"/>
     <use xlink:href="#DejaVuSans-62" transform="translate(393.5625 0)"/>
     <use xlink:href="#DejaVuSans-6a" transform="translate(457.039062 0)"/>
    </g>
   </g>
   <g id="text_15">
    <!--   + Lcls -->
    <g style="fill: #2d3748" transform="translate(634.558636 213.279545) scale(0.09 -0.09)">
     <defs>
      <path id="DejaVuSans-2083" d="M 1638 1388 
Q 1925 1332 2083 1161 
Q 2241 991 2241 735 
Q 2241 347 1944 138 
Q 1647 -71 1094 -71 
Q 916 -71 720 -38 
Q 525 -6 306 57 
L 306 435 
Q 469 351 655 310 
Q 841 269 1050 269 
Q 1391 269 1578 392 
Q 1766 516 1766 735 
Q 1766 966 1592 1085 
Q 1419 1204 1081 1204 
L 813 1204 
L 813 1541 
L 1106 1541 
Q 1400 1541 1551 1639 
Q 1703 1738 1703 1926 
Q 1703 2107 1547 2202 
Q 1391 2297 1094 2297 
Q 969 2297 809 2269 
Q 650 2241 397 2169 
L 397 2529 
Q 625 2582 825 2610 
Q 1025 2638 1197 2638 
Q 1647 2638 1911 2453 
Q 2175 2269 2175 1960 
Q 2175 1744 2034 1594 
Q 1894 1444 1638 1388 
z
" transform="scale(0.015625)"/>
     </defs>
     <use xlink:href="#DejaVuSans-20"/>
     <use xlink:href="#DejaVuSans-20" transform="translate(31.787109 0)"/>
     <use xlink:href="#DejaVuSans-2b" transform="translate(63.574219 0)"/>
     <use xlink:href="#DejaVuSans-20" transform="translate(147.363281 0)"/>
     <use xlink:href="#DejaVuSans-3bb" transform="translate(179.150391 0)"/>
     <use xlink:href="#DejaVuSans-2083" transform="translate(238.330078 0)"/>
     <use xlink:href="#DejaVuSans-4c" transform="translate(278.417969 0)"/>
     <use xlink:href="#DejaVuSans-63" transform="translate(334.130859 0)"/>
     <use xlink:href="#DejaVuSans-6c" transform="translate(389.111328 0)"/>
     <use xlink:href="#DejaVuSans-73" transform="translate(416.894531 0)"/>
    </g>
   </g>
   <g id="patch_33">
    <path d="M 573.747688 91.56633 
Q 584.222885 130.848318 594.410006 169.050022 
" style="fill: none; stroke: #94a3b8; stroke-linecap: round"/>
    <path d="M 595.311825 164.669757 
L 594.410006 169.050022 
L 591.446885 165.700408 
" style="fill: none; stroke: #94a3b8; stroke-linecap: round"/>
   </g>
   <g id="patch_34">
    <path d="M 575.102097 179.605463 
Q 584.221276 176.185771 592.293607 173.158647 
" style="fill: none; stroke: #94a3b8; stroke-linecap: round"/>
    <path d="M 587.846043 172.690483 
L 592.293607 173.158647 
L 589.250537 176.4358 
" style="fill: none; stroke: #94a3b8; stroke-linecap: round"/>
   </g>
   <g id="patch_35">
    <path d="M 573.64438 274.517605 
Q 584.223308 224.267698 594.571909 175.111843 
" style="fill: none; stroke: #94a3b8; stroke-linecap: round"/>
    <path d="M 591.790767 178.614021 
L 594.571909 175.111843 
L 595.704966 179.438063 
" style="fill: none; stroke: #94a3b8; stroke-linecap: round"/>
   </g>
  </g>
 </g>
 <defs>
  <clipPath id="p791729e090">
   <rect x="7.2" y="7.2" width="725.4" height="340.718182"/>
  </clipPath>
 </defs>
</svg>
