<?xml version="1.0" encoding="utf-8" standalone="no"?>
<!DOCTYPE svg PUBLIC "-//W3C//DTD SVG 1.1//EN"
  "http://www.w3.org/Graphics/SVG/1.1/DTD/svg11.dtd">
<svg xmlns:xlink="http://www.w3.org/1999/xlink" width="628.2pt" height="282.24pt" viewBox="0 0 628.2 282.24" xmlns="http://www.w3.org/2000/svg" version="1.1">
 <metadata>
  <rdf:RDF xmlns:dc="http://purl.org/dc/elements/1.1/" xmlns:cc="http://creativecommons.org/ns#" xmlns:rdf="http://www.w3.org/1999/02/22-rdf-syntax-ns#">
   <cc:Work>
    <dc:type rdf:resource="http://purl.org/dc/dcmitype/StillImage"/>
    <dc:date>2025-12-29T10:35:11.053404</dc:date>
    <dc:format>image/svg+xml</dc:format>
    <dc:creator>
     <cc:Agent>
      <dc:title>Matplotlib v3.10.1, https://matplotlib.org/</dc:title>
     </cc:Agent>
    </dc:creator>
   </cc:Work>
  </rdf:RDF>
 </metadata>
 <defs>
  <style type="text/css">*{stroke-linejoin: round; stroke-linecap: butt}</style>
 </defs>
 <g id="figure_1">
  <g id="patch_1">
   <path d="M 0 282.24 
L 628.2 282.24 
L 628.2 0 
L 0 0 
z
" style="fill: #ffffff"/>
  </g>
  <g id="axes_1">
   <g id="patch_2">
    <path d="M 63 208.08 
C 66.699583 208.08 70.248139 206.61014 72.86414 203.99414 
C 75.48014 201.378139 76.95 197.829583 76.95 194.13 
C 76.95 190.430417 75.48014 186.881861 72.86414 184.26586 
C 70.248139 181.64986 66.699583 180.18 63 180.18 
C 59.300417 180.18 55.751861 181.64986 53.13586 184.26586 
C 50.51986 186.881861 49.05 190.430417 49.05 194.13 
C 49.05 197.829583 50.51986 201.378139 53.13586 203.99414 
C 55.751861 206.61014 59.300417 208.08 63 208.08 
z
" clip-path="url(#pb92a1fc38a)" style="fill: #e2e8f0; stroke: #2d3748; stroke-width: 1.5; stroke-linejoin: miter"/>
   </g>
   <g id="patch_3">
    <path d="M 63 169.02 
C 66.699583 169.02 70.248139 167.55014 72.86414 164.93414 
C 75.48014 162.318139 76.95 158.769583 76.95 155.07 
C 76.95 151.370417 75.48014 147.821861 72.86414 145.20586 
C 70.248139 142.58986 66.699583 141.12 63 141.12 
C 59.300417 141.12 55.751861 142.58986 53.13586 145.20586 
C 50.51986 147.821861 49.05 151.370417 49.05 155.07 
C 49.05 158.769583 50.51986 162.318139 53.13586 164.93414 
C 55.751861 167.55014 59.300417 169.02 63 169.02 
z
" clip-path="url(#pb92a1fc38a)" style="fill: #e2e8f0; stroke: #2d3748; stroke-width: 1.5; stroke-linejoin: miter"/>
   </g>
   <g id="patch_4">
    <path d="M 63 129.96 
C 66.699583 129.96 70.248139 128.49014 72.86414 125.87414 
C 75.48014 123.258139 76.95 119.709583 76.95 116.01 
C 76.95 112.310417 75.48014 108.761861 72.86414 106.14586 
C 70.248139 103.52986 66.699583 102.06 63 102.06 
C 59.300417 102.06 55.751861 103.52986 53.13586 106.14586 
C 50.51986 108.761861 49.05 112.310417 49.05 116.01 
C 49.05 119.709583 50.51986 123.258139 53.13586 125.87414 
C 55.751861 128.49014 59.300417 129.96 63 129.96 
z
" clip-path="url(#pb92a1fc38a)" style="fill: #e2e8f0; stroke: #2d3748; stroke-width: 1.5; stroke-linejoin: miter"/>
   </g>
   <g id="patch_5">
    <path d="M 63 90.9 
C 66.699583 90.9 70.248139 89.43014 72.86414 86.81414 
C 75.48014 84.198139 76.95 80.649583 76.95 76.95 
C 76.95 73.250417 75.48014 69.701861 72.86414 67.08586 
C 70.248139 64.46986 66.699583 63 63 63 
C 59.300417 63 55.751861 64.46986 53.13586 67.08586 
C 50.51986 69.701861 49.05 73.250417 49.05 76.95 
C 49.05 80.649583 50.51986 84.198139 53.13586 86.81414 
C 55.751861 89.43014 59.300417 90.9 63 90.9 
z
" clip-path="url(#pb92a1fc38a)" style="fill: #e2e8f0; stroke: #2d3748; stroke-width: 1.5; stroke-linejoin: miter"/>
   </g>
   <g id="patch_6">
    <path d="M 174.6 227.61 
C 178.299583 227.61 181.848139 226.14014 184.46414 223.52414 
C 187.08014 220.908139 188.55 217.359583 188.55 213.66 
C 188.55 209.960417 187.08014 206.411861 184.46414 203.79586 
C 181.848139 201.17986 178.299583 199.71 174.6 199.71 
C 170.900417 199.71 167.351861 201.17986 164.73586 203.79586 
C 162.11986 206.411861 160.65 209.960417 160.65 213.66 
C 160.65 217.359583 162.11986 220.908139 164.73586 223.52414 
C 167.351861 226.14014 170.900417 227.61 174.6 227.61 
z
" clip-path="url(#pb92a1fc38a)" style="fill: #2e5a8f; stroke: #2d3748; stroke-width: 1.5; stroke-linejoin: miter"/>
   </g>
   <g id="patch_7">
    <path d="M 174.6 188.55 
C 178.299583 188.55 181.848139 187.08014 184.46414 184.46414 
C 187.08014 181.848139 188.55 178.299583 188.55 174.6 
C 188.55 170.900417 187.08014 167.351861 184.46414 164.73586 
C 181.848139 162.11986 178.299583 160.65 174.6 160.65 
C 170.900417 160.65 167.351861 162.11986 164.73586 164.73586 
C 162.11986 167.351861 160.65 170.900417 160.65 174.6 
C 160.65 178.299583 162.11986 181.848139 164.73586 184.46414 
C 167.351861 187.08014 170.900417 188.55 174.6 188.55 
z
" clip-path="url(#pb92a1fc38a)" style="fill: #2e5a8f; stroke: #2d3748; stroke-width: 1.5; stroke-linejoin: miter"/>
   </g>
   <g id="patch_8">
    <path d="M 174.6 149.49 
C 178.299583 149.49 181.848139 148.02014 184.46414 145.40414 
C 187.08014 142.788139 188.55 139.239583 188.55 135.54 
C 188.55 131.840417 187.08014 128.291861 184.46414 125.67586 
C 181.848139 123.05986 178.299583 121.59 174.6 121.59 
C 170.900417 121.59 167.351861 123.05986 164.73586 125.67586 
C 162.11986 128.291861 160.65 131.840417 160.65 135.54 
C 160.65 139.239583 162.11986 142.788139 164.73586 145.40414 
C 167.351861 148.02014 170.900417 149.49 174.6 149.49 
z
" clip-path="url(#pb92a1fc38a)" style="fill: #2e5a8f; stroke: #2d3748; stroke-width: 1.5; stroke-linejoin: miter"/>
   </g>
   <g id="patch_9">
    <path d="M 174.6 110.43 
C 178.299583 110.43 181.848139 108.96014 184.46414 106.34414 
C 187.08014 103.728139 188.55 100.179583 188.55 96.48 
C 188.55 92.780417 187.08014 89.231861 184.46414 86.61586 
C 181.848139 83.99986 178.299583 82.53 174.6 82.53 
C 170.900417 82.53 167.351861 83.99986 164.73586 86.61586 
C 162.11986 89.231861 160.65 92.780417 160.65 96.48 
C 160.65 100.179583 162.11986 103.728139 164.73586 106.34414 
C 167.351861 108.96014 170.900417 110.43 174.6 110.43 
z
" clip-path="url(#pb92a1fc38a)" style="fill: #2e5a8f; stroke: #2d3748; stroke-width: 1.5; stroke-linejoin: miter"/>
   </g>
   <g id="patch_10">
    <path d="M 174.6 71.37 
C 178.299583 71.37 181.848139 69.90014 184.46414 67.28414 
C 187.08014 64.668139 188.55 61.119583 188.55 57.42 
C 188.55 53.720417 187.08014 50.171861 184.46414 47.55586 
C 181.848139 44.93986 178.299583 43.47 174.6 43.47 
C 170.900417 43.47 167.351861 44.93986 164.73586 47.55586 
C 162.11986 50.171861 160.65 53.720417 160.65 57.42 
C 160.65 61.119583 162.11986 64.668139 164.73586 67.28414 
C 167.351861 69.90014 170.900417 71.37 174.6 71.37 
z
" clip-path="url(#pb92a1fc38a)" style="fill: #2e5a8f; stroke: #2d3748; stroke-width: 1.5; stroke-linejoin: miter"/>
   </g>
   <g id="patch_11">
    <path d="M 286.2 227.61 
C 289.899583 227.61 293.448139 226.14014 296.06414 223.52414 
C 298.68014 220.908139 300.15 217.359583 300.15 213.66 
C 300.15 209.960417 298.68014 206.411861 296.06414 203.79586 
C 293.448139 201.17986 289.899583 199.71 286.2 199.71 
C 282.500417 199.71 278.951861 201.17986 276.33586 203.79586 
C 273.71986 206.411861 272.25 209.960417 272.25 213.66 
C 272.25 217.359583 273.71986 220.908139 276.33586 223.52414 
C 278.951861 226.14014 282.500417 227.61 286.2 227.61 
z
" clip-path="url(#pb92a1fc38a)" style="fill: #2e5a8f; stroke: #2d3748; stroke-width: 1.5; stroke-linejoin: miter"/>
   </g>
   <g id="patch_12">
    <path d="M 286.2 188.55 
C 289.899583 188.55 293.448139 187.08014 296.06414 184.46414 
C 298.68014 181.848139 300.15 178.299583 300.15 174.6 
C 300.15 170.900417 298.68014 167.351861 296.06414 164.73586 
C 293.448139 162.11986 289.899583 160.65 286.2 160.65 
C 282.500417 160.65 278.951861 162.11986 276.33586 164.73586 
C 273.71986 167.351861 272.25 170.900417 272.25 174.6 
C 272.25 178.299583 273.71986 181.848139 276.33586 184.46414 
C 278.951861 187.08014 282.500417 188.55 286.2 188.55 
z
" clip-path="url(#pb92a1fc38a)" style="fill: #2e5a8f; stroke: #2d3748; stroke-width: 1.5; stroke-linejoin: miter"/>
   </g>
   <g id="patch_13">
    <path d="M 286.2 149.49 
C 289.899583 149.49 293.448139 148.02014 296.06414 145.40414 
C 298.68014 142.788139 300.15 139.239583 300.15 135.54 
C 300.15 131.840417 298.68014 128.291861 296.06414 125.67586 
C 293.448139 123.05986 289.899583 121.59 286.2 121.59 
C 282.500417 121.59 278.951861 123.05986 276.33586 125.67586 
C 273.71986 128.291861 272.25 131.840417 272.25 135.54 
C 272.25 139.239583 273.71986 142.788139 276.33586 145.40414 
C 278.951861 148.02014 282.500417 149.49 286.2 149.49 
z
" clip-path="url(#pb92a1fc38a)" style="fill: #2e5a8f; stroke: #2d3748; stroke-width: 1.5; stroke-linejoin: miter"/>
   </g>
   <g id="patch_14">
    <path d="M 286.2 110.43 
C 289.899583 110.43 293.448139 108.96014 296.06414 106.34414 
C 298.68014 103.728139 300.15 100.179583 300.15 96.48 
C 300.15 92.780417 298.68014 89.231861 296.06414 86.61586 
C 293.448139 83.99986 289.899583 82.53 286.2 82.53 
C 282.500417 82.53 278.951861 83.99986 276.33586 86.61586 
C 273.71986 89.231861 272.25 92.780417 272.25 96.48 
C 272.25 100.179583 273.71986 103.728139 276.33586 106.34414 
C 278.951861 108.96014 282.500417 110.43 286.2 110.43 
z
" clip-path="url(#pb92a1fc38a)" style="fill: #2e5a8f; stroke: #2d3748; stroke-width: 1.5; stroke-linejoin: miter"/>
   </g>
   <g id="patch_15">
    <path d="M 286.2 71.37 
C 289.899583 71.37 293.448139 69.90014 296.06414 67.28414 
C 298.68014 64.668139 300.15 61.119583 300.15 57.42 
C 300.15 53.720417 298.68014 50.171861 296.06414 47.55586 
C 293.448139 44.93986 289.899583 43.47 286.2 43.47 
C 282.500417 43.47 278.951861 44.93986 276.33586 47.55586 
C 273.71986 50.171861 272.25 53.720417 272.25 57.42 
C 272.25 61.119583 273.71986 64.668139 276.33586 67.28414 
C 278.951861 69.90014 282.500417 71.37 286.2 71.37 
z
" clip-path="url(#pb92a1fc38a)" style="fill: #2e5a8f; stroke: #2d3748; stroke-width: 1.5; stroke-linejoin: miter"/>
   </g>
   <g id="patch_16">
    <path d="M 397.8 155.07 
C 402.979417 155.07 407.947395 153.012196 411.609795 149.349795 
C 415.272196 145.687395 417.33 140.719417 417.33 135.54 
C 417.33 130.360583 415.272196 125.392605 411.609795 121.730205 
C 407.947395 118.067804 402.979417 116.01 397.8 116.01 
C 392.620583 116.01 387.652605 118.067804 383.990205 121.730205 
C 380.327804 125.392605 378.27 130.360583 378.27 135.54 
C 378.27 140.719417 380.327804 145.687395 383.990205 149.349795 
C 387.652605 153.012196 392.620583 155.07 397.8 155.07 
z
" clip-path="url(#pb92a1fc38a)" style="fill: #2a9d8f; stroke: #2d3748; stroke-width: 1.5; stroke-linejoin: miter"/>
   </g>
   <g id="patch_17">
    <path d="M 492.66 180.18 
L 604.26 180.18 
Q 609.84 180.18 609.84 174.6 
L 609.84 96.48 
Q 609.84 90.9 604.26 90.9 
L 492.66 90.9 
Q 487.08 90.9 487.08 96.48 
L 487.08 174.6 
Q 487.08 180.18 492.66 180.18 
z
" clip-path="url(#pb92a1fc38a)" style="fill: #f7fafc; stroke: #1e3a5f; stroke-width: 1.5; stroke-linejoin: miter"/>
   </g>
   <g id="line2d_1">
    <path d="M 63 194.13 
L 174.6 213.66 
" clip-path="url(#pb92a1fc38a)" style="fill: none; stroke: #94a3b8; stroke-opacity: 0.3; stroke-width: 0.8; stroke-linecap: square"/>
   </g>
   <g id="line2d_2">
    <path d="M 63 194.13 
L 174.6 174.6 
" clip-path="url(#pb92a1fc38a)" style="fill: none; stroke: #94a3b8; stroke-opacity: 0.3; stroke-width: 0.8; stroke-linecap: square"/>
   </g>
   <g id="line2d_3">
    <path d="M 63 194.13 
L 174.6 135.54 
" clip-path="url(#pb92a1fc38a)" style="fill: none; stroke: #94a3b8; stroke-opacity: 0.3; stroke-width: 0.8; stroke-linecap: square"/>
   </g>
   <g id="line2d_4">
    <path d="M 63 194.13 
L 174.6 96.48 
" clip-path="url(#pb92a1fc38a)" style="fill: none; stroke: #94a3b8; stroke-opacity: 0.3; stroke-width: 0.8; stroke-linecap: square"/>
   </g>
   <g id="line2d_5">
    <path d="M 63 194.13 
L 174.6 57.42 
" clip-path="url(#pb92a1fc38a)" style="fill: none; stroke: #94a3b8; stroke-opacity: 0.3; stroke-width: 0.8; stroke-linecap: square"/>
   </g>
   <g id="line2d_6">
    <path d="M 63 155.07 
L 174.6 213.66 
" clip-path="url(#pb92a1fc38a)" style="fill: none; stroke: #94a3b8; stroke-opacity: 0.3; stroke-width: 0.8; stroke-linecap: square"/>
   </g>
   <g id="line2d_7">
    <path d="M 63 155.07 
L 174.6 174.6 
" clip-path="url(#pb92a1fc38a)" style="fill: none; stroke: #94a3b8; stroke-opacity: 0.3; stroke-width: 0.8; stroke-linecap: square"/>
   </g>
   <g id="line2d_8">
    <path d="M 63 155.07 
L 174.6 135.54 
" clip-path="url(#pb92a1fc38a)" style="fill: none; stroke: #94a3b8; stroke-opacity: 0.3; stroke-width: 0.8; stroke-linecap: square"/>
   </g>
   <g id="line2d_9">
    <path d="M 63 155.07 
L 174.6 96.48 
" clip-path="url(#pb92a1fc38a)" style="fill: none; stroke: #94a3b8; stroke-opacity: 0.3; stroke-width: 0.8; stroke-linecap: square"/>
   </g>
   <g id="line2d_10">
    <path d="M 63 155.07 
L 174.6 57.42 
" clip-path="url(#pb92a1fc38a)" style="fill: none; stroke: #94a3b8; stroke-opacity: 0.3; stroke-width: 0.8; stroke-linecap: square"/>
   </g>
   <g id="line2d_11">
    <path d="M 63 116.01 
L 174.6 213.66 
" clip-path="url(#pb92a1fc38a)" style="fill: none; stroke: #94a3b8; stroke-opacity: 0.3; stroke-width: 0.8; stroke-linecap: square"/>
   </g>
   <g id="line2d_12">
    <path d="M 63 116.01 
L 174.6 174.6 
" clip-path="url(#pb92a1fc38a)" style="fill: none; stroke: #94a3b8; stroke-opacity: 0.3; stroke-width: 0.8; stroke-linecap: square"/>
   </g>
   <g id="line2d_13">
    <path d="M 63 116.01 
L 174.6 135.54 
" clip-path="url(#pb92a1fc38a)" style="fill: none; stroke: #94a3b8; stroke-opacity: 0.3; stroke-width: 0.8; stroke-linecap: square"/>
   </g>
   <g id="line2d_14">
    <path d="M 63 116.01 
L 174.6 96.48 
" clip-path="url(#pb92a1fc38a)" style="fill: none; stroke: #94a3b8; stroke-opacity: 0.3; stroke-width: 0.8; stroke-linecap: square"/>
   </g>
   <g id="line2d_15">
    <path d="M 63 116.01 
L 174.6 57.42 
" clip-path="url(#pb92a1fc38a)" style="fill: none; stroke: #94a3b8; stroke-opacity: 0.3; stroke-width: 0.8; stroke-linecap: square"/>
   </g>
   <g id="line2d_16">
    <path d="M 63 76.95 
L 174.6 213.66 
" clip-path="url(#pb92a1fc38a)" style="fill: none; stroke: #94a3b8; stroke-opacity: 0.3; stroke-width: 0.8; stroke-linecap: square"/>
   </g>
   <g id="line2d_17">
    <path d="M 63 76.95 
L 174.6 174.6 
" clip-path="url(#pb92a1fc38a)" style="fill: none; stroke: #94a3b8; stroke-opacity: 0.3; stroke-width: 0.8; stroke-linecap: square"/>
   </g>
   <g id="line2d_18">
    <path d="M 63 76.95 
L 174.6 135.54 
" clip-path="url(#pb92a1fc38a)" style="fill: none; stroke: #94a3b8; stroke-opacity: 0.3; stroke-width: 0.8; stroke-linecap: square"/>
   </g>
   <g id="line2d_19">
    <path d="M 63 76.95 
L 174.6 96.48 
" clip-path="url(#pb92a1fc38a)" style="fill: none; stroke: #94a3b8; stroke-opacity: 0.3; stroke-width: 0.8; stroke-linecap: square"/>
   </g>
   <g id="line2d_20">
    <path d="M 63 76.95 
L 174.6 57.42 
" clip-path="url(#pb92a1fc38a)" style="fill: none; stroke: #94a3b8; stroke-opacity: 0.3; stroke-width: 0.8; stroke-linecap: square"/>
   </g>
   <g id="line2d_21">
    <path d="M 174.6 213.66 
L 286.2 213.66 
" clip-path="url(#pb92a1fc38a)" style="fill: none; stroke: #94a3b8; stroke-opacity: 0.3; stroke-width: 0.8; stroke-linecap: square"/>
   </g>
   <g id="line2d_22">
    <path d="M 174.6 213.66 
L 286.2 174.6 
" clip-path="url(#pb92a1fc38a)" style="fill: none; stroke: #94a3b8; stroke-opacity: 0.3; stroke-width: 0.8; stroke-linecap: square"/>
   </g>
   <g id="line2d_23">
    <path d="M 174.6 213.66 
L 286.2 135.54 
" clip-path="url(#pb92a1fc38a)" style="fill: none; stroke: #94a3b8; stroke-opacity: 0.3; stroke-width: 0.8; stroke-linecap: square"/>
   </g>
   <g id="line2d_24">
    <path d="M 174.6 213.66 
L 286.2 96.48 
" clip-path="url(#pb92a1fc38a)" style="fill: none; stroke: #94a3b8; stroke-opacity: 0.3; stroke-width: 0.8; stroke-linecap: square"/>
   </g>
   <g id="line2d_25">
    <path d="M 174.6 213.66 
L 286.2 57.42 
" clip-path="url(#pb92a1fc38a)" style="fill: none; stroke: #94a3b8; stroke-opacity: 0.3; stroke-width: 0.8; stroke-linecap: square"/>
   </g>
   <g id="line2d_26">
    <path d="M 174.6 174.6 
L 286.2 213.66 
" clip-path="url(#pb92a1fc38a)" style="fill: none; stroke: #94a3b8; stroke-opacity: 0.3; stroke-width: 0.8; stroke-linecap: square"/>
   </g>
   <g id="line2d_27">
    <path d="M 174.6 174.6 
L 286.2 174.6 
" clip-path="url(#pb92a1fc38a)" style="fill: none; stroke: #94a3b8; stroke-opacity: 0.3; stroke-width: 0.8; stroke-linecap: square"/>
   </g>
   <g id="line2d_28">
    <path d="M 174.6 174.6 
L 286.2 135.54 
" clip-path="url(#pb92a1fc38a)" style="fill: none; stroke: #94a3b8; stroke-opacity: 0.3; stroke-width: 0.8; stroke-linecap: square"/>
   </g>
   <g id="line2d_29">
    <path d="M 174.6 174.6 
L 286.2 96.48 
" clip-path="url(#pb92a1fc38a)" style="fill: none; stroke: #94a3b8; stroke-opacity: 0.3; stroke-width: 0.8; stroke-linecap: square"/>
   </g>
   <g id="line2d_30">
    <path d="M 174.6 174.6 
L 286.2 57.42 
" clip-path="url(#pb92a1fc38a)" style="fill: none; stroke: #94a3b8; stroke-opacity: 0.3; stroke-width: 0.8; stroke-linecap: square"/>
   </g>
   <g id="line2d_31">
    <path d="M 174.6 135.54 
L 286.2 213.66 
" clip-path="url(#pb92a1fc38a)" style="fill: none; stroke: #94a3b8; stroke-opacity: 0.3; stroke-width: 0.8; stroke-linecap: square"/>
   </g>
   <g id="line2d_32">
    <path d="M 174.6 135.54 
L 286.2 174.6 
" clip-path="url(#pb92a1fc38a)" style="fill: none; stroke: #94a3b8; stroke-opacity: 0.3; stroke-width: 0.8; stroke-linecap: square"/>
   </g>
   <g id="line2d_33">
    <path d="M 174.6 135.54 
L 286.2 135.54 
" clip-path="url(#pb92a1fc38a)" style="fill: none; stroke: #94a3b8; stroke-opacity: 0.3; stroke-width: 0.8; stroke-linecap: square"/>
   </g>
   <g id="line2d_34">
    <path d="M 174.6 135.54 
L 286.2 96.48 
" clip-path="url(#pb92a1fc38a)" style="fill: none; stroke: #94a3b8; stroke-opacity: 0.3; stroke-width: 0.8; stroke-linecap: square"/>
   </g>
   <g id="line2d_35">
    <path d="M 174.6 135.54 
L 286.2 57.42 
" clip-path="url(#pb92a1fc38a)" style="fill: none; stroke: #94a3b8; stroke-opacity: 0.3; stroke-width: 0.8; stroke-linecap: square"/>
   </g>
   <g id="line2d_36">
    <path d="M 174.6 96.48 
L 286.2 213.66 
" clip-path="url(#pb92a1fc38a)" style="fill: none; stroke: #94a3b8; stroke-opacity: 0.3; stroke-width: 0.8; stroke-linecap: square"/>
   </g>
   <g id="line2d_37">
    <path d="M 174.6 96.48 
L 286.2 174.6 
" clip-path="url(#pb92a1fc38a)" style="fill: none; stroke: #94a3b8; stroke-opacity: 0.3; stroke-width: 0.8; stroke-linecap: square"/>
   </g>
   <g id="line2d_38">
    <path d="M 174.6 96.48 
L 286.2 135.54 
" clip-path="url(#pb92a1fc38a)" style="fill: none; stroke: #94a3b8; stroke-opacity: 0.3; stroke-width: 0.8; stroke-linecap: square"/>
   </g>
   <g id="line2d_39">
    <path d="M 174.6 96.48 
L 286.2 96.48 
" clip-path="url(#pb92a1fc38a)" style="fill: none; stroke: #94a3b8; stroke-opacity: 0.3; stroke-width: 0.8; stroke-linecap: square"/>
   </g>
   <g id="line2d_40">
    <path d="M 174.6 96.48 
L 286.2 57.42 
" clip-path="url(#pb92a1fc38a)" style="fill: none; stroke: #94a3b8; stroke-opacity: 0.3; stroke-width: 0.8; stroke-linecap: square"/>
   </g>
   <g id="line2d_41">
    <path d="M 174.6 57.42 
L 286.2 213.66 
" clip-path="url(#pb92a1fc38a)" style="fill: none; stroke: #94a3b8; stroke-opacity: 0.3; stroke-width: 0.8; stroke-linecap: square"/>
   </g>
   <g id="line2d_42">
    <path d="M 174.6 57.42 
L 286.2 174.6 
" clip-path="url(#pb92a1fc38a)" style="fill: none; stroke: #94a3b8; stroke-opacity: 0.3; stroke-width: 0.8; stroke-linecap: square"/>
   </g>
   <g id="line2d_43">
    <path d="M 174.6 57.42 
L 286.2 135.54 
" clip-path="url(#pb92a1fc38a)" style="fill: none; stroke: #94a3b8; stroke-opacity: 0.3; stroke-width: 0.8; stroke-linecap: square"/>
   </g>
   <g id="line2d_44">
    <path d="M 174.6 57.42 
L 286.2 96.48 
" clip-path="url(#pb92a1fc38a)" style="fill: none; stroke: #94a3b8; stroke-opacity: 0.3; stroke-width: 0.8; stroke-linecap: square"/>
   </g>
   <g id="line2d_45">
    <path d="M 174.6 57.42 
L 286.2 57.42 
" clip-path="url(#pb92a1fc38a)" style="fill: none; stroke: #94a3b8; stroke-opacity: 0.3; stroke-width: 0.8; stroke-linecap: square"/>
   </g>
   <g id="line2d_46">
    <path d="M 286.2 213.66 
L 397.8 135.54 
" clip-path="url(#pb92a1fc38a)" style="fill: none; stroke: #94a3b8; stroke-opacity: 0.3; stroke-width: 0.8; stroke-linecap: square"/>
   </g>
   <g id="line2d_47">
    <path d="M 286.2 174.6 
L 397.8 135.54 
" clip-path="url(#pb92a1fc38a)" style="fill: none; stroke: #94a3b8; stroke-opacity: 0.3; stroke-width: 0.8; stroke-linecap: square"/>
   </g>
   <g id="line2d_48">
    <path d="M 286.2 135.54 
L 397.8 135.54 
" clip-path="url(#pb92a1fc38a)" style="fill: none; stroke: #94a3b8; stroke-opacity: 0.3; stroke-width: 0.8; stroke-linecap: square"/>
   </g>
   <g id="line2d_49">
    <path d="M 286.2 96.48 
L 397.8 135.54 
" clip-path="url(#pb92a1fc38a)" style="fill: none; stroke: #94a3b8; stroke-opacity: 0.3; stroke-width: 0.8; stroke-linecap: square"/>
   </g>
   <g id="line2d_50">
    <path d="M 286.2 57.42 
L 397.8 135.54 
" clip-path="url(#pb92a1fc38a)" style="fill: none; stroke: #94a3b8; stroke-opacity: 0.3; stroke-width: 0.8; stroke-linecap: square"/>
   </g>
   <g id="text_1">
    <!-- Input -->
    <g style="fill: #4a5568" transform="translate(50.053125 32.272187) scale(0.1 -0.1)">
     <defs>
      <path id="DejaVuSans-49" d="M 628 4666 
L 1259 4666 
L 1259 0 
L 628 0 
L 628 4666 
z
" transform="scale(0.015625)"/>
      <path id="DejaVuSans-6e" d="M 3513 2113 
L 3513 0 
L 2938 0 
L 2938 2094 
Q 2938 2591 2744 2837 
Q 2550 3084 2163 3084 
Q 1697 3084 1428 2787 
Q 1159 2491 1159 1978 
L 1159 0 
L 581 0 
L 581 3500 
L 1159 3500 
L 1159 2956 
Q 1366 3272 1645 3428 
Q 1925 3584 2291 3584 
Q 2894 3584 3203 3211 
Q 3513 2838 3513 2113 
z
" transform="scale(0.015625)"/>
      <path id="DejaVuSans-70" d="M 1159 525 
L 1159 -1331 
L 581 -1331 
L 581 3500 
L 1159 3500 
L 1159 2969 
Q 1341 3281 1617 3432 
Q 1894 3584 2278 3584 
Q 2916 3584 3314 3078 
Q 3713 2572 3713 1747 
Q 3713 922 3314 415 
Q 2916 -91 2278 -91 
Q 1894 -91 1617 61 
Q 1341 213 1159 525 
z
M 3116 1747 
Q 3116 2381 2855 2742 
Q 2594 3103 2138 3103 
Q 1681 3103 1420 2742 
Q 1159 2381 1159 1747 
Q 1159 1113 1420 752 
Q 1681 391 2138 391 
Q 2594 391 2855 752 
Q 3116 1113 3116 1747 
z
" transform="scale(0.015625)"/>
      <path id="DejaVuSans-75" d="M 544 1381 
L 544 3500 
L 1119 3500 
L 1119 1403 
Q 1119 906 1312 657 
Q 1506 409 1894 409 
Q 2359 409 2629 706 
Q 2900 1003 2900 1516 
L 2900 3500 
L 3475 3500 
L 3475 0 
L 2900 0 
L 2900 538 
Q 2691 219 2414 64 
Q 2138 -91 1772 -91 
Q 1169 -91 856 284 
Q 544 659 544 1381 
z
M 1991 3584 
L 1991 3584 
z
" transform="scale(0.015625)"/>
      <path id="DejaVuSans-74" d="M 1172 4494 
L 1172 3500 
L 2356 3500 
L 2356 3053 
L 1172 3053 
L 1172 1153 
Q 1172 725 1289 603 
Q 1406 481 1766 481 
L 2356 481 
L 2356 0 
L 1766 0 
Q 1100 0 847 248 
Q 594 497 594 1153 
L 594 3053 
L 172 3053 
L 172 3500 
L 594 3500 
L 594 4494 
L 1172 4494 
z
" transform="scale(0.015625)"/>
     </defs>
     <use xlink:href="#DejaVuSans-49"/>
     <use xlink:href="#DejaVuSans-6e" transform="translate(29.492188 0)"/>
     <use xlink:href="#DejaVuSans-70" transform="translate(92.871094 0)"/>
     <use xlink:href="#DejaVuSans-75" transform="translate(156.347656 0)"/>
     <use xlink:href="#DejaVuSans-74" transform="translate(219.726562 0)"/>
    </g>
    <!-- (features) -->
    <g style="fill: #4a5568" transform="translate(38.444531 43.47) scale(0.1 -0.1)">
     <defs>
      <path id="DejaVuSans-28" d="M 1984 4856 
Q 1566 4138 1362 3434 
Q 1159 2731 1159 2009 
Q 1159 1288 1364 580 
Q 1569 -128 1984 -844 
L 1484 -844 
Q 1016 -109 783 600 
Q 550 1309 550 2009 
Q 550 2706 781 3412 
Q 1013 4119 1484 4856 
L 1984 4856 
z
" transform="scale(0.015625)"/>
      <path id="DejaVuSans-66" d="M 2375 4863 
L 2375 4384 
L 1825 4384 
Q 1516 4384 1395 4259 
Q 1275 4134 1275 3809 
L 1275 3500 
L 2222 3500 
L 2222 3053 
L 1275 3053 
L 1275 0 
L 697 0 
L 697 3053 
L 147 3053 
L 147 3500 
L 697 3500 
L 697 3744 
Q 697 4328 969 4595 
Q 1241 4863 1831 4863 
L 2375 4863 
z
" transform="scale(0.015625)"/>
      <path id="DejaVuSans-65" d="M 3597 1894 
L 3597 1613 
L 953 1613 
Q 991 1019 1311 708 
Q 1631 397 2203 397 
Q 2534 397 2845 478 
Q 3156 559 3463 722 
L 3463 178 
Q 3153 47 2828 -22 
Q 2503 -91 2169 -91 
Q 1331 -91 842 396 
Q 353 884 353 1716 
Q 353 2575 817 3079 
Q 1281 3584 2069 3584 
Q 2775 3584 3186 3129 
Q 3597 2675 3597 1894 
z
M 3022 2063 
Q 3016 2534 2758 2815 
Q 2500 3097 2075 3097 
Q 1594 3097 1305 2825 
Q 1016 2553 972 2059 
L 3022 2063 
z
" transform="scale(0.015625)"/>
      <path id="DejaVuSans-61" d="M 2194 1759 
Q 1497 1759 1228 1600 
Q 959 1441 959 1056 
Q 959 750 1161 570 
Q 1363 391 1709 391 
Q 2188 391 2477 730 
Q 2766 1069 2766 1631 
L 2766 1759 
L 2194 1759 
z
M 3341 1997 
L 3341 0 
L 2766 0 
L 2766 531 
Q 2569 213 2275 61 
Q 1981 -91 1556 -91 
Q 1019 -91 701 211 
Q 384 513 384 1019 
Q 384 1609 779 1909 
Q 1175 2209 1959 2209 
L 2766 2209 
L 2766 2266 
Q 2766 2663 2505 2880 
Q 2244 3097 1772 3097 
Q 1472 3097 1187 3025 
Q 903 2953 641 2809 
L 641 3341 
Q 956 3463 1253 3523 
Q 1550 3584 1831 3584 
Q 2591 3584 2966 3190 
Q 3341 2797 3341 1997 
z
" transform="scale(0.015625)"/>
      <path id="DejaVuSans-72" d="M 2631 2963 
Q 2534 3019 2420 3045 
Q 2306 3072 2169 3072 
Q 1681 3072 1420 2755 
Q 1159 2438 1159 1844 
L 1159 0 
L 581 0 
L 581 3500 
L 1159 3500 
L 1159 2956 
Q 1341 3275 1631 3429 
Q 1922 3584 2338 3584 
Q 2397 3584 2469 3576 
Q 2541 3569 2628 3553 
L 2631 2963 
z
" transform="scale(0.015625)"/>
      <path id="DejaVuSans-73" d="M 2834 3397 
L 2834 2853 
Q 2591 2978 2328 3040 
Q 2066 3103 1784 3103 
Q 1356 3103 1142 2972 
Q 928 2841 928 2578 
Q 928 2378 1081 2264 
Q 1234 2150 1697 2047 
L 1894 2003 
Q 2506 1872 2764 1633 
Q 3022 1394 3022 966 
Q 3022 478 2636 193 
Q 2250 -91 1575 -91 
Q 1294 -91 989 -36 
Q 684 19 347 128 
L 347 722 
Q 666 556 975 473 
Q 1284 391 1588 391 
Q 1994 391 2212 530 
Q 2431 669 2431 922 
Q 2431 1156 2273 1281 
Q 2116 1406 1581 1522 
L 1381 1569 
Q 847 1681 609 1914 
Q 372 2147 372 2553 
Q 372 3047 722 3315 
Q 1072 3584 1716 3584 
Q 2034 3584 2315 3537 
Q 2597 3491 2834 3397 
z
" transform="scale(0.015625)"/>
      <path id="DejaVuSans-29" d="M 513 4856 
L 1013 4856 
Q 1481 4119 1714 3412 
Q 1947 2706 1947 2009 
Q 1947 1309 1714 600 
Q 1481 -109 1013 -844 
L 513 -844 
Q 928 -128 1133 580 
Q 1338 1288 1338 2009 
Q 1338 2731 1133 3434 
Q 928 4138 513 4856 
z
" transform="scale(0.015625)"/>
     </defs>
     <use xlink:href="#DejaVuSans-28"/>
     <use xlink:href="#DejaVuSans-66" transform="translate(39.013672 0)"/>
     <use xlink:href="#DejaVuSans-65" transform="translate(74.21875 0)"/>
     <use xlink:href="#DejaVuSans-61" transform="translate(135.742188 0)"/>
     <use xlink:href="#DejaVuSans-74" transform="translate(197.021484 0)"/>
     <use xlink:href="#DejaVuSans-75" transform="translate(236.230469 0)"/>
     <use xlink:href="#DejaVuSans-72" transform="translate(299.609375 0)"/>
     <use xlink:href="#DejaVuSans-65" transform="translate(338.472656 0)"/>
     <use xlink:href="#DejaVuSans-73" transform="translate(399.996094 0)"/>
     <use xlink:href="#DejaVuSans-29" transform="translate(452.095703 0)"/>
    </g>
   </g>
   <g id="text_2">
    <!-- Hidden Layers -->
    <g style="fill: #4a5568" transform="translate(190.934063 40.68) scale(0.11 -0.11)">
     <defs>
      <path id="DejaVuSans-48" d="M 628 4666 
L 1259 4666 
L 1259 2753 
L 3553 2753 
L 3553 4666 
L 4184 4666 
L 4184 0 
L 3553 0 
L 3553 2222 
L 1259 2222 
L 1259 0 
L 628 0 
L 628 4666 
z
" transform="scale(0.015625)"/>
      <path id="DejaVuSans-69" d="M 603 3500 
L 1178 3500 
L 1178 0 
L 603 0 
L 603 3500 
z
M 603 4863 
L 1178 4863 
L 1178 4134 
L 603 4134 
L 603 4863 
z
" transform="scale(0.015625)"/>
      <path id="DejaVuSans-64" d="M 2906 2969 
L 2906 4863 
L 3481 4863 
L 3481 0 
L 2906 0 
L 2906 525 
Q 2725 213 2448 61 
Q 2172 -91 1784 -91 
Q 1150 -91 751 415 
Q 353 922 353 1747 
Q 353 2572 751 3078 
Q 1150 3584 1784 3584 
Q 2172 3584 2448 3432 
Q 2725 3281 2906 2969 
z
M 947 1747 
Q 947 1113 1208 752 
Q 1469 391 1925 391 
Q 2381 391 2643 752 
Q 2906 1113 2906 1747 
Q 2906 2381 2643 2742 
Q 2381 3103 1925 3103 
Q 1469 3103 1208 2742 
Q 947 2381 947 1747 
z
" transform="scale(0.015625)"/>
      <path id="DejaVuSans-20" transform="scale(0.015625)"/>
      <path id="DejaVuSans-4c" d="M 628 4666 
L 1259 4666 
L 1259 531 
L 3531 531 
L 3531 0 
L 628 0 
L 628 4666 
z
" transform="scale(0.015625)"/>
      <path id="DejaVuSans-79" d="M 2059 -325 
Q 1816 -950 1584 -1140 
Q 1353 -1331 966 -1331 
L 506 -1331 
L 506 -850 
L 844 -850 
Q 1081 -850 1212 -737 
Q 1344 -625 1503 -206 
L 1606 56 
L 191 3500 
L 800 3500 
L 1894 763 
L 2988 3500 
L 3597 3500 
L 2059 -325 
z
" transform="scale(0.015625)"/>
     </defs>
     <use xlink:href="#DejaVuSans-48"/>
     <use xlink:href="#DejaVuSans-69" transform="translate(75.195312 0)"/>
     <use xlink:href="#DejaVuSans-64" transform="translate(102.978516 0)"/>
     <use xlink:href="#DejaVuSans-64" transform="translate(166.455078 0)"/>
     <use xlink:href="#DejaVuSans-65" transform="translate(229.931641 0)"/>
     <use xlink:href="#DejaVuSans-6e" transform="translate(291.455078 0)"/>
     <use xlink:href="#DejaVuSans-20" transform="translate(354.833984 0)"/>
     <use xlink:href="#DejaVuSans-4c" transform="translate(386.621094 0)"/>
     <use xlink:href="#DejaVuSans-61" transform="translate(442.333984 0)"/>
     <use xlink:href="#DejaVuSans-79" transform="translate(503.613281 0)"/>
     <use xlink:href="#DejaVuSans-65" transform="translate(562.792969 0)"/>
     <use xlink:href="#DejaVuSans-72" transform="translate(624.316406 0)"/>
     <use xlink:href="#DejaVuSans-73" transform="translate(665.429688 0)"/>
    </g>
   </g>
   <g id="text_3">
    <!-- Linear -->
    <g style="fill: #2a9d8f" transform="translate(376.57125 90.9) scale(0.12 -0.12)">
     <defs>
      <path id="DejaVuSans-Bold-4c" d="M 588 4666 
L 1791 4666 
L 1791 909 
L 3903 909 
L 3903 0 
L 588 0 
L 588 4666 
z
" transform="scale(0.015625)"/>
      <path id="DejaVuSans-Bold-69" d="M 538 3500 
L 1656 3500 
L 1656 0 
L 538 0 
L 538 3500 
z
M 538 4863 
L 1656 4863 
L 1656 3950 
L 538 3950 
L 538 4863 
z
" transform="scale(0.015625)"/>
      <path id="DejaVuSans-Bold-6e" d="M 4056 2131 
L 4056 0 
L 2931 0 
L 2931 347 
L 2931 1631 
Q 2931 2084 2911 2256 
Q 2891 2428 2841 2509 
Q 2775 2619 2662 2680 
Q 2550 2741 2406 2741 
Q 2056 2741 1856 2470 
Q 1656 2200 1656 1722 
L 1656 0 
L 538 0 
L 538 3500 
L 1656 3500 
L 1656 2988 
Q 1909 3294 2193 3439 
Q 2478 3584 2822 3584 
Q 3428 3584 3742 3212 
Q 4056 2841 4056 2131 
z
" transform="scale(0.015625)"/>
      <path id="DejaVuSans-Bold-65" d="M 4031 1759 
L 4031 1441 
L 1416 1441 
Q 1456 1047 1700 850 
Q 1944 653 2381 653 
Q 2734 653 3104 758 
Q 3475 863 3866 1075 
L 3866 213 
Q 3469 63 3072 -14 
Q 2675 -91 2278 -91 
Q 1328 -91 801 392 
Q 275 875 275 1747 
Q 275 2603 792 3093 
Q 1309 3584 2216 3584 
Q 3041 3584 3536 3087 
Q 4031 2591 4031 1759 
z
M 2881 2131 
Q 2881 2450 2695 2645 
Q 2509 2841 2209 2841 
Q 1884 2841 1681 2658 
Q 1478 2475 1428 2131 
L 2881 2131 
z
" transform="scale(0.015625)"/>
      <path id="DejaVuSans-Bold-61" d="M 2106 1575 
Q 1756 1575 1579 1456 
Q 1403 1338 1403 1106 
Q 1403 894 1545 773 
Q 1688 653 1941 653 
Q 2256 653 2472 879 
Q 2688 1106 2688 1447 
L 2688 1575 
L 2106 1575 
z
M 3816 1997 
L 3816 0 
L 2688 0 
L 2688 519 
Q 2463 200 2181 54 
Q 1900 -91 1497 -91 
Q 953 -91 614 226 
Q 275 544 275 1050 
Q 275 1666 698 1953 
Q 1122 2241 2028 2241 
L 2688 2241 
L 2688 2328 
Q 2688 2594 2478 2717 
Q 2269 2841 1825 2841 
Q 1466 2841 1156 2769 
Q 847 2697 581 2553 
L 581 3406 
Q 941 3494 1303 3539 
Q 1666 3584 2028 3584 
Q 2975 3584 3395 3211 
Q 3816 2838 3816 1997 
z
" transform="scale(0.015625)"/>
      <path id="DejaVuSans-Bold-72" d="M 3138 2547 
Q 2991 2616 2845 2648 
Q 2700 2681 2553 2681 
Q 2122 2681 1889 2404 
Q 1656 2128 1656 1613 
L 1656 0 
L 538 0 
L 538 3500 
L 1656 3500 
L 1656 2925 
Q 1872 3269 2151 3426 
Q 2431 3584 2822 3584 
Q 2878 3584 2943 3579 
Q 3009 3575 3134 3559 
L 3138 2547 
z
" transform="scale(0.015625)"/>
     </defs>
     <use xlink:href="#DejaVuSans-Bold-4c"/>
     <use xlink:href="#DejaVuSans-Bold-69" transform="translate(63.720703 0)"/>
     <use xlink:href="#DejaVuSans-Bold-6e" transform="translate(97.998047 0)"/>
     <use xlink:href="#DejaVuSans-Bold-65" transform="translate(169.189453 0)"/>
     <use xlink:href="#DejaVuSans-Bold-61" transform="translate(237.011719 0)"/>
     <use xlink:href="#DejaVuSans-Bold-72" transform="translate(304.492188 0)"/>
    </g>
   </g>
   <g id="patch_18">
    <path d="M 427.699182 135.54 
Q 453.599692 135.54 477.264134 135.54 
" style="fill: none; stroke: #2d3748; stroke-width: 2; stroke-linecap: round"/>
    <path d="M 473.264134 133.54 
L 477.264134 135.54 
L 473.264134 137.54 
" style="fill: none; stroke: #2d3748; stroke-width: 2; stroke-linecap: round"/>
   </g>
   <g id="text_4">
    <!-- ŷ ∈ ℝ -->
    <g style="fill: #1e3a5f" transform="translate(528.661406 124.38) scale(0.13 -0.13)">
     <defs>
      <path id="DejaVuSans-Bold-177" d="M 1686 5119 
L 2442 5119 
L 3242 3944 
L 2686 3944 
L 2064 4647 
L 1442 3944 
L 886 3944 
L 1686 5119 
z
M 78 3500 
L 1197 3500 
L 2138 1125 
L 2938 3500 
L 4056 3500 
L 2584 -331 
Q 2363 -916 2067 -1148 
Q 1772 -1381 1288 -1381 
L 641 -1381 
L 641 -647 
L 991 -647 
Q 1275 -647 1404 -556 
Q 1534 -466 1606 -231 
L 1638 -134 
L 78 3500 
z
" transform="scale(0.015625)"/>
      <path id="DejaVuSans-Bold-20" transform="scale(0.015625)"/>
      <path id="DejaVuSans-Bold-2208" d="M 1644 297 
Q 1084 606 775 1162 
Q 466 1719 466 2331 
Q 466 2944 781 3506 
Q 1100 4081 1656 4363 
Q 2272 4675 2869 4675 
L 5272 4675 
L 5272 3897 
L 2928 3897 
Q 2422 3897 2038 3694 
Q 1666 3491 1456 3116 
Q 1350 2922 1297 2722 
L 5272 2722 
L 5272 1941 
L 1297 1941 
Q 1347 1744 1453 1553 
Q 1659 1181 2031 975 
Q 2422 766 2928 766 
L 5272 766 
L 5272 -13 
L 2869 -13 
Q 2194 -13 1644 297 
z
" transform="scale(0.015625)"/>
      <path id="DejaVuSans-Bold-211d" d="M 2925 1941 
Q 3234 1750 3497 1228 
L 3928 375 
L 4425 375 
L 3997 1228 
Q 3816 1588 3531 1788 
Q 3316 1941 2925 1941 
z
M 3725 2159 
Q 3891 2081 4067 1875 
Q 4244 1669 4438 1275 
L 5078 0 
L 3641 0 
L 3028 1228 
Q 2834 1616 2606 1778 
Q 2378 1941 2003 1941 
L 1941 1941 
L 1941 0 
L 628 0 
L 628 4666 
L 2869 4666 
Q 3669 4666 4062 4331 
Q 4456 3997 4456 3322 
Q 4456 2672 4091 2366 
Q 3938 2238 3725 2159 
z
M 1941 4291 
L 1941 2316 
L 2956 2316 
Q 3031 2316 3103 2322 
L 3103 4284 
Q 3031 4291 2956 4291 
L 1941 4291 
z
M 3494 4203 
L 3494 2406 
Q 3675 2478 3769 2572 
Q 4019 2809 4019 3303 
Q 4019 3797 3772 4038 
Q 3666 4141 3494 4203 
z
M 1003 4291 
L 1003 375 
L 1566 375 
L 1566 4291 
L 1003 4291 
z
" transform="scale(0.015625)"/>
     </defs>
     <use xlink:href="#DejaVuSans-Bold-177"/>
     <use xlink:href="#DejaVuSans-Bold-20" transform="translate(65.185547 0)"/>
     <use xlink:href="#DejaVuSans-Bold-2208" transform="translate(100 0)"/>
     <use xlink:href="#DejaVuSans-Bold-20" transform="translate(189.648438 0)"/>
     <use xlink:href="#DejaVuSans-Bold-211d" transform="translate(224.462891 0)"/>
    </g>
   </g>
   <g id="text_5">
    <!-- Any real number -->
    <g style="fill: #4a5568" transform="translate(510.918047 152.28) scale(0.09 -0.09)">
     <defs>
      <path id="DejaVuSans-41" d="M 2188 4044 
L 1331 1722 
L 3047 1722 
L 2188 4044 
z
M 1831 4666 
L 2547 4666 
L 4325 0 
L 3669 0 
L 3244 1197 
L 1141 1197 
L 716 0 
L 50 0 
L 1831 4666 
z
" transform="scale(0.015625)"/>
      <path id="DejaVuSans-6c" d="M 603 4863 
L 1178 4863 
L 1178 0 
L 603 0 
L 603 4863 
z
" transform="scale(0.015625)"/>
      <path id="DejaVuSans-6d" d="M 3328 2828 
Q 3544 3216 3844 3400 
Q 4144 3584 4550 3584 
Q 5097 3584 5394 3201 
Q 5691 2819 5691 2113 
L 5691 0 
L 5113 0 
L 5113 2094 
Q 5113 2597 4934 2840 
Q 4756 3084 4391 3084 
Q 3944 3084 3684 2787 
Q 3425 2491 3425 1978 
L 3425 0 
L 2847 0 
L 2847 2094 
Q 2847 2600 2669 2842 
Q 2491 3084 2119 3084 
Q 1678 3084 1418 2786 
Q 1159 2488 1159 1978 
L 1159 0 
L 581 0 
L 581 3500 
L 1159 3500 
L 1159 2956 
Q 1356 3278 1631 3431 
Q 1906 3584 2284 3584 
Q 2666 3584 2933 3390 
Q 3200 3197 3328 2828 
z
" transform="scale(0.015625)"/>
      <path id="DejaVuSans-62" d="M 3116 1747 
Q 3116 2381 2855 2742 
Q 2594 3103 2138 3103 
Q 1681 3103 1420 2742 
Q 1159 2381 1159 1747 
Q 1159 1113 1420 752 
Q 1681 391 2138 391 
Q 2594 391 2855 752 
Q 3116 1113 3116 1747 
z
M 1159 2969 
Q 1341 3281 1617 3432 
Q 1894 3584 2278 3584 
Q 2916 3584 3314 3078 
Q 3713 2572 3713 1747 
Q 3713 922 3314 415 
Q 2916 -91 2278 -91 
Q 1894 -91 1617 61 
Q 1341 213 1159 525 
L 1159 0 
L 581 0 
L 581 4863 
L 1159 4863 
L 1159 2969 
z
" transform="scale(0.015625)"/>
     </defs>
     <use xlink:href="#DejaVuSans-41"/>
     <use xlink:href="#DejaVuSans-6e" transform="translate(68.408203 0)"/>
     <use xlink:href="#DejaVuSans-79" transform="translate(131.787109 0)"/>
     <use xlink:href="#DejaVuSans-20" transform="translate(190.966797 0)"/>
     <use xlink:href="#DejaVuSans-72" transform="translate(222.753906 0)"/>
     <use xlink:href="#DejaVuSans-65" transform="translate(261.617188 0)"/>
     <use xlink:href="#DejaVuSans-61" transform="translate(323.140625 0)"/>
     <use xlink:href="#DejaVuSans-6c" transform="translate(384.419922 0)"/>
     <use xlink:href="#DejaVuSans-20" transform="translate(412.203125 0)"/>
     <use xlink:href="#DejaVuSans-6e" transform="translate(443.990234 0)"/>
     <use xlink:href="#DejaVuSans-75" transform="translate(507.369141 0)"/>
     <use xlink:href="#DejaVuSans-6d" transform="translate(570.748047 0)"/>
     <use xlink:href="#DejaVuSans-62" transform="translate(668.160156 0)"/>
     <use xlink:href="#DejaVuSans-65" transform="translate(731.636719 0)"/>
     <use xlink:href="#DejaVuSans-72" transform="translate(793.160156 0)"/>
    </g>
   </g>
   <g id="text_6">
    <!-- Example: ŷ = $425,000 (predicted house price) -->
    <g style="fill: #2a9d8f" transform="translate(168.117109 247.14) scale(0.11 -0.11)">
     <defs>
      <path id="DejaVuSans-Bold-45" d="M 588 4666 
L 3834 4666 
L 3834 3756 
L 1791 3756 
L 1791 2888 
L 3713 2888 
L 3713 1978 
L 1791 1978 
L 1791 909 
L 3903 909 
L 3903 0 
L 588 0 
L 588 4666 
z
" transform="scale(0.015625)"/>
      <path id="DejaVuSans-Bold-78" d="M 1422 1791 
L 159 3500 
L 1344 3500 
L 2059 2463 
L 2784 3500 
L 3969 3500 
L 2706 1797 
L 4031 0 
L 2847 0 
L 2059 1106 
L 1281 0 
L 97 0 
L 1422 1791 
z
" transform="scale(0.015625)"/>
      <path id="DejaVuSans-Bold-6d" d="M 3781 2919 
Q 3994 3244 4286 3414 
Q 4578 3584 4928 3584 
Q 5531 3584 5847 3212 
Q 6163 2841 6163 2131 
L 6163 0 
L 5038 0 
L 5038 1825 
Q 5041 1866 5042 1909 
Q 5044 1953 5044 2034 
Q 5044 2406 4934 2573 
Q 4825 2741 4581 2741 
Q 4263 2741 4089 2478 
Q 3916 2216 3909 1719 
L 3909 0 
L 2784 0 
L 2784 1825 
Q 2784 2406 2684 2573 
Q 2584 2741 2328 2741 
Q 2006 2741 1831 2477 
Q 1656 2213 1656 1722 
L 1656 0 
L 531 0 
L 531 3500 
L 1656 3500 
L 1656 2988 
Q 1863 3284 2130 3434 
Q 2397 3584 2719 3584 
Q 3081 3584 3359 3409 
Q 3638 3234 3781 2919 
z
" transform="scale(0.015625)"/>
      <path id="DejaVuSans-Bold-70" d="M 1656 506 
L 1656 -1331 
L 538 -1331 
L 538 3500 
L 1656 3500 
L 1656 2988 
Q 1888 3294 2169 3439 
Q 2450 3584 2816 3584 
Q 3463 3584 3878 3070 
Q 4294 2556 4294 1747 
Q 4294 938 3878 423 
Q 3463 -91 2816 -91 
Q 2450 -91 2169 54 
Q 1888 200 1656 506 
z
M 2400 2772 
Q 2041 2772 1848 2508 
Q 1656 2244 1656 1747 
Q 1656 1250 1848 986 
Q 2041 722 2400 722 
Q 2759 722 2948 984 
Q 3138 1247 3138 1747 
Q 3138 2247 2948 2509 
Q 2759 2772 2400 2772 
z
" transform="scale(0.015625)"/>
      <path id="DejaVuSans-Bold-6c" d="M 538 4863 
L 1656 4863 
L 1656 0 
L 538 0 
L 538 4863 
z
" transform="scale(0.015625)"/>
      <path id="DejaVuSans-Bold-3a" d="M 716 3500 
L 1844 3500 
L 1844 2291 
L 716 2291 
L 716 3500 
z
M 716 1209 
L 1844 1209 
L 1844 0 
L 716 0 
L 716 1209 
z
" transform="scale(0.015625)"/>
      <path id="DejaVuSans-Bold-3d" d="M 678 3084 
L 4684 3084 
L 4684 2350 
L 678 2350 
L 678 3084 
z
M 678 1663 
L 4684 1663 
L 4684 922 
L 678 922 
L 678 1663 
z
" transform="scale(0.015625)"/>
      <path id="DejaVuSans-Bold-24" d="M 2484 -941 
L 1978 -941 
L 1975 0 
Q 1584 16 1218 87 
Q 853 159 506 288 
L 506 1106 
Q 866 922 1233 823 
Q 1600 725 1978 713 
L 1978 1684 
L 1875 1703 
Q 1128 1834 814 2115 
Q 500 2397 500 2925 
Q 500 3484 883 3798 
Q 1266 4113 1975 4141 
L 1978 4863 
L 2484 4863 
L 2484 4153 
Q 2797 4128 3109 4075 
Q 3422 4022 3738 3938 
L 3738 3144 
Q 3425 3275 3112 3348 
Q 2800 3422 2484 3438 
L 2484 2541 
L 2584 2522 
Q 3378 2397 3698 2105 
Q 4019 1813 4019 1241 
Q 4019 666 3637 358 
Q 3256 50 2484 6 
L 2484 -941 
z
M 1978 2613 
L 1978 3428 
Q 1756 3416 1623 3308 
Q 1491 3200 1491 3034 
Q 1491 2850 1612 2745 
Q 1734 2641 1978 2613 
z
M 2484 1594 
L 2484 725 
Q 2756 728 2892 831 
Q 3028 934 3028 1141 
Q 3028 1353 2903 1458 
Q 2778 1563 2484 1594 
z
" transform="scale(0.015625)"/>
      <path id="DejaVuSans-Bold-34" d="M 2356 3675 
L 1038 1722 
L 2356 1722 
L 2356 3675 
z
M 2156 4666 
L 3494 4666 
L 3494 1722 
L 4159 1722 
L 4159 850 
L 3494 850 
L 3494 0 
L 2356 0 
L 2356 850 
L 288 850 
L 288 1881 
L 2156 4666 
z
" transform="scale(0.015625)"/>
      <path id="DejaVuSans-Bold-32" d="M 1844 884 
L 3897 884 
L 3897 0 
L 506 0 
L 506 884 
L 2209 2388 
Q 2438 2594 2547 2791 
Q 2656 2988 2656 3200 
Q 2656 3528 2436 3728 
Q 2216 3928 1850 3928 
Q 1569 3928 1234 3808 
Q 900 3688 519 3450 
L 519 4475 
Q 925 4609 1322 4679 
Q 1719 4750 2100 4750 
Q 2938 4750 3402 4381 
Q 3866 4013 3866 3353 
Q 3866 2972 3669 2642 
Q 3472 2313 2841 1759 
L 1844 884 
z
" transform="scale(0.015625)"/>
      <path id="DejaVuSans-Bold-35" d="M 678 4666 
L 3669 4666 
L 3669 3781 
L 1638 3781 
L 1638 3059 
Q 1775 3097 1914 3117 
Q 2053 3138 2203 3138 
Q 3056 3138 3531 2711 
Q 4006 2284 4006 1522 
Q 4006 766 3489 337 
Q 2972 -91 2053 -91 
Q 1656 -91 1267 -14 
Q 878 63 494 219 
L 494 1166 
Q 875 947 1217 837 
Q 1559 728 1863 728 
Q 2300 728 2551 942 
Q 2803 1156 2803 1522 
Q 2803 1891 2551 2103 
Q 2300 2316 1863 2316 
Q 1603 2316 1309 2248 
Q 1016 2181 678 2041 
L 678 4666 
z
" transform="scale(0.015625)"/>
      <path id="DejaVuSans-Bold-2c" d="M 653 1209 
L 1778 1209 
L 1778 256 
L 1006 -909 
L 341 -909 
L 653 256 
L 653 1209 
z
" transform="scale(0.015625)"/>
      <path id="DejaVuSans-Bold-30" d="M 2944 2338 
Q 2944 3213 2780 3570 
Q 2616 3928 2228 3928 
Q 1841 3928 1675 3570 
Q 1509 3213 1509 2338 
Q 1509 1453 1675 1090 
Q 1841 728 2228 728 
Q 2613 728 2778 1090 
Q 2944 1453 2944 2338 
z
M 4147 2328 
Q 4147 1169 3647 539 
Q 3147 -91 2228 -91 
Q 1306 -91 806 539 
Q 306 1169 306 2328 
Q 306 3491 806 4120 
Q 1306 4750 2228 4750 
Q 3147 4750 3647 4120 
Q 4147 3491 4147 2328 
z
" transform="scale(0.015625)"/>
      <path id="DejaVuSans-Bold-28" d="M 2413 -844 
L 1484 -844 
Q 1006 -72 778 623 
Q 550 1319 550 2003 
Q 550 2688 779 3389 
Q 1009 4091 1484 4856 
L 2413 4856 
Q 2013 4116 1813 3408 
Q 1613 2700 1613 2009 
Q 1613 1319 1811 609 
Q 2009 -100 2413 -844 
z
" transform="scale(0.015625)"/>
      <path id="DejaVuSans-Bold-64" d="M 2919 2988 
L 2919 4863 
L 4044 4863 
L 4044 0 
L 2919 0 
L 2919 506 
Q 2688 197 2409 53 
Q 2131 -91 1766 -91 
Q 1119 -91 703 423 
Q 288 938 288 1747 
Q 288 2556 703 3070 
Q 1119 3584 1766 3584 
Q 2128 3584 2408 3439 
Q 2688 3294 2919 2988 
z
M 2181 722 
Q 2541 722 2730 984 
Q 2919 1247 2919 1747 
Q 2919 2247 2730 2509 
Q 2541 2772 2181 2772 
Q 1825 2772 1636 2509 
Q 1447 2247 1447 1747 
Q 1447 1247 1636 984 
Q 1825 722 2181 722 
z
" transform="scale(0.015625)"/>
      <path id="DejaVuSans-Bold-63" d="M 3366 3391 
L 3366 2478 
Q 3138 2634 2908 2709 
Q 2678 2784 2431 2784 
Q 1963 2784 1702 2511 
Q 1441 2238 1441 1747 
Q 1441 1256 1702 982 
Q 1963 709 2431 709 
Q 2694 709 2930 787 
Q 3166 866 3366 1019 
L 3366 103 
Q 3103 6 2833 -42 
Q 2563 -91 2291 -91 
Q 1344 -91 809 395 
Q 275 881 275 1747 
Q 275 2613 809 3098 
Q 1344 3584 2291 3584 
Q 2566 3584 2833 3536 
Q 3100 3488 3366 3391 
z
" transform="scale(0.015625)"/>
      <path id="DejaVuSans-Bold-74" d="M 1759 4494 
L 1759 3500 
L 2913 3500 
L 2913 2700 
L 1759 2700 
L 1759 1216 
Q 1759 972 1856 886 
Q 1953 800 2241 800 
L 2816 800 
L 2816 0 
L 1856 0 
Q 1194 0 917 276 
Q 641 553 641 1216 
L 641 2700 
L 84 2700 
L 84 3500 
L 641 3500 
L 641 4494 
L 1759 4494 
z
" transform="scale(0.015625)"/>
      <path id="DejaVuSans-Bold-68" d="M 4056 2131 
L 4056 0 
L 2931 0 
L 2931 347 
L 2931 1625 
Q 2931 2084 2911 2256 
Q 2891 2428 2841 2509 
Q 2775 2619 2662 2680 
Q 2550 2741 2406 2741 
Q 2056 2741 1856 2470 
Q 1656 2200 1656 1722 
L 1656 0 
L 538 0 
L 538 4863 
L 1656 4863 
L 1656 2988 
Q 1909 3294 2193 3439 
Q 2478 3584 2822 3584 
Q 3428 3584 3742 3212 
Q 4056 2841 4056 2131 
z
" transform="scale(0.015625)"/>
      <path id="DejaVuSans-Bold-6f" d="M 2203 2784 
Q 1831 2784 1636 2517 
Q 1441 2250 1441 1747 
Q 1441 1244 1636 976 
Q 1831 709 2203 709 
Q 2569 709 2762 976 
Q 2956 1244 2956 1747 
Q 2956 2250 2762 2517 
Q 2569 2784 2203 2784 
z
M 2203 3584 
Q 3106 3584 3614 3096 
Q 4122 2609 4122 1747 
Q 4122 884 3614 396 
Q 3106 -91 2203 -91 
Q 1297 -91 786 396 
Q 275 884 275 1747 
Q 275 2609 786 3096 
Q 1297 3584 2203 3584 
z
" transform="scale(0.015625)"/>
      <path id="DejaVuSans-Bold-75" d="M 500 1363 
L 500 3500 
L 1625 3500 
L 1625 3150 
Q 1625 2866 1622 2436 
Q 1619 2006 1619 1863 
Q 1619 1441 1641 1255 
Q 1663 1069 1716 984 
Q 1784 875 1895 815 
Q 2006 756 2150 756 
Q 2500 756 2700 1025 
Q 2900 1294 2900 1772 
L 2900 3500 
L 4019 3500 
L 4019 0 
L 2900 0 
L 2900 506 
Q 2647 200 2364 54 
Q 2081 -91 1741 -91 
Q 1134 -91 817 281 
Q 500 653 500 1363 
z
" transform="scale(0.015625)"/>
      <path id="DejaVuSans-Bold-73" d="M 3272 3391 
L 3272 2541 
Q 2913 2691 2578 2766 
Q 2244 2841 1947 2841 
Q 1628 2841 1473 2761 
Q 1319 2681 1319 2516 
Q 1319 2381 1436 2309 
Q 1553 2238 1856 2203 
L 2053 2175 
Q 2913 2066 3209 1816 
Q 3506 1566 3506 1031 
Q 3506 472 3093 190 
Q 2681 -91 1863 -91 
Q 1516 -91 1145 -36 
Q 775 19 384 128 
L 384 978 
Q 719 816 1070 734 
Q 1422 653 1784 653 
Q 2113 653 2278 743 
Q 2444 834 2444 1013 
Q 2444 1163 2330 1236 
Q 2216 1309 1875 1350 
L 1678 1375 
Q 931 1469 631 1722 
Q 331 1975 331 2491 
Q 331 3047 712 3315 
Q 1094 3584 1881 3584 
Q 2191 3584 2531 3537 
Q 2872 3491 3272 3391 
z
" transform="scale(0.015625)"/>
      <path id="DejaVuSans-Bold-29" d="M 513 -844 
Q 913 -100 1113 609 
Q 1313 1319 1313 2009 
Q 1313 2700 1113 3408 
Q 913 4116 513 4856 
L 1441 4856 
Q 1916 4091 2145 3389 
Q 2375 2688 2375 2003 
Q 2375 1319 2147 623 
Q 1919 -72 1441 -844 
L 513 -844 
z
" transform="scale(0.015625)"/>
     </defs>
     <use xlink:href="#DejaVuSans-Bold-45"/>
     <use xlink:href="#DejaVuSans-Bold-78" transform="translate(68.310547 0)"/>
     <use xlink:href="#DejaVuSans-Bold-61" transform="translate(132.8125 0)"/>
     <use xlink:href="#DejaVuSans-Bold-6d" transform="translate(200.292969 0)"/>
     <use xlink:href="#DejaVuSans-Bold-70" transform="translate(304.492188 0)"/>
     <use xlink:href="#DejaVuSans-Bold-6c" transform="translate(376.074219 0)"/>
     <use xlink:href="#DejaVuSans-Bold-65" transform="translate(410.351562 0)"/>
     <use xlink:href="#DejaVuSans-Bold-3a" transform="translate(478.173828 0)"/>
     <use xlink:href="#DejaVuSans-Bold-20" transform="translate(518.164062 0)"/>
     <use xlink:href="#DejaVuSans-Bold-177" transform="translate(552.978516 0)"/>
     <use xlink:href="#DejaVuSans-Bold-20" transform="translate(618.164062 0)"/>
     <use xlink:href="#DejaVuSans-Bold-3d" transform="translate(652.978516 0)"/>
     <use xlink:href="#DejaVuSans-Bold-20" transform="translate(736.767578 0)"/>
     <use xlink:href="#DejaVuSans-Bold-24" transform="translate(771.582031 0)"/>
     <use xlink:href="#DejaVuSans-Bold-34" transform="translate(841.162109 0)"/>
     <use xlink:href="#DejaVuSans-Bold-32" transform="translate(910.742188 0)"/>
     <use xlink:href="#DejaVuSans-Bold-35" transform="translate(980.322266 0)"/>
     <use xlink:href="#DejaVuSans-Bold-2c" transform="translate(1049.902344 0)"/>
     <use xlink:href="#DejaVuSans-Bold-30" transform="translate(1087.890625 0)"/>
     <use xlink:href="#DejaVuSans-Bold-30" transform="translate(1157.470703 0)"/>
     <use xlink:href="#DejaVuSans-Bold-30" transform="translate(1227.050781 0)"/>
     <use xlink:href="#DejaVuSans-Bold-20" transform="translate(1296.630859 0)"/>
     <use xlink:href="#DejaVuSans-Bold-28" transform="translate(1331.445312 0)"/>
     <use xlink:href="#DejaVuSans-Bold-70" transform="translate(1377.148438 0)"/>
     <use xlink:href="#DejaVuSans-Bold-72" transform="translate(1448.730469 0)"/>
     <use xlink:href="#DejaVuSans-Bold-65" transform="translate(1498.046875 0)"/>
     <use xlink:href="#DejaVuSans-Bold-64" transform="translate(1565.869141 0)"/>
     <use xlink:href="#DejaVuSans-Bold-69" transform="translate(1637.451172 0)"/>
     <use xlink:href="#DejaVuSans-Bold-63" transform="translate(1671.728516 0)"/>
     <use xlink:href="#DejaVuSans-Bold-74" transform="translate(1731.005859 0)"/>
     <use xlink:href="#DejaVuSans-Bold-65" transform="translate(1778.808594 0)"/>
     <use xlink:href="#DejaVuSans-Bold-64" transform="translate(1846.630859 0)"/>
     <use xlink:href="#DejaVuSans-Bold-20" transform="translate(1918.212891 0)"/>
     <use xlink:href="#DejaVuSans-Bold-68" transform="translate(1953.027344 0)"/>
     <use xlink:href="#DejaVuSans-Bold-6f" transform="translate(2024.21875 0)"/>
     <use xlink:href="#DejaVuSans-Bold-75" transform="translate(2092.919922 0)"/>
     <use xlink:href="#DejaVuSans-Bold-73" transform="translate(2164.111328 0)"/>
     <use xlink:href="#DejaVuSans-Bold-65" transform="translate(2223.632812 0)"/>
     <use xlink:href="#DejaVuSans-Bold-20" transform="translate(2291.455078 0)"/>
     <use xlink:href="#DejaVuSans-Bold-70" transform="translate(2326.269531 0)"/>
     <use xlink:href="#DejaVuSans-Bold-72" transform="translate(2397.851562 0)"/>
     <use xlink:href="#DejaVuSans-Bold-69" transform="translate(2447.167969 0)"/>
     <use xlink:href="#DejaVuSans-Bold-63" transform="translate(2481.445312 0)"/>
     <use xlink:href="#DejaVuSans-Bold-65" transform="translate(2540.722656 0)"/>
     <use xlink:href="#DejaVuSans-Bold-29" transform="translate(2608.544922 0)"/>
    </g>
   </g>
  </g>
 </g>
 <defs>
  <clipPath id="pb92a1fc38a">
   <rect x="7.2" y="7.2" width="613.8" height="267.84"/>
  </clipPath>
 </defs>
</svg>
