<?xml version="1.0" encoding="utf-8" standalone="no"?>
<!DOCTYPE svg PUBLIC "-//W3C//DTD SVG 1.1//EN"
  "http://www.w3.org/Graphics/SVG/1.1/DTD/svg11.dtd">
<svg xmlns:xlink="http://www.w3.org/1999/xlink" width="596.52pt" height="236.16pt" viewBox="0 0 596.52 236.16" xmlns="http://www.w3.org/2000/svg" version="1.1">
 <metadata>
  <rdf:RDF xmlns:dc="http://purl.org/dc/elements/1.1/" xmlns:cc="http://creativecommons.org/ns#" xmlns:rdf="http://www.w3.org/1999/02/22-rdf-syntax-ns#">
   <cc:Work>
    <dc:type rdf:resource="http://purl.org/dc/dcmitype/StillImage"/>
    <dc:date>2025-12-29T10:35:11.287508</dc:date>
    <dc:format>image/svg+xml</dc:format>
    <dc:creator>
     <cc:Agent>
      <dc:title>Matplotlib v3.10.1, https://matplotlib.org/</dc:title>
     </cc:Agent>
    </dc:creator>
   </cc:Work>
  </rdf:RDF>
 </metadata>
 <defs>
  <style type="text/css">*{stroke-linejoin: round; stroke-linecap: butt}</style>
 </defs>
 <g id="figure_1">
  <g id="patch_1">
   <path d="M 0 236.16 
L 596.52 236.16 
L 596.52 0 
L 0 0 
z
" style="fill: #ffffff"/>
  </g>
  <g id="axes_1">
   <g id="patch_2">
    <path d="M 34.92 209.556 
L 284.4 209.556 
Q 292.716 209.556 292.716 201.24 
L 292.716 34.92 
Q 292.716 26.604 284.4 26.604 
L 34.92 26.604 
Q 26.604 26.604 26.604 34.92 
L 26.604 201.24 
Q 26.604 209.556 34.92 209.556 
z
" clip-path="url(#pb1d9cba012)" style="fill: #2a9d8f; opacity: 0.1; stroke: #2a9d8f; stroke-width: 2; stroke-linejoin: miter"/>
   </g>
   <g id="patch_3">
    <path d="M 312.12 209.556 
L 561.6 209.556 
Q 569.916 209.556 569.916 201.24 
L 569.916 34.92 
Q 569.916 26.604 561.6 26.604 
L 312.12 26.604 
Q 303.804 26.604 303.804 34.92 
L 303.804 201.24 
Q 303.804 209.556 312.12 209.556 
z
" clip-path="url(#pb1d9cba012)" style="fill: #e9c46a; opacity: 0.1; stroke: #e9c46a; stroke-width: 2; stroke-linejoin: miter"/>
   </g>
   <g id="text_1">
    <!-- Supervised -->
    <g style="fill: #2a9d8f" transform="translate(115.538125 57.096) scale(0.14 -0.14)">
     <defs>
      <path id="DejaVuSans-Bold-53" d="M 3834 4519 
L 3834 3531 
Q 3450 3703 3084 3790 
Q 2719 3878 2394 3878 
Q 1963 3878 1756 3759 
Q 1550 3641 1550 3391 
Q 1550 3203 1689 3098 
Q 1828 2994 2194 2919 
L 2706 2816 
Q 3484 2659 3812 2340 
Q 4141 2022 4141 1434 
Q 4141 663 3683 286 
Q 3225 -91 2284 -91 
Q 1841 -91 1394 -6 
Q 947 78 500 244 
L 500 1259 
Q 947 1022 1364 901 
Q 1781 781 2169 781 
Q 2563 781 2772 912 
Q 2981 1044 2981 1288 
Q 2981 1506 2839 1625 
Q 2697 1744 2272 1838 
L 1806 1941 
Q 1106 2091 782 2419 
Q 459 2747 459 3303 
Q 459 4000 909 4375 
Q 1359 4750 2203 4750 
Q 2588 4750 2994 4692 
Q 3400 4634 3834 4519 
z
" transform="scale(0.015625)"/>
      <path id="DejaVuSans-Bold-75" d="M 500 1363 
L 500 3500 
L 1625 3500 
L 1625 3150 
Q 1625 2866 1622 2436 
Q 1619 2006 1619 1863 
Q 1619 1441 1641 1255 
Q 1663 1069 1716 984 
Q 1784 875 1895 815 
Q 2006 756 2150 756 
Q 2500 756 2700 1025 
Q 2900 1294 2900 1772 
L 2900 3500 
L 4019 3500 
L 4019 0 
L 2900 0 
L 2900 506 
Q 2647 200 2364 54 
Q 2081 -91 1741 -91 
Q 1134 -91 817 281 
Q 500 653 500 1363 
z
" transform="scale(0.015625)"/>
      <path id="DejaVuSans-Bold-70" d="M 1656 506 
L 1656 -1331 
L 538 -1331 
L 538 3500 
L 1656 3500 
L 1656 2988 
Q 1888 3294 2169 3439 
Q 2450 3584 2816 3584 
Q 3463 3584 3878 3070 
Q 4294 2556 4294 1747 
Q 4294 938 3878 423 
Q 3463 -91 2816 -91 
Q 2450 -91 2169 54 
Q 1888 200 1656 506 
z
M 2400 2772 
Q 2041 2772 1848 2508 
Q 1656 2244 1656 1747 
Q 1656 1250 1848 986 
Q 2041 722 2400 722 
Q 2759 722 2948 984 
Q 3138 1247 3138 1747 
Q 3138 2247 2948 2509 
Q 2759 2772 2400 2772 
z
" transform="scale(0.015625)"/>
      <path id="DejaVuSans-Bold-65" d="M 4031 1759 
L 4031 1441 
L 1416 1441 
Q 1456 1047 1700 850 
Q 1944 653 2381 653 
Q 2734 653 3104 758 
Q 3475 863 3866 1075 
L 3866 213 
Q 3469 63 3072 -14 
Q 2675 -91 2278 -91 
Q 1328 -91 801 392 
Q 275 875 275 1747 
Q 275 2603 792 3093 
Q 1309 3584 2216 3584 
Q 3041 3584 3536 3087 
Q 4031 2591 4031 1759 
z
M 2881 2131 
Q 2881 2450 2695 2645 
Q 2509 2841 2209 2841 
Q 1884 2841 1681 2658 
Q 1478 2475 1428 2131 
L 2881 2131 
z
" transform="scale(0.015625)"/>
      <path id="DejaVuSans-Bold-72" d="M 3138 2547 
Q 2991 2616 2845 2648 
Q 2700 2681 2553 2681 
Q 2122 2681 1889 2404 
Q 1656 2128 1656 1613 
L 1656 0 
L 538 0 
L 538 3500 
L 1656 3500 
L 1656 2925 
Q 1872 3269 2151 3426 
Q 2431 3584 2822 3584 
Q 2878 3584 2943 3579 
Q 3009 3575 3134 3559 
L 3138 2547 
z
" transform="scale(0.015625)"/>
      <path id="DejaVuSans-Bold-76" d="M 97 3500 
L 1216 3500 
L 2088 1081 
L 2956 3500 
L 4078 3500 
L 2700 0 
L 1472 0 
L 97 3500 
z
" transform="scale(0.015625)"/>
      <path id="DejaVuSans-Bold-69" d="M 538 3500 
L 1656 3500 
L 1656 0 
L 538 0 
L 538 3500 
z
M 538 4863 
L 1656 4863 
L 1656 3950 
L 538 3950 
L 538 4863 
z
" transform="scale(0.015625)"/>
      <path id="DejaVuSans-Bold-73" d="M 3272 3391 
L 3272 2541 
Q 2913 2691 2578 2766 
Q 2244 2841 1947 2841 
Q 1628 2841 1473 2761 
Q 1319 2681 1319 2516 
Q 1319 2381 1436 2309 
Q 1553 2238 1856 2203 
L 2053 2175 
Q 2913 2066 3209 1816 
Q 3506 1566 3506 1031 
Q 3506 472 3093 190 
Q 2681 -91 1863 -91 
Q 1516 -91 1145 -36 
Q 775 19 384 128 
L 384 978 
Q 719 816 1070 734 
Q 1422 653 1784 653 
Q 2113 653 2278 743 
Q 2444 834 2444 1013 
Q 2444 1163 2330 1236 
Q 2216 1309 1875 1350 
L 1678 1375 
Q 931 1469 631 1722 
Q 331 1975 331 2491 
Q 331 3047 712 3315 
Q 1094 3584 1881 3584 
Q 2191 3584 2531 3537 
Q 2872 3491 3272 3391 
z
" transform="scale(0.015625)"/>
      <path id="DejaVuSans-Bold-64" d="M 2919 2988 
L 2919 4863 
L 4044 4863 
L 4044 0 
L 2919 0 
L 2919 506 
Q 2688 197 2409 53 
Q 2131 -91 1766 -91 
Q 1119 -91 703 423 
Q 288 938 288 1747 
Q 288 2556 703 3070 
Q 1119 3584 1766 3584 
Q 2128 3584 2408 3439 
Q 2688 3294 2919 2988 
z
M 2181 722 
Q 2541 722 2730 984 
Q 2919 1247 2919 1747 
Q 2919 2247 2730 2509 
Q 2541 2772 2181 2772 
Q 1825 2772 1636 2509 
Q 1447 2247 1447 1747 
Q 1447 1247 1636 984 
Q 1825 722 2181 722 
z
" transform="scale(0.015625)"/>
     </defs>
     <use xlink:href="#DejaVuSans-Bold-53"/>
     <use xlink:href="#DejaVuSans-Bold-75" transform="translate(72.021484 0)"/>
     <use xlink:href="#DejaVuSans-Bold-70" transform="translate(143.212891 0)"/>
     <use xlink:href="#DejaVuSans-Bold-65" transform="translate(214.794922 0)"/>
     <use xlink:href="#DejaVuSans-Bold-72" transform="translate(282.617188 0)"/>
     <use xlink:href="#DejaVuSans-Bold-76" transform="translate(331.933594 0)"/>
     <use xlink:href="#DejaVuSans-Bold-69" transform="translate(397.119141 0)"/>
     <use xlink:href="#DejaVuSans-Bold-73" transform="translate(431.396484 0)"/>
     <use xlink:href="#DejaVuSans-Bold-65" transform="translate(490.917969 0)"/>
     <use xlink:href="#DejaVuSans-Bold-64" transform="translate(558.740234 0)"/>
    </g>
   </g>
   <g id="text_2">
    <!-- "Teacher shows correct answers" -->
    <g style="fill: #4a5568" transform="translate(85.060547 90.36) scale(0.09 -0.09)">
     <defs>
      <path id="DejaVuSans-Oblique-22" d="M 1147 4666 
L 1147 2931 
L 616 2931 
L 616 4666 
L 1147 4666 
z
M 2328 4666 
L 2328 2931 
L 1797 2931 
L 1797 4666 
L 2328 4666 
z
" transform="scale(0.015625)"/>
      <path id="DejaVuSans-Oblique-54" d="M 378 4666 
L 4325 4666 
L 4225 4134 
L 2559 4134 
L 1759 0 
L 1125 0 
L 1925 4134 
L 275 4134 
L 378 4666 
z
" transform="scale(0.015625)"/>
      <path id="DejaVuSans-Oblique-65" d="M 3078 2063 
Q 3088 2113 3092 2166 
Q 3097 2219 3097 2272 
Q 3097 2653 2873 2875 
Q 2650 3097 2266 3097 
Q 1838 3097 1509 2826 
Q 1181 2556 1013 2059 
L 3078 2063 
z
M 3578 1613 
L 903 1613 
Q 884 1494 878 1425 
Q 872 1356 872 1306 
Q 872 872 1139 634 
Q 1406 397 1894 397 
Q 2269 397 2603 481 
Q 2938 566 3225 728 
L 3116 159 
Q 2806 34 2476 -28 
Q 2147 -91 1806 -91 
Q 1078 -91 686 257 
Q 294 606 294 1247 
Q 294 1794 489 2264 
Q 684 2734 1063 3103 
Q 1306 3334 1642 3459 
Q 1978 3584 2356 3584 
Q 2950 3584 3301 3228 
Q 3653 2872 3653 2272 
Q 3653 2128 3634 1964 
Q 3616 1800 3578 1613 
z
" transform="scale(0.015625)"/>
      <path id="DejaVuSans-Oblique-61" d="M 3438 1997 
L 3047 0 
L 2472 0 
L 2578 531 
Q 2325 219 2001 64 
Q 1678 -91 1281 -91 
Q 834 -91 548 182 
Q 263 456 263 884 
Q 263 1497 752 1853 
Q 1241 2209 2100 2209 
L 2900 2209 
L 2931 2363 
Q 2938 2388 2941 2417 
Q 2944 2447 2944 2509 
Q 2944 2788 2717 2942 
Q 2491 3097 2081 3097 
Q 1800 3097 1504 3025 
Q 1209 2953 897 2809 
L 997 3341 
Q 1322 3463 1633 3523 
Q 1944 3584 2234 3584 
Q 2853 3584 3176 3315 
Q 3500 3047 3500 2534 
Q 3500 2431 3484 2292 
Q 3469 2153 3438 1997 
z
M 2816 1759 
L 2241 1759 
Q 1534 1759 1195 1570 
Q 856 1381 856 984 
Q 856 709 1029 553 
Q 1203 397 1509 397 
Q 1978 397 2328 733 
Q 2678 1069 2791 1631 
L 2816 1759 
z
" transform="scale(0.015625)"/>
      <path id="DejaVuSans-Oblique-63" d="M 3431 3366 
L 3316 2797 
Q 3109 2947 2876 3022 
Q 2644 3097 2394 3097 
Q 2119 3097 1870 3000 
Q 1622 2903 1453 2725 
Q 1184 2453 1037 2087 
Q 891 1722 891 1331 
Q 891 859 1127 628 
Q 1363 397 1844 397 
Q 2081 397 2348 469 
Q 2616 541 2906 684 
L 2797 116 
Q 2547 13 2283 -39 
Q 2019 -91 1741 -91 
Q 1044 -91 669 257 
Q 294 606 294 1253 
Q 294 1797 489 2255 
Q 684 2713 1069 3078 
Q 1331 3328 1684 3456 
Q 2038 3584 2456 3584 
Q 2700 3584 2940 3529 
Q 3181 3475 3431 3366 
z
" transform="scale(0.015625)"/>
      <path id="DejaVuSans-Oblique-68" d="M 3566 2113 
L 3156 0 
L 2578 0 
L 2988 2091 
Q 3016 2238 3031 2350 
Q 3047 2463 3047 2528 
Q 3047 2791 2881 2937 
Q 2716 3084 2419 3084 
Q 1956 3084 1617 2771 
Q 1278 2459 1178 1941 
L 800 0 
L 225 0 
L 1172 4863 
L 1747 4863 
L 1375 2950 
Q 1594 3244 1934 3414 
Q 2275 3584 2650 3584 
Q 3113 3584 3367 3334 
Q 3622 3084 3622 2631 
Q 3622 2519 3608 2391 
Q 3594 2263 3566 2113 
z
" transform="scale(0.015625)"/>
      <path id="DejaVuSans-Oblique-72" d="M 2853 2969 
Q 2766 3016 2653 3041 
Q 2541 3066 2413 3066 
Q 1953 3066 1609 2717 
Q 1266 2369 1153 1784 
L 800 0 
L 225 0 
L 909 3500 
L 1484 3500 
L 1375 2956 
Q 1603 3259 1920 3421 
Q 2238 3584 2597 3584 
Q 2691 3584 2781 3573 
Q 2872 3563 2963 3538 
L 2853 2969 
z
" transform="scale(0.015625)"/>
      <path id="DejaVuSans-Oblique-20" transform="scale(0.015625)"/>
      <path id="DejaVuSans-Oblique-73" d="M 3200 3397 
L 3091 2853 
Q 2863 2978 2609 3040 
Q 2356 3103 2088 3103 
Q 1634 3103 1373 2948 
Q 1113 2794 1113 2528 
Q 1113 2219 1719 2053 
Q 1766 2041 1788 2034 
L 1972 1978 
Q 2547 1819 2739 1644 
Q 2931 1469 2931 1166 
Q 2931 609 2489 259 
Q 2047 -91 1331 -91 
Q 1053 -91 747 -37 
Q 441 16 72 128 
L 184 722 
Q 500 559 806 475 
Q 1113 391 1394 391 
Q 1816 391 2080 572 
Q 2344 753 2344 1031 
Q 2344 1331 1650 1516 
L 1591 1531 
L 1394 1581 
Q 956 1697 753 1886 
Q 550 2075 550 2369 
Q 550 2928 970 3256 
Q 1391 3584 2113 3584 
Q 2397 3584 2667 3537 
Q 2938 3491 3200 3397 
z
" transform="scale(0.015625)"/>
      <path id="DejaVuSans-Oblique-6f" d="M 1625 -91 
Q 1009 -91 651 289 
Q 294 669 294 1325 
Q 294 1706 417 2101 
Q 541 2497 738 2766 
Q 1047 3184 1428 3384 
Q 1809 3584 2291 3584 
Q 2888 3584 3255 3212 
Q 3622 2841 3622 2241 
Q 3622 1825 3500 1412 
Q 3378 1000 3181 728 
Q 2875 309 2494 109 
Q 2113 -91 1625 -91 
z
M 891 1344 
Q 891 869 1089 633 
Q 1288 397 1691 397 
Q 2269 397 2648 901 
Q 3028 1406 3028 2181 
Q 3028 2634 2825 2865 
Q 2622 3097 2228 3097 
Q 1903 3097 1650 2945 
Q 1397 2794 1197 2484 
Q 1050 2253 970 1956 
Q 891 1659 891 1344 
z
" transform="scale(0.015625)"/>
      <path id="DejaVuSans-Oblique-77" d="M 544 3500 
L 1113 3500 
L 1259 684 
L 2566 3500 
L 3231 3500 
L 3425 684 
L 4666 3500 
L 5241 3500 
L 3641 0 
L 2969 0 
L 2797 2900 
L 1459 0 
L 781 0 
L 544 3500 
z
" transform="scale(0.015625)"/>
      <path id="DejaVuSans-Oblique-74" d="M 2706 3500 
L 2619 3053 
L 1472 3053 
L 1100 1153 
Q 1081 1047 1072 975 
Q 1063 903 1063 863 
Q 1063 663 1183 572 
Q 1303 481 1569 481 
L 2150 481 
L 2053 0 
L 1503 0 
Q 991 0 739 200 
Q 488 400 488 806 
Q 488 878 497 964 
Q 506 1050 525 1153 
L 897 3053 
L 409 3053 
L 500 3500 
L 978 3500 
L 1172 4494 
L 1747 4494 
L 1556 3500 
L 2706 3500 
z
" transform="scale(0.015625)"/>
      <path id="DejaVuSans-Oblique-6e" d="M 3566 2113 
L 3156 0 
L 2578 0 
L 2988 2091 
Q 3016 2238 3031 2350 
Q 3047 2463 3047 2528 
Q 3047 2791 2881 2937 
Q 2716 3084 2419 3084 
Q 1956 3084 1622 2776 
Q 1288 2469 1184 1941 
L 800 0 
L 225 0 
L 903 3500 
L 1478 3500 
L 1363 2950 
Q 1603 3253 1940 3418 
Q 2278 3584 2650 3584 
Q 3113 3584 3367 3334 
Q 3622 3084 3622 2631 
Q 3622 2519 3608 2391 
Q 3594 2263 3566 2113 
z
" transform="scale(0.015625)"/>
     </defs>
     <use xlink:href="#DejaVuSans-Oblique-22"/>
     <use xlink:href="#DejaVuSans-Oblique-54" transform="translate(45.996094 0)"/>
     <use xlink:href="#DejaVuSans-Oblique-65" transform="translate(94.705078 0)"/>
     <use xlink:href="#DejaVuSans-Oblique-61" transform="translate(156.228516 0)"/>
     <use xlink:href="#DejaVuSans-Oblique-63" transform="translate(217.507812 0)"/>
     <use xlink:href="#DejaVuSans-Oblique-68" transform="translate(272.488281 0)"/>
     <use xlink:href="#DejaVuSans-Oblique-65" transform="translate(335.867188 0)"/>
     <use xlink:href="#DejaVuSans-Oblique-72" transform="translate(397.390625 0)"/>
     <use xlink:href="#DejaVuSans-Oblique-20" transform="translate(438.503906 0)"/>
     <use xlink:href="#DejaVuSans-Oblique-73" transform="translate(470.291016 0)"/>
     <use xlink:href="#DejaVuSans-Oblique-68" transform="translate(522.390625 0)"/>
     <use xlink:href="#DejaVuSans-Oblique-6f" transform="translate(585.769531 0)"/>
     <use xlink:href="#DejaVuSans-Oblique-77" transform="translate(646.951172 0)"/>
     <use xlink:href="#DejaVuSans-Oblique-73" transform="translate(728.738281 0)"/>
     <use xlink:href="#DejaVuSans-Oblique-20" transform="translate(780.837891 0)"/>
     <use xlink:href="#DejaVuSans-Oblique-63" transform="translate(812.625 0)"/>
     <use xlink:href="#DejaVuSans-Oblique-6f" transform="translate(867.605469 0)"/>
     <use xlink:href="#DejaVuSans-Oblique-72" transform="translate(928.787109 0)"/>
     <use xlink:href="#DejaVuSans-Oblique-72" transform="translate(969.900391 0)"/>
     <use xlink:href="#DejaVuSans-Oblique-65" transform="translate(1011.013672 0)"/>
     <use xlink:href="#DejaVuSans-Oblique-63" transform="translate(1072.537109 0)"/>
     <use xlink:href="#DejaVuSans-Oblique-74" transform="translate(1127.517578 0)"/>
     <use xlink:href="#DejaVuSans-Oblique-20" transform="translate(1166.726562 0)"/>
     <use xlink:href="#DejaVuSans-Oblique-61" transform="translate(1198.513672 0)"/>
     <use xlink:href="#DejaVuSans-Oblique-6e" transform="translate(1259.792969 0)"/>
     <use xlink:href="#DejaVuSans-Oblique-73" transform="translate(1323.171875 0)"/>
     <use xlink:href="#DejaVuSans-Oblique-77" transform="translate(1375.271484 0)"/>
     <use xlink:href="#DejaVuSans-Oblique-65" transform="translate(1457.058594 0)"/>
     <use xlink:href="#DejaVuSans-Oblique-72" transform="translate(1518.582031 0)"/>
     <use xlink:href="#DejaVuSans-Oblique-73" transform="translate(1559.695312 0)"/>
     <use xlink:href="#DejaVuSans-Oblique-22" transform="translate(1611.794922 0)"/>
    </g>
   </g>
   <g id="text_3">
    <!-- A -->
    <g style="fill: #3b82f6" transform="translate(98.676 120.852) scale(0.08 -0.08)">
     <defs>
      <path id="DejaVuSans-Bold-41" d="M 3419 850 
L 1538 850 
L 1241 0 
L 31 0 
L 1759 4666 
L 3194 4666 
L 4922 0 
L 3713 0 
L 3419 850 
z
M 1838 1716 
L 3116 1716 
L 2478 3572 
L 1838 1716 
z
" transform="scale(0.015625)"/>
     </defs>
     <use xlink:href="#DejaVuSans-Bold-41"/>
    </g>
   </g>
   <g id="text_4">
    <!-- B -->
    <g style="fill: #e85a4f" transform="translate(126.396 154.116) scale(0.08 -0.08)">
     <defs>
      <path id="DejaVuSans-Bold-42" d="M 2456 2859 
Q 2741 2859 2887 2984 
Q 3034 3109 3034 3353 
Q 3034 3594 2887 3720 
Q 2741 3847 2456 3847 
L 1791 3847 
L 1791 2859 
L 2456 2859 
z
M 2497 819 
Q 2859 819 3042 972 
Q 3225 1125 3225 1434 
Q 3225 1738 3044 1889 
Q 2863 2041 2497 2041 
L 1791 2041 
L 1791 819 
L 2497 819 
z
M 3616 2497 
Q 4003 2384 4215 2081 
Q 4428 1778 4428 1338 
Q 4428 663 3972 331 
Q 3516 0 2584 0 
L 588 0 
L 588 4666 
L 2394 4666 
Q 3366 4666 3802 4372 
Q 4238 4078 4238 3431 
Q 4238 3091 4078 2852 
Q 3919 2613 3616 2497 
z
" transform="scale(0.015625)"/>
     </defs>
     <use xlink:href="#DejaVuSans-Bold-42"/>
    </g>
   </g>
   <g id="text_5">
    <!-- A -->
    <g style="fill: #3b82f6" transform="translate(181.836 137.484) scale(0.08 -0.08)">
     <use xlink:href="#DejaVuSans-Bold-41"/>
    </g>
   </g>
   <g id="text_6">
    <!-- B -->
    <g style="fill: #e85a4f" transform="translate(209.556 109.764) scale(0.08 -0.08)">
     <use xlink:href="#DejaVuSans-Bold-42"/>
    </g>
   </g>
   <g id="text_7">
    <!-- A -->
    <g style="fill: #3b82f6" transform="translate(237.276 148.572) scale(0.08 -0.08)">
     <use xlink:href="#DejaVuSans-Bold-41"/>
    </g>
   </g>
   <g id="text_8">
    <!-- Unsupervised -->
    <g style="fill: #e9c46a" transform="translate(382.945781 57.096) scale(0.14 -0.14)">
     <defs>
      <path id="DejaVuSans-Bold-55" d="M 588 4666 
L 1791 4666 
L 1791 1869 
Q 1791 1291 1980 1042 
Q 2169 794 2597 794 
Q 3028 794 3217 1042 
Q 3406 1291 3406 1869 
L 3406 4666 
L 4609 4666 
L 4609 1869 
Q 4609 878 4112 393 
Q 3616 -91 2597 -91 
Q 1581 -91 1084 393 
Q 588 878 588 1869 
L 588 4666 
z
" transform="scale(0.015625)"/>
      <path id="DejaVuSans-Bold-6e" d="M 4056 2131 
L 4056 0 
L 2931 0 
L 2931 347 
L 2931 1631 
Q 2931 2084 2911 2256 
Q 2891 2428 2841 2509 
Q 2775 2619 2662 2680 
Q 2550 2741 2406 2741 
Q 2056 2741 1856 2470 
Q 1656 2200 1656 1722 
L 1656 0 
L 538 0 
L 538 3500 
L 1656 3500 
L 1656 2988 
Q 1909 3294 2193 3439 
Q 2478 3584 2822 3584 
Q 3428 3584 3742 3212 
Q 4056 2841 4056 2131 
z
" transform="scale(0.015625)"/>
     </defs>
     <use xlink:href="#DejaVuSans-Bold-55"/>
     <use xlink:href="#DejaVuSans-Bold-6e" transform="translate(81.201172 0)"/>
     <use xlink:href="#DejaVuSans-Bold-73" transform="translate(152.392578 0)"/>
     <use xlink:href="#DejaVuSans-Bold-75" transform="translate(211.914062 0)"/>
     <use xlink:href="#DejaVuSans-Bold-70" transform="translate(283.105469 0)"/>
     <use xlink:href="#DejaVuSans-Bold-65" transform="translate(354.6875 0)"/>
     <use xlink:href="#DejaVuSans-Bold-72" transform="translate(422.509766 0)"/>
     <use xlink:href="#DejaVuSans-Bold-76" transform="translate(471.826172 0)"/>
     <use xlink:href="#DejaVuSans-Bold-69" transform="translate(537.011719 0)"/>
     <use xlink:href="#DejaVuSans-Bold-73" transform="translate(571.289062 0)"/>
     <use xlink:href="#DejaVuSans-Bold-65" transform="translate(630.810547 0)"/>
     <use xlink:href="#DejaVuSans-Bold-64" transform="translate(698.632812 0)"/>
    </g>
   </g>
   <g id="text_9">
    <!-- "Find patterns on your own" -->
    <g style="fill: #4a5568" transform="translate(373.485234 90.36) scale(0.09 -0.09)">
     <defs>
      <path id="DejaVuSans-Oblique-46" d="M 1081 4666 
L 3756 4666 
L 3653 4134 
L 1606 4134 
L 1338 2759 
L 3188 2759 
L 3084 2228 
L 1234 2228 
L 800 0 
L 172 0 
L 1081 4666 
z
" transform="scale(0.015625)"/>
      <path id="DejaVuSans-Oblique-69" d="M 1172 4863 
L 1747 4863 
L 1606 4134 
L 1031 4134 
L 1172 4863 
z
M 909 3500 
L 1484 3500 
L 800 0 
L 225 0 
L 909 3500 
z
" transform="scale(0.015625)"/>
      <path id="DejaVuSans-Oblique-64" d="M 2675 525 
Q 2444 222 2128 65 
Q 1813 -91 1428 -91 
Q 903 -91 598 267 
Q 294 625 294 1247 
Q 294 1766 478 2236 
Q 663 2706 1013 3078 
Q 1244 3325 1534 3454 
Q 1825 3584 2144 3584 
Q 2481 3584 2739 3421 
Q 2997 3259 3138 2956 
L 3513 4863 
L 4091 4863 
L 3144 0 
L 2566 0 
L 2675 525 
z
M 891 1350 
Q 891 897 1095 644 
Q 1300 391 1663 391 
Q 1931 391 2161 520 
Q 2391 650 2566 903 
Q 2750 1166 2856 1509 
Q 2963 1853 2963 2188 
Q 2963 2622 2758 2865 
Q 2553 3109 2194 3109 
Q 1922 3109 1687 2981 
Q 1453 2853 1288 2613 
Q 1106 2353 998 2009 
Q 891 1666 891 1350 
z
" transform="scale(0.015625)"/>
      <path id="DejaVuSans-Oblique-70" d="M 3175 2156 
Q 3175 2616 2975 2859 
Q 2775 3103 2400 3103 
Q 2144 3103 1911 2972 
Q 1678 2841 1497 2591 
Q 1319 2344 1212 1994 
Q 1106 1644 1106 1300 
Q 1106 863 1306 627 
Q 1506 391 1875 391 
Q 2147 391 2380 519 
Q 2613 647 2778 891 
Q 2956 1147 3065 1494 
Q 3175 1841 3175 2156 
z
M 1394 2969 
Q 1625 3272 1939 3428 
Q 2253 3584 2638 3584 
Q 3175 3584 3472 3232 
Q 3769 2881 3769 2247 
Q 3769 1728 3584 1258 
Q 3400 788 3053 416 
Q 2822 169 2531 39 
Q 2241 -91 1919 -91 
Q 1547 -91 1294 64 
Q 1041 219 916 525 
L 556 -1331 
L -19 -1331 
L 922 3500 
L 1497 3500 
L 1394 2969 
z
" transform="scale(0.015625)"/>
      <path id="DejaVuSans-Oblique-79" d="M 1588 -325 
Q 1188 -997 936 -1164 
Q 684 -1331 294 -1331 
L -159 -1331 
L -63 -850 
L 269 -850 
Q 509 -850 678 -719 
Q 847 -588 1056 -206 
L 1234 128 
L 459 3500 
L 1069 3500 
L 1650 819 
L 3256 3500 
L 3859 3500 
L 1588 -325 
z
" transform="scale(0.015625)"/>
      <path id="DejaVuSans-Oblique-75" d="M 428 1388 
L 838 3500 
L 1416 3500 
L 1006 1409 
Q 975 1256 961 1147 
Q 947 1038 947 966 
Q 947 700 1109 554 
Q 1272 409 1569 409 
Q 2031 409 2368 721 
Q 2706 1034 2809 1563 
L 3194 3500 
L 3769 3500 
L 3091 0 
L 2516 0 
L 2631 550 
Q 2388 244 2052 76 
Q 1716 -91 1338 -91 
Q 878 -91 622 161 
Q 366 413 366 863 
Q 366 956 381 1097 
Q 397 1238 428 1388 
z
" transform="scale(0.015625)"/>
     </defs>
     <use xlink:href="#DejaVuSans-Oblique-22"/>
     <use xlink:href="#DejaVuSans-Oblique-46" transform="translate(45.996094 0)"/>
     <use xlink:href="#DejaVuSans-Oblique-69" transform="translate(103.515625 0)"/>
     <use xlink:href="#DejaVuSans-Oblique-6e" transform="translate(131.298828 0)"/>
     <use xlink:href="#DejaVuSans-Oblique-64" transform="translate(194.677734 0)"/>
     <use xlink:href="#DejaVuSans-Oblique-20" transform="translate(258.154297 0)"/>
     <use xlink:href="#DejaVuSans-Oblique-70" transform="translate(289.941406 0)"/>
     <use xlink:href="#DejaVuSans-Oblique-61" transform="translate(353.417969 0)"/>
     <use xlink:href="#DejaVuSans-Oblique-74" transform="translate(414.697266 0)"/>
     <use xlink:href="#DejaVuSans-Oblique-74" transform="translate(453.90625 0)"/>
     <use xlink:href="#DejaVuSans-Oblique-65" transform="translate(493.115234 0)"/>
     <use xlink:href="#DejaVuSans-Oblique-72" transform="translate(554.638672 0)"/>
     <use xlink:href="#DejaVuSans-Oblique-6e" transform="translate(595.751953 0)"/>
     <use xlink:href="#DejaVuSans-Oblique-73" transform="translate(659.130859 0)"/>
     <use xlink:href="#DejaVuSans-Oblique-20" transform="translate(711.230469 0)"/>
     <use xlink:href="#DejaVuSans-Oblique-6f" transform="translate(743.017578 0)"/>
     <use xlink:href="#DejaVuSans-Oblique-6e" transform="translate(804.199219 0)"/>
     <use xlink:href="#DejaVuSans-Oblique-20" transform="translate(867.578125 0)"/>
     <use xlink:href="#DejaVuSans-Oblique-79" transform="translate(899.365234 0)"/>
     <use xlink:href="#DejaVuSans-Oblique-6f" transform="translate(958.544922 0)"/>
     <use xlink:href="#DejaVuSans-Oblique-75" transform="translate(1019.726562 0)"/>
     <use xlink:href="#DejaVuSans-Oblique-72" transform="translate(1083.105469 0)"/>
     <use xlink:href="#DejaVuSans-Oblique-20" transform="translate(1124.21875 0)"/>
     <use xlink:href="#DejaVuSans-Oblique-6f" transform="translate(1156.005859 0)"/>
     <use xlink:href="#DejaVuSans-Oblique-77" transform="translate(1217.1875 0)"/>
     <use xlink:href="#DejaVuSans-Oblique-6e" transform="translate(1298.974609 0)"/>
     <use xlink:href="#DejaVuSans-Oblique-22" transform="translate(1362.353516 0)"/>
    </g>
   </g>
   <g id="text_10">
    <!-- ? -->
    <g style="fill: #4a5568" transform="translate(364.375313 173.52) scale(0.12 -0.12)">
     <defs>
      <path id="DejaVuSans-3f" d="M 1222 794 
L 1856 794 
L 1856 0 
L 1222 0 
L 1222 794 
z
M 1838 1253 
L 1241 1253 
L 1241 1734 
Q 1241 2050 1328 2253 
Q 1416 2456 1697 2725 
L 1978 3003 
Q 2156 3169 2236 3316 
Q 2316 3463 2316 3616 
Q 2316 3894 2111 4066 
Q 1906 4238 1569 4238 
Q 1322 4238 1042 4128 
Q 763 4019 459 3809 
L 459 4397 
Q 753 4575 1054 4662 
Q 1356 4750 1678 4750 
Q 2253 4750 2601 4447 
Q 2950 4144 2950 3647 
Q 2950 3409 2837 3195 
Q 2725 2981 2444 2713 
L 2169 2444 
Q 2022 2297 1961 2214 
Q 1900 2131 1875 2053 
Q 1856 1988 1847 1894 
Q 1838 1800 1838 1638 
L 1838 1253 
z
" transform="scale(0.015625)"/>
     </defs>
     <use xlink:href="#DejaVuSans-3f"/>
    </g>
   </g>
   <g id="text_11">
    <!-- ? -->
    <g style="fill: #4a5568" transform="translate(491.887313 179.064) scale(0.12 -0.12)">
     <use xlink:href="#DejaVuSans-3f"/>
    </g>
   </g>
   <g id="PathCollection_1">
    <defs>
     <path id="meb79f3fc05" d="M 0 4.472136 
C 1.186024 4.472136 2.323632 4.000923 3.162278 3.162278 
C 4.000923 2.323632 4.472136 1.186024 4.472136 0 
C 4.472136 -1.186024 4.000923 -2.323632 3.162278 -3.162278 
C 2.323632 -4.000923 1.186024 -4.472136 0 -4.472136 
C -1.186024 -4.472136 -2.323632 -4.000923 -3.162278 -3.162278 
C -4.000923 -2.323632 -4.472136 -1.186024 -4.472136 0 
C -4.472136 1.186024 -4.000923 2.323632 -3.162278 3.162278 
C -2.323632 4.000923 -1.186024 4.472136 0 4.472136 
z
" style="stroke: #3b82f6"/>
    </defs>
    <g clip-path="url(#pb1d9cba012)">
     <use xlink:href="#meb79f3fc05" x="90.36" y="129.168" style="fill: #3b82f6; stroke: #3b82f6"/>
    </g>
   </g>
   <g id="PathCollection_2">
    <defs>
     <path id="md5b9784715" d="M 0 4.472136 
C 1.186024 4.472136 2.323632 4.000923 3.162278 3.162278 
C 4.000923 2.323632 4.472136 1.186024 4.472136 0 
C 4.472136 -1.186024 4.000923 -2.323632 3.162278 -3.162278 
C 2.323632 -4.000923 1.186024 -4.472136 0 -4.472136 
C -1.186024 -4.472136 -2.323632 -4.000923 -3.162278 -3.162278 
C -4.000923 -2.323632 -4.472136 -1.186024 -4.472136 0 
C -4.472136 1.186024 -4.000923 2.323632 -3.162278 3.162278 
C -2.323632 4.000923 -1.186024 4.472136 0 4.472136 
z
" style="stroke: #e85a4f"/>
    </defs>
    <g clip-path="url(#pb1d9cba012)">
     <use xlink:href="#md5b9784715" x="118.08" y="162.432" style="fill: #e85a4f; stroke: #e85a4f"/>
    </g>
   </g>
   <g id="PathCollection_3">
    <g clip-path="url(#pb1d9cba012)">
     <use xlink:href="#meb79f3fc05" x="173.52" y="145.8" style="fill: #3b82f6; stroke: #3b82f6"/>
    </g>
   </g>
   <g id="PathCollection_4">
    <g clip-path="url(#pb1d9cba012)">
     <use xlink:href="#md5b9784715" x="201.24" y="118.08" style="fill: #e85a4f; stroke: #e85a4f"/>
    </g>
   </g>
   <g id="PathCollection_5">
    <g clip-path="url(#pb1d9cba012)">
     <use xlink:href="#meb79f3fc05" x="228.96" y="156.888" style="fill: #3b82f6; stroke: #3b82f6"/>
    </g>
   </g>
   <g id="PathCollection_6">
    <defs>
     <path id="m7f6d0abf5b" d="M 0 4.472136 
C 1.186024 4.472136 2.323632 4.000923 3.162278 3.162278 
C 4.000923 2.323632 4.472136 1.186024 4.472136 0 
C 4.472136 -1.186024 4.000923 -2.323632 3.162278 -3.162278 
C 2.323632 -4.000923 1.186024 -4.472136 0 -4.472136 
C -1.186024 -4.472136 -2.323632 -4.000923 -3.162278 -3.162278 
C -4.000923 -2.323632 -4.472136 -1.186024 -4.472136 0 
C -4.472136 1.186024 -4.000923 2.323632 -3.162278 3.162278 
C -2.323632 4.000923 -1.186024 4.472136 0 4.472136 
z
" style="stroke: #94a3b8"/>
    </defs>
    <g clip-path="url(#pb1d9cba012)">
     <use xlink:href="#m7f6d0abf5b" x="356.472" y="129.168" style="fill: #94a3b8; stroke: #94a3b8"/>
    </g>
   </g>
   <g id="PathCollection_7">
    <g clip-path="url(#pb1d9cba012)">
     <use xlink:href="#m7f6d0abf5b" x="367.56" y="145.8" style="fill: #94a3b8; stroke: #94a3b8"/>
    </g>
   </g>
   <g id="PathCollection_8">
    <g clip-path="url(#pb1d9cba012)">
     <use xlink:href="#m7f6d0abf5b" x="384.192" y="134.712" style="fill: #94a3b8; stroke: #94a3b8"/>
    </g>
   </g>
   <g id="PathCollection_9">
    <g clip-path="url(#pb1d9cba012)">
     <use xlink:href="#m7f6d0abf5b" x="478.44" y="145.8" style="fill: #94a3b8; stroke: #94a3b8"/>
    </g>
   </g>
   <g id="PathCollection_10">
    <g clip-path="url(#pb1d9cba012)">
     <use xlink:href="#m7f6d0abf5b" x="495.072" y="162.432" style="fill: #94a3b8; stroke: #94a3b8"/>
    </g>
   </g>
   <g id="PathCollection_11">
    <g clip-path="url(#pb1d9cba012)">
     <use xlink:href="#m7f6d0abf5b" x="506.16" y="140.256" style="fill: #94a3b8; stroke: #94a3b8"/>
    </g>
   </g>
  </g>
 </g>
 <defs>
  <clipPath id="pb1d9cba012">
   <rect x="7.2" y="7.2" width="582.12" height="221.76"/>
  </clipPath>
 </defs>
</svg>
