<?xml version="1.0" encoding="utf-8" standalone="no"?>
<!DOCTYPE svg PUBLIC "-//W3C//DTD SVG 1.1//EN"
  "http://www.w3.org/Graphics/SVG/1.1/DTD/svg11.dtd">
<svg xmlns:xlink="http://www.w3.org/1999/xlink" width="992.013437pt" height="343.5735pt" viewBox="0 0 992.013437 343.5735" xmlns="http://www.w3.org/2000/svg" version="1.1">
 <metadata>
  <rdf:RDF xmlns:dc="http://purl.org/dc/elements/1.1/" xmlns:cc="http://creativecommons.org/ns#" xmlns:rdf="http://www.w3.org/1999/02/22-rdf-syntax-ns#">
   <cc:Work>
    <dc:type rdf:resource="http://purl.org/dc/dcmitype/StillImage"/>
    <dc:date>2026-03-07T12:06:03.749009</dc:date>
    <dc:format>image/svg+xml</dc:format>
    <dc:creator>
     <cc:Agent>
      <dc:title>Matplotlib v3.10.8, https://matplotlib.org/</dc:title>
     </cc:Agent>
    </dc:creator>
   </cc:Work>
  </rdf:RDF>
 </metadata>
 <defs>
  <style type="text/css">*{stroke-linejoin: round; stroke-linecap: butt}</style>
 </defs>
 <g id="figure_1">
  <g id="patch_1">
   <path d="M 0 343.5735 
L 992.013437 343.5735 
L 992.013437 0 
L 0 0 
z
" style="fill: #ffffff"/>
  </g>
  <g id="axes_1">
   <g id="patch_2">
    <path d="M 52.388438 298.27475 
L 494.223437 298.27475 
L 494.223437 39.51475 
L 52.388438 39.51475 
z
" style="fill: #ffffff"/>
   </g>
   <g id="matplotlib.axis_1">
    <g id="xtick_1">
     <g id="line2d_1">
      <path d="M 72.471847 298.27475 
L 72.471847 39.51475 
" clip-path="url(#p2ca3a79829)" style="fill: none; stroke: #b0b0b0; stroke-opacity: 0.3; stroke-width: 0.8; stroke-linecap: square"/>
     </g>
     <g id="line2d_2">
      <defs>
       <path id="mef35dc4ce3" d="M 0 0 
L 0 3.5 
" style="stroke: #000000; stroke-width: 0.8"/>
      </defs>
      <g>
       <use xlink:href="#mef35dc4ce3" x="72.471847" y="298.27475" style="stroke: #000000; stroke-width: 0.8"/>
      </g>
     </g>
     <g id="text_1">
      <!-- −3 -->
      <g transform="translate(62.152315 315.912562) scale(0.14 -0.14)">
       <defs>
        <path id="DejaVuSans-2212" d="M 678 2272 
L 4684 2272 
L 4684 1741 
L 678 1741 
L 678 2272 
z
" transform="scale(0.015625)"/>
        <path id="DejaVuSans-33" d="M 2597 2516 
Q 3050 2419 3304 2112 
Q 3559 1806 3559 1356 
Q 3559 666 3084 287 
Q 2609 -91 1734 -91 
Q 1441 -91 1130 -33 
Q 819 25 488 141 
L 488 750 
Q 750 597 1062 519 
Q 1375 441 1716 441 
Q 2309 441 2620 675 
Q 2931 909 2931 1356 
Q 2931 1769 2642 2001 
Q 2353 2234 1838 2234 
L 1294 2234 
L 1294 2753 
L 1863 2753 
Q 2328 2753 2575 2939 
Q 2822 3125 2822 3475 
Q 2822 3834 2567 4026 
Q 2313 4219 1838 4219 
Q 1578 4219 1281 4162 
Q 984 4106 628 3988 
L 628 4550 
Q 988 4650 1302 4700 
Q 1616 4750 1894 4750 
Q 2613 4750 3031 4423 
Q 3450 4097 3450 3541 
Q 3450 3153 3228 2886 
Q 3006 2619 2597 2516 
z
" transform="scale(0.015625)"/>
       </defs>
       <use xlink:href="#DejaVuSans-2212"/>
       <use xlink:href="#DejaVuSans-33" transform="translate(83.789062 0)"/>
      </g>
     </g>
    </g>
    <g id="xtick_2">
     <g id="line2d_3">
      <path d="M 139.416544 298.27475 
L 139.416544 39.51475 
" clip-path="url(#p2ca3a79829)" style="fill: none; stroke: #b0b0b0; stroke-opacity: 0.3; stroke-width: 0.8; stroke-linecap: square"/>
     </g>
     <g id="line2d_4">
      <g>
       <use xlink:href="#mef35dc4ce3" x="139.416544" y="298.27475" style="stroke: #000000; stroke-width: 0.8"/>
      </g>
     </g>
     <g id="text_2">
      <!-- −2 -->
      <g transform="translate(129.097012 315.912562) scale(0.14 -0.14)">
       <defs>
        <path id="DejaVuSans-32" d="M 1228 531 
L 3431 531 
L 3431 0 
L 469 0 
L 469 531 
Q 828 903 1448 1529 
Q 2069 2156 2228 2338 
Q 2531 2678 2651 2914 
Q 2772 3150 2772 3378 
Q 2772 3750 2511 3984 
Q 2250 4219 1831 4219 
Q 1534 4219 1204 4116 
Q 875 4013 500 3803 
L 500 4441 
Q 881 4594 1212 4672 
Q 1544 4750 1819 4750 
Q 2544 4750 2975 4387 
Q 3406 4025 3406 3419 
Q 3406 3131 3298 2873 
Q 3191 2616 2906 2266 
Q 2828 2175 2409 1742 
Q 1991 1309 1228 531 
z
" transform="scale(0.015625)"/>
       </defs>
       <use xlink:href="#DejaVuSans-2212"/>
       <use xlink:href="#DejaVuSans-32" transform="translate(83.789062 0)"/>
      </g>
     </g>
    </g>
    <g id="xtick_3">
     <g id="line2d_5">
      <path d="M 206.361241 298.27475 
L 206.361241 39.51475 
" clip-path="url(#p2ca3a79829)" style="fill: none; stroke: #b0b0b0; stroke-opacity: 0.3; stroke-width: 0.8; stroke-linecap: square"/>
     </g>
     <g id="line2d_6">
      <g>
       <use xlink:href="#mef35dc4ce3" x="206.361241" y="298.27475" style="stroke: #000000; stroke-width: 0.8"/>
      </g>
     </g>
     <g id="text_3">
      <!-- −1 -->
      <g transform="translate(196.041709 315.912562) scale(0.14 -0.14)">
       <defs>
        <path id="DejaVuSans-31" d="M 794 531 
L 1825 531 
L 1825 4091 
L 703 3866 
L 703 4441 
L 1819 4666 
L 2450 4666 
L 2450 531 
L 3481 531 
L 3481 0 
L 794 0 
L 794 531 
z
" transform="scale(0.015625)"/>
       </defs>
       <use xlink:href="#DejaVuSans-2212"/>
       <use xlink:href="#DejaVuSans-31" transform="translate(83.789062 0)"/>
      </g>
     </g>
    </g>
    <g id="xtick_4">
     <g id="line2d_7">
      <path d="M 273.305937 298.27475 
L 273.305937 39.51475 
" clip-path="url(#p2ca3a79829)" style="fill: none; stroke: #b0b0b0; stroke-opacity: 0.3; stroke-width: 0.8; stroke-linecap: square"/>
     </g>
     <g id="line2d_8">
      <g>
       <use xlink:href="#mef35dc4ce3" x="273.305937" y="298.27475" style="stroke: #000000; stroke-width: 0.8"/>
      </g>
     </g>
     <g id="text_4">
      <!-- 0 -->
      <g transform="translate(268.852187 315.912562) scale(0.14 -0.14)">
       <defs>
        <path id="DejaVuSans-30" d="M 2034 4250 
Q 1547 4250 1301 3770 
Q 1056 3291 1056 2328 
Q 1056 1369 1301 889 
Q 1547 409 2034 409 
Q 2525 409 2770 889 
Q 3016 1369 3016 2328 
Q 3016 3291 2770 3770 
Q 2525 4250 2034 4250 
z
M 2034 4750 
Q 2819 4750 3233 4129 
Q 3647 3509 3647 2328 
Q 3647 1150 3233 529 
Q 2819 -91 2034 -91 
Q 1250 -91 836 529 
Q 422 1150 422 2328 
Q 422 3509 836 4129 
Q 1250 4750 2034 4750 
z
" transform="scale(0.015625)"/>
       </defs>
       <use xlink:href="#DejaVuSans-30"/>
      </g>
     </g>
    </g>
    <g id="xtick_5">
     <g id="line2d_9">
      <path d="M 340.250634 298.27475 
L 340.250634 39.51475 
" clip-path="url(#p2ca3a79829)" style="fill: none; stroke: #b0b0b0; stroke-opacity: 0.3; stroke-width: 0.8; stroke-linecap: square"/>
     </g>
     <g id="line2d_10">
      <g>
       <use xlink:href="#mef35dc4ce3" x="340.250634" y="298.27475" style="stroke: #000000; stroke-width: 0.8"/>
      </g>
     </g>
     <g id="text_5">
      <!-- 1 -->
      <g transform="translate(335.796884 315.912562) scale(0.14 -0.14)">
       <use xlink:href="#DejaVuSans-31"/>
      </g>
     </g>
    </g>
    <g id="xtick_6">
     <g id="line2d_11">
      <path d="M 407.195331 298.27475 
L 407.195331 39.51475 
" clip-path="url(#p2ca3a79829)" style="fill: none; stroke: #b0b0b0; stroke-opacity: 0.3; stroke-width: 0.8; stroke-linecap: square"/>
     </g>
     <g id="line2d_12">
      <g>
       <use xlink:href="#mef35dc4ce3" x="407.195331" y="298.27475" style="stroke: #000000; stroke-width: 0.8"/>
      </g>
     </g>
     <g id="text_6">
      <!-- 2 -->
      <g transform="translate(402.741581 315.912562) scale(0.14 -0.14)">
       <use xlink:href="#DejaVuSans-32"/>
      </g>
     </g>
    </g>
    <g id="xtick_7">
     <g id="line2d_13">
      <path d="M 474.140028 298.27475 
L 474.140028 39.51475 
" clip-path="url(#p2ca3a79829)" style="fill: none; stroke: #b0b0b0; stroke-opacity: 0.3; stroke-width: 0.8; stroke-linecap: square"/>
     </g>
     <g id="line2d_14">
      <g>
       <use xlink:href="#mef35dc4ce3" x="474.140028" y="298.27475" style="stroke: #000000; stroke-width: 0.8"/>
      </g>
     </g>
     <g id="text_7">
      <!-- 3 -->
      <g transform="translate(469.686278 315.912562) scale(0.14 -0.14)">
       <use xlink:href="#DejaVuSans-33"/>
      </g>
     </g>
    </g>
    <g id="text_8">
     <!-- x -->
     <g transform="translate(269.162812 333.461937) scale(0.14 -0.14)">
      <defs>
       <path id="DejaVuSans-78" d="M 3513 3500 
L 2247 1797 
L 3578 0 
L 2900 0 
L 1881 1375 
L 863 0 
L 184 0 
L 1544 1831 
L 300 3500 
L 978 3500 
L 1906 2253 
L 2834 3500 
L 3513 3500 
z
" transform="scale(0.015625)"/>
      </defs>
      <use xlink:href="#DejaVuSans-78"/>
     </g>
    </g>
   </g>
   <g id="matplotlib.axis_2">
    <g id="ytick_1">
     <g id="line2d_15">
      <path d="M 52.388438 266.909902 
L 494.223437 266.909902 
" clip-path="url(#p2ca3a79829)" style="fill: none; stroke: #b0b0b0; stroke-opacity: 0.3; stroke-width: 0.8; stroke-linecap: square"/>
     </g>
     <g id="line2d_16">
      <defs>
       <path id="m9d2cf873b1" d="M 0 0 
L -3.5 0 
" style="stroke: #000000; stroke-width: 0.8"/>
      </defs>
      <g>
       <use xlink:href="#m9d2cf873b1" x="52.388438" y="266.909902" style="stroke: #000000; stroke-width: 0.8"/>
      </g>
     </g>
     <g id="text_9">
      <!-- −4 -->
      <g transform="translate(24.749375 272.228808) scale(0.14 -0.14)">
       <defs>
        <path id="DejaVuSans-34" d="M 2419 4116 
L 825 1625 
L 2419 1625 
L 2419 4116 
z
M 2253 4666 
L 3047 4666 
L 3047 1625 
L 3713 1625 
L 3713 1100 
L 3047 1100 
L 3047 0 
L 2419 0 
L 2419 1100 
L 313 1100 
L 313 1709 
L 2253 4666 
z
" transform="scale(0.015625)"/>
       </defs>
       <use xlink:href="#DejaVuSans-2212"/>
       <use xlink:href="#DejaVuSans-34" transform="translate(83.789062 0)"/>
      </g>
     </g>
    </g>
    <g id="ytick_2">
     <g id="line2d_17">
      <path d="M 52.388438 227.703841 
L 494.223437 227.703841 
" clip-path="url(#p2ca3a79829)" style="fill: none; stroke: #b0b0b0; stroke-opacity: 0.3; stroke-width: 0.8; stroke-linecap: square"/>
     </g>
     <g id="line2d_18">
      <g>
       <use xlink:href="#m9d2cf873b1" x="52.388438" y="227.703841" style="stroke: #000000; stroke-width: 0.8"/>
      </g>
     </g>
     <g id="text_10">
      <!-- −2 -->
      <g transform="translate(24.749375 233.022747) scale(0.14 -0.14)">
       <use xlink:href="#DejaVuSans-2212"/>
       <use xlink:href="#DejaVuSans-32" transform="translate(83.789062 0)"/>
      </g>
     </g>
    </g>
    <g id="ytick_3">
     <g id="line2d_19">
      <path d="M 52.388438 188.49778 
L 494.223437 188.49778 
" clip-path="url(#p2ca3a79829)" style="fill: none; stroke: #b0b0b0; stroke-opacity: 0.3; stroke-width: 0.8; stroke-linecap: square"/>
     </g>
     <g id="line2d_20">
      <g>
       <use xlink:href="#m9d2cf873b1" x="52.388438" y="188.49778" style="stroke: #000000; stroke-width: 0.8"/>
      </g>
     </g>
     <g id="text_11">
      <!-- 0 -->
      <g transform="translate(36.480938 193.816687) scale(0.14 -0.14)">
       <use xlink:href="#DejaVuSans-30"/>
      </g>
     </g>
    </g>
    <g id="ytick_4">
     <g id="line2d_21">
      <path d="M 52.388438 149.29172 
L 494.223437 149.29172 
" clip-path="url(#p2ca3a79829)" style="fill: none; stroke: #b0b0b0; stroke-opacity: 0.3; stroke-width: 0.8; stroke-linecap: square"/>
     </g>
     <g id="line2d_22">
      <g>
       <use xlink:href="#m9d2cf873b1" x="52.388438" y="149.29172" style="stroke: #000000; stroke-width: 0.8"/>
      </g>
     </g>
     <g id="text_12">
      <!-- 2 -->
      <g transform="translate(36.480938 154.610626) scale(0.14 -0.14)">
       <use xlink:href="#DejaVuSans-32"/>
      </g>
     </g>
    </g>
    <g id="ytick_5">
     <g id="line2d_23">
      <path d="M 52.388438 110.085659 
L 494.223437 110.085659 
" clip-path="url(#p2ca3a79829)" style="fill: none; stroke: #b0b0b0; stroke-opacity: 0.3; stroke-width: 0.8; stroke-linecap: square"/>
     </g>
     <g id="line2d_24">
      <g>
       <use xlink:href="#m9d2cf873b1" x="52.388438" y="110.085659" style="stroke: #000000; stroke-width: 0.8"/>
      </g>
     </g>
     <g id="text_13">
      <!-- 4 -->
      <g transform="translate(36.480938 115.404565) scale(0.14 -0.14)">
       <use xlink:href="#DejaVuSans-34"/>
      </g>
     </g>
    </g>
    <g id="ytick_6">
     <g id="line2d_25">
      <path d="M 52.388438 70.879598 
L 494.223437 70.879598 
" clip-path="url(#p2ca3a79829)" style="fill: none; stroke: #b0b0b0; stroke-opacity: 0.3; stroke-width: 0.8; stroke-linecap: square"/>
     </g>
     <g id="line2d_26">
      <g>
       <use xlink:href="#m9d2cf873b1" x="52.388438" y="70.879598" style="stroke: #000000; stroke-width: 0.8"/>
      </g>
     </g>
     <g id="text_14">
      <!-- 6 -->
      <g transform="translate(36.480938 76.198505) scale(0.14 -0.14)">
       <defs>
        <path id="DejaVuSans-36" d="M 2113 2584 
Q 1688 2584 1439 2293 
Q 1191 2003 1191 1497 
Q 1191 994 1439 701 
Q 1688 409 2113 409 
Q 2538 409 2786 701 
Q 3034 994 3034 1497 
Q 3034 2003 2786 2293 
Q 2538 2584 2113 2584 
z
M 3366 4563 
L 3366 3988 
Q 3128 4100 2886 4159 
Q 2644 4219 2406 4219 
Q 1781 4219 1451 3797 
Q 1122 3375 1075 2522 
Q 1259 2794 1537 2939 
Q 1816 3084 2150 3084 
Q 2853 3084 3261 2657 
Q 3669 2231 3669 1497 
Q 3669 778 3244 343 
Q 2819 -91 2113 -91 
Q 1303 -91 875 529 
Q 447 1150 447 2328 
Q 447 3434 972 4092 
Q 1497 4750 2381 4750 
Q 2619 4750 2861 4703 
Q 3103 4656 3366 4563 
z
" transform="scale(0.015625)"/>
       </defs>
       <use xlink:href="#DejaVuSans-36"/>
      </g>
     </g>
    </g>
    <g id="text_15">
     <!-- y -->
     <g transform="translate(17.837812 173.037875) rotate(-90) scale(0.14 -0.14)">
      <defs>
       <path id="DejaVuSans-79" d="M 2059 -325 
Q 1816 -950 1584 -1140 
Q 1353 -1331 966 -1331 
L 506 -1331 
L 506 -850 
L 844 -850 
Q 1081 -850 1212 -737 
Q 1344 -625 1503 -206 
L 1606 56 
L 191 3500 
L 800 3500 
L 1894 763 
L 2988 3500 
L 3597 3500 
L 2059 -325 
z
" transform="scale(0.015625)"/>
      </defs>
      <use xlink:href="#DejaVuSans-79"/>
     </g>
    </g>
   </g>
   <g id="line2d_27">
    <path d="M 72.471847 286.512932 
L 76.529101 284.136807 
L 80.586355 281.760682 
L 84.64361 279.384557 
L 88.700864 277.008432 
L 92.758118 274.632307 
L 96.815373 272.256183 
L 100.872627 269.880058 
L 104.929881 267.503933 
L 108.987136 265.127808 
L 113.04439 262.751683 
L 117.101645 260.375558 
L 121.158899 257.999433 
L 125.216153 255.623308 
L 129.273408 253.247183 
L 133.330662 250.871059 
L 137.387916 248.494934 
L 141.445171 246.118809 
L 145.502425 243.742684 
L 149.559679 241.366559 
L 153.616934 238.990434 
L 157.674188 236.614309 
L 161.731443 234.238184 
L 165.788697 231.862059 
L 169.845951 229.485935 
L 173.903206 227.10981 
L 177.96046 224.733685 
L 182.017714 222.35756 
L 186.074969 219.981435 
L 190.132223 217.60531 
L 194.189477 215.229185 
L 198.246732 212.85306 
L 202.303986 210.476935 
L 206.361241 208.100811 
L 210.418495 205.724686 
L 214.475749 203.348561 
L 218.533004 200.972436 
L 222.590258 198.596311 
L 226.647512 196.220186 
L 230.704767 193.844061 
L 234.762021 191.467936 
L 238.819275 189.091812 
L 242.87653 186.715687 
L 246.933784 184.339562 
L 250.991039 181.963437 
L 255.048293 179.587312 
L 259.105547 177.211187 
L 263.162802 174.835062 
L 267.220056 172.458937 
L 271.27731 170.082812 
L 275.334565 167.706688 
L 279.391819 165.330563 
L 283.449073 162.954438 
L 287.506328 160.578313 
L 291.563582 158.202188 
L 295.620836 155.826063 
L 299.678091 153.449938 
L 303.735345 151.073813 
L 307.7926 148.697688 
L 311.849854 146.321564 
L 315.907108 143.945439 
L 319.964363 141.569314 
L 324.021617 139.193189 
L 328.078871 136.817064 
L 332.136126 134.440939 
L 336.19338 132.064814 
L 340.250634 129.688689 
L 344.307889 127.312565 
L 348.365143 124.93644 
L 352.422398 122.560315 
L 356.479652 120.18419 
L 360.536906 117.808065 
L 364.594161 115.43194 
L 368.651415 113.055815 
L 372.708669 110.67969 
L 376.765924 108.303565 
L 380.823178 105.927441 
L 384.880432 103.551316 
L 388.937687 101.175191 
L 392.994941 98.799066 
L 397.052196 96.422941 
L 401.10945 94.046816 
L 405.166704 91.670691 
L 409.223959 89.294566 
L 413.281213 86.918441 
L 417.338467 84.542317 
L 421.395722 82.166192 
L 425.452976 79.790067 
L 429.51023 77.413942 
L 433.567485 75.037817 
L 437.624739 72.661692 
L 441.681994 70.285567 
L 445.739248 67.909442 
L 449.796502 65.533317 
L 453.853757 63.157193 
L 457.911011 60.781068 
L 461.968265 58.404943 
L 466.02552 56.028818 
L 470.082774 53.652693 
L 474.140028 51.276568 
" clip-path="url(#p2ca3a79829)" style="fill: none; stroke: #0000ff; stroke-opacity: 0.5; stroke-width: 2; stroke-linecap: square"/>
   </g>
   <g id="line2d_28">
    <path d="M 72.471847 243.386265 
L 76.529101 242.198203 
L 80.586355 241.01014 
L 84.64361 239.822078 
L 88.700864 238.634015 
L 92.758118 237.445953 
L 96.815373 236.25789 
L 100.872627 235.069828 
L 104.929881 233.881766 
L 108.987136 232.693703 
L 113.04439 231.505641 
L 117.101645 230.317578 
L 121.158899 229.129516 
L 125.216153 227.941453 
L 129.273408 226.753391 
L 133.330662 225.565329 
L 137.387916 224.377266 
L 141.445171 223.189204 
L 145.502425 222.001141 
L 149.559679 220.813079 
L 153.616934 219.625016 
L 157.674188 218.436954 
L 161.731443 217.248891 
L 165.788697 216.060829 
L 169.845951 214.872767 
L 173.903206 213.684704 
L 177.96046 212.496642 
L 182.017714 211.308579 
L 186.074969 210.120517 
L 190.132223 208.932454 
L 194.189477 207.744392 
L 198.246732 206.556329 
L 202.303986 205.368267 
L 206.361241 204.180205 
L 210.418495 202.992142 
L 214.475749 201.80408 
L 218.533004 200.616017 
L 222.590258 199.427955 
L 226.647512 198.239892 
L 230.704767 197.05183 
L 234.762021 195.863767 
L 238.819275 194.675705 
L 242.87653 193.487643 
L 246.933784 192.29958 
L 250.991039 191.111518 
L 255.048293 189.923455 
L 259.105547 188.735393 
L 263.162802 187.54733 
L 267.220056 186.359268 
L 271.27731 185.171205 
L 275.334565 183.983143 
L 279.391819 182.795081 
L 283.449073 181.607018 
L 287.506328 180.418956 
L 291.563582 179.230893 
L 295.620836 178.042831 
L 299.678091 176.854768 
L 303.735345 175.666706 
L 307.7926 174.478643 
L 311.849854 173.290581 
L 315.907108 172.102519 
L 319.964363 170.914456 
L 324.021617 169.726394 
L 328.078871 168.538331 
L 332.136126 167.350269 
L 336.19338 166.162206 
L 340.250634 164.974144 
L 344.307889 163.786081 
L 348.365143 162.598019 
L 352.422398 161.409957 
L 356.479652 160.221894 
L 360.536906 159.033832 
L 364.594161 157.845769 
L 368.651415 156.657707 
L 372.708669 155.469644 
L 376.765924 154.281582 
L 380.823178 153.09352 
L 384.880432 151.905457 
L 388.937687 150.717395 
L 392.994941 149.529332 
L 397.052196 148.34127 
L 401.10945 147.153207 
L 405.166704 145.965145 
L 409.223959 144.777082 
L 413.281213 143.58902 
L 417.338467 142.400958 
L 421.395722 141.212895 
L 425.452976 140.024833 
L 429.51023 138.83677 
L 433.567485 137.648708 
L 437.624739 136.460645 
L 441.681994 135.272583 
L 445.739248 134.08452 
L 449.796502 132.896458 
L 453.853757 131.708396 
L 457.911011 130.520333 
L 461.968265 129.332271 
L 466.02552 128.144208 
L 470.082774 126.956146 
L 474.140028 125.768083 
" clip-path="url(#p2ca3a79829)" style="fill: none; stroke: #ff0000; stroke-opacity: 0.5; stroke-width: 2; stroke-linecap: square"/>
   </g>
   <g id="line2d_29">
    <path d="M 72.471847 243.386265 
L 76.529101 242.198203 
L 80.586355 241.01014 
L 84.64361 239.822078 
L 88.700864 238.634015 
L 92.758118 237.445953 
L 96.815373 236.25789 
L 100.872627 235.069828 
L 104.929881 233.881766 
L 108.987136 232.693703 
L 113.04439 231.505641 
L 117.101645 230.317578 
L 121.158899 229.129516 
L 125.216153 227.941453 
L 129.273408 226.753391 
L 133.330662 225.565329 
L 137.387916 224.377266 
L 141.445171 223.189204 
L 145.502425 222.001141 
L 149.559679 220.813079 
L 153.616934 219.625016 
L 157.674188 218.436954 
L 161.731443 217.248891 
L 165.788697 216.060829 
L 169.845951 214.872767 
L 173.903206 213.684704 
L 177.96046 212.496642 
L 182.017714 211.308579 
L 186.074969 210.120517 
L 190.132223 208.932454 
L 194.189477 207.744392 
L 198.246732 206.556329 
L 202.303986 205.368267 
L 206.361241 204.180205 
L 210.418495 202.992142 
L 214.475749 201.80408 
L 218.533004 200.616017 
L 222.590258 199.427955 
L 226.647512 198.239892 
L 230.704767 197.05183 
L 234.762021 195.863767 
L 238.819275 194.675705 
L 242.87653 193.487643 
L 246.933784 192.29958 
L 250.991039 191.111518 
L 255.048293 189.923455 
L 259.105547 188.735393 
L 263.162802 187.54733 
L 267.220056 186.359268 
L 271.27731 185.171205 
L 275.334565 183.983143 
L 279.391819 182.795081 
L 283.449073 181.607018 
L 287.506328 180.418956 
L 291.563582 179.230893 
L 295.620836 178.042831 
L 299.678091 176.854768 
L 303.735345 175.666706 
L 307.7926 174.478643 
L 311.849854 173.290581 
L 315.907108 172.102519 
L 319.964363 170.914456 
L 324.021617 169.726394 
L 328.078871 168.538331 
L 332.136126 167.350269 
L 336.19338 166.162206 
L 340.250634 164.974144 
L 344.307889 163.786081 
L 348.365143 162.598019 
L 352.422398 161.409957 
L 356.479652 160.221894 
L 360.536906 159.033832 
L 364.594161 157.845769 
L 368.651415 156.657707 
L 372.708669 155.469644 
L 376.765924 154.281582 
L 380.823178 153.09352 
L 384.880432 151.905457 
L 388.937687 150.717395 
L 392.994941 149.529332 
L 397.052196 148.34127 
L 401.10945 147.153207 
L 405.166704 145.965145 
L 409.223959 144.777082 
L 413.281213 143.58902 
L 417.338467 142.400958 
L 421.395722 141.212895 
L 425.452976 140.024833 
L 429.51023 138.83677 
L 433.567485 137.648708 
L 437.624739 136.460645 
L 441.681994 135.272583 
L 445.739248 134.08452 
L 449.796502 132.896458 
L 453.853757 131.708396 
L 457.911011 130.520333 
L 461.968265 129.332271 
L 466.02552 128.144208 
L 470.082774 126.956146 
L 474.140028 125.768083 
" clip-path="url(#p2ca3a79829)" style="fill: none; stroke-dasharray: 11.1,4.8; stroke-dashoffset: 0; stroke: #800080; stroke-width: 3"/>
   </g>
   <g id="patch_3">
    <path d="M 52.388438 298.27475 
L 52.388438 39.51475 
" style="fill: none; stroke: #000000; stroke-width: 0.8; stroke-linejoin: miter; stroke-linecap: square"/>
   </g>
   <g id="patch_4">
    <path d="M 494.223437 298.27475 
L 494.223437 39.51475 
" style="fill: none; stroke: #000000; stroke-width: 0.8; stroke-linejoin: miter; stroke-linecap: square"/>
   </g>
   <g id="patch_5">
    <path d="M 52.388438 298.27475 
L 494.223437 298.27475 
" style="fill: none; stroke: #000000; stroke-width: 0.8; stroke-linejoin: miter; stroke-linecap: square"/>
   </g>
   <g id="patch_6">
    <path d="M 52.388438 39.51475 
L 494.223437 39.51475 
" style="fill: none; stroke: #000000; stroke-width: 0.8; stroke-linejoin: miter; stroke-linecap: square"/>
   </g>
   <g id="text_16">
    <!-- Without Activation: -->
    <g style="fill: #e85a4f" transform="translate(196.345312 17.837812) scale(0.14 -0.14)">
     <defs>
      <path id="DejaVuSans-Bold-57" d="M 191 4666 
L 1344 4666 
L 2150 1275 
L 2950 4666 
L 4109 4666 
L 4909 1275 
L 5716 4666 
L 6859 4666 
L 5759 0 
L 4372 0 
L 3525 3547 
L 2688 0 
L 1300 0 
L 191 4666 
z
" transform="scale(0.015625)"/>
      <path id="DejaVuSans-Bold-69" d="M 538 3500 
L 1656 3500 
L 1656 0 
L 538 0 
L 538 3500 
z
M 538 4863 
L 1656 4863 
L 1656 3950 
L 538 3950 
L 538 4863 
z
" transform="scale(0.015625)"/>
      <path id="DejaVuSans-Bold-74" d="M 1759 4494 
L 1759 3500 
L 2913 3500 
L 2913 2700 
L 1759 2700 
L 1759 1216 
Q 1759 972 1856 886 
Q 1953 800 2241 800 
L 2816 800 
L 2816 0 
L 1856 0 
Q 1194 0 917 276 
Q 641 553 641 1216 
L 641 2700 
L 84 2700 
L 84 3500 
L 641 3500 
L 641 4494 
L 1759 4494 
z
" transform="scale(0.015625)"/>
      <path id="DejaVuSans-Bold-68" d="M 4056 2131 
L 4056 0 
L 2931 0 
L 2931 347 
L 2931 1625 
Q 2931 2084 2911 2256 
Q 2891 2428 2841 2509 
Q 2775 2619 2662 2680 
Q 2550 2741 2406 2741 
Q 2056 2741 1856 2470 
Q 1656 2200 1656 1722 
L 1656 0 
L 538 0 
L 538 4863 
L 1656 4863 
L 1656 2988 
Q 1909 3294 2193 3439 
Q 2478 3584 2822 3584 
Q 3428 3584 3742 3212 
Q 4056 2841 4056 2131 
z
" transform="scale(0.015625)"/>
      <path id="DejaVuSans-Bold-6f" d="M 2203 2784 
Q 1831 2784 1636 2517 
Q 1441 2250 1441 1747 
Q 1441 1244 1636 976 
Q 1831 709 2203 709 
Q 2569 709 2762 976 
Q 2956 1244 2956 1747 
Q 2956 2250 2762 2517 
Q 2569 2784 2203 2784 
z
M 2203 3584 
Q 3106 3584 3614 3096 
Q 4122 2609 4122 1747 
Q 4122 884 3614 396 
Q 3106 -91 2203 -91 
Q 1297 -91 786 396 
Q 275 884 275 1747 
Q 275 2609 786 3096 
Q 1297 3584 2203 3584 
z
" transform="scale(0.015625)"/>
      <path id="DejaVuSans-Bold-75" d="M 500 1363 
L 500 3500 
L 1625 3500 
L 1625 3150 
Q 1625 2866 1622 2436 
Q 1619 2006 1619 1863 
Q 1619 1441 1641 1255 
Q 1663 1069 1716 984 
Q 1784 875 1895 815 
Q 2006 756 2150 756 
Q 2500 756 2700 1025 
Q 2900 1294 2900 1772 
L 2900 3500 
L 4019 3500 
L 4019 0 
L 2900 0 
L 2900 506 
Q 2647 200 2364 54 
Q 2081 -91 1741 -91 
Q 1134 -91 817 281 
Q 500 653 500 1363 
z
" transform="scale(0.015625)"/>
      <path id="DejaVuSans-Bold-20" transform="scale(0.015625)"/>
      <path id="DejaVuSans-Bold-41" d="M 3419 850 
L 1538 850 
L 1241 0 
L 31 0 
L 1759 4666 
L 3194 4666 
L 4922 0 
L 3713 0 
L 3419 850 
z
M 1838 1716 
L 3116 1716 
L 2478 3572 
L 1838 1716 
z
" transform="scale(0.015625)"/>
      <path id="DejaVuSans-Bold-63" d="M 3366 3391 
L 3366 2478 
Q 3138 2634 2908 2709 
Q 2678 2784 2431 2784 
Q 1963 2784 1702 2511 
Q 1441 2238 1441 1747 
Q 1441 1256 1702 982 
Q 1963 709 2431 709 
Q 2694 709 2930 787 
Q 3166 866 3366 1019 
L 3366 103 
Q 3103 6 2833 -42 
Q 2563 -91 2291 -91 
Q 1344 -91 809 395 
Q 275 881 275 1747 
Q 275 2613 809 3098 
Q 1344 3584 2291 3584 
Q 2566 3584 2833 3536 
Q 3100 3488 3366 3391 
z
" transform="scale(0.015625)"/>
      <path id="DejaVuSans-Bold-76" d="M 97 3500 
L 1216 3500 
L 2088 1081 
L 2956 3500 
L 4078 3500 
L 2700 0 
L 1472 0 
L 97 3500 
z
" transform="scale(0.015625)"/>
      <path id="DejaVuSans-Bold-61" d="M 2106 1575 
Q 1756 1575 1579 1456 
Q 1403 1338 1403 1106 
Q 1403 894 1545 773 
Q 1688 653 1941 653 
Q 2256 653 2472 879 
Q 2688 1106 2688 1447 
L 2688 1575 
L 2106 1575 
z
M 3816 1997 
L 3816 0 
L 2688 0 
L 2688 519 
Q 2463 200 2181 54 
Q 1900 -91 1497 -91 
Q 953 -91 614 226 
Q 275 544 275 1050 
Q 275 1666 698 1953 
Q 1122 2241 2028 2241 
L 2688 2241 
L 2688 2328 
Q 2688 2594 2478 2717 
Q 2269 2841 1825 2841 
Q 1466 2841 1156 2769 
Q 847 2697 581 2553 
L 581 3406 
Q 941 3494 1303 3539 
Q 1666 3584 2028 3584 
Q 2975 3584 3395 3211 
Q 3816 2838 3816 1997 
z
" transform="scale(0.015625)"/>
      <path id="DejaVuSans-Bold-6e" d="M 4056 2131 
L 4056 0 
L 2931 0 
L 2931 347 
L 2931 1631 
Q 2931 2084 2911 2256 
Q 2891 2428 2841 2509 
Q 2775 2619 2662 2680 
Q 2550 2741 2406 2741 
Q 2056 2741 1856 2470 
Q 1656 2200 1656 1722 
L 1656 0 
L 538 0 
L 538 3500 
L 1656 3500 
L 1656 2988 
Q 1909 3294 2193 3439 
Q 2478 3584 2822 3584 
Q 3428 3584 3742 3212 
Q 4056 2841 4056 2131 
z
" transform="scale(0.015625)"/>
      <path id="DejaVuSans-Bold-3a" d="M 716 3500 
L 1844 3500 
L 1844 2291 
L 716 2291 
L 716 3500 
z
M 716 1209 
L 1844 1209 
L 1844 0 
L 716 0 
L 716 1209 
z
" transform="scale(0.015625)"/>
     </defs>
     <use xlink:href="#DejaVuSans-Bold-57"/>
     <use xlink:href="#DejaVuSans-Bold-69" transform="translate(110.302734 0)"/>
     <use xlink:href="#DejaVuSans-Bold-74" transform="translate(144.580078 0)"/>
     <use xlink:href="#DejaVuSans-Bold-68" transform="translate(192.382812 0)"/>
     <use xlink:href="#DejaVuSans-Bold-6f" transform="translate(263.574219 0)"/>
     <use xlink:href="#DejaVuSans-Bold-75" transform="translate(332.275391 0)"/>
     <use xlink:href="#DejaVuSans-Bold-74" transform="translate(403.466797 0)"/>
     <use xlink:href="#DejaVuSans-Bold-20" transform="translate(451.269531 0)"/>
     <use xlink:href="#DejaVuSans-Bold-41" transform="translate(486.083984 0)"/>
     <use xlink:href="#DejaVuSans-Bold-63" transform="translate(563.476562 0)"/>
     <use xlink:href="#DejaVuSans-Bold-74" transform="translate(622.753906 0)"/>
     <use xlink:href="#DejaVuSans-Bold-69" transform="translate(670.556641 0)"/>
     <use xlink:href="#DejaVuSans-Bold-76" transform="translate(704.833984 0)"/>
     <use xlink:href="#DejaVuSans-Bold-61" transform="translate(770.019531 0)"/>
     <use xlink:href="#DejaVuSans-Bold-74" transform="translate(837.5 0)"/>
     <use xlink:href="#DejaVuSans-Bold-69" transform="translate(885.302734 0)"/>
     <use xlink:href="#DejaVuSans-Bold-6f" transform="translate(919.580078 0)"/>
     <use xlink:href="#DejaVuSans-Bold-6e" transform="translate(988.28125 0)"/>
     <use xlink:href="#DejaVuSans-Bold-3a" transform="translate(1059.472656 0)"/>
    </g>
    <!-- 100 layers = 1 line -->
    <g style="fill: #e85a4f" transform="translate(199.846406 33.51475) scale(0.14 -0.14)">
     <defs>
      <path id="DejaVuSans-Bold-31" d="M 750 831 
L 1813 831 
L 1813 3847 
L 722 3622 
L 722 4441 
L 1806 4666 
L 2950 4666 
L 2950 831 
L 4013 831 
L 4013 0 
L 750 0 
L 750 831 
z
" transform="scale(0.015625)"/>
      <path id="DejaVuSans-Bold-30" d="M 2944 2338 
Q 2944 3213 2780 3570 
Q 2616 3928 2228 3928 
Q 1841 3928 1675 3570 
Q 1509 3213 1509 2338 
Q 1509 1453 1675 1090 
Q 1841 728 2228 728 
Q 2613 728 2778 1090 
Q 2944 1453 2944 2338 
z
M 4147 2328 
Q 4147 1169 3647 539 
Q 3147 -91 2228 -91 
Q 1306 -91 806 539 
Q 306 1169 306 2328 
Q 306 3491 806 4120 
Q 1306 4750 2228 4750 
Q 3147 4750 3647 4120 
Q 4147 3491 4147 2328 
z
" transform="scale(0.015625)"/>
      <path id="DejaVuSans-Bold-6c" d="M 538 4863 
L 1656 4863 
L 1656 0 
L 538 0 
L 538 4863 
z
" transform="scale(0.015625)"/>
      <path id="DejaVuSans-Bold-79" d="M 78 3500 
L 1197 3500 
L 2138 1125 
L 2938 3500 
L 4056 3500 
L 2584 -331 
Q 2363 -916 2067 -1148 
Q 1772 -1381 1288 -1381 
L 641 -1381 
L 641 -647 
L 991 -647 
Q 1275 -647 1404 -556 
Q 1534 -466 1606 -231 
L 1638 -134 
L 78 3500 
z
" transform="scale(0.015625)"/>
      <path id="DejaVuSans-Bold-65" d="M 4031 1759 
L 4031 1441 
L 1416 1441 
Q 1456 1047 1700 850 
Q 1944 653 2381 653 
Q 2734 653 3104 758 
Q 3475 863 3866 1075 
L 3866 213 
Q 3469 63 3072 -14 
Q 2675 -91 2278 -91 
Q 1328 -91 801 392 
Q 275 875 275 1747 
Q 275 2603 792 3093 
Q 1309 3584 2216 3584 
Q 3041 3584 3536 3087 
Q 4031 2591 4031 1759 
z
M 2881 2131 
Q 2881 2450 2695 2645 
Q 2509 2841 2209 2841 
Q 1884 2841 1681 2658 
Q 1478 2475 1428 2131 
L 2881 2131 
z
" transform="scale(0.015625)"/>
      <path id="DejaVuSans-Bold-72" d="M 3138 2547 
Q 2991 2616 2845 2648 
Q 2700 2681 2553 2681 
Q 2122 2681 1889 2404 
Q 1656 2128 1656 1613 
L 1656 0 
L 538 0 
L 538 3500 
L 1656 3500 
L 1656 2925 
Q 1872 3269 2151 3426 
Q 2431 3584 2822 3584 
Q 2878 3584 2943 3579 
Q 3009 3575 3134 3559 
L 3138 2547 
z
" transform="scale(0.015625)"/>
      <path id="DejaVuSans-Bold-73" d="M 3272 3391 
L 3272 2541 
Q 2913 2691 2578 2766 
Q 2244 2841 1947 2841 
Q 1628 2841 1473 2761 
Q 1319 2681 1319 2516 
Q 1319 2381 1436 2309 
Q 1553 2238 1856 2203 
L 2053 2175 
Q 2913 2066 3209 1816 
Q 3506 1566 3506 1031 
Q 3506 472 3093 190 
Q 2681 -91 1863 -91 
Q 1516 -91 1145 -36 
Q 775 19 384 128 
L 384 978 
Q 719 816 1070 734 
Q 1422 653 1784 653 
Q 2113 653 2278 743 
Q 2444 834 2444 1013 
Q 2444 1163 2330 1236 
Q 2216 1309 1875 1350 
L 1678 1375 
Q 931 1469 631 1722 
Q 331 1975 331 2491 
Q 331 3047 712 3315 
Q 1094 3584 1881 3584 
Q 2191 3584 2531 3537 
Q 2872 3491 3272 3391 
z
" transform="scale(0.015625)"/>
      <path id="DejaVuSans-Bold-3d" d="M 678 3084 
L 4684 3084 
L 4684 2350 
L 678 2350 
L 678 3084 
z
M 678 1663 
L 4684 1663 
L 4684 922 
L 678 922 
L 678 1663 
z
" transform="scale(0.015625)"/>
     </defs>
     <use xlink:href="#DejaVuSans-Bold-31"/>
     <use xlink:href="#DejaVuSans-Bold-30" transform="translate(69.580078 0)"/>
     <use xlink:href="#DejaVuSans-Bold-30" transform="translate(139.160156 0)"/>
     <use xlink:href="#DejaVuSans-Bold-20" transform="translate(208.740234 0)"/>
     <use xlink:href="#DejaVuSans-Bold-6c" transform="translate(243.554688 0)"/>
     <use xlink:href="#DejaVuSans-Bold-61" transform="translate(277.832031 0)"/>
     <use xlink:href="#DejaVuSans-Bold-79" transform="translate(342.1875 0)"/>
     <use xlink:href="#DejaVuSans-Bold-65" transform="translate(407.373047 0)"/>
     <use xlink:href="#DejaVuSans-Bold-72" transform="translate(475.195312 0)"/>
     <use xlink:href="#DejaVuSans-Bold-73" transform="translate(524.511719 0)"/>
     <use xlink:href="#DejaVuSans-Bold-20" transform="translate(584.033203 0)"/>
     <use xlink:href="#DejaVuSans-Bold-3d" transform="translate(618.847656 0)"/>
     <use xlink:href="#DejaVuSans-Bold-20" transform="translate(702.636719 0)"/>
     <use xlink:href="#DejaVuSans-Bold-31" transform="translate(737.451172 0)"/>
     <use xlink:href="#DejaVuSans-Bold-20" transform="translate(807.03125 0)"/>
     <use xlink:href="#DejaVuSans-Bold-6c" transform="translate(841.845703 0)"/>
     <use xlink:href="#DejaVuSans-Bold-69" transform="translate(876.123047 0)"/>
     <use xlink:href="#DejaVuSans-Bold-6e" transform="translate(910.400391 0)"/>
     <use xlink:href="#DejaVuSans-Bold-65" transform="translate(981.591797 0)"/>
    </g>
   </g>
   <g id="legend_1">
    <g id="patch_7">
     <path d="M 59.388438 91.549125 
L 269.874375 91.549125 
Q 271.874375 91.549125 271.874375 89.549125 
L 271.874375 46.51475 
Q 271.874375 44.51475 269.874375 44.51475 
L 59.388438 44.51475 
Q 57.388438 44.51475 57.388438 46.51475 
L 57.388438 89.549125 
Q 57.388438 91.549125 59.388438 91.549125 
z
" style="fill: #ffffff; opacity: 0.8; stroke: #cccccc; stroke-linejoin: miter"/>
    </g>
    <g id="line2d_30">
     <path d="M 61.388438 52.613187 
L 71.388438 52.613187 
L 81.388438 52.613187 
" style="fill: none; stroke: #0000ff; stroke-opacity: 0.5; stroke-width: 2; stroke-linecap: square"/>
    </g>
    <g id="text_17">
     <!-- Layer 1: y = 2x + 1 -->
     <g transform="translate(89.388438 56.113187) scale(0.1 -0.1)">
      <defs>
       <path id="DejaVuSans-4c" d="M 628 4666 
L 1259 4666 
L 1259 531 
L 3531 531 
L 3531 0 
L 628 0 
L 628 4666 
z
" transform="scale(0.015625)"/>
       <path id="DejaVuSans-61" d="M 2194 1759 
Q 1497 1759 1228 1600 
Q 959 1441 959 1056 
Q 959 750 1161 570 
Q 1363 391 1709 391 
Q 2188 391 2477 730 
Q 2766 1069 2766 1631 
L 2766 1759 
L 2194 1759 
z
M 3341 1997 
L 3341 0 
L 2766 0 
L 2766 531 
Q 2569 213 2275 61 
Q 1981 -91 1556 -91 
Q 1019 -91 701 211 
Q 384 513 384 1019 
Q 384 1609 779 1909 
Q 1175 2209 1959 2209 
L 2766 2209 
L 2766 2266 
Q 2766 2663 2505 2880 
Q 2244 3097 1772 3097 
Q 1472 3097 1187 3025 
Q 903 2953 641 2809 
L 641 3341 
Q 956 3463 1253 3523 
Q 1550 3584 1831 3584 
Q 2591 3584 2966 3190 
Q 3341 2797 3341 1997 
z
" transform="scale(0.015625)"/>
       <path id="DejaVuSans-65" d="M 3597 1894 
L 3597 1613 
L 953 1613 
Q 991 1019 1311 708 
Q 1631 397 2203 397 
Q 2534 397 2845 478 
Q 3156 559 3463 722 
L 3463 178 
Q 3153 47 2828 -22 
Q 2503 -91 2169 -91 
Q 1331 -91 842 396 
Q 353 884 353 1716 
Q 353 2575 817 3079 
Q 1281 3584 2069 3584 
Q 2775 3584 3186 3129 
Q 3597 2675 3597 1894 
z
M 3022 2063 
Q 3016 2534 2758 2815 
Q 2500 3097 2075 3097 
Q 1594 3097 1305 2825 
Q 1016 2553 972 2059 
L 3022 2063 
z
" transform="scale(0.015625)"/>
       <path id="DejaVuSans-72" d="M 2631 2963 
Q 2534 3019 2420 3045 
Q 2306 3072 2169 3072 
Q 1681 3072 1420 2755 
Q 1159 2438 1159 1844 
L 1159 0 
L 581 0 
L 581 3500 
L 1159 3500 
L 1159 2956 
Q 1341 3275 1631 3429 
Q 1922 3584 2338 3584 
Q 2397 3584 2469 3576 
Q 2541 3569 2628 3553 
L 2631 2963 
z
" transform="scale(0.015625)"/>
       <path id="DejaVuSans-20" transform="scale(0.015625)"/>
       <path id="DejaVuSans-3a" d="M 750 794 
L 1409 794 
L 1409 0 
L 750 0 
L 750 794 
z
M 750 3309 
L 1409 3309 
L 1409 2516 
L 750 2516 
L 750 3309 
z
" transform="scale(0.015625)"/>
       <path id="DejaVuSans-3d" d="M 678 2906 
L 4684 2906 
L 4684 2381 
L 678 2381 
L 678 2906 
z
M 678 1631 
L 4684 1631 
L 4684 1100 
L 678 1100 
L 678 1631 
z
" transform="scale(0.015625)"/>
       <path id="DejaVuSans-2b" d="M 2944 4013 
L 2944 2272 
L 4684 2272 
L 4684 1741 
L 2944 1741 
L 2944 0 
L 2419 0 
L 2419 1741 
L 678 1741 
L 678 2272 
L 2419 2272 
L 2419 4013 
L 2944 4013 
z
" transform="scale(0.015625)"/>
      </defs>
      <use xlink:href="#DejaVuSans-4c"/>
      <use xlink:href="#DejaVuSans-61" transform="translate(55.712891 0)"/>
      <use xlink:href="#DejaVuSans-79" transform="translate(116.992188 0)"/>
      <use xlink:href="#DejaVuSans-65" transform="translate(176.171875 0)"/>
      <use xlink:href="#DejaVuSans-72" transform="translate(237.695312 0)"/>
      <use xlink:href="#DejaVuSans-20" transform="translate(278.808594 0)"/>
      <use xlink:href="#DejaVuSans-31" transform="translate(310.595703 0)"/>
      <use xlink:href="#DejaVuSans-3a" transform="translate(374.21875 0)"/>
      <use xlink:href="#DejaVuSans-20" transform="translate(407.910156 0)"/>
      <use xlink:href="#DejaVuSans-79" transform="translate(439.697266 0)"/>
      <use xlink:href="#DejaVuSans-20" transform="translate(498.876953 0)"/>
      <use xlink:href="#DejaVuSans-3d" transform="translate(530.664062 0)"/>
      <use xlink:href="#DejaVuSans-20" transform="translate(614.453125 0)"/>
      <use xlink:href="#DejaVuSans-32" transform="translate(646.240234 0)"/>
      <use xlink:href="#DejaVuSans-78" transform="translate(709.863281 0)"/>
      <use xlink:href="#DejaVuSans-20" transform="translate(769.042969 0)"/>
      <use xlink:href="#DejaVuSans-2b" transform="translate(800.830078 0)"/>
      <use xlink:href="#DejaVuSans-20" transform="translate(884.619141 0)"/>
      <use xlink:href="#DejaVuSans-31" transform="translate(916.40625 0)"/>
     </g>
    </g>
    <g id="line2d_31">
     <path d="M 61.388438 67.291312 
L 71.388438 67.291312 
L 81.388438 67.291312 
" style="fill: none; stroke: #ff0000; stroke-opacity: 0.5; stroke-width: 2; stroke-linecap: square"/>
    </g>
    <g id="text_18">
     <!-- Layer 2: y = 0.5h - 0.3 -->
     <g transform="translate(89.388438 70.791312) scale(0.1 -0.1)">
      <defs>
       <path id="DejaVuSans-2e" d="M 684 794 
L 1344 794 
L 1344 0 
L 684 0 
L 684 794 
z
" transform="scale(0.015625)"/>
       <path id="DejaVuSans-35" d="M 691 4666 
L 3169 4666 
L 3169 4134 
L 1269 4134 
L 1269 2991 
Q 1406 3038 1543 3061 
Q 1681 3084 1819 3084 
Q 2600 3084 3056 2656 
Q 3513 2228 3513 1497 
Q 3513 744 3044 326 
Q 2575 -91 1722 -91 
Q 1428 -91 1123 -41 
Q 819 9 494 109 
L 494 744 
Q 775 591 1075 516 
Q 1375 441 1709 441 
Q 2250 441 2565 725 
Q 2881 1009 2881 1497 
Q 2881 1984 2565 2268 
Q 2250 2553 1709 2553 
Q 1456 2553 1204 2497 
Q 953 2441 691 2322 
L 691 4666 
z
" transform="scale(0.015625)"/>
       <path id="DejaVuSans-68" d="M 3513 2113 
L 3513 0 
L 2938 0 
L 2938 2094 
Q 2938 2591 2744 2837 
Q 2550 3084 2163 3084 
Q 1697 3084 1428 2787 
Q 1159 2491 1159 1978 
L 1159 0 
L 581 0 
L 581 4863 
L 1159 4863 
L 1159 2956 
Q 1366 3272 1645 3428 
Q 1925 3584 2291 3584 
Q 2894 3584 3203 3211 
Q 3513 2838 3513 2113 
z
" transform="scale(0.015625)"/>
       <path id="DejaVuSans-2d" d="M 313 2009 
L 1997 2009 
L 1997 1497 
L 313 1497 
L 313 2009 
z
" transform="scale(0.015625)"/>
      </defs>
      <use xlink:href="#DejaVuSans-4c"/>
      <use xlink:href="#DejaVuSans-61" transform="translate(55.712891 0)"/>
      <use xlink:href="#DejaVuSans-79" transform="translate(116.992188 0)"/>
      <use xlink:href="#DejaVuSans-65" transform="translate(176.171875 0)"/>
      <use xlink:href="#DejaVuSans-72" transform="translate(237.695312 0)"/>
      <use xlink:href="#DejaVuSans-20" transform="translate(278.808594 0)"/>
      <use xlink:href="#DejaVuSans-32" transform="translate(310.595703 0)"/>
      <use xlink:href="#DejaVuSans-3a" transform="translate(374.21875 0)"/>
      <use xlink:href="#DejaVuSans-20" transform="translate(407.910156 0)"/>
      <use xlink:href="#DejaVuSans-79" transform="translate(439.697266 0)"/>
      <use xlink:href="#DejaVuSans-20" transform="translate(498.876953 0)"/>
      <use xlink:href="#DejaVuSans-3d" transform="translate(530.664062 0)"/>
      <use xlink:href="#DejaVuSans-20" transform="translate(614.453125 0)"/>
      <use xlink:href="#DejaVuSans-30" transform="translate(646.240234 0)"/>
      <use xlink:href="#DejaVuSans-2e" transform="translate(709.863281 0)"/>
      <use xlink:href="#DejaVuSans-35" transform="translate(741.650391 0)"/>
      <use xlink:href="#DejaVuSans-68" transform="translate(805.273438 0)"/>
      <use xlink:href="#DejaVuSans-20" transform="translate(868.652344 0)"/>
      <use xlink:href="#DejaVuSans-2d" transform="translate(900.439453 0)"/>
      <use xlink:href="#DejaVuSans-20" transform="translate(936.523438 0)"/>
      <use xlink:href="#DejaVuSans-30" transform="translate(968.310547 0)"/>
      <use xlink:href="#DejaVuSans-2e" transform="translate(1031.933594 0)"/>
      <use xlink:href="#DejaVuSans-33" transform="translate(1063.720703 0)"/>
     </g>
    </g>
    <g id="line2d_32">
     <path d="M 61.388438 81.969437 
L 71.388438 81.969437 
L 81.388438 81.969437 
" style="fill: none; stroke-dasharray: 11.1,4.8; stroke-dashoffset: 0; stroke: #800080; stroke-width: 3"/>
    </g>
    <g id="text_19">
     <!-- Combined: y = x + 0.2 (still linear!) -->
     <g transform="translate(89.388438 85.469437) scale(0.1 -0.1)">
      <defs>
       <path id="DejaVuSans-43" d="M 4122 4306 
L 4122 3641 
Q 3803 3938 3442 4084 
Q 3081 4231 2675 4231 
Q 1875 4231 1450 3742 
Q 1025 3253 1025 2328 
Q 1025 1406 1450 917 
Q 1875 428 2675 428 
Q 3081 428 3442 575 
Q 3803 722 4122 1019 
L 4122 359 
Q 3791 134 3420 21 
Q 3050 -91 2638 -91 
Q 1578 -91 968 557 
Q 359 1206 359 2328 
Q 359 3453 968 4101 
Q 1578 4750 2638 4750 
Q 3056 4750 3426 4639 
Q 3797 4528 4122 4306 
z
" transform="scale(0.015625)"/>
       <path id="DejaVuSans-6f" d="M 1959 3097 
Q 1497 3097 1228 2736 
Q 959 2375 959 1747 
Q 959 1119 1226 758 
Q 1494 397 1959 397 
Q 2419 397 2687 759 
Q 2956 1122 2956 1747 
Q 2956 2369 2687 2733 
Q 2419 3097 1959 3097 
z
M 1959 3584 
Q 2709 3584 3137 3096 
Q 3566 2609 3566 1747 
Q 3566 888 3137 398 
Q 2709 -91 1959 -91 
Q 1206 -91 779 398 
Q 353 888 353 1747 
Q 353 2609 779 3096 
Q 1206 3584 1959 3584 
z
" transform="scale(0.015625)"/>
       <path id="DejaVuSans-6d" d="M 3328 2828 
Q 3544 3216 3844 3400 
Q 4144 3584 4550 3584 
Q 5097 3584 5394 3201 
Q 5691 2819 5691 2113 
L 5691 0 
L 5113 0 
L 5113 2094 
Q 5113 2597 4934 2840 
Q 4756 3084 4391 3084 
Q 3944 3084 3684 2787 
Q 3425 2491 3425 1978 
L 3425 0 
L 2847 0 
L 2847 2094 
Q 2847 2600 2669 2842 
Q 2491 3084 2119 3084 
Q 1678 3084 1418 2786 
Q 1159 2488 1159 1978 
L 1159 0 
L 581 0 
L 581 3500 
L 1159 3500 
L 1159 2956 
Q 1356 3278 1631 3431 
Q 1906 3584 2284 3584 
Q 2666 3584 2933 3390 
Q 3200 3197 3328 2828 
z
" transform="scale(0.015625)"/>
       <path id="DejaVuSans-62" d="M 3116 1747 
Q 3116 2381 2855 2742 
Q 2594 3103 2138 3103 
Q 1681 3103 1420 2742 
Q 1159 2381 1159 1747 
Q 1159 1113 1420 752 
Q 1681 391 2138 391 
Q 2594 391 2855 752 
Q 3116 1113 3116 1747 
z
M 1159 2969 
Q 1341 3281 1617 3432 
Q 1894 3584 2278 3584 
Q 2916 3584 3314 3078 
Q 3713 2572 3713 1747 
Q 3713 922 3314 415 
Q 2916 -91 2278 -91 
Q 1894 -91 1617 61 
Q 1341 213 1159 525 
L 1159 0 
L 581 0 
L 581 4863 
L 1159 4863 
L 1159 2969 
z
" transform="scale(0.015625)"/>
       <path id="DejaVuSans-69" d="M 603 3500 
L 1178 3500 
L 1178 0 
L 603 0 
L 603 3500 
z
M 603 4863 
L 1178 4863 
L 1178 4134 
L 603 4134 
L 603 4863 
z
" transform="scale(0.015625)"/>
       <path id="DejaVuSans-6e" d="M 3513 2113 
L 3513 0 
L 2938 0 
L 2938 2094 
Q 2938 2591 2744 2837 
Q 2550 3084 2163 3084 
Q 1697 3084 1428 2787 
Q 1159 2491 1159 1978 
L 1159 0 
L 581 0 
L 581 3500 
L 1159 3500 
L 1159 2956 
Q 1366 3272 1645 3428 
Q 1925 3584 2291 3584 
Q 2894 3584 3203 3211 
Q 3513 2838 3513 2113 
z
" transform="scale(0.015625)"/>
       <path id="DejaVuSans-64" d="M 2906 2969 
L 2906 4863 
L 3481 4863 
L 3481 0 
L 2906 0 
L 2906 525 
Q 2725 213 2448 61 
Q 2172 -91 1784 -91 
Q 1150 -91 751 415 
Q 353 922 353 1747 
Q 353 2572 751 3078 
Q 1150 3584 1784 3584 
Q 2172 3584 2448 3432 
Q 2725 3281 2906 2969 
z
M 947 1747 
Q 947 1113 1208 752 
Q 1469 391 1925 391 
Q 2381 391 2643 752 
Q 2906 1113 2906 1747 
Q 2906 2381 2643 2742 
Q 2381 3103 1925 3103 
Q 1469 3103 1208 2742 
Q 947 2381 947 1747 
z
" transform="scale(0.015625)"/>
       <path id="DejaVuSans-28" d="M 1984 4856 
Q 1566 4138 1362 3434 
Q 1159 2731 1159 2009 
Q 1159 1288 1364 580 
Q 1569 -128 1984 -844 
L 1484 -844 
Q 1016 -109 783 600 
Q 550 1309 550 2009 
Q 550 2706 781 3412 
Q 1013 4119 1484 4856 
L 1984 4856 
z
" transform="scale(0.015625)"/>
       <path id="DejaVuSans-73" d="M 2834 3397 
L 2834 2853 
Q 2591 2978 2328 3040 
Q 2066 3103 1784 3103 
Q 1356 3103 1142 2972 
Q 928 2841 928 2578 
Q 928 2378 1081 2264 
Q 1234 2150 1697 2047 
L 1894 2003 
Q 2506 1872 2764 1633 
Q 3022 1394 3022 966 
Q 3022 478 2636 193 
Q 2250 -91 1575 -91 
Q 1294 -91 989 -36 
Q 684 19 347 128 
L 347 722 
Q 666 556 975 473 
Q 1284 391 1588 391 
Q 1994 391 2212 530 
Q 2431 669 2431 922 
Q 2431 1156 2273 1281 
Q 2116 1406 1581 1522 
L 1381 1569 
Q 847 1681 609 1914 
Q 372 2147 372 2553 
Q 372 3047 722 3315 
Q 1072 3584 1716 3584 
Q 2034 3584 2315 3537 
Q 2597 3491 2834 3397 
z
" transform="scale(0.015625)"/>
       <path id="DejaVuSans-74" d="M 1172 4494 
L 1172 3500 
L 2356 3500 
L 2356 3053 
L 1172 3053 
L 1172 1153 
Q 1172 725 1289 603 
Q 1406 481 1766 481 
L 2356 481 
L 2356 0 
L 1766 0 
Q 1100 0 847 248 
Q 594 497 594 1153 
L 594 3053 
L 172 3053 
L 172 3500 
L 594 3500 
L 594 4494 
L 1172 4494 
z
" transform="scale(0.015625)"/>
       <path id="DejaVuSans-6c" d="M 603 4863 
L 1178 4863 
L 1178 0 
L 603 0 
L 603 4863 
z
" transform="scale(0.015625)"/>
       <path id="DejaVuSans-21" d="M 966 794 
L 1600 794 
L 1600 0 
L 966 0 
L 966 794 
z
M 966 4666 
L 1600 4666 
L 1600 2619 
L 1538 1503 
L 1031 1503 
L 966 2619 
L 966 4666 
z
" transform="scale(0.015625)"/>
       <path id="DejaVuSans-29" d="M 513 4856 
L 1013 4856 
Q 1481 4119 1714 3412 
Q 1947 2706 1947 2009 
Q 1947 1309 1714 600 
Q 1481 -109 1013 -844 
L 513 -844 
Q 928 -128 1133 580 
Q 1338 1288 1338 2009 
Q 1338 2731 1133 3434 
Q 928 4138 513 4856 
z
" transform="scale(0.015625)"/>
      </defs>
      <use xlink:href="#DejaVuSans-43"/>
      <use xlink:href="#DejaVuSans-6f" transform="translate(69.824219 0)"/>
      <use xlink:href="#DejaVuSans-6d" transform="translate(131.005859 0)"/>
      <use xlink:href="#DejaVuSans-62" transform="translate(228.417969 0)"/>
      <use xlink:href="#DejaVuSans-69" transform="translate(291.894531 0)"/>
      <use xlink:href="#DejaVuSans-6e" transform="translate(319.677734 0)"/>
      <use xlink:href="#DejaVuSans-65" transform="translate(383.056641 0)"/>
      <use xlink:href="#DejaVuSans-64" transform="translate(444.580078 0)"/>
      <use xlink:href="#DejaVuSans-3a" transform="translate(508.056641 0)"/>
      <use xlink:href="#DejaVuSans-20" transform="translate(541.748047 0)"/>
      <use xlink:href="#DejaVuSans-79" transform="translate(573.535156 0)"/>
      <use xlink:href="#DejaVuSans-20" transform="translate(632.714844 0)"/>
      <use xlink:href="#DejaVuSans-3d" transform="translate(664.501953 0)"/>
      <use xlink:href="#DejaVuSans-20" transform="translate(748.291016 0)"/>
      <use xlink:href="#DejaVuSans-78" transform="translate(780.078125 0)"/>
      <use xlink:href="#DejaVuSans-20" transform="translate(839.257812 0)"/>
      <use xlink:href="#DejaVuSans-2b" transform="translate(871.044922 0)"/>
      <use xlink:href="#DejaVuSans-20" transform="translate(954.833984 0)"/>
      <use xlink:href="#DejaVuSans-30" transform="translate(986.621094 0)"/>
      <use xlink:href="#DejaVuSans-2e" transform="translate(1050.244141 0)"/>
      <use xlink:href="#DejaVuSans-32" transform="translate(1082.03125 0)"/>
      <use xlink:href="#DejaVuSans-20" transform="translate(1145.654297 0)"/>
      <use xlink:href="#DejaVuSans-28" transform="translate(1177.441406 0)"/>
      <use xlink:href="#DejaVuSans-73" transform="translate(1216.455078 0)"/>
      <use xlink:href="#DejaVuSans-74" transform="translate(1268.554688 0)"/>
      <use xlink:href="#DejaVuSans-69" transform="translate(1307.763672 0)"/>
      <use xlink:href="#DejaVuSans-6c" transform="translate(1335.546875 0)"/>
      <use xlink:href="#DejaVuSans-6c" transform="translate(1363.330078 0)"/>
      <use xlink:href="#DejaVuSans-20" transform="translate(1391.113281 0)"/>
      <use xlink:href="#DejaVuSans-6c" transform="translate(1422.900391 0)"/>
      <use xlink:href="#DejaVuSans-69" transform="translate(1450.683594 0)"/>
      <use xlink:href="#DejaVuSans-6e" transform="translate(1478.466797 0)"/>
      <use xlink:href="#DejaVuSans-65" transform="translate(1541.845703 0)"/>
      <use xlink:href="#DejaVuSans-61" transform="translate(1603.369141 0)"/>
      <use xlink:href="#DejaVuSans-72" transform="translate(1664.648438 0)"/>
      <use xlink:href="#DejaVuSans-21" transform="translate(1705.761719 0)"/>
      <use xlink:href="#DejaVuSans-29" transform="translate(1745.849609 0)"/>
     </g>
    </g>
   </g>
  </g>
  <g id="axes_2">
   <g id="patch_8">
    <path d="M 542.978437 298.27475 
L 984.813437 298.27475 
L 984.813437 39.51475 
L 542.978437 39.51475 
z
" style="fill: #ffffff"/>
   </g>
   <g id="matplotlib.axis_3">
    <g id="xtick_8">
     <g id="line2d_33">
      <path d="M 563.061847 298.27475 
L 563.061847 39.51475 
" clip-path="url(#p126b6fc88b)" style="fill: none; stroke: #b0b0b0; stroke-opacity: 0.3; stroke-width: 0.8; stroke-linecap: square"/>
     </g>
     <g id="line2d_34">
      <g>
       <use xlink:href="#mef35dc4ce3" x="563.061847" y="298.27475" style="stroke: #000000; stroke-width: 0.8"/>
      </g>
     </g>
     <g id="text_20">
      <!-- −3 -->
      <g transform="translate(552.742315 315.912562) scale(0.14 -0.14)">
       <use xlink:href="#DejaVuSans-2212"/>
       <use xlink:href="#DejaVuSans-33" transform="translate(83.789062 0)"/>
      </g>
     </g>
    </g>
    <g id="xtick_9">
     <g id="line2d_35">
      <path d="M 630.006544 298.27475 
L 630.006544 39.51475 
" clip-path="url(#p126b6fc88b)" style="fill: none; stroke: #b0b0b0; stroke-opacity: 0.3; stroke-width: 0.8; stroke-linecap: square"/>
     </g>
     <g id="line2d_36">
      <g>
       <use xlink:href="#mef35dc4ce3" x="630.006544" y="298.27475" style="stroke: #000000; stroke-width: 0.8"/>
      </g>
     </g>
     <g id="text_21">
      <!-- −2 -->
      <g transform="translate(619.687012 315.912562) scale(0.14 -0.14)">
       <use xlink:href="#DejaVuSans-2212"/>
       <use xlink:href="#DejaVuSans-32" transform="translate(83.789062 0)"/>
      </g>
     </g>
    </g>
    <g id="xtick_10">
     <g id="line2d_37">
      <path d="M 696.951241 298.27475 
L 696.951241 39.51475 
" clip-path="url(#p126b6fc88b)" style="fill: none; stroke: #b0b0b0; stroke-opacity: 0.3; stroke-width: 0.8; stroke-linecap: square"/>
     </g>
     <g id="line2d_38">
      <g>
       <use xlink:href="#mef35dc4ce3" x="696.951241" y="298.27475" style="stroke: #000000; stroke-width: 0.8"/>
      </g>
     </g>
     <g id="text_22">
      <!-- −1 -->
      <g transform="translate(686.631709 315.912562) scale(0.14 -0.14)">
       <use xlink:href="#DejaVuSans-2212"/>
       <use xlink:href="#DejaVuSans-31" transform="translate(83.789062 0)"/>
      </g>
     </g>
    </g>
    <g id="xtick_11">
     <g id="line2d_39">
      <path d="M 763.895937 298.27475 
L 763.895937 39.51475 
" clip-path="url(#p126b6fc88b)" style="fill: none; stroke: #b0b0b0; stroke-opacity: 0.3; stroke-width: 0.8; stroke-linecap: square"/>
     </g>
     <g id="line2d_40">
      <g>
       <use xlink:href="#mef35dc4ce3" x="763.895937" y="298.27475" style="stroke: #000000; stroke-width: 0.8"/>
      </g>
     </g>
     <g id="text_23">
      <!-- 0 -->
      <g transform="translate(759.442187 315.912562) scale(0.14 -0.14)">
       <use xlink:href="#DejaVuSans-30"/>
      </g>
     </g>
    </g>
    <g id="xtick_12">
     <g id="line2d_41">
      <path d="M 830.840634 298.27475 
L 830.840634 39.51475 
" clip-path="url(#p126b6fc88b)" style="fill: none; stroke: #b0b0b0; stroke-opacity: 0.3; stroke-width: 0.8; stroke-linecap: square"/>
     </g>
     <g id="line2d_42">
      <g>
       <use xlink:href="#mef35dc4ce3" x="830.840634" y="298.27475" style="stroke: #000000; stroke-width: 0.8"/>
      </g>
     </g>
     <g id="text_24">
      <!-- 1 -->
      <g transform="translate(826.386884 315.912562) scale(0.14 -0.14)">
       <use xlink:href="#DejaVuSans-31"/>
      </g>
     </g>
    </g>
    <g id="xtick_13">
     <g id="line2d_43">
      <path d="M 897.785331 298.27475 
L 897.785331 39.51475 
" clip-path="url(#p126b6fc88b)" style="fill: none; stroke: #b0b0b0; stroke-opacity: 0.3; stroke-width: 0.8; stroke-linecap: square"/>
     </g>
     <g id="line2d_44">
      <g>
       <use xlink:href="#mef35dc4ce3" x="897.785331" y="298.27475" style="stroke: #000000; stroke-width: 0.8"/>
      </g>
     </g>
     <g id="text_25">
      <!-- 2 -->
      <g transform="translate(893.331581 315.912562) scale(0.14 -0.14)">
       <use xlink:href="#DejaVuSans-32"/>
      </g>
     </g>
    </g>
    <g id="xtick_14">
     <g id="line2d_45">
      <path d="M 964.730028 298.27475 
L 964.730028 39.51475 
" clip-path="url(#p126b6fc88b)" style="fill: none; stroke: #b0b0b0; stroke-opacity: 0.3; stroke-width: 0.8; stroke-linecap: square"/>
     </g>
     <g id="line2d_46">
      <g>
       <use xlink:href="#mef35dc4ce3" x="964.730028" y="298.27475" style="stroke: #000000; stroke-width: 0.8"/>
      </g>
     </g>
     <g id="text_26">
      <!-- 3 -->
      <g transform="translate(960.276278 315.912562) scale(0.14 -0.14)">
       <use xlink:href="#DejaVuSans-33"/>
      </g>
     </g>
    </g>
    <g id="text_27">
     <!-- x -->
     <g transform="translate(759.752812 333.461937) scale(0.14 -0.14)">
      <use xlink:href="#DejaVuSans-78"/>
     </g>
    </g>
   </g>
   <g id="matplotlib.axis_4">
    <g id="ytick_7">
     <g id="line2d_47">
      <path d="M 542.978437 276.845684 
L 984.813437 276.845684 
" clip-path="url(#p126b6fc88b)" style="fill: none; stroke: #b0b0b0; stroke-opacity: 0.3; stroke-width: 0.8; stroke-linecap: square"/>
     </g>
     <g id="line2d_48">
      <g>
       <use xlink:href="#m9d2cf873b1" x="542.978437" y="276.845684" style="stroke: #000000; stroke-width: 0.8"/>
      </g>
     </g>
     <g id="text_28">
      <!-- 0 -->
      <g transform="translate(527.070937 282.16459) scale(0.14 -0.14)">
       <use xlink:href="#DejaVuSans-30"/>
      </g>
     </g>
    </g>
    <g id="ytick_8">
     <g id="line2d_49">
      <path d="M 542.978437 244.621525 
L 984.813437 244.621525 
" clip-path="url(#p126b6fc88b)" style="fill: none; stroke: #b0b0b0; stroke-opacity: 0.3; stroke-width: 0.8; stroke-linecap: square"/>
     </g>
     <g id="line2d_50">
      <g>
       <use xlink:href="#m9d2cf873b1" x="542.978437" y="244.621525" style="stroke: #000000; stroke-width: 0.8"/>
      </g>
     </g>
     <g id="text_29">
      <!-- 1 -->
      <g transform="translate(527.070937 249.940431) scale(0.14 -0.14)">
       <use xlink:href="#DejaVuSans-31"/>
      </g>
     </g>
    </g>
    <g id="ytick_9">
     <g id="line2d_51">
      <path d="M 542.978437 212.397365 
L 984.813437 212.397365 
" clip-path="url(#p126b6fc88b)" style="fill: none; stroke: #b0b0b0; stroke-opacity: 0.3; stroke-width: 0.8; stroke-linecap: square"/>
     </g>
     <g id="line2d_52">
      <g>
       <use xlink:href="#m9d2cf873b1" x="542.978437" y="212.397365" style="stroke: #000000; stroke-width: 0.8"/>
      </g>
     </g>
     <g id="text_30">
      <!-- 2 -->
      <g transform="translate(527.070937 217.716271) scale(0.14 -0.14)">
       <use xlink:href="#DejaVuSans-32"/>
      </g>
     </g>
    </g>
    <g id="ytick_10">
     <g id="line2d_53">
      <path d="M 542.978437 180.173206 
L 984.813437 180.173206 
" clip-path="url(#p126b6fc88b)" style="fill: none; stroke: #b0b0b0; stroke-opacity: 0.3; stroke-width: 0.8; stroke-linecap: square"/>
     </g>
     <g id="line2d_54">
      <g>
       <use xlink:href="#m9d2cf873b1" x="542.978437" y="180.173206" style="stroke: #000000; stroke-width: 0.8"/>
      </g>
     </g>
     <g id="text_31">
      <!-- 3 -->
      <g transform="translate(527.070937 185.492112) scale(0.14 -0.14)">
       <use xlink:href="#DejaVuSans-33"/>
      </g>
     </g>
    </g>
    <g id="ytick_11">
     <g id="line2d_55">
      <path d="M 542.978437 147.949046 
L 984.813437 147.949046 
" clip-path="url(#p126b6fc88b)" style="fill: none; stroke: #b0b0b0; stroke-opacity: 0.3; stroke-width: 0.8; stroke-linecap: square"/>
     </g>
     <g id="line2d_56">
      <g>
       <use xlink:href="#m9d2cf873b1" x="542.978437" y="147.949046" style="stroke: #000000; stroke-width: 0.8"/>
      </g>
     </g>
     <g id="text_32">
      <!-- 4 -->
      <g transform="translate(527.070937 153.267953) scale(0.14 -0.14)">
       <use xlink:href="#DejaVuSans-34"/>
      </g>
     </g>
    </g>
    <g id="ytick_12">
     <g id="line2d_57">
      <path d="M 542.978437 115.724887 
L 984.813437 115.724887 
" clip-path="url(#p126b6fc88b)" style="fill: none; stroke: #b0b0b0; stroke-opacity: 0.3; stroke-width: 0.8; stroke-linecap: square"/>
     </g>
     <g id="line2d_58">
      <g>
       <use xlink:href="#m9d2cf873b1" x="542.978437" y="115.724887" style="stroke: #000000; stroke-width: 0.8"/>
      </g>
     </g>
     <g id="text_33">
      <!-- 5 -->
      <g transform="translate(527.070937 121.043793) scale(0.14 -0.14)">
       <use xlink:href="#DejaVuSans-35"/>
      </g>
     </g>
    </g>
    <g id="ytick_13">
     <g id="line2d_59">
      <path d="M 542.978437 83.500728 
L 984.813437 83.500728 
" clip-path="url(#p126b6fc88b)" style="fill: none; stroke: #b0b0b0; stroke-opacity: 0.3; stroke-width: 0.8; stroke-linecap: square"/>
     </g>
     <g id="line2d_60">
      <g>
       <use xlink:href="#m9d2cf873b1" x="542.978437" y="83.500728" style="stroke: #000000; stroke-width: 0.8"/>
      </g>
     </g>
     <g id="text_34">
      <!-- 6 -->
      <g transform="translate(527.070937 88.819634) scale(0.14 -0.14)">
       <use xlink:href="#DejaVuSans-36"/>
      </g>
     </g>
    </g>
    <g id="ytick_14">
     <g id="line2d_61">
      <path d="M 542.978437 51.276568 
L 984.813437 51.276568 
" clip-path="url(#p126b6fc88b)" style="fill: none; stroke: #b0b0b0; stroke-opacity: 0.3; stroke-width: 0.8; stroke-linecap: square"/>
     </g>
     <g id="line2d_62">
      <g>
       <use xlink:href="#m9d2cf873b1" x="542.978437" y="51.276568" style="stroke: #000000; stroke-width: 0.8"/>
      </g>
     </g>
     <g id="text_35">
      <!-- 7 -->
      <g transform="translate(527.070937 56.595474) scale(0.14 -0.14)">
       <defs>
        <path id="DejaVuSans-37" d="M 525 4666 
L 3525 4666 
L 3525 4397 
L 1831 0 
L 1172 0 
L 2766 4134 
L 525 4134 
L 525 4666 
z
" transform="scale(0.015625)"/>
       </defs>
       <use xlink:href="#DejaVuSans-37"/>
      </g>
     </g>
    </g>
    <g id="text_36">
     <!-- y -->
     <g transform="translate(520.159375 173.037875) rotate(-90) scale(0.14 -0.14)">
      <use xlink:href="#DejaVuSans-79"/>
     </g>
    </g>
   </g>
   <g id="line2d_63">
    <path d="M 563.061847 276.845684 
L 729.639955 276.845684 
L 730.983327 276.306818 
L 964.730028 51.276568 
L 964.730028 51.276568 
" clip-path="url(#p126b6fc88b)" style="fill: none; stroke: #0000ff; stroke-opacity: 0.5; stroke-width: 2; stroke-linecap: square"/>
   </g>
   <g id="line2d_64">
    <path d="M 563.061847 286.512932 
L 729.639955 286.512932 
L 730.983327 286.243499 
L 964.730028 173.728374 
L 964.730028 173.728374 
" clip-path="url(#p126b6fc88b)" style="fill: none; stroke: #2a9d8f; stroke-width: 3; stroke-linecap: square"/>
   </g>
   <g id="patch_9">
    <path d="M 542.978437 298.27475 
L 542.978437 39.51475 
" style="fill: none; stroke: #000000; stroke-width: 0.8; stroke-linejoin: miter; stroke-linecap: square"/>
   </g>
   <g id="patch_10">
    <path d="M 984.813437 298.27475 
L 984.813437 39.51475 
" style="fill: none; stroke: #000000; stroke-width: 0.8; stroke-linejoin: miter; stroke-linecap: square"/>
   </g>
   <g id="patch_11">
    <path d="M 542.978437 298.27475 
L 984.813437 298.27475 
" style="fill: none; stroke: #000000; stroke-width: 0.8; stroke-linejoin: miter; stroke-linecap: square"/>
   </g>
   <g id="patch_12">
    <path d="M 542.978437 39.51475 
L 984.813437 39.51475 
" style="fill: none; stroke: #000000; stroke-width: 0.8; stroke-linejoin: miter; stroke-linecap: square"/>
   </g>
   <g id="text_37">
    <!-- With ReLU Activation: -->
    <g style="fill: #2a9d8f" transform="translate(677.607812 17.837812) scale(0.14 -0.14)">
     <defs>
      <path id="DejaVuSans-Bold-52" d="M 2297 2597 
Q 2675 2597 2839 2737 
Q 3003 2878 3003 3200 
Q 3003 3519 2839 3656 
Q 2675 3794 2297 3794 
L 1791 3794 
L 1791 2597 
L 2297 2597 
z
M 1791 1766 
L 1791 0 
L 588 0 
L 588 4666 
L 2425 4666 
Q 3347 4666 3776 4356 
Q 4206 4047 4206 3378 
Q 4206 2916 3982 2619 
Q 3759 2322 3309 2181 
Q 3556 2125 3751 1926 
Q 3947 1728 4147 1325 
L 4800 0 
L 3519 0 
L 2950 1159 
Q 2778 1509 2601 1637 
Q 2425 1766 2131 1766 
L 1791 1766 
z
" transform="scale(0.015625)"/>
      <path id="DejaVuSans-Bold-4c" d="M 588 4666 
L 1791 4666 
L 1791 909 
L 3903 909 
L 3903 0 
L 588 0 
L 588 4666 
z
" transform="scale(0.015625)"/>
      <path id="DejaVuSans-Bold-55" d="M 588 4666 
L 1791 4666 
L 1791 1869 
Q 1791 1291 1980 1042 
Q 2169 794 2597 794 
Q 3028 794 3217 1042 
Q 3406 1291 3406 1869 
L 3406 4666 
L 4609 4666 
L 4609 1869 
Q 4609 878 4112 393 
Q 3616 -91 2597 -91 
Q 1581 -91 1084 393 
Q 588 878 588 1869 
L 588 4666 
z
" transform="scale(0.015625)"/>
     </defs>
     <use xlink:href="#DejaVuSans-Bold-57"/>
     <use xlink:href="#DejaVuSans-Bold-69" transform="translate(110.302734 0)"/>
     <use xlink:href="#DejaVuSans-Bold-74" transform="translate(144.580078 0)"/>
     <use xlink:href="#DejaVuSans-Bold-68" transform="translate(192.382812 0)"/>
     <use xlink:href="#DejaVuSans-Bold-20" transform="translate(263.574219 0)"/>
     <use xlink:href="#DejaVuSans-Bold-52" transform="translate(298.388672 0)"/>
     <use xlink:href="#DejaVuSans-Bold-65" transform="translate(375.390625 0)"/>
     <use xlink:href="#DejaVuSans-Bold-4c" transform="translate(443.212891 0)"/>
     <use xlink:href="#DejaVuSans-Bold-55" transform="translate(503.308594 0)"/>
     <use xlink:href="#DejaVuSans-Bold-20" transform="translate(584.509766 0)"/>
     <use xlink:href="#DejaVuSans-Bold-41" transform="translate(619.324219 0)"/>
     <use xlink:href="#DejaVuSans-Bold-63" transform="translate(696.716797 0)"/>
     <use xlink:href="#DejaVuSans-Bold-74" transform="translate(755.994141 0)"/>
     <use xlink:href="#DejaVuSans-Bold-69" transform="translate(803.796875 0)"/>
     <use xlink:href="#DejaVuSans-Bold-76" transform="translate(838.074219 0)"/>
     <use xlink:href="#DejaVuSans-Bold-61" transform="translate(903.259766 0)"/>
     <use xlink:href="#DejaVuSans-Bold-74" transform="translate(970.740234 0)"/>
     <use xlink:href="#DejaVuSans-Bold-69" transform="translate(1018.542969 0)"/>
     <use xlink:href="#DejaVuSans-Bold-6f" transform="translate(1052.820312 0)"/>
     <use xlink:href="#DejaVuSans-Bold-6e" transform="translate(1121.521484 0)"/>
     <use xlink:href="#DejaVuSans-Bold-3a" transform="translate(1192.712891 0)"/>
    </g>
    <!-- Can model non-linear functions! -->
    <g style="fill: #2a9d8f" transform="translate(637.035156 33.51475) scale(0.14 -0.14)">
     <defs>
      <path id="DejaVuSans-Bold-43" d="M 4288 256 
Q 3956 84 3597 -3 
Q 3238 -91 2847 -91 
Q 1681 -91 1000 561 
Q 319 1213 319 2328 
Q 319 3447 1000 4098 
Q 1681 4750 2847 4750 
Q 3238 4750 3597 4662 
Q 3956 4575 4288 4403 
L 4288 3438 
Q 3953 3666 3628 3772 
Q 3303 3878 2944 3878 
Q 2300 3878 1931 3465 
Q 1563 3053 1563 2328 
Q 1563 1606 1931 1193 
Q 2300 781 2944 781 
Q 3303 781 3628 887 
Q 3953 994 4288 1222 
L 4288 256 
z
" transform="scale(0.015625)"/>
      <path id="DejaVuSans-Bold-6d" d="M 3781 2919 
Q 3994 3244 4286 3414 
Q 4578 3584 4928 3584 
Q 5531 3584 5847 3212 
Q 6163 2841 6163 2131 
L 6163 0 
L 5038 0 
L 5038 1825 
Q 5041 1866 5042 1909 
Q 5044 1953 5044 2034 
Q 5044 2406 4934 2573 
Q 4825 2741 4581 2741 
Q 4263 2741 4089 2478 
Q 3916 2216 3909 1719 
L 3909 0 
L 2784 0 
L 2784 1825 
Q 2784 2406 2684 2573 
Q 2584 2741 2328 2741 
Q 2006 2741 1831 2477 
Q 1656 2213 1656 1722 
L 1656 0 
L 531 0 
L 531 3500 
L 1656 3500 
L 1656 2988 
Q 1863 3284 2130 3434 
Q 2397 3584 2719 3584 
Q 3081 3584 3359 3409 
Q 3638 3234 3781 2919 
z
" transform="scale(0.015625)"/>
      <path id="DejaVuSans-Bold-64" d="M 2919 2988 
L 2919 4863 
L 4044 4863 
L 4044 0 
L 2919 0 
L 2919 506 
Q 2688 197 2409 53 
Q 2131 -91 1766 -91 
Q 1119 -91 703 423 
Q 288 938 288 1747 
Q 288 2556 703 3070 
Q 1119 3584 1766 3584 
Q 2128 3584 2408 3439 
Q 2688 3294 2919 2988 
z
M 2181 722 
Q 2541 722 2730 984 
Q 2919 1247 2919 1747 
Q 2919 2247 2730 2509 
Q 2541 2772 2181 2772 
Q 1825 2772 1636 2509 
Q 1447 2247 1447 1747 
Q 1447 1247 1636 984 
Q 1825 722 2181 722 
z
" transform="scale(0.015625)"/>
      <path id="DejaVuSans-Bold-2d" d="M 347 2297 
L 2309 2297 
L 2309 1388 
L 347 1388 
L 347 2297 
z
" transform="scale(0.015625)"/>
      <path id="DejaVuSans-Bold-66" d="M 2841 4863 
L 2841 4128 
L 2222 4128 
Q 1984 4128 1890 4042 
Q 1797 3956 1797 3744 
L 1797 3500 
L 2753 3500 
L 2753 2700 
L 1797 2700 
L 1797 0 
L 678 0 
L 678 2700 
L 122 2700 
L 122 3500 
L 678 3500 
L 678 3744 
Q 678 4316 997 4589 
Q 1316 4863 1984 4863 
L 2841 4863 
z
" transform="scale(0.015625)"/>
      <path id="DejaVuSans-Bold-21" d="M 897 4666 
L 2022 4666 
L 2022 2875 
L 1863 1569 
L 1056 1569 
L 897 2875 
L 897 4666 
z
M 897 1113 
L 2022 1113 
L 2022 0 
L 897 0 
L 897 1113 
z
" transform="scale(0.015625)"/>
     </defs>
     <use xlink:href="#DejaVuSans-Bold-43"/>
     <use xlink:href="#DejaVuSans-Bold-61" transform="translate(73.388672 0)"/>
     <use xlink:href="#DejaVuSans-Bold-6e" transform="translate(140.869141 0)"/>
     <use xlink:href="#DejaVuSans-Bold-20" transform="translate(212.060547 0)"/>
     <use xlink:href="#DejaVuSans-Bold-6d" transform="translate(246.875 0)"/>
     <use xlink:href="#DejaVuSans-Bold-6f" transform="translate(351.074219 0)"/>
     <use xlink:href="#DejaVuSans-Bold-64" transform="translate(419.775391 0)"/>
     <use xlink:href="#DejaVuSans-Bold-65" transform="translate(491.357422 0)"/>
     <use xlink:href="#DejaVuSans-Bold-6c" transform="translate(559.179688 0)"/>
     <use xlink:href="#DejaVuSans-Bold-20" transform="translate(593.457031 0)"/>
     <use xlink:href="#DejaVuSans-Bold-6e" transform="translate(628.271484 0)"/>
     <use xlink:href="#DejaVuSans-Bold-6f" transform="translate(699.462891 0)"/>
     <use xlink:href="#DejaVuSans-Bold-6e" transform="translate(768.164062 0)"/>
     <use xlink:href="#DejaVuSans-Bold-2d" transform="translate(839.355469 0)"/>
     <use xlink:href="#DejaVuSans-Bold-6c" transform="translate(880.859375 0)"/>
     <use xlink:href="#DejaVuSans-Bold-69" transform="translate(915.136719 0)"/>
     <use xlink:href="#DejaVuSans-Bold-6e" transform="translate(949.414062 0)"/>
     <use xlink:href="#DejaVuSans-Bold-65" transform="translate(1020.605469 0)"/>
     <use xlink:href="#DejaVuSans-Bold-61" transform="translate(1088.427734 0)"/>
     <use xlink:href="#DejaVuSans-Bold-72" transform="translate(1155.908203 0)"/>
     <use xlink:href="#DejaVuSans-Bold-20" transform="translate(1205.224609 0)"/>
     <use xlink:href="#DejaVuSans-Bold-66" transform="translate(1240.039062 0)"/>
     <use xlink:href="#DejaVuSans-Bold-75" transform="translate(1283.544922 0)"/>
     <use xlink:href="#DejaVuSans-Bold-6e" transform="translate(1354.736328 0)"/>
     <use xlink:href="#DejaVuSans-Bold-63" transform="translate(1425.927734 0)"/>
     <use xlink:href="#DejaVuSans-Bold-74" transform="translate(1485.205078 0)"/>
     <use xlink:href="#DejaVuSans-Bold-69" transform="translate(1533.007812 0)"/>
     <use xlink:href="#DejaVuSans-Bold-6f" transform="translate(1567.285156 0)"/>
     <use xlink:href="#DejaVuSans-Bold-6e" transform="translate(1635.986328 0)"/>
     <use xlink:href="#DejaVuSans-Bold-73" transform="translate(1707.177734 0)"/>
     <use xlink:href="#DejaVuSans-Bold-21" transform="translate(1766.699219 0)"/>
    </g>
   </g>
   <g id="legend_2">
    <g id="patch_13">
     <path d="M 549.978437 76.871 
L 713.247187 76.871 
Q 715.247187 76.871 715.247187 74.871 
L 715.247187 46.51475 
Q 715.247187 44.51475 713.247187 44.51475 
L 549.978437 44.51475 
Q 547.978437 44.51475 547.978437 46.51475 
L 547.978437 74.871 
Q 547.978437 76.871 549.978437 76.871 
z
" style="fill: #ffffff; opacity: 0.8; stroke: #cccccc; stroke-linejoin: miter"/>
    </g>
    <g id="line2d_65">
     <path d="M 551.978437 52.613187 
L 561.978437 52.613187 
L 571.978437 52.613187 
" style="fill: none; stroke: #0000ff; stroke-opacity: 0.5; stroke-width: 2; stroke-linecap: square"/>
    </g>
    <g id="text_38">
     <!-- Layer 1: h = ReLU(2x + 1) -->
     <g transform="translate(579.978437 56.113187) scale(0.1 -0.1)">
      <defs>
       <path id="DejaVuSans-52" d="M 2841 2188 
Q 3044 2119 3236 1894 
Q 3428 1669 3622 1275 
L 4263 0 
L 3584 0 
L 2988 1197 
Q 2756 1666 2539 1819 
Q 2322 1972 1947 1972 
L 1259 1972 
L 1259 0 
L 628 0 
L 628 4666 
L 2053 4666 
Q 2853 4666 3247 4331 
Q 3641 3997 3641 3322 
Q 3641 2881 3436 2590 
Q 3231 2300 2841 2188 
z
M 1259 4147 
L 1259 2491 
L 2053 2491 
Q 2509 2491 2742 2702 
Q 2975 2913 2975 3322 
Q 2975 3731 2742 3939 
Q 2509 4147 2053 4147 
L 1259 4147 
z
" transform="scale(0.015625)"/>
       <path id="DejaVuSans-55" d="M 556 4666 
L 1191 4666 
L 1191 1831 
Q 1191 1081 1462 751 
Q 1734 422 2344 422 
Q 2950 422 3222 751 
Q 3494 1081 3494 1831 
L 3494 4666 
L 4128 4666 
L 4128 1753 
Q 4128 841 3676 375 
Q 3225 -91 2344 -91 
Q 1459 -91 1007 375 
Q 556 841 556 1753 
L 556 4666 
z
" transform="scale(0.015625)"/>
      </defs>
      <use xlink:href="#DejaVuSans-4c"/>
      <use xlink:href="#DejaVuSans-61" transform="translate(55.712891 0)"/>
      <use xlink:href="#DejaVuSans-79" transform="translate(116.992188 0)"/>
      <use xlink:href="#DejaVuSans-65" transform="translate(176.171875 0)"/>
      <use xlink:href="#DejaVuSans-72" transform="translate(237.695312 0)"/>
      <use xlink:href="#DejaVuSans-20" transform="translate(278.808594 0)"/>
      <use xlink:href="#DejaVuSans-31" transform="translate(310.595703 0)"/>
      <use xlink:href="#DejaVuSans-3a" transform="translate(374.21875 0)"/>
      <use xlink:href="#DejaVuSans-20" transform="translate(407.910156 0)"/>
      <use xlink:href="#DejaVuSans-68" transform="translate(439.697266 0)"/>
      <use xlink:href="#DejaVuSans-20" transform="translate(503.076172 0)"/>
      <use xlink:href="#DejaVuSans-3d" transform="translate(534.863281 0)"/>
      <use xlink:href="#DejaVuSans-20" transform="translate(618.652344 0)"/>
      <use xlink:href="#DejaVuSans-52" transform="translate(650.439453 0)"/>
      <use xlink:href="#DejaVuSans-65" transform="translate(715.421875 0)"/>
      <use xlink:href="#DejaVuSans-4c" transform="translate(776.945312 0)"/>
      <use xlink:href="#DejaVuSans-55" transform="translate(827.658203 0)"/>
      <use xlink:href="#DejaVuSans-28" transform="translate(900.851562 0)"/>
      <use xlink:href="#DejaVuSans-32" transform="translate(939.865234 0)"/>
      <use xlink:href="#DejaVuSans-78" transform="translate(1003.488281 0)"/>
      <use xlink:href="#DejaVuSans-20" transform="translate(1062.667969 0)"/>
      <use xlink:href="#DejaVuSans-2b" transform="translate(1094.455078 0)"/>
      <use xlink:href="#DejaVuSans-20" transform="translate(1178.244141 0)"/>
      <use xlink:href="#DejaVuSans-31" transform="translate(1210.03125 0)"/>
      <use xlink:href="#DejaVuSans-29" transform="translate(1273.654297 0)"/>
     </g>
    </g>
    <g id="line2d_66">
     <path d="M 551.978437 67.291312 
L 561.978437 67.291312 
L 571.978437 67.291312 
" style="fill: none; stroke: #2a9d8f; stroke-width: 3; stroke-linecap: square"/>
    </g>
    <g id="text_39">
     <!-- Layer 2: y = 0.5h - 0.3 -->
     <g transform="translate(579.978437 70.791312) scale(0.1 -0.1)">
      <use xlink:href="#DejaVuSans-4c"/>
      <use xlink:href="#DejaVuSans-61" transform="translate(55.712891 0)"/>
      <use xlink:href="#DejaVuSans-79" transform="translate(116.992188 0)"/>
      <use xlink:href="#DejaVuSans-65" transform="translate(176.171875 0)"/>
      <use xlink:href="#DejaVuSans-72" transform="translate(237.695312 0)"/>
      <use xlink:href="#DejaVuSans-20" transform="translate(278.808594 0)"/>
      <use xlink:href="#DejaVuSans-32" transform="translate(310.595703 0)"/>
      <use xlink:href="#DejaVuSans-3a" transform="translate(374.21875 0)"/>
      <use xlink:href="#DejaVuSans-20" transform="translate(407.910156 0)"/>
      <use xlink:href="#DejaVuSans-79" transform="translate(439.697266 0)"/>
      <use xlink:href="#DejaVuSans-20" transform="translate(498.876953 0)"/>
      <use xlink:href="#DejaVuSans-3d" transform="translate(530.664062 0)"/>
      <use xlink:href="#DejaVuSans-20" transform="translate(614.453125 0)"/>
      <use xlink:href="#DejaVuSans-30" transform="translate(646.240234 0)"/>
      <use xlink:href="#DejaVuSans-2e" transform="translate(709.863281 0)"/>
      <use xlink:href="#DejaVuSans-35" transform="translate(741.650391 0)"/>
      <use xlink:href="#DejaVuSans-68" transform="translate(805.273438 0)"/>
      <use xlink:href="#DejaVuSans-20" transform="translate(868.652344 0)"/>
      <use xlink:href="#DejaVuSans-2d" transform="translate(900.439453 0)"/>
      <use xlink:href="#DejaVuSans-20" transform="translate(936.523438 0)"/>
      <use xlink:href="#DejaVuSans-30" transform="translate(968.310547 0)"/>
      <use xlink:href="#DejaVuSans-2e" transform="translate(1031.933594 0)"/>
      <use xlink:href="#DejaVuSans-33" transform="translate(1063.720703 0)"/>
     </g>
    </g>
   </g>
  </g>
 </g>
 <defs>
  <clipPath id="p2ca3a79829">
   <rect x="52.388438" y="39.51475" width="441.835" height="258.76"/>
  </clipPath>
  <clipPath id="p126b6fc88b">
   <rect x="542.978437" y="39.51475" width="441.835" height="258.76"/>
  </clipPath>
 </defs>
</svg>
