<?xml version="1.0" encoding="utf-8" standalone="no"?>
<!DOCTYPE svg PUBLIC "-//W3C//DTD SVG 1.1//EN"
  "http://www.w3.org/Graphics/SVG/1.1/DTD/svg11.dtd">
<svg xmlns:xlink="http://www.w3.org/1999/xlink" width="856.8pt" height="568.763437pt" viewBox="0 0 856.8 568.763437" xmlns="http://www.w3.org/2000/svg" version="1.1">
 <metadata>
  <rdf:RDF xmlns:dc="http://purl.org/dc/elements/1.1/" xmlns:cc="http://creativecommons.org/ns#" xmlns:rdf="http://www.w3.org/1999/02/22-rdf-syntax-ns#">
   <cc:Work>
    <dc:type rdf:resource="http://purl.org/dc/dcmitype/StillImage"/>
    <dc:date>2025-12-29T08:39:31.031183</dc:date>
    <dc:format>image/svg+xml</dc:format>
    <dc:creator>
     <cc:Agent>
      <dc:title>Matplotlib v3.10.1, https://matplotlib.org/</dc:title>
     </cc:Agent>
    </dc:creator>
   </cc:Work>
  </rdf:RDF>
 </metadata>
 <defs>
  <style type="text/css">*{stroke-linejoin: round; stroke-linecap: butt}</style>
 </defs>
 <g id="figure_1">
  <g id="patch_1">
   <path d="M 0 568.763437 
L 856.8 568.763437 
L 856.8 0 
L 0 0 
z
" style="fill: #f8f9fa"/>
  </g>
  <g id="axes_1">
   <g id="patch_2">
    <path d="M 302.04 181.043637 
L 554.76 181.043637 
Q 571.608 181.043637 571.608 170.618437 
L 571.608 92.429438 
Q 571.608 82.004237 554.76 82.004237 
L 302.04 82.004237 
Q 285.192 82.004237 285.192 92.429438 
L 285.192 170.618437 
Q 285.192 181.043637 302.04 181.043637 
z
" clip-path="url(#p73cc6387eb)" style="fill: #2e86ab; opacity: 0.8; stroke: #000000; stroke-width: 2; stroke-linejoin: miter"/>
   </g>
   <g id="patch_3">
    <path d="M 91.44 363.484637 
L 259.92 363.484637 
Q 276.768 363.484637 276.768 353.059437 
L 276.768 290.508237 
Q 276.768 280.083037 259.92 280.083037 
L 91.44 280.083037 
Q 74.592 280.083037 74.592 290.508237 
L 74.592 353.059437 
Q 74.592 363.484637 91.44 363.484637 
z
" clip-path="url(#p73cc6387eb)" style="fill: #eceff1; opacity: 0.9; stroke: #000000; stroke-linejoin: miter"/>
   </g>
   <g id="patch_4">
    <path d="M 91.44 478.161837 
L 259.92 478.161837 
Q 276.768 478.161837 276.768 467.736637 
L 276.768 415.610637 
Q 276.768 405.185437 259.92 405.185437 
L 91.44 405.185437 
Q 74.592 405.185437 74.592 415.610637 
L 74.592 467.736637 
Q 74.592 478.161837 91.44 478.161837 
z
" clip-path="url(#p73cc6387eb)" style="fill: #eceff1; opacity: 0.7; stroke: #000000; stroke-linejoin: miter"/>
   </g>
   <g id="patch_5">
    <path d="M 344.16 363.484637 
L 512.64 363.484637 
Q 529.488 363.484637 529.488 353.059437 
L 529.488 290.508237 
Q 529.488 280.083037 512.64 280.083037 
L 344.16 280.083037 
Q 327.312 280.083037 327.312 290.508237 
L 327.312 353.059437 
Q 327.312 363.484637 344.16 363.484637 
z
" clip-path="url(#p73cc6387eb)" style="fill: #c8e6c9; opacity: 0.9; stroke: #000000; stroke-width: 2; stroke-linejoin: miter"/>
   </g>
   <g id="patch_6">
    <path d="M 344.16 478.161837 
L 512.64 478.161837 
Q 529.488 478.161837 529.488 467.736637 
L 529.488 415.610637 
Q 529.488 405.185437 512.64 405.185437 
L 344.16 405.185437 
Q 327.312 405.185437 327.312 415.610637 
L 327.312 467.736637 
Q 327.312 478.161837 344.16 478.161837 
z
" clip-path="url(#p73cc6387eb)" style="fill: #c8e6c9; opacity: 0.7; stroke: #000000; stroke-linejoin: miter"/>
   </g>
   <g id="patch_7">
    <path d="M 596.88 363.484637 
L 765.36 363.484637 
Q 782.208 363.484637 782.208 353.059437 
L 782.208 290.508237 
Q 782.208 280.083037 765.36 280.083037 
L 596.88 280.083037 
Q 580.032 280.083037 580.032 290.508237 
L 580.032 353.059437 
Q 580.032 363.484637 596.88 363.484637 
z
" clip-path="url(#p73cc6387eb)" style="fill: #eceff1; opacity: 0.9; stroke: #000000; stroke-linejoin: miter"/>
   </g>
   <g id="patch_8">
    <path d="M 596.88 478.161837 
L 765.36 478.161837 
Q 782.208 478.161837 782.208 467.736637 
L 782.208 415.610637 
Q 782.208 405.185437 765.36 405.185437 
L 596.88 405.185437 
Q 580.032 405.185437 580.032 415.610637 
L 580.032 467.736637 
Q 580.032 478.161837 596.88 478.161837 
z
" clip-path="url(#p73cc6387eb)" style="fill: #eceff1; opacity: 0.7; stroke: #000000; stroke-linejoin: miter"/>
   </g>
   <g id="patch_9">
    <path d="M 259.92 561.563437 
L 596.88 561.563437 
Q 613.728 561.563437 613.728 551.138237 
L 613.728 499.012237 
Q 613.728 488.587037 596.88 488.587037 
L 259.92 488.587037 
Q 243.072 488.587037 243.072 499.012237 
L 243.072 551.138237 
Q 243.072 561.563437 259.92 561.563437 
z
" clip-path="url(#p73cc6387eb)" style="fill: #ffecb3; opacity: 0.9; stroke: #ff8f00; stroke-width: 2; stroke-linejoin: miter"/>
   </g>
   <g id="text_1">
    <!-- QUERY (Q) -->
    <g style="fill: #ffffff" transform="translate(394.451719 127.964578) scale(0.13 -0.13)">
     <defs>
      <path id="Arial-BoldMT-51" d="M 4153 581 
Q 4494 338 4894 194 
L 4553 -459 
Q 4344 -397 4144 -288 
Q 4100 -266 3528 119 
Q 3078 -78 2531 -78 
Q 1475 -78 876 544 
Q 278 1166 278 2291 
Q 278 3413 878 4036 
Q 1478 4659 2506 4659 
Q 3525 4659 4122 4036 
Q 4719 3413 4719 2291 
Q 4719 1697 4553 1247 
Q 4428 903 4153 581 
z
M 3409 1103 
Q 3588 1313 3677 1609 
Q 3766 1906 3766 2291 
Q 3766 3084 3416 3476 
Q 3066 3869 2500 3869 
Q 1934 3869 1582 3475 
Q 1231 3081 1231 2291 
Q 1231 1488 1582 1089 
Q 1934 691 2472 691 
Q 2672 691 2850 756 
Q 2569 941 2278 1044 
L 2538 1572 
Q 2994 1416 3409 1103 
z
" transform="scale(0.015625)"/>
      <path id="Arial-BoldMT-55" d="M 459 4581 
L 1384 4581 
L 1384 2100 
Q 1384 1509 1419 1334 
Q 1478 1053 1701 883 
Q 1925 713 2313 713 
Q 2706 713 2906 873 
Q 3106 1034 3147 1268 
Q 3188 1503 3188 2047 
L 3188 4581 
L 4113 4581 
L 4113 2175 
Q 4113 1350 4038 1009 
Q 3963 669 3761 434 
Q 3559 200 3221 61 
Q 2884 -78 2341 -78 
Q 1684 -78 1345 73 
Q 1006 225 809 467 
Q 613 709 550 975 
Q 459 1369 459 2138 
L 459 4581 
z
" transform="scale(0.015625)"/>
      <path id="Arial-BoldMT-45" d="M 466 0 
L 466 4581 
L 3863 4581 
L 3863 3806 
L 1391 3806 
L 1391 2791 
L 3691 2791 
L 3691 2019 
L 1391 2019 
L 1391 772 
L 3950 772 
L 3950 0 
L 466 0 
z
" transform="scale(0.015625)"/>
      <path id="Arial-BoldMT-52" d="M 469 0 
L 469 4581 
L 2416 4581 
Q 3150 4581 3483 4457 
Q 3816 4334 4016 4018 
Q 4216 3703 4216 3297 
Q 4216 2781 3912 2445 
Q 3609 2109 3006 2022 
Q 3306 1847 3501 1637 
Q 3697 1428 4028 894 
L 4588 0 
L 3481 0 
L 2813 997 
Q 2456 1531 2325 1670 
Q 2194 1809 2047 1861 
Q 1900 1913 1581 1913 
L 1394 1913 
L 1394 0 
L 469 0 
z
M 1394 2644 
L 2078 2644 
Q 2744 2644 2909 2700 
Q 3075 2756 3169 2893 
Q 3263 3031 3263 3238 
Q 3263 3469 3139 3611 
Q 3016 3753 2791 3791 
Q 2678 3806 2116 3806 
L 1394 3806 
L 1394 2644 
z
" transform="scale(0.015625)"/>
      <path id="Arial-BoldMT-59" d="M 1669 0 
L 1669 1928 
L -9 4581 
L 1075 4581 
L 2153 2769 
L 3209 4581 
L 4275 4581 
L 2591 1922 
L 2591 0 
L 1669 0 
z
" transform="scale(0.015625)"/>
      <path id="Arial-BoldMT-20" transform="scale(0.015625)"/>
      <path id="Arial-BoldMT-28" d="M 1916 -1347 
L 1313 -1347 
Q 834 -625 584 153 
Q 334 931 334 1659 
Q 334 2563 644 3369 
Q 913 4069 1325 4659 
L 1925 4659 
Q 1497 3713 1336 3048 
Q 1175 2384 1175 1641 
Q 1175 1128 1270 590 
Q 1366 53 1531 -431 
Q 1641 -750 1916 -1347 
z
" transform="scale(0.015625)"/>
      <path id="Arial-BoldMT-29" d="M 216 -1347 
Q 475 -791 581 -494 
Q 688 -197 778 190 
Q 869 578 912 926 
Q 956 1275 956 1641 
Q 956 2384 797 3048 
Q 638 3713 209 4659 
L 806 4659 
Q 1278 3988 1539 3234 
Q 1800 2481 1800 1706 
Q 1800 1053 1594 306 
Q 1359 -531 822 -1347 
L 216 -1347 
z
" transform="scale(0.015625)"/>
     </defs>
     <use xlink:href="#Arial-BoldMT-51"/>
     <use xlink:href="#Arial-BoldMT-55" transform="translate(77.783203 0)"/>
     <use xlink:href="#Arial-BoldMT-45" transform="translate(150 0)"/>
     <use xlink:href="#Arial-BoldMT-52" transform="translate(216.699219 0)"/>
     <use xlink:href="#Arial-BoldMT-59" transform="translate(285.166016 0)"/>
     <use xlink:href="#Arial-BoldMT-20" transform="translate(350.115234 0)"/>
     <use xlink:href="#Arial-BoldMT-28" transform="translate(377.898438 0)"/>
     <use xlink:href="#Arial-BoldMT-51" transform="translate(411.199219 0)"/>
     <use xlink:href="#Arial-BoldMT-29" transform="translate(488.982422 0)"/>
    </g>
    <!-- 'What opens doors?' -->
    <g style="fill: #ffffff" transform="translate(364.648203 141.981422) scale(0.13 -0.13)">
     <defs>
      <path id="Arial-BoldMT-27" d="M 453 2953 
L 288 3806 
L 288 4581 
L 1244 4581 
L 1244 3806 
L 1100 2953 
L 453 2953 
z
" transform="scale(0.015625)"/>
      <path id="Arial-BoldMT-57" d="M 1116 0 
L 22 4581 
L 969 4581 
L 1659 1434 
L 2497 4581 
L 3597 4581 
L 4400 1381 
L 5103 4581 
L 6034 4581 
L 4922 0 
L 3941 0 
L 3028 3425 
L 2119 0 
L 1116 0 
z
" transform="scale(0.015625)"/>
      <path id="Arial-BoldMT-68" d="M 1334 4581 
L 1334 2897 
Q 1759 3394 2350 3394 
Q 2653 3394 2897 3281 
Q 3141 3169 3264 2994 
Q 3388 2819 3433 2606 
Q 3478 2394 3478 1947 
L 3478 0 
L 2600 0 
L 2600 1753 
Q 2600 2275 2550 2415 
Q 2500 2556 2373 2639 
Q 2247 2722 2056 2722 
Q 1838 2722 1666 2615 
Q 1494 2509 1414 2295 
Q 1334 2081 1334 1663 
L 1334 0 
L 456 0 
L 456 4581 
L 1334 4581 
z
" transform="scale(0.015625)"/>
      <path id="Arial-BoldMT-61" d="M 1116 2306 
L 319 2450 
Q 453 2931 781 3162 
Q 1109 3394 1756 3394 
Q 2344 3394 2631 3255 
Q 2919 3116 3036 2902 
Q 3153 2688 3153 2116 
L 3144 1091 
Q 3144 653 3186 445 
Q 3228 238 3344 0 
L 2475 0 
Q 2441 88 2391 259 
Q 2369 338 2359 363 
Q 2134 144 1878 34 
Q 1622 -75 1331 -75 
Q 819 -75 523 203 
Q 228 481 228 906 
Q 228 1188 362 1408 
Q 497 1628 739 1745 
Q 981 1863 1438 1950 
Q 2053 2066 2291 2166 
L 2291 2253 
Q 2291 2506 2166 2614 
Q 2041 2722 1694 2722 
Q 1459 2722 1328 2630 
Q 1197 2538 1116 2306 
z
M 2291 1594 
Q 2122 1538 1756 1459 
Q 1391 1381 1278 1306 
Q 1106 1184 1106 997 
Q 1106 813 1243 678 
Q 1381 544 1594 544 
Q 1831 544 2047 700 
Q 2206 819 2256 991 
Q 2291 1103 2291 1419 
L 2291 1594 
z
" transform="scale(0.015625)"/>
      <path id="Arial-BoldMT-74" d="M 1981 3319 
L 1981 2619 
L 1381 2619 
L 1381 1281 
Q 1381 875 1398 808 
Q 1416 741 1477 697 
Q 1538 653 1625 653 
Q 1747 653 1978 738 
L 2053 56 
Q 1747 -75 1359 -75 
Q 1122 -75 931 4 
Q 741 84 652 211 
Q 563 338 528 553 
Q 500 706 500 1172 
L 500 2619 
L 97 2619 
L 97 3319 
L 500 3319 
L 500 3978 
L 1381 4491 
L 1381 3319 
L 1981 3319 
z
" transform="scale(0.015625)"/>
      <path id="Arial-BoldMT-6f" d="M 256 1706 
Q 256 2144 472 2553 
Q 688 2963 1083 3178 
Q 1478 3394 1966 3394 
Q 2719 3394 3200 2905 
Q 3681 2416 3681 1669 
Q 3681 916 3195 420 
Q 2709 -75 1972 -75 
Q 1516 -75 1102 131 
Q 688 338 472 736 
Q 256 1134 256 1706 
z
M 1156 1659 
Q 1156 1166 1390 903 
Q 1625 641 1969 641 
Q 2313 641 2545 903 
Q 2778 1166 2778 1666 
Q 2778 2153 2545 2415 
Q 2313 2678 1969 2678 
Q 1625 2678 1390 2415 
Q 1156 2153 1156 1659 
z
" transform="scale(0.015625)"/>
      <path id="Arial-BoldMT-70" d="M 434 3319 
L 1253 3319 
L 1253 2831 
Q 1413 3081 1684 3237 
Q 1956 3394 2288 3394 
Q 2866 3394 3269 2941 
Q 3672 2488 3672 1678 
Q 3672 847 3265 386 
Q 2859 -75 2281 -75 
Q 2006 -75 1782 34 
Q 1559 144 1313 409 
L 1313 -1263 
L 434 -1263 
L 434 3319 
z
M 1303 1716 
Q 1303 1156 1525 889 
Q 1747 622 2066 622 
Q 2372 622 2575 867 
Q 2778 1113 2778 1672 
Q 2778 2194 2568 2447 
Q 2359 2700 2050 2700 
Q 1728 2700 1515 2451 
Q 1303 2203 1303 1716 
z
" transform="scale(0.015625)"/>
      <path id="Arial-BoldMT-65" d="M 2381 1056 
L 3256 909 
Q 3088 428 2723 176 
Q 2359 -75 1813 -75 
Q 947 -75 531 491 
Q 203 944 203 1634 
Q 203 2459 634 2926 
Q 1066 3394 1725 3394 
Q 2466 3394 2894 2905 
Q 3322 2416 3303 1406 
L 1103 1406 
Q 1113 1016 1316 798 
Q 1519 581 1822 581 
Q 2028 581 2168 693 
Q 2309 806 2381 1056 
z
M 2431 1944 
Q 2422 2325 2234 2523 
Q 2047 2722 1778 2722 
Q 1491 2722 1303 2513 
Q 1116 2303 1119 1944 
L 2431 1944 
z
" transform="scale(0.015625)"/>
      <path id="Arial-BoldMT-6e" d="M 3478 0 
L 2600 0 
L 2600 1694 
Q 2600 2231 2544 2389 
Q 2488 2547 2361 2634 
Q 2234 2722 2056 2722 
Q 1828 2722 1647 2597 
Q 1466 2472 1398 2265 
Q 1331 2059 1331 1503 
L 1331 0 
L 453 0 
L 453 3319 
L 1269 3319 
L 1269 2831 
Q 1703 3394 2363 3394 
Q 2653 3394 2893 3289 
Q 3134 3184 3257 3021 
Q 3381 2859 3429 2653 
Q 3478 2447 3478 2063 
L 3478 0 
z
" transform="scale(0.015625)"/>
      <path id="Arial-BoldMT-73" d="M 150 947 
L 1031 1081 
Q 1088 825 1259 692 
Q 1431 559 1741 559 
Q 2081 559 2253 684 
Q 2369 772 2369 919 
Q 2369 1019 2306 1084 
Q 2241 1147 2013 1200 
Q 950 1434 666 1628 
Q 272 1897 272 2375 
Q 272 2806 612 3100 
Q 953 3394 1669 3394 
Q 2350 3394 2681 3172 
Q 3013 2950 3138 2516 
L 2309 2363 
Q 2256 2556 2107 2659 
Q 1959 2763 1684 2763 
Q 1338 2763 1188 2666 
Q 1088 2597 1088 2488 
Q 1088 2394 1175 2328 
Q 1294 2241 1995 2081 
Q 2697 1922 2975 1691 
Q 3250 1456 3250 1038 
Q 3250 581 2869 253 
Q 2488 -75 1741 -75 
Q 1063 -75 667 200 
Q 272 475 150 947 
z
" transform="scale(0.015625)"/>
      <path id="Arial-BoldMT-64" d="M 3503 0 
L 2688 0 
L 2688 488 
Q 2484 203 2207 64 
Q 1931 -75 1650 -75 
Q 1078 -75 670 386 
Q 263 847 263 1672 
Q 263 2516 659 2955 
Q 1056 3394 1663 3394 
Q 2219 3394 2625 2931 
L 2625 4581 
L 3503 4581 
L 3503 0 
z
M 1159 1731 
Q 1159 1200 1306 963 
Q 1519 619 1900 619 
Q 2203 619 2415 876 
Q 2628 1134 2628 1647 
Q 2628 2219 2422 2470 
Q 2216 2722 1894 2722 
Q 1581 2722 1370 2473 
Q 1159 2225 1159 1731 
z
" transform="scale(0.015625)"/>
      <path id="Arial-BoldMT-72" d="M 1300 0 
L 422 0 
L 422 3319 
L 1238 3319 
L 1238 2847 
Q 1447 3181 1614 3287 
Q 1781 3394 1994 3394 
Q 2294 3394 2572 3228 
L 2300 2463 
Q 2078 2606 1888 2606 
Q 1703 2606 1575 2504 
Q 1447 2403 1373 2137 
Q 1300 1872 1300 1025 
L 1300 0 
z
" transform="scale(0.015625)"/>
      <path id="Arial-BoldMT-3f" d="M 2347 1181 
L 1550 1181 
Q 1547 1353 1547 1391 
Q 1547 1778 1675 2028 
Q 1803 2278 2187 2590 
Q 2572 2903 2647 3000 
Q 2763 3153 2763 3338 
Q 2763 3594 2558 3776 
Q 2353 3959 2006 3959 
Q 1672 3959 1447 3768 
Q 1222 3578 1138 3188 
L 331 3288 
Q 366 3847 808 4237 
Q 1250 4628 1969 4628 
Q 2725 4628 3172 4233 
Q 3619 3838 3619 3313 
Q 3619 3022 3455 2762 
Q 3291 2503 2753 2056 
Q 2475 1825 2408 1684 
Q 2341 1544 2347 1181 
z
M 1550 0 
L 1550 878 
L 2428 878 
L 2428 0 
L 1550 0 
z
" transform="scale(0.015625)"/>
     </defs>
     <use xlink:href="#Arial-BoldMT-27"/>
     <use xlink:href="#Arial-BoldMT-57" transform="translate(23.779297 0)"/>
     <use xlink:href="#Arial-BoldMT-68" transform="translate(118.164062 0)"/>
     <use xlink:href="#Arial-BoldMT-61" transform="translate(179.248047 0)"/>
     <use xlink:href="#Arial-BoldMT-74" transform="translate(234.863281 0)"/>
     <use xlink:href="#Arial-BoldMT-20" transform="translate(268.164062 0)"/>
     <use xlink:href="#Arial-BoldMT-6f" transform="translate(295.947266 0)"/>
     <use xlink:href="#Arial-BoldMT-70" transform="translate(357.03125 0)"/>
     <use xlink:href="#Arial-BoldMT-65" transform="translate(418.115234 0)"/>
     <use xlink:href="#Arial-BoldMT-6e" transform="translate(473.730469 0)"/>
     <use xlink:href="#Arial-BoldMT-73" transform="translate(534.814453 0)"/>
     <use xlink:href="#Arial-BoldMT-20" transform="translate(590.429688 0)"/>
     <use xlink:href="#Arial-BoldMT-64" transform="translate(618.212891 0)"/>
     <use xlink:href="#Arial-BoldMT-6f" transform="translate(679.296875 0)"/>
     <use xlink:href="#Arial-BoldMT-6f" transform="translate(740.380859 0)"/>
     <use xlink:href="#Arial-BoldMT-72" transform="translate(801.464844 0)"/>
     <use xlink:href="#Arial-BoldMT-73" transform="translate(840.380859 0)"/>
     <use xlink:href="#Arial-BoldMT-3f" transform="translate(895.996094 0)"/>
     <use xlink:href="#Arial-BoldMT-27" transform="translate(957.080078 0)"/>
    </g>
   </g>
   <g id="text_2">
    <!-- KEY: 'Alice' -->
    <g transform="translate(142.926563 324.894462) scale(0.12 -0.12)">
     <defs>
      <path id="Arial-BoldMT-4b" d="M 478 0 
L 478 4581 
L 1403 4581 
L 1403 2547 
L 3272 4581 
L 4516 4581 
L 2791 2797 
L 4609 0 
L 3413 0 
L 2153 2150 
L 1403 1384 
L 1403 0 
L 478 0 
z
" transform="scale(0.015625)"/>
      <path id="Arial-BoldMT-3a" d="M 628 2441 
L 628 3319 
L 1506 3319 
L 1506 2441 
L 628 2441 
z
M 628 0 
L 628 878 
L 1506 878 
L 1506 0 
L 628 0 
z
" transform="scale(0.015625)"/>
      <path id="Arial-BoldMT-41" d="M 4597 0 
L 3591 0 
L 3191 1041 
L 1359 1041 
L 981 0 
L 0 0 
L 1784 4581 
L 2763 4581 
L 4597 0 
z
M 2894 1813 
L 2263 3513 
L 1644 1813 
L 2894 1813 
z
" transform="scale(0.015625)"/>
      <path id="Arial-BoldMT-6c" d="M 459 0 
L 459 4581 
L 1338 4581 
L 1338 0 
L 459 0 
z
" transform="scale(0.015625)"/>
      <path id="Arial-BoldMT-69" d="M 459 3769 
L 459 4581 
L 1338 4581 
L 1338 3769 
L 459 3769 
z
M 459 0 
L 459 3319 
L 1338 3319 
L 1338 0 
L 459 0 
z
" transform="scale(0.015625)"/>
      <path id="Arial-BoldMT-63" d="M 3353 2338 
L 2488 2181 
Q 2444 2441 2289 2572 
Q 2134 2703 1888 2703 
Q 1559 2703 1364 2476 
Q 1169 2250 1169 1719 
Q 1169 1128 1367 884 
Q 1566 641 1900 641 
Q 2150 641 2309 783 
Q 2469 925 2534 1272 
L 3397 1125 
Q 3263 531 2881 228 
Q 2500 -75 1859 -75 
Q 1131 -75 698 384 
Q 266 844 266 1656 
Q 266 2478 700 2936 
Q 1134 3394 1875 3394 
Q 2481 3394 2839 3133 
Q 3197 2872 3353 2338 
z
" transform="scale(0.015625)"/>
     </defs>
     <use xlink:href="#Arial-BoldMT-4b"/>
     <use xlink:href="#Arial-BoldMT-45" transform="translate(72.216797 0)"/>
     <use xlink:href="#Arial-BoldMT-59" transform="translate(138.916016 0)"/>
     <use xlink:href="#Arial-BoldMT-3a" transform="translate(198.240234 0)"/>
     <use xlink:href="#Arial-BoldMT-20" transform="translate(231.541016 0)"/>
     <use xlink:href="#Arial-BoldMT-27" transform="translate(259.324219 0)"/>
     <use xlink:href="#Arial-BoldMT-41" transform="translate(283.103516 0)"/>
     <use xlink:href="#Arial-BoldMT-6c" transform="translate(355.320312 0)"/>
     <use xlink:href="#Arial-BoldMT-69" transform="translate(383.103516 0)"/>
     <use xlink:href="#Arial-BoldMT-63" transform="translate(410.886719 0)"/>
     <use xlink:href="#Arial-BoldMT-65" transform="translate(466.501953 0)"/>
     <use xlink:href="#Arial-BoldMT-27" transform="translate(522.117188 0)"/>
    </g>
   </g>
   <g id="text_3">
    <!-- Score: 0.1 -->
    <g style="fill: #6c757d" transform="translate(150.612031 379.122437) scale(0.11 -0.11)">
     <defs>
      <path id="ArialMT-53" d="M 288 1472 
L 859 1522 
Q 900 1178 1048 958 
Q 1197 738 1509 602 
Q 1822 466 2213 466 
Q 2559 466 2825 569 
Q 3091 672 3220 851 
Q 3350 1031 3350 1244 
Q 3350 1459 3225 1620 
Q 3100 1781 2813 1891 
Q 2628 1963 1997 2114 
Q 1366 2266 1113 2400 
Q 784 2572 623 2826 
Q 463 3081 463 3397 
Q 463 3744 659 4045 
Q 856 4347 1234 4503 
Q 1613 4659 2075 4659 
Q 2584 4659 2973 4495 
Q 3363 4331 3572 4012 
Q 3781 3694 3797 3291 
L 3216 3247 
Q 3169 3681 2898 3903 
Q 2628 4125 2100 4125 
Q 1550 4125 1298 3923 
Q 1047 3722 1047 3438 
Q 1047 3191 1225 3031 
Q 1400 2872 2139 2705 
Q 2878 2538 3153 2413 
Q 3553 2228 3743 1945 
Q 3934 1663 3934 1294 
Q 3934 928 3725 604 
Q 3516 281 3123 101 
Q 2731 -78 2241 -78 
Q 1619 -78 1198 103 
Q 778 284 539 648 
Q 300 1013 288 1472 
z
" transform="scale(0.015625)"/>
      <path id="ArialMT-63" d="M 2588 1216 
L 3141 1144 
Q 3050 572 2676 248 
Q 2303 -75 1759 -75 
Q 1078 -75 664 370 
Q 250 816 250 1647 
Q 250 2184 428 2587 
Q 606 2991 970 3192 
Q 1334 3394 1763 3394 
Q 2303 3394 2647 3120 
Q 2991 2847 3088 2344 
L 2541 2259 
Q 2463 2594 2264 2762 
Q 2066 2931 1784 2931 
Q 1359 2931 1093 2626 
Q 828 2322 828 1663 
Q 828 994 1084 691 
Q 1341 388 1753 388 
Q 2084 388 2306 591 
Q 2528 794 2588 1216 
z
" transform="scale(0.015625)"/>
      <path id="ArialMT-6f" d="M 213 1659 
Q 213 2581 725 3025 
Q 1153 3394 1769 3394 
Q 2453 3394 2887 2945 
Q 3322 2497 3322 1706 
Q 3322 1066 3130 698 
Q 2938 331 2570 128 
Q 2203 -75 1769 -75 
Q 1072 -75 642 372 
Q 213 819 213 1659 
z
M 791 1659 
Q 791 1022 1069 705 
Q 1347 388 1769 388 
Q 2188 388 2466 706 
Q 2744 1025 2744 1678 
Q 2744 2294 2464 2611 
Q 2184 2928 1769 2928 
Q 1347 2928 1069 2612 
Q 791 2297 791 1659 
z
" transform="scale(0.015625)"/>
      <path id="ArialMT-72" d="M 416 0 
L 416 3319 
L 922 3319 
L 922 2816 
Q 1116 3169 1280 3281 
Q 1444 3394 1641 3394 
Q 1925 3394 2219 3213 
L 2025 2691 
Q 1819 2813 1613 2813 
Q 1428 2813 1281 2702 
Q 1134 2591 1072 2394 
Q 978 2094 978 1738 
L 978 0 
L 416 0 
z
" transform="scale(0.015625)"/>
      <path id="ArialMT-65" d="M 2694 1069 
L 3275 997 
Q 3138 488 2766 206 
Q 2394 -75 1816 -75 
Q 1088 -75 661 373 
Q 234 822 234 1631 
Q 234 2469 665 2931 
Q 1097 3394 1784 3394 
Q 2450 3394 2872 2941 
Q 3294 2488 3294 1666 
Q 3294 1616 3291 1516 
L 816 1516 
Q 847 969 1125 678 
Q 1403 388 1819 388 
Q 2128 388 2347 550 
Q 2566 713 2694 1069 
z
M 847 1978 
L 2700 1978 
Q 2663 2397 2488 2606 
Q 2219 2931 1791 2931 
Q 1403 2931 1139 2672 
Q 875 2413 847 1978 
z
" transform="scale(0.015625)"/>
      <path id="ArialMT-3a" d="M 578 2678 
L 578 3319 
L 1219 3319 
L 1219 2678 
L 578 2678 
z
M 578 0 
L 578 641 
L 1219 641 
L 1219 0 
L 578 0 
z
" transform="scale(0.015625)"/>
      <path id="ArialMT-20" transform="scale(0.015625)"/>
      <path id="ArialMT-30" d="M 266 2259 
Q 266 3072 433 3567 
Q 600 4063 929 4331 
Q 1259 4600 1759 4600 
Q 2128 4600 2406 4451 
Q 2684 4303 2865 4023 
Q 3047 3744 3150 3342 
Q 3253 2941 3253 2259 
Q 3253 1453 3087 958 
Q 2922 463 2592 192 
Q 2263 -78 1759 -78 
Q 1097 -78 719 397 
Q 266 969 266 2259 
z
M 844 2259 
Q 844 1131 1108 757 
Q 1372 384 1759 384 
Q 2147 384 2411 759 
Q 2675 1134 2675 2259 
Q 2675 3391 2411 3762 
Q 2147 4134 1753 4134 
Q 1366 4134 1134 3806 
Q 844 3388 844 2259 
z
" transform="scale(0.015625)"/>
      <path id="ArialMT-2e" d="M 581 0 
L 581 641 
L 1222 641 
L 1222 0 
L 581 0 
z
" transform="scale(0.015625)"/>
      <path id="ArialMT-31" d="M 2384 0 
L 1822 0 
L 1822 3584 
Q 1619 3391 1289 3197 
Q 959 3003 697 2906 
L 697 3450 
Q 1169 3672 1522 3987 
Q 1875 4303 2022 4600 
L 2384 4600 
L 2384 0 
z
" transform="scale(0.015625)"/>
     </defs>
     <use xlink:href="#ArialMT-53"/>
     <use xlink:href="#ArialMT-63" transform="translate(66.699219 0)"/>
     <use xlink:href="#ArialMT-6f" transform="translate(116.699219 0)"/>
     <use xlink:href="#ArialMT-72" transform="translate(172.314453 0)"/>
     <use xlink:href="#ArialMT-65" transform="translate(205.615234 0)"/>
     <use xlink:href="#ArialMT-3a" transform="translate(261.230469 0)"/>
     <use xlink:href="#ArialMT-20" transform="translate(289.013672 0)"/>
     <use xlink:href="#ArialMT-30" transform="translate(316.796875 0)"/>
     <use xlink:href="#ArialMT-2e" transform="translate(372.412109 0)"/>
     <use xlink:href="#ArialMT-31" transform="translate(400.195312 0)"/>
    </g>
   </g>
   <g id="text_4">
    <!-- VALUE -->
    <g transform="translate(159.651875 438.970356) scale(0.1 -0.1)">
     <defs>
      <path id="ArialMT-56" d="M 1803 0 
L 28 4581 
L 684 4581 
L 1875 1253 
Q 2019 853 2116 503 
Q 2222 878 2363 1253 
L 3600 4581 
L 4219 4581 
L 2425 0 
L 1803 0 
z
" transform="scale(0.015625)"/>
      <path id="ArialMT-41" d="M -9 0 
L 1750 4581 
L 2403 4581 
L 4278 0 
L 3588 0 
L 3053 1388 
L 1138 1388 
L 634 0 
L -9 0 
z
M 1313 1881 
L 2866 1881 
L 2388 3150 
Q 2169 3728 2063 4100 
Q 1975 3659 1816 3225 
L 1313 1881 
z
" transform="scale(0.015625)"/>
      <path id="ArialMT-4c" d="M 469 0 
L 469 4581 
L 1075 4581 
L 1075 541 
L 3331 541 
L 3331 0 
L 469 0 
z
" transform="scale(0.015625)"/>
      <path id="ArialMT-55" d="M 3500 4581 
L 4106 4581 
L 4106 1934 
Q 4106 1244 3950 837 
Q 3794 431 3386 176 
Q 2978 -78 2316 -78 
Q 1672 -78 1262 144 
Q 853 366 678 786 
Q 503 1206 503 1934 
L 503 4581 
L 1109 4581 
L 1109 1938 
Q 1109 1341 1220 1058 
Q 1331 775 1601 622 
Q 1872 469 2263 469 
Q 2931 469 3215 772 
Q 3500 1075 3500 1938 
L 3500 4581 
z
" transform="scale(0.015625)"/>
      <path id="ArialMT-45" d="M 506 0 
L 506 4581 
L 3819 4581 
L 3819 4041 
L 1113 4041 
L 1113 2638 
L 3647 2638 
L 3647 2100 
L 1113 2100 
L 1113 541 
L 3925 541 
L 3925 0 
L 506 0 
z
" transform="scale(0.015625)"/>
     </defs>
     <use xlink:href="#ArialMT-56"/>
     <use xlink:href="#ArialMT-41" transform="translate(59.324219 0)"/>
     <use xlink:href="#ArialMT-4c" transform="translate(126.023438 0)"/>
     <use xlink:href="#ArialMT-55" transform="translate(181.638672 0)"/>
     <use xlink:href="#ArialMT-45" transform="translate(253.855469 0)"/>
    </g>
    <!-- [Alice embed] -->
    <g transform="translate(145.388594 449.547231) scale(0.1 -0.1)">
     <defs>
      <path id="ArialMT-5b" d="M 434 -1272 
L 434 4581 
L 1675 4581 
L 1675 4116 
L 997 4116 
L 997 -806 
L 1675 -806 
L 1675 -1272 
L 434 -1272 
z
" transform="scale(0.015625)"/>
      <path id="ArialMT-6c" d="M 409 0 
L 409 4581 
L 972 4581 
L 972 0 
L 409 0 
z
" transform="scale(0.015625)"/>
      <path id="ArialMT-69" d="M 425 3934 
L 425 4581 
L 988 4581 
L 988 3934 
L 425 3934 
z
M 425 0 
L 425 3319 
L 988 3319 
L 988 0 
L 425 0 
z
" transform="scale(0.015625)"/>
      <path id="ArialMT-6d" d="M 422 0 
L 422 3319 
L 925 3319 
L 925 2853 
Q 1081 3097 1340 3245 
Q 1600 3394 1931 3394 
Q 2300 3394 2536 3241 
Q 2772 3088 2869 2813 
Q 3263 3394 3894 3394 
Q 4388 3394 4653 3120 
Q 4919 2847 4919 2278 
L 4919 0 
L 4359 0 
L 4359 2091 
Q 4359 2428 4304 2576 
Q 4250 2725 4106 2815 
Q 3963 2906 3769 2906 
Q 3419 2906 3187 2673 
Q 2956 2441 2956 1928 
L 2956 0 
L 2394 0 
L 2394 2156 
Q 2394 2531 2256 2718 
Q 2119 2906 1806 2906 
Q 1569 2906 1367 2781 
Q 1166 2656 1075 2415 
Q 984 2175 984 1722 
L 984 0 
L 422 0 
z
" transform="scale(0.015625)"/>
      <path id="ArialMT-62" d="M 941 0 
L 419 0 
L 419 4581 
L 981 4581 
L 981 2947 
Q 1338 3394 1891 3394 
Q 2197 3394 2470 3270 
Q 2744 3147 2920 2923 
Q 3097 2700 3197 2384 
Q 3297 2069 3297 1709 
Q 3297 856 2875 390 
Q 2453 -75 1863 -75 
Q 1275 -75 941 416 
L 941 0 
z
M 934 1684 
Q 934 1088 1097 822 
Q 1363 388 1816 388 
Q 2184 388 2453 708 
Q 2722 1028 2722 1663 
Q 2722 2313 2464 2622 
Q 2206 2931 1841 2931 
Q 1472 2931 1203 2611 
Q 934 2291 934 1684 
z
" transform="scale(0.015625)"/>
      <path id="ArialMT-64" d="M 2575 0 
L 2575 419 
Q 2259 -75 1647 -75 
Q 1250 -75 917 144 
Q 584 363 401 755 
Q 219 1147 219 1656 
Q 219 2153 384 2558 
Q 550 2963 881 3178 
Q 1213 3394 1622 3394 
Q 1922 3394 2156 3267 
Q 2391 3141 2538 2938 
L 2538 4581 
L 3097 4581 
L 3097 0 
L 2575 0 
z
M 797 1656 
Q 797 1019 1065 703 
Q 1334 388 1700 388 
Q 2069 388 2326 689 
Q 2584 991 2584 1609 
Q 2584 2291 2321 2609 
Q 2059 2928 1675 2928 
Q 1300 2928 1048 2622 
Q 797 2316 797 1656 
z
" transform="scale(0.015625)"/>
      <path id="ArialMT-5d" d="M 1363 -1272 
L 122 -1272 
L 122 -806 
L 800 -806 
L 800 4116 
L 122 4116 
L 122 4581 
L 1363 4581 
L 1363 -1272 
z
" transform="scale(0.015625)"/>
     </defs>
     <use xlink:href="#ArialMT-5b"/>
     <use xlink:href="#ArialMT-41" transform="translate(27.783203 0)"/>
     <use xlink:href="#ArialMT-6c" transform="translate(94.482422 0)"/>
     <use xlink:href="#ArialMT-69" transform="translate(116.699219 0)"/>
     <use xlink:href="#ArialMT-63" transform="translate(138.916016 0)"/>
     <use xlink:href="#ArialMT-65" transform="translate(188.916016 0)"/>
     <use xlink:href="#ArialMT-20" transform="translate(244.53125 0)"/>
     <use xlink:href="#ArialMT-65" transform="translate(272.314453 0)"/>
     <use xlink:href="#ArialMT-6d" transform="translate(327.929688 0)"/>
     <use xlink:href="#ArialMT-62" transform="translate(411.230469 0)"/>
     <use xlink:href="#ArialMT-65" transform="translate(466.845703 0)"/>
     <use xlink:href="#ArialMT-64" transform="translate(522.460938 0)"/>
     <use xlink:href="#ArialMT-5d" transform="translate(578.076172 0)"/>
    </g>
   </g>
   <g id="patch_10">
    <path d="M 426.591442 171.476414 
Q 302.037357 230.564591 178.493403 289.173565 
" style="fill: none; opacity: 0.5; stroke: #000000; stroke-linecap: round"/>
    <path d="M 182.964582 289.266091 
L 178.493403 289.173565 
L 181.250131 285.652137 
" style="fill: none; opacity: 0.5; stroke: #000000; stroke-linecap: round"/>
   </g>
   <g id="text_5">
    <!-- KEY: 'key' -->
    <g transform="translate(399.976875 324.815712) scale(0.12 -0.12)">
     <defs>
      <path id="Arial-BoldMT-6b" d="M 428 0 
L 428 4581 
L 1306 4581 
L 1306 2150 
L 2334 3319 
L 3416 3319 
L 2281 2106 
L 3497 0 
L 2550 0 
L 1716 1491 
L 1306 1063 
L 1306 0 
L 428 0 
z
" transform="scale(0.015625)"/>
      <path id="Arial-BoldMT-79" d="M 44 3319 
L 978 3319 
L 1772 963 
L 2547 3319 
L 3456 3319 
L 2284 125 
L 2075 -453 
Q 1959 -744 1854 -897 
Q 1750 -1050 1614 -1145 
Q 1478 -1241 1279 -1294 
Q 1081 -1347 831 -1347 
Q 578 -1347 334 -1294 
L 256 -606 
Q 463 -647 628 -647 
Q 934 -647 1081 -467 
Q 1228 -288 1306 -9 
L 44 3319 
z
" transform="scale(0.015625)"/>
     </defs>
     <use xlink:href="#Arial-BoldMT-4b"/>
     <use xlink:href="#Arial-BoldMT-45" transform="translate(72.216797 0)"/>
     <use xlink:href="#Arial-BoldMT-59" transform="translate(138.916016 0)"/>
     <use xlink:href="#Arial-BoldMT-3a" transform="translate(198.240234 0)"/>
     <use xlink:href="#Arial-BoldMT-20" transform="translate(231.541016 0)"/>
     <use xlink:href="#Arial-BoldMT-27" transform="translate(259.324219 0)"/>
     <use xlink:href="#Arial-BoldMT-6b" transform="translate(283.103516 0)"/>
     <use xlink:href="#Arial-BoldMT-65" transform="translate(338.71875 0)"/>
     <use xlink:href="#Arial-BoldMT-79" transform="translate(394.333984 0)"/>
     <use xlink:href="#Arial-BoldMT-27" transform="translate(449.949219 0)"/>
    </g>
   </g>
   <g id="text_6">
    <!-- Score: 0.8 -->
    <g style="fill: #e63946" transform="translate(403.332031 379.122437) scale(0.11 -0.11)">
     <defs>
      <path id="ArialMT-38" d="M 1131 2484 
Q 781 2613 612 2850 
Q 444 3088 444 3419 
Q 444 3919 803 4259 
Q 1163 4600 1759 4600 
Q 2359 4600 2725 4251 
Q 3091 3903 3091 3403 
Q 3091 3084 2923 2848 
Q 2756 2613 2416 2484 
Q 2838 2347 3058 2040 
Q 3278 1734 3278 1309 
Q 3278 722 2862 322 
Q 2447 -78 1769 -78 
Q 1091 -78 675 323 
Q 259 725 259 1325 
Q 259 1772 486 2073 
Q 713 2375 1131 2484 
z
M 1019 3438 
Q 1019 3113 1228 2906 
Q 1438 2700 1772 2700 
Q 2097 2700 2305 2904 
Q 2513 3109 2513 3406 
Q 2513 3716 2298 3927 
Q 2084 4138 1766 4138 
Q 1444 4138 1231 3931 
Q 1019 3725 1019 3438 
z
M 838 1322 
Q 838 1081 952 856 
Q 1066 631 1291 507 
Q 1516 384 1775 384 
Q 2178 384 2440 643 
Q 2703 903 2703 1303 
Q 2703 1709 2433 1975 
Q 2163 2241 1756 2241 
Q 1359 2241 1098 1978 
Q 838 1716 838 1322 
z
" transform="scale(0.015625)"/>
     </defs>
     <use xlink:href="#ArialMT-53"/>
     <use xlink:href="#ArialMT-63" transform="translate(66.699219 0)"/>
     <use xlink:href="#ArialMT-6f" transform="translate(116.699219 0)"/>
     <use xlink:href="#ArialMT-72" transform="translate(172.314453 0)"/>
     <use xlink:href="#ArialMT-65" transform="translate(205.615234 0)"/>
     <use xlink:href="#ArialMT-3a" transform="translate(261.230469 0)"/>
     <use xlink:href="#ArialMT-20" transform="translate(289.013672 0)"/>
     <use xlink:href="#ArialMT-30" transform="translate(316.796875 0)"/>
     <use xlink:href="#ArialMT-2e" transform="translate(372.412109 0)"/>
     <use xlink:href="#ArialMT-38" transform="translate(400.195312 0)"/>
    </g>
   </g>
   <g id="text_7">
    <!-- VALUE -->
    <g transform="translate(412.371875 438.911762) scale(0.1 -0.1)">
     <use xlink:href="#ArialMT-56"/>
     <use xlink:href="#ArialMT-41" transform="translate(59.324219 0)"/>
     <use xlink:href="#ArialMT-4c" transform="translate(126.023438 0)"/>
     <use xlink:href="#ArialMT-55" transform="translate(181.638672 0)"/>
     <use xlink:href="#ArialMT-45" transform="translate(253.855469 0)"/>
    </g>
    <!-- [key embed] -->
    <g transform="translate(401.165625 449.488637) scale(0.1 -0.1)">
     <defs>
      <path id="ArialMT-6b" d="M 425 0 
L 425 4581 
L 988 4581 
L 988 1969 
L 2319 3319 
L 3047 3319 
L 1778 2088 
L 3175 0 
L 2481 0 
L 1384 1697 
L 988 1316 
L 988 0 
L 425 0 
z
" transform="scale(0.015625)"/>
      <path id="ArialMT-79" d="M 397 -1278 
L 334 -750 
Q 519 -800 656 -800 
Q 844 -800 956 -737 
Q 1069 -675 1141 -563 
Q 1194 -478 1313 -144 
Q 1328 -97 1363 -6 
L 103 3319 
L 709 3319 
L 1400 1397 
Q 1534 1031 1641 628 
Q 1738 1016 1872 1384 
L 2581 3319 
L 3144 3319 
L 1881 -56 
Q 1678 -603 1566 -809 
Q 1416 -1088 1222 -1217 
Q 1028 -1347 759 -1347 
Q 597 -1347 397 -1278 
z
" transform="scale(0.015625)"/>
     </defs>
     <use xlink:href="#ArialMT-5b"/>
     <use xlink:href="#ArialMT-6b" transform="translate(27.783203 0)"/>
     <use xlink:href="#ArialMT-65" transform="translate(77.783203 0)"/>
     <use xlink:href="#ArialMT-79" transform="translate(133.398438 0)"/>
     <use xlink:href="#ArialMT-20" transform="translate(183.398438 0)"/>
     <use xlink:href="#ArialMT-65" transform="translate(211.181641 0)"/>
     <use xlink:href="#ArialMT-6d" transform="translate(266.796875 0)"/>
     <use xlink:href="#ArialMT-62" transform="translate(350.097656 0)"/>
     <use xlink:href="#ArialMT-65" transform="translate(405.712891 0)"/>
     <use xlink:href="#ArialMT-64" transform="translate(461.328125 0)"/>
     <use xlink:href="#ArialMT-5d" transform="translate(516.943359 0)"/>
    </g>
   </g>
   <g id="patch_11">
    <path d="M 428.4 172.619772 
Q 428.4 230.565651 428.4 287.393496 
" style="fill: none; opacity: 0.5; stroke: #000000; stroke-linecap: round"/>
    <path d="M 430.4 283.393496 
L 428.4 287.393496 
L 426.4 283.393496 
" style="fill: none; opacity: 0.5; stroke: #000000; stroke-linecap: round"/>
   </g>
   <g id="text_8">
    <!-- KEY: 'door' -->
    <g transform="translate(649.377187 324.894462) scale(0.12 -0.12)">
     <use xlink:href="#Arial-BoldMT-4b"/>
     <use xlink:href="#Arial-BoldMT-45" transform="translate(72.216797 0)"/>
     <use xlink:href="#Arial-BoldMT-59" transform="translate(138.916016 0)"/>
     <use xlink:href="#Arial-BoldMT-3a" transform="translate(198.240234 0)"/>
     <use xlink:href="#Arial-BoldMT-20" transform="translate(231.541016 0)"/>
     <use xlink:href="#Arial-BoldMT-27" transform="translate(259.324219 0)"/>
     <use xlink:href="#Arial-BoldMT-64" transform="translate(283.103516 0)"/>
     <use xlink:href="#Arial-BoldMT-6f" transform="translate(344.1875 0)"/>
     <use xlink:href="#Arial-BoldMT-6f" transform="translate(405.271484 0)"/>
     <use xlink:href="#Arial-BoldMT-72" transform="translate(466.355469 0)"/>
     <use xlink:href="#Arial-BoldMT-27" transform="translate(505.271484 0)"/>
    </g>
   </g>
   <g id="text_9">
    <!-- Score: 0.3 -->
    <g style="fill: #6c757d" transform="translate(656.052031 379.122437) scale(0.11 -0.11)">
     <defs>
      <path id="ArialMT-33" d="M 269 1209 
L 831 1284 
Q 928 806 1161 595 
Q 1394 384 1728 384 
Q 2125 384 2398 659 
Q 2672 934 2672 1341 
Q 2672 1728 2419 1979 
Q 2166 2231 1775 2231 
Q 1616 2231 1378 2169 
L 1441 2663 
Q 1497 2656 1531 2656 
Q 1891 2656 2178 2843 
Q 2466 3031 2466 3422 
Q 2466 3731 2256 3934 
Q 2047 4138 1716 4138 
Q 1388 4138 1169 3931 
Q 950 3725 888 3313 
L 325 3413 
Q 428 3978 793 4289 
Q 1159 4600 1703 4600 
Q 2078 4600 2393 4439 
Q 2709 4278 2876 4000 
Q 3044 3722 3044 3409 
Q 3044 3113 2884 2869 
Q 2725 2625 2413 2481 
Q 2819 2388 3044 2092 
Q 3269 1797 3269 1353 
Q 3269 753 2831 336 
Q 2394 -81 1725 -81 
Q 1122 -81 723 278 
Q 325 638 269 1209 
z
" transform="scale(0.015625)"/>
     </defs>
     <use xlink:href="#ArialMT-53"/>
     <use xlink:href="#ArialMT-63" transform="translate(66.699219 0)"/>
     <use xlink:href="#ArialMT-6f" transform="translate(116.699219 0)"/>
     <use xlink:href="#ArialMT-72" transform="translate(172.314453 0)"/>
     <use xlink:href="#ArialMT-65" transform="translate(205.615234 0)"/>
     <use xlink:href="#ArialMT-3a" transform="translate(261.230469 0)"/>
     <use xlink:href="#ArialMT-20" transform="translate(289.013672 0)"/>
     <use xlink:href="#ArialMT-30" transform="translate(316.796875 0)"/>
     <use xlink:href="#ArialMT-2e" transform="translate(372.412109 0)"/>
     <use xlink:href="#ArialMT-33" transform="translate(400.195312 0)"/>
    </g>
   </g>
   <g id="text_10">
    <!-- VALUE -->
    <g transform="translate(665.091875 438.970356) scale(0.1 -0.1)">
     <use xlink:href="#ArialMT-56"/>
     <use xlink:href="#ArialMT-41" transform="translate(59.324219 0)"/>
     <use xlink:href="#ArialMT-4c" transform="translate(126.023438 0)"/>
     <use xlink:href="#ArialMT-55" transform="translate(181.638672 0)"/>
     <use xlink:href="#ArialMT-45" transform="translate(253.855469 0)"/>
    </g>
    <!-- [door embed] -->
    <g transform="translate(651.659844 449.547231) scale(0.1 -0.1)">
     <use xlink:href="#ArialMT-5b"/>
     <use xlink:href="#ArialMT-64" transform="translate(27.783203 0)"/>
     <use xlink:href="#ArialMT-6f" transform="translate(83.398438 0)"/>
     <use xlink:href="#ArialMT-6f" transform="translate(139.013672 0)"/>
     <use xlink:href="#ArialMT-72" transform="translate(194.628906 0)"/>
     <use xlink:href="#ArialMT-20" transform="translate(227.929688 0)"/>
     <use xlink:href="#ArialMT-65" transform="translate(255.712891 0)"/>
     <use xlink:href="#ArialMT-6d" transform="translate(311.328125 0)"/>
     <use xlink:href="#ArialMT-62" transform="translate(394.628906 0)"/>
     <use xlink:href="#ArialMT-65" transform="translate(450.244141 0)"/>
     <use xlink:href="#ArialMT-64" transform="translate(505.859375 0)"/>
     <use xlink:href="#ArialMT-5d" transform="translate(561.474609 0)"/>
    </g>
   </g>
   <g id="patch_12">
    <path d="M 430.208558 171.476414 
Q 554.762643 230.564591 678.306597 289.173565 
" style="fill: none; opacity: 0.5; stroke: #000000; stroke-linecap: round"/>
    <path d="M 675.549869 285.652137 
L 678.306597 289.173565 
L 673.835418 289.266091 
" style="fill: none; opacity: 0.5; stroke: #000000; stroke-linecap: round"/>
   </g>
   <g id="text_11">
    <!-- OUTPUT: Weighted sum (mostly 'key') -->
    <g transform="translate(320.31375 528.180237) scale(0.12 -0.12)">
     <defs>
      <path id="Arial-BoldMT-4f" d="M 278 2263 
Q 278 2963 488 3438 
Q 644 3788 914 4066 
Q 1184 4344 1506 4478 
Q 1934 4659 2494 4659 
Q 3506 4659 4114 4031 
Q 4722 3403 4722 2284 
Q 4722 1175 4119 548 
Q 3516 -78 2506 -78 
Q 1484 -78 881 545 
Q 278 1169 278 2263 
z
M 1231 2294 
Q 1231 1516 1590 1114 
Q 1950 713 2503 713 
Q 3056 713 3411 1111 
Q 3766 1509 3766 2306 
Q 3766 3094 3420 3481 
Q 3075 3869 2503 3869 
Q 1931 3869 1581 3476 
Q 1231 3084 1231 2294 
z
" transform="scale(0.015625)"/>
      <path id="Arial-BoldMT-54" d="M 1497 0 
L 1497 3806 
L 138 3806 
L 138 4581 
L 3778 4581 
L 3778 3806 
L 2422 3806 
L 2422 0 
L 1497 0 
z
" transform="scale(0.015625)"/>
      <path id="Arial-BoldMT-50" d="M 466 0 
L 466 4581 
L 1950 4581 
Q 2794 4581 3050 4513 
Q 3444 4409 3709 4064 
Q 3975 3719 3975 3172 
Q 3975 2750 3822 2462 
Q 3669 2175 3433 2011 
Q 3197 1847 2953 1794 
Q 2622 1728 1994 1728 
L 1391 1728 
L 1391 0 
L 466 0 
z
M 1391 3806 
L 1391 2506 
L 1897 2506 
Q 2444 2506 2628 2578 
Q 2813 2650 2917 2803 
Q 3022 2956 3022 3159 
Q 3022 3409 2875 3571 
Q 2728 3734 2503 3775 
Q 2338 3806 1838 3806 
L 1391 3806 
z
" transform="scale(0.015625)"/>
      <path id="Arial-BoldMT-67" d="M 378 -219 
L 1381 -341 
Q 1406 -516 1497 -581 
Q 1622 -675 1891 -675 
Q 2234 -675 2406 -572 
Q 2522 -503 2581 -350 
Q 2622 -241 2622 53 
L 2622 538 
Q 2228 0 1628 0 
Q 959 0 569 566 
Q 263 1013 263 1678 
Q 263 2513 664 2953 
Q 1066 3394 1663 3394 
Q 2278 3394 2678 2853 
L 2678 3319 
L 3500 3319 
L 3500 341 
Q 3500 -247 3403 -537 
Q 3306 -828 3131 -993 
Q 2956 -1159 2664 -1253 
Q 2372 -1347 1925 -1347 
Q 1081 -1347 728 -1058 
Q 375 -769 375 -325 
Q 375 -281 378 -219 
z
M 1163 1728 
Q 1163 1200 1367 954 
Q 1572 709 1872 709 
Q 2194 709 2416 961 
Q 2638 1213 2638 1706 
Q 2638 2222 2425 2472 
Q 2213 2722 1888 2722 
Q 1572 2722 1367 2476 
Q 1163 2231 1163 1728 
z
" transform="scale(0.015625)"/>
      <path id="Arial-BoldMT-75" d="M 2644 0 
L 2644 497 
Q 2463 231 2167 78 
Q 1872 -75 1544 -75 
Q 1209 -75 943 72 
Q 678 219 559 484 
Q 441 750 441 1219 
L 441 3319 
L 1319 3319 
L 1319 1794 
Q 1319 1094 1367 936 
Q 1416 778 1544 686 
Q 1672 594 1869 594 
Q 2094 594 2272 717 
Q 2450 841 2515 1023 
Q 2581 1206 2581 1919 
L 2581 3319 
L 3459 3319 
L 3459 0 
L 2644 0 
z
" transform="scale(0.015625)"/>
      <path id="Arial-BoldMT-6d" d="M 394 3319 
L 1203 3319 
L 1203 2866 
Q 1638 3394 2238 3394 
Q 2556 3394 2790 3262 
Q 3025 3131 3175 2866 
Q 3394 3131 3647 3262 
Q 3900 3394 4188 3394 
Q 4553 3394 4806 3245 
Q 5059 3097 5184 2809 
Q 5275 2597 5275 2122 
L 5275 0 
L 4397 0 
L 4397 1897 
Q 4397 2391 4306 2534 
Q 4184 2722 3931 2722 
Q 3747 2722 3584 2609 
Q 3422 2497 3350 2280 
Q 3278 2063 3278 1594 
L 3278 0 
L 2400 0 
L 2400 1819 
Q 2400 2303 2353 2443 
Q 2306 2584 2207 2653 
Q 2109 2722 1941 2722 
Q 1738 2722 1575 2612 
Q 1413 2503 1342 2297 
Q 1272 2091 1272 1613 
L 1272 0 
L 394 0 
L 394 3319 
z
" transform="scale(0.015625)"/>
     </defs>
     <use xlink:href="#Arial-BoldMT-4f"/>
     <use xlink:href="#Arial-BoldMT-55" transform="translate(77.783203 0)"/>
     <use xlink:href="#Arial-BoldMT-54" transform="translate(150 0)"/>
     <use xlink:href="#Arial-BoldMT-50" transform="translate(211.083984 0)"/>
     <use xlink:href="#Arial-BoldMT-55" transform="translate(277.783203 0)"/>
     <use xlink:href="#Arial-BoldMT-54" transform="translate(350 0)"/>
     <use xlink:href="#Arial-BoldMT-3a" transform="translate(399.958984 0)"/>
     <use xlink:href="#Arial-BoldMT-20" transform="translate(433.259766 0)"/>
     <use xlink:href="#Arial-BoldMT-57" transform="translate(461.042969 0)"/>
     <use xlink:href="#Arial-BoldMT-65" transform="translate(553.677734 0)"/>
     <use xlink:href="#Arial-BoldMT-69" transform="translate(609.292969 0)"/>
     <use xlink:href="#Arial-BoldMT-67" transform="translate(637.076172 0)"/>
     <use xlink:href="#Arial-BoldMT-68" transform="translate(698.160156 0)"/>
     <use xlink:href="#Arial-BoldMT-74" transform="translate(759.244141 0)"/>
     <use xlink:href="#Arial-BoldMT-65" transform="translate(792.544922 0)"/>
     <use xlink:href="#Arial-BoldMT-64" transform="translate(848.160156 0)"/>
     <use xlink:href="#Arial-BoldMT-20" transform="translate(909.244141 0)"/>
     <use xlink:href="#Arial-BoldMT-73" transform="translate(937.027344 0)"/>
     <use xlink:href="#Arial-BoldMT-75" transform="translate(992.642578 0)"/>
     <use xlink:href="#Arial-BoldMT-6d" transform="translate(1053.726562 0)"/>
     <use xlink:href="#Arial-BoldMT-20" transform="translate(1142.642578 0)"/>
     <use xlink:href="#Arial-BoldMT-28" transform="translate(1170.425781 0)"/>
     <use xlink:href="#Arial-BoldMT-6d" transform="translate(1203.726562 0)"/>
     <use xlink:href="#Arial-BoldMT-6f" transform="translate(1292.642578 0)"/>
     <use xlink:href="#Arial-BoldMT-73" transform="translate(1353.726562 0)"/>
     <use xlink:href="#Arial-BoldMT-74" transform="translate(1409.341797 0)"/>
     <use xlink:href="#Arial-BoldMT-6c" transform="translate(1442.642578 0)"/>
     <use xlink:href="#Arial-BoldMT-79" transform="translate(1470.425781 0)"/>
     <use xlink:href="#Arial-BoldMT-20" transform="translate(1526.041016 0)"/>
     <use xlink:href="#Arial-BoldMT-27" transform="translate(1553.824219 0)"/>
     <use xlink:href="#Arial-BoldMT-6b" transform="translate(1577.603516 0)"/>
     <use xlink:href="#Arial-BoldMT-65" transform="translate(1633.21875 0)"/>
     <use xlink:href="#Arial-BoldMT-79" transform="translate(1688.833984 0)"/>
     <use xlink:href="#Arial-BoldMT-27" transform="translate(1744.449219 0)"/>
     <use xlink:href="#Arial-BoldMT-29" transform="translate(1768.228516 0)"/>
    </g>
   </g>
   <g id="patch_13">
    <path d="M 428.4 469.733359 
Q 428.4 483.373842 428.4 494.778258 
" style="fill: none; stroke: #000000; stroke-width: 2; stroke-linecap: round"/>
    <path d="M 430.4 490.778258 
L 428.4 494.778258 
L 426.4 490.778258 
" style="fill: none; stroke: #000000; stroke-width: 2; stroke-linecap: round"/>
   </g>
   <g id="text_12">
    <!-- Attention = Query-Key Matching + Value Retrieval -->
    <g transform="translate(216.853594 20.303437) scale(0.18 -0.18)">
     <defs>
      <path id="Arial-BoldMT-3d" d="M 266 2550 
L 266 3356 
L 3469 3356 
L 3469 2550 
L 266 2550 
z
M 266 1163 
L 266 1972 
L 3469 1972 
L 3469 1163 
L 266 1163 
z
" transform="scale(0.015625)"/>
      <path id="Arial-BoldMT-2d" d="M 359 1222 
L 359 2100 
L 2084 2100 
L 2084 1222 
L 359 1222 
z
" transform="scale(0.015625)"/>
      <path id="Arial-BoldMT-4d" d="M 453 0 
L 453 4581 
L 1838 4581 
L 2669 1456 
L 3491 4581 
L 4878 4581 
L 4878 0 
L 4019 0 
L 4019 3606 
L 3109 0 
L 2219 0 
L 1313 3606 
L 1313 0 
L 453 0 
z
" transform="scale(0.015625)"/>
      <path id="Arial-BoldMT-2b" d="M 1466 659 
L 1466 1850 
L 266 1850 
L 266 2672 
L 1466 2672 
L 1466 3863 
L 2266 3863 
L 2266 2672 
L 3469 2672 
L 3469 1850 
L 2266 1850 
L 2266 659 
L 1466 659 
z
" transform="scale(0.015625)"/>
      <path id="Arial-BoldMT-56" d="M 1634 0 
L -3 4581 
L 1000 4581 
L 2159 1191 
L 3281 4581 
L 4263 4581 
L 2622 0 
L 1634 0 
z
" transform="scale(0.015625)"/>
      <path id="Arial-BoldMT-76" d="M 1372 0 
L 34 3319 
L 956 3319 
L 1581 1625 
L 1763 1059 
Q 1834 1275 1853 1344 
Q 1897 1484 1947 1625 
L 2578 3319 
L 3481 3319 
L 2163 0 
L 1372 0 
z
" transform="scale(0.015625)"/>
     </defs>
     <use xlink:href="#Arial-BoldMT-41"/>
     <use xlink:href="#Arial-BoldMT-74" transform="translate(72.216797 0)"/>
     <use xlink:href="#Arial-BoldMT-74" transform="translate(105.517578 0)"/>
     <use xlink:href="#Arial-BoldMT-65" transform="translate(138.818359 0)"/>
     <use xlink:href="#Arial-BoldMT-6e" transform="translate(194.433594 0)"/>
     <use xlink:href="#Arial-BoldMT-74" transform="translate(255.517578 0)"/>
     <use xlink:href="#Arial-BoldMT-69" transform="translate(288.818359 0)"/>
     <use xlink:href="#Arial-BoldMT-6f" transform="translate(316.601562 0)"/>
     <use xlink:href="#Arial-BoldMT-6e" transform="translate(377.685547 0)"/>
     <use xlink:href="#Arial-BoldMT-20" transform="translate(438.769531 0)"/>
     <use xlink:href="#Arial-BoldMT-3d" transform="translate(466.552734 0)"/>
     <use xlink:href="#Arial-BoldMT-20" transform="translate(524.951172 0)"/>
     <use xlink:href="#Arial-BoldMT-51" transform="translate(552.734375 0)"/>
     <use xlink:href="#Arial-BoldMT-75" transform="translate(630.517578 0)"/>
     <use xlink:href="#Arial-BoldMT-65" transform="translate(691.601562 0)"/>
     <use xlink:href="#Arial-BoldMT-72" transform="translate(747.216797 0)"/>
     <use xlink:href="#Arial-BoldMT-79" transform="translate(786.132812 0)"/>
     <use xlink:href="#Arial-BoldMT-2d" transform="translate(841.748047 0)"/>
     <use xlink:href="#Arial-BoldMT-4b" transform="translate(875.048828 0)"/>
     <use xlink:href="#Arial-BoldMT-65" transform="translate(947.265625 0)"/>
     <use xlink:href="#Arial-BoldMT-79" transform="translate(1002.880859 0)"/>
     <use xlink:href="#Arial-BoldMT-20" transform="translate(1058.496094 0)"/>
     <use xlink:href="#Arial-BoldMT-4d" transform="translate(1086.279297 0)"/>
     <use xlink:href="#Arial-BoldMT-61" transform="translate(1169.580078 0)"/>
     <use xlink:href="#Arial-BoldMT-74" transform="translate(1225.195312 0)"/>
     <use xlink:href="#Arial-BoldMT-63" transform="translate(1258.496094 0)"/>
     <use xlink:href="#Arial-BoldMT-68" transform="translate(1314.111328 0)"/>
     <use xlink:href="#Arial-BoldMT-69" transform="translate(1375.195312 0)"/>
     <use xlink:href="#Arial-BoldMT-6e" transform="translate(1402.978516 0)"/>
     <use xlink:href="#Arial-BoldMT-67" transform="translate(1464.0625 0)"/>
     <use xlink:href="#Arial-BoldMT-20" transform="translate(1525.146484 0)"/>
     <use xlink:href="#Arial-BoldMT-2b" transform="translate(1552.929688 0)"/>
     <use xlink:href="#Arial-BoldMT-20" transform="translate(1611.328125 0)"/>
     <use xlink:href="#Arial-BoldMT-56" transform="translate(1639.111328 0)"/>
     <use xlink:href="#Arial-BoldMT-61" transform="translate(1700.310547 0)"/>
     <use xlink:href="#Arial-BoldMT-6c" transform="translate(1755.925781 0)"/>
     <use xlink:href="#Arial-BoldMT-75" transform="translate(1783.708984 0)"/>
     <use xlink:href="#Arial-BoldMT-65" transform="translate(1844.792969 0)"/>
     <use xlink:href="#Arial-BoldMT-20" transform="translate(1900.408203 0)"/>
     <use xlink:href="#Arial-BoldMT-52" transform="translate(1928.191406 0)"/>
     <use xlink:href="#Arial-BoldMT-65" transform="translate(2000.408203 0)"/>
     <use xlink:href="#Arial-BoldMT-74" transform="translate(2056.023438 0)"/>
     <use xlink:href="#Arial-BoldMT-72" transform="translate(2089.324219 0)"/>
     <use xlink:href="#Arial-BoldMT-69" transform="translate(2128.240234 0)"/>
     <use xlink:href="#Arial-BoldMT-65" transform="translate(2156.023438 0)"/>
     <use xlink:href="#Arial-BoldMT-76" transform="translate(2211.638672 0)"/>
     <use xlink:href="#Arial-BoldMT-61" transform="translate(2267.253906 0)"/>
     <use xlink:href="#Arial-BoldMT-6c" transform="translate(2322.869141 0)"/>
    </g>
   </g>
  </g>
 </g>
 <defs>
  <clipPath id="p73cc6387eb">
   <rect x="7.2" y="40.303437" width="842.4" height="521.26"/>
  </clipPath>
 </defs>
</svg>
