<?xml version="1.0" encoding="utf-8" standalone="no"?>
<!DOCTYPE svg PUBLIC "-//W3C//DTD SVG 1.1//EN"
  "http://www.w3.org/Graphics/SVG/1.1/DTD/svg11.dtd">
<svg xmlns:xlink="http://www.w3.org/1999/xlink" width="1000.8pt" height="568.8pt" viewBox="0 0 1000.8 568.8" xmlns="http://www.w3.org/2000/svg" version="1.1">
 <metadata>
  <rdf:RDF xmlns:dc="http://purl.org/dc/elements/1.1/" xmlns:cc="http://creativecommons.org/ns#" xmlns:rdf="http://www.w3.org/1999/02/22-rdf-syntax-ns#">
   <cc:Work>
    <dc:type rdf:resource="http://purl.org/dc/dcmitype/StillImage"/>
    <dc:date>2025-12-29T10:02:20.608060</dc:date>
    <dc:format>image/svg+xml</dc:format>
    <dc:creator>
     <cc:Agent>
      <dc:title>Matplotlib v3.10.1, https://matplotlib.org/</dc:title>
     </cc:Agent>
    </dc:creator>
   </cc:Work>
  </rdf:RDF>
 </metadata>
 <defs>
  <style type="text/css">*{stroke-linejoin: round; stroke-linecap: butt}</style>
 </defs>
 <g id="figure_1">
  <g id="patch_1">
   <path d="M 0 568.8 
L 1000.8 568.8 
L 1000.8 0 
L 0 0 
z
" style="fill: #f8f9fa"/>
  </g>
  <g id="axes_1">
   <g id="patch_2">
    <path d="M 204.48 134.712 
L 248.868 134.712 
Q 258.732 134.712 258.732 129.168 
L 258.732 84.816 
Q 258.732 79.272 248.868 79.272 
L 204.48 79.272 
Q 194.616 79.272 194.616 84.816 
L 194.616 129.168 
Q 194.616 134.712 204.48 134.712 
z
" clip-path="url(#pf165224003)" style="fill: #6c757d; opacity: 0.3; stroke: #000000; stroke-linejoin: miter"/>
   </g>
   <g id="patch_3">
    <path d="M 253.8 134.712 
L 298.188 134.712 
Q 308.052 134.712 308.052 129.168 
L 308.052 84.816 
Q 308.052 79.272 298.188 79.272 
L 253.8 79.272 
Q 243.936 79.272 243.936 84.816 
L 243.936 129.168 
Q 243.936 134.712 253.8 134.712 
z
" clip-path="url(#pf165224003)" style="fill: #6c757d; opacity: 0.3; stroke: #000000; stroke-linejoin: miter"/>
   </g>
   <g id="patch_4">
    <path d="M 303.12 134.712 
L 347.508 134.712 
Q 357.372 134.712 357.372 129.168 
L 357.372 84.816 
Q 357.372 79.272 347.508 79.272 
L 303.12 79.272 
Q 293.256 79.272 293.256 84.816 
L 293.256 129.168 
Q 293.256 134.712 303.12 134.712 
z
" clip-path="url(#pf165224003)" style="fill: #6c757d; opacity: 0.3; stroke: #000000; stroke-linejoin: miter"/>
   </g>
   <g id="patch_5">
    <path d="M 352.44 134.712 
L 396.828 134.712 
Q 406.692 134.712 406.692 129.168 
L 406.692 84.816 
Q 406.692 79.272 396.828 79.272 
L 352.44 79.272 
Q 342.576 79.272 342.576 84.816 
L 342.576 129.168 
Q 342.576 134.712 352.44 134.712 
z
" clip-path="url(#pf165224003)" style="fill: #6c757d; opacity: 0.3; stroke: #000000; stroke-linejoin: miter"/>
   </g>
   <g id="patch_6">
    <path d="M 401.76 134.712 
L 446.148 134.712 
Q 456.012 134.712 456.012 129.168 
L 456.012 84.816 
Q 456.012 79.272 446.148 79.272 
L 401.76 79.272 
Q 391.896 79.272 391.896 84.816 
L 391.896 129.168 
Q 391.896 134.712 401.76 134.712 
z
" clip-path="url(#pf165224003)" style="fill: #6c757d; opacity: 0.3; stroke: #000000; stroke-linejoin: miter"/>
   </g>
   <g id="patch_7">
    <path d="M 451.08 134.712 
L 495.468 134.712 
Q 505.332 134.712 505.332 129.168 
L 505.332 84.816 
Q 505.332 79.272 495.468 79.272 
L 451.08 79.272 
Q 441.216 79.272 441.216 84.816 
L 441.216 129.168 
Q 441.216 134.712 451.08 134.712 
z
" clip-path="url(#pf165224003)" style="fill: #6c757d; opacity: 0.3; stroke: #000000; stroke-linejoin: miter"/>
   </g>
   <g id="patch_8">
    <path d="M 500.4 134.712 
L 544.788 134.712 
Q 554.652 134.712 554.652 129.168 
L 554.652 84.816 
Q 554.652 79.272 544.788 79.272 
L 500.4 79.272 
Q 490.536 79.272 490.536 84.816 
L 490.536 129.168 
Q 490.536 134.712 500.4 134.712 
z
" clip-path="url(#pf165224003)" style="fill: #6c757d; opacity: 0.3; stroke: #000000; stroke-linejoin: miter"/>
   </g>
   <g id="patch_9">
    <path d="M 549.72 134.712 
L 594.108 134.712 
Q 603.972 134.712 603.972 129.168 
L 603.972 84.816 
Q 603.972 79.272 594.108 79.272 
L 549.72 79.272 
Q 539.856 79.272 539.856 84.816 
L 539.856 129.168 
Q 539.856 134.712 549.72 134.712 
z
" clip-path="url(#pf165224003)" style="fill: #6c757d; opacity: 0.3; stroke: #000000; stroke-linejoin: miter"/>
   </g>
   <g id="patch_10">
    <path d="M 599.04 134.712 
L 643.428 134.712 
Q 653.292 134.712 653.292 129.168 
L 653.292 84.816 
Q 653.292 79.272 643.428 79.272 
L 599.04 79.272 
Q 589.176 79.272 589.176 84.816 
L 589.176 129.168 
Q 589.176 134.712 599.04 134.712 
z
" clip-path="url(#pf165224003)" style="fill: #6c757d; opacity: 0.3; stroke: #000000; stroke-linejoin: miter"/>
   </g>
   <g id="patch_11">
    <path d="M 648.36 134.712 
L 692.748 134.712 
Q 702.612 134.712 702.612 129.168 
L 702.612 84.816 
Q 702.612 79.272 692.748 79.272 
L 648.36 79.272 
Q 638.496 79.272 638.496 84.816 
L 638.496 129.168 
Q 638.496 134.712 648.36 134.712 
z
" clip-path="url(#pf165224003)" style="fill: #6c757d; opacity: 0.3; stroke: #000000; stroke-linejoin: miter"/>
   </g>
   <g id="patch_12">
    <path d="M 697.68 134.712 
L 742.068 134.712 
Q 751.932 134.712 751.932 129.168 
L 751.932 84.816 
Q 751.932 79.272 742.068 79.272 
L 697.68 79.272 
Q 687.816 79.272 687.816 84.816 
L 687.816 129.168 
Q 687.816 134.712 697.68 134.712 
z
" clip-path="url(#pf165224003)" style="fill: #6c757d; opacity: 0.3; stroke: #000000; stroke-linejoin: miter"/>
   </g>
   <g id="patch_13">
    <path d="M 204.48 206.784 
L 268.596 206.784 
Q 278.46 206.784 278.46 201.24 
L 278.46 156.888 
Q 278.46 151.344 268.596 151.344 
L 204.48 151.344 
Q 194.616 151.344 194.616 156.888 
L 194.616 201.24 
Q 194.616 206.784 204.48 206.784 
z
" clip-path="url(#pf165224003)" style="fill: #2e86ab; opacity: 0.6; stroke: #000000; stroke-linejoin: miter"/>
   </g>
   <g id="patch_14">
    <path d="M 283.392 206.784 
L 347.508 206.784 
Q 357.372 206.784 357.372 201.24 
L 357.372 156.888 
Q 357.372 151.344 347.508 151.344 
L 283.392 151.344 
Q 273.528 151.344 273.528 156.888 
L 273.528 201.24 
Q 273.528 206.784 283.392 206.784 
z
" clip-path="url(#pf165224003)" style="fill: #06a77d; opacity: 0.6; stroke: #000000; stroke-linejoin: miter"/>
   </g>
   <g id="patch_15">
    <path d="M 362.304 206.784 
L 426.42 206.784 
Q 436.284 206.784 436.284 201.24 
L 436.284 156.888 
Q 436.284 151.344 426.42 151.344 
L 362.304 151.344 
Q 352.44 151.344 352.44 156.888 
L 352.44 201.24 
Q 352.44 206.784 362.304 206.784 
z
" clip-path="url(#pf165224003)" style="fill: #e63946; opacity: 0.6; stroke: #000000; stroke-linejoin: miter"/>
   </g>
   <g id="patch_16">
    <path d="M 441.216 206.784 
L 505.332 206.784 
Q 515.196 206.784 515.196 201.24 
L 515.196 156.888 
Q 515.196 151.344 505.332 151.344 
L 441.216 151.344 
Q 431.352 151.344 431.352 156.888 
L 431.352 201.24 
Q 431.352 206.784 441.216 206.784 
z
" clip-path="url(#pf165224003)" style="fill: #f6ae2d; opacity: 0.6; stroke: #000000; stroke-linejoin: miter"/>
   </g>
   <g id="patch_17">
    <path d="M 520.128 206.784 
L 608.904 206.784 
Q 618.768 206.784 618.768 201.24 
L 618.768 156.888 
Q 618.768 151.344 608.904 151.344 
L 520.128 151.344 
Q 510.264 151.344 510.264 156.888 
L 510.264 201.24 
Q 510.264 206.784 520.128 206.784 
z
" clip-path="url(#pf165224003)" style="fill: #2e86ab; opacity: 0.6; stroke: #000000; stroke-linejoin: miter"/>
   </g>
   <g id="patch_18">
    <path d="M 623.7 206.784 
L 687.816 206.784 
Q 697.68 206.784 697.68 201.24 
L 697.68 156.888 
Q 697.68 151.344 687.816 151.344 
L 623.7 151.344 
Q 613.836 151.344 613.836 156.888 
L 613.836 201.24 
Q 613.836 206.784 623.7 206.784 
z
" clip-path="url(#pf165224003)" style="fill: #06a77d; opacity: 0.6; stroke: #000000; stroke-linejoin: miter"/>
   </g>
   <g id="patch_19">
    <path d="M 702.612 206.784 
L 766.728 206.784 
Q 776.592 206.784 776.592 201.24 
L 776.592 156.888 
Q 776.592 151.344 766.728 151.344 
L 702.612 151.344 
Q 692.748 151.344 692.748 156.888 
L 692.748 201.24 
Q 692.748 206.784 702.612 206.784 
z
" clip-path="url(#pf165224003)" style="fill: #e63946; opacity: 0.6; stroke: #000000; stroke-linejoin: miter"/>
   </g>
   <g id="patch_20">
    <path d="M 781.524 206.784 
L 845.64 206.784 
Q 855.504 206.784 855.504 201.24 
L 855.504 156.888 
Q 855.504 151.344 845.64 151.344 
L 781.524 151.344 
Q 771.66 151.344 771.66 156.888 
L 771.66 201.24 
Q 771.66 206.784 781.524 206.784 
z
" clip-path="url(#pf165224003)" style="fill: #f6ae2d; opacity: 0.6; stroke: #000000; stroke-linejoin: miter"/>
   </g>
   <g id="patch_21">
    <path d="M 860.436 206.784 
L 949.212 206.784 
Q 959.076 206.784 959.076 201.24 
L 959.076 156.888 
Q 959.076 151.344 949.212 151.344 
L 860.436 151.344 
Q 850.572 151.344 850.572 156.888 
L 850.572 201.24 
Q 850.572 206.784 860.436 206.784 
z
" clip-path="url(#pf165224003)" style="fill: #2e86ab; opacity: 0.6; stroke: #000000; stroke-linejoin: miter"/>
   </g>
   <g id="patch_22">
    <path d="M 204.48 289.944 
L 293.256 289.944 
Q 303.12 289.944 303.12 284.4 
L 303.12 240.048 
Q 303.12 234.504 293.256 234.504 
L 204.48 234.504 
Q 194.616 234.504 194.616 240.048 
L 194.616 284.4 
Q 194.616 289.944 204.48 289.944 
z
" clip-path="url(#pf165224003)" style="fill: #2e86ab; opacity: 0.6; stroke: #000000; stroke-linejoin: miter"/>
   </g>
   <g id="patch_23">
    <path d="M 308.052 289.944 
L 372.168 289.944 
Q 382.032 289.944 382.032 284.4 
L 382.032 240.048 
Q 382.032 234.504 372.168 234.504 
L 308.052 234.504 
Q 298.188 234.504 298.188 240.048 
L 298.188 284.4 
Q 298.188 289.944 308.052 289.944 
z
" clip-path="url(#pf165224003)" style="fill: #06a77d; opacity: 0.6; stroke: #000000; stroke-linejoin: miter"/>
   </g>
   <g id="patch_24">
    <path d="M 386.964 289.944 
L 451.08 289.944 
Q 460.944 289.944 460.944 284.4 
L 460.944 240.048 
Q 460.944 234.504 451.08 234.504 
L 386.964 234.504 
Q 377.1 234.504 377.1 240.048 
L 377.1 284.4 
Q 377.1 289.944 386.964 289.944 
z
" clip-path="url(#pf165224003)" style="fill: #e63946; opacity: 0.6; stroke: #000000; stroke-linejoin: miter"/>
   </g>
   <g id="patch_25">
    <path d="M 465.876 289.944 
L 554.652 289.944 
Q 564.516 289.944 564.516 284.4 
L 564.516 240.048 
Q 564.516 234.504 554.652 234.504 
L 465.876 234.504 
Q 456.012 234.504 456.012 240.048 
L 456.012 284.4 
Q 456.012 289.944 465.876 289.944 
z
" clip-path="url(#pf165224003)" style="fill: #f6ae2d; opacity: 0.6; stroke: #000000; stroke-linejoin: miter"/>
   </g>
   <g id="patch_26">
    <path d="M 569.448 289.944 
L 633.564 289.944 
Q 643.428 289.944 643.428 284.4 
L 643.428 240.048 
Q 643.428 234.504 633.564 234.504 
L 569.448 234.504 
Q 559.584 234.504 559.584 240.048 
L 559.584 284.4 
Q 559.584 289.944 569.448 289.944 
z
" clip-path="url(#pf165224003)" style="fill: #2e86ab; opacity: 0.6; stroke: #000000; stroke-linejoin: miter"/>
   </g>
   <g id="patch_27">
    <path d="M 648.36 289.944 
L 712.476 289.944 
Q 722.34 289.944 722.34 284.4 
L 722.34 240.048 
Q 722.34 234.504 712.476 234.504 
L 648.36 234.504 
Q 638.496 234.504 638.496 240.048 
L 638.496 284.4 
Q 638.496 289.944 648.36 289.944 
z
" clip-path="url(#pf165224003)" style="fill: #06a77d; opacity: 0.6; stroke: #000000; stroke-linejoin: miter"/>
   </g>
   <g id="patch_28">
    <path d="M 727.272 289.944 
L 791.388 289.944 
Q 801.252 289.944 801.252 284.4 
L 801.252 240.048 
Q 801.252 234.504 791.388 234.504 
L 727.272 234.504 
Q 717.408 234.504 717.408 240.048 
L 717.408 284.4 
Q 717.408 289.944 727.272 289.944 
z
" clip-path="url(#pf165224003)" style="fill: #e63946; opacity: 0.6; stroke: #000000; stroke-linejoin: miter"/>
   </g>
   <g id="patch_29">
    <path d="M 806.184 289.944 
L 894.96 289.944 
Q 904.824 289.944 904.824 284.4 
L 904.824 240.048 
Q 904.824 234.504 894.96 234.504 
L 806.184 234.504 
Q 796.32 234.504 796.32 240.048 
L 796.32 284.4 
Q 796.32 289.944 806.184 289.944 
z
" clip-path="url(#pf165224003)" style="fill: #f6ae2d; opacity: 0.6; stroke: #000000; stroke-linejoin: miter"/>
   </g>
   <g id="patch_30">
    <path d="M 204.48 373.104 
L 293.256 373.104 
Q 303.12 373.104 303.12 367.56 
L 303.12 323.208 
Q 303.12 317.664 293.256 317.664 
L 204.48 317.664 
Q 194.616 317.664 194.616 323.208 
L 194.616 367.56 
Q 194.616 373.104 204.48 373.104 
z
" clip-path="url(#pf165224003)" style="fill: #2e86ab; opacity: 0.6; stroke: #000000; stroke-linejoin: miter"/>
   </g>
   <g id="patch_31">
    <path d="M 308.052 373.104 
L 446.148 373.104 
Q 456.012 373.104 456.012 367.56 
L 456.012 323.208 
Q 456.012 317.664 446.148 317.664 
L 308.052 317.664 
Q 298.188 317.664 298.188 323.208 
L 298.188 367.56 
Q 298.188 373.104 308.052 373.104 
z
" clip-path="url(#pf165224003)" style="fill: #06a77d; opacity: 0.6; stroke: #000000; stroke-linejoin: miter"/>
   </g>
   <g id="patch_32">
    <path d="M 460.944 373.104 
L 525.06 373.104 
Q 534.924 373.104 534.924 367.56 
L 534.924 323.208 
Q 534.924 317.664 525.06 317.664 
L 460.944 317.664 
Q 451.08 317.664 451.08 323.208 
L 451.08 367.56 
Q 451.08 373.104 460.944 373.104 
z
" clip-path="url(#pf165224003)" style="fill: #e63946; opacity: 0.6; stroke: #000000; stroke-linejoin: miter"/>
   </g>
   <g id="patch_33">
    <path d="M 539.856 373.104 
L 603.972 373.104 
Q 613.836 373.104 613.836 367.56 
L 613.836 323.208 
Q 613.836 317.664 603.972 317.664 
L 539.856 317.664 
Q 529.992 317.664 529.992 323.208 
L 529.992 367.56 
Q 529.992 373.104 539.856 373.104 
z
" clip-path="url(#pf165224003)" style="fill: #f6ae2d; opacity: 0.6; stroke: #000000; stroke-linejoin: miter"/>
   </g>
   <g id="patch_34">
    <path d="M 618.768 373.104 
L 682.884 373.104 
Q 692.748 373.104 692.748 367.56 
L 692.748 323.208 
Q 692.748 317.664 682.884 317.664 
L 618.768 317.664 
Q 608.904 317.664 608.904 323.208 
L 608.904 367.56 
Q 608.904 373.104 618.768 373.104 
z
" clip-path="url(#pf165224003)" style="fill: #2e86ab; opacity: 0.6; stroke: #000000; stroke-linejoin: miter"/>
   </g>
   <g id="patch_35">
    <path d="M 697.68 373.104 
L 786.456 373.104 
Q 796.32 373.104 796.32 367.56 
L 796.32 323.208 
Q 796.32 317.664 786.456 317.664 
L 697.68 317.664 
Q 687.816 317.664 687.816 323.208 
L 687.816 367.56 
Q 687.816 373.104 697.68 373.104 
z
" clip-path="url(#pf165224003)" style="fill: #06a77d; opacity: 0.6; stroke: #000000; stroke-linejoin: miter"/>
   </g>
   <g id="patch_36">
    <path d="M 204.48 467.352 
L 293.256 467.352 
Q 303.12 467.352 303.12 461.808 
L 303.12 417.456 
Q 303.12 411.912 293.256 411.912 
L 204.48 411.912 
Q 194.616 411.912 194.616 417.456 
L 194.616 461.808 
Q 194.616 467.352 204.48 467.352 
z
" clip-path="url(#pf165224003)" style="fill: #2e86ab; opacity: 0.6; stroke: #000000; stroke-linejoin: miter"/>
   </g>
   <g id="patch_37">
    <path d="M 308.052 467.352 
L 569.448 467.352 
Q 579.312 467.352 579.312 461.808 
L 579.312 417.456 
Q 579.312 411.912 569.448 411.912 
L 308.052 411.912 
Q 298.188 411.912 298.188 417.456 
L 298.188 461.808 
Q 298.188 467.352 308.052 467.352 
z
" clip-path="url(#pf165224003)" style="fill: #06a77d; opacity: 0.6; stroke: #000000; stroke-linejoin: miter"/>
   </g>
   <g id="patch_38">
    <path d="M 105.84 561.6 
L 894.96 561.6 
Q 914.688 561.6 914.688 550.512 
L 914.688 495.072 
Q 914.688 483.984 894.96 483.984 
L 105.84 483.984 
Q 86.112 483.984 86.112 495.072 
L 86.112 550.512 
Q 86.112 561.6 105.84 561.6 
z
" clip-path="url(#pf165224003)" style="fill: #e3f2fd; stroke: #2e86ab; stroke-width: 2; stroke-linejoin: miter"/>
   </g>
   <g id="text_1">
    <!-- Byte Pair Encoding (BPE) Tokenization -->
    <g transform="translate(315.571875 34.92) scale(0.2 -0.2)">
     <defs>
      <path id="Arial-BoldMT-42" d="M 469 4581 
L 2300 4581 
Q 2844 4581 3111 4536 
Q 3378 4491 3589 4347 
Q 3800 4203 3940 3964 
Q 4081 3725 4081 3428 
Q 4081 3106 3907 2837 
Q 3734 2569 3438 2434 
Q 3856 2313 4081 2019 
Q 4306 1725 4306 1328 
Q 4306 1016 4161 720 
Q 4016 425 3764 248 
Q 3513 72 3144 31 
Q 2913 6 2028 0 
L 469 0 
L 469 4581 
z
M 1394 3819 
L 1394 2759 
L 2000 2759 
Q 2541 2759 2672 2775 
Q 2909 2803 3045 2939 
Q 3181 3075 3181 3297 
Q 3181 3509 3064 3642 
Q 2947 3775 2716 3803 
Q 2578 3819 1925 3819 
L 1394 3819 
z
M 1394 1997 
L 1394 772 
L 2250 772 
Q 2750 772 2884 800 
Q 3091 838 3220 983 
Q 3350 1128 3350 1372 
Q 3350 1578 3250 1722 
Q 3150 1866 2961 1931 
Q 2772 1997 2141 1997 
L 1394 1997 
z
" transform="scale(0.015625)"/>
      <path id="Arial-BoldMT-79" d="M 44 3319 
L 978 3319 
L 1772 963 
L 2547 3319 
L 3456 3319 
L 2284 125 
L 2075 -453 
Q 1959 -744 1854 -897 
Q 1750 -1050 1614 -1145 
Q 1478 -1241 1279 -1294 
Q 1081 -1347 831 -1347 
Q 578 -1347 334 -1294 
L 256 -606 
Q 463 -647 628 -647 
Q 934 -647 1081 -467 
Q 1228 -288 1306 -9 
L 44 3319 
z
" transform="scale(0.015625)"/>
      <path id="Arial-BoldMT-74" d="M 1981 3319 
L 1981 2619 
L 1381 2619 
L 1381 1281 
Q 1381 875 1398 808 
Q 1416 741 1477 697 
Q 1538 653 1625 653 
Q 1747 653 1978 738 
L 2053 56 
Q 1747 -75 1359 -75 
Q 1122 -75 931 4 
Q 741 84 652 211 
Q 563 338 528 553 
Q 500 706 500 1172 
L 500 2619 
L 97 2619 
L 97 3319 
L 500 3319 
L 500 3978 
L 1381 4491 
L 1381 3319 
L 1981 3319 
z
" transform="scale(0.015625)"/>
      <path id="Arial-BoldMT-65" d="M 2381 1056 
L 3256 909 
Q 3088 428 2723 176 
Q 2359 -75 1813 -75 
Q 947 -75 531 491 
Q 203 944 203 1634 
Q 203 2459 634 2926 
Q 1066 3394 1725 3394 
Q 2466 3394 2894 2905 
Q 3322 2416 3303 1406 
L 1103 1406 
Q 1113 1016 1316 798 
Q 1519 581 1822 581 
Q 2028 581 2168 693 
Q 2309 806 2381 1056 
z
M 2431 1944 
Q 2422 2325 2234 2523 
Q 2047 2722 1778 2722 
Q 1491 2722 1303 2513 
Q 1116 2303 1119 1944 
L 2431 1944 
z
" transform="scale(0.015625)"/>
      <path id="Arial-BoldMT-20" transform="scale(0.015625)"/>
      <path id="Arial-BoldMT-50" d="M 466 0 
L 466 4581 
L 1950 4581 
Q 2794 4581 3050 4513 
Q 3444 4409 3709 4064 
Q 3975 3719 3975 3172 
Q 3975 2750 3822 2462 
Q 3669 2175 3433 2011 
Q 3197 1847 2953 1794 
Q 2622 1728 1994 1728 
L 1391 1728 
L 1391 0 
L 466 0 
z
M 1391 3806 
L 1391 2506 
L 1897 2506 
Q 2444 2506 2628 2578 
Q 2813 2650 2917 2803 
Q 3022 2956 3022 3159 
Q 3022 3409 2875 3571 
Q 2728 3734 2503 3775 
Q 2338 3806 1838 3806 
L 1391 3806 
z
" transform="scale(0.015625)"/>
      <path id="Arial-BoldMT-61" d="M 1116 2306 
L 319 2450 
Q 453 2931 781 3162 
Q 1109 3394 1756 3394 
Q 2344 3394 2631 3255 
Q 2919 3116 3036 2902 
Q 3153 2688 3153 2116 
L 3144 1091 
Q 3144 653 3186 445 
Q 3228 238 3344 0 
L 2475 0 
Q 2441 88 2391 259 
Q 2369 338 2359 363 
Q 2134 144 1878 34 
Q 1622 -75 1331 -75 
Q 819 -75 523 203 
Q 228 481 228 906 
Q 228 1188 362 1408 
Q 497 1628 739 1745 
Q 981 1863 1438 1950 
Q 2053 2066 2291 2166 
L 2291 2253 
Q 2291 2506 2166 2614 
Q 2041 2722 1694 2722 
Q 1459 2722 1328 2630 
Q 1197 2538 1116 2306 
z
M 2291 1594 
Q 2122 1538 1756 1459 
Q 1391 1381 1278 1306 
Q 1106 1184 1106 997 
Q 1106 813 1243 678 
Q 1381 544 1594 544 
Q 1831 544 2047 700 
Q 2206 819 2256 991 
Q 2291 1103 2291 1419 
L 2291 1594 
z
" transform="scale(0.015625)"/>
      <path id="Arial-BoldMT-69" d="M 459 3769 
L 459 4581 
L 1338 4581 
L 1338 3769 
L 459 3769 
z
M 459 0 
L 459 3319 
L 1338 3319 
L 1338 0 
L 459 0 
z
" transform="scale(0.015625)"/>
      <path id="Arial-BoldMT-72" d="M 1300 0 
L 422 0 
L 422 3319 
L 1238 3319 
L 1238 2847 
Q 1447 3181 1614 3287 
Q 1781 3394 1994 3394 
Q 2294 3394 2572 3228 
L 2300 2463 
Q 2078 2606 1888 2606 
Q 1703 2606 1575 2504 
Q 1447 2403 1373 2137 
Q 1300 1872 1300 1025 
L 1300 0 
z
" transform="scale(0.015625)"/>
      <path id="Arial-BoldMT-45" d="M 466 0 
L 466 4581 
L 3863 4581 
L 3863 3806 
L 1391 3806 
L 1391 2791 
L 3691 2791 
L 3691 2019 
L 1391 2019 
L 1391 772 
L 3950 772 
L 3950 0 
L 466 0 
z
" transform="scale(0.015625)"/>
      <path id="Arial-BoldMT-6e" d="M 3478 0 
L 2600 0 
L 2600 1694 
Q 2600 2231 2544 2389 
Q 2488 2547 2361 2634 
Q 2234 2722 2056 2722 
Q 1828 2722 1647 2597 
Q 1466 2472 1398 2265 
Q 1331 2059 1331 1503 
L 1331 0 
L 453 0 
L 453 3319 
L 1269 3319 
L 1269 2831 
Q 1703 3394 2363 3394 
Q 2653 3394 2893 3289 
Q 3134 3184 3257 3021 
Q 3381 2859 3429 2653 
Q 3478 2447 3478 2063 
L 3478 0 
z
" transform="scale(0.015625)"/>
      <path id="Arial-BoldMT-63" d="M 3353 2338 
L 2488 2181 
Q 2444 2441 2289 2572 
Q 2134 2703 1888 2703 
Q 1559 2703 1364 2476 
Q 1169 2250 1169 1719 
Q 1169 1128 1367 884 
Q 1566 641 1900 641 
Q 2150 641 2309 783 
Q 2469 925 2534 1272 
L 3397 1125 
Q 3263 531 2881 228 
Q 2500 -75 1859 -75 
Q 1131 -75 698 384 
Q 266 844 266 1656 
Q 266 2478 700 2936 
Q 1134 3394 1875 3394 
Q 2481 3394 2839 3133 
Q 3197 2872 3353 2338 
z
" transform="scale(0.015625)"/>
      <path id="Arial-BoldMT-6f" d="M 256 1706 
Q 256 2144 472 2553 
Q 688 2963 1083 3178 
Q 1478 3394 1966 3394 
Q 2719 3394 3200 2905 
Q 3681 2416 3681 1669 
Q 3681 916 3195 420 
Q 2709 -75 1972 -75 
Q 1516 -75 1102 131 
Q 688 338 472 736 
Q 256 1134 256 1706 
z
M 1156 1659 
Q 1156 1166 1390 903 
Q 1625 641 1969 641 
Q 2313 641 2545 903 
Q 2778 1166 2778 1666 
Q 2778 2153 2545 2415 
Q 2313 2678 1969 2678 
Q 1625 2678 1390 2415 
Q 1156 2153 1156 1659 
z
" transform="scale(0.015625)"/>
      <path id="Arial-BoldMT-64" d="M 3503 0 
L 2688 0 
L 2688 488 
Q 2484 203 2207 64 
Q 1931 -75 1650 -75 
Q 1078 -75 670 386 
Q 263 847 263 1672 
Q 263 2516 659 2955 
Q 1056 3394 1663 3394 
Q 2219 3394 2625 2931 
L 2625 4581 
L 3503 4581 
L 3503 0 
z
M 1159 1731 
Q 1159 1200 1306 963 
Q 1519 619 1900 619 
Q 2203 619 2415 876 
Q 2628 1134 2628 1647 
Q 2628 2219 2422 2470 
Q 2216 2722 1894 2722 
Q 1581 2722 1370 2473 
Q 1159 2225 1159 1731 
z
" transform="scale(0.015625)"/>
      <path id="Arial-BoldMT-67" d="M 378 -219 
L 1381 -341 
Q 1406 -516 1497 -581 
Q 1622 -675 1891 -675 
Q 2234 -675 2406 -572 
Q 2522 -503 2581 -350 
Q 2622 -241 2622 53 
L 2622 538 
Q 2228 0 1628 0 
Q 959 0 569 566 
Q 263 1013 263 1678 
Q 263 2513 664 2953 
Q 1066 3394 1663 3394 
Q 2278 3394 2678 2853 
L 2678 3319 
L 3500 3319 
L 3500 341 
Q 3500 -247 3403 -537 
Q 3306 -828 3131 -993 
Q 2956 -1159 2664 -1253 
Q 2372 -1347 1925 -1347 
Q 1081 -1347 728 -1058 
Q 375 -769 375 -325 
Q 375 -281 378 -219 
z
M 1163 1728 
Q 1163 1200 1367 954 
Q 1572 709 1872 709 
Q 2194 709 2416 961 
Q 2638 1213 2638 1706 
Q 2638 2222 2425 2472 
Q 2213 2722 1888 2722 
Q 1572 2722 1367 2476 
Q 1163 2231 1163 1728 
z
" transform="scale(0.015625)"/>
      <path id="Arial-BoldMT-28" d="M 1916 -1347 
L 1313 -1347 
Q 834 -625 584 153 
Q 334 931 334 1659 
Q 334 2563 644 3369 
Q 913 4069 1325 4659 
L 1925 4659 
Q 1497 3713 1336 3048 
Q 1175 2384 1175 1641 
Q 1175 1128 1270 590 
Q 1366 53 1531 -431 
Q 1641 -750 1916 -1347 
z
" transform="scale(0.015625)"/>
      <path id="Arial-BoldMT-29" d="M 216 -1347 
Q 475 -791 581 -494 
Q 688 -197 778 190 
Q 869 578 912 926 
Q 956 1275 956 1641 
Q 956 2384 797 3048 
Q 638 3713 209 4659 
L 806 4659 
Q 1278 3988 1539 3234 
Q 1800 2481 1800 1706 
Q 1800 1053 1594 306 
Q 1359 -531 822 -1347 
L 216 -1347 
z
" transform="scale(0.015625)"/>
      <path id="Arial-BoldMT-54" d="M 1497 0 
L 1497 3806 
L 138 3806 
L 138 4581 
L 3778 4581 
L 3778 3806 
L 2422 3806 
L 2422 0 
L 1497 0 
z
" transform="scale(0.015625)"/>
      <path id="Arial-BoldMT-6b" d="M 428 0 
L 428 4581 
L 1306 4581 
L 1306 2150 
L 2334 3319 
L 3416 3319 
L 2281 2106 
L 3497 0 
L 2550 0 
L 1716 1491 
L 1306 1063 
L 1306 0 
L 428 0 
z
" transform="scale(0.015625)"/>
      <path id="Arial-BoldMT-7a" d="M 106 0 
L 106 684 
L 1350 2113 
Q 1656 2463 1803 2609 
Q 1650 2600 1400 2597 
L 228 2591 
L 228 3319 
L 2972 3319 
L 2972 2697 
L 1703 1234 
L 1256 750 
Q 1622 772 1709 772 
L 3069 772 
L 3069 0 
L 106 0 
z
" transform="scale(0.015625)"/>
     </defs>
     <use xlink:href="#Arial-BoldMT-42"/>
     <use xlink:href="#Arial-BoldMT-79" transform="translate(72.216797 0)"/>
     <use xlink:href="#Arial-BoldMT-74" transform="translate(127.832031 0)"/>
     <use xlink:href="#Arial-BoldMT-65" transform="translate(161.132812 0)"/>
     <use xlink:href="#Arial-BoldMT-20" transform="translate(216.748047 0)"/>
     <use xlink:href="#Arial-BoldMT-50" transform="translate(244.53125 0)"/>
     <use xlink:href="#Arial-BoldMT-61" transform="translate(311.230469 0)"/>
     <use xlink:href="#Arial-BoldMT-69" transform="translate(366.845703 0)"/>
     <use xlink:href="#Arial-BoldMT-72" transform="translate(394.628906 0)"/>
     <use xlink:href="#Arial-BoldMT-20" transform="translate(433.544922 0)"/>
     <use xlink:href="#Arial-BoldMT-45" transform="translate(461.328125 0)"/>
     <use xlink:href="#Arial-BoldMT-6e" transform="translate(528.027344 0)"/>
     <use xlink:href="#Arial-BoldMT-63" transform="translate(589.111328 0)"/>
     <use xlink:href="#Arial-BoldMT-6f" transform="translate(644.726562 0)"/>
     <use xlink:href="#Arial-BoldMT-64" transform="translate(705.810547 0)"/>
     <use xlink:href="#Arial-BoldMT-69" transform="translate(766.894531 0)"/>
     <use xlink:href="#Arial-BoldMT-6e" transform="translate(794.677734 0)"/>
     <use xlink:href="#Arial-BoldMT-67" transform="translate(855.761719 0)"/>
     <use xlink:href="#Arial-BoldMT-20" transform="translate(916.845703 0)"/>
     <use xlink:href="#Arial-BoldMT-28" transform="translate(944.628906 0)"/>
     <use xlink:href="#Arial-BoldMT-42" transform="translate(977.929688 0)"/>
     <use xlink:href="#Arial-BoldMT-50" transform="translate(1050.146484 0)"/>
     <use xlink:href="#Arial-BoldMT-45" transform="translate(1116.845703 0)"/>
     <use xlink:href="#Arial-BoldMT-29" transform="translate(1183.544922 0)"/>
     <use xlink:href="#Arial-BoldMT-20" transform="translate(1216.845703 0)"/>
     <use xlink:href="#Arial-BoldMT-54" transform="translate(1244.628906 0)"/>
     <use xlink:href="#Arial-BoldMT-6f" transform="translate(1298.337891 0)"/>
     <use xlink:href="#Arial-BoldMT-6b" transform="translate(1359.421875 0)"/>
     <use xlink:href="#Arial-BoldMT-65" transform="translate(1415.037109 0)"/>
     <use xlink:href="#Arial-BoldMT-6e" transform="translate(1470.652344 0)"/>
     <use xlink:href="#Arial-BoldMT-69" transform="translate(1531.736328 0)"/>
     <use xlink:href="#Arial-BoldMT-7a" transform="translate(1559.519531 0)"/>
     <use xlink:href="#Arial-BoldMT-61" transform="translate(1609.519531 0)"/>
     <use xlink:href="#Arial-BoldMT-74" transform="translate(1665.134766 0)"/>
     <use xlink:href="#Arial-BoldMT-69" transform="translate(1698.435547 0)"/>
     <use xlink:href="#Arial-BoldMT-6f" transform="translate(1726.21875 0)"/>
     <use xlink:href="#Arial-BoldMT-6e" transform="translate(1787.302734 0)"/>
    </g>
   </g>
   <g id="text_2">
    <!-- Original: -->
    <g transform="translate(56.52 106.992) scale(0.12 -0.12)">
     <defs>
      <path id="Arial-BoldMT-4f" d="M 278 2263 
Q 278 2963 488 3438 
Q 644 3788 914 4066 
Q 1184 4344 1506 4478 
Q 1934 4659 2494 4659 
Q 3506 4659 4114 4031 
Q 4722 3403 4722 2284 
Q 4722 1175 4119 548 
Q 3516 -78 2506 -78 
Q 1484 -78 881 545 
Q 278 1169 278 2263 
z
M 1231 2294 
Q 1231 1516 1590 1114 
Q 1950 713 2503 713 
Q 3056 713 3411 1111 
Q 3766 1509 3766 2306 
Q 3766 3094 3420 3481 
Q 3075 3869 2503 3869 
Q 1931 3869 1581 3476 
Q 1231 3084 1231 2294 
z
" transform="scale(0.015625)"/>
      <path id="Arial-BoldMT-6c" d="M 459 0 
L 459 4581 
L 1338 4581 
L 1338 0 
L 459 0 
z
" transform="scale(0.015625)"/>
      <path id="Arial-BoldMT-3a" d="M 628 2441 
L 628 3319 
L 1506 3319 
L 1506 2441 
L 628 2441 
z
M 628 0 
L 628 878 
L 1506 878 
L 1506 0 
L 628 0 
z
" transform="scale(0.015625)"/>
     </defs>
     <use xlink:href="#Arial-BoldMT-4f"/>
     <use xlink:href="#Arial-BoldMT-72" transform="translate(77.783203 0)"/>
     <use xlink:href="#Arial-BoldMT-69" transform="translate(116.699219 0)"/>
     <use xlink:href="#Arial-BoldMT-67" transform="translate(144.482422 0)"/>
     <use xlink:href="#Arial-BoldMT-69" transform="translate(205.566406 0)"/>
     <use xlink:href="#Arial-BoldMT-6e" transform="translate(233.349609 0)"/>
     <use xlink:href="#Arial-BoldMT-61" transform="translate(294.433594 0)"/>
     <use xlink:href="#Arial-BoldMT-6c" transform="translate(350.048828 0)"/>
     <use xlink:href="#Arial-BoldMT-3a" transform="translate(377.832031 0)"/>
    </g>
   </g>
   <g id="text_3">
    <!-- u -->
    <g transform="translate(222.398531 106.992) scale(0.14 -0.14)">
     <defs>
      <path id="Arial-BoldMT-75" d="M 2644 0 
L 2644 497 
Q 2463 231 2167 78 
Q 1872 -75 1544 -75 
Q 1209 -75 943 72 
Q 678 219 559 484 
Q 441 750 441 1219 
L 441 3319 
L 1319 3319 
L 1319 1794 
Q 1319 1094 1367 936 
Q 1416 778 1544 686 
Q 1672 594 1869 594 
Q 2094 594 2272 717 
Q 2450 841 2515 1023 
Q 2581 1206 2581 1919 
L 2581 3319 
L 3459 3319 
L 3459 0 
L 2644 0 
z
" transform="scale(0.015625)"/>
     </defs>
     <use xlink:href="#Arial-BoldMT-75"/>
    </g>
   </g>
   <g id="text_4">
    <!-- n -->
    <g transform="translate(271.718531 106.992) scale(0.14 -0.14)">
     <use xlink:href="#Arial-BoldMT-6e"/>
    </g>
   </g>
   <g id="text_5">
    <!-- h -->
    <g transform="translate(321.038531 106.992) scale(0.14 -0.14)">
     <defs>
      <path id="Arial-BoldMT-68" d="M 1334 4581 
L 1334 2897 
Q 1759 3394 2350 3394 
Q 2653 3394 2897 3281 
Q 3141 3169 3264 2994 
Q 3388 2819 3433 2606 
Q 3478 2394 3478 1947 
L 3478 0 
L 2600 0 
L 2600 1753 
Q 2600 2275 2550 2415 
Q 2500 2556 2373 2639 
Q 2247 2722 2056 2722 
Q 1838 2722 1666 2615 
Q 1494 2509 1414 2295 
Q 1334 2081 1334 1663 
L 1334 0 
L 456 0 
L 456 4581 
L 1334 4581 
z
" transform="scale(0.015625)"/>
     </defs>
     <use xlink:href="#Arial-BoldMT-68"/>
    </g>
   </g>
   <g id="text_6">
    <!-- a -->
    <g transform="translate(370.741344 106.992) scale(0.14 -0.14)">
     <use xlink:href="#Arial-BoldMT-61"/>
    </g>
   </g>
   <g id="text_7">
    <!-- p -->
    <g transform="translate(419.678531 106.992) scale(0.14 -0.14)">
     <defs>
      <path id="Arial-BoldMT-70" d="M 434 3319 
L 1253 3319 
L 1253 2831 
Q 1413 3081 1684 3237 
Q 1956 3394 2288 3394 
Q 2866 3394 3269 2941 
Q 3672 2488 3672 1678 
Q 3672 847 3265 386 
Q 2859 -75 2281 -75 
Q 2006 -75 1782 34 
Q 1559 144 1313 409 
L 1313 -1263 
L 434 -1263 
L 434 3319 
z
M 1303 1716 
Q 1303 1156 1525 889 
Q 1747 622 2066 622 
Q 2372 622 2575 867 
Q 2778 1113 2778 1672 
Q 2778 2194 2568 2447 
Q 2359 2700 2050 2700 
Q 1728 2700 1515 2451 
Q 1303 2203 1303 1716 
z
" transform="scale(0.015625)"/>
     </defs>
     <use xlink:href="#Arial-BoldMT-70"/>
    </g>
   </g>
   <g id="text_8">
    <!-- p -->
    <g transform="translate(468.998531 106.992) scale(0.14 -0.14)">
     <use xlink:href="#Arial-BoldMT-70"/>
    </g>
   </g>
   <g id="text_9">
    <!-- i -->
    <g transform="translate(520.649313 106.992) scale(0.14 -0.14)">
     <use xlink:href="#Arial-BoldMT-69"/>
    </g>
   </g>
   <g id="text_10">
    <!-- n -->
    <g transform="translate(567.638531 106.992) scale(0.14 -0.14)">
     <use xlink:href="#Arial-BoldMT-6e"/>
    </g>
   </g>
   <g id="text_11">
    <!-- e -->
    <g transform="translate(617.341344 106.992) scale(0.14 -0.14)">
     <use xlink:href="#Arial-BoldMT-65"/>
    </g>
   </g>
   <g id="text_12">
    <!-- s -->
    <g transform="translate(666.661344 106.992) scale(0.14 -0.14)">
     <defs>
      <path id="Arial-BoldMT-73" d="M 150 947 
L 1031 1081 
Q 1088 825 1259 692 
Q 1431 559 1741 559 
Q 2081 559 2253 684 
Q 2369 772 2369 919 
Q 2369 1019 2306 1084 
Q 2241 1147 2013 1200 
Q 950 1434 666 1628 
Q 272 1897 272 2375 
Q 272 2806 612 3100 
Q 953 3394 1669 3394 
Q 2350 3394 2681 3172 
Q 3013 2950 3138 2516 
L 2309 2363 
Q 2256 2556 2107 2659 
Q 1959 2763 1684 2763 
Q 1338 2763 1188 2666 
Q 1088 2597 1088 2488 
Q 1088 2394 1175 2328 
Q 1294 2241 1995 2081 
Q 2697 1922 2975 1691 
Q 3250 1456 3250 1038 
Q 3250 581 2869 253 
Q 2488 -75 1741 -75 
Q 1063 -75 667 200 
Q 272 475 150 947 
z
" transform="scale(0.015625)"/>
     </defs>
     <use xlink:href="#Arial-BoldMT-73"/>
    </g>
   </g>
   <g id="text_13">
    <!-- s -->
    <g transform="translate(715.981344 106.992) scale(0.14 -0.14)">
     <use xlink:href="#Arial-BoldMT-73"/>
    </g>
   </g>
   <g id="text_14">
    <!-- Step 1: -->
    <g transform="translate(56.52 179.064) scale(0.11 -0.11)">
     <defs>
      <path id="Arial-BoldMT-53" d="M 231 1491 
L 1131 1578 
Q 1213 1125 1461 912 
Q 1709 700 2131 700 
Q 2578 700 2804 889 
Q 3031 1078 3031 1331 
Q 3031 1494 2936 1608 
Q 2841 1722 2603 1806 
Q 2441 1863 1863 2006 
Q 1119 2191 819 2459 
Q 397 2838 397 3381 
Q 397 3731 595 4036 
Q 794 4341 1167 4500 
Q 1541 4659 2069 4659 
Q 2931 4659 3367 4281 
Q 3803 3903 3825 3272 
L 2900 3231 
Q 2841 3584 2645 3739 
Q 2450 3894 2059 3894 
Q 1656 3894 1428 3728 
Q 1281 3622 1281 3444 
Q 1281 3281 1419 3166 
Q 1594 3019 2269 2859 
Q 2944 2700 3267 2529 
Q 3591 2359 3773 2064 
Q 3956 1769 3956 1334 
Q 3956 941 3737 597 
Q 3519 253 3119 86 
Q 2719 -81 2122 -81 
Q 1253 -81 787 320 
Q 322 722 231 1491 
z
" transform="scale(0.015625)"/>
      <path id="Arial-BoldMT-31" d="M 2519 0 
L 1641 0 
L 1641 3309 
Q 1159 2859 506 2644 
L 506 3441 
Q 850 3553 1253 3867 
Q 1656 4181 1806 4600 
L 2519 4600 
L 2519 0 
z
" transform="scale(0.015625)"/>
     </defs>
     <use xlink:href="#Arial-BoldMT-53"/>
     <use xlink:href="#Arial-BoldMT-74" transform="translate(66.699219 0)"/>
     <use xlink:href="#Arial-BoldMT-65" transform="translate(100 0)"/>
     <use xlink:href="#Arial-BoldMT-70" transform="translate(155.615234 0)"/>
     <use xlink:href="#Arial-BoldMT-20" transform="translate(216.699219 0)"/>
     <use xlink:href="#Arial-BoldMT-31" transform="translate(244.482422 0)"/>
     <use xlink:href="#Arial-BoldMT-3a" transform="translate(300.097656 0)"/>
    </g>
   </g>
   <g id="text_15">
    <!-- u -->
    <g style="fill: #ffffff" transform="translate(232.873312 179.064) scale(0.12 -0.12)">
     <use xlink:href="#Arial-BoldMT-75"/>
    </g>
   </g>
   <g id="text_16">
    <!-- n -->
    <g style="fill: #ffffff" transform="translate(311.785312 179.064) scale(0.12 -0.12)">
     <use xlink:href="#Arial-BoldMT-6e"/>
    </g>
   </g>
   <g id="text_17">
    <!-- h -->
    <g style="fill: #ffffff" transform="translate(390.697313 179.064) scale(0.12 -0.12)">
     <use xlink:href="#Arial-BoldMT-68"/>
    </g>
   </g>
   <g id="text_18">
    <!-- a -->
    <g style="fill: #ffffff" transform="translate(469.937437 179.064) scale(0.12 -0.12)">
     <use xlink:href="#Arial-BoldMT-61"/>
    </g>
   </g>
   <g id="text_19">
    <!-- pp -->
    <g style="fill: #ffffff" transform="translate(557.186625 179.064) scale(0.12 -0.12)">
     <use xlink:href="#Arial-BoldMT-70"/>
     <use xlink:href="#Arial-BoldMT-70" transform="translate(61.083984 0)"/>
    </g>
   </g>
   <g id="text_20">
    <!-- i -->
    <g style="fill: #ffffff" transform="translate(654.091125 179.064) scale(0.12 -0.12)">
     <use xlink:href="#Arial-BoldMT-69"/>
    </g>
   </g>
   <g id="text_21">
    <!-- n -->
    <g style="fill: #ffffff" transform="translate(731.005312 179.064) scale(0.12 -0.12)">
     <use xlink:href="#Arial-BoldMT-6e"/>
    </g>
   </g>
   <g id="text_22">
    <!-- e -->
    <g style="fill: #ffffff" transform="translate(810.245437 179.064) scale(0.12 -0.12)">
     <use xlink:href="#Arial-BoldMT-65"/>
    </g>
   </g>
   <g id="text_23">
    <!-- ss -->
    <g style="fill: #ffffff" transform="translate(898.150875 179.064) scale(0.12 -0.12)">
     <use xlink:href="#Arial-BoldMT-73"/>
     <use xlink:href="#Arial-BoldMT-73" transform="translate(55.615234 0)"/>
    </g>
   </g>
   <g id="text_24">
    <!-- 'pp' merged -->
    <g style="fill: #808080" transform="translate(845.64 179.064) scale(0.1 -0.1)">
     <defs>
      <path id="Arial-ItalicMT-27" d="M 813 2959 
L 850 3816 
L 1013 4581 
L 1656 4581 
L 1491 3816 
L 1163 2959 
L 813 2959 
z
" transform="scale(0.015625)"/>
      <path id="Arial-ItalicMT-70" d="M -66 -1272 
L 894 3319 
L 1416 3319 
L 1319 2856 
Q 1609 3159 1839 3276 
Q 2069 3394 2325 3394 
Q 2800 3394 3112 3048 
Q 3425 2703 3425 2059 
Q 3425 1541 3253 1114 
Q 3081 688 2831 428 
Q 2581 169 2325 47 
Q 2069 -75 1800 -75 
Q 1203 -75 875 531 
L 500 -1272 
L -66 -1272 
z
M 1053 1356 
Q 1053 984 1106 841 
Q 1184 638 1362 513 
Q 1541 388 1775 388 
Q 2263 388 2563 936 
Q 2863 1484 2863 2056 
Q 2863 2478 2661 2708 
Q 2459 2938 2159 2938 
Q 1944 2938 1759 2823 
Q 1575 2709 1417 2482 
Q 1259 2256 1156 1928 
Q 1053 1600 1053 1356 
z
" transform="scale(0.015625)"/>
      <path id="Arial-ItalicMT-20" transform="scale(0.015625)"/>
      <path id="Arial-ItalicMT-6d" d="M 209 0 
L 903 3319 
L 1469 3319 
L 1353 2772 
Q 1669 3125 1917 3259 
Q 2166 3394 2456 3394 
Q 2766 3394 2973 3230 
Q 3181 3066 3247 2772 
Q 3500 3084 3779 3239 
Q 4059 3394 4369 3394 
Q 4784 3394 4992 3197 
Q 5200 3000 5200 2644 
Q 5200 2491 5128 2138 
L 4681 0 
L 4116 0 
L 4572 2194 
Q 4631 2463 4631 2578 
Q 4631 2741 4528 2834 
Q 4425 2928 4238 2928 
Q 3984 2928 3721 2775 
Q 3459 2622 3314 2373 
Q 3169 2125 3059 1609 
L 2722 0 
L 2156 0 
L 2625 2241 
Q 2675 2469 2675 2566 
Q 2675 2728 2573 2828 
Q 2472 2928 2309 2928 
Q 2069 2928 1805 2775 
Q 1541 2622 1375 2348 
Q 1209 2075 1103 1569 
L 775 0 
L 209 0 
z
" transform="scale(0.015625)"/>
      <path id="Arial-ItalicMT-65" d="M 2650 1128 
L 3200 1072 
Q 3081 663 2654 294 
Q 2228 -75 1638 -75 
Q 1269 -75 961 95 
Q 653 266 492 591 
Q 331 916 331 1331 
Q 331 1875 582 2386 
Q 834 2897 1234 3145 
Q 1634 3394 2100 3394 
Q 2694 3394 3048 3025 
Q 3403 2656 3403 2019 
Q 3403 1775 3359 1519 
L 916 1519 
Q 903 1422 903 1344 
Q 903 878 1117 633 
Q 1331 388 1641 388 
Q 1931 388 2212 578 
Q 2494 769 2650 1128 
z
M 1006 1950 
L 2869 1950 
Q 2872 2038 2872 2075 
Q 2872 2500 2659 2726 
Q 2447 2953 2113 2953 
Q 1750 2953 1451 2703 
Q 1153 2453 1006 1950 
z
" transform="scale(0.015625)"/>
      <path id="Arial-ItalicMT-72" d="M 213 0 
L 906 3319 
L 1406 3319 
L 1266 2641 
Q 1522 3025 1767 3209 
Q 2013 3394 2269 3394 
Q 2438 3394 2684 3272 
L 2453 2747 
Q 2306 2853 2131 2853 
Q 1834 2853 1521 2522 
Q 1209 2191 1031 1331 
L 750 0 
L 213 0 
z
" transform="scale(0.015625)"/>
      <path id="Arial-ItalicMT-67" d="M 181 -300 
L 753 -353 
Q 747 -547 800 -644 
Q 853 -741 969 -794 
Q 1122 -863 1366 -863 
Q 1878 -863 2103 -597 
Q 2250 -419 2375 178 
L 2431 447 
Q 1991 0 1494 0 
Q 991 0 652 370 
Q 313 741 313 1419 
Q 313 1978 580 2447 
Q 847 2916 1215 3155 
Q 1584 3394 1975 3394 
Q 2628 3394 2981 2775 
L 3094 3319 
L 3613 3319 
L 2944 116 
Q 2834 -413 2656 -708 
Q 2478 -1003 2161 -1165 
Q 1844 -1328 1428 -1328 
Q 1028 -1328 739 -1225 
Q 450 -1122 308 -923 
Q 166 -725 166 -469 
Q 166 -391 181 -300 
z
M 888 1469 
Q 888 1128 953 956 
Q 1047 716 1220 589 
Q 1394 463 1606 463 
Q 1884 463 2159 658 
Q 2434 853 2604 1262 
Q 2775 1672 2775 2044 
Q 2775 2453 2548 2695 
Q 2322 2938 1988 2938 
Q 1781 2938 1587 2827 
Q 1394 2716 1226 2489 
Q 1059 2263 973 1947 
Q 888 1631 888 1469 
z
" transform="scale(0.015625)"/>
      <path id="Arial-ItalicMT-64" d="M 2450 481 
Q 1966 -75 1438 -75 
Q 966 -75 652 273 
Q 338 622 338 1284 
Q 338 1891 586 2392 
Q 834 2894 1207 3144 
Q 1581 3394 1956 3394 
Q 2575 3394 2891 2797 
L 3266 4581 
L 3828 4581 
L 2872 0 
L 2350 0 
L 2450 481 
z
M 900 1391 
Q 900 1044 969 844 
Q 1038 644 1203 511 
Q 1369 378 1600 378 
Q 1984 378 2297 778 
Q 2716 1309 2716 2091 
Q 2716 2484 2509 2706 
Q 2303 2928 1991 2928 
Q 1788 2928 1620 2837 
Q 1453 2747 1289 2530 
Q 1125 2313 1012 1978 
Q 900 1644 900 1391 
z
" transform="scale(0.015625)"/>
     </defs>
     <use xlink:href="#Arial-ItalicMT-27"/>
     <use xlink:href="#Arial-ItalicMT-70" transform="translate(19.091797 0)"/>
     <use xlink:href="#Arial-ItalicMT-70" transform="translate(74.707031 0)"/>
     <use xlink:href="#Arial-ItalicMT-27" transform="translate(130.322266 0)"/>
     <use xlink:href="#Arial-ItalicMT-20" transform="translate(149.414062 0)"/>
     <use xlink:href="#Arial-ItalicMT-6d" transform="translate(177.197266 0)"/>
     <use xlink:href="#Arial-ItalicMT-65" transform="translate(260.498047 0)"/>
     <use xlink:href="#Arial-ItalicMT-72" transform="translate(316.113281 0)"/>
     <use xlink:href="#Arial-ItalicMT-67" transform="translate(349.414062 0)"/>
     <use xlink:href="#Arial-ItalicMT-65" transform="translate(405.029297 0)"/>
     <use xlink:href="#Arial-ItalicMT-64" transform="translate(460.644531 0)"/>
    </g>
   </g>
   <g id="text_25">
    <!-- Step 2: -->
    <g transform="translate(56.52 262.224) scale(0.11 -0.11)">
     <defs>
      <path id="Arial-BoldMT-32" d="M 3238 816 
L 3238 0 
L 159 0 
Q 209 463 459 877 
Q 709 1291 1447 1975 
Q 2041 2528 2175 2725 
Q 2356 2997 2356 3263 
Q 2356 3556 2198 3714 
Q 2041 3872 1763 3872 
Q 1488 3872 1325 3706 
Q 1163 3541 1138 3156 
L 263 3244 
Q 341 3969 753 4284 
Q 1166 4600 1784 4600 
Q 2463 4600 2850 4234 
Q 3238 3869 3238 3325 
Q 3238 3016 3127 2736 
Q 3016 2456 2775 2150 
Q 2616 1947 2200 1565 
Q 1784 1184 1673 1059 
Q 1563 934 1494 816 
L 3238 816 
z
" transform="scale(0.015625)"/>
     </defs>
     <use xlink:href="#Arial-BoldMT-53"/>
     <use xlink:href="#Arial-BoldMT-74" transform="translate(66.699219 0)"/>
     <use xlink:href="#Arial-BoldMT-65" transform="translate(100 0)"/>
     <use xlink:href="#Arial-BoldMT-70" transform="translate(155.615234 0)"/>
     <use xlink:href="#Arial-BoldMT-20" transform="translate(216.699219 0)"/>
     <use xlink:href="#Arial-BoldMT-32" transform="translate(244.482422 0)"/>
     <use xlink:href="#Arial-BoldMT-3a" transform="translate(300.097656 0)"/>
    </g>
   </g>
   <g id="text_26">
    <!-- un -->
    <g style="fill: #ffffff" transform="translate(241.538625 262.224) scale(0.12 -0.12)">
     <use xlink:href="#Arial-BoldMT-75"/>
     <use xlink:href="#Arial-BoldMT-6e" transform="translate(61.083984 0)"/>
    </g>
   </g>
   <g id="text_27">
    <!-- h -->
    <g style="fill: #ffffff" transform="translate(336.445312 262.224) scale(0.12 -0.12)">
     <use xlink:href="#Arial-BoldMT-68"/>
    </g>
   </g>
   <g id="text_28">
    <!-- a -->
    <g style="fill: #ffffff" transform="translate(415.685437 262.224) scale(0.12 -0.12)">
     <use xlink:href="#Arial-BoldMT-61"/>
    </g>
   </g>
   <g id="text_29">
    <!-- pp -->
    <g style="fill: #ffffff" transform="translate(502.934625 262.224) scale(0.12 -0.12)">
     <use xlink:href="#Arial-BoldMT-70"/>
     <use xlink:href="#Arial-BoldMT-70" transform="translate(61.083984 0)"/>
    </g>
   </g>
   <g id="text_30">
    <!-- i -->
    <g style="fill: #ffffff" transform="translate(599.839125 262.224) scale(0.12 -0.12)">
     <use xlink:href="#Arial-BoldMT-69"/>
    </g>
   </g>
   <g id="text_31">
    <!-- n -->
    <g style="fill: #ffffff" transform="translate(676.753312 262.224) scale(0.12 -0.12)">
     <use xlink:href="#Arial-BoldMT-6e"/>
    </g>
   </g>
   <g id="text_32">
    <!-- e -->
    <g style="fill: #ffffff" transform="translate(755.993438 262.224) scale(0.12 -0.12)">
     <use xlink:href="#Arial-BoldMT-65"/>
    </g>
   </g>
   <g id="text_33">
    <!-- ss -->
    <g style="fill: #ffffff" transform="translate(843.898875 262.224) scale(0.12 -0.12)">
     <use xlink:href="#Arial-BoldMT-73"/>
     <use xlink:href="#Arial-BoldMT-73" transform="translate(55.615234 0)"/>
    </g>
   </g>
   <g id="text_34">
    <!-- 'un' merged -->
    <g style="fill: #808080" transform="translate(845.64 262.224) scale(0.1 -0.1)">
     <defs>
      <path id="Arial-ItalicMT-75" d="M 2478 600 
Q 1881 -75 1256 -75 
Q 872 -75 636 145 
Q 400 366 400 684 
Q 400 894 506 1403 
L 906 3319 
L 1472 3319 
L 1028 1197 
Q 972 931 972 784 
Q 972 597 1086 492 
Q 1200 388 1422 388 
Q 1659 388 1886 503 
Q 2113 619 2277 816 
Q 2441 1013 2544 1281 
Q 2613 1453 2703 1884 
L 3003 3319 
L 3569 3319 
L 2875 0 
L 2353 0 
L 2478 600 
z
" transform="scale(0.015625)"/>
      <path id="Arial-ItalicMT-6e" d="M 213 0 
L 906 3319 
L 1419 3319 
L 1297 2741 
Q 1631 3081 1922 3237 
Q 2213 3394 2516 3394 
Q 2919 3394 3148 3175 
Q 3378 2956 3378 2591 
Q 3378 2406 3297 2009 
L 2875 0 
L 2309 0 
L 2750 2103 
Q 2816 2409 2816 2556 
Q 2816 2722 2702 2825 
Q 2588 2928 2372 2928 
Q 1938 2928 1598 2615 
Q 1259 2303 1100 1544 
L 778 0 
L 213 0 
z
" transform="scale(0.015625)"/>
     </defs>
     <use xlink:href="#Arial-ItalicMT-27"/>
     <use xlink:href="#Arial-ItalicMT-75" transform="translate(19.091797 0)"/>
     <use xlink:href="#Arial-ItalicMT-6e" transform="translate(74.707031 0)"/>
     <use xlink:href="#Arial-ItalicMT-27" transform="translate(130.322266 0)"/>
     <use xlink:href="#Arial-ItalicMT-20" transform="translate(149.414062 0)"/>
     <use xlink:href="#Arial-ItalicMT-6d" transform="translate(177.197266 0)"/>
     <use xlink:href="#Arial-ItalicMT-65" transform="translate(260.498047 0)"/>
     <use xlink:href="#Arial-ItalicMT-72" transform="translate(316.113281 0)"/>
     <use xlink:href="#Arial-ItalicMT-67" transform="translate(349.414062 0)"/>
     <use xlink:href="#Arial-ItalicMT-65" transform="translate(405.029297 0)"/>
     <use xlink:href="#Arial-ItalicMT-64" transform="translate(460.644531 0)"/>
    </g>
   </g>
   <g id="text_35">
    <!-- Step 3: -->
    <g transform="translate(56.52 345.384) scale(0.11 -0.11)">
     <defs>
      <path id="Arial-BoldMT-33" d="M 241 1216 
L 1091 1319 
Q 1131 994 1309 822 
Q 1488 650 1741 650 
Q 2013 650 2198 856 
Q 2384 1063 2384 1413 
Q 2384 1744 2206 1937 
Q 2028 2131 1772 2131 
Q 1603 2131 1369 2066 
L 1466 2781 
Q 1822 2772 2009 2936 
Q 2197 3100 2197 3372 
Q 2197 3603 2059 3740 
Q 1922 3878 1694 3878 
Q 1469 3878 1309 3722 
Q 1150 3566 1116 3266 
L 306 3403 
Q 391 3819 561 4067 
Q 731 4316 1036 4458 
Q 1341 4600 1719 4600 
Q 2366 4600 2756 4188 
Q 3078 3850 3078 3425 
Q 3078 2822 2419 2463 
Q 2813 2378 3048 2084 
Q 3284 1791 3284 1375 
Q 3284 772 2843 347 
Q 2403 -78 1747 -78 
Q 1125 -78 715 280 
Q 306 638 241 1216 
z
" transform="scale(0.015625)"/>
     </defs>
     <use xlink:href="#Arial-BoldMT-53"/>
     <use xlink:href="#Arial-BoldMT-74" transform="translate(66.699219 0)"/>
     <use xlink:href="#Arial-BoldMT-65" transform="translate(100 0)"/>
     <use xlink:href="#Arial-BoldMT-70" transform="translate(155.615234 0)"/>
     <use xlink:href="#Arial-BoldMT-20" transform="translate(216.699219 0)"/>
     <use xlink:href="#Arial-BoldMT-33" transform="translate(244.482422 0)"/>
     <use xlink:href="#Arial-BoldMT-3a" transform="translate(300.097656 0)"/>
    </g>
   </g>
   <g id="text_36">
    <!-- un -->
    <g style="fill: #ffffff" transform="translate(241.538625 345.384) scale(0.12 -0.12)">
     <use xlink:href="#Arial-BoldMT-75"/>
     <use xlink:href="#Arial-BoldMT-6e" transform="translate(61.083984 0)"/>
    </g>
   </g>
   <g id="text_37">
    <!-- happ -->
    <g style="fill: #ffffff" transform="translate(362.769375 345.384) scale(0.12 -0.12)">
     <use xlink:href="#Arial-BoldMT-68"/>
     <use xlink:href="#Arial-BoldMT-61" transform="translate(61.083984 0)"/>
     <use xlink:href="#Arial-BoldMT-70" transform="translate(116.699219 0)"/>
     <use xlink:href="#Arial-BoldMT-70" transform="translate(177.783203 0)"/>
    </g>
   </g>
   <g id="text_38">
    <!-- i -->
    <g style="fill: #ffffff" transform="translate(491.335125 345.384) scale(0.12 -0.12)">
     <use xlink:href="#Arial-BoldMT-69"/>
    </g>
   </g>
   <g id="text_39">
    <!-- n -->
    <g style="fill: #ffffff" transform="translate(568.249312 345.384) scale(0.12 -0.12)">
     <use xlink:href="#Arial-BoldMT-6e"/>
    </g>
   </g>
   <g id="text_40">
    <!-- e -->
    <g style="fill: #ffffff" transform="translate(647.489438 345.384) scale(0.12 -0.12)">
     <use xlink:href="#Arial-BoldMT-65"/>
    </g>
   </g>
   <g id="text_41">
    <!-- ss -->
    <g style="fill: #ffffff" transform="translate(735.394875 345.384) scale(0.12 -0.12)">
     <use xlink:href="#Arial-BoldMT-73"/>
     <use xlink:href="#Arial-BoldMT-73" transform="translate(55.615234 0)"/>
    </g>
   </g>
   <g id="text_42">
    <!-- 'happ' merged -->
    <g style="fill: #808080" transform="translate(845.64 345.384) scale(0.1 -0.1)">
     <defs>
      <path id="Arial-ItalicMT-68" d="M 213 0 
L 1169 4581 
L 1734 4581 
L 1369 2822 
Q 1684 3128 1956 3261 
Q 2228 3394 2516 3394 
Q 2928 3394 3156 3176 
Q 3384 2959 3384 2603 
Q 3384 2428 3284 1959 
L 2875 0 
L 2309 0 
L 2731 2009 
Q 2822 2447 2822 2559 
Q 2822 2722 2709 2825 
Q 2597 2928 2384 2928 
Q 2078 2928 1800 2767 
Q 1522 2606 1364 2326 
Q 1206 2047 1075 1425 
L 778 0 
L 213 0 
z
" transform="scale(0.015625)"/>
      <path id="Arial-ItalicMT-61" d="M 2450 413 
Q 2156 159 1884 42 
Q 1613 -75 1303 -75 
Q 844 -75 562 195 
Q 281 466 281 888 
Q 281 1166 407 1380 
Q 534 1594 743 1723 
Q 953 1853 1256 1909 
Q 1447 1947 1980 1969 
Q 2513 1991 2744 2081 
Q 2809 2313 2809 2466 
Q 2809 2663 2666 2775 
Q 2469 2931 2091 2931 
Q 1734 2931 1507 2773 
Q 1281 2616 1178 2325 
L 606 2375 
Q 781 2869 1161 3131 
Q 1541 3394 2119 3394 
Q 2734 3394 3094 3100 
Q 3369 2881 3369 2531 
Q 3369 2266 3291 1916 
L 3106 1091 
Q 3019 697 3019 450 
Q 3019 294 3088 0 
L 2516 0 
Q 2469 163 2450 413 
z
M 2659 1681 
Q 2541 1634 2405 1609 
Q 2269 1584 1950 1556 
Q 1456 1513 1253 1445 
Q 1050 1378 947 1231 
Q 844 1084 844 906 
Q 844 669 1008 516 
Q 1172 363 1475 363 
Q 1756 363 2015 511 
Q 2275 659 2425 925 
Q 2575 1191 2659 1681 
z
" transform="scale(0.015625)"/>
     </defs>
     <use xlink:href="#Arial-ItalicMT-27"/>
     <use xlink:href="#Arial-ItalicMT-68" transform="translate(19.091797 0)"/>
     <use xlink:href="#Arial-ItalicMT-61" transform="translate(74.707031 0)"/>
     <use xlink:href="#Arial-ItalicMT-70" transform="translate(130.322266 0)"/>
     <use xlink:href="#Arial-ItalicMT-70" transform="translate(185.9375 0)"/>
     <use xlink:href="#Arial-ItalicMT-27" transform="translate(241.552734 0)"/>
     <use xlink:href="#Arial-ItalicMT-20" transform="translate(260.644531 0)"/>
     <use xlink:href="#Arial-ItalicMT-6d" transform="translate(288.427734 0)"/>
     <use xlink:href="#Arial-ItalicMT-65" transform="translate(371.728516 0)"/>
     <use xlink:href="#Arial-ItalicMT-72" transform="translate(427.34375 0)"/>
     <use xlink:href="#Arial-ItalicMT-67" transform="translate(460.644531 0)"/>
     <use xlink:href="#Arial-ItalicMT-65" transform="translate(516.259766 0)"/>
     <use xlink:href="#Arial-ItalicMT-64" transform="translate(571.875 0)"/>
    </g>
   </g>
   <g id="text_43">
    <!-- Final: -->
    <g transform="translate(56.52 439.632) scale(0.11 -0.11)">
     <defs>
      <path id="Arial-BoldMT-46" d="M 472 0 
L 472 4581 
L 3613 4581 
L 3613 3806 
L 1397 3806 
L 1397 2722 
L 3309 2722 
L 3309 1947 
L 1397 1947 
L 1397 0 
L 472 0 
z
" transform="scale(0.015625)"/>
     </defs>
     <use xlink:href="#Arial-BoldMT-46"/>
     <use xlink:href="#Arial-BoldMT-69" transform="translate(61.083984 0)"/>
     <use xlink:href="#Arial-BoldMT-6e" transform="translate(88.867188 0)"/>
     <use xlink:href="#Arial-BoldMT-61" transform="translate(149.951172 0)"/>
     <use xlink:href="#Arial-BoldMT-6c" transform="translate(205.566406 0)"/>
     <use xlink:href="#Arial-BoldMT-3a" transform="translate(233.349609 0)"/>
    </g>
   </g>
   <g id="text_44">
    <!-- un -->
    <g style="fill: #ffffff" transform="translate(241.538625 439.632) scale(0.12 -0.12)">
     <use xlink:href="#Arial-BoldMT-75"/>
     <use xlink:href="#Arial-BoldMT-6e" transform="translate(61.083984 0)"/>
    </g>
   </g>
   <g id="text_45">
    <!-- happiness -->
    <g style="fill: #ffffff" transform="translate(409.078125 439.632) scale(0.12 -0.12)">
     <use xlink:href="#Arial-BoldMT-68"/>
     <use xlink:href="#Arial-BoldMT-61" transform="translate(61.083984 0)"/>
     <use xlink:href="#Arial-BoldMT-70" transform="translate(116.699219 0)"/>
     <use xlink:href="#Arial-BoldMT-70" transform="translate(177.783203 0)"/>
     <use xlink:href="#Arial-BoldMT-69" transform="translate(238.867188 0)"/>
     <use xlink:href="#Arial-BoldMT-6e" transform="translate(266.650391 0)"/>
     <use xlink:href="#Arial-BoldMT-65" transform="translate(327.734375 0)"/>
     <use xlink:href="#Arial-BoldMT-73" transform="translate(383.349609 0)"/>
     <use xlink:href="#Arial-BoldMT-73" transform="translate(438.964844 0)"/>
    </g>
   </g>
   <g id="text_46">
    <!-- Common subwords! -->
    <g style="fill: #808080" transform="translate(845.64 439.632) scale(0.1 -0.1)">
     <defs>
      <path id="Arial-ItalicMT-43" d="M 3859 1613 
L 4466 1528 
Q 4178 734 3628 328 
Q 3078 -78 2394 -78 
Q 1559 -78 1070 431 
Q 581 941 581 1891 
Q 581 3128 1325 3938 
Q 1988 4659 2972 4659 
Q 3700 4659 4151 4268 
Q 4603 3878 4675 3219 
L 4103 3166 
Q 4013 3663 3730 3908 
Q 3447 4153 3000 4153 
Q 2159 4153 1641 3406 
Q 1191 2763 1191 1878 
Q 1191 1172 1537 800 
Q 1884 428 2441 428 
Q 2916 428 3300 737 
Q 3684 1047 3859 1613 
z
" transform="scale(0.015625)"/>
      <path id="Arial-ItalicMT-6f" d="M 313 1259 
Q 313 2231 884 2869 
Q 1356 3394 2122 3394 
Q 2722 3394 3089 3019 
Q 3456 2644 3456 2006 
Q 3456 1434 3225 942 
Q 2994 450 2567 187 
Q 2141 -75 1669 -75 
Q 1281 -75 964 90 
Q 647 256 480 559 
Q 313 863 313 1259 
z
M 878 1316 
Q 878 847 1103 605 
Q 1328 363 1675 363 
Q 1856 363 2034 436 
Q 2213 509 2366 659 
Q 2519 809 2626 1001 
Q 2734 1194 2800 1416 
Q 2897 1725 2897 2009 
Q 2897 2459 2670 2707 
Q 2444 2956 2100 2956 
Q 1834 2956 1615 2829 
Q 1397 2703 1220 2459 
Q 1044 2216 961 1892 
Q 878 1569 878 1316 
z
" transform="scale(0.015625)"/>
      <path id="Arial-ItalicMT-73" d="M 266 1134 
L 831 1169 
Q 831 925 906 753 
Q 981 581 1182 472 
Q 1384 363 1653 363 
Q 2028 363 2215 513 
Q 2403 663 2403 866 
Q 2403 1013 2291 1144 
Q 2175 1275 1726 1467 
Q 1278 1659 1153 1738 
Q 944 1866 837 2039 
Q 731 2213 731 2438 
Q 731 2831 1043 3112 
Q 1356 3394 1919 3394 
Q 2544 3394 2870 3105 
Q 3197 2816 3209 2344 
L 2656 2306 
Q 2644 2606 2444 2781 
Q 2244 2956 1878 2956 
Q 1584 2956 1421 2822 
Q 1259 2688 1259 2531 
Q 1259 2375 1400 2256 
Q 1494 2175 1884 2006 
Q 2534 1725 2703 1563 
Q 2972 1303 2972 931 
Q 2972 684 2820 446 
Q 2669 209 2358 67 
Q 2047 -75 1625 -75 
Q 1050 -75 647 209 
Q 244 494 266 1134 
z
" transform="scale(0.015625)"/>
      <path id="Arial-ItalicMT-62" d="M 213 0 
L 1169 4581 
L 1734 4581 
L 1394 2944 
Q 1663 3191 1881 3292 
Q 2100 3394 2338 3394 
Q 2803 3394 3114 3047 
Q 3425 2700 3425 2038 
Q 3425 1597 3300 1231 
Q 3175 866 2990 617 
Q 2806 369 2609 220 
Q 2413 72 2206 -1 
Q 2000 -75 1809 -75 
Q 1481 -75 1231 98 
Q 981 272 841 628 
L 709 0 
L 213 0 
z
M 1050 1363 
L 1047 1256 
Q 1047 831 1250 609 
Q 1453 388 1756 388 
Q 2053 388 2301 595 
Q 2550 803 2709 1243 
Q 2869 1684 2869 2056 
Q 2869 2475 2667 2706 
Q 2466 2938 2169 2938 
Q 1863 2938 1606 2702 
Q 1350 2466 1178 1975 
Q 1050 1609 1050 1363 
z
" transform="scale(0.015625)"/>
      <path id="Arial-ItalicMT-77" d="M 844 0 
L 497 3319 
L 1041 3319 
L 1191 1828 
L 1250 991 
Q 1256 897 1269 613 
Q 1363 931 1428 1101 
Q 1494 1272 1638 1588 
L 2428 3319 
L 3044 3319 
L 3153 1659 
Q 3178 1281 3184 650 
Q 3341 1069 3694 1813 
L 4406 3319 
L 4972 3319 
L 3350 0 
L 2763 0 
L 2638 1947 
Q 2625 2128 2619 2653 
Q 2491 2319 2316 1931 
L 1438 0 
L 844 0 
z
" transform="scale(0.015625)"/>
      <path id="Arial-ItalicMT-21" d="M 716 1156 
L 1063 3644 
L 1259 4581 
L 1944 4581 
L 1731 3566 
L 1069 1156 
L 716 1156 
z
M 359 0 
L 494 641 
L 1131 641 
L 997 0 
L 359 0 
z
" transform="scale(0.015625)"/>
     </defs>
     <use xlink:href="#Arial-ItalicMT-43"/>
     <use xlink:href="#Arial-ItalicMT-6f" transform="translate(72.216797 0)"/>
     <use xlink:href="#Arial-ItalicMT-6d" transform="translate(127.832031 0)"/>
     <use xlink:href="#Arial-ItalicMT-6d" transform="translate(211.132812 0)"/>
     <use xlink:href="#Arial-ItalicMT-6f" transform="translate(294.433594 0)"/>
     <use xlink:href="#Arial-ItalicMT-6e" transform="translate(350.048828 0)"/>
     <use xlink:href="#Arial-ItalicMT-20" transform="translate(405.664062 0)"/>
     <use xlink:href="#Arial-ItalicMT-73" transform="translate(433.447266 0)"/>
     <use xlink:href="#Arial-ItalicMT-75" transform="translate(483.447266 0)"/>
     <use xlink:href="#Arial-ItalicMT-62" transform="translate(539.0625 0)"/>
     <use xlink:href="#Arial-ItalicMT-77" transform="translate(594.677734 0)"/>
     <use xlink:href="#Arial-ItalicMT-6f" transform="translate(666.894531 0)"/>
     <use xlink:href="#Arial-ItalicMT-72" transform="translate(722.509766 0)"/>
     <use xlink:href="#Arial-ItalicMT-64" transform="translate(755.810547 0)"/>
     <use xlink:href="#Arial-ItalicMT-73" transform="translate(811.425781 0)"/>
     <use xlink:href="#Arial-ItalicMT-21" transform="translate(861.425781 0)"/>
    </g>
   </g>
   <g id="text_47">
    <!-- BPE finds common subwords: "un" (prefix) + "happiness" (common word) -->
    <g transform="translate(287.851875 522.792) scale(0.12 -0.12)">
     <defs>
      <path id="Arial-BoldMT-66" d="M 75 3319 
L 563 3319 
L 563 3569 
Q 563 3988 652 4194 
Q 741 4400 980 4529 
Q 1219 4659 1584 4659 
Q 1959 4659 2319 4547 
L 2200 3934 
Q 1991 3984 1797 3984 
Q 1606 3984 1523 3895 
Q 1441 3806 1441 3553 
L 1441 3319 
L 2097 3319 
L 2097 2628 
L 1441 2628 
L 1441 0 
L 563 0 
L 563 2628 
L 75 2628 
L 75 3319 
z
" transform="scale(0.015625)"/>
      <path id="Arial-BoldMT-6d" d="M 394 3319 
L 1203 3319 
L 1203 2866 
Q 1638 3394 2238 3394 
Q 2556 3394 2790 3262 
Q 3025 3131 3175 2866 
Q 3394 3131 3647 3262 
Q 3900 3394 4188 3394 
Q 4553 3394 4806 3245 
Q 5059 3097 5184 2809 
Q 5275 2597 5275 2122 
L 5275 0 
L 4397 0 
L 4397 1897 
Q 4397 2391 4306 2534 
Q 4184 2722 3931 2722 
Q 3747 2722 3584 2609 
Q 3422 2497 3350 2280 
Q 3278 2063 3278 1594 
L 3278 0 
L 2400 0 
L 2400 1819 
Q 2400 2303 2353 2443 
Q 2306 2584 2207 2653 
Q 2109 2722 1941 2722 
Q 1738 2722 1575 2612 
Q 1413 2503 1342 2297 
Q 1272 2091 1272 1613 
L 1272 0 
L 394 0 
L 394 3319 
z
" transform="scale(0.015625)"/>
      <path id="Arial-BoldMT-62" d="M 422 0 
L 422 4581 
L 1300 4581 
L 1300 2931 
Q 1706 3394 2263 3394 
Q 2869 3394 3266 2955 
Q 3663 2516 3663 1694 
Q 3663 844 3258 384 
Q 2853 -75 2275 -75 
Q 1991 -75 1714 67 
Q 1438 209 1238 488 
L 1238 0 
L 422 0 
z
M 1294 1731 
Q 1294 1216 1456 969 
Q 1684 619 2063 619 
Q 2353 619 2558 867 
Q 2763 1116 2763 1650 
Q 2763 2219 2556 2470 
Q 2350 2722 2028 2722 
Q 1713 2722 1503 2476 
Q 1294 2231 1294 1731 
z
" transform="scale(0.015625)"/>
      <path id="Arial-BoldMT-77" d="M 1078 0 
L 28 3319 
L 881 3319 
L 1503 1144 
L 2075 3319 
L 2922 3319 
L 3475 1144 
L 4109 3319 
L 4975 3319 
L 3909 0 
L 3066 0 
L 2494 2134 
L 1931 0 
L 1078 0 
z
" transform="scale(0.015625)"/>
      <path id="Arial-BoldMT-22" d="M 516 2953 
L 350 3806 
L 350 4581 
L 1306 4581 
L 1306 3806 
L 1163 2953 
L 516 2953 
z
M 1925 2953 
L 1759 3806 
L 1759 4581 
L 2716 4581 
L 2716 3806 
L 2572 2953 
L 1925 2953 
z
" transform="scale(0.015625)"/>
      <path id="Arial-BoldMT-78" d="M 38 0 
L 1234 1709 
L 88 3319 
L 1159 3319 
L 1747 2406 
L 2366 3319 
L 3397 3319 
L 2272 1747 
L 3500 0 
L 2422 0 
L 1747 1028 
L 1066 0 
L 38 0 
z
" transform="scale(0.015625)"/>
      <path id="Arial-BoldMT-2b" d="M 1466 659 
L 1466 1850 
L 266 1850 
L 266 2672 
L 1466 2672 
L 1466 3863 
L 2266 3863 
L 2266 2672 
L 3469 2672 
L 3469 1850 
L 2266 1850 
L 2266 659 
L 1466 659 
z
" transform="scale(0.015625)"/>
     </defs>
     <use xlink:href="#Arial-BoldMT-42"/>
     <use xlink:href="#Arial-BoldMT-50" transform="translate(72.216797 0)"/>
     <use xlink:href="#Arial-BoldMT-45" transform="translate(138.916016 0)"/>
     <use xlink:href="#Arial-BoldMT-20" transform="translate(205.615234 0)"/>
     <use xlink:href="#Arial-BoldMT-66" transform="translate(233.398438 0)"/>
     <use xlink:href="#Arial-BoldMT-69" transform="translate(266.699219 0)"/>
     <use xlink:href="#Arial-BoldMT-6e" transform="translate(294.482422 0)"/>
     <use xlink:href="#Arial-BoldMT-64" transform="translate(355.566406 0)"/>
     <use xlink:href="#Arial-BoldMT-73" transform="translate(416.650391 0)"/>
     <use xlink:href="#Arial-BoldMT-20" transform="translate(472.265625 0)"/>
     <use xlink:href="#Arial-BoldMT-63" transform="translate(500.048828 0)"/>
     <use xlink:href="#Arial-BoldMT-6f" transform="translate(555.664062 0)"/>
     <use xlink:href="#Arial-BoldMT-6d" transform="translate(616.748047 0)"/>
     <use xlink:href="#Arial-BoldMT-6d" transform="translate(705.664062 0)"/>
     <use xlink:href="#Arial-BoldMT-6f" transform="translate(794.580078 0)"/>
     <use xlink:href="#Arial-BoldMT-6e" transform="translate(855.664062 0)"/>
     <use xlink:href="#Arial-BoldMT-20" transform="translate(916.748047 0)"/>
     <use xlink:href="#Arial-BoldMT-73" transform="translate(944.53125 0)"/>
     <use xlink:href="#Arial-BoldMT-75" transform="translate(1000.146484 0)"/>
     <use xlink:href="#Arial-BoldMT-62" transform="translate(1061.230469 0)"/>
     <use xlink:href="#Arial-BoldMT-77" transform="translate(1122.314453 0)"/>
     <use xlink:href="#Arial-BoldMT-6f" transform="translate(1200.097656 0)"/>
     <use xlink:href="#Arial-BoldMT-72" transform="translate(1261.181641 0)"/>
     <use xlink:href="#Arial-BoldMT-64" transform="translate(1300.097656 0)"/>
     <use xlink:href="#Arial-BoldMT-73" transform="translate(1361.181641 0)"/>
     <use xlink:href="#Arial-BoldMT-3a" transform="translate(1416.796875 0)"/>
     <use xlink:href="#Arial-BoldMT-20" transform="translate(1450.097656 0)"/>
     <use xlink:href="#Arial-BoldMT-22" transform="translate(1477.880859 0)"/>
     <use xlink:href="#Arial-BoldMT-75" transform="translate(1525.292969 0)"/>
     <use xlink:href="#Arial-BoldMT-6e" transform="translate(1586.376953 0)"/>
     <use xlink:href="#Arial-BoldMT-22" transform="translate(1647.460938 0)"/>
     <use xlink:href="#Arial-BoldMT-20" transform="translate(1694.873047 0)"/>
     <use xlink:href="#Arial-BoldMT-28" transform="translate(1722.65625 0)"/>
     <use xlink:href="#Arial-BoldMT-70" transform="translate(1755.957031 0)"/>
     <use xlink:href="#Arial-BoldMT-72" transform="translate(1817.041016 0)"/>
     <use xlink:href="#Arial-BoldMT-65" transform="translate(1855.957031 0)"/>
     <use xlink:href="#Arial-BoldMT-66" transform="translate(1911.572266 0)"/>
     <use xlink:href="#Arial-BoldMT-69" transform="translate(1944.873047 0)"/>
     <use xlink:href="#Arial-BoldMT-78" transform="translate(1972.65625 0)"/>
     <use xlink:href="#Arial-BoldMT-29" transform="translate(2028.271484 0)"/>
     <use xlink:href="#Arial-BoldMT-20" transform="translate(2061.572266 0)"/>
     <use xlink:href="#Arial-BoldMT-2b" transform="translate(2089.355469 0)"/>
     <use xlink:href="#Arial-BoldMT-20" transform="translate(2147.753906 0)"/>
     <use xlink:href="#Arial-BoldMT-22" transform="translate(2175.537109 0)"/>
     <use xlink:href="#Arial-BoldMT-68" transform="translate(2222.949219 0)"/>
     <use xlink:href="#Arial-BoldMT-61" transform="translate(2284.033203 0)"/>
     <use xlink:href="#Arial-BoldMT-70" transform="translate(2339.648438 0)"/>
     <use xlink:href="#Arial-BoldMT-70" transform="translate(2400.732422 0)"/>
     <use xlink:href="#Arial-BoldMT-69" transform="translate(2461.816406 0)"/>
     <use xlink:href="#Arial-BoldMT-6e" transform="translate(2489.599609 0)"/>
     <use xlink:href="#Arial-BoldMT-65" transform="translate(2550.683594 0)"/>
     <use xlink:href="#Arial-BoldMT-73" transform="translate(2606.298828 0)"/>
     <use xlink:href="#Arial-BoldMT-73" transform="translate(2661.914062 0)"/>
     <use xlink:href="#Arial-BoldMT-22" transform="translate(2717.529297 0)"/>
     <use xlink:href="#Arial-BoldMT-20" transform="translate(2764.941406 0)"/>
     <use xlink:href="#Arial-BoldMT-28" transform="translate(2792.724609 0)"/>
     <use xlink:href="#Arial-BoldMT-63" transform="translate(2826.025391 0)"/>
     <use xlink:href="#Arial-BoldMT-6f" transform="translate(2881.640625 0)"/>
     <use xlink:href="#Arial-BoldMT-6d" transform="translate(2942.724609 0)"/>
     <use xlink:href="#Arial-BoldMT-6d" transform="translate(3031.640625 0)"/>
     <use xlink:href="#Arial-BoldMT-6f" transform="translate(3120.556641 0)"/>
     <use xlink:href="#Arial-BoldMT-6e" transform="translate(3181.640625 0)"/>
     <use xlink:href="#Arial-BoldMT-20" transform="translate(3242.724609 0)"/>
     <use xlink:href="#Arial-BoldMT-77" transform="translate(3270.507812 0)"/>
     <use xlink:href="#Arial-BoldMT-6f" transform="translate(3348.291016 0)"/>
     <use xlink:href="#Arial-BoldMT-72" transform="translate(3409.375 0)"/>
     <use xlink:href="#Arial-BoldMT-64" transform="translate(3448.291016 0)"/>
     <use xlink:href="#Arial-BoldMT-29" transform="translate(3509.375 0)"/>
    </g>
   </g>
  </g>
 </g>
 <defs>
  <clipPath id="pf165224003">
   <rect x="7.2" y="7.2" width="986.4" height="554.4"/>
  </clipPath>
 </defs>
</svg>
