<?xml version="1.0" encoding="utf-8" standalone="no"?>
<!DOCTYPE svg PUBLIC "-//W3C//DTD SVG 1.1//EN"
  "http://www.w3.org/Graphics/SVG/1.1/DTD/svg11.dtd">
<svg xmlns:xlink="http://www.w3.org/1999/xlink" width="712.8pt" height="568.724062pt" viewBox="0 0 712.8 568.724062" xmlns="http://www.w3.org/2000/svg" version="1.1">
 <metadata>
  <rdf:RDF xmlns:dc="http://purl.org/dc/elements/1.1/" xmlns:cc="http://creativecommons.org/ns#" xmlns:rdf="http://www.w3.org/1999/02/22-rdf-syntax-ns#">
   <cc:Work>
    <dc:type rdf:resource="http://purl.org/dc/dcmitype/StillImage"/>
    <dc:date>2025-12-29T09:15:40.202033</dc:date>
    <dc:format>image/svg+xml</dc:format>
    <dc:creator>
     <cc:Agent>
      <dc:title>Matplotlib v3.10.1, https://matplotlib.org/</dc:title>
     </cc:Agent>
    </dc:creator>
   </cc:Work>
  </rdf:RDF>
 </metadata>
 <defs>
  <style type="text/css">*{stroke-linejoin: round; stroke-linecap: butt}</style>
 </defs>
 <g id="figure_1">
  <g id="patch_1">
   <path d="M 0 568.724062 
L 712.8 568.724062 
L 712.8 0 
L 0 0 
z
" style="fill: #f8f9fa"/>
  </g>
  <g id="axes_1">
   <g id="patch_2">
    <path d="M 111.96 128.728862 
L 600.84 128.728862 
Q 614.808 128.728862 614.808 118.300062 
L 614.808 60.941662 
Q 614.808 50.512862 600.84 50.512862 
L 111.96 50.512862 
Q 97.992 50.512862 97.992 60.941662 
L 97.992 118.300062 
Q 97.992 128.728862 111.96 128.728862 
z
" clip-path="url(#p0091767470)" style="fill: #2e86ab; opacity: 0.8; stroke: #000000; stroke-width: 2; stroke-linejoin: miter"/>
   </g>
   <g id="patch_3">
    <path d="M 111.96 217.373662 
L 600.84 217.373662 
Q 614.808 217.373662 614.808 206.944862 
L 614.808 149.586462 
Q 614.808 139.157662 600.84 139.157662 
L 111.96 139.157662 
Q 97.992 139.157662 97.992 149.586462 
L 97.992 206.944862 
Q 97.992 217.373662 111.96 217.373662 
z
" clip-path="url(#p0091767470)" style="fill: #06a77d; opacity: 0.8; stroke: #000000; stroke-width: 2; stroke-linejoin: miter"/>
   </g>
   <g id="patch_4">
    <path d="M 111.96 306.018462 
L 600.84 306.018462 
Q 614.808 306.018462 614.808 295.589662 
L 614.808 238.231262 
Q 614.808 227.802462 600.84 227.802462 
L 111.96 227.802462 
Q 97.992 227.802462 97.992 238.231262 
L 97.992 295.589662 
Q 97.992 306.018462 111.96 306.018462 
z
" clip-path="url(#p0091767470)" style="fill: #607d8b; opacity: 0.8; stroke: #000000; stroke-width: 2; stroke-linejoin: miter"/>
   </g>
   <g id="patch_5">
    <path d="M 111.96 394.663262 
L 600.84 394.663262 
Q 614.808 394.663262 614.808 384.234462 
L 614.808 326.876062 
Q 614.808 316.447262 600.84 316.447262 
L 111.96 316.447262 
Q 97.992 316.447262 97.992 326.876062 
L 97.992 384.234462 
Q 97.992 394.663262 111.96 394.663262 
z
" clip-path="url(#p0091767470)" style="fill: #f6ae2d; opacity: 0.8; stroke: #000000; stroke-width: 2; stroke-linejoin: miter"/>
   </g>
   <g id="patch_6">
    <path d="M 111.96 483.308062 
L 600.84 483.308062 
Q 614.808 483.308062 614.808 472.879262 
L 614.808 415.520862 
Q 614.808 405.092062 600.84 405.092062 
L 111.96 405.092062 
Q 97.992 405.092062 97.992 415.520862 
L 97.992 472.879262 
Q 97.992 483.308062 111.96 483.308062 
z
" clip-path="url(#p0091767470)" style="fill: #ff8f00; opacity: 0.8; stroke: #000000; stroke-width: 2; stroke-linejoin: miter"/>
   </g>
   <g id="text_1">
    <!-- Input: 'a' 'a' 'b' -->
    <g style="fill: #ffffff" transform="translate(309.084375 93.249925) scale(0.14 -0.14)">
     <defs>
      <path id="Arial-BoldMT-49" d="M 438 0 
L 438 4581 
L 1363 4581 
L 1363 0 
L 438 0 
z
" transform="scale(0.015625)"/>
      <path id="Arial-BoldMT-6e" d="M 3478 0 
L 2600 0 
L 2600 1694 
Q 2600 2231 2544 2389 
Q 2488 2547 2361 2634 
Q 2234 2722 2056 2722 
Q 1828 2722 1647 2597 
Q 1466 2472 1398 2265 
Q 1331 2059 1331 1503 
L 1331 0 
L 453 0 
L 453 3319 
L 1269 3319 
L 1269 2831 
Q 1703 3394 2363 3394 
Q 2653 3394 2893 3289 
Q 3134 3184 3257 3021 
Q 3381 2859 3429 2653 
Q 3478 2447 3478 2063 
L 3478 0 
z
" transform="scale(0.015625)"/>
      <path id="Arial-BoldMT-70" d="M 434 3319 
L 1253 3319 
L 1253 2831 
Q 1413 3081 1684 3237 
Q 1956 3394 2288 3394 
Q 2866 3394 3269 2941 
Q 3672 2488 3672 1678 
Q 3672 847 3265 386 
Q 2859 -75 2281 -75 
Q 2006 -75 1782 34 
Q 1559 144 1313 409 
L 1313 -1263 
L 434 -1263 
L 434 3319 
z
M 1303 1716 
Q 1303 1156 1525 889 
Q 1747 622 2066 622 
Q 2372 622 2575 867 
Q 2778 1113 2778 1672 
Q 2778 2194 2568 2447 
Q 2359 2700 2050 2700 
Q 1728 2700 1515 2451 
Q 1303 2203 1303 1716 
z
" transform="scale(0.015625)"/>
      <path id="Arial-BoldMT-75" d="M 2644 0 
L 2644 497 
Q 2463 231 2167 78 
Q 1872 -75 1544 -75 
Q 1209 -75 943 72 
Q 678 219 559 484 
Q 441 750 441 1219 
L 441 3319 
L 1319 3319 
L 1319 1794 
Q 1319 1094 1367 936 
Q 1416 778 1544 686 
Q 1672 594 1869 594 
Q 2094 594 2272 717 
Q 2450 841 2515 1023 
Q 2581 1206 2581 1919 
L 2581 3319 
L 3459 3319 
L 3459 0 
L 2644 0 
z
" transform="scale(0.015625)"/>
      <path id="Arial-BoldMT-74" d="M 1981 3319 
L 1981 2619 
L 1381 2619 
L 1381 1281 
Q 1381 875 1398 808 
Q 1416 741 1477 697 
Q 1538 653 1625 653 
Q 1747 653 1978 738 
L 2053 56 
Q 1747 -75 1359 -75 
Q 1122 -75 931 4 
Q 741 84 652 211 
Q 563 338 528 553 
Q 500 706 500 1172 
L 500 2619 
L 97 2619 
L 97 3319 
L 500 3319 
L 500 3978 
L 1381 4491 
L 1381 3319 
L 1981 3319 
z
" transform="scale(0.015625)"/>
      <path id="Arial-BoldMT-3a" d="M 628 2441 
L 628 3319 
L 1506 3319 
L 1506 2441 
L 628 2441 
z
M 628 0 
L 628 878 
L 1506 878 
L 1506 0 
L 628 0 
z
" transform="scale(0.015625)"/>
      <path id="Arial-BoldMT-20" transform="scale(0.015625)"/>
      <path id="Arial-BoldMT-27" d="M 453 2953 
L 288 3806 
L 288 4581 
L 1244 4581 
L 1244 3806 
L 1100 2953 
L 453 2953 
z
" transform="scale(0.015625)"/>
      <path id="Arial-BoldMT-61" d="M 1116 2306 
L 319 2450 
Q 453 2931 781 3162 
Q 1109 3394 1756 3394 
Q 2344 3394 2631 3255 
Q 2919 3116 3036 2902 
Q 3153 2688 3153 2116 
L 3144 1091 
Q 3144 653 3186 445 
Q 3228 238 3344 0 
L 2475 0 
Q 2441 88 2391 259 
Q 2369 338 2359 363 
Q 2134 144 1878 34 
Q 1622 -75 1331 -75 
Q 819 -75 523 203 
Q 228 481 228 906 
Q 228 1188 362 1408 
Q 497 1628 739 1745 
Q 981 1863 1438 1950 
Q 2053 2066 2291 2166 
L 2291 2253 
Q 2291 2506 2166 2614 
Q 2041 2722 1694 2722 
Q 1459 2722 1328 2630 
Q 1197 2538 1116 2306 
z
M 2291 1594 
Q 2122 1538 1756 1459 
Q 1391 1381 1278 1306 
Q 1106 1184 1106 997 
Q 1106 813 1243 678 
Q 1381 544 1594 544 
Q 1831 544 2047 700 
Q 2206 819 2256 991 
Q 2291 1103 2291 1419 
L 2291 1594 
z
" transform="scale(0.015625)"/>
      <path id="Arial-BoldMT-62" d="M 422 0 
L 422 4581 
L 1300 4581 
L 1300 2931 
Q 1706 3394 2263 3394 
Q 2869 3394 3266 2955 
Q 3663 2516 3663 1694 
Q 3663 844 3258 384 
Q 2853 -75 2275 -75 
Q 1991 -75 1714 67 
Q 1438 209 1238 488 
L 1238 0 
L 422 0 
z
M 1294 1731 
Q 1294 1216 1456 969 
Q 1684 619 2063 619 
Q 2353 619 2558 867 
Q 2763 1116 2763 1650 
Q 2763 2219 2556 2470 
Q 2350 2722 2028 2722 
Q 1713 2722 1503 2476 
Q 1294 2231 1294 1731 
z
" transform="scale(0.015625)"/>
     </defs>
     <use xlink:href="#Arial-BoldMT-49"/>
     <use xlink:href="#Arial-BoldMT-6e" transform="translate(27.783203 0)"/>
     <use xlink:href="#Arial-BoldMT-70" transform="translate(88.867188 0)"/>
     <use xlink:href="#Arial-BoldMT-75" transform="translate(149.951172 0)"/>
     <use xlink:href="#Arial-BoldMT-74" transform="translate(211.035156 0)"/>
     <use xlink:href="#Arial-BoldMT-3a" transform="translate(244.335938 0)"/>
     <use xlink:href="#Arial-BoldMT-20" transform="translate(277.636719 0)"/>
     <use xlink:href="#Arial-BoldMT-27" transform="translate(305.419922 0)"/>
     <use xlink:href="#Arial-BoldMT-61" transform="translate(329.199219 0)"/>
     <use xlink:href="#Arial-BoldMT-27" transform="translate(384.814453 0)"/>
     <use xlink:href="#Arial-BoldMT-20" transform="translate(408.59375 0)"/>
     <use xlink:href="#Arial-BoldMT-27" transform="translate(436.376953 0)"/>
     <use xlink:href="#Arial-BoldMT-61" transform="translate(460.15625 0)"/>
     <use xlink:href="#Arial-BoldMT-27" transform="translate(515.771484 0)"/>
     <use xlink:href="#Arial-BoldMT-20" transform="translate(539.550781 0)"/>
     <use xlink:href="#Arial-BoldMT-27" transform="translate(567.333984 0)"/>
     <use xlink:href="#Arial-BoldMT-62" transform="translate(591.113281 0)"/>
     <use xlink:href="#Arial-BoldMT-27" transform="translate(652.197266 0)"/>
    </g>
   </g>
   <g id="text_2">
    <!-- Embedding Layer -->
    <g style="fill: #ffffff" transform="translate(297.668906 174.353319) scale(0.14 -0.14)">
     <defs>
      <path id="Arial-BoldMT-45" d="M 466 0 
L 466 4581 
L 3863 4581 
L 3863 3806 
L 1391 3806 
L 1391 2791 
L 3691 2791 
L 3691 2019 
L 1391 2019 
L 1391 772 
L 3950 772 
L 3950 0 
L 466 0 
z
" transform="scale(0.015625)"/>
      <path id="Arial-BoldMT-6d" d="M 394 3319 
L 1203 3319 
L 1203 2866 
Q 1638 3394 2238 3394 
Q 2556 3394 2790 3262 
Q 3025 3131 3175 2866 
Q 3394 3131 3647 3262 
Q 3900 3394 4188 3394 
Q 4553 3394 4806 3245 
Q 5059 3097 5184 2809 
Q 5275 2597 5275 2122 
L 5275 0 
L 4397 0 
L 4397 1897 
Q 4397 2391 4306 2534 
Q 4184 2722 3931 2722 
Q 3747 2722 3584 2609 
Q 3422 2497 3350 2280 
Q 3278 2063 3278 1594 
L 3278 0 
L 2400 0 
L 2400 1819 
Q 2400 2303 2353 2443 
Q 2306 2584 2207 2653 
Q 2109 2722 1941 2722 
Q 1738 2722 1575 2612 
Q 1413 2503 1342 2297 
Q 1272 2091 1272 1613 
L 1272 0 
L 394 0 
L 394 3319 
z
" transform="scale(0.015625)"/>
      <path id="Arial-BoldMT-65" d="M 2381 1056 
L 3256 909 
Q 3088 428 2723 176 
Q 2359 -75 1813 -75 
Q 947 -75 531 491 
Q 203 944 203 1634 
Q 203 2459 634 2926 
Q 1066 3394 1725 3394 
Q 2466 3394 2894 2905 
Q 3322 2416 3303 1406 
L 1103 1406 
Q 1113 1016 1316 798 
Q 1519 581 1822 581 
Q 2028 581 2168 693 
Q 2309 806 2381 1056 
z
M 2431 1944 
Q 2422 2325 2234 2523 
Q 2047 2722 1778 2722 
Q 1491 2722 1303 2513 
Q 1116 2303 1119 1944 
L 2431 1944 
z
" transform="scale(0.015625)"/>
      <path id="Arial-BoldMT-64" d="M 3503 0 
L 2688 0 
L 2688 488 
Q 2484 203 2207 64 
Q 1931 -75 1650 -75 
Q 1078 -75 670 386 
Q 263 847 263 1672 
Q 263 2516 659 2955 
Q 1056 3394 1663 3394 
Q 2219 3394 2625 2931 
L 2625 4581 
L 3503 4581 
L 3503 0 
z
M 1159 1731 
Q 1159 1200 1306 963 
Q 1519 619 1900 619 
Q 2203 619 2415 876 
Q 2628 1134 2628 1647 
Q 2628 2219 2422 2470 
Q 2216 2722 1894 2722 
Q 1581 2722 1370 2473 
Q 1159 2225 1159 1731 
z
" transform="scale(0.015625)"/>
      <path id="Arial-BoldMT-69" d="M 459 3769 
L 459 4581 
L 1338 4581 
L 1338 3769 
L 459 3769 
z
M 459 0 
L 459 3319 
L 1338 3319 
L 1338 0 
L 459 0 
z
" transform="scale(0.015625)"/>
      <path id="Arial-BoldMT-67" d="M 378 -219 
L 1381 -341 
Q 1406 -516 1497 -581 
Q 1622 -675 1891 -675 
Q 2234 -675 2406 -572 
Q 2522 -503 2581 -350 
Q 2622 -241 2622 53 
L 2622 538 
Q 2228 0 1628 0 
Q 959 0 569 566 
Q 263 1013 263 1678 
Q 263 2513 664 2953 
Q 1066 3394 1663 3394 
Q 2278 3394 2678 2853 
L 2678 3319 
L 3500 3319 
L 3500 341 
Q 3500 -247 3403 -537 
Q 3306 -828 3131 -993 
Q 2956 -1159 2664 -1253 
Q 2372 -1347 1925 -1347 
Q 1081 -1347 728 -1058 
Q 375 -769 375 -325 
Q 375 -281 378 -219 
z
M 1163 1728 
Q 1163 1200 1367 954 
Q 1572 709 1872 709 
Q 2194 709 2416 961 
Q 2638 1213 2638 1706 
Q 2638 2222 2425 2472 
Q 2213 2722 1888 2722 
Q 1572 2722 1367 2476 
Q 1163 2231 1163 1728 
z
" transform="scale(0.015625)"/>
      <path id="Arial-BoldMT-4c" d="M 491 0 
L 491 4544 
L 1416 4544 
L 1416 772 
L 3716 772 
L 3716 0 
L 491 0 
z
" transform="scale(0.015625)"/>
      <path id="Arial-BoldMT-79" d="M 44 3319 
L 978 3319 
L 1772 963 
L 2547 3319 
L 3456 3319 
L 2284 125 
L 2075 -453 
Q 1959 -744 1854 -897 
Q 1750 -1050 1614 -1145 
Q 1478 -1241 1279 -1294 
Q 1081 -1347 831 -1347 
Q 578 -1347 334 -1294 
L 256 -606 
Q 463 -647 628 -647 
Q 934 -647 1081 -467 
Q 1228 -288 1306 -9 
L 44 3319 
z
" transform="scale(0.015625)"/>
      <path id="Arial-BoldMT-72" d="M 1300 0 
L 422 0 
L 422 3319 
L 1238 3319 
L 1238 2847 
Q 1447 3181 1614 3287 
Q 1781 3394 1994 3394 
Q 2294 3394 2572 3228 
L 2300 2463 
Q 2078 2606 1888 2606 
Q 1703 2606 1575 2504 
Q 1447 2403 1373 2137 
Q 1300 1872 1300 1025 
L 1300 0 
z
" transform="scale(0.015625)"/>
     </defs>
     <use xlink:href="#Arial-BoldMT-45"/>
     <use xlink:href="#Arial-BoldMT-6d" transform="translate(66.699219 0)"/>
     <use xlink:href="#Arial-BoldMT-62" transform="translate(155.615234 0)"/>
     <use xlink:href="#Arial-BoldMT-65" transform="translate(216.699219 0)"/>
     <use xlink:href="#Arial-BoldMT-64" transform="translate(272.314453 0)"/>
     <use xlink:href="#Arial-BoldMT-64" transform="translate(333.398438 0)"/>
     <use xlink:href="#Arial-BoldMT-69" transform="translate(394.482422 0)"/>
     <use xlink:href="#Arial-BoldMT-6e" transform="translate(422.265625 0)"/>
     <use xlink:href="#Arial-BoldMT-67" transform="translate(483.349609 0)"/>
     <use xlink:href="#Arial-BoldMT-20" transform="translate(544.433594 0)"/>
     <use xlink:href="#Arial-BoldMT-4c" transform="translate(572.216797 0)"/>
     <use xlink:href="#Arial-BoldMT-61" transform="translate(633.300781 0)"/>
     <use xlink:href="#Arial-BoldMT-79" transform="translate(688.916016 0)"/>
     <use xlink:href="#Arial-BoldMT-65" transform="translate(744.53125 0)"/>
     <use xlink:href="#Arial-BoldMT-72" transform="translate(800.146484 0)"/>
    </g>
    <!-- a→[0.2,0.8]  b→[-0.5,0.1] -->
    <g style="fill: #ffffff" transform="translate(275.879219 189.374881) scale(0.14 -0.14)">
     <defs>
      <path id="Arial-BoldMT-2192" d="M 4859 2738 
Q 5275 2284 5578 2048 
Q 5881 1813 6150 1697 
L 6150 1556 
Q 5841 1406 5550 1173 
Q 5259 941 4856 491 
L 4616 491 
Q 4909 1119 5231 1456 
L 247 1456 
L 247 1772 
L 5231 1772 
Q 4994 2072 4900 2220 
Q 4806 2369 4622 2738 
L 4859 2738 
z
" transform="scale(0.015625)"/>
      <path id="Arial-BoldMT-5b" d="M 456 -1291 
L 456 4581 
L 2013 4581 
L 2013 3891 
L 1291 3891 
L 1291 -600 
L 2013 -600 
L 2013 -1291 
L 456 -1291 
z
" transform="scale(0.015625)"/>
      <path id="Arial-BoldMT-30" d="M 1756 4600 
Q 2422 4600 2797 4125 
Q 3244 3563 3244 2259 
Q 3244 959 2794 391 
Q 2422 -78 1756 -78 
Q 1088 -78 678 436 
Q 269 950 269 2269 
Q 269 3563 719 4131 
Q 1091 4600 1756 4600 
z
M 1756 3872 
Q 1597 3872 1472 3770 
Q 1347 3669 1278 3406 
Q 1188 3066 1188 2259 
Q 1188 1453 1269 1151 
Q 1350 850 1473 750 
Q 1597 650 1756 650 
Q 1916 650 2041 751 
Q 2166 853 2234 1116 
Q 2325 1453 2325 2259 
Q 2325 3066 2244 3367 
Q 2163 3669 2039 3770 
Q 1916 3872 1756 3872 
z
" transform="scale(0.015625)"/>
      <path id="Arial-BoldMT-2e" d="M 459 0 
L 459 878 
L 1338 878 
L 1338 0 
L 459 0 
z
" transform="scale(0.015625)"/>
      <path id="Arial-BoldMT-32" d="M 3238 816 
L 3238 0 
L 159 0 
Q 209 463 459 877 
Q 709 1291 1447 1975 
Q 2041 2528 2175 2725 
Q 2356 2997 2356 3263 
Q 2356 3556 2198 3714 
Q 2041 3872 1763 3872 
Q 1488 3872 1325 3706 
Q 1163 3541 1138 3156 
L 263 3244 
Q 341 3969 753 4284 
Q 1166 4600 1784 4600 
Q 2463 4600 2850 4234 
Q 3238 3869 3238 3325 
Q 3238 3016 3127 2736 
Q 3016 2456 2775 2150 
Q 2616 1947 2200 1565 
Q 1784 1184 1673 1059 
Q 1563 934 1494 816 
L 3238 816 
z
" transform="scale(0.015625)"/>
      <path id="Arial-BoldMT-2c" d="M 438 878 
L 1316 878 
L 1316 250 
Q 1316 -131 1250 -351 
Q 1184 -572 1001 -747 
Q 819 -922 538 -1022 
L 366 -659 
Q 631 -572 743 -419 
Q 856 -266 863 0 
L 438 0 
L 438 878 
z
" transform="scale(0.015625)"/>
      <path id="Arial-BoldMT-38" d="M 1025 2472 
Q 684 2616 529 2867 
Q 375 3119 375 3419 
Q 375 3931 733 4265 
Q 1091 4600 1750 4600 
Q 2403 4600 2764 4265 
Q 3125 3931 3125 3419 
Q 3125 3100 2959 2851 
Q 2794 2603 2494 2472 
Q 2875 2319 3073 2025 
Q 3272 1731 3272 1347 
Q 3272 713 2867 316 
Q 2463 -81 1791 -81 
Q 1166 -81 750 247 
Q 259 634 259 1309 
Q 259 1681 443 1992 
Q 628 2303 1025 2472 
z
M 1206 3356 
Q 1206 3094 1354 2947 
Q 1503 2800 1750 2800 
Q 2000 2800 2150 2948 
Q 2300 3097 2300 3359 
Q 2300 3606 2151 3754 
Q 2003 3903 1759 3903 
Q 1506 3903 1356 3753 
Q 1206 3603 1206 3356 
z
M 1125 1394 
Q 1125 1031 1311 828 
Q 1497 625 1775 625 
Q 2047 625 2225 820 
Q 2403 1016 2403 1384 
Q 2403 1706 2222 1901 
Q 2041 2097 1763 2097 
Q 1441 2097 1283 1875 
Q 1125 1653 1125 1394 
z
" transform="scale(0.015625)"/>
      <path id="Arial-BoldMT-5d" d="M 1675 4581 
L 1675 -1291 
L 119 -1291 
L 119 -600 
L 841 -600 
L 841 3897 
L 119 3897 
L 119 4581 
L 1675 4581 
z
" transform="scale(0.015625)"/>
      <path id="Arial-BoldMT-2d" d="M 359 1222 
L 359 2100 
L 2084 2100 
L 2084 1222 
L 359 1222 
z
" transform="scale(0.015625)"/>
      <path id="Arial-BoldMT-35" d="M 284 1178 
L 1159 1269 
Q 1197 972 1381 798 
Q 1566 625 1806 625 
Q 2081 625 2272 848 
Q 2463 1072 2463 1522 
Q 2463 1944 2273 2155 
Q 2084 2366 1781 2366 
Q 1403 2366 1103 2031 
L 391 2134 
L 841 4519 
L 3163 4519 
L 3163 3697 
L 1506 3697 
L 1369 2919 
Q 1663 3066 1969 3066 
Q 2553 3066 2959 2641 
Q 3366 2216 3366 1538 
Q 3366 972 3038 528 
Q 2591 -78 1797 -78 
Q 1163 -78 763 262 
Q 363 603 284 1178 
z
" transform="scale(0.015625)"/>
      <path id="Arial-BoldMT-31" d="M 2519 0 
L 1641 0 
L 1641 3309 
Q 1159 2859 506 2644 
L 506 3441 
Q 850 3553 1253 3867 
Q 1656 4181 1806 4600 
L 2519 4600 
L 2519 0 
z
" transform="scale(0.015625)"/>
     </defs>
     <use xlink:href="#Arial-BoldMT-61"/>
     <use xlink:href="#Arial-BoldMT-2192" transform="translate(55.615234 0)"/>
     <use xlink:href="#Arial-BoldMT-5b" transform="translate(155.615234 0)"/>
     <use xlink:href="#Arial-BoldMT-30" transform="translate(188.916016 0)"/>
     <use xlink:href="#Arial-BoldMT-2e" transform="translate(244.53125 0)"/>
     <use xlink:href="#Arial-BoldMT-32" transform="translate(272.314453 0)"/>
     <use xlink:href="#Arial-BoldMT-2c" transform="translate(327.929688 0)"/>
     <use xlink:href="#Arial-BoldMT-30" transform="translate(355.712891 0)"/>
     <use xlink:href="#Arial-BoldMT-2e" transform="translate(411.328125 0)"/>
     <use xlink:href="#Arial-BoldMT-38" transform="translate(439.111328 0)"/>
     <use xlink:href="#Arial-BoldMT-5d" transform="translate(494.726562 0)"/>
     <use xlink:href="#Arial-BoldMT-20" transform="translate(528.027344 0)"/>
     <use xlink:href="#Arial-BoldMT-20" transform="translate(555.810547 0)"/>
     <use xlink:href="#Arial-BoldMT-62" transform="translate(583.59375 0)"/>
     <use xlink:href="#Arial-BoldMT-2192" transform="translate(644.677734 0)"/>
     <use xlink:href="#Arial-BoldMT-5b" transform="translate(744.677734 0)"/>
     <use xlink:href="#Arial-BoldMT-2d" transform="translate(777.978516 0)"/>
     <use xlink:href="#Arial-BoldMT-30" transform="translate(811.279297 0)"/>
     <use xlink:href="#Arial-BoldMT-2e" transform="translate(866.894531 0)"/>
     <use xlink:href="#Arial-BoldMT-35" transform="translate(894.677734 0)"/>
     <use xlink:href="#Arial-BoldMT-2c" transform="translate(950.292969 0)"/>
     <use xlink:href="#Arial-BoldMT-30" transform="translate(978.076172 0)"/>
     <use xlink:href="#Arial-BoldMT-2e" transform="translate(1033.691406 0)"/>
     <use xlink:href="#Arial-BoldMT-31" transform="translate(1061.474609 0)"/>
     <use xlink:href="#Arial-BoldMT-5d" transform="translate(1117.089844 0)"/>
    </g>
   </g>
   <g id="text_3">
    <!-- Concatenate → [0.2, 0.8, 0.2, 0.8, -0.5, 0.1] -->
    <g style="fill: #ffffff" transform="translate(218.684844 270.594212) scale(0.14 -0.14)">
     <defs>
      <path id="Arial-BoldMT-43" d="M 3397 1684 
L 4294 1400 
Q 4088 650 3608 286 
Q 3128 -78 2391 -78 
Q 1478 -78 890 545 
Q 303 1169 303 2250 
Q 303 3394 893 4026 
Q 1484 4659 2447 4659 
Q 3288 4659 3813 4163 
Q 4125 3869 4281 3319 
L 3366 3100 
Q 3284 3456 3026 3662 
Q 2769 3869 2400 3869 
Q 1891 3869 1573 3503 
Q 1256 3138 1256 2319 
Q 1256 1450 1568 1081 
Q 1881 713 2381 713 
Q 2750 713 3015 947 
Q 3281 1181 3397 1684 
z
" transform="scale(0.015625)"/>
      <path id="Arial-BoldMT-6f" d="M 256 1706 
Q 256 2144 472 2553 
Q 688 2963 1083 3178 
Q 1478 3394 1966 3394 
Q 2719 3394 3200 2905 
Q 3681 2416 3681 1669 
Q 3681 916 3195 420 
Q 2709 -75 1972 -75 
Q 1516 -75 1102 131 
Q 688 338 472 736 
Q 256 1134 256 1706 
z
M 1156 1659 
Q 1156 1166 1390 903 
Q 1625 641 1969 641 
Q 2313 641 2545 903 
Q 2778 1166 2778 1666 
Q 2778 2153 2545 2415 
Q 2313 2678 1969 2678 
Q 1625 2678 1390 2415 
Q 1156 2153 1156 1659 
z
" transform="scale(0.015625)"/>
      <path id="Arial-BoldMT-63" d="M 3353 2338 
L 2488 2181 
Q 2444 2441 2289 2572 
Q 2134 2703 1888 2703 
Q 1559 2703 1364 2476 
Q 1169 2250 1169 1719 
Q 1169 1128 1367 884 
Q 1566 641 1900 641 
Q 2150 641 2309 783 
Q 2469 925 2534 1272 
L 3397 1125 
Q 3263 531 2881 228 
Q 2500 -75 1859 -75 
Q 1131 -75 698 384 
Q 266 844 266 1656 
Q 266 2478 700 2936 
Q 1134 3394 1875 3394 
Q 2481 3394 2839 3133 
Q 3197 2872 3353 2338 
z
" transform="scale(0.015625)"/>
     </defs>
     <use xlink:href="#Arial-BoldMT-43"/>
     <use xlink:href="#Arial-BoldMT-6f" transform="translate(72.216797 0)"/>
     <use xlink:href="#Arial-BoldMT-6e" transform="translate(133.300781 0)"/>
     <use xlink:href="#Arial-BoldMT-63" transform="translate(194.384766 0)"/>
     <use xlink:href="#Arial-BoldMT-61" transform="translate(250 0)"/>
     <use xlink:href="#Arial-BoldMT-74" transform="translate(305.615234 0)"/>
     <use xlink:href="#Arial-BoldMT-65" transform="translate(338.916016 0)"/>
     <use xlink:href="#Arial-BoldMT-6e" transform="translate(394.53125 0)"/>
     <use xlink:href="#Arial-BoldMT-61" transform="translate(455.615234 0)"/>
     <use xlink:href="#Arial-BoldMT-74" transform="translate(511.230469 0)"/>
     <use xlink:href="#Arial-BoldMT-65" transform="translate(544.53125 0)"/>
     <use xlink:href="#Arial-BoldMT-20" transform="translate(600.146484 0)"/>
     <use xlink:href="#Arial-BoldMT-2192" transform="translate(627.929688 0)"/>
     <use xlink:href="#Arial-BoldMT-20" transform="translate(727.929688 0)"/>
     <use xlink:href="#Arial-BoldMT-5b" transform="translate(755.712891 0)"/>
     <use xlink:href="#Arial-BoldMT-30" transform="translate(789.013672 0)"/>
     <use xlink:href="#Arial-BoldMT-2e" transform="translate(844.628906 0)"/>
     <use xlink:href="#Arial-BoldMT-32" transform="translate(872.412109 0)"/>
     <use xlink:href="#Arial-BoldMT-2c" transform="translate(928.027344 0)"/>
     <use xlink:href="#Arial-BoldMT-20" transform="translate(955.810547 0)"/>
     <use xlink:href="#Arial-BoldMT-30" transform="translate(983.59375 0)"/>
     <use xlink:href="#Arial-BoldMT-2e" transform="translate(1039.208984 0)"/>
     <use xlink:href="#Arial-BoldMT-38" transform="translate(1066.992188 0)"/>
     <use xlink:href="#Arial-BoldMT-2c" transform="translate(1122.607422 0)"/>
     <use xlink:href="#Arial-BoldMT-20" transform="translate(1150.390625 0)"/>
     <use xlink:href="#Arial-BoldMT-30" transform="translate(1178.173828 0)"/>
     <use xlink:href="#Arial-BoldMT-2e" transform="translate(1233.789062 0)"/>
     <use xlink:href="#Arial-BoldMT-32" transform="translate(1261.572266 0)"/>
     <use xlink:href="#Arial-BoldMT-2c" transform="translate(1317.1875 0)"/>
     <use xlink:href="#Arial-BoldMT-20" transform="translate(1344.970703 0)"/>
     <use xlink:href="#Arial-BoldMT-30" transform="translate(1372.753906 0)"/>
     <use xlink:href="#Arial-BoldMT-2e" transform="translate(1428.369141 0)"/>
     <use xlink:href="#Arial-BoldMT-38" transform="translate(1456.152344 0)"/>
     <use xlink:href="#Arial-BoldMT-2c" transform="translate(1511.767578 0)"/>
     <use xlink:href="#Arial-BoldMT-20" transform="translate(1539.550781 0)"/>
     <use xlink:href="#Arial-BoldMT-2d" transform="translate(1567.333984 0)"/>
     <use xlink:href="#Arial-BoldMT-30" transform="translate(1600.634766 0)"/>
     <use xlink:href="#Arial-BoldMT-2e" transform="translate(1656.25 0)"/>
     <use xlink:href="#Arial-BoldMT-35" transform="translate(1684.033203 0)"/>
     <use xlink:href="#Arial-BoldMT-2c" transform="translate(1739.648438 0)"/>
     <use xlink:href="#Arial-BoldMT-20" transform="translate(1767.431641 0)"/>
     <use xlink:href="#Arial-BoldMT-30" transform="translate(1795.214844 0)"/>
     <use xlink:href="#Arial-BoldMT-2e" transform="translate(1850.830078 0)"/>
     <use xlink:href="#Arial-BoldMT-31" transform="translate(1878.613281 0)"/>
     <use xlink:href="#Arial-BoldMT-5d" transform="translate(1934.228516 0)"/>
    </g>
   </g>
   <g id="text_4">
    <!-- Hidden Layer (100 neurons, ReLU) -->
    <g transform="translate(242.049531 359.177762) scale(0.14 -0.14)">
     <defs>
      <path id="Arial-BoldMT-48" d="M 469 0 
L 469 4581 
L 1394 4581 
L 1394 2778 
L 3206 2778 
L 3206 4581 
L 4131 4581 
L 4131 0 
L 3206 0 
L 3206 2003 
L 1394 2003 
L 1394 0 
L 469 0 
z
" transform="scale(0.015625)"/>
      <path id="Arial-BoldMT-28" d="M 1916 -1347 
L 1313 -1347 
Q 834 -625 584 153 
Q 334 931 334 1659 
Q 334 2563 644 3369 
Q 913 4069 1325 4659 
L 1925 4659 
Q 1497 3713 1336 3048 
Q 1175 2384 1175 1641 
Q 1175 1128 1270 590 
Q 1366 53 1531 -431 
Q 1641 -750 1916 -1347 
z
" transform="scale(0.015625)"/>
      <path id="Arial-BoldMT-73" d="M 150 947 
L 1031 1081 
Q 1088 825 1259 692 
Q 1431 559 1741 559 
Q 2081 559 2253 684 
Q 2369 772 2369 919 
Q 2369 1019 2306 1084 
Q 2241 1147 2013 1200 
Q 950 1434 666 1628 
Q 272 1897 272 2375 
Q 272 2806 612 3100 
Q 953 3394 1669 3394 
Q 2350 3394 2681 3172 
Q 3013 2950 3138 2516 
L 2309 2363 
Q 2256 2556 2107 2659 
Q 1959 2763 1684 2763 
Q 1338 2763 1188 2666 
Q 1088 2597 1088 2488 
Q 1088 2394 1175 2328 
Q 1294 2241 1995 2081 
Q 2697 1922 2975 1691 
Q 3250 1456 3250 1038 
Q 3250 581 2869 253 
Q 2488 -75 1741 -75 
Q 1063 -75 667 200 
Q 272 475 150 947 
z
" transform="scale(0.015625)"/>
      <path id="Arial-BoldMT-52" d="M 469 0 
L 469 4581 
L 2416 4581 
Q 3150 4581 3483 4457 
Q 3816 4334 4016 4018 
Q 4216 3703 4216 3297 
Q 4216 2781 3912 2445 
Q 3609 2109 3006 2022 
Q 3306 1847 3501 1637 
Q 3697 1428 4028 894 
L 4588 0 
L 3481 0 
L 2813 997 
Q 2456 1531 2325 1670 
Q 2194 1809 2047 1861 
Q 1900 1913 1581 1913 
L 1394 1913 
L 1394 0 
L 469 0 
z
M 1394 2644 
L 2078 2644 
Q 2744 2644 2909 2700 
Q 3075 2756 3169 2893 
Q 3263 3031 3263 3238 
Q 3263 3469 3139 3611 
Q 3016 3753 2791 3791 
Q 2678 3806 2116 3806 
L 1394 3806 
L 1394 2644 
z
" transform="scale(0.015625)"/>
      <path id="Arial-BoldMT-55" d="M 459 4581 
L 1384 4581 
L 1384 2100 
Q 1384 1509 1419 1334 
Q 1478 1053 1701 883 
Q 1925 713 2313 713 
Q 2706 713 2906 873 
Q 3106 1034 3147 1268 
Q 3188 1503 3188 2047 
L 3188 4581 
L 4113 4581 
L 4113 2175 
Q 4113 1350 4038 1009 
Q 3963 669 3761 434 
Q 3559 200 3221 61 
Q 2884 -78 2341 -78 
Q 1684 -78 1345 73 
Q 1006 225 809 467 
Q 613 709 550 975 
Q 459 1369 459 2138 
L 459 4581 
z
" transform="scale(0.015625)"/>
      <path id="Arial-BoldMT-29" d="M 216 -1347 
Q 475 -791 581 -494 
Q 688 -197 778 190 
Q 869 578 912 926 
Q 956 1275 956 1641 
Q 956 2384 797 3048 
Q 638 3713 209 4659 
L 806 4659 
Q 1278 3988 1539 3234 
Q 1800 2481 1800 1706 
Q 1800 1053 1594 306 
Q 1359 -531 822 -1347 
L 216 -1347 
z
" transform="scale(0.015625)"/>
     </defs>
     <use xlink:href="#Arial-BoldMT-48"/>
     <use xlink:href="#Arial-BoldMT-69" transform="translate(72.216797 0)"/>
     <use xlink:href="#Arial-BoldMT-64" transform="translate(100 0)"/>
     <use xlink:href="#Arial-BoldMT-64" transform="translate(161.083984 0)"/>
     <use xlink:href="#Arial-BoldMT-65" transform="translate(222.167969 0)"/>
     <use xlink:href="#Arial-BoldMT-6e" transform="translate(277.783203 0)"/>
     <use xlink:href="#Arial-BoldMT-20" transform="translate(338.867188 0)"/>
     <use xlink:href="#Arial-BoldMT-4c" transform="translate(366.650391 0)"/>
     <use xlink:href="#Arial-BoldMT-61" transform="translate(427.734375 0)"/>
     <use xlink:href="#Arial-BoldMT-79" transform="translate(483.349609 0)"/>
     <use xlink:href="#Arial-BoldMT-65" transform="translate(538.964844 0)"/>
     <use xlink:href="#Arial-BoldMT-72" transform="translate(594.580078 0)"/>
     <use xlink:href="#Arial-BoldMT-20" transform="translate(633.496094 0)"/>
     <use xlink:href="#Arial-BoldMT-28" transform="translate(661.279297 0)"/>
     <use xlink:href="#Arial-BoldMT-31" transform="translate(694.580078 0)"/>
     <use xlink:href="#Arial-BoldMT-30" transform="translate(750.195312 0)"/>
     <use xlink:href="#Arial-BoldMT-30" transform="translate(805.810547 0)"/>
     <use xlink:href="#Arial-BoldMT-20" transform="translate(861.425781 0)"/>
     <use xlink:href="#Arial-BoldMT-6e" transform="translate(889.208984 0)"/>
     <use xlink:href="#Arial-BoldMT-65" transform="translate(950.292969 0)"/>
     <use xlink:href="#Arial-BoldMT-75" transform="translate(1005.908203 0)"/>
     <use xlink:href="#Arial-BoldMT-72" transform="translate(1066.992188 0)"/>
     <use xlink:href="#Arial-BoldMT-6f" transform="translate(1105.908203 0)"/>
     <use xlink:href="#Arial-BoldMT-6e" transform="translate(1166.992188 0)"/>
     <use xlink:href="#Arial-BoldMT-73" transform="translate(1228.076172 0)"/>
     <use xlink:href="#Arial-BoldMT-2c" transform="translate(1283.691406 0)"/>
     <use xlink:href="#Arial-BoldMT-20" transform="translate(1311.474609 0)"/>
     <use xlink:href="#Arial-BoldMT-52" transform="translate(1339.257812 0)"/>
     <use xlink:href="#Arial-BoldMT-65" transform="translate(1411.474609 0)"/>
     <use xlink:href="#Arial-BoldMT-4c" transform="translate(1467.089844 0)"/>
     <use xlink:href="#Arial-BoldMT-55" transform="translate(1528.173828 0)"/>
     <use xlink:href="#Arial-BoldMT-29" transform="translate(1600.390625 0)"/>
    </g>
   </g>
   <g id="text_5">
    <!-- Output + Softmax → 27 probabilities -->
    <g style="fill: #ffffff" transform="translate(235.640156 447.914437) scale(0.14 -0.14)">
     <defs>
      <path id="Arial-BoldMT-4f" d="M 278 2263 
Q 278 2963 488 3438 
Q 644 3788 914 4066 
Q 1184 4344 1506 4478 
Q 1934 4659 2494 4659 
Q 3506 4659 4114 4031 
Q 4722 3403 4722 2284 
Q 4722 1175 4119 548 
Q 3516 -78 2506 -78 
Q 1484 -78 881 545 
Q 278 1169 278 2263 
z
M 1231 2294 
Q 1231 1516 1590 1114 
Q 1950 713 2503 713 
Q 3056 713 3411 1111 
Q 3766 1509 3766 2306 
Q 3766 3094 3420 3481 
Q 3075 3869 2503 3869 
Q 1931 3869 1581 3476 
Q 1231 3084 1231 2294 
z
" transform="scale(0.015625)"/>
      <path id="Arial-BoldMT-2b" d="M 1466 659 
L 1466 1850 
L 266 1850 
L 266 2672 
L 1466 2672 
L 1466 3863 
L 2266 3863 
L 2266 2672 
L 3469 2672 
L 3469 1850 
L 2266 1850 
L 2266 659 
L 1466 659 
z
" transform="scale(0.015625)"/>
      <path id="Arial-BoldMT-53" d="M 231 1491 
L 1131 1578 
Q 1213 1125 1461 912 
Q 1709 700 2131 700 
Q 2578 700 2804 889 
Q 3031 1078 3031 1331 
Q 3031 1494 2936 1608 
Q 2841 1722 2603 1806 
Q 2441 1863 1863 2006 
Q 1119 2191 819 2459 
Q 397 2838 397 3381 
Q 397 3731 595 4036 
Q 794 4341 1167 4500 
Q 1541 4659 2069 4659 
Q 2931 4659 3367 4281 
Q 3803 3903 3825 3272 
L 2900 3231 
Q 2841 3584 2645 3739 
Q 2450 3894 2059 3894 
Q 1656 3894 1428 3728 
Q 1281 3622 1281 3444 
Q 1281 3281 1419 3166 
Q 1594 3019 2269 2859 
Q 2944 2700 3267 2529 
Q 3591 2359 3773 2064 
Q 3956 1769 3956 1334 
Q 3956 941 3737 597 
Q 3519 253 3119 86 
Q 2719 -81 2122 -81 
Q 1253 -81 787 320 
Q 322 722 231 1491 
z
" transform="scale(0.015625)"/>
      <path id="Arial-BoldMT-66" d="M 75 3319 
L 563 3319 
L 563 3569 
Q 563 3988 652 4194 
Q 741 4400 980 4529 
Q 1219 4659 1584 4659 
Q 1959 4659 2319 4547 
L 2200 3934 
Q 1991 3984 1797 3984 
Q 1606 3984 1523 3895 
Q 1441 3806 1441 3553 
L 1441 3319 
L 2097 3319 
L 2097 2628 
L 1441 2628 
L 1441 0 
L 563 0 
L 563 2628 
L 75 2628 
L 75 3319 
z
" transform="scale(0.015625)"/>
      <path id="Arial-BoldMT-78" d="M 38 0 
L 1234 1709 
L 88 3319 
L 1159 3319 
L 1747 2406 
L 2366 3319 
L 3397 3319 
L 2272 1747 
L 3500 0 
L 2422 0 
L 1747 1028 
L 1066 0 
L 38 0 
z
" transform="scale(0.015625)"/>
      <path id="Arial-BoldMT-37" d="M 272 3703 
L 272 4519 
L 3275 4519 
L 3275 3881 
Q 2903 3516 2518 2831 
Q 2134 2147 1932 1376 
Q 1731 606 1734 0 
L 888 0 
Q 909 950 1279 1937 
Q 1650 2925 2269 3703 
L 272 3703 
z
" transform="scale(0.015625)"/>
      <path id="Arial-BoldMT-6c" d="M 459 0 
L 459 4581 
L 1338 4581 
L 1338 0 
L 459 0 
z
" transform="scale(0.015625)"/>
     </defs>
     <use xlink:href="#Arial-BoldMT-4f"/>
     <use xlink:href="#Arial-BoldMT-75" transform="translate(77.783203 0)"/>
     <use xlink:href="#Arial-BoldMT-74" transform="translate(138.867188 0)"/>
     <use xlink:href="#Arial-BoldMT-70" transform="translate(172.167969 0)"/>
     <use xlink:href="#Arial-BoldMT-75" transform="translate(233.251953 0)"/>
     <use xlink:href="#Arial-BoldMT-74" transform="translate(294.335938 0)"/>
     <use xlink:href="#Arial-BoldMT-20" transform="translate(327.636719 0)"/>
     <use xlink:href="#Arial-BoldMT-2b" transform="translate(355.419922 0)"/>
     <use xlink:href="#Arial-BoldMT-20" transform="translate(413.818359 0)"/>
     <use xlink:href="#Arial-BoldMT-53" transform="translate(441.601562 0)"/>
     <use xlink:href="#Arial-BoldMT-6f" transform="translate(508.300781 0)"/>
     <use xlink:href="#Arial-BoldMT-66" transform="translate(569.384766 0)"/>
     <use xlink:href="#Arial-BoldMT-74" transform="translate(602.685547 0)"/>
     <use xlink:href="#Arial-BoldMT-6d" transform="translate(635.986328 0)"/>
     <use xlink:href="#Arial-BoldMT-61" transform="translate(724.902344 0)"/>
     <use xlink:href="#Arial-BoldMT-78" transform="translate(780.517578 0)"/>
     <use xlink:href="#Arial-BoldMT-20" transform="translate(836.132812 0)"/>
     <use xlink:href="#Arial-BoldMT-2192" transform="translate(863.916016 0)"/>
     <use xlink:href="#Arial-BoldMT-20" transform="translate(963.916016 0)"/>
     <use xlink:href="#Arial-BoldMT-32" transform="translate(991.699219 0)"/>
     <use xlink:href="#Arial-BoldMT-37" transform="translate(1047.314453 0)"/>
     <use xlink:href="#Arial-BoldMT-20" transform="translate(1102.929688 0)"/>
     <use xlink:href="#Arial-BoldMT-70" transform="translate(1130.712891 0)"/>
     <use xlink:href="#Arial-BoldMT-72" transform="translate(1191.796875 0)"/>
     <use xlink:href="#Arial-BoldMT-6f" transform="translate(1230.712891 0)"/>
     <use xlink:href="#Arial-BoldMT-62" transform="translate(1291.796875 0)"/>
     <use xlink:href="#Arial-BoldMT-61" transform="translate(1352.880859 0)"/>
     <use xlink:href="#Arial-BoldMT-62" transform="translate(1408.496094 0)"/>
     <use xlink:href="#Arial-BoldMT-69" transform="translate(1469.580078 0)"/>
     <use xlink:href="#Arial-BoldMT-6c" transform="translate(1497.363281 0)"/>
     <use xlink:href="#Arial-BoldMT-69" transform="translate(1525.146484 0)"/>
     <use xlink:href="#Arial-BoldMT-74" transform="translate(1552.929688 0)"/>
     <use xlink:href="#Arial-BoldMT-69" transform="translate(1586.230469 0)"/>
     <use xlink:href="#Arial-BoldMT-65" transform="translate(1614.013672 0)"/>
     <use xlink:href="#Arial-BoldMT-73" transform="translate(1669.628906 0)"/>
    </g>
   </g>
   <g id="patch_7">
    <path d="M 356.4 120.297473 
Q 356.4 133.942667 356.4 145.351793 
" style="fill: none; stroke: #000000; stroke-width: 2; stroke-linecap: round"/>
    <path d="M 358.4 141.351793 
L 356.4 145.351793 
L 354.4 141.351793 
" style="fill: none; stroke: #000000; stroke-width: 2; stroke-linecap: round"/>
   </g>
   <g id="patch_8">
    <path d="M 356.4 208.942273 
Q 356.4 222.587467 356.4 233.996593 
" style="fill: none; stroke: #000000; stroke-width: 2; stroke-linecap: round"/>
    <path d="M 358.4 229.996593 
L 356.4 233.996593 
L 354.4 229.996593 
" style="fill: none; stroke: #000000; stroke-width: 2; stroke-linecap: round"/>
   </g>
   <g id="patch_9">
    <path d="M 356.4 297.587073 
Q 356.4 311.232267 356.4 322.641393 
" style="fill: none; stroke: #000000; stroke-width: 2; stroke-linecap: round"/>
    <path d="M 358.4 318.641393 
L 356.4 322.641393 
L 354.4 318.641393 
" style="fill: none; stroke: #000000; stroke-width: 2; stroke-linecap: round"/>
   </g>
   <g id="patch_10">
    <path d="M 356.4 386.231873 
Q 356.4 399.877067 356.4 411.286193 
" style="fill: none; stroke: #000000; stroke-width: 2; stroke-linecap: round"/>
    <path d="M 358.4 407.286193 
L 356.4 411.286193 
L 354.4 407.286193 
" style="fill: none; stroke: #000000; stroke-width: 2; stroke-linecap: round"/>
   </g>
   <g id="text_6">
    <g id="patch_11">
     <path d="M 258.64875 541.577687 
L 454.15125 541.577687 
Q 457.75125 541.577687 457.75125 537.977687 
L 457.75125 526.716437 
Q 457.75125 523.116437 454.15125 523.116437 
L 258.64875 523.116437 
Q 255.04875 523.116437 255.04875 526.716437 
L 255.04875 537.977687 
Q 255.04875 541.577687 258.64875 541.577687 
z
" style="fill: #ffccbc; stroke: #e64a19; stroke-linejoin: miter"/>
    </g>
    <!-- P('a')=0.05  P('i')=0.45  P('d')=0.30 ... -->
    <g transform="translate(258.64875 535.452062) scale(0.12 -0.12)">
     <defs>
      <path id="Arial-ItalicMT-50" d="M 275 0 
L 1234 4581 
L 3147 4581 
Q 3644 4581 3892 4467 
Q 4141 4353 4303 4076 
Q 4466 3800 4466 3456 
Q 4466 3172 4350 2878 
Q 4234 2584 4057 2393 
Q 3881 2203 3700 2106 
Q 3519 2009 3313 1963 
Q 2872 1859 2422 1859 
L 1275 1859 
L 888 0 
L 275 0 
z
M 1384 2378 
L 2394 2378 
Q 2981 2378 3256 2504 
Q 3531 2631 3697 2890 
Q 3863 3150 3863 3441 
Q 3863 3666 3775 3808 
Q 3688 3950 3528 4017 
Q 3369 4084 2916 4084 
L 1741 4084 
L 1384 2378 
z
" transform="scale(0.015625)"/>
      <path id="Arial-ItalicMT-28" d="M 1031 -1347 
Q 541 -272 541 863 
Q 541 1619 739 2270 
Q 938 2922 1344 3559 
Q 1613 3984 2203 4659 
L 2644 4659 
Q 2278 4269 1870 3559 
Q 1463 2850 1278 2165 
Q 1094 1481 1094 791 
Q 1094 -241 1453 -1347 
L 1031 -1347 
z
" transform="scale(0.015625)"/>
      <path id="Arial-ItalicMT-27" d="M 813 2959 
L 850 3816 
L 1013 4581 
L 1656 4581 
L 1491 3816 
L 1163 2959 
L 813 2959 
z
" transform="scale(0.015625)"/>
      <path id="Arial-ItalicMT-61" d="M 2450 413 
Q 2156 159 1884 42 
Q 1613 -75 1303 -75 
Q 844 -75 562 195 
Q 281 466 281 888 
Q 281 1166 407 1380 
Q 534 1594 743 1723 
Q 953 1853 1256 1909 
Q 1447 1947 1980 1969 
Q 2513 1991 2744 2081 
Q 2809 2313 2809 2466 
Q 2809 2663 2666 2775 
Q 2469 2931 2091 2931 
Q 1734 2931 1507 2773 
Q 1281 2616 1178 2325 
L 606 2375 
Q 781 2869 1161 3131 
Q 1541 3394 2119 3394 
Q 2734 3394 3094 3100 
Q 3369 2881 3369 2531 
Q 3369 2266 3291 1916 
L 3106 1091 
Q 3019 697 3019 450 
Q 3019 294 3088 0 
L 2516 0 
Q 2469 163 2450 413 
z
M 2659 1681 
Q 2541 1634 2405 1609 
Q 2269 1584 1950 1556 
Q 1456 1513 1253 1445 
Q 1050 1378 947 1231 
Q 844 1084 844 906 
Q 844 669 1008 516 
Q 1172 363 1475 363 
Q 1756 363 2015 511 
Q 2275 659 2425 925 
Q 2575 1191 2659 1681 
z
" transform="scale(0.015625)"/>
      <path id="Arial-ItalicMT-29" d="M 1269 4659 
Q 1763 3584 1763 2453 
Q 1763 1694 1564 1044 
Q 1366 394 959 -247 
Q 688 -672 100 -1347 
L -341 -1347 
Q 22 -953 431 -243 
Q 841 466 1023 1148 
Q 1206 1831 1206 2525 
Q 1206 3556 847 4659 
L 1269 4659 
z
" transform="scale(0.015625)"/>
      <path id="Arial-ItalicMT-3d" d="M 3600 2694 
L 575 2694 
L 575 3219 
L 3600 3219 
L 3600 2694 
z
M 3600 1303 
L 575 1303 
L 575 1828 
L 3600 1828 
L 3600 1303 
z
" transform="scale(0.015625)"/>
      <path id="Arial-ItalicMT-30" d="M 453 1503 
Q 453 2084 626 2684 
Q 800 3284 1012 3643 
Q 1225 4003 1453 4206 
Q 1681 4409 1901 4504 
Q 2122 4600 2391 4600 
Q 2916 4600 3267 4209 
Q 3619 3819 3619 3081 
Q 3619 2322 3375 1578 
Q 3088 697 2575 256 
Q 2181 -78 1678 -78 
Q 1163 -78 808 326 
Q 453 731 453 1503 
z
M 1000 1359 
Q 1000 938 1141 700 
Q 1331 372 1706 372 
Q 2034 372 2303 669 
Q 2691 1088 2886 1895 
Q 3081 2703 3081 3216 
Q 3081 3709 2892 3928 
Q 2703 4147 2394 4147 
Q 2169 4147 1973 4031 
Q 1778 3916 1600 3634 
Q 1347 3238 1159 2447 
Q 1000 1772 1000 1359 
z
" transform="scale(0.015625)"/>
      <path id="Arial-ItalicMT-2e" d="M 369 0 
L 503 641 
L 1144 641 
L 1006 0 
L 369 0 
z
" transform="scale(0.015625)"/>
      <path id="Arial-ItalicMT-35" d="M 447 1309 
L 1022 1366 
Q 1016 1244 1016 1219 
Q 1016 1013 1120 803 
Q 1225 594 1404 483 
Q 1584 372 1784 372 
Q 2047 372 2319 553 
Q 2591 734 2759 1081 
Q 2928 1428 2928 1769 
Q 2928 2153 2701 2384 
Q 2475 2616 2106 2616 
Q 1859 2616 1639 2497 
Q 1419 2378 1228 2141 
L 734 2175 
L 1425 4519 
L 3663 4519 
L 3553 4000 
L 1813 4000 
L 1469 2834 
Q 1663 2975 1867 3045 
Q 2072 3116 2288 3116 
Q 2813 3116 3150 2769 
Q 3488 2422 3488 1819 
Q 3488 1291 3256 845 
Q 3025 400 2620 161 
Q 2216 -78 1747 -78 
Q 1353 -78 1050 100 
Q 747 278 595 590 
Q 444 903 444 1216 
Q 444 1247 447 1309 
z
" transform="scale(0.015625)"/>
      <path id="Arial-ItalicMT-20" transform="scale(0.015625)"/>
      <path id="Arial-ItalicMT-69" d="M 1016 3941 
L 1150 4581 
L 1713 4581 
L 1578 3941 
L 1016 3941 
z
M 191 0 
L 884 3319 
L 1450 3319 
L 756 0 
L 191 0 
z
" transform="scale(0.015625)"/>
      <path id="Arial-ItalicMT-34" d="M 1913 0 
L 2159 1169 
L 291 1169 
L 409 1728 
L 2975 4581 
L 3438 4581 
L 2828 1669 
L 3472 1669 
L 3369 1169 
L 2725 1169 
L 2478 0 
L 1913 0 
z
M 2263 1669 
L 2663 3581 
L 956 1669 
L 2263 1669 
z
" transform="scale(0.015625)"/>
      <path id="Arial-ItalicMT-64" d="M 2450 481 
Q 1966 -75 1438 -75 
Q 966 -75 652 273 
Q 338 622 338 1284 
Q 338 1891 586 2392 
Q 834 2894 1207 3144 
Q 1581 3394 1956 3394 
Q 2575 3394 2891 2797 
L 3266 4581 
L 3828 4581 
L 2872 0 
L 2350 0 
L 2450 481 
z
M 900 1391 
Q 900 1044 969 844 
Q 1038 644 1203 511 
Q 1369 378 1600 378 
Q 1984 378 2297 778 
Q 2716 1309 2716 2091 
Q 2716 2484 2509 2706 
Q 2303 2928 1991 2928 
Q 1788 2928 1620 2837 
Q 1453 2747 1289 2530 
Q 1125 2313 1012 1978 
Q 900 1644 900 1391 
z
" transform="scale(0.015625)"/>
      <path id="Arial-ItalicMT-33" d="M 350 1200 
L 900 1269 
Q 963 788 1177 580 
Q 1391 372 1738 372 
Q 2156 372 2461 672 
Q 2766 972 2766 1359 
Q 2766 1697 2537 1917 
Q 2309 2138 1925 2138 
Q 1881 2138 1744 2125 
L 1841 2597 
Q 1922 2584 1997 2584 
Q 2481 2584 2742 2820 
Q 3003 3056 3003 3400 
Q 3003 3716 2789 3931 
Q 2575 4147 2266 4147 
Q 1963 4147 1720 3926 
Q 1478 3706 1409 3303 
L 853 3416 
Q 991 3981 1381 4290 
Q 1772 4600 2306 4600 
Q 2869 4600 3217 4259 
Q 3566 3919 3566 3422 
Q 3566 3059 3377 2789 
Q 3188 2519 2809 2341 
Q 3078 2181 3211 1956 
Q 3344 1731 3344 1441 
Q 3344 825 2883 373 
Q 2422 -78 1781 -78 
Q 1159 -78 776 270 
Q 394 619 350 1200 
z
" transform="scale(0.015625)"/>
     </defs>
     <use xlink:href="#Arial-ItalicMT-50"/>
     <use xlink:href="#Arial-ItalicMT-28" transform="translate(66.699219 0)"/>
     <use xlink:href="#Arial-ItalicMT-27" transform="translate(100 0)"/>
     <use xlink:href="#Arial-ItalicMT-61" transform="translate(119.091797 0)"/>
     <use xlink:href="#Arial-ItalicMT-27" transform="translate(174.707031 0)"/>
     <use xlink:href="#Arial-ItalicMT-29" transform="translate(193.798828 0)"/>
     <use xlink:href="#Arial-ItalicMT-3d" transform="translate(227.099609 0)"/>
     <use xlink:href="#Arial-ItalicMT-30" transform="translate(285.498047 0)"/>
     <use xlink:href="#Arial-ItalicMT-2e" transform="translate(341.113281 0)"/>
     <use xlink:href="#Arial-ItalicMT-30" transform="translate(368.896484 0)"/>
     <use xlink:href="#Arial-ItalicMT-35" transform="translate(424.511719 0)"/>
     <use xlink:href="#Arial-ItalicMT-20" transform="translate(480.126953 0)"/>
     <use xlink:href="#Arial-ItalicMT-20" transform="translate(507.910156 0)"/>
     <use xlink:href="#Arial-ItalicMT-50" transform="translate(535.693359 0)"/>
     <use xlink:href="#Arial-ItalicMT-28" transform="translate(602.392578 0)"/>
     <use xlink:href="#Arial-ItalicMT-27" transform="translate(635.693359 0)"/>
     <use xlink:href="#Arial-ItalicMT-69" transform="translate(654.785156 0)"/>
     <use xlink:href="#Arial-ItalicMT-27" transform="translate(677.001953 0)"/>
     <use xlink:href="#Arial-ItalicMT-29" transform="translate(696.09375 0)"/>
     <use xlink:href="#Arial-ItalicMT-3d" transform="translate(729.394531 0)"/>
     <use xlink:href="#Arial-ItalicMT-30" transform="translate(787.792969 0)"/>
     <use xlink:href="#Arial-ItalicMT-2e" transform="translate(843.408203 0)"/>
     <use xlink:href="#Arial-ItalicMT-34" transform="translate(871.191406 0)"/>
     <use xlink:href="#Arial-ItalicMT-35" transform="translate(926.806641 0)"/>
     <use xlink:href="#Arial-ItalicMT-20" transform="translate(982.421875 0)"/>
     <use xlink:href="#Arial-ItalicMT-20" transform="translate(1010.205078 0)"/>
     <use xlink:href="#Arial-ItalicMT-50" transform="translate(1037.988281 0)"/>
     <use xlink:href="#Arial-ItalicMT-28" transform="translate(1104.6875 0)"/>
     <use xlink:href="#Arial-ItalicMT-27" transform="translate(1137.988281 0)"/>
     <use xlink:href="#Arial-ItalicMT-64" transform="translate(1157.080078 0)"/>
     <use xlink:href="#Arial-ItalicMT-27" transform="translate(1212.695312 0)"/>
     <use xlink:href="#Arial-ItalicMT-29" transform="translate(1231.787109 0)"/>
     <use xlink:href="#Arial-ItalicMT-3d" transform="translate(1265.087891 0)"/>
     <use xlink:href="#Arial-ItalicMT-30" transform="translate(1323.486328 0)"/>
     <use xlink:href="#Arial-ItalicMT-2e" transform="translate(1379.101562 0)"/>
     <use xlink:href="#Arial-ItalicMT-33" transform="translate(1406.884766 0)"/>
     <use xlink:href="#Arial-ItalicMT-30" transform="translate(1462.5 0)"/>
     <use xlink:href="#Arial-ItalicMT-20" transform="translate(1518.115234 0)"/>
     <use xlink:href="#Arial-ItalicMT-2e" transform="translate(1545.898438 0)"/>
     <use xlink:href="#Arial-ItalicMT-2e" transform="translate(1573.681641 0)"/>
     <use xlink:href="#Arial-ItalicMT-2e" transform="translate(1601.464844 0)"/>
    </g>
   </g>
   <g id="text_7">
    <!-- Neural Network for Next Character Prediction -->
    <g transform="translate(162.856406 20.084062) scale(0.18 -0.18)">
     <defs>
      <path id="Arial-BoldMT-4e" d="M 475 0 
L 475 4581 
L 1375 4581 
L 3250 1522 
L 3250 4581 
L 4109 4581 
L 4109 0 
L 3181 0 
L 1334 2988 
L 1334 0 
L 475 0 
z
" transform="scale(0.015625)"/>
      <path id="Arial-BoldMT-77" d="M 1078 0 
L 28 3319 
L 881 3319 
L 1503 1144 
L 2075 3319 
L 2922 3319 
L 3475 1144 
L 4109 3319 
L 4975 3319 
L 3909 0 
L 3066 0 
L 2494 2134 
L 1931 0 
L 1078 0 
z
" transform="scale(0.015625)"/>
      <path id="Arial-BoldMT-6b" d="M 428 0 
L 428 4581 
L 1306 4581 
L 1306 2150 
L 2334 3319 
L 3416 3319 
L 2281 2106 
L 3497 0 
L 2550 0 
L 1716 1491 
L 1306 1063 
L 1306 0 
L 428 0 
z
" transform="scale(0.015625)"/>
      <path id="Arial-BoldMT-68" d="M 1334 4581 
L 1334 2897 
Q 1759 3394 2350 3394 
Q 2653 3394 2897 3281 
Q 3141 3169 3264 2994 
Q 3388 2819 3433 2606 
Q 3478 2394 3478 1947 
L 3478 0 
L 2600 0 
L 2600 1753 
Q 2600 2275 2550 2415 
Q 2500 2556 2373 2639 
Q 2247 2722 2056 2722 
Q 1838 2722 1666 2615 
Q 1494 2509 1414 2295 
Q 1334 2081 1334 1663 
L 1334 0 
L 456 0 
L 456 4581 
L 1334 4581 
z
" transform="scale(0.015625)"/>
      <path id="Arial-BoldMT-50" d="M 466 0 
L 466 4581 
L 1950 4581 
Q 2794 4581 3050 4513 
Q 3444 4409 3709 4064 
Q 3975 3719 3975 3172 
Q 3975 2750 3822 2462 
Q 3669 2175 3433 2011 
Q 3197 1847 2953 1794 
Q 2622 1728 1994 1728 
L 1391 1728 
L 1391 0 
L 466 0 
z
M 1391 3806 
L 1391 2506 
L 1897 2506 
Q 2444 2506 2628 2578 
Q 2813 2650 2917 2803 
Q 3022 2956 3022 3159 
Q 3022 3409 2875 3571 
Q 2728 3734 2503 3775 
Q 2338 3806 1838 3806 
L 1391 3806 
z
" transform="scale(0.015625)"/>
     </defs>
     <use xlink:href="#Arial-BoldMT-4e"/>
     <use xlink:href="#Arial-BoldMT-65" transform="translate(72.216797 0)"/>
     <use xlink:href="#Arial-BoldMT-75" transform="translate(127.832031 0)"/>
     <use xlink:href="#Arial-BoldMT-72" transform="translate(188.916016 0)"/>
     <use xlink:href="#Arial-BoldMT-61" transform="translate(227.832031 0)"/>
     <use xlink:href="#Arial-BoldMT-6c" transform="translate(283.447266 0)"/>
     <use xlink:href="#Arial-BoldMT-20" transform="translate(311.230469 0)"/>
     <use xlink:href="#Arial-BoldMT-4e" transform="translate(339.013672 0)"/>
     <use xlink:href="#Arial-BoldMT-65" transform="translate(411.230469 0)"/>
     <use xlink:href="#Arial-BoldMT-74" transform="translate(466.845703 0)"/>
     <use xlink:href="#Arial-BoldMT-77" transform="translate(500.146484 0)"/>
     <use xlink:href="#Arial-BoldMT-6f" transform="translate(577.929688 0)"/>
     <use xlink:href="#Arial-BoldMT-72" transform="translate(639.013672 0)"/>
     <use xlink:href="#Arial-BoldMT-6b" transform="translate(677.929688 0)"/>
     <use xlink:href="#Arial-BoldMT-20" transform="translate(733.544922 0)"/>
     <use xlink:href="#Arial-BoldMT-66" transform="translate(761.328125 0)"/>
     <use xlink:href="#Arial-BoldMT-6f" transform="translate(794.628906 0)"/>
     <use xlink:href="#Arial-BoldMT-72" transform="translate(855.712891 0)"/>
     <use xlink:href="#Arial-BoldMT-20" transform="translate(894.628906 0)"/>
     <use xlink:href="#Arial-BoldMT-4e" transform="translate(922.412109 0)"/>
     <use xlink:href="#Arial-BoldMT-65" transform="translate(994.628906 0)"/>
     <use xlink:href="#Arial-BoldMT-78" transform="translate(1050.244141 0)"/>
     <use xlink:href="#Arial-BoldMT-74" transform="translate(1105.859375 0)"/>
     <use xlink:href="#Arial-BoldMT-20" transform="translate(1139.160156 0)"/>
     <use xlink:href="#Arial-BoldMT-43" transform="translate(1166.943359 0)"/>
     <use xlink:href="#Arial-BoldMT-68" transform="translate(1239.160156 0)"/>
     <use xlink:href="#Arial-BoldMT-61" transform="translate(1300.244141 0)"/>
     <use xlink:href="#Arial-BoldMT-72" transform="translate(1355.859375 0)"/>
     <use xlink:href="#Arial-BoldMT-61" transform="translate(1394.775391 0)"/>
     <use xlink:href="#Arial-BoldMT-63" transform="translate(1450.390625 0)"/>
     <use xlink:href="#Arial-BoldMT-74" transform="translate(1506.005859 0)"/>
     <use xlink:href="#Arial-BoldMT-65" transform="translate(1539.306641 0)"/>
     <use xlink:href="#Arial-BoldMT-72" transform="translate(1594.921875 0)"/>
     <use xlink:href="#Arial-BoldMT-20" transform="translate(1633.837891 0)"/>
     <use xlink:href="#Arial-BoldMT-50" transform="translate(1661.621094 0)"/>
     <use xlink:href="#Arial-BoldMT-72" transform="translate(1728.320312 0)"/>
     <use xlink:href="#Arial-BoldMT-65" transform="translate(1767.236328 0)"/>
     <use xlink:href="#Arial-BoldMT-64" transform="translate(1822.851562 0)"/>
     <use xlink:href="#Arial-BoldMT-69" transform="translate(1883.935547 0)"/>
     <use xlink:href="#Arial-BoldMT-63" transform="translate(1911.71875 0)"/>
     <use xlink:href="#Arial-BoldMT-74" transform="translate(1967.333984 0)"/>
     <use xlink:href="#Arial-BoldMT-69" transform="translate(2000.634766 0)"/>
     <use xlink:href="#Arial-BoldMT-6f" transform="translate(2028.417969 0)"/>
     <use xlink:href="#Arial-BoldMT-6e" transform="translate(2089.501953 0)"/>
    </g>
   </g>
  </g>
 </g>
 <defs>
  <clipPath id="p0091767470">
   <rect x="7.2" y="40.084062" width="698.4" height="521.44"/>
  </clipPath>
 </defs>
</svg>
