<?xml version="1.0" encoding="utf-8" standalone="no"?>
<!DOCTYPE svg PUBLIC "-//W3C//DTD SVG 1.1//EN"
  "http://www.w3.org/Graphics/SVG/1.1/DTD/svg11.dtd">
<svg xmlns:xlink="http://www.w3.org/1999/xlink" width="856.8pt" height="712.8pt" viewBox="0 0 856.8 712.8" xmlns="http://www.w3.org/2000/svg" version="1.1">
 <metadata>
  <rdf:RDF xmlns:dc="http://purl.org/dc/elements/1.1/" xmlns:cc="http://creativecommons.org/ns#" xmlns:rdf="http://www.w3.org/1999/02/22-rdf-syntax-ns#">
   <cc:Work>
    <dc:type rdf:resource="http://purl.org/dc/dcmitype/StillImage"/>
    <dc:date>2025-12-29T10:49:47.651108</dc:date>
    <dc:format>image/svg+xml</dc:format>
    <dc:creator>
     <cc:Agent>
      <dc:title>Matplotlib v3.10.1, https://matplotlib.org/</dc:title>
     </cc:Agent>
    </dc:creator>
   </cc:Work>
  </rdf:RDF>
 </metadata>
 <defs>
  <style type="text/css">*{stroke-linejoin: round; stroke-linecap: butt}</style>
 </defs>
 <g id="figure_1">
  <g id="patch_1">
   <path d="M 0 712.8 
L 856.8 712.8 
L 856.8 0 
L 0 0 
z
" style="fill: #f8f9fa"/>
  </g>
  <g id="axes_1">
   <g id="patch_2">
    <path d="M 158.832 153.864 
L 226.224 153.864 
Q 234.648 153.864 234.648 146.88 
L 234.648 77.04 
Q 234.648 70.056 226.224 70.056 
L 158.832 70.056 
Q 150.408 70.056 150.408 77.04 
L 150.408 146.88 
Q 150.408 153.864 158.832 153.864 
z
" clip-path="url(#p6225bf63b9)" style="fill: #2e86ab; opacity: 0.7; stroke: #000000; stroke-linejoin: miter"/>
   </g>
   <g id="patch_3">
    <path d="M 243.072 153.864 
L 310.464 153.864 
Q 318.888 153.864 318.888 146.88 
L 318.888 77.04 
Q 318.888 70.056 310.464 70.056 
L 243.072 70.056 
Q 234.648 70.056 234.648 77.04 
L 234.648 146.88 
Q 234.648 153.864 243.072 153.864 
z
" clip-path="url(#p6225bf63b9)" style="fill: #2e86ab; opacity: 0.7; stroke: #000000; stroke-linejoin: miter"/>
   </g>
   <g id="patch_4">
    <path d="M 327.312 153.864 
L 394.704 153.864 
Q 403.128 153.864 403.128 146.88 
L 403.128 77.04 
Q 403.128 70.056 394.704 70.056 
L 327.312 70.056 
Q 318.888 70.056 318.888 77.04 
L 318.888 146.88 
Q 318.888 153.864 327.312 153.864 
z
" clip-path="url(#p6225bf63b9)" style="fill: #2e86ab; opacity: 0.7; stroke: #000000; stroke-linejoin: miter"/>
   </g>
   <g id="patch_5">
    <path d="M 411.552 153.864 
L 478.944 153.864 
Q 487.368 153.864 487.368 146.88 
L 487.368 77.04 
Q 487.368 70.056 478.944 70.056 
L 411.552 70.056 
Q 403.128 70.056 403.128 77.04 
L 403.128 146.88 
Q 403.128 153.864 411.552 153.864 
z
" clip-path="url(#p6225bf63b9)" style="fill: #2e86ab; opacity: 0.7; stroke: #000000; stroke-linejoin: miter"/>
   </g>
   <g id="patch_6">
    <path d="M 495.792 153.864 
L 563.184 153.864 
Q 571.608 153.864 571.608 146.88 
L 571.608 77.04 
Q 571.608 70.056 563.184 70.056 
L 495.792 70.056 
Q 487.368 70.056 487.368 77.04 
L 487.368 146.88 
Q 487.368 153.864 495.792 153.864 
z
" clip-path="url(#p6225bf63b9)" style="fill: #2e86ab; opacity: 0.7; stroke: #000000; stroke-linejoin: miter"/>
   </g>
   <g id="patch_7">
    <path d="M 158.832 272.592 
L 226.224 272.592 
Q 234.648 272.592 234.648 265.608 
L 234.648 195.768 
Q 234.648 188.784 226.224 188.784 
L 158.832 188.784 
Q 150.408 188.784 150.408 195.768 
L 150.408 265.608 
Q 150.408 272.592 158.832 272.592 
z
" clip-path="url(#p6225bf63b9)" style="fill: #06a77d; opacity: 0.6; stroke: #000000; stroke-linejoin: miter"/>
   </g>
   <g id="patch_8">
    <path d="M 243.072 272.592 
L 310.464 272.592 
Q 318.888 272.592 318.888 265.608 
L 318.888 195.768 
Q 318.888 188.784 310.464 188.784 
L 243.072 188.784 
Q 234.648 188.784 234.648 195.768 
L 234.648 265.608 
Q 234.648 272.592 243.072 272.592 
z
" clip-path="url(#p6225bf63b9)" style="fill: #06a77d; opacity: 0.6; stroke: #000000; stroke-linejoin: miter"/>
   </g>
   <g id="patch_9">
    <path d="M 327.312 272.592 
L 394.704 272.592 
Q 403.128 272.592 403.128 265.608 
L 403.128 195.768 
Q 403.128 188.784 394.704 188.784 
L 327.312 188.784 
Q 318.888 188.784 318.888 195.768 
L 318.888 265.608 
Q 318.888 272.592 327.312 272.592 
z
" clip-path="url(#p6225bf63b9)" style="fill: #06a77d; opacity: 0.6; stroke: #000000; stroke-linejoin: miter"/>
   </g>
   <g id="patch_10">
    <path d="M 495.792 272.592 
L 563.184 272.592 
Q 571.608 272.592 571.608 265.608 
L 571.608 195.768 
Q 571.608 188.784 563.184 188.784 
L 495.792 188.784 
Q 487.368 188.784 487.368 195.768 
L 487.368 265.608 
Q 487.368 272.592 495.792 272.592 
z
" clip-path="url(#p6225bf63b9)" style="fill: #e63946; opacity: 0.7; stroke: #000000; stroke-linejoin: miter"/>
   </g>
   <g id="patch_11">
    <path d="M 158.832 370.368 
L 226.224 370.368 
Q 234.648 370.368 234.648 363.384 
L 234.648 293.544 
Q 234.648 286.56 226.224 286.56 
L 158.832 286.56 
Q 150.408 286.56 150.408 293.544 
L 150.408 363.384 
Q 150.408 370.368 158.832 370.368 
z
" clip-path="url(#p6225bf63b9)" style="fill: #06a77d; opacity: 0.6; stroke: #000000; stroke-linejoin: miter"/>
   </g>
   <g id="patch_12">
    <path d="M 243.072 370.368 
L 310.464 370.368 
Q 318.888 370.368 318.888 363.384 
L 318.888 293.544 
Q 318.888 286.56 310.464 286.56 
L 243.072 286.56 
Q 234.648 286.56 234.648 293.544 
L 234.648 363.384 
Q 234.648 370.368 243.072 370.368 
z
" clip-path="url(#p6225bf63b9)" style="fill: #06a77d; opacity: 0.6; stroke: #000000; stroke-linejoin: miter"/>
   </g>
   <g id="patch_13">
    <path d="M 327.312 370.368 
L 394.704 370.368 
Q 403.128 370.368 403.128 363.384 
L 403.128 293.544 
Q 403.128 286.56 394.704 286.56 
L 327.312 286.56 
Q 318.888 286.56 318.888 293.544 
L 318.888 363.384 
Q 318.888 370.368 327.312 370.368 
z
" clip-path="url(#p6225bf63b9)" style="fill: #06a77d; opacity: 0.6; stroke: #000000; stroke-linejoin: miter"/>
   </g>
   <g id="patch_14">
    <path d="M 495.792 370.368 
L 563.184 370.368 
Q 571.608 370.368 571.608 363.384 
L 571.608 293.544 
Q 571.608 286.56 563.184 286.56 
L 495.792 286.56 
Q 487.368 286.56 487.368 293.544 
L 487.368 363.384 
Q 487.368 370.368 495.792 370.368 
z
" clip-path="url(#p6225bf63b9)" style="fill: #e63946; opacity: 0.7; stroke: #000000; stroke-linejoin: miter"/>
   </g>
   <g id="patch_15">
    <path d="M 158.832 468.144 
L 226.224 468.144 
Q 234.648 468.144 234.648 461.16 
L 234.648 391.32 
Q 234.648 384.336 226.224 384.336 
L 158.832 384.336 
Q 150.408 384.336 150.408 391.32 
L 150.408 461.16 
Q 150.408 468.144 158.832 468.144 
z
" clip-path="url(#p6225bf63b9)" style="fill: #06a77d; opacity: 0.6; stroke: #000000; stroke-linejoin: miter"/>
   </g>
   <g id="patch_16">
    <path d="M 243.072 468.144 
L 310.464 468.144 
Q 318.888 468.144 318.888 461.16 
L 318.888 391.32 
Q 318.888 384.336 310.464 384.336 
L 243.072 384.336 
Q 234.648 384.336 234.648 391.32 
L 234.648 461.16 
Q 234.648 468.144 243.072 468.144 
z
" clip-path="url(#p6225bf63b9)" style="fill: #06a77d; opacity: 0.6; stroke: #000000; stroke-linejoin: miter"/>
   </g>
   <g id="patch_17">
    <path d="M 327.312 468.144 
L 394.704 468.144 
Q 403.128 468.144 403.128 461.16 
L 403.128 391.32 
Q 403.128 384.336 394.704 384.336 
L 327.312 384.336 
Q 318.888 384.336 318.888 391.32 
L 318.888 461.16 
Q 318.888 468.144 327.312 468.144 
z
" clip-path="url(#p6225bf63b9)" style="fill: #06a77d; opacity: 0.6; stroke: #000000; stroke-linejoin: miter"/>
   </g>
   <g id="patch_18">
    <path d="M 495.792 468.144 
L 563.184 468.144 
Q 571.608 468.144 571.608 461.16 
L 571.608 391.32 
Q 571.608 384.336 563.184 384.336 
L 495.792 384.336 
Q 487.368 384.336 487.368 391.32 
L 487.368 461.16 
Q 487.368 468.144 495.792 468.144 
z
" clip-path="url(#p6225bf63b9)" style="fill: #e63946; opacity: 0.7; stroke: #000000; stroke-linejoin: miter"/>
   </g>
   <g id="patch_19">
    <path d="M 158.832 565.92 
L 226.224 565.92 
Q 234.648 565.92 234.648 558.936 
L 234.648 489.096 
Q 234.648 482.112 226.224 482.112 
L 158.832 482.112 
Q 150.408 482.112 150.408 489.096 
L 150.408 558.936 
Q 150.408 565.92 158.832 565.92 
z
" clip-path="url(#p6225bf63b9)" style="fill: #06a77d; opacity: 0.6; stroke: #000000; stroke-linejoin: miter"/>
   </g>
   <g id="patch_20">
    <path d="M 243.072 565.92 
L 310.464 565.92 
Q 318.888 565.92 318.888 558.936 
L 318.888 489.096 
Q 318.888 482.112 310.464 482.112 
L 243.072 482.112 
Q 234.648 482.112 234.648 489.096 
L 234.648 558.936 
Q 234.648 565.92 243.072 565.92 
z
" clip-path="url(#p6225bf63b9)" style="fill: #06a77d; opacity: 0.6; stroke: #000000; stroke-linejoin: miter"/>
   </g>
   <g id="patch_21">
    <path d="M 327.312 565.92 
L 394.704 565.92 
Q 403.128 565.92 403.128 558.936 
L 403.128 489.096 
Q 403.128 482.112 394.704 482.112 
L 327.312 482.112 
Q 318.888 482.112 318.888 489.096 
L 318.888 558.936 
Q 318.888 565.92 327.312 565.92 
z
" clip-path="url(#p6225bf63b9)" style="fill: #06a77d; opacity: 0.6; stroke: #000000; stroke-linejoin: miter"/>
   </g>
   <g id="patch_22">
    <path d="M 495.792 565.92 
L 563.184 565.92 
Q 571.608 565.92 571.608 558.936 
L 571.608 489.096 
Q 571.608 482.112 563.184 482.112 
L 495.792 482.112 
Q 487.368 482.112 487.368 489.096 
L 487.368 558.936 
Q 487.368 565.92 495.792 565.92 
z
" clip-path="url(#p6225bf63b9)" style="fill: #e63946; opacity: 0.7; stroke: #000000; stroke-linejoin: miter"/>
   </g>
   <g id="patch_23">
    <path d="M 158.832 663.696 
L 226.224 663.696 
Q 234.648 663.696 234.648 656.712 
L 234.648 586.872 
Q 234.648 579.888 226.224 579.888 
L 158.832 579.888 
Q 150.408 579.888 150.408 586.872 
L 150.408 656.712 
Q 150.408 663.696 158.832 663.696 
z
" clip-path="url(#p6225bf63b9)" style="fill: #06a77d; opacity: 0.6; stroke: #000000; stroke-linejoin: miter"/>
   </g>
   <g id="patch_24">
    <path d="M 243.072 663.696 
L 310.464 663.696 
Q 318.888 663.696 318.888 656.712 
L 318.888 586.872 
Q 318.888 579.888 310.464 579.888 
L 243.072 579.888 
Q 234.648 579.888 234.648 586.872 
L 234.648 656.712 
Q 234.648 663.696 243.072 663.696 
z
" clip-path="url(#p6225bf63b9)" style="fill: #06a77d; opacity: 0.6; stroke: #000000; stroke-linejoin: miter"/>
   </g>
   <g id="patch_25">
    <path d="M 327.312 663.696 
L 394.704 663.696 
Q 403.128 663.696 403.128 656.712 
L 403.128 586.872 
Q 403.128 579.888 394.704 579.888 
L 327.312 579.888 
Q 318.888 579.888 318.888 586.872 
L 318.888 656.712 
Q 318.888 663.696 327.312 663.696 
z
" clip-path="url(#p6225bf63b9)" style="fill: #06a77d; opacity: 0.6; stroke: #000000; stroke-linejoin: miter"/>
   </g>
   <g id="patch_26">
    <path d="M 495.792 663.696 
L 563.184 663.696 
Q 571.608 663.696 571.608 656.712 
L 571.608 586.872 
Q 571.608 579.888 563.184 579.888 
L 495.792 579.888 
Q 487.368 579.888 487.368 586.872 
L 487.368 656.712 
Q 487.368 663.696 495.792 663.696 
z
" clip-path="url(#p6225bf63b9)" style="fill: #e63946; opacity: 0.7; stroke: #000000; stroke-linejoin: miter"/>
   </g>
   <g id="text_1">
    <!-- Creating Training Data: Sliding Window -->
    <g transform="translate(222.5625 42.12) scale(0.22 -0.22)">
     <defs>
      <path id="Arial-BoldMT-43" d="M 3397 1684 
L 4294 1400 
Q 4088 650 3608 286 
Q 3128 -78 2391 -78 
Q 1478 -78 890 545 
Q 303 1169 303 2250 
Q 303 3394 893 4026 
Q 1484 4659 2447 4659 
Q 3288 4659 3813 4163 
Q 4125 3869 4281 3319 
L 3366 3100 
Q 3284 3456 3026 3662 
Q 2769 3869 2400 3869 
Q 1891 3869 1573 3503 
Q 1256 3138 1256 2319 
Q 1256 1450 1568 1081 
Q 1881 713 2381 713 
Q 2750 713 3015 947 
Q 3281 1181 3397 1684 
z
" transform="scale(0.015625)"/>
      <path id="Arial-BoldMT-72" d="M 1300 0 
L 422 0 
L 422 3319 
L 1238 3319 
L 1238 2847 
Q 1447 3181 1614 3287 
Q 1781 3394 1994 3394 
Q 2294 3394 2572 3228 
L 2300 2463 
Q 2078 2606 1888 2606 
Q 1703 2606 1575 2504 
Q 1447 2403 1373 2137 
Q 1300 1872 1300 1025 
L 1300 0 
z
" transform="scale(0.015625)"/>
      <path id="Arial-BoldMT-65" d="M 2381 1056 
L 3256 909 
Q 3088 428 2723 176 
Q 2359 -75 1813 -75 
Q 947 -75 531 491 
Q 203 944 203 1634 
Q 203 2459 634 2926 
Q 1066 3394 1725 3394 
Q 2466 3394 2894 2905 
Q 3322 2416 3303 1406 
L 1103 1406 
Q 1113 1016 1316 798 
Q 1519 581 1822 581 
Q 2028 581 2168 693 
Q 2309 806 2381 1056 
z
M 2431 1944 
Q 2422 2325 2234 2523 
Q 2047 2722 1778 2722 
Q 1491 2722 1303 2513 
Q 1116 2303 1119 1944 
L 2431 1944 
z
" transform="scale(0.015625)"/>
      <path id="Arial-BoldMT-61" d="M 1116 2306 
L 319 2450 
Q 453 2931 781 3162 
Q 1109 3394 1756 3394 
Q 2344 3394 2631 3255 
Q 2919 3116 3036 2902 
Q 3153 2688 3153 2116 
L 3144 1091 
Q 3144 653 3186 445 
Q 3228 238 3344 0 
L 2475 0 
Q 2441 88 2391 259 
Q 2369 338 2359 363 
Q 2134 144 1878 34 
Q 1622 -75 1331 -75 
Q 819 -75 523 203 
Q 228 481 228 906 
Q 228 1188 362 1408 
Q 497 1628 739 1745 
Q 981 1863 1438 1950 
Q 2053 2066 2291 2166 
L 2291 2253 
Q 2291 2506 2166 2614 
Q 2041 2722 1694 2722 
Q 1459 2722 1328 2630 
Q 1197 2538 1116 2306 
z
M 2291 1594 
Q 2122 1538 1756 1459 
Q 1391 1381 1278 1306 
Q 1106 1184 1106 997 
Q 1106 813 1243 678 
Q 1381 544 1594 544 
Q 1831 544 2047 700 
Q 2206 819 2256 991 
Q 2291 1103 2291 1419 
L 2291 1594 
z
" transform="scale(0.015625)"/>
      <path id="Arial-BoldMT-74" d="M 1981 3319 
L 1981 2619 
L 1381 2619 
L 1381 1281 
Q 1381 875 1398 808 
Q 1416 741 1477 697 
Q 1538 653 1625 653 
Q 1747 653 1978 738 
L 2053 56 
Q 1747 -75 1359 -75 
Q 1122 -75 931 4 
Q 741 84 652 211 
Q 563 338 528 553 
Q 500 706 500 1172 
L 500 2619 
L 97 2619 
L 97 3319 
L 500 3319 
L 500 3978 
L 1381 4491 
L 1381 3319 
L 1981 3319 
z
" transform="scale(0.015625)"/>
      <path id="Arial-BoldMT-69" d="M 459 3769 
L 459 4581 
L 1338 4581 
L 1338 3769 
L 459 3769 
z
M 459 0 
L 459 3319 
L 1338 3319 
L 1338 0 
L 459 0 
z
" transform="scale(0.015625)"/>
      <path id="Arial-BoldMT-6e" d="M 3478 0 
L 2600 0 
L 2600 1694 
Q 2600 2231 2544 2389 
Q 2488 2547 2361 2634 
Q 2234 2722 2056 2722 
Q 1828 2722 1647 2597 
Q 1466 2472 1398 2265 
Q 1331 2059 1331 1503 
L 1331 0 
L 453 0 
L 453 3319 
L 1269 3319 
L 1269 2831 
Q 1703 3394 2363 3394 
Q 2653 3394 2893 3289 
Q 3134 3184 3257 3021 
Q 3381 2859 3429 2653 
Q 3478 2447 3478 2063 
L 3478 0 
z
" transform="scale(0.015625)"/>
      <path id="Arial-BoldMT-67" d="M 378 -219 
L 1381 -341 
Q 1406 -516 1497 -581 
Q 1622 -675 1891 -675 
Q 2234 -675 2406 -572 
Q 2522 -503 2581 -350 
Q 2622 -241 2622 53 
L 2622 538 
Q 2228 0 1628 0 
Q 959 0 569 566 
Q 263 1013 263 1678 
Q 263 2513 664 2953 
Q 1066 3394 1663 3394 
Q 2278 3394 2678 2853 
L 2678 3319 
L 3500 3319 
L 3500 341 
Q 3500 -247 3403 -537 
Q 3306 -828 3131 -993 
Q 2956 -1159 2664 -1253 
Q 2372 -1347 1925 -1347 
Q 1081 -1347 728 -1058 
Q 375 -769 375 -325 
Q 375 -281 378 -219 
z
M 1163 1728 
Q 1163 1200 1367 954 
Q 1572 709 1872 709 
Q 2194 709 2416 961 
Q 2638 1213 2638 1706 
Q 2638 2222 2425 2472 
Q 2213 2722 1888 2722 
Q 1572 2722 1367 2476 
Q 1163 2231 1163 1728 
z
" transform="scale(0.015625)"/>
      <path id="Arial-BoldMT-20" transform="scale(0.015625)"/>
      <path id="Arial-BoldMT-54" d="M 1497 0 
L 1497 3806 
L 138 3806 
L 138 4581 
L 3778 4581 
L 3778 3806 
L 2422 3806 
L 2422 0 
L 1497 0 
z
" transform="scale(0.015625)"/>
      <path id="Arial-BoldMT-44" d="M 463 4581 
L 2153 4581 
Q 2725 4581 3025 4494 
Q 3428 4375 3715 4072 
Q 4003 3769 4153 3330 
Q 4303 2891 4303 2247 
Q 4303 1681 4163 1272 
Q 3991 772 3672 463 
Q 3431 228 3022 97 
Q 2716 0 2203 0 
L 463 0 
L 463 4581 
z
M 1388 3806 
L 1388 772 
L 2078 772 
Q 2466 772 2638 816 
Q 2863 872 3011 1006 
Q 3159 1141 3253 1448 
Q 3347 1756 3347 2288 
Q 3347 2819 3253 3103 
Q 3159 3388 2990 3547 
Q 2822 3706 2563 3763 
Q 2369 3806 1803 3806 
L 1388 3806 
z
" transform="scale(0.015625)"/>
      <path id="Arial-BoldMT-3a" d="M 628 2441 
L 628 3319 
L 1506 3319 
L 1506 2441 
L 628 2441 
z
M 628 0 
L 628 878 
L 1506 878 
L 1506 0 
L 628 0 
z
" transform="scale(0.015625)"/>
      <path id="Arial-BoldMT-53" d="M 231 1491 
L 1131 1578 
Q 1213 1125 1461 912 
Q 1709 700 2131 700 
Q 2578 700 2804 889 
Q 3031 1078 3031 1331 
Q 3031 1494 2936 1608 
Q 2841 1722 2603 1806 
Q 2441 1863 1863 2006 
Q 1119 2191 819 2459 
Q 397 2838 397 3381 
Q 397 3731 595 4036 
Q 794 4341 1167 4500 
Q 1541 4659 2069 4659 
Q 2931 4659 3367 4281 
Q 3803 3903 3825 3272 
L 2900 3231 
Q 2841 3584 2645 3739 
Q 2450 3894 2059 3894 
Q 1656 3894 1428 3728 
Q 1281 3622 1281 3444 
Q 1281 3281 1419 3166 
Q 1594 3019 2269 2859 
Q 2944 2700 3267 2529 
Q 3591 2359 3773 2064 
Q 3956 1769 3956 1334 
Q 3956 941 3737 597 
Q 3519 253 3119 86 
Q 2719 -81 2122 -81 
Q 1253 -81 787 320 
Q 322 722 231 1491 
z
" transform="scale(0.015625)"/>
      <path id="Arial-BoldMT-6c" d="M 459 0 
L 459 4581 
L 1338 4581 
L 1338 0 
L 459 0 
z
" transform="scale(0.015625)"/>
      <path id="Arial-BoldMT-64" d="M 3503 0 
L 2688 0 
L 2688 488 
Q 2484 203 2207 64 
Q 1931 -75 1650 -75 
Q 1078 -75 670 386 
Q 263 847 263 1672 
Q 263 2516 659 2955 
Q 1056 3394 1663 3394 
Q 2219 3394 2625 2931 
L 2625 4581 
L 3503 4581 
L 3503 0 
z
M 1159 1731 
Q 1159 1200 1306 963 
Q 1519 619 1900 619 
Q 2203 619 2415 876 
Q 2628 1134 2628 1647 
Q 2628 2219 2422 2470 
Q 2216 2722 1894 2722 
Q 1581 2722 1370 2473 
Q 1159 2225 1159 1731 
z
" transform="scale(0.015625)"/>
      <path id="Arial-BoldMT-57" d="M 1116 0 
L 22 4581 
L 969 4581 
L 1659 1434 
L 2497 4581 
L 3597 4581 
L 4400 1381 
L 5103 4581 
L 6034 4581 
L 4922 0 
L 3941 0 
L 3028 3425 
L 2119 0 
L 1116 0 
z
" transform="scale(0.015625)"/>
      <path id="Arial-BoldMT-6f" d="M 256 1706 
Q 256 2144 472 2553 
Q 688 2963 1083 3178 
Q 1478 3394 1966 3394 
Q 2719 3394 3200 2905 
Q 3681 2416 3681 1669 
Q 3681 916 3195 420 
Q 2709 -75 1972 -75 
Q 1516 -75 1102 131 
Q 688 338 472 736 
Q 256 1134 256 1706 
z
M 1156 1659 
Q 1156 1166 1390 903 
Q 1625 641 1969 641 
Q 2313 641 2545 903 
Q 2778 1166 2778 1666 
Q 2778 2153 2545 2415 
Q 2313 2678 1969 2678 
Q 1625 2678 1390 2415 
Q 1156 2153 1156 1659 
z
" transform="scale(0.015625)"/>
      <path id="Arial-BoldMT-77" d="M 1078 0 
L 28 3319 
L 881 3319 
L 1503 1144 
L 2075 3319 
L 2922 3319 
L 3475 1144 
L 4109 3319 
L 4975 3319 
L 3909 0 
L 3066 0 
L 2494 2134 
L 1931 0 
L 1078 0 
z
" transform="scale(0.015625)"/>
     </defs>
     <use xlink:href="#Arial-BoldMT-43"/>
     <use xlink:href="#Arial-BoldMT-72" transform="translate(72.216797 0)"/>
     <use xlink:href="#Arial-BoldMT-65" transform="translate(111.132812 0)"/>
     <use xlink:href="#Arial-BoldMT-61" transform="translate(166.748047 0)"/>
     <use xlink:href="#Arial-BoldMT-74" transform="translate(222.363281 0)"/>
     <use xlink:href="#Arial-BoldMT-69" transform="translate(255.664062 0)"/>
     <use xlink:href="#Arial-BoldMT-6e" transform="translate(283.447266 0)"/>
     <use xlink:href="#Arial-BoldMT-67" transform="translate(344.53125 0)"/>
     <use xlink:href="#Arial-BoldMT-20" transform="translate(405.615234 0)"/>
     <use xlink:href="#Arial-BoldMT-54" transform="translate(433.398438 0)"/>
     <use xlink:href="#Arial-BoldMT-72" transform="translate(488.982422 0)"/>
     <use xlink:href="#Arial-BoldMT-61" transform="translate(527.898438 0)"/>
     <use xlink:href="#Arial-BoldMT-69" transform="translate(583.513672 0)"/>
     <use xlink:href="#Arial-BoldMT-6e" transform="translate(611.296875 0)"/>
     <use xlink:href="#Arial-BoldMT-69" transform="translate(672.380859 0)"/>
     <use xlink:href="#Arial-BoldMT-6e" transform="translate(700.164062 0)"/>
     <use xlink:href="#Arial-BoldMT-67" transform="translate(761.248047 0)"/>
     <use xlink:href="#Arial-BoldMT-20" transform="translate(822.332031 0)"/>
     <use xlink:href="#Arial-BoldMT-44" transform="translate(850.115234 0)"/>
     <use xlink:href="#Arial-BoldMT-61" transform="translate(922.332031 0)"/>
     <use xlink:href="#Arial-BoldMT-74" transform="translate(977.947266 0)"/>
     <use xlink:href="#Arial-BoldMT-61" transform="translate(1011.248047 0)"/>
     <use xlink:href="#Arial-BoldMT-3a" transform="translate(1066.863281 0)"/>
     <use xlink:href="#Arial-BoldMT-20" transform="translate(1100.164062 0)"/>
     <use xlink:href="#Arial-BoldMT-53" transform="translate(1127.947266 0)"/>
     <use xlink:href="#Arial-BoldMT-6c" transform="translate(1194.646484 0)"/>
     <use xlink:href="#Arial-BoldMT-69" transform="translate(1222.429688 0)"/>
     <use xlink:href="#Arial-BoldMT-64" transform="translate(1250.212891 0)"/>
     <use xlink:href="#Arial-BoldMT-69" transform="translate(1311.296875 0)"/>
     <use xlink:href="#Arial-BoldMT-6e" transform="translate(1339.080078 0)"/>
     <use xlink:href="#Arial-BoldMT-67" transform="translate(1400.164062 0)"/>
     <use xlink:href="#Arial-BoldMT-20" transform="translate(1461.248047 0)"/>
     <use xlink:href="#Arial-BoldMT-57" transform="translate(1489.03125 0)"/>
     <use xlink:href="#Arial-BoldMT-69" transform="translate(1582.541016 0)"/>
     <use xlink:href="#Arial-BoldMT-6e" transform="translate(1610.324219 0)"/>
     <use xlink:href="#Arial-BoldMT-64" transform="translate(1671.408203 0)"/>
     <use xlink:href="#Arial-BoldMT-6f" transform="translate(1732.492188 0)"/>
     <use xlink:href="#Arial-BoldMT-77" transform="translate(1793.576172 0)"/>
    </g>
   </g>
   <g id="text_2">
    <!-- Text: -->
    <g transform="translate(49.32 111.96) scale(0.16 -0.16)">
     <defs>
      <path id="Arial-BoldMT-78" d="M 38 0 
L 1234 1709 
L 88 3319 
L 1159 3319 
L 1747 2406 
L 2366 3319 
L 3397 3319 
L 2272 1747 
L 3500 0 
L 2422 0 
L 1747 1028 
L 1066 0 
L 38 0 
z
" transform="scale(0.015625)"/>
     </defs>
     <use xlink:href="#Arial-BoldMT-54"/>
     <use xlink:href="#Arial-BoldMT-65" transform="translate(53.708984 0)"/>
     <use xlink:href="#Arial-BoldMT-78" transform="translate(109.324219 0)"/>
     <use xlink:href="#Arial-BoldMT-74" transform="translate(164.939453 0)"/>
     <use xlink:href="#Arial-BoldMT-3a" transform="translate(198.240234 0)"/>
    </g>
   </g>
   <g id="text_3">
    <!-- a -->
    <g style="fill: #ffffff" transform="translate(186.410969 111.96) scale(0.22 -0.22)">
     <use xlink:href="#Arial-BoldMT-61"/>
    </g>
   </g>
   <g id="text_4">
    <!-- a -->
    <g style="fill: #ffffff" transform="translate(270.650969 111.96) scale(0.22 -0.22)">
     <use xlink:href="#Arial-BoldMT-61"/>
    </g>
   </g>
   <g id="text_5">
    <!-- b -->
    <g style="fill: #ffffff" transform="translate(354.289406 111.96) scale(0.22 -0.22)">
     <defs>
      <path id="Arial-BoldMT-62" d="M 422 0 
L 422 4581 
L 1300 4581 
L 1300 2931 
Q 1706 3394 2263 3394 
Q 2869 3394 3266 2955 
Q 3663 2516 3663 1694 
Q 3663 844 3258 384 
Q 2853 -75 2275 -75 
Q 1991 -75 1714 67 
Q 1438 209 1238 488 
L 1238 0 
L 422 0 
z
M 1294 1731 
Q 1294 1216 1456 969 
Q 1684 619 2063 619 
Q 2353 619 2558 867 
Q 2763 1116 2763 1650 
Q 2763 2219 2556 2470 
Q 2350 2722 2028 2722 
Q 1713 2722 1503 2476 
Q 1294 2231 1294 1731 
z
" transform="scale(0.015625)"/>
     </defs>
     <use xlink:href="#Arial-BoldMT-62"/>
    </g>
   </g>
   <g id="text_6">
    <!-- i -->
    <g style="fill: #ffffff" transform="translate(442.192062 111.96) scale(0.22 -0.22)">
     <use xlink:href="#Arial-BoldMT-69"/>
    </g>
   </g>
   <g id="text_7">
    <!-- d -->
    <g style="fill: #ffffff" transform="translate(522.769406 111.96) scale(0.22 -0.22)">
     <use xlink:href="#Arial-BoldMT-64"/>
    </g>
   </g>
   <g id="text_8">
    <!-- Context (Input) -->
    <g style="fill: #06a77d" transform="translate(49.32 181.8) scale(0.14 -0.14)">
     <defs>
      <path id="Arial-BoldMT-28" d="M 1916 -1347 
L 1313 -1347 
Q 834 -625 584 153 
Q 334 931 334 1659 
Q 334 2563 644 3369 
Q 913 4069 1325 4659 
L 1925 4659 
Q 1497 3713 1336 3048 
Q 1175 2384 1175 1641 
Q 1175 1128 1270 590 
Q 1366 53 1531 -431 
Q 1641 -750 1916 -1347 
z
" transform="scale(0.015625)"/>
      <path id="Arial-BoldMT-49" d="M 438 0 
L 438 4581 
L 1363 4581 
L 1363 0 
L 438 0 
z
" transform="scale(0.015625)"/>
      <path id="Arial-BoldMT-70" d="M 434 3319 
L 1253 3319 
L 1253 2831 
Q 1413 3081 1684 3237 
Q 1956 3394 2288 3394 
Q 2866 3394 3269 2941 
Q 3672 2488 3672 1678 
Q 3672 847 3265 386 
Q 2859 -75 2281 -75 
Q 2006 -75 1782 34 
Q 1559 144 1313 409 
L 1313 -1263 
L 434 -1263 
L 434 3319 
z
M 1303 1716 
Q 1303 1156 1525 889 
Q 1747 622 2066 622 
Q 2372 622 2575 867 
Q 2778 1113 2778 1672 
Q 2778 2194 2568 2447 
Q 2359 2700 2050 2700 
Q 1728 2700 1515 2451 
Q 1303 2203 1303 1716 
z
" transform="scale(0.015625)"/>
      <path id="Arial-BoldMT-75" d="M 2644 0 
L 2644 497 
Q 2463 231 2167 78 
Q 1872 -75 1544 -75 
Q 1209 -75 943 72 
Q 678 219 559 484 
Q 441 750 441 1219 
L 441 3319 
L 1319 3319 
L 1319 1794 
Q 1319 1094 1367 936 
Q 1416 778 1544 686 
Q 1672 594 1869 594 
Q 2094 594 2272 717 
Q 2450 841 2515 1023 
Q 2581 1206 2581 1919 
L 2581 3319 
L 3459 3319 
L 3459 0 
L 2644 0 
z
" transform="scale(0.015625)"/>
      <path id="Arial-BoldMT-29" d="M 216 -1347 
Q 475 -791 581 -494 
Q 688 -197 778 190 
Q 869 578 912 926 
Q 956 1275 956 1641 
Q 956 2384 797 3048 
Q 638 3713 209 4659 
L 806 4659 
Q 1278 3988 1539 3234 
Q 1800 2481 1800 1706 
Q 1800 1053 1594 306 
Q 1359 -531 822 -1347 
L 216 -1347 
z
" transform="scale(0.015625)"/>
     </defs>
     <use xlink:href="#Arial-BoldMT-43"/>
     <use xlink:href="#Arial-BoldMT-6f" transform="translate(72.216797 0)"/>
     <use xlink:href="#Arial-BoldMT-6e" transform="translate(133.300781 0)"/>
     <use xlink:href="#Arial-BoldMT-74" transform="translate(194.384766 0)"/>
     <use xlink:href="#Arial-BoldMT-65" transform="translate(227.685547 0)"/>
     <use xlink:href="#Arial-BoldMT-78" transform="translate(283.300781 0)"/>
     <use xlink:href="#Arial-BoldMT-74" transform="translate(338.916016 0)"/>
     <use xlink:href="#Arial-BoldMT-20" transform="translate(372.216797 0)"/>
     <use xlink:href="#Arial-BoldMT-28" transform="translate(400 0)"/>
     <use xlink:href="#Arial-BoldMT-49" transform="translate(433.300781 0)"/>
     <use xlink:href="#Arial-BoldMT-6e" transform="translate(461.083984 0)"/>
     <use xlink:href="#Arial-BoldMT-70" transform="translate(522.167969 0)"/>
     <use xlink:href="#Arial-BoldMT-75" transform="translate(583.251953 0)"/>
     <use xlink:href="#Arial-BoldMT-74" transform="translate(644.335938 0)"/>
     <use xlink:href="#Arial-BoldMT-29" transform="translate(677.636719 0)"/>
    </g>
   </g>
   <g id="text_9">
    <!-- Target -->
    <g style="fill: #e63946" transform="translate(495.792 181.8) scale(0.14 -0.14)">
     <use xlink:href="#Arial-BoldMT-54"/>
     <use xlink:href="#Arial-BoldMT-61" transform="translate(53.708984 0)"/>
     <use xlink:href="#Arial-BoldMT-72" transform="translate(109.324219 0)"/>
     <use xlink:href="#Arial-BoldMT-67" transform="translate(148.240234 0)"/>
     <use xlink:href="#Arial-BoldMT-65" transform="translate(209.324219 0)"/>
     <use xlink:href="#Arial-BoldMT-74" transform="translate(264.939453 0)"/>
    </g>
   </g>
   <g id="text_10">
    <!-- . -->
    <g style="fill: #ffffff" transform="translate(189.749875 230.688) scale(0.2 -0.2)">
     <defs>
      <path id="Arial-BoldMT-2e" d="M 459 0 
L 459 878 
L 1338 878 
L 1338 0 
L 459 0 
z
" transform="scale(0.015625)"/>
     </defs>
     <use xlink:href="#Arial-BoldMT-2e"/>
    </g>
   </g>
   <g id="text_11">
    <!-- . -->
    <g style="fill: #ffffff" transform="translate(273.989875 230.688) scale(0.2 -0.2)">
     <use xlink:href="#Arial-BoldMT-2e"/>
    </g>
   </g>
   <g id="text_12">
    <!-- . -->
    <g style="fill: #ffffff" transform="translate(358.229875 230.688) scale(0.2 -0.2)">
     <use xlink:href="#Arial-BoldMT-2e"/>
    </g>
   </g>
   <g id="patch_27">
    <path d="M 413.549512 230.688 
Q 441.03506 230.688 465.166507 230.688 
" style="fill: none; stroke: #000000; stroke-width: 3; stroke-linecap: round"/>
    <path d="M 461.166507 228.688 
L 465.166507 230.688 
L 461.166507 232.688 
" style="fill: none; stroke: #000000; stroke-width: 3; stroke-linecap: round"/>
   </g>
   <g id="text_13">
    <!-- a -->
    <g style="fill: #ffffff" transform="translate(523.927063 230.688) scale(0.2 -0.2)">
     <use xlink:href="#Arial-BoldMT-61"/>
    </g>
   </g>
   <g id="text_14">
    <!-- ← Predict! -->
    <g style="fill: #808080" transform="translate(596.88 234.317062) scale(0.14 -0.14)">
     <defs>
      <path id="Arial-BoldMT-2190" d="M 1538 2738 
L 1775 2738 
Q 1591 2369 1497 2220 
Q 1403 2072 1166 1772 
L 6150 1772 
L 6150 1456 
L 1166 1456 
Q 1491 1119 1784 491 
L 1541 491 
Q 1138 941 847 1173 
Q 556 1406 247 1556 
L 247 1697 
Q 519 1813 822 2050 
Q 1125 2288 1538 2738 
z
" transform="scale(0.015625)"/>
      <path id="Arial-BoldMT-50" d="M 466 0 
L 466 4581 
L 1950 4581 
Q 2794 4581 3050 4513 
Q 3444 4409 3709 4064 
Q 3975 3719 3975 3172 
Q 3975 2750 3822 2462 
Q 3669 2175 3433 2011 
Q 3197 1847 2953 1794 
Q 2622 1728 1994 1728 
L 1391 1728 
L 1391 0 
L 466 0 
z
M 1391 3806 
L 1391 2506 
L 1897 2506 
Q 2444 2506 2628 2578 
Q 2813 2650 2917 2803 
Q 3022 2956 3022 3159 
Q 3022 3409 2875 3571 
Q 2728 3734 2503 3775 
Q 2338 3806 1838 3806 
L 1391 3806 
z
" transform="scale(0.015625)"/>
      <path id="Arial-BoldMT-63" d="M 3353 2338 
L 2488 2181 
Q 2444 2441 2289 2572 
Q 2134 2703 1888 2703 
Q 1559 2703 1364 2476 
Q 1169 2250 1169 1719 
Q 1169 1128 1367 884 
Q 1566 641 1900 641 
Q 2150 641 2309 783 
Q 2469 925 2534 1272 
L 3397 1125 
Q 3263 531 2881 228 
Q 2500 -75 1859 -75 
Q 1131 -75 698 384 
Q 266 844 266 1656 
Q 266 2478 700 2936 
Q 1134 3394 1875 3394 
Q 2481 3394 2839 3133 
Q 3197 2872 3353 2338 
z
" transform="scale(0.015625)"/>
      <path id="Arial-BoldMT-21" d="M 803 1181 
L 575 3506 
L 575 4581 
L 1525 4581 
L 1525 3506 
L 1300 1181 
L 803 1181 
z
M 613 0 
L 613 878 
L 1491 878 
L 1491 0 
L 613 0 
z
" transform="scale(0.015625)"/>
     </defs>
     <use xlink:href="#Arial-BoldMT-2190"/>
     <use xlink:href="#Arial-BoldMT-20" transform="translate(100 0)"/>
     <use xlink:href="#Arial-BoldMT-50" transform="translate(127.783203 0)"/>
     <use xlink:href="#Arial-BoldMT-72" transform="translate(194.482422 0)"/>
     <use xlink:href="#Arial-BoldMT-65" transform="translate(233.398438 0)"/>
     <use xlink:href="#Arial-BoldMT-64" transform="translate(289.013672 0)"/>
     <use xlink:href="#Arial-BoldMT-69" transform="translate(350.097656 0)"/>
     <use xlink:href="#Arial-BoldMT-63" transform="translate(377.880859 0)"/>
     <use xlink:href="#Arial-BoldMT-74" transform="translate(433.496094 0)"/>
     <use xlink:href="#Arial-BoldMT-21" transform="translate(466.796875 0)"/>
    </g>
   </g>
   <g id="text_15">
    <!-- . -->
    <g style="fill: #ffffff" transform="translate(189.749875 328.464) scale(0.2 -0.2)">
     <use xlink:href="#Arial-BoldMT-2e"/>
    </g>
   </g>
   <g id="text_16">
    <!-- . -->
    <g style="fill: #ffffff" transform="translate(273.989875 328.464) scale(0.2 -0.2)">
     <use xlink:href="#Arial-BoldMT-2e"/>
    </g>
   </g>
   <g id="text_17">
    <!-- a -->
    <g style="fill: #ffffff" transform="translate(355.447062 328.464) scale(0.2 -0.2)">
     <use xlink:href="#Arial-BoldMT-61"/>
    </g>
   </g>
   <g id="patch_28">
    <path d="M 413.549512 328.464 
Q 441.03506 328.464 465.166507 328.464 
" style="fill: none; stroke: #000000; stroke-width: 3; stroke-linecap: round"/>
    <path d="M 461.166507 326.464 
L 465.166507 328.464 
L 461.166507 330.464 
" style="fill: none; stroke: #000000; stroke-width: 3; stroke-linecap: round"/>
   </g>
   <g id="text_18">
    <!-- a -->
    <g style="fill: #ffffff" transform="translate(523.927063 328.464) scale(0.2 -0.2)">
     <use xlink:href="#Arial-BoldMT-61"/>
    </g>
   </g>
   <g id="text_19">
    <!-- ← Predict! -->
    <g style="fill: #808080" transform="translate(596.88 332.093062) scale(0.14 -0.14)">
     <use xlink:href="#Arial-BoldMT-2190"/>
     <use xlink:href="#Arial-BoldMT-20" transform="translate(100 0)"/>
     <use xlink:href="#Arial-BoldMT-50" transform="translate(127.783203 0)"/>
     <use xlink:href="#Arial-BoldMT-72" transform="translate(194.482422 0)"/>
     <use xlink:href="#Arial-BoldMT-65" transform="translate(233.398438 0)"/>
     <use xlink:href="#Arial-BoldMT-64" transform="translate(289.013672 0)"/>
     <use xlink:href="#Arial-BoldMT-69" transform="translate(350.097656 0)"/>
     <use xlink:href="#Arial-BoldMT-63" transform="translate(377.880859 0)"/>
     <use xlink:href="#Arial-BoldMT-74" transform="translate(433.496094 0)"/>
     <use xlink:href="#Arial-BoldMT-21" transform="translate(466.796875 0)"/>
    </g>
   </g>
   <g id="text_20">
    <!-- . -->
    <g style="fill: #ffffff" transform="translate(189.749875 426.24) scale(0.2 -0.2)">
     <use xlink:href="#Arial-BoldMT-2e"/>
    </g>
   </g>
   <g id="text_21">
    <!-- a -->
    <g style="fill: #ffffff" transform="translate(271.207062 426.24) scale(0.2 -0.2)">
     <use xlink:href="#Arial-BoldMT-61"/>
    </g>
   </g>
   <g id="text_22">
    <!-- a -->
    <g style="fill: #ffffff" transform="translate(355.447062 426.24) scale(0.2 -0.2)">
     <use xlink:href="#Arial-BoldMT-61"/>
    </g>
   </g>
   <g id="patch_29">
    <path d="M 413.549512 426.24 
Q 441.03506 426.24 465.166507 426.24 
" style="fill: none; stroke: #000000; stroke-width: 3; stroke-linecap: round"/>
    <path d="M 461.166507 424.24 
L 465.166507 426.24 
L 461.166507 428.24 
" style="fill: none; stroke: #000000; stroke-width: 3; stroke-linecap: round"/>
   </g>
   <g id="text_23">
    <!-- b -->
    <g style="fill: #ffffff" transform="translate(523.380188 426.24) scale(0.2 -0.2)">
     <use xlink:href="#Arial-BoldMT-62"/>
    </g>
   </g>
   <g id="text_24">
    <!-- ← Predict! -->
    <g style="fill: #808080" transform="translate(596.88 429.869062) scale(0.14 -0.14)">
     <use xlink:href="#Arial-BoldMT-2190"/>
     <use xlink:href="#Arial-BoldMT-20" transform="translate(100 0)"/>
     <use xlink:href="#Arial-BoldMT-50" transform="translate(127.783203 0)"/>
     <use xlink:href="#Arial-BoldMT-72" transform="translate(194.482422 0)"/>
     <use xlink:href="#Arial-BoldMT-65" transform="translate(233.398438 0)"/>
     <use xlink:href="#Arial-BoldMT-64" transform="translate(289.013672 0)"/>
     <use xlink:href="#Arial-BoldMT-69" transform="translate(350.097656 0)"/>
     <use xlink:href="#Arial-BoldMT-63" transform="translate(377.880859 0)"/>
     <use xlink:href="#Arial-BoldMT-74" transform="translate(433.496094 0)"/>
     <use xlink:href="#Arial-BoldMT-21" transform="translate(466.796875 0)"/>
    </g>
   </g>
   <g id="text_25">
    <!-- a -->
    <g style="fill: #ffffff" transform="translate(186.967062 524.016) scale(0.2 -0.2)">
     <use xlink:href="#Arial-BoldMT-61"/>
    </g>
   </g>
   <g id="text_26">
    <!-- a -->
    <g style="fill: #ffffff" transform="translate(271.207062 524.016) scale(0.2 -0.2)">
     <use xlink:href="#Arial-BoldMT-61"/>
    </g>
   </g>
   <g id="text_27">
    <!-- b -->
    <g style="fill: #ffffff" transform="translate(354.900187 524.016) scale(0.2 -0.2)">
     <use xlink:href="#Arial-BoldMT-62"/>
    </g>
   </g>
   <g id="patch_30">
    <path d="M 413.549512 524.016 
Q 441.03506 524.016 465.166507 524.016 
" style="fill: none; stroke: #000000; stroke-width: 3; stroke-linecap: round"/>
    <path d="M 461.166507 522.016 
L 465.166507 524.016 
L 461.166507 526.016 
" style="fill: none; stroke: #000000; stroke-width: 3; stroke-linecap: round"/>
   </g>
   <g id="text_28">
    <!-- i -->
    <g style="fill: #ffffff" transform="translate(526.709875 524.016) scale(0.2 -0.2)">
     <use xlink:href="#Arial-BoldMT-69"/>
    </g>
   </g>
   <g id="text_29">
    <!-- ← Predict! -->
    <g style="fill: #808080" transform="translate(596.88 527.645062) scale(0.14 -0.14)">
     <use xlink:href="#Arial-BoldMT-2190"/>
     <use xlink:href="#Arial-BoldMT-20" transform="translate(100 0)"/>
     <use xlink:href="#Arial-BoldMT-50" transform="translate(127.783203 0)"/>
     <use xlink:href="#Arial-BoldMT-72" transform="translate(194.482422 0)"/>
     <use xlink:href="#Arial-BoldMT-65" transform="translate(233.398438 0)"/>
     <use xlink:href="#Arial-BoldMT-64" transform="translate(289.013672 0)"/>
     <use xlink:href="#Arial-BoldMT-69" transform="translate(350.097656 0)"/>
     <use xlink:href="#Arial-BoldMT-63" transform="translate(377.880859 0)"/>
     <use xlink:href="#Arial-BoldMT-74" transform="translate(433.496094 0)"/>
     <use xlink:href="#Arial-BoldMT-21" transform="translate(466.796875 0)"/>
    </g>
   </g>
   <g id="text_30">
    <!-- a -->
    <g style="fill: #ffffff" transform="translate(186.967062 621.792) scale(0.2 -0.2)">
     <use xlink:href="#Arial-BoldMT-61"/>
    </g>
   </g>
   <g id="text_31">
    <!-- b -->
    <g style="fill: #ffffff" transform="translate(270.660187 621.792) scale(0.2 -0.2)">
     <use xlink:href="#Arial-BoldMT-62"/>
    </g>
   </g>
   <g id="text_32">
    <!-- i -->
    <g style="fill: #ffffff" transform="translate(358.229875 621.792) scale(0.2 -0.2)">
     <use xlink:href="#Arial-BoldMT-69"/>
    </g>
   </g>
   <g id="patch_31">
    <path d="M 413.549512 621.792 
Q 441.03506 621.792 465.166507 621.792 
" style="fill: none; stroke: #000000; stroke-width: 3; stroke-linecap: round"/>
    <path d="M 461.166507 619.792 
L 465.166507 621.792 
L 461.166507 623.792 
" style="fill: none; stroke: #000000; stroke-width: 3; stroke-linecap: round"/>
   </g>
   <g id="text_33">
    <!-- d -->
    <g style="fill: #ffffff" transform="translate(523.380188 621.792) scale(0.2 -0.2)">
     <use xlink:href="#Arial-BoldMT-64"/>
    </g>
   </g>
   <g id="text_34">
    <!-- ← Predict! -->
    <g style="fill: #808080" transform="translate(596.88 625.421062) scale(0.14 -0.14)">
     <use xlink:href="#Arial-BoldMT-2190"/>
     <use xlink:href="#Arial-BoldMT-20" transform="translate(100 0)"/>
     <use xlink:href="#Arial-BoldMT-50" transform="translate(127.783203 0)"/>
     <use xlink:href="#Arial-BoldMT-72" transform="translate(194.482422 0)"/>
     <use xlink:href="#Arial-BoldMT-65" transform="translate(233.398438 0)"/>
     <use xlink:href="#Arial-BoldMT-64" transform="translate(289.013672 0)"/>
     <use xlink:href="#Arial-BoldMT-69" transform="translate(350.097656 0)"/>
     <use xlink:href="#Arial-BoldMT-63" transform="translate(377.880859 0)"/>
     <use xlink:href="#Arial-BoldMT-74" transform="translate(433.496094 0)"/>
     <use xlink:href="#Arial-BoldMT-21" transform="translate(466.796875 0)"/>
    </g>
   </g>
  </g>
 </g>
 <defs>
  <clipPath id="p6225bf63b9">
   <rect x="7.2" y="7.2" width="842.4" height="698.4"/>
  </clipPath>
 </defs>
</svg>
