<?xml version="1.0" encoding="utf-8" standalone="no"?>
<!DOCTYPE svg PUBLIC "-//W3C//DTD SVG 1.1//EN"
  "http://www.w3.org/Graphics/SVG/1.1/DTD/svg11.dtd">
<svg xmlns:xlink="http://www.w3.org/1999/xlink" width="1000.8pt" height="568.8pt" viewBox="0 0 1000.8 568.8" xmlns="http://www.w3.org/2000/svg" version="1.1">
 <metadata>
  <rdf:RDF xmlns:dc="http://purl.org/dc/elements/1.1/" xmlns:cc="http://creativecommons.org/ns#" xmlns:rdf="http://www.w3.org/1999/02/22-rdf-syntax-ns#">
   <cc:Work>
    <dc:type rdf:resource="http://purl.org/dc/dcmitype/StillImage"/>
    <dc:date>2025-12-29T09:15:42.295118</dc:date>
    <dc:format>image/svg+xml</dc:format>
    <dc:creator>
     <cc:Agent>
      <dc:title>Matplotlib v3.10.1, https://matplotlib.org/</dc:title>
     </cc:Agent>
    </dc:creator>
   </cc:Work>
  </rdf:RDF>
 </metadata>
 <defs>
  <style type="text/css">*{stroke-linejoin: round; stroke-linecap: butt}</style>
 </defs>
 <g id="figure_1">
  <g id="patch_1">
   <path d="M 0 568.8 
L 1000.8 568.8 
L 1000.8 0 
L 0 0 
z
" style="fill: #f8f9fa"/>
  </g>
  <g id="axes_1">
   <g id="patch_2">
    <path d="M 155.16 134.712 
L 214.344 134.712 
Q 224.208 134.712 224.208 129.168 
L 224.208 84.816 
Q 224.208 79.272 214.344 79.272 
L 155.16 79.272 
Q 145.296 79.272 145.296 84.816 
L 145.296 129.168 
Q 145.296 134.712 155.16 134.712 
z
" clip-path="url(#p5c0775252c)" style="fill: #2e86ab; opacity: 0.7; stroke: #000000; stroke-linejoin: miter"/>
   </g>
   <g id="patch_3">
    <path d="M 224.208 134.712 
L 283.392 134.712 
Q 293.256 134.712 293.256 129.168 
L 293.256 84.816 
Q 293.256 79.272 283.392 79.272 
L 224.208 79.272 
Q 214.344 79.272 214.344 84.816 
L 214.344 129.168 
Q 214.344 134.712 224.208 134.712 
z
" clip-path="url(#p5c0775252c)" style="fill: #2e86ab; opacity: 0.7; stroke: #000000; stroke-linejoin: miter"/>
   </g>
   <g id="patch_4">
    <path d="M 293.256 134.712 
L 352.44 134.712 
Q 362.304 134.712 362.304 129.168 
L 362.304 84.816 
Q 362.304 79.272 352.44 79.272 
L 293.256 79.272 
Q 283.392 79.272 283.392 84.816 
L 283.392 129.168 
Q 283.392 134.712 293.256 134.712 
z
" clip-path="url(#p5c0775252c)" style="fill: #2e86ab; opacity: 0.7; stroke: #000000; stroke-linejoin: miter"/>
   </g>
   <g id="patch_5">
    <path d="M 362.304 134.712 
L 421.488 134.712 
Q 431.352 134.712 431.352 129.168 
L 431.352 84.816 
Q 431.352 79.272 421.488 79.272 
L 362.304 79.272 
Q 352.44 79.272 352.44 84.816 
L 352.44 129.168 
Q 352.44 134.712 362.304 134.712 
z
" clip-path="url(#p5c0775252c)" style="fill: #2e86ab; opacity: 0.7; stroke: #000000; stroke-linejoin: miter"/>
   </g>
   <g id="patch_6">
    <path d="M 431.352 134.712 
L 490.536 134.712 
Q 500.4 134.712 500.4 129.168 
L 500.4 84.816 
Q 500.4 79.272 490.536 79.272 
L 431.352 79.272 
Q 421.488 79.272 421.488 84.816 
L 421.488 129.168 
Q 421.488 134.712 431.352 134.712 
z
" clip-path="url(#p5c0775252c)" style="fill: #2e86ab; opacity: 0.7; stroke: #000000; stroke-linejoin: miter"/>
   </g>
   <g id="patch_7">
    <path d="M 155.16 228.96 
L 214.344 228.96 
Q 224.208 228.96 224.208 223.416 
L 224.208 179.064 
Q 224.208 173.52 214.344 173.52 
L 155.16 173.52 
Q 145.296 173.52 145.296 179.064 
L 145.296 223.416 
Q 145.296 228.96 155.16 228.96 
z
" clip-path="url(#p5c0775252c)" style="fill: #06a77d; opacity: 0.6; stroke: #000000; stroke-linejoin: miter"/>
   </g>
   <g id="patch_8">
    <path d="M 224.208 228.96 
L 283.392 228.96 
Q 293.256 228.96 293.256 223.416 
L 293.256 179.064 
Q 293.256 173.52 283.392 173.52 
L 224.208 173.52 
Q 214.344 173.52 214.344 179.064 
L 214.344 223.416 
Q 214.344 228.96 224.208 228.96 
z
" clip-path="url(#p5c0775252c)" style="fill: #06a77d; opacity: 0.6; stroke: #000000; stroke-linejoin: miter"/>
   </g>
   <g id="patch_9">
    <path d="M 293.256 228.96 
L 352.44 228.96 
Q 362.304 228.96 362.304 223.416 
L 362.304 179.064 
Q 362.304 173.52 352.44 173.52 
L 293.256 173.52 
Q 283.392 173.52 283.392 179.064 
L 283.392 223.416 
Q 283.392 228.96 293.256 228.96 
z
" clip-path="url(#p5c0775252c)" style="fill: #06a77d; opacity: 0.6; stroke: #000000; stroke-linejoin: miter"/>
   </g>
   <g id="patch_10">
    <path d="M 549.72 228.96 
L 608.904 228.96 
Q 618.768 228.96 618.768 223.416 
L 618.768 179.064 
Q 618.768 173.52 608.904 173.52 
L 549.72 173.52 
Q 539.856 173.52 539.856 179.064 
L 539.856 223.416 
Q 539.856 228.96 549.72 228.96 
z
" clip-path="url(#p5c0775252c)" style="fill: #e63946; opacity: 0.7; stroke: #000000; stroke-linejoin: miter"/>
   </g>
   <g id="patch_11">
    <path d="M 155.16 301.032 
L 214.344 301.032 
Q 224.208 301.032 224.208 295.488 
L 224.208 251.136 
Q 224.208 245.592 214.344 245.592 
L 155.16 245.592 
Q 145.296 245.592 145.296 251.136 
L 145.296 295.488 
Q 145.296 301.032 155.16 301.032 
z
" clip-path="url(#p5c0775252c)" style="fill: #06a77d; opacity: 0.6; stroke: #000000; stroke-linejoin: miter"/>
   </g>
   <g id="patch_12">
    <path d="M 224.208 301.032 
L 283.392 301.032 
Q 293.256 301.032 293.256 295.488 
L 293.256 251.136 
Q 293.256 245.592 283.392 245.592 
L 224.208 245.592 
Q 214.344 245.592 214.344 251.136 
L 214.344 295.488 
Q 214.344 301.032 224.208 301.032 
z
" clip-path="url(#p5c0775252c)" style="fill: #06a77d; opacity: 0.6; stroke: #000000; stroke-linejoin: miter"/>
   </g>
   <g id="patch_13">
    <path d="M 293.256 301.032 
L 352.44 301.032 
Q 362.304 301.032 362.304 295.488 
L 362.304 251.136 
Q 362.304 245.592 352.44 245.592 
L 293.256 245.592 
Q 283.392 245.592 283.392 251.136 
L 283.392 295.488 
Q 283.392 301.032 293.256 301.032 
z
" clip-path="url(#p5c0775252c)" style="fill: #06a77d; opacity: 0.6; stroke: #000000; stroke-linejoin: miter"/>
   </g>
   <g id="patch_14">
    <path d="M 549.72 301.032 
L 608.904 301.032 
Q 618.768 301.032 618.768 295.488 
L 618.768 251.136 
Q 618.768 245.592 608.904 245.592 
L 549.72 245.592 
Q 539.856 245.592 539.856 251.136 
L 539.856 295.488 
Q 539.856 301.032 549.72 301.032 
z
" clip-path="url(#p5c0775252c)" style="fill: #e63946; opacity: 0.7; stroke: #000000; stroke-linejoin: miter"/>
   </g>
   <g id="patch_15">
    <path d="M 155.16 373.104 
L 214.344 373.104 
Q 224.208 373.104 224.208 367.56 
L 224.208 323.208 
Q 224.208 317.664 214.344 317.664 
L 155.16 317.664 
Q 145.296 317.664 145.296 323.208 
L 145.296 367.56 
Q 145.296 373.104 155.16 373.104 
z
" clip-path="url(#p5c0775252c)" style="fill: #06a77d; opacity: 0.6; stroke: #000000; stroke-linejoin: miter"/>
   </g>
   <g id="patch_16">
    <path d="M 224.208 373.104 
L 283.392 373.104 
Q 293.256 373.104 293.256 367.56 
L 293.256 323.208 
Q 293.256 317.664 283.392 317.664 
L 224.208 317.664 
Q 214.344 317.664 214.344 323.208 
L 214.344 367.56 
Q 214.344 373.104 224.208 373.104 
z
" clip-path="url(#p5c0775252c)" style="fill: #06a77d; opacity: 0.6; stroke: #000000; stroke-linejoin: miter"/>
   </g>
   <g id="patch_17">
    <path d="M 293.256 373.104 
L 352.44 373.104 
Q 362.304 373.104 362.304 367.56 
L 362.304 323.208 
Q 362.304 317.664 352.44 317.664 
L 293.256 317.664 
Q 283.392 317.664 283.392 323.208 
L 283.392 367.56 
Q 283.392 373.104 293.256 373.104 
z
" clip-path="url(#p5c0775252c)" style="fill: #06a77d; opacity: 0.6; stroke: #000000; stroke-linejoin: miter"/>
   </g>
   <g id="patch_18">
    <path d="M 549.72 373.104 
L 608.904 373.104 
Q 618.768 373.104 618.768 367.56 
L 618.768 323.208 
Q 618.768 317.664 608.904 317.664 
L 549.72 317.664 
Q 539.856 317.664 539.856 323.208 
L 539.856 367.56 
Q 539.856 373.104 549.72 373.104 
z
" clip-path="url(#p5c0775252c)" style="fill: #e63946; opacity: 0.7; stroke: #000000; stroke-linejoin: miter"/>
   </g>
   <g id="patch_19">
    <path d="M 155.16 445.176 
L 214.344 445.176 
Q 224.208 445.176 224.208 439.632 
L 224.208 395.28 
Q 224.208 389.736 214.344 389.736 
L 155.16 389.736 
Q 145.296 389.736 145.296 395.28 
L 145.296 439.632 
Q 145.296 445.176 155.16 445.176 
z
" clip-path="url(#p5c0775252c)" style="fill: #06a77d; opacity: 0.6; stroke: #000000; stroke-linejoin: miter"/>
   </g>
   <g id="patch_20">
    <path d="M 224.208 445.176 
L 283.392 445.176 
Q 293.256 445.176 293.256 439.632 
L 293.256 395.28 
Q 293.256 389.736 283.392 389.736 
L 224.208 389.736 
Q 214.344 389.736 214.344 395.28 
L 214.344 439.632 
Q 214.344 445.176 224.208 445.176 
z
" clip-path="url(#p5c0775252c)" style="fill: #06a77d; opacity: 0.6; stroke: #000000; stroke-linejoin: miter"/>
   </g>
   <g id="patch_21">
    <path d="M 293.256 445.176 
L 352.44 445.176 
Q 362.304 445.176 362.304 439.632 
L 362.304 395.28 
Q 362.304 389.736 352.44 389.736 
L 293.256 389.736 
Q 283.392 389.736 283.392 395.28 
L 283.392 439.632 
Q 283.392 445.176 293.256 445.176 
z
" clip-path="url(#p5c0775252c)" style="fill: #06a77d; opacity: 0.6; stroke: #000000; stroke-linejoin: miter"/>
   </g>
   <g id="patch_22">
    <path d="M 549.72 445.176 
L 608.904 445.176 
Q 618.768 445.176 618.768 439.632 
L 618.768 395.28 
Q 618.768 389.736 608.904 389.736 
L 549.72 389.736 
Q 539.856 389.736 539.856 395.28 
L 539.856 439.632 
Q 539.856 445.176 549.72 445.176 
z
" clip-path="url(#p5c0775252c)" style="fill: #e63946; opacity: 0.7; stroke: #000000; stroke-linejoin: miter"/>
   </g>
   <g id="patch_23">
    <path d="M 155.16 517.248 
L 214.344 517.248 
Q 224.208 517.248 224.208 511.704 
L 224.208 467.352 
Q 224.208 461.808 214.344 461.808 
L 155.16 461.808 
Q 145.296 461.808 145.296 467.352 
L 145.296 511.704 
Q 145.296 517.248 155.16 517.248 
z
" clip-path="url(#p5c0775252c)" style="fill: #06a77d; opacity: 0.6; stroke: #000000; stroke-linejoin: miter"/>
   </g>
   <g id="patch_24">
    <path d="M 224.208 517.248 
L 283.392 517.248 
Q 293.256 517.248 293.256 511.704 
L 293.256 467.352 
Q 293.256 461.808 283.392 461.808 
L 224.208 461.808 
Q 214.344 461.808 214.344 467.352 
L 214.344 511.704 
Q 214.344 517.248 224.208 517.248 
z
" clip-path="url(#p5c0775252c)" style="fill: #06a77d; opacity: 0.6; stroke: #000000; stroke-linejoin: miter"/>
   </g>
   <g id="patch_25">
    <path d="M 293.256 517.248 
L 352.44 517.248 
Q 362.304 517.248 362.304 511.704 
L 362.304 467.352 
Q 362.304 461.808 352.44 461.808 
L 293.256 461.808 
Q 283.392 461.808 283.392 467.352 
L 283.392 511.704 
Q 283.392 517.248 293.256 517.248 
z
" clip-path="url(#p5c0775252c)" style="fill: #06a77d; opacity: 0.6; stroke: #000000; stroke-linejoin: miter"/>
   </g>
   <g id="patch_26">
    <path d="M 549.72 517.248 
L 608.904 517.248 
Q 618.768 517.248 618.768 511.704 
L 618.768 467.352 
Q 618.768 461.808 608.904 461.808 
L 549.72 461.808 
Q 539.856 461.808 539.856 467.352 
L 539.856 511.704 
Q 539.856 517.248 549.72 517.248 
z
" clip-path="url(#p5c0775252c)" style="fill: #e63946; opacity: 0.7; stroke: #000000; stroke-linejoin: miter"/>
   </g>
   <g id="patch_27">
    <path d="M 105.84 561.6 
L 894.96 561.6 
Q 914.688 561.6 914.688 550.512 
L 914.688 517.248 
Q 914.688 506.16 894.96 506.16 
L 105.84 506.16 
Q 86.112 506.16 86.112 517.248 
L 86.112 550.512 
Q 86.112 561.6 105.84 561.6 
z
" clip-path="url(#p5c0775252c)" style="fill: #fff3e0; stroke: #f6ae2d; stroke-width: 2; stroke-linejoin: miter"/>
   </g>
   <g id="text_1">
    <!-- Creating Training Data: Sliding Window -->
    <g transform="translate(331.9875 34.92) scale(0.18 -0.18)">
     <defs>
      <path id="Arial-BoldMT-43" d="M 3397 1684 
L 4294 1400 
Q 4088 650 3608 286 
Q 3128 -78 2391 -78 
Q 1478 -78 890 545 
Q 303 1169 303 2250 
Q 303 3394 893 4026 
Q 1484 4659 2447 4659 
Q 3288 4659 3813 4163 
Q 4125 3869 4281 3319 
L 3366 3100 
Q 3284 3456 3026 3662 
Q 2769 3869 2400 3869 
Q 1891 3869 1573 3503 
Q 1256 3138 1256 2319 
Q 1256 1450 1568 1081 
Q 1881 713 2381 713 
Q 2750 713 3015 947 
Q 3281 1181 3397 1684 
z
" transform="scale(0.015625)"/>
      <path id="Arial-BoldMT-72" d="M 1300 0 
L 422 0 
L 422 3319 
L 1238 3319 
L 1238 2847 
Q 1447 3181 1614 3287 
Q 1781 3394 1994 3394 
Q 2294 3394 2572 3228 
L 2300 2463 
Q 2078 2606 1888 2606 
Q 1703 2606 1575 2504 
Q 1447 2403 1373 2137 
Q 1300 1872 1300 1025 
L 1300 0 
z
" transform="scale(0.015625)"/>
      <path id="Arial-BoldMT-65" d="M 2381 1056 
L 3256 909 
Q 3088 428 2723 176 
Q 2359 -75 1813 -75 
Q 947 -75 531 491 
Q 203 944 203 1634 
Q 203 2459 634 2926 
Q 1066 3394 1725 3394 
Q 2466 3394 2894 2905 
Q 3322 2416 3303 1406 
L 1103 1406 
Q 1113 1016 1316 798 
Q 1519 581 1822 581 
Q 2028 581 2168 693 
Q 2309 806 2381 1056 
z
M 2431 1944 
Q 2422 2325 2234 2523 
Q 2047 2722 1778 2722 
Q 1491 2722 1303 2513 
Q 1116 2303 1119 1944 
L 2431 1944 
z
" transform="scale(0.015625)"/>
      <path id="Arial-BoldMT-61" d="M 1116 2306 
L 319 2450 
Q 453 2931 781 3162 
Q 1109 3394 1756 3394 
Q 2344 3394 2631 3255 
Q 2919 3116 3036 2902 
Q 3153 2688 3153 2116 
L 3144 1091 
Q 3144 653 3186 445 
Q 3228 238 3344 0 
L 2475 0 
Q 2441 88 2391 259 
Q 2369 338 2359 363 
Q 2134 144 1878 34 
Q 1622 -75 1331 -75 
Q 819 -75 523 203 
Q 228 481 228 906 
Q 228 1188 362 1408 
Q 497 1628 739 1745 
Q 981 1863 1438 1950 
Q 2053 2066 2291 2166 
L 2291 2253 
Q 2291 2506 2166 2614 
Q 2041 2722 1694 2722 
Q 1459 2722 1328 2630 
Q 1197 2538 1116 2306 
z
M 2291 1594 
Q 2122 1538 1756 1459 
Q 1391 1381 1278 1306 
Q 1106 1184 1106 997 
Q 1106 813 1243 678 
Q 1381 544 1594 544 
Q 1831 544 2047 700 
Q 2206 819 2256 991 
Q 2291 1103 2291 1419 
L 2291 1594 
z
" transform="scale(0.015625)"/>
      <path id="Arial-BoldMT-74" d="M 1981 3319 
L 1981 2619 
L 1381 2619 
L 1381 1281 
Q 1381 875 1398 808 
Q 1416 741 1477 697 
Q 1538 653 1625 653 
Q 1747 653 1978 738 
L 2053 56 
Q 1747 -75 1359 -75 
Q 1122 -75 931 4 
Q 741 84 652 211 
Q 563 338 528 553 
Q 500 706 500 1172 
L 500 2619 
L 97 2619 
L 97 3319 
L 500 3319 
L 500 3978 
L 1381 4491 
L 1381 3319 
L 1981 3319 
z
" transform="scale(0.015625)"/>
      <path id="Arial-BoldMT-69" d="M 459 3769 
L 459 4581 
L 1338 4581 
L 1338 3769 
L 459 3769 
z
M 459 0 
L 459 3319 
L 1338 3319 
L 1338 0 
L 459 0 
z
" transform="scale(0.015625)"/>
      <path id="Arial-BoldMT-6e" d="M 3478 0 
L 2600 0 
L 2600 1694 
Q 2600 2231 2544 2389 
Q 2488 2547 2361 2634 
Q 2234 2722 2056 2722 
Q 1828 2722 1647 2597 
Q 1466 2472 1398 2265 
Q 1331 2059 1331 1503 
L 1331 0 
L 453 0 
L 453 3319 
L 1269 3319 
L 1269 2831 
Q 1703 3394 2363 3394 
Q 2653 3394 2893 3289 
Q 3134 3184 3257 3021 
Q 3381 2859 3429 2653 
Q 3478 2447 3478 2063 
L 3478 0 
z
" transform="scale(0.015625)"/>
      <path id="Arial-BoldMT-67" d="M 378 -219 
L 1381 -341 
Q 1406 -516 1497 -581 
Q 1622 -675 1891 -675 
Q 2234 -675 2406 -572 
Q 2522 -503 2581 -350 
Q 2622 -241 2622 53 
L 2622 538 
Q 2228 0 1628 0 
Q 959 0 569 566 
Q 263 1013 263 1678 
Q 263 2513 664 2953 
Q 1066 3394 1663 3394 
Q 2278 3394 2678 2853 
L 2678 3319 
L 3500 3319 
L 3500 341 
Q 3500 -247 3403 -537 
Q 3306 -828 3131 -993 
Q 2956 -1159 2664 -1253 
Q 2372 -1347 1925 -1347 
Q 1081 -1347 728 -1058 
Q 375 -769 375 -325 
Q 375 -281 378 -219 
z
M 1163 1728 
Q 1163 1200 1367 954 
Q 1572 709 1872 709 
Q 2194 709 2416 961 
Q 2638 1213 2638 1706 
Q 2638 2222 2425 2472 
Q 2213 2722 1888 2722 
Q 1572 2722 1367 2476 
Q 1163 2231 1163 1728 
z
" transform="scale(0.015625)"/>
      <path id="Arial-BoldMT-20" transform="scale(0.015625)"/>
      <path id="Arial-BoldMT-54" d="M 1497 0 
L 1497 3806 
L 138 3806 
L 138 4581 
L 3778 4581 
L 3778 3806 
L 2422 3806 
L 2422 0 
L 1497 0 
z
" transform="scale(0.015625)"/>
      <path id="Arial-BoldMT-44" d="M 463 4581 
L 2153 4581 
Q 2725 4581 3025 4494 
Q 3428 4375 3715 4072 
Q 4003 3769 4153 3330 
Q 4303 2891 4303 2247 
Q 4303 1681 4163 1272 
Q 3991 772 3672 463 
Q 3431 228 3022 97 
Q 2716 0 2203 0 
L 463 0 
L 463 4581 
z
M 1388 3806 
L 1388 772 
L 2078 772 
Q 2466 772 2638 816 
Q 2863 872 3011 1006 
Q 3159 1141 3253 1448 
Q 3347 1756 3347 2288 
Q 3347 2819 3253 3103 
Q 3159 3388 2990 3547 
Q 2822 3706 2563 3763 
Q 2369 3806 1803 3806 
L 1388 3806 
z
" transform="scale(0.015625)"/>
      <path id="Arial-BoldMT-3a" d="M 628 2441 
L 628 3319 
L 1506 3319 
L 1506 2441 
L 628 2441 
z
M 628 0 
L 628 878 
L 1506 878 
L 1506 0 
L 628 0 
z
" transform="scale(0.015625)"/>
      <path id="Arial-BoldMT-53" d="M 231 1491 
L 1131 1578 
Q 1213 1125 1461 912 
Q 1709 700 2131 700 
Q 2578 700 2804 889 
Q 3031 1078 3031 1331 
Q 3031 1494 2936 1608 
Q 2841 1722 2603 1806 
Q 2441 1863 1863 2006 
Q 1119 2191 819 2459 
Q 397 2838 397 3381 
Q 397 3731 595 4036 
Q 794 4341 1167 4500 
Q 1541 4659 2069 4659 
Q 2931 4659 3367 4281 
Q 3803 3903 3825 3272 
L 2900 3231 
Q 2841 3584 2645 3739 
Q 2450 3894 2059 3894 
Q 1656 3894 1428 3728 
Q 1281 3622 1281 3444 
Q 1281 3281 1419 3166 
Q 1594 3019 2269 2859 
Q 2944 2700 3267 2529 
Q 3591 2359 3773 2064 
Q 3956 1769 3956 1334 
Q 3956 941 3737 597 
Q 3519 253 3119 86 
Q 2719 -81 2122 -81 
Q 1253 -81 787 320 
Q 322 722 231 1491 
z
" transform="scale(0.015625)"/>
      <path id="Arial-BoldMT-6c" d="M 459 0 
L 459 4581 
L 1338 4581 
L 1338 0 
L 459 0 
z
" transform="scale(0.015625)"/>
      <path id="Arial-BoldMT-64" d="M 3503 0 
L 2688 0 
L 2688 488 
Q 2484 203 2207 64 
Q 1931 -75 1650 -75 
Q 1078 -75 670 386 
Q 263 847 263 1672 
Q 263 2516 659 2955 
Q 1056 3394 1663 3394 
Q 2219 3394 2625 2931 
L 2625 4581 
L 3503 4581 
L 3503 0 
z
M 1159 1731 
Q 1159 1200 1306 963 
Q 1519 619 1900 619 
Q 2203 619 2415 876 
Q 2628 1134 2628 1647 
Q 2628 2219 2422 2470 
Q 2216 2722 1894 2722 
Q 1581 2722 1370 2473 
Q 1159 2225 1159 1731 
z
" transform="scale(0.015625)"/>
      <path id="Arial-BoldMT-57" d="M 1116 0 
L 22 4581 
L 969 4581 
L 1659 1434 
L 2497 4581 
L 3597 4581 
L 4400 1381 
L 5103 4581 
L 6034 4581 
L 4922 0 
L 3941 0 
L 3028 3425 
L 2119 0 
L 1116 0 
z
" transform="scale(0.015625)"/>
      <path id="Arial-BoldMT-6f" d="M 256 1706 
Q 256 2144 472 2553 
Q 688 2963 1083 3178 
Q 1478 3394 1966 3394 
Q 2719 3394 3200 2905 
Q 3681 2416 3681 1669 
Q 3681 916 3195 420 
Q 2709 -75 1972 -75 
Q 1516 -75 1102 131 
Q 688 338 472 736 
Q 256 1134 256 1706 
z
M 1156 1659 
Q 1156 1166 1390 903 
Q 1625 641 1969 641 
Q 2313 641 2545 903 
Q 2778 1166 2778 1666 
Q 2778 2153 2545 2415 
Q 2313 2678 1969 2678 
Q 1625 2678 1390 2415 
Q 1156 2153 1156 1659 
z
" transform="scale(0.015625)"/>
      <path id="Arial-BoldMT-77" d="M 1078 0 
L 28 3319 
L 881 3319 
L 1503 1144 
L 2075 3319 
L 2922 3319 
L 3475 1144 
L 4109 3319 
L 4975 3319 
L 3909 0 
L 3066 0 
L 2494 2134 
L 1931 0 
L 1078 0 
z
" transform="scale(0.015625)"/>
     </defs>
     <use xlink:href="#Arial-BoldMT-43"/>
     <use xlink:href="#Arial-BoldMT-72" transform="translate(72.216797 0)"/>
     <use xlink:href="#Arial-BoldMT-65" transform="translate(111.132812 0)"/>
     <use xlink:href="#Arial-BoldMT-61" transform="translate(166.748047 0)"/>
     <use xlink:href="#Arial-BoldMT-74" transform="translate(222.363281 0)"/>
     <use xlink:href="#Arial-BoldMT-69" transform="translate(255.664062 0)"/>
     <use xlink:href="#Arial-BoldMT-6e" transform="translate(283.447266 0)"/>
     <use xlink:href="#Arial-BoldMT-67" transform="translate(344.53125 0)"/>
     <use xlink:href="#Arial-BoldMT-20" transform="translate(405.615234 0)"/>
     <use xlink:href="#Arial-BoldMT-54" transform="translate(433.398438 0)"/>
     <use xlink:href="#Arial-BoldMT-72" transform="translate(488.982422 0)"/>
     <use xlink:href="#Arial-BoldMT-61" transform="translate(527.898438 0)"/>
     <use xlink:href="#Arial-BoldMT-69" transform="translate(583.513672 0)"/>
     <use xlink:href="#Arial-BoldMT-6e" transform="translate(611.296875 0)"/>
     <use xlink:href="#Arial-BoldMT-69" transform="translate(672.380859 0)"/>
     <use xlink:href="#Arial-BoldMT-6e" transform="translate(700.164062 0)"/>
     <use xlink:href="#Arial-BoldMT-67" transform="translate(761.248047 0)"/>
     <use xlink:href="#Arial-BoldMT-20" transform="translate(822.332031 0)"/>
     <use xlink:href="#Arial-BoldMT-44" transform="translate(850.115234 0)"/>
     <use xlink:href="#Arial-BoldMT-61" transform="translate(922.332031 0)"/>
     <use xlink:href="#Arial-BoldMT-74" transform="translate(977.947266 0)"/>
     <use xlink:href="#Arial-BoldMT-61" transform="translate(1011.248047 0)"/>
     <use xlink:href="#Arial-BoldMT-3a" transform="translate(1066.863281 0)"/>
     <use xlink:href="#Arial-BoldMT-20" transform="translate(1100.164062 0)"/>
     <use xlink:href="#Arial-BoldMT-53" transform="translate(1127.947266 0)"/>
     <use xlink:href="#Arial-BoldMT-6c" transform="translate(1194.646484 0)"/>
     <use xlink:href="#Arial-BoldMT-69" transform="translate(1222.429688 0)"/>
     <use xlink:href="#Arial-BoldMT-64" transform="translate(1250.212891 0)"/>
     <use xlink:href="#Arial-BoldMT-69" transform="translate(1311.296875 0)"/>
     <use xlink:href="#Arial-BoldMT-6e" transform="translate(1339.080078 0)"/>
     <use xlink:href="#Arial-BoldMT-67" transform="translate(1400.164062 0)"/>
     <use xlink:href="#Arial-BoldMT-20" transform="translate(1461.248047 0)"/>
     <use xlink:href="#Arial-BoldMT-57" transform="translate(1489.03125 0)"/>
     <use xlink:href="#Arial-BoldMT-69" transform="translate(1582.541016 0)"/>
     <use xlink:href="#Arial-BoldMT-6e" transform="translate(1610.324219 0)"/>
     <use xlink:href="#Arial-BoldMT-64" transform="translate(1671.408203 0)"/>
     <use xlink:href="#Arial-BoldMT-6f" transform="translate(1732.492188 0)"/>
     <use xlink:href="#Arial-BoldMT-77" transform="translate(1793.576172 0)"/>
    </g>
   </g>
   <g id="text_2">
    <!-- Text: -->
    <g transform="translate(56.52 106.992) scale(0.12 -0.12)">
     <defs>
      <path id="Arial-BoldMT-78" d="M 38 0 
L 1234 1709 
L 88 3319 
L 1159 3319 
L 1747 2406 
L 2366 3319 
L 3397 3319 
L 2272 1747 
L 3500 0 
L 2422 0 
L 1747 1028 
L 1066 0 
L 38 0 
z
" transform="scale(0.015625)"/>
     </defs>
     <use xlink:href="#Arial-BoldMT-54"/>
     <use xlink:href="#Arial-BoldMT-65" transform="translate(53.708984 0)"/>
     <use xlink:href="#Arial-BoldMT-78" transform="translate(109.324219 0)"/>
     <use xlink:href="#Arial-BoldMT-74" transform="translate(164.939453 0)"/>
     <use xlink:href="#Arial-BoldMT-3a" transform="translate(198.240234 0)"/>
    </g>
   </g>
   <g id="text_3">
    <!-- a -->
    <g style="fill: #ffffff" transform="translate(180.30325 106.992) scale(0.16 -0.16)">
     <use xlink:href="#Arial-BoldMT-61"/>
    </g>
   </g>
   <g id="text_4">
    <!-- a -->
    <g style="fill: #ffffff" transform="translate(249.35125 106.992) scale(0.16 -0.16)">
     <use xlink:href="#Arial-BoldMT-61"/>
    </g>
   </g>
   <g id="text_5">
    <!-- b -->
    <g style="fill: #ffffff" transform="translate(317.96175 106.992) scale(0.16 -0.16)">
     <defs>
      <path id="Arial-BoldMT-62" d="M 422 0 
L 422 4581 
L 1300 4581 
L 1300 2931 
Q 1706 3394 2263 3394 
Q 2869 3394 3266 2955 
Q 3663 2516 3663 1694 
Q 3663 844 3258 384 
Q 2853 -75 2275 -75 
Q 1991 -75 1714 67 
Q 1438 209 1238 488 
L 1238 0 
L 422 0 
z
M 1294 1731 
Q 1294 1216 1456 969 
Q 1684 619 2063 619 
Q 2353 619 2558 867 
Q 2763 1116 2763 1650 
Q 2763 2219 2556 2470 
Q 2350 2722 2028 2722 
Q 1713 2722 1503 2476 
Q 1294 2231 1294 1731 
z
" transform="scale(0.015625)"/>
     </defs>
     <use xlink:href="#Arial-BoldMT-62"/>
    </g>
   </g>
   <g id="text_6">
    <!-- i -->
    <g style="fill: #ffffff" transform="translate(389.6735 106.992) scale(0.16 -0.16)">
     <use xlink:href="#Arial-BoldMT-69"/>
    </g>
   </g>
   <g id="text_7">
    <!-- d -->
    <g style="fill: #ffffff" transform="translate(456.05775 106.992) scale(0.16 -0.16)">
     <use xlink:href="#Arial-BoldMT-64"/>
    </g>
   </g>
   <g id="text_8">
    <!-- Context (Input) -->
    <g style="fill: #06a77d" transform="translate(56.52 162.432) scale(0.11 -0.11)">
     <defs>
      <path id="Arial-BoldMT-28" d="M 1916 -1347 
L 1313 -1347 
Q 834 -625 584 153 
Q 334 931 334 1659 
Q 334 2563 644 3369 
Q 913 4069 1325 4659 
L 1925 4659 
Q 1497 3713 1336 3048 
Q 1175 2384 1175 1641 
Q 1175 1128 1270 590 
Q 1366 53 1531 -431 
Q 1641 -750 1916 -1347 
z
" transform="scale(0.015625)"/>
      <path id="Arial-BoldMT-49" d="M 438 0 
L 438 4581 
L 1363 4581 
L 1363 0 
L 438 0 
z
" transform="scale(0.015625)"/>
      <path id="Arial-BoldMT-70" d="M 434 3319 
L 1253 3319 
L 1253 2831 
Q 1413 3081 1684 3237 
Q 1956 3394 2288 3394 
Q 2866 3394 3269 2941 
Q 3672 2488 3672 1678 
Q 3672 847 3265 386 
Q 2859 -75 2281 -75 
Q 2006 -75 1782 34 
Q 1559 144 1313 409 
L 1313 -1263 
L 434 -1263 
L 434 3319 
z
M 1303 1716 
Q 1303 1156 1525 889 
Q 1747 622 2066 622 
Q 2372 622 2575 867 
Q 2778 1113 2778 1672 
Q 2778 2194 2568 2447 
Q 2359 2700 2050 2700 
Q 1728 2700 1515 2451 
Q 1303 2203 1303 1716 
z
" transform="scale(0.015625)"/>
      <path id="Arial-BoldMT-75" d="M 2644 0 
L 2644 497 
Q 2463 231 2167 78 
Q 1872 -75 1544 -75 
Q 1209 -75 943 72 
Q 678 219 559 484 
Q 441 750 441 1219 
L 441 3319 
L 1319 3319 
L 1319 1794 
Q 1319 1094 1367 936 
Q 1416 778 1544 686 
Q 1672 594 1869 594 
Q 2094 594 2272 717 
Q 2450 841 2515 1023 
Q 2581 1206 2581 1919 
L 2581 3319 
L 3459 3319 
L 3459 0 
L 2644 0 
z
" transform="scale(0.015625)"/>
      <path id="Arial-BoldMT-29" d="M 216 -1347 
Q 475 -791 581 -494 
Q 688 -197 778 190 
Q 869 578 912 926 
Q 956 1275 956 1641 
Q 956 2384 797 3048 
Q 638 3713 209 4659 
L 806 4659 
Q 1278 3988 1539 3234 
Q 1800 2481 1800 1706 
Q 1800 1053 1594 306 
Q 1359 -531 822 -1347 
L 216 -1347 
z
" transform="scale(0.015625)"/>
     </defs>
     <use xlink:href="#Arial-BoldMT-43"/>
     <use xlink:href="#Arial-BoldMT-6f" transform="translate(72.216797 0)"/>
     <use xlink:href="#Arial-BoldMT-6e" transform="translate(133.300781 0)"/>
     <use xlink:href="#Arial-BoldMT-74" transform="translate(194.384766 0)"/>
     <use xlink:href="#Arial-BoldMT-65" transform="translate(227.685547 0)"/>
     <use xlink:href="#Arial-BoldMT-78" transform="translate(283.300781 0)"/>
     <use xlink:href="#Arial-BoldMT-74" transform="translate(338.916016 0)"/>
     <use xlink:href="#Arial-BoldMT-20" transform="translate(372.216797 0)"/>
     <use xlink:href="#Arial-BoldMT-28" transform="translate(400 0)"/>
     <use xlink:href="#Arial-BoldMT-49" transform="translate(433.300781 0)"/>
     <use xlink:href="#Arial-BoldMT-6e" transform="translate(461.083984 0)"/>
     <use xlink:href="#Arial-BoldMT-70" transform="translate(522.167969 0)"/>
     <use xlink:href="#Arial-BoldMT-75" transform="translate(583.251953 0)"/>
     <use xlink:href="#Arial-BoldMT-74" transform="translate(644.335938 0)"/>
     <use xlink:href="#Arial-BoldMT-29" transform="translate(677.636719 0)"/>
    </g>
   </g>
   <g id="text_9">
    <!-- Target (Output) -->
    <g style="fill: #e63946" transform="translate(549.72 162.432) scale(0.11 -0.11)">
     <defs>
      <path id="Arial-BoldMT-4f" d="M 278 2263 
Q 278 2963 488 3438 
Q 644 3788 914 4066 
Q 1184 4344 1506 4478 
Q 1934 4659 2494 4659 
Q 3506 4659 4114 4031 
Q 4722 3403 4722 2284 
Q 4722 1175 4119 548 
Q 3516 -78 2506 -78 
Q 1484 -78 881 545 
Q 278 1169 278 2263 
z
M 1231 2294 
Q 1231 1516 1590 1114 
Q 1950 713 2503 713 
Q 3056 713 3411 1111 
Q 3766 1509 3766 2306 
Q 3766 3094 3420 3481 
Q 3075 3869 2503 3869 
Q 1931 3869 1581 3476 
Q 1231 3084 1231 2294 
z
" transform="scale(0.015625)"/>
     </defs>
     <use xlink:href="#Arial-BoldMT-54"/>
     <use xlink:href="#Arial-BoldMT-61" transform="translate(53.708984 0)"/>
     <use xlink:href="#Arial-BoldMT-72" transform="translate(109.324219 0)"/>
     <use xlink:href="#Arial-BoldMT-67" transform="translate(148.240234 0)"/>
     <use xlink:href="#Arial-BoldMT-65" transform="translate(209.324219 0)"/>
     <use xlink:href="#Arial-BoldMT-74" transform="translate(264.939453 0)"/>
     <use xlink:href="#Arial-BoldMT-20" transform="translate(298.240234 0)"/>
     <use xlink:href="#Arial-BoldMT-28" transform="translate(326.023438 0)"/>
     <use xlink:href="#Arial-BoldMT-4f" transform="translate(359.324219 0)"/>
     <use xlink:href="#Arial-BoldMT-75" transform="translate(437.107422 0)"/>
     <use xlink:href="#Arial-BoldMT-74" transform="translate(498.191406 0)"/>
     <use xlink:href="#Arial-BoldMT-70" transform="translate(531.492188 0)"/>
     <use xlink:href="#Arial-BoldMT-75" transform="translate(592.576172 0)"/>
     <use xlink:href="#Arial-BoldMT-74" transform="translate(653.660156 0)"/>
     <use xlink:href="#Arial-BoldMT-29" transform="translate(686.960938 0)"/>
    </g>
   </g>
   <g id="text_10">
    <!-- . -->
    <g style="fill: #ffffff" transform="translate(182.807312 201.24) scale(0.14 -0.14)">
     <defs>
      <path id="Arial-BoldMT-2e" d="M 459 0 
L 459 878 
L 1338 878 
L 1338 0 
L 459 0 
z
" transform="scale(0.015625)"/>
     </defs>
     <use xlink:href="#Arial-BoldMT-2e"/>
    </g>
   </g>
   <g id="text_11">
    <!-- . -->
    <g style="fill: #ffffff" transform="translate(251.855312 201.24) scale(0.14 -0.14)">
     <use xlink:href="#Arial-BoldMT-2e"/>
    </g>
   </g>
   <g id="text_12">
    <!-- . -->
    <g style="fill: #ffffff" transform="translate(320.903313 201.24) scale(0.14 -0.14)">
     <use xlink:href="#Arial-BoldMT-2e"/>
    </g>
   </g>
   <g id="patch_28">
    <path d="M 423.486809 201.24 
Q 460.941148 201.24 496.15942 201.24 
" style="fill: none; stroke: #000000; stroke-width: 2; stroke-linecap: round"/>
    <path d="M 492.15942 199.24 
L 496.15942 201.24 
L 492.15942 203.24 
" style="fill: none; stroke: #000000; stroke-width: 2; stroke-linecap: round"/>
   </g>
   <g id="text_13">
    <!-- a -->
    <g style="fill: #ffffff" transform="translate(575.419344 201.24) scale(0.14 -0.14)">
     <use xlink:href="#Arial-BoldMT-61"/>
    </g>
   </g>
   <g id="text_14">
    <!-- ← Predict this! -->
    <g style="fill: #808080" transform="translate(648.36 203.825156) scale(0.1 -0.1)">
     <defs>
      <path id="ArialMT-2190" d="M 1538 2738 
L 1775 2738 
Q 1591 2369 1498 2220 
Q 1406 2072 1166 1772 
L 6150 1772 
L 6150 1456 
L 1166 1456 
Q 1491 1119 1784 491 
L 1541 491 
Q 1138 941 847 1173 
Q 556 1406 247 1556 
L 247 1697 
Q 519 1813 822 2050 
Q 1125 2288 1538 2738 
z
" transform="scale(0.015625)"/>
      <path id="ArialMT-20" transform="scale(0.015625)"/>
      <path id="ArialMT-50" d="M 494 0 
L 494 4581 
L 2222 4581 
Q 2678 4581 2919 4538 
Q 3256 4481 3484 4323 
Q 3713 4166 3852 3881 
Q 3991 3597 3991 3256 
Q 3991 2672 3619 2267 
Q 3247 1863 2275 1863 
L 1100 1863 
L 1100 0 
L 494 0 
z
M 1100 2403 
L 2284 2403 
Q 2872 2403 3119 2622 
Q 3366 2841 3366 3238 
Q 3366 3525 3220 3729 
Q 3075 3934 2838 4000 
Q 2684 4041 2272 4041 
L 1100 4041 
L 1100 2403 
z
" transform="scale(0.015625)"/>
      <path id="ArialMT-72" d="M 416 0 
L 416 3319 
L 922 3319 
L 922 2816 
Q 1116 3169 1280 3281 
Q 1444 3394 1641 3394 
Q 1925 3394 2219 3213 
L 2025 2691 
Q 1819 2813 1613 2813 
Q 1428 2813 1281 2702 
Q 1134 2591 1072 2394 
Q 978 2094 978 1738 
L 978 0 
L 416 0 
z
" transform="scale(0.015625)"/>
      <path id="ArialMT-65" d="M 2694 1069 
L 3275 997 
Q 3138 488 2766 206 
Q 2394 -75 1816 -75 
Q 1088 -75 661 373 
Q 234 822 234 1631 
Q 234 2469 665 2931 
Q 1097 3394 1784 3394 
Q 2450 3394 2872 2941 
Q 3294 2488 3294 1666 
Q 3294 1616 3291 1516 
L 816 1516 
Q 847 969 1125 678 
Q 1403 388 1819 388 
Q 2128 388 2347 550 
Q 2566 713 2694 1069 
z
M 847 1978 
L 2700 1978 
Q 2663 2397 2488 2606 
Q 2219 2931 1791 2931 
Q 1403 2931 1139 2672 
Q 875 2413 847 1978 
z
" transform="scale(0.015625)"/>
      <path id="ArialMT-64" d="M 2575 0 
L 2575 419 
Q 2259 -75 1647 -75 
Q 1250 -75 917 144 
Q 584 363 401 755 
Q 219 1147 219 1656 
Q 219 2153 384 2558 
Q 550 2963 881 3178 
Q 1213 3394 1622 3394 
Q 1922 3394 2156 3267 
Q 2391 3141 2538 2938 
L 2538 4581 
L 3097 4581 
L 3097 0 
L 2575 0 
z
M 797 1656 
Q 797 1019 1065 703 
Q 1334 388 1700 388 
Q 2069 388 2326 689 
Q 2584 991 2584 1609 
Q 2584 2291 2321 2609 
Q 2059 2928 1675 2928 
Q 1300 2928 1048 2622 
Q 797 2316 797 1656 
z
" transform="scale(0.015625)"/>
      <path id="ArialMT-69" d="M 425 3934 
L 425 4581 
L 988 4581 
L 988 3934 
L 425 3934 
z
M 425 0 
L 425 3319 
L 988 3319 
L 988 0 
L 425 0 
z
" transform="scale(0.015625)"/>
      <path id="ArialMT-63" d="M 2588 1216 
L 3141 1144 
Q 3050 572 2676 248 
Q 2303 -75 1759 -75 
Q 1078 -75 664 370 
Q 250 816 250 1647 
Q 250 2184 428 2587 
Q 606 2991 970 3192 
Q 1334 3394 1763 3394 
Q 2303 3394 2647 3120 
Q 2991 2847 3088 2344 
L 2541 2259 
Q 2463 2594 2264 2762 
Q 2066 2931 1784 2931 
Q 1359 2931 1093 2626 
Q 828 2322 828 1663 
Q 828 994 1084 691 
Q 1341 388 1753 388 
Q 2084 388 2306 591 
Q 2528 794 2588 1216 
z
" transform="scale(0.015625)"/>
      <path id="ArialMT-74" d="M 1650 503 
L 1731 6 
Q 1494 -44 1306 -44 
Q 1000 -44 831 53 
Q 663 150 594 308 
Q 525 466 525 972 
L 525 2881 
L 113 2881 
L 113 3319 
L 525 3319 
L 525 4141 
L 1084 4478 
L 1084 3319 
L 1650 3319 
L 1650 2881 
L 1084 2881 
L 1084 941 
Q 1084 700 1114 631 
Q 1144 563 1211 522 
Q 1278 481 1403 481 
Q 1497 481 1650 503 
z
" transform="scale(0.015625)"/>
      <path id="ArialMT-68" d="M 422 0 
L 422 4581 
L 984 4581 
L 984 2938 
Q 1378 3394 1978 3394 
Q 2347 3394 2619 3248 
Q 2891 3103 3008 2847 
Q 3125 2591 3125 2103 
L 3125 0 
L 2563 0 
L 2563 2103 
Q 2563 2525 2380 2717 
Q 2197 2909 1863 2909 
Q 1613 2909 1392 2779 
Q 1172 2650 1078 2428 
Q 984 2206 984 1816 
L 984 0 
L 422 0 
z
" transform="scale(0.015625)"/>
      <path id="ArialMT-73" d="M 197 991 
L 753 1078 
Q 800 744 1014 566 
Q 1228 388 1613 388 
Q 2000 388 2187 545 
Q 2375 703 2375 916 
Q 2375 1106 2209 1216 
Q 2094 1291 1634 1406 
Q 1016 1563 777 1677 
Q 538 1791 414 1992 
Q 291 2194 291 2438 
Q 291 2659 392 2848 
Q 494 3038 669 3163 
Q 800 3259 1026 3326 
Q 1253 3394 1513 3394 
Q 1903 3394 2198 3281 
Q 2494 3169 2634 2976 
Q 2775 2784 2828 2463 
L 2278 2388 
Q 2241 2644 2061 2787 
Q 1881 2931 1553 2931 
Q 1166 2931 1000 2803 
Q 834 2675 834 2503 
Q 834 2394 903 2306 
Q 972 2216 1119 2156 
Q 1203 2125 1616 2013 
Q 2213 1853 2448 1751 
Q 2684 1650 2818 1456 
Q 2953 1263 2953 975 
Q 2953 694 2789 445 
Q 2625 197 2315 61 
Q 2006 -75 1616 -75 
Q 969 -75 630 194 
Q 291 463 197 991 
z
" transform="scale(0.015625)"/>
      <path id="ArialMT-21" d="M 722 1138 
L 550 3566 
L 550 4581 
L 1247 4581 
L 1247 3566 
L 1084 1138 
L 722 1138 
z
M 575 0 
L 575 641 
L 1222 641 
L 1222 0 
L 575 0 
z
" transform="scale(0.015625)"/>
     </defs>
     <use xlink:href="#ArialMT-2190"/>
     <use xlink:href="#ArialMT-20" transform="translate(100 0)"/>
     <use xlink:href="#ArialMT-50" transform="translate(127.783203 0)"/>
     <use xlink:href="#ArialMT-72" transform="translate(194.482422 0)"/>
     <use xlink:href="#ArialMT-65" transform="translate(227.783203 0)"/>
     <use xlink:href="#ArialMT-64" transform="translate(283.398438 0)"/>
     <use xlink:href="#ArialMT-69" transform="translate(339.013672 0)"/>
     <use xlink:href="#ArialMT-63" transform="translate(361.230469 0)"/>
     <use xlink:href="#ArialMT-74" transform="translate(411.230469 0)"/>
     <use xlink:href="#ArialMT-20" transform="translate(439.013672 0)"/>
     <use xlink:href="#ArialMT-74" transform="translate(466.796875 0)"/>
     <use xlink:href="#ArialMT-68" transform="translate(494.580078 0)"/>
     <use xlink:href="#ArialMT-69" transform="translate(550.195312 0)"/>
     <use xlink:href="#ArialMT-73" transform="translate(572.412109 0)"/>
     <use xlink:href="#ArialMT-21" transform="translate(622.412109 0)"/>
    </g>
   </g>
   <g id="text_15">
    <!-- . -->
    <g style="fill: #ffffff" transform="translate(182.807312 273.312) scale(0.14 -0.14)">
     <use xlink:href="#Arial-BoldMT-2e"/>
    </g>
   </g>
   <g id="text_16">
    <!-- . -->
    <g style="fill: #ffffff" transform="translate(251.855312 273.312) scale(0.14 -0.14)">
     <use xlink:href="#Arial-BoldMT-2e"/>
    </g>
   </g>
   <g id="text_17">
    <!-- a -->
    <g style="fill: #ffffff" transform="translate(318.955344 273.312) scale(0.14 -0.14)">
     <use xlink:href="#Arial-BoldMT-61"/>
    </g>
   </g>
   <g id="patch_29">
    <path d="M 423.486809 273.312 
Q 460.941148 273.312 496.15942 273.312 
" style="fill: none; stroke: #000000; stroke-width: 2; stroke-linecap: round"/>
    <path d="M 492.15942 271.312 
L 496.15942 273.312 
L 492.15942 275.312 
" style="fill: none; stroke: #000000; stroke-width: 2; stroke-linecap: round"/>
   </g>
   <g id="text_18">
    <!-- a -->
    <g style="fill: #ffffff" transform="translate(575.419344 273.312) scale(0.14 -0.14)">
     <use xlink:href="#Arial-BoldMT-61"/>
    </g>
   </g>
   <g id="text_19">
    <!-- ← Predict this! -->
    <g style="fill: #808080" transform="translate(648.36 275.897156) scale(0.1 -0.1)">
     <use xlink:href="#ArialMT-2190"/>
     <use xlink:href="#ArialMT-20" transform="translate(100 0)"/>
     <use xlink:href="#ArialMT-50" transform="translate(127.783203 0)"/>
     <use xlink:href="#ArialMT-72" transform="translate(194.482422 0)"/>
     <use xlink:href="#ArialMT-65" transform="translate(227.783203 0)"/>
     <use xlink:href="#ArialMT-64" transform="translate(283.398438 0)"/>
     <use xlink:href="#ArialMT-69" transform="translate(339.013672 0)"/>
     <use xlink:href="#ArialMT-63" transform="translate(361.230469 0)"/>
     <use xlink:href="#ArialMT-74" transform="translate(411.230469 0)"/>
     <use xlink:href="#ArialMT-20" transform="translate(439.013672 0)"/>
     <use xlink:href="#ArialMT-74" transform="translate(466.796875 0)"/>
     <use xlink:href="#ArialMT-68" transform="translate(494.580078 0)"/>
     <use xlink:href="#ArialMT-69" transform="translate(550.195312 0)"/>
     <use xlink:href="#ArialMT-73" transform="translate(572.412109 0)"/>
     <use xlink:href="#ArialMT-21" transform="translate(622.412109 0)"/>
    </g>
   </g>
   <g id="text_20">
    <!-- . -->
    <g style="fill: #ffffff" transform="translate(182.807312 345.384) scale(0.14 -0.14)">
     <use xlink:href="#Arial-BoldMT-2e"/>
    </g>
   </g>
   <g id="text_21">
    <!-- a -->
    <g style="fill: #ffffff" transform="translate(249.907344 345.384) scale(0.14 -0.14)">
     <use xlink:href="#Arial-BoldMT-61"/>
    </g>
   </g>
   <g id="text_22">
    <!-- a -->
    <g style="fill: #ffffff" transform="translate(318.955344 345.384) scale(0.14 -0.14)">
     <use xlink:href="#Arial-BoldMT-61"/>
    </g>
   </g>
   <g id="patch_30">
    <path d="M 423.486809 345.384 
Q 460.941148 345.384 496.15942 345.384 
" style="fill: none; stroke: #000000; stroke-width: 2; stroke-linecap: round"/>
    <path d="M 492.15942 343.384 
L 496.15942 345.384 
L 492.15942 347.384 
" style="fill: none; stroke: #000000; stroke-width: 2; stroke-linecap: round"/>
   </g>
   <g id="text_23">
    <!-- b -->
    <g style="fill: #ffffff" transform="translate(575.036531 345.384) scale(0.14 -0.14)">
     <use xlink:href="#Arial-BoldMT-62"/>
    </g>
   </g>
   <g id="text_24">
    <!-- ← Predict this! -->
    <g style="fill: #808080" transform="translate(648.36 347.969156) scale(0.1 -0.1)">
     <use xlink:href="#ArialMT-2190"/>
     <use xlink:href="#ArialMT-20" transform="translate(100 0)"/>
     <use xlink:href="#ArialMT-50" transform="translate(127.783203 0)"/>
     <use xlink:href="#ArialMT-72" transform="translate(194.482422 0)"/>
     <use xlink:href="#ArialMT-65" transform="translate(227.783203 0)"/>
     <use xlink:href="#ArialMT-64" transform="translate(283.398438 0)"/>
     <use xlink:href="#ArialMT-69" transform="translate(339.013672 0)"/>
     <use xlink:href="#ArialMT-63" transform="translate(361.230469 0)"/>
     <use xlink:href="#ArialMT-74" transform="translate(411.230469 0)"/>
     <use xlink:href="#ArialMT-20" transform="translate(439.013672 0)"/>
     <use xlink:href="#ArialMT-74" transform="translate(466.796875 0)"/>
     <use xlink:href="#ArialMT-68" transform="translate(494.580078 0)"/>
     <use xlink:href="#ArialMT-69" transform="translate(550.195312 0)"/>
     <use xlink:href="#ArialMT-73" transform="translate(572.412109 0)"/>
     <use xlink:href="#ArialMT-21" transform="translate(622.412109 0)"/>
    </g>
   </g>
   <g id="text_25">
    <!-- a -->
    <g style="fill: #ffffff" transform="translate(180.859344 417.456) scale(0.14 -0.14)">
     <use xlink:href="#Arial-BoldMT-61"/>
    </g>
   </g>
   <g id="text_26">
    <!-- a -->
    <g style="fill: #ffffff" transform="translate(249.907344 417.456) scale(0.14 -0.14)">
     <use xlink:href="#Arial-BoldMT-61"/>
    </g>
   </g>
   <g id="text_27">
    <!-- b -->
    <g style="fill: #ffffff" transform="translate(318.572531 417.456) scale(0.14 -0.14)">
     <use xlink:href="#Arial-BoldMT-62"/>
    </g>
   </g>
   <g id="patch_31">
    <path d="M 423.486809 417.456 
Q 460.941148 417.456 496.15942 417.456 
" style="fill: none; stroke: #000000; stroke-width: 2; stroke-linecap: round"/>
    <path d="M 492.15942 415.456 
L 496.15942 417.456 
L 492.15942 419.456 
" style="fill: none; stroke: #000000; stroke-width: 2; stroke-linecap: round"/>
   </g>
   <g id="text_28">
    <!-- i -->
    <g style="fill: #ffffff" transform="translate(577.367313 417.456) scale(0.14 -0.14)">
     <use xlink:href="#Arial-BoldMT-69"/>
    </g>
   </g>
   <g id="text_29">
    <!-- ← Predict this! -->
    <g style="fill: #808080" transform="translate(648.36 420.041156) scale(0.1 -0.1)">
     <use xlink:href="#ArialMT-2190"/>
     <use xlink:href="#ArialMT-20" transform="translate(100 0)"/>
     <use xlink:href="#ArialMT-50" transform="translate(127.783203 0)"/>
     <use xlink:href="#ArialMT-72" transform="translate(194.482422 0)"/>
     <use xlink:href="#ArialMT-65" transform="translate(227.783203 0)"/>
     <use xlink:href="#ArialMT-64" transform="translate(283.398438 0)"/>
     <use xlink:href="#ArialMT-69" transform="translate(339.013672 0)"/>
     <use xlink:href="#ArialMT-63" transform="translate(361.230469 0)"/>
     <use xlink:href="#ArialMT-74" transform="translate(411.230469 0)"/>
     <use xlink:href="#ArialMT-20" transform="translate(439.013672 0)"/>
     <use xlink:href="#ArialMT-74" transform="translate(466.796875 0)"/>
     <use xlink:href="#ArialMT-68" transform="translate(494.580078 0)"/>
     <use xlink:href="#ArialMT-69" transform="translate(550.195312 0)"/>
     <use xlink:href="#ArialMT-73" transform="translate(572.412109 0)"/>
     <use xlink:href="#ArialMT-21" transform="translate(622.412109 0)"/>
    </g>
   </g>
   <g id="text_30">
    <!-- a -->
    <g style="fill: #ffffff" transform="translate(180.859344 489.528) scale(0.14 -0.14)">
     <use xlink:href="#Arial-BoldMT-61"/>
    </g>
   </g>
   <g id="text_31">
    <!-- b -->
    <g style="fill: #ffffff" transform="translate(249.524531 489.528) scale(0.14 -0.14)">
     <use xlink:href="#Arial-BoldMT-62"/>
    </g>
   </g>
   <g id="text_32">
    <!-- i -->
    <g style="fill: #ffffff" transform="translate(320.903313 489.528) scale(0.14 -0.14)">
     <use xlink:href="#Arial-BoldMT-69"/>
    </g>
   </g>
   <g id="patch_32">
    <path d="M 423.486809 489.528 
Q 460.941148 489.528 496.15942 489.528 
" style="fill: none; stroke: #000000; stroke-width: 2; stroke-linecap: round"/>
    <path d="M 492.15942 487.528 
L 496.15942 489.528 
L 492.15942 491.528 
" style="fill: none; stroke: #000000; stroke-width: 2; stroke-linecap: round"/>
   </g>
   <g id="text_33">
    <!-- d -->
    <g style="fill: #ffffff" transform="translate(575.036531 489.528) scale(0.14 -0.14)">
     <use xlink:href="#Arial-BoldMT-64"/>
    </g>
   </g>
   <g id="text_34">
    <!-- ← Predict this! -->
    <g style="fill: #808080" transform="translate(648.36 492.113156) scale(0.1 -0.1)">
     <use xlink:href="#ArialMT-2190"/>
     <use xlink:href="#ArialMT-20" transform="translate(100 0)"/>
     <use xlink:href="#ArialMT-50" transform="translate(127.783203 0)"/>
     <use xlink:href="#ArialMT-72" transform="translate(194.482422 0)"/>
     <use xlink:href="#ArialMT-65" transform="translate(227.783203 0)"/>
     <use xlink:href="#ArialMT-64" transform="translate(283.398438 0)"/>
     <use xlink:href="#ArialMT-69" transform="translate(339.013672 0)"/>
     <use xlink:href="#ArialMT-63" transform="translate(361.230469 0)"/>
     <use xlink:href="#ArialMT-74" transform="translate(411.230469 0)"/>
     <use xlink:href="#ArialMT-20" transform="translate(439.013672 0)"/>
     <use xlink:href="#ArialMT-74" transform="translate(466.796875 0)"/>
     <use xlink:href="#ArialMT-68" transform="translate(494.580078 0)"/>
     <use xlink:href="#ArialMT-69" transform="translate(550.195312 0)"/>
     <use xlink:href="#ArialMT-73" transform="translate(572.412109 0)"/>
     <use xlink:href="#ArialMT-21" transform="translate(622.412109 0)"/>
    </g>
   </g>
   <g id="text_35">
    <!-- The window slides through the text, creating (context, target) pairs for training -->
    <g transform="translate(295.675391 533.88) scale(0.11 -0.11)">
     <defs>
      <path id="Arial-BoldMT-68" d="M 1334 4581 
L 1334 2897 
Q 1759 3394 2350 3394 
Q 2653 3394 2897 3281 
Q 3141 3169 3264 2994 
Q 3388 2819 3433 2606 
Q 3478 2394 3478 1947 
L 3478 0 
L 2600 0 
L 2600 1753 
Q 2600 2275 2550 2415 
Q 2500 2556 2373 2639 
Q 2247 2722 2056 2722 
Q 1838 2722 1666 2615 
Q 1494 2509 1414 2295 
Q 1334 2081 1334 1663 
L 1334 0 
L 456 0 
L 456 4581 
L 1334 4581 
z
" transform="scale(0.015625)"/>
      <path id="Arial-BoldMT-73" d="M 150 947 
L 1031 1081 
Q 1088 825 1259 692 
Q 1431 559 1741 559 
Q 2081 559 2253 684 
Q 2369 772 2369 919 
Q 2369 1019 2306 1084 
Q 2241 1147 2013 1200 
Q 950 1434 666 1628 
Q 272 1897 272 2375 
Q 272 2806 612 3100 
Q 953 3394 1669 3394 
Q 2350 3394 2681 3172 
Q 3013 2950 3138 2516 
L 2309 2363 
Q 2256 2556 2107 2659 
Q 1959 2763 1684 2763 
Q 1338 2763 1188 2666 
Q 1088 2597 1088 2488 
Q 1088 2394 1175 2328 
Q 1294 2241 1995 2081 
Q 2697 1922 2975 1691 
Q 3250 1456 3250 1038 
Q 3250 581 2869 253 
Q 2488 -75 1741 -75 
Q 1063 -75 667 200 
Q 272 475 150 947 
z
" transform="scale(0.015625)"/>
      <path id="Arial-BoldMT-2c" d="M 438 878 
L 1316 878 
L 1316 250 
Q 1316 -131 1250 -351 
Q 1184 -572 1001 -747 
Q 819 -922 538 -1022 
L 366 -659 
Q 631 -572 743 -419 
Q 856 -266 863 0 
L 438 0 
L 438 878 
z
" transform="scale(0.015625)"/>
      <path id="Arial-BoldMT-63" d="M 3353 2338 
L 2488 2181 
Q 2444 2441 2289 2572 
Q 2134 2703 1888 2703 
Q 1559 2703 1364 2476 
Q 1169 2250 1169 1719 
Q 1169 1128 1367 884 
Q 1566 641 1900 641 
Q 2150 641 2309 783 
Q 2469 925 2534 1272 
L 3397 1125 
Q 3263 531 2881 228 
Q 2500 -75 1859 -75 
Q 1131 -75 698 384 
Q 266 844 266 1656 
Q 266 2478 700 2936 
Q 1134 3394 1875 3394 
Q 2481 3394 2839 3133 
Q 3197 2872 3353 2338 
z
" transform="scale(0.015625)"/>
      <path id="Arial-BoldMT-66" d="M 75 3319 
L 563 3319 
L 563 3569 
Q 563 3988 652 4194 
Q 741 4400 980 4529 
Q 1219 4659 1584 4659 
Q 1959 4659 2319 4547 
L 2200 3934 
Q 1991 3984 1797 3984 
Q 1606 3984 1523 3895 
Q 1441 3806 1441 3553 
L 1441 3319 
L 2097 3319 
L 2097 2628 
L 1441 2628 
L 1441 0 
L 563 0 
L 563 2628 
L 75 2628 
L 75 3319 
z
" transform="scale(0.015625)"/>
     </defs>
     <use xlink:href="#Arial-BoldMT-54"/>
     <use xlink:href="#Arial-BoldMT-68" transform="translate(61.083984 0)"/>
     <use xlink:href="#Arial-BoldMT-65" transform="translate(122.167969 0)"/>
     <use xlink:href="#Arial-BoldMT-20" transform="translate(177.783203 0)"/>
     <use xlink:href="#Arial-BoldMT-77" transform="translate(205.566406 0)"/>
     <use xlink:href="#Arial-BoldMT-69" transform="translate(283.349609 0)"/>
     <use xlink:href="#Arial-BoldMT-6e" transform="translate(311.132812 0)"/>
     <use xlink:href="#Arial-BoldMT-64" transform="translate(372.216797 0)"/>
     <use xlink:href="#Arial-BoldMT-6f" transform="translate(433.300781 0)"/>
     <use xlink:href="#Arial-BoldMT-77" transform="translate(494.384766 0)"/>
     <use xlink:href="#Arial-BoldMT-20" transform="translate(572.167969 0)"/>
     <use xlink:href="#Arial-BoldMT-73" transform="translate(599.951172 0)"/>
     <use xlink:href="#Arial-BoldMT-6c" transform="translate(655.566406 0)"/>
     <use xlink:href="#Arial-BoldMT-69" transform="translate(683.349609 0)"/>
     <use xlink:href="#Arial-BoldMT-64" transform="translate(711.132812 0)"/>
     <use xlink:href="#Arial-BoldMT-65" transform="translate(772.216797 0)"/>
     <use xlink:href="#Arial-BoldMT-73" transform="translate(827.832031 0)"/>
     <use xlink:href="#Arial-BoldMT-20" transform="translate(883.447266 0)"/>
     <use xlink:href="#Arial-BoldMT-74" transform="translate(911.230469 0)"/>
     <use xlink:href="#Arial-BoldMT-68" transform="translate(944.53125 0)"/>
     <use xlink:href="#Arial-BoldMT-72" transform="translate(1005.615234 0)"/>
     <use xlink:href="#Arial-BoldMT-6f" transform="translate(1044.53125 0)"/>
     <use xlink:href="#Arial-BoldMT-75" transform="translate(1105.615234 0)"/>
     <use xlink:href="#Arial-BoldMT-67" transform="translate(1166.699219 0)"/>
     <use xlink:href="#Arial-BoldMT-68" transform="translate(1227.783203 0)"/>
     <use xlink:href="#Arial-BoldMT-20" transform="translate(1288.867188 0)"/>
     <use xlink:href="#Arial-BoldMT-74" transform="translate(1316.650391 0)"/>
     <use xlink:href="#Arial-BoldMT-68" transform="translate(1349.951172 0)"/>
     <use xlink:href="#Arial-BoldMT-65" transform="translate(1411.035156 0)"/>
     <use xlink:href="#Arial-BoldMT-20" transform="translate(1466.650391 0)"/>
     <use xlink:href="#Arial-BoldMT-74" transform="translate(1494.433594 0)"/>
     <use xlink:href="#Arial-BoldMT-65" transform="translate(1527.734375 0)"/>
     <use xlink:href="#Arial-BoldMT-78" transform="translate(1583.349609 0)"/>
     <use xlink:href="#Arial-BoldMT-74" transform="translate(1638.964844 0)"/>
     <use xlink:href="#Arial-BoldMT-2c" transform="translate(1672.265625 0)"/>
     <use xlink:href="#Arial-BoldMT-20" transform="translate(1700.048828 0)"/>
     <use xlink:href="#Arial-BoldMT-63" transform="translate(1727.832031 0)"/>
     <use xlink:href="#Arial-BoldMT-72" transform="translate(1783.447266 0)"/>
     <use xlink:href="#Arial-BoldMT-65" transform="translate(1822.363281 0)"/>
     <use xlink:href="#Arial-BoldMT-61" transform="translate(1877.978516 0)"/>
     <use xlink:href="#Arial-BoldMT-74" transform="translate(1933.59375 0)"/>
     <use xlink:href="#Arial-BoldMT-69" transform="translate(1966.894531 0)"/>
     <use xlink:href="#Arial-BoldMT-6e" transform="translate(1994.677734 0)"/>
     <use xlink:href="#Arial-BoldMT-67" transform="translate(2055.761719 0)"/>
     <use xlink:href="#Arial-BoldMT-20" transform="translate(2116.845703 0)"/>
     <use xlink:href="#Arial-BoldMT-28" transform="translate(2144.628906 0)"/>
     <use xlink:href="#Arial-BoldMT-63" transform="translate(2177.929688 0)"/>
     <use xlink:href="#Arial-BoldMT-6f" transform="translate(2233.544922 0)"/>
     <use xlink:href="#Arial-BoldMT-6e" transform="translate(2294.628906 0)"/>
     <use xlink:href="#Arial-BoldMT-74" transform="translate(2355.712891 0)"/>
     <use xlink:href="#Arial-BoldMT-65" transform="translate(2389.013672 0)"/>
     <use xlink:href="#Arial-BoldMT-78" transform="translate(2444.628906 0)"/>
     <use xlink:href="#Arial-BoldMT-74" transform="translate(2500.244141 0)"/>
     <use xlink:href="#Arial-BoldMT-2c" transform="translate(2533.544922 0)"/>
     <use xlink:href="#Arial-BoldMT-20" transform="translate(2561.328125 0)"/>
     <use xlink:href="#Arial-BoldMT-74" transform="translate(2589.111328 0)"/>
     <use xlink:href="#Arial-BoldMT-61" transform="translate(2622.412109 0)"/>
     <use xlink:href="#Arial-BoldMT-72" transform="translate(2678.027344 0)"/>
     <use xlink:href="#Arial-BoldMT-67" transform="translate(2716.943359 0)"/>
     <use xlink:href="#Arial-BoldMT-65" transform="translate(2778.027344 0)"/>
     <use xlink:href="#Arial-BoldMT-74" transform="translate(2833.642578 0)"/>
     <use xlink:href="#Arial-BoldMT-29" transform="translate(2866.943359 0)"/>
     <use xlink:href="#Arial-BoldMT-20" transform="translate(2900.244141 0)"/>
     <use xlink:href="#Arial-BoldMT-70" transform="translate(2928.027344 0)"/>
     <use xlink:href="#Arial-BoldMT-61" transform="translate(2989.111328 0)"/>
     <use xlink:href="#Arial-BoldMT-69" transform="translate(3044.726562 0)"/>
     <use xlink:href="#Arial-BoldMT-72" transform="translate(3072.509766 0)"/>
     <use xlink:href="#Arial-BoldMT-73" transform="translate(3111.425781 0)"/>
     <use xlink:href="#Arial-BoldMT-20" transform="translate(3167.041016 0)"/>
     <use xlink:href="#Arial-BoldMT-66" transform="translate(3194.824219 0)"/>
     <use xlink:href="#Arial-BoldMT-6f" transform="translate(3228.125 0)"/>
     <use xlink:href="#Arial-BoldMT-72" transform="translate(3289.208984 0)"/>
     <use xlink:href="#Arial-BoldMT-20" transform="translate(3328.125 0)"/>
     <use xlink:href="#Arial-BoldMT-74" transform="translate(3355.908203 0)"/>
     <use xlink:href="#Arial-BoldMT-72" transform="translate(3389.208984 0)"/>
     <use xlink:href="#Arial-BoldMT-61" transform="translate(3428.125 0)"/>
     <use xlink:href="#Arial-BoldMT-69" transform="translate(3483.740234 0)"/>
     <use xlink:href="#Arial-BoldMT-6e" transform="translate(3511.523438 0)"/>
     <use xlink:href="#Arial-BoldMT-69" transform="translate(3572.607422 0)"/>
     <use xlink:href="#Arial-BoldMT-6e" transform="translate(3600.390625 0)"/>
     <use xlink:href="#Arial-BoldMT-67" transform="translate(3661.474609 0)"/>
    </g>
   </g>
  </g>
 </g>
 <defs>
  <clipPath id="p5c0775252c">
   <rect x="7.2" y="7.2" width="986.4" height="554.4"/>
  </clipPath>
 </defs>
</svg>
