<?xml version="1.0" encoding="utf-8" standalone="no"?>
<!DOCTYPE svg PUBLIC "-//W3C//DTD SVG 1.1//EN"
  "http://www.w3.org/Graphics/SVG/1.1/DTD/svg11.dtd">
<svg xmlns:xlink="http://www.w3.org/1999/xlink" width="568.8pt" height="712.724062pt" viewBox="0 0 568.8 712.724062" xmlns="http://www.w3.org/2000/svg" version="1.1">
 <metadata>
  <rdf:RDF xmlns:dc="http://purl.org/dc/elements/1.1/" xmlns:cc="http://creativecommons.org/ns#" xmlns:rdf="http://www.w3.org/1999/02/22-rdf-syntax-ns#">
   <cc:Work>
    <dc:type rdf:resource="http://purl.org/dc/dcmitype/StillImage"/>
    <dc:date>2025-12-29T10:02:19.128687</dc:date>
    <dc:format>image/svg+xml</dc:format>
    <dc:creator>
     <cc:Agent>
      <dc:title>Matplotlib v3.10.1, https://matplotlib.org/</dc:title>
     </cc:Agent>
    </dc:creator>
   </cc:Work>
  </rdf:RDF>
 </metadata>
 <defs>
  <style type="text/css">*{stroke-linejoin: round; stroke-linecap: butt}</style>
 </defs>
 <g id="figure_1">
  <g id="patch_1">
   <path d="M 0 712.724062 
L 568.8 712.724062 
L 568.8 0 
L 0 0 
z
" style="fill: #f8f9fa"/>
  </g>
  <g id="axes_1">
   <g id="patch_2">
    <path d="M 118.08 133.245662 
L 450.72 133.245662 
Q 461.808 133.245662 461.808 119.936862 
L 461.808 66.701662 
Q 461.808 53.392862 450.72 53.392862 
L 118.08 53.392862 
Q 106.992 53.392862 106.992 66.701662 
L 106.992 119.936862 
Q 106.992 133.245662 118.08 133.245662 
z
" clip-path="url(#p13524e1b57)" style="fill: #e3f2fd; opacity: 0.9; stroke: #2e86ab; stroke-width: 2; stroke-linejoin: miter"/>
   </g>
   <g id="patch_3">
    <path d="M 118.08 239.716062 
L 450.72 239.716062 
Q 461.808 239.716062 461.808 226.407262 
L 461.808 146.554462 
Q 461.808 133.245662 450.72 133.245662 
L 118.08 133.245662 
Q 106.992 133.245662 106.992 146.554462 
L 106.992 226.407262 
Q 106.992 239.716062 118.08 239.716062 
z
" clip-path="url(#p13524e1b57)" style="fill: #c8e6c9; opacity: 0.9; stroke: #06a77d; stroke-width: 2; stroke-linejoin: miter"/>
   </g>
   <g id="patch_4">
    <path d="M 118.08 332.877662 
L 450.72 332.877662 
Q 461.808 332.877662 461.808 319.568862 
L 461.808 266.333663 
Q 461.808 253.024862 450.72 253.024862 
L 118.08 253.024862 
Q 106.992 253.024862 106.992 266.333663 
L 106.992 319.568862 
Q 106.992 332.877662 118.08 332.877662 
z
" clip-path="url(#p13524e1b57)" style="fill: #eceff1; opacity: 0.9; stroke: #607d8b; stroke-width: 2; stroke-linejoin: miter"/>
   </g>
   <g id="patch_5">
    <path d="M 118.08 439.348062 
L 450.72 439.348062 
Q 461.808 439.348062 461.808 426.039262 
L 461.808 346.186463 
Q 461.808 332.877662 450.72 332.877662 
L 118.08 332.877662 
Q 106.992 332.877662 106.992 346.186463 
L 106.992 426.039262 
Q 106.992 439.348062 118.08 439.348062 
z
" clip-path="url(#p13524e1b57)" style="fill: #fff9c4; opacity: 0.9; stroke: #f6ae2d; stroke-width: 2; stroke-linejoin: miter"/>
   </g>
   <g id="patch_6">
    <path d="M 118.08 532.509662 
L 450.72 532.509662 
Q 461.808 532.509662 461.808 519.200862 
L 461.808 465.965662 
Q 461.808 452.656862 450.72 452.656862 
L 118.08 452.656862 
Q 106.992 452.656862 106.992 465.965662 
L 106.992 519.200862 
Q 106.992 532.509662 118.08 532.509662 
z
" clip-path="url(#p13524e1b57)" style="fill: #eceff1; opacity: 0.9; stroke: #607d8b; stroke-width: 2; stroke-linejoin: miter"/>
   </g>
   <g id="patch_7">
    <path d="M 118.08 638.980062 
L 450.72 638.980062 
Q 461.808 638.980062 461.808 625.671262 
L 461.808 572.436062 
Q 461.808 559.127262 450.72 559.127262 
L 118.08 559.127262 
Q 106.992 559.127262 106.992 572.436062 
L 106.992 625.671262 
Q 106.992 638.980062 118.08 638.980062 
z
" clip-path="url(#p13524e1b57)" style="fill: #ffccbc; opacity: 0.9; stroke: #e63946; stroke-width: 2; stroke-linejoin: miter"/>
   </g>
   <g id="text_1">
    <!-- Input Embeddings -->
    <g transform="translate(227.712891 96.603794) scale(0.13 -0.13)">
     <defs>
      <path id="Arial-BoldMT-49" d="M 438 0 
L 438 4581 
L 1363 4581 
L 1363 0 
L 438 0 
z
" transform="scale(0.015625)"/>
      <path id="Arial-BoldMT-6e" d="M 3478 0 
L 2600 0 
L 2600 1694 
Q 2600 2231 2544 2389 
Q 2488 2547 2361 2634 
Q 2234 2722 2056 2722 
Q 1828 2722 1647 2597 
Q 1466 2472 1398 2265 
Q 1331 2059 1331 1503 
L 1331 0 
L 453 0 
L 453 3319 
L 1269 3319 
L 1269 2831 
Q 1703 3394 2363 3394 
Q 2653 3394 2893 3289 
Q 3134 3184 3257 3021 
Q 3381 2859 3429 2653 
Q 3478 2447 3478 2063 
L 3478 0 
z
" transform="scale(0.015625)"/>
      <path id="Arial-BoldMT-70" d="M 434 3319 
L 1253 3319 
L 1253 2831 
Q 1413 3081 1684 3237 
Q 1956 3394 2288 3394 
Q 2866 3394 3269 2941 
Q 3672 2488 3672 1678 
Q 3672 847 3265 386 
Q 2859 -75 2281 -75 
Q 2006 -75 1782 34 
Q 1559 144 1313 409 
L 1313 -1263 
L 434 -1263 
L 434 3319 
z
M 1303 1716 
Q 1303 1156 1525 889 
Q 1747 622 2066 622 
Q 2372 622 2575 867 
Q 2778 1113 2778 1672 
Q 2778 2194 2568 2447 
Q 2359 2700 2050 2700 
Q 1728 2700 1515 2451 
Q 1303 2203 1303 1716 
z
" transform="scale(0.015625)"/>
      <path id="Arial-BoldMT-75" d="M 2644 0 
L 2644 497 
Q 2463 231 2167 78 
Q 1872 -75 1544 -75 
Q 1209 -75 943 72 
Q 678 219 559 484 
Q 441 750 441 1219 
L 441 3319 
L 1319 3319 
L 1319 1794 
Q 1319 1094 1367 936 
Q 1416 778 1544 686 
Q 1672 594 1869 594 
Q 2094 594 2272 717 
Q 2450 841 2515 1023 
Q 2581 1206 2581 1919 
L 2581 3319 
L 3459 3319 
L 3459 0 
L 2644 0 
z
" transform="scale(0.015625)"/>
      <path id="Arial-BoldMT-74" d="M 1981 3319 
L 1981 2619 
L 1381 2619 
L 1381 1281 
Q 1381 875 1398 808 
Q 1416 741 1477 697 
Q 1538 653 1625 653 
Q 1747 653 1978 738 
L 2053 56 
Q 1747 -75 1359 -75 
Q 1122 -75 931 4 
Q 741 84 652 211 
Q 563 338 528 553 
Q 500 706 500 1172 
L 500 2619 
L 97 2619 
L 97 3319 
L 500 3319 
L 500 3978 
L 1381 4491 
L 1381 3319 
L 1981 3319 
z
" transform="scale(0.015625)"/>
      <path id="Arial-BoldMT-20" transform="scale(0.015625)"/>
      <path id="Arial-BoldMT-45" d="M 466 0 
L 466 4581 
L 3863 4581 
L 3863 3806 
L 1391 3806 
L 1391 2791 
L 3691 2791 
L 3691 2019 
L 1391 2019 
L 1391 772 
L 3950 772 
L 3950 0 
L 466 0 
z
" transform="scale(0.015625)"/>
      <path id="Arial-BoldMT-6d" d="M 394 3319 
L 1203 3319 
L 1203 2866 
Q 1638 3394 2238 3394 
Q 2556 3394 2790 3262 
Q 3025 3131 3175 2866 
Q 3394 3131 3647 3262 
Q 3900 3394 4188 3394 
Q 4553 3394 4806 3245 
Q 5059 3097 5184 2809 
Q 5275 2597 5275 2122 
L 5275 0 
L 4397 0 
L 4397 1897 
Q 4397 2391 4306 2534 
Q 4184 2722 3931 2722 
Q 3747 2722 3584 2609 
Q 3422 2497 3350 2280 
Q 3278 2063 3278 1594 
L 3278 0 
L 2400 0 
L 2400 1819 
Q 2400 2303 2353 2443 
Q 2306 2584 2207 2653 
Q 2109 2722 1941 2722 
Q 1738 2722 1575 2612 
Q 1413 2503 1342 2297 
Q 1272 2091 1272 1613 
L 1272 0 
L 394 0 
L 394 3319 
z
" transform="scale(0.015625)"/>
      <path id="Arial-BoldMT-62" d="M 422 0 
L 422 4581 
L 1300 4581 
L 1300 2931 
Q 1706 3394 2263 3394 
Q 2869 3394 3266 2955 
Q 3663 2516 3663 1694 
Q 3663 844 3258 384 
Q 2853 -75 2275 -75 
Q 1991 -75 1714 67 
Q 1438 209 1238 488 
L 1238 0 
L 422 0 
z
M 1294 1731 
Q 1294 1216 1456 969 
Q 1684 619 2063 619 
Q 2353 619 2558 867 
Q 2763 1116 2763 1650 
Q 2763 2219 2556 2470 
Q 2350 2722 2028 2722 
Q 1713 2722 1503 2476 
Q 1294 2231 1294 1731 
z
" transform="scale(0.015625)"/>
      <path id="Arial-BoldMT-65" d="M 2381 1056 
L 3256 909 
Q 3088 428 2723 176 
Q 2359 -75 1813 -75 
Q 947 -75 531 491 
Q 203 944 203 1634 
Q 203 2459 634 2926 
Q 1066 3394 1725 3394 
Q 2466 3394 2894 2905 
Q 3322 2416 3303 1406 
L 1103 1406 
Q 1113 1016 1316 798 
Q 1519 581 1822 581 
Q 2028 581 2168 693 
Q 2309 806 2381 1056 
z
M 2431 1944 
Q 2422 2325 2234 2523 
Q 2047 2722 1778 2722 
Q 1491 2722 1303 2513 
Q 1116 2303 1119 1944 
L 2431 1944 
z
" transform="scale(0.015625)"/>
      <path id="Arial-BoldMT-64" d="M 3503 0 
L 2688 0 
L 2688 488 
Q 2484 203 2207 64 
Q 1931 -75 1650 -75 
Q 1078 -75 670 386 
Q 263 847 263 1672 
Q 263 2516 659 2955 
Q 1056 3394 1663 3394 
Q 2219 3394 2625 2931 
L 2625 4581 
L 3503 4581 
L 3503 0 
z
M 1159 1731 
Q 1159 1200 1306 963 
Q 1519 619 1900 619 
Q 2203 619 2415 876 
Q 2628 1134 2628 1647 
Q 2628 2219 2422 2470 
Q 2216 2722 1894 2722 
Q 1581 2722 1370 2473 
Q 1159 2225 1159 1731 
z
" transform="scale(0.015625)"/>
      <path id="Arial-BoldMT-69" d="M 459 3769 
L 459 4581 
L 1338 4581 
L 1338 3769 
L 459 3769 
z
M 459 0 
L 459 3319 
L 1338 3319 
L 1338 0 
L 459 0 
z
" transform="scale(0.015625)"/>
      <path id="Arial-BoldMT-67" d="M 378 -219 
L 1381 -341 
Q 1406 -516 1497 -581 
Q 1622 -675 1891 -675 
Q 2234 -675 2406 -572 
Q 2522 -503 2581 -350 
Q 2622 -241 2622 53 
L 2622 538 
Q 2228 0 1628 0 
Q 959 0 569 566 
Q 263 1013 263 1678 
Q 263 2513 664 2953 
Q 1066 3394 1663 3394 
Q 2278 3394 2678 2853 
L 2678 3319 
L 3500 3319 
L 3500 341 
Q 3500 -247 3403 -537 
Q 3306 -828 3131 -993 
Q 2956 -1159 2664 -1253 
Q 2372 -1347 1925 -1347 
Q 1081 -1347 728 -1058 
Q 375 -769 375 -325 
Q 375 -281 378 -219 
z
M 1163 1728 
Q 1163 1200 1367 954 
Q 1572 709 1872 709 
Q 2194 709 2416 961 
Q 2638 1213 2638 1706 
Q 2638 2222 2425 2472 
Q 2213 2722 1888 2722 
Q 1572 2722 1367 2476 
Q 1163 2231 1163 1728 
z
" transform="scale(0.015625)"/>
      <path id="Arial-BoldMT-73" d="M 150 947 
L 1031 1081 
Q 1088 825 1259 692 
Q 1431 559 1741 559 
Q 2081 559 2253 684 
Q 2369 772 2369 919 
Q 2369 1019 2306 1084 
Q 2241 1147 2013 1200 
Q 950 1434 666 1628 
Q 272 1897 272 2375 
Q 272 2806 612 3100 
Q 953 3394 1669 3394 
Q 2350 3394 2681 3172 
Q 3013 2950 3138 2516 
L 2309 2363 
Q 2256 2556 2107 2659 
Q 1959 2763 1684 2763 
Q 1338 2763 1188 2666 
Q 1088 2597 1088 2488 
Q 1088 2394 1175 2328 
Q 1294 2241 1995 2081 
Q 2697 1922 2975 1691 
Q 3250 1456 3250 1038 
Q 3250 581 2869 253 
Q 2488 -75 1741 -75 
Q 1063 -75 667 200 
Q 272 475 150 947 
z
" transform="scale(0.015625)"/>
     </defs>
     <use xlink:href="#Arial-BoldMT-49"/>
     <use xlink:href="#Arial-BoldMT-6e" transform="translate(27.783203 0)"/>
     <use xlink:href="#Arial-BoldMT-70" transform="translate(88.867188 0)"/>
     <use xlink:href="#Arial-BoldMT-75" transform="translate(149.951172 0)"/>
     <use xlink:href="#Arial-BoldMT-74" transform="translate(211.035156 0)"/>
     <use xlink:href="#Arial-BoldMT-20" transform="translate(244.335938 0)"/>
     <use xlink:href="#Arial-BoldMT-45" transform="translate(272.119141 0)"/>
     <use xlink:href="#Arial-BoldMT-6d" transform="translate(338.818359 0)"/>
     <use xlink:href="#Arial-BoldMT-62" transform="translate(427.734375 0)"/>
     <use xlink:href="#Arial-BoldMT-65" transform="translate(488.818359 0)"/>
     <use xlink:href="#Arial-BoldMT-64" transform="translate(544.433594 0)"/>
     <use xlink:href="#Arial-BoldMT-64" transform="translate(605.517578 0)"/>
     <use xlink:href="#Arial-BoldMT-69" transform="translate(666.601562 0)"/>
     <use xlink:href="#Arial-BoldMT-6e" transform="translate(694.384766 0)"/>
     <use xlink:href="#Arial-BoldMT-67" transform="translate(755.46875 0)"/>
     <use xlink:href="#Arial-BoldMT-73" transform="translate(816.552734 0)"/>
    </g>
   </g>
   <g id="patch_8">
    <path d="M 284.4 121.935132 
Q 284.4 133.245539 284.4 142.319877 
" style="fill: none; stroke: #000000; stroke-width: 2; stroke-linecap: round"/>
    <path d="M 286.4 138.319877 
L 284.4 142.319877 
L 282.4 138.319877 
" style="fill: none; stroke: #000000; stroke-width: 2; stroke-linecap: round"/>
   </g>
   <g id="text_2">
    <!-- Multi-Head -->
    <g transform="translate(251.181953 182.984878) scale(0.13 -0.13)">
     <defs>
      <path id="Arial-BoldMT-4d" d="M 453 0 
L 453 4581 
L 1838 4581 
L 2669 1456 
L 3491 4581 
L 4878 4581 
L 4878 0 
L 4019 0 
L 4019 3606 
L 3109 0 
L 2219 0 
L 1313 3606 
L 1313 0 
L 453 0 
z
" transform="scale(0.015625)"/>
      <path id="Arial-BoldMT-6c" d="M 459 0 
L 459 4581 
L 1338 4581 
L 1338 0 
L 459 0 
z
" transform="scale(0.015625)"/>
      <path id="Arial-BoldMT-2d" d="M 359 1222 
L 359 2100 
L 2084 2100 
L 2084 1222 
L 359 1222 
z
" transform="scale(0.015625)"/>
      <path id="Arial-BoldMT-48" d="M 469 0 
L 469 4581 
L 1394 4581 
L 1394 2778 
L 3206 2778 
L 3206 4581 
L 4131 4581 
L 4131 0 
L 3206 0 
L 3206 2003 
L 1394 2003 
L 1394 0 
L 469 0 
z
" transform="scale(0.015625)"/>
      <path id="Arial-BoldMT-61" d="M 1116 2306 
L 319 2450 
Q 453 2931 781 3162 
Q 1109 3394 1756 3394 
Q 2344 3394 2631 3255 
Q 2919 3116 3036 2902 
Q 3153 2688 3153 2116 
L 3144 1091 
Q 3144 653 3186 445 
Q 3228 238 3344 0 
L 2475 0 
Q 2441 88 2391 259 
Q 2369 338 2359 363 
Q 2134 144 1878 34 
Q 1622 -75 1331 -75 
Q 819 -75 523 203 
Q 228 481 228 906 
Q 228 1188 362 1408 
Q 497 1628 739 1745 
Q 981 1863 1438 1950 
Q 2053 2066 2291 2166 
L 2291 2253 
Q 2291 2506 2166 2614 
Q 2041 2722 1694 2722 
Q 1459 2722 1328 2630 
Q 1197 2538 1116 2306 
z
M 2291 1594 
Q 2122 1538 1756 1459 
Q 1391 1381 1278 1306 
Q 1106 1184 1106 997 
Q 1106 813 1243 678 
Q 1381 544 1594 544 
Q 1831 544 2047 700 
Q 2206 819 2256 991 
Q 2291 1103 2291 1419 
L 2291 1594 
z
" transform="scale(0.015625)"/>
     </defs>
     <use xlink:href="#Arial-BoldMT-4d"/>
     <use xlink:href="#Arial-BoldMT-75" transform="translate(83.300781 0)"/>
     <use xlink:href="#Arial-BoldMT-6c" transform="translate(144.384766 0)"/>
     <use xlink:href="#Arial-BoldMT-74" transform="translate(172.167969 0)"/>
     <use xlink:href="#Arial-BoldMT-69" transform="translate(205.46875 0)"/>
     <use xlink:href="#Arial-BoldMT-2d" transform="translate(233.251953 0)"/>
     <use xlink:href="#Arial-BoldMT-48" transform="translate(266.552734 0)"/>
     <use xlink:href="#Arial-BoldMT-65" transform="translate(338.769531 0)"/>
     <use xlink:href="#Arial-BoldMT-61" transform="translate(394.384766 0)"/>
     <use xlink:href="#Arial-BoldMT-64" transform="translate(450 0)"/>
    </g>
    <!-- Self-Attention -->
    <g transform="translate(241.797578 196.716534) scale(0.13 -0.13)">
     <defs>
      <path id="Arial-BoldMT-53" d="M 231 1491 
L 1131 1578 
Q 1213 1125 1461 912 
Q 1709 700 2131 700 
Q 2578 700 2804 889 
Q 3031 1078 3031 1331 
Q 3031 1494 2936 1608 
Q 2841 1722 2603 1806 
Q 2441 1863 1863 2006 
Q 1119 2191 819 2459 
Q 397 2838 397 3381 
Q 397 3731 595 4036 
Q 794 4341 1167 4500 
Q 1541 4659 2069 4659 
Q 2931 4659 3367 4281 
Q 3803 3903 3825 3272 
L 2900 3231 
Q 2841 3584 2645 3739 
Q 2450 3894 2059 3894 
Q 1656 3894 1428 3728 
Q 1281 3622 1281 3444 
Q 1281 3281 1419 3166 
Q 1594 3019 2269 2859 
Q 2944 2700 3267 2529 
Q 3591 2359 3773 2064 
Q 3956 1769 3956 1334 
Q 3956 941 3737 597 
Q 3519 253 3119 86 
Q 2719 -81 2122 -81 
Q 1253 -81 787 320 
Q 322 722 231 1491 
z
" transform="scale(0.015625)"/>
      <path id="Arial-BoldMT-66" d="M 75 3319 
L 563 3319 
L 563 3569 
Q 563 3988 652 4194 
Q 741 4400 980 4529 
Q 1219 4659 1584 4659 
Q 1959 4659 2319 4547 
L 2200 3934 
Q 1991 3984 1797 3984 
Q 1606 3984 1523 3895 
Q 1441 3806 1441 3553 
L 1441 3319 
L 2097 3319 
L 2097 2628 
L 1441 2628 
L 1441 0 
L 563 0 
L 563 2628 
L 75 2628 
L 75 3319 
z
" transform="scale(0.015625)"/>
      <path id="Arial-BoldMT-41" d="M 4597 0 
L 3591 0 
L 3191 1041 
L 1359 1041 
L 981 0 
L 0 0 
L 1784 4581 
L 2763 4581 
L 4597 0 
z
M 2894 1813 
L 2263 3513 
L 1644 1813 
L 2894 1813 
z
" transform="scale(0.015625)"/>
      <path id="Arial-BoldMT-6f" d="M 256 1706 
Q 256 2144 472 2553 
Q 688 2963 1083 3178 
Q 1478 3394 1966 3394 
Q 2719 3394 3200 2905 
Q 3681 2416 3681 1669 
Q 3681 916 3195 420 
Q 2709 -75 1972 -75 
Q 1516 -75 1102 131 
Q 688 338 472 736 
Q 256 1134 256 1706 
z
M 1156 1659 
Q 1156 1166 1390 903 
Q 1625 641 1969 641 
Q 2313 641 2545 903 
Q 2778 1166 2778 1666 
Q 2778 2153 2545 2415 
Q 2313 2678 1969 2678 
Q 1625 2678 1390 2415 
Q 1156 2153 1156 1659 
z
" transform="scale(0.015625)"/>
     </defs>
     <use xlink:href="#Arial-BoldMT-53"/>
     <use xlink:href="#Arial-BoldMT-65" transform="translate(66.699219 0)"/>
     <use xlink:href="#Arial-BoldMT-6c" transform="translate(122.314453 0)"/>
     <use xlink:href="#Arial-BoldMT-66" transform="translate(150.097656 0)"/>
     <use xlink:href="#Arial-BoldMT-2d" transform="translate(183.398438 0)"/>
     <use xlink:href="#Arial-BoldMT-41" transform="translate(216.699219 0)"/>
     <use xlink:href="#Arial-BoldMT-74" transform="translate(288.916016 0)"/>
     <use xlink:href="#Arial-BoldMT-74" transform="translate(322.216797 0)"/>
     <use xlink:href="#Arial-BoldMT-65" transform="translate(355.517578 0)"/>
     <use xlink:href="#Arial-BoldMT-6e" transform="translate(411.132812 0)"/>
     <use xlink:href="#Arial-BoldMT-74" transform="translate(472.216797 0)"/>
     <use xlink:href="#Arial-BoldMT-69" transform="translate(505.517578 0)"/>
     <use xlink:href="#Arial-BoldMT-6f" transform="translate(533.300781 0)"/>
     <use xlink:href="#Arial-BoldMT-6e" transform="translate(594.384766 0)"/>
    </g>
   </g>
   <g id="patch_9">
    <path d="M 284.4 228.410406 
Q 284.4 246.36979 284.4 262.093106 
" style="fill: none; stroke: #000000; stroke-width: 2; stroke-linecap: round"/>
    <path d="M 286.4 258.093106 
L 284.4 262.093106 
L 282.4 258.093106 
" style="fill: none; stroke: #000000; stroke-width: 2; stroke-linecap: round"/>
   </g>
   <g id="text_3">
    <!-- Add &amp; LayerNorm -->
    <g transform="translate(229.141875 296.315012) scale(0.13 -0.13)">
     <defs>
      <path id="Arial-BoldMT-26" d="M 4519 559 
L 3988 -119 
Q 3597 72 3238 406 
Q 2959 156 2646 37 
Q 2334 -81 1903 -81 
Q 1047 -81 616 400 
Q 281 772 281 1256 
Q 281 1697 543 2048 
Q 806 2400 1328 2659 
Q 1094 2938 975 3189 
Q 856 3441 856 3666 
Q 856 4081 1189 4370 
Q 1522 4659 2138 4659 
Q 2731 4659 3065 4356 
Q 3400 4053 3400 3616 
Q 3400 3338 3234 3088 
Q 3069 2838 2566 2522 
L 3203 1681 
Q 3316 1881 3397 2203 
L 4191 2022 
Q 4072 1600 3984 1404 
Q 3897 1209 3797 1078 
Q 3944 941 4176 777 
Q 4409 613 4519 559 
z
M 2128 3050 
L 2366 3231 
Q 2628 3434 2628 3634 
Q 2628 3803 2501 3922 
Q 2375 4041 2159 4041 
Q 1950 4041 1831 3936 
Q 1713 3831 1713 3694 
Q 1713 3531 1913 3300 
L 2128 3050 
z
M 1784 2097 
Q 1481 1944 1331 1728 
Q 1181 1513 1181 1288 
Q 1181 1003 1367 823 
Q 1553 644 1866 644 
Q 2072 644 2262 725 
Q 2453 806 2678 994 
L 1784 2097 
z
" transform="scale(0.015625)"/>
      <path id="Arial-BoldMT-4c" d="M 491 0 
L 491 4544 
L 1416 4544 
L 1416 772 
L 3716 772 
L 3716 0 
L 491 0 
z
" transform="scale(0.015625)"/>
      <path id="Arial-BoldMT-79" d="M 44 3319 
L 978 3319 
L 1772 963 
L 2547 3319 
L 3456 3319 
L 2284 125 
L 2075 -453 
Q 1959 -744 1854 -897 
Q 1750 -1050 1614 -1145 
Q 1478 -1241 1279 -1294 
Q 1081 -1347 831 -1347 
Q 578 -1347 334 -1294 
L 256 -606 
Q 463 -647 628 -647 
Q 934 -647 1081 -467 
Q 1228 -288 1306 -9 
L 44 3319 
z
" transform="scale(0.015625)"/>
      <path id="Arial-BoldMT-72" d="M 1300 0 
L 422 0 
L 422 3319 
L 1238 3319 
L 1238 2847 
Q 1447 3181 1614 3287 
Q 1781 3394 1994 3394 
Q 2294 3394 2572 3228 
L 2300 2463 
Q 2078 2606 1888 2606 
Q 1703 2606 1575 2504 
Q 1447 2403 1373 2137 
Q 1300 1872 1300 1025 
L 1300 0 
z
" transform="scale(0.015625)"/>
      <path id="Arial-BoldMT-4e" d="M 475 0 
L 475 4581 
L 1375 4581 
L 3250 1522 
L 3250 4581 
L 4109 4581 
L 4109 0 
L 3181 0 
L 1334 2988 
L 1334 0 
L 475 0 
z
" transform="scale(0.015625)"/>
     </defs>
     <use xlink:href="#Arial-BoldMT-41"/>
     <use xlink:href="#Arial-BoldMT-64" transform="translate(72.216797 0)"/>
     <use xlink:href="#Arial-BoldMT-64" transform="translate(133.300781 0)"/>
     <use xlink:href="#Arial-BoldMT-20" transform="translate(194.384766 0)"/>
     <use xlink:href="#Arial-BoldMT-26" transform="translate(222.167969 0)"/>
     <use xlink:href="#Arial-BoldMT-20" transform="translate(294.384766 0)"/>
     <use xlink:href="#Arial-BoldMT-4c" transform="translate(322.167969 0)"/>
     <use xlink:href="#Arial-BoldMT-61" transform="translate(383.251953 0)"/>
     <use xlink:href="#Arial-BoldMT-79" transform="translate(438.867188 0)"/>
     <use xlink:href="#Arial-BoldMT-65" transform="translate(494.482422 0)"/>
     <use xlink:href="#Arial-BoldMT-72" transform="translate(550.097656 0)"/>
     <use xlink:href="#Arial-BoldMT-4e" transform="translate(589.013672 0)"/>
     <use xlink:href="#Arial-BoldMT-6f" transform="translate(661.230469 0)"/>
     <use xlink:href="#Arial-BoldMT-72" transform="translate(722.314453 0)"/>
     <use xlink:href="#Arial-BoldMT-6d" transform="translate(761.230469 0)"/>
    </g>
   </g>
   <g id="patch_10">
    <path d="M 284.4 321.567132 
Q 284.4 332.877539 284.4 341.951877 
" style="fill: none; stroke: #000000; stroke-width: 2; stroke-linecap: round"/>
    <path d="M 286.4 337.951877 
L 284.4 341.951877 
L 282.4 337.951877 
" style="fill: none; stroke: #000000; stroke-width: 2; stroke-linecap: round"/>
   </g>
   <g id="text_4">
    <!-- Feed-Forward -->
    <g transform="translate(241.425859 382.436503) scale(0.13 -0.13)">
     <defs>
      <path id="Arial-BoldMT-46" d="M 472 0 
L 472 4581 
L 3613 4581 
L 3613 3806 
L 1397 3806 
L 1397 2722 
L 3309 2722 
L 3309 1947 
L 1397 1947 
L 1397 0 
L 472 0 
z
" transform="scale(0.015625)"/>
      <path id="Arial-BoldMT-77" d="M 1078 0 
L 28 3319 
L 881 3319 
L 1503 1144 
L 2075 3319 
L 2922 3319 
L 3475 1144 
L 4109 3319 
L 4975 3319 
L 3909 0 
L 3066 0 
L 2494 2134 
L 1931 0 
L 1078 0 
z
" transform="scale(0.015625)"/>
     </defs>
     <use xlink:href="#Arial-BoldMT-46"/>
     <use xlink:href="#Arial-BoldMT-65" transform="translate(61.083984 0)"/>
     <use xlink:href="#Arial-BoldMT-65" transform="translate(116.699219 0)"/>
     <use xlink:href="#Arial-BoldMT-64" transform="translate(172.314453 0)"/>
     <use xlink:href="#Arial-BoldMT-2d" transform="translate(233.398438 0)"/>
     <use xlink:href="#Arial-BoldMT-46" transform="translate(266.699219 0)"/>
     <use xlink:href="#Arial-BoldMT-6f" transform="translate(327.783203 0)"/>
     <use xlink:href="#Arial-BoldMT-72" transform="translate(388.867188 0)"/>
     <use xlink:href="#Arial-BoldMT-77" transform="translate(427.783203 0)"/>
     <use xlink:href="#Arial-BoldMT-61" transform="translate(505.566406 0)"/>
     <use xlink:href="#Arial-BoldMT-72" transform="translate(561.181641 0)"/>
     <use xlink:href="#Arial-BoldMT-64" transform="translate(600.097656 0)"/>
    </g>
    <!-- Network (MLP) -->
    <g transform="translate(238.902031 396.358284) scale(0.13 -0.13)">
     <defs>
      <path id="Arial-BoldMT-6b" d="M 428 0 
L 428 4581 
L 1306 4581 
L 1306 2150 
L 2334 3319 
L 3416 3319 
L 2281 2106 
L 3497 0 
L 2550 0 
L 1716 1491 
L 1306 1063 
L 1306 0 
L 428 0 
z
" transform="scale(0.015625)"/>
      <path id="Arial-BoldMT-28" d="M 1916 -1347 
L 1313 -1347 
Q 834 -625 584 153 
Q 334 931 334 1659 
Q 334 2563 644 3369 
Q 913 4069 1325 4659 
L 1925 4659 
Q 1497 3713 1336 3048 
Q 1175 2384 1175 1641 
Q 1175 1128 1270 590 
Q 1366 53 1531 -431 
Q 1641 -750 1916 -1347 
z
" transform="scale(0.015625)"/>
      <path id="Arial-BoldMT-50" d="M 466 0 
L 466 4581 
L 1950 4581 
Q 2794 4581 3050 4513 
Q 3444 4409 3709 4064 
Q 3975 3719 3975 3172 
Q 3975 2750 3822 2462 
Q 3669 2175 3433 2011 
Q 3197 1847 2953 1794 
Q 2622 1728 1994 1728 
L 1391 1728 
L 1391 0 
L 466 0 
z
M 1391 3806 
L 1391 2506 
L 1897 2506 
Q 2444 2506 2628 2578 
Q 2813 2650 2917 2803 
Q 3022 2956 3022 3159 
Q 3022 3409 2875 3571 
Q 2728 3734 2503 3775 
Q 2338 3806 1838 3806 
L 1391 3806 
z
" transform="scale(0.015625)"/>
      <path id="Arial-BoldMT-29" d="M 216 -1347 
Q 475 -791 581 -494 
Q 688 -197 778 190 
Q 869 578 912 926 
Q 956 1275 956 1641 
Q 956 2384 797 3048 
Q 638 3713 209 4659 
L 806 4659 
Q 1278 3988 1539 3234 
Q 1800 2481 1800 1706 
Q 1800 1053 1594 306 
Q 1359 -531 822 -1347 
L 216 -1347 
z
" transform="scale(0.015625)"/>
     </defs>
     <use xlink:href="#Arial-BoldMT-4e"/>
     <use xlink:href="#Arial-BoldMT-65" transform="translate(72.216797 0)"/>
     <use xlink:href="#Arial-BoldMT-74" transform="translate(127.832031 0)"/>
     <use xlink:href="#Arial-BoldMT-77" transform="translate(161.132812 0)"/>
     <use xlink:href="#Arial-BoldMT-6f" transform="translate(238.916016 0)"/>
     <use xlink:href="#Arial-BoldMT-72" transform="translate(300 0)"/>
     <use xlink:href="#Arial-BoldMT-6b" transform="translate(338.916016 0)"/>
     <use xlink:href="#Arial-BoldMT-20" transform="translate(394.53125 0)"/>
     <use xlink:href="#Arial-BoldMT-28" transform="translate(422.314453 0)"/>
     <use xlink:href="#Arial-BoldMT-4d" transform="translate(455.615234 0)"/>
     <use xlink:href="#Arial-BoldMT-4c" transform="translate(538.916016 0)"/>
     <use xlink:href="#Arial-BoldMT-50" transform="translate(600 0)"/>
     <use xlink:href="#Arial-BoldMT-29" transform="translate(666.699219 0)"/>
    </g>
   </g>
   <g id="patch_11">
    <path d="M 284.4 428.042406 
Q 284.4 446.00179 284.4 461.725106 
" style="fill: none; stroke: #000000; stroke-width: 2; stroke-linecap: round"/>
    <path d="M 286.4 457.725106 
L 284.4 461.725106 
L 282.4 457.725106 
" style="fill: none; stroke: #000000; stroke-width: 2; stroke-linecap: round"/>
   </g>
   <g id="text_5">
    <!-- Add &amp; LayerNorm -->
    <g transform="translate(229.141875 495.947012) scale(0.13 -0.13)">
     <use xlink:href="#Arial-BoldMT-41"/>
     <use xlink:href="#Arial-BoldMT-64" transform="translate(72.216797 0)"/>
     <use xlink:href="#Arial-BoldMT-64" transform="translate(133.300781 0)"/>
     <use xlink:href="#Arial-BoldMT-20" transform="translate(194.384766 0)"/>
     <use xlink:href="#Arial-BoldMT-26" transform="translate(222.167969 0)"/>
     <use xlink:href="#Arial-BoldMT-20" transform="translate(294.384766 0)"/>
     <use xlink:href="#Arial-BoldMT-4c" transform="translate(322.167969 0)"/>
     <use xlink:href="#Arial-BoldMT-61" transform="translate(383.251953 0)"/>
     <use xlink:href="#Arial-BoldMT-79" transform="translate(438.867188 0)"/>
     <use xlink:href="#Arial-BoldMT-65" transform="translate(494.482422 0)"/>
     <use xlink:href="#Arial-BoldMT-72" transform="translate(550.097656 0)"/>
     <use xlink:href="#Arial-BoldMT-4e" transform="translate(589.013672 0)"/>
     <use xlink:href="#Arial-BoldMT-6f" transform="translate(661.230469 0)"/>
     <use xlink:href="#Arial-BoldMT-72" transform="translate(722.314453 0)"/>
     <use xlink:href="#Arial-BoldMT-6d" transform="translate(761.230469 0)"/>
    </g>
   </g>
   <g id="patch_12">
    <path d="M 284.4 521.199132 
Q 284.4 545.81844 284.4 568.201679 
" style="fill: none; stroke: #000000; stroke-width: 2; stroke-linecap: round"/>
    <path d="M 286.4 564.201679 
L 284.4 568.201679 
L 282.4 564.201679 
" style="fill: none; stroke: #000000; stroke-width: 2; stroke-linecap: round"/>
   </g>
   <g id="text_6">
    <!-- Output -->
    <g transform="translate(263.105391 602.502725) scale(0.13 -0.13)">
     <defs>
      <path id="Arial-BoldMT-4f" d="M 278 2263 
Q 278 2963 488 3438 
Q 644 3788 914 4066 
Q 1184 4344 1506 4478 
Q 1934 4659 2494 4659 
Q 3506 4659 4114 4031 
Q 4722 3403 4722 2284 
Q 4722 1175 4119 548 
Q 3516 -78 2506 -78 
Q 1484 -78 881 545 
Q 278 1169 278 2263 
z
M 1231 2294 
Q 1231 1516 1590 1114 
Q 1950 713 2503 713 
Q 3056 713 3411 1111 
Q 3766 1509 3766 2306 
Q 3766 3094 3420 3481 
Q 3075 3869 2503 3869 
Q 1931 3869 1581 3476 
Q 1231 3084 1231 2294 
z
" transform="scale(0.015625)"/>
     </defs>
     <use xlink:href="#Arial-BoldMT-4f"/>
     <use xlink:href="#Arial-BoldMT-75" transform="translate(77.783203 0)"/>
     <use xlink:href="#Arial-BoldMT-74" transform="translate(138.867188 0)"/>
     <use xlink:href="#Arial-BoldMT-70" transform="translate(172.167969 0)"/>
     <use xlink:href="#Arial-BoldMT-75" transform="translate(233.251953 0)"/>
     <use xlink:href="#Arial-BoldMT-74" transform="translate(294.335938 0)"/>
    </g>
   </g>
   <g id="patch_13">
    <path d="M 460.787063 121.655496 
Q 410.924208 206.444757 459.937738 289.788419 
" style="fill: none; stroke: #e63946; stroke-width: 1.5; stroke-linecap: round"/>
    <path d="M 459.634009 285.326608 
L 459.937738 289.788419 
L 456.186053 287.354315 
" style="fill: none; stroke: #e63946; stroke-width: 1.5; stroke-linecap: round"/>
   </g>
   <g id="text_7">
    <!-- + -->
    <g style="fill: #e63946" transform="translate(517.248 219.752862) scale(0.16 -0.16)">
     <defs>
      <path id="Arial-BoldMT-2b" d="M 1466 659 
L 1466 1850 
L 266 1850 
L 266 2672 
L 1466 2672 
L 1466 3863 
L 2266 3863 
L 2266 2672 
L 3469 2672 
L 3469 1850 
L 2266 1850 
L 2266 659 
L 1466 659 
z
" transform="scale(0.015625)"/>
     </defs>
     <use xlink:href="#Arial-BoldMT-2b"/>
    </g>
   </g>
   <g id="patch_14">
    <path d="M 460.787063 321.287496 
Q 410.924208 406.076757 459.937738 489.420419 
" style="fill: none; stroke: #e63946; stroke-width: 1.5; stroke-linecap: round"/>
    <path d="M 459.634009 484.958608 
L 459.937738 489.420419 
L 456.186053 486.986315 
" style="fill: none; stroke: #e63946; stroke-width: 1.5; stroke-linecap: round"/>
   </g>
   <g id="text_8">
    <!-- + -->
    <g style="fill: #e63946" transform="translate(517.248 419.384862) scale(0.16 -0.16)">
     <use xlink:href="#Arial-BoldMT-2b"/>
    </g>
   </g>
   <g id="text_9">
    <!-- One Transformer Block -->
    <g transform="translate(184.87125 20.084062) scale(0.18 -0.18)">
     <defs>
      <path id="Arial-BoldMT-54" d="M 1497 0 
L 1497 3806 
L 138 3806 
L 138 4581 
L 3778 4581 
L 3778 3806 
L 2422 3806 
L 2422 0 
L 1497 0 
z
" transform="scale(0.015625)"/>
      <path id="Arial-BoldMT-42" d="M 469 4581 
L 2300 4581 
Q 2844 4581 3111 4536 
Q 3378 4491 3589 4347 
Q 3800 4203 3940 3964 
Q 4081 3725 4081 3428 
Q 4081 3106 3907 2837 
Q 3734 2569 3438 2434 
Q 3856 2313 4081 2019 
Q 4306 1725 4306 1328 
Q 4306 1016 4161 720 
Q 4016 425 3764 248 
Q 3513 72 3144 31 
Q 2913 6 2028 0 
L 469 0 
L 469 4581 
z
M 1394 3819 
L 1394 2759 
L 2000 2759 
Q 2541 2759 2672 2775 
Q 2909 2803 3045 2939 
Q 3181 3075 3181 3297 
Q 3181 3509 3064 3642 
Q 2947 3775 2716 3803 
Q 2578 3819 1925 3819 
L 1394 3819 
z
M 1394 1997 
L 1394 772 
L 2250 772 
Q 2750 772 2884 800 
Q 3091 838 3220 983 
Q 3350 1128 3350 1372 
Q 3350 1578 3250 1722 
Q 3150 1866 2961 1931 
Q 2772 1997 2141 1997 
L 1394 1997 
z
" transform="scale(0.015625)"/>
      <path id="Arial-BoldMT-63" d="M 3353 2338 
L 2488 2181 
Q 2444 2441 2289 2572 
Q 2134 2703 1888 2703 
Q 1559 2703 1364 2476 
Q 1169 2250 1169 1719 
Q 1169 1128 1367 884 
Q 1566 641 1900 641 
Q 2150 641 2309 783 
Q 2469 925 2534 1272 
L 3397 1125 
Q 3263 531 2881 228 
Q 2500 -75 1859 -75 
Q 1131 -75 698 384 
Q 266 844 266 1656 
Q 266 2478 700 2936 
Q 1134 3394 1875 3394 
Q 2481 3394 2839 3133 
Q 3197 2872 3353 2338 
z
" transform="scale(0.015625)"/>
     </defs>
     <use xlink:href="#Arial-BoldMT-4f"/>
     <use xlink:href="#Arial-BoldMT-6e" transform="translate(77.783203 0)"/>
     <use xlink:href="#Arial-BoldMT-65" transform="translate(138.867188 0)"/>
     <use xlink:href="#Arial-BoldMT-20" transform="translate(194.482422 0)"/>
     <use xlink:href="#Arial-BoldMT-54" transform="translate(222.265625 0)"/>
     <use xlink:href="#Arial-BoldMT-72" transform="translate(277.849609 0)"/>
     <use xlink:href="#Arial-BoldMT-61" transform="translate(316.765625 0)"/>
     <use xlink:href="#Arial-BoldMT-6e" transform="translate(372.380859 0)"/>
     <use xlink:href="#Arial-BoldMT-73" transform="translate(433.464844 0)"/>
     <use xlink:href="#Arial-BoldMT-66" transform="translate(489.080078 0)"/>
     <use xlink:href="#Arial-BoldMT-6f" transform="translate(522.380859 0)"/>
     <use xlink:href="#Arial-BoldMT-72" transform="translate(583.464844 0)"/>
     <use xlink:href="#Arial-BoldMT-6d" transform="translate(622.380859 0)"/>
     <use xlink:href="#Arial-BoldMT-65" transform="translate(711.296875 0)"/>
     <use xlink:href="#Arial-BoldMT-72" transform="translate(766.912109 0)"/>
     <use xlink:href="#Arial-BoldMT-20" transform="translate(805.828125 0)"/>
     <use xlink:href="#Arial-BoldMT-42" transform="translate(833.611328 0)"/>
     <use xlink:href="#Arial-BoldMT-6c" transform="translate(905.828125 0)"/>
     <use xlink:href="#Arial-BoldMT-6f" transform="translate(933.611328 0)"/>
     <use xlink:href="#Arial-BoldMT-63" transform="translate(994.695312 0)"/>
     <use xlink:href="#Arial-BoldMT-6b" transform="translate(1050.310547 0)"/>
    </g>
   </g>
  </g>
 </g>
 <defs>
  <clipPath id="p13524e1b57">
   <rect x="7.2" y="40.084062" width="554.4" height="665.44"/>
  </clipPath>
 </defs>
</svg>
