<?xml version="1.0" encoding="utf-8" standalone="no"?>
<!DOCTYPE svg PUBLIC "-//W3C//DTD SVG 1.1//EN"
  "http://www.w3.org/Graphics/SVG/1.1/DTD/svg11.dtd">
<svg xmlns:xlink="http://www.w3.org/1999/xlink" width="460.8pt" height="585.437813pt" viewBox="0 0 460.8 585.437813" xmlns="http://www.w3.org/2000/svg" version="1.1">
 <metadata>
  <rdf:RDF xmlns:dc="http://purl.org/dc/elements/1.1/" xmlns:cc="http://creativecommons.org/ns#" xmlns:rdf="http://www.w3.org/1999/02/22-rdf-syntax-ns#">
   <cc:Work>
    <dc:type rdf:resource="http://purl.org/dc/dcmitype/StillImage"/>
    <dc:date>2026-01-31T13:18:57.307320</dc:date>
    <dc:format>image/svg+xml</dc:format>
    <dc:creator>
     <cc:Agent>
      <dc:title>Matplotlib v3.10.8, https://matplotlib.org/</dc:title>
     </cc:Agent>
    </dc:creator>
   </cc:Work>
  </rdf:RDF>
 </metadata>
 <defs>
  <style type="text/css">*{stroke-linejoin: round; stroke-linecap: butt}</style>
 </defs>
 <g id="figure_1">
  <g id="patch_1">
   <path d="M 0 585.437813 
L 460.8 585.437813 
L 460.8 0 
L 0 0 
z
" style="fill: #ffffff"/>
  </g>
  <g id="axes_1">
   <g id="patch_2">
    <path d="M 118.8 533.885813 
L 342 533.885813 
Q 350.928 533.885813 350.928 522.797812 
L 350.928 467.357813 
Q 350.928 456.269813 342 456.269813 
L 118.8 456.269813 
Q 109.872 456.269813 109.872 467.357813 
L 109.872 522.797812 
Q 109.872 533.885813 118.8 533.885813 
z
" clip-path="url(#p34ee30c3ae)" style="fill: #2a9d8f; stroke: #ffffff; stroke-width: 2; stroke-linejoin: miter"/>
   </g>
   <g id="patch_3">
    <path d="M 118.8 450.725813 
L 342 450.725813 
Q 350.928 450.725813 350.928 439.637812 
L 350.928 384.197813 
Q 350.928 373.109813 342 373.109813 
L 118.8 373.109813 
Q 109.872 373.109813 109.872 384.197813 
L 109.872 439.637812 
Q 109.872 450.725813 118.8 450.725813 
z
" clip-path="url(#p34ee30c3ae)" style="fill: #8b5cf6; stroke: #ffffff; stroke-width: 2; stroke-linejoin: miter"/>
   </g>
   <g id="patch_4">
    <path d="M 118.8 367.565812 
L 342 367.565812 
Q 350.928 367.565812 350.928 356.477813 
L 350.928 301.037813 
Q 350.928 289.949813 342 289.949813 
L 118.8 289.949813 
Q 109.872 289.949813 109.872 301.037813 
L 109.872 356.477813 
Q 109.872 367.565812 118.8 367.565812 
z
" clip-path="url(#p34ee30c3ae)" style="fill: #e9c46a; stroke: #ffffff; stroke-width: 2; stroke-linejoin: miter"/>
   </g>
   <g id="patch_5">
    <path d="M 118.8 284.405813 
L 342 284.405813 
Q 350.928 284.405813 350.928 273.317813 
L 350.928 217.877813 
Q 350.928 206.789813 342 206.789813 
L 118.8 206.789813 
Q 109.872 206.789813 109.872 217.877813 
L 109.872 273.317813 
Q 109.872 284.405813 118.8 284.405813 
z
" clip-path="url(#p34ee30c3ae)" style="fill: #3b82f6; stroke: #ffffff; stroke-width: 2; stroke-linejoin: miter"/>
   </g>
   <g id="patch_6">
    <path d="M 118.8 201.245813 
L 342 201.245813 
Q 350.928 201.245813 350.928 190.157813 
L 350.928 134.717813 
Q 350.928 123.629813 342 123.629813 
L 118.8 123.629813 
Q 109.872 123.629813 109.872 134.717813 
L 109.872 190.157813 
Q 109.872 201.245813 118.8 201.245813 
z
" clip-path="url(#p34ee30c3ae)" style="fill: #e9c46a; stroke: #ffffff; stroke-width: 2; stroke-linejoin: miter"/>
   </g>
   <g id="patch_7">
    <path d="M 118.8 118.085813 
L 342 118.085813 
Q 350.928 118.085813 350.928 106.997813 
L 350.928 51.557813 
Q 350.928 40.469813 342 40.469813 
L 118.8 40.469813 
Q 109.872 40.469813 109.872 51.557813 
L 109.872 106.997813 
Q 109.872 118.085813 118.8 118.085813 
z
" clip-path="url(#p34ee30c3ae)" style="fill: #1e3a5f; stroke: #ffffff; stroke-width: 2; stroke-linejoin: miter"/>
   </g>
   <g id="text_1">
    <!-- Output -->
    <g style="fill: #ffffff" transform="translate(208.699062 498.113125) scale(0.11 -0.11)">
     <defs>
      <path id="DejaVuSans-Bold-4f" d="M 2719 3878 
Q 2169 3878 1866 3472 
Q 1563 3066 1563 2328 
Q 1563 1594 1866 1187 
Q 2169 781 2719 781 
Q 3272 781 3575 1187 
Q 3878 1594 3878 2328 
Q 3878 3066 3575 3472 
Q 3272 3878 2719 3878 
z
M 2719 4750 
Q 3844 4750 4481 4106 
Q 5119 3463 5119 2328 
Q 5119 1197 4481 553 
Q 3844 -91 2719 -91 
Q 1597 -91 958 553 
Q 319 1197 319 2328 
Q 319 3463 958 4106 
Q 1597 4750 2719 4750 
z
" transform="scale(0.015625)"/>
      <path id="DejaVuSans-Bold-75" d="M 500 1363 
L 500 3500 
L 1625 3500 
L 1625 3150 
Q 1625 2866 1622 2436 
Q 1619 2006 1619 1863 
Q 1619 1441 1641 1255 
Q 1663 1069 1716 984 
Q 1784 875 1895 815 
Q 2006 756 2150 756 
Q 2500 756 2700 1025 
Q 2900 1294 2900 1772 
L 2900 3500 
L 4019 3500 
L 4019 0 
L 2900 0 
L 2900 506 
Q 2647 200 2364 54 
Q 2081 -91 1741 -91 
Q 1134 -91 817 281 
Q 500 653 500 1363 
z
" transform="scale(0.015625)"/>
      <path id="DejaVuSans-Bold-74" d="M 1759 4494 
L 1759 3500 
L 2913 3500 
L 2913 2700 
L 1759 2700 
L 1759 1216 
Q 1759 972 1856 886 
Q 1953 800 2241 800 
L 2816 800 
L 2816 0 
L 1856 0 
Q 1194 0 917 276 
Q 641 553 641 1216 
L 641 2700 
L 84 2700 
L 84 3500 
L 641 3500 
L 641 4494 
L 1759 4494 
z
" transform="scale(0.015625)"/>
      <path id="DejaVuSans-Bold-70" d="M 1656 506 
L 1656 -1331 
L 538 -1331 
L 538 3500 
L 1656 3500 
L 1656 2988 
Q 1888 3294 2169 3439 
Q 2450 3584 2816 3584 
Q 3463 3584 3878 3070 
Q 4294 2556 4294 1747 
Q 4294 938 3878 423 
Q 3463 -91 2816 -91 
Q 2450 -91 2169 54 
Q 1888 200 1656 506 
z
M 2400 2772 
Q 2041 2772 1848 2508 
Q 1656 2244 1656 1747 
Q 1656 1250 1848 986 
Q 2041 722 2400 722 
Q 2759 722 2948 984 
Q 3138 1247 3138 1747 
Q 3138 2247 2948 2509 
Q 2759 2772 2400 2772 
z
" transform="scale(0.015625)"/>
     </defs>
     <use xlink:href="#DejaVuSans-Bold-4f"/>
     <use xlink:href="#DejaVuSans-Bold-75" transform="translate(85.009766 0)"/>
     <use xlink:href="#DejaVuSans-Bold-74" transform="translate(156.201172 0)"/>
     <use xlink:href="#DejaVuSans-Bold-70" transform="translate(204.003906 0)"/>
     <use xlink:href="#DejaVuSans-Bold-75" transform="translate(275.585938 0)"/>
     <use xlink:href="#DejaVuSans-Bold-74" transform="translate(346.777344 0)"/>
    </g>
   </g>
   <g id="patch_8">
    <path d="M 230.4 441.637632 
Q 230.4 453.497737 230.4 463.121774 
" style="fill: none; stroke: #4a5568; stroke-width: 2; stroke-linecap: round"/>
    <path d="M 232.4 459.121774 
L 230.4 463.121774 
L 228.4 459.121774 
" style="fill: none; stroke: #4a5568; stroke-width: 2; stroke-linecap: round"/>
   </g>
   <g id="text_2">
    <!-- Feed Forward -->
    <g style="fill: #ffffff" transform="translate(188.080078 414.953125) scale(0.11 -0.11)">
     <defs>
      <path id="DejaVuSans-Bold-46" d="M 588 4666 
L 3834 4666 
L 3834 3756 
L 1791 3756 
L 1791 2888 
L 3713 2888 
L 3713 1978 
L 1791 1978 
L 1791 0 
L 588 0 
L 588 4666 
z
" transform="scale(0.015625)"/>
      <path id="DejaVuSans-Bold-65" d="M 4031 1759 
L 4031 1441 
L 1416 1441 
Q 1456 1047 1700 850 
Q 1944 653 2381 653 
Q 2734 653 3104 758 
Q 3475 863 3866 1075 
L 3866 213 
Q 3469 63 3072 -14 
Q 2675 -91 2278 -91 
Q 1328 -91 801 392 
Q 275 875 275 1747 
Q 275 2603 792 3093 
Q 1309 3584 2216 3584 
Q 3041 3584 3536 3087 
Q 4031 2591 4031 1759 
z
M 2881 2131 
Q 2881 2450 2695 2645 
Q 2509 2841 2209 2841 
Q 1884 2841 1681 2658 
Q 1478 2475 1428 2131 
L 2881 2131 
z
" transform="scale(0.015625)"/>
      <path id="DejaVuSans-Bold-64" d="M 2919 2988 
L 2919 4863 
L 4044 4863 
L 4044 0 
L 2919 0 
L 2919 506 
Q 2688 197 2409 53 
Q 2131 -91 1766 -91 
Q 1119 -91 703 423 
Q 288 938 288 1747 
Q 288 2556 703 3070 
Q 1119 3584 1766 3584 
Q 2128 3584 2408 3439 
Q 2688 3294 2919 2988 
z
M 2181 722 
Q 2541 722 2730 984 
Q 2919 1247 2919 1747 
Q 2919 2247 2730 2509 
Q 2541 2772 2181 2772 
Q 1825 2772 1636 2509 
Q 1447 2247 1447 1747 
Q 1447 1247 1636 984 
Q 1825 722 2181 722 
z
" transform="scale(0.015625)"/>
      <path id="DejaVuSans-Bold-20" transform="scale(0.015625)"/>
      <path id="DejaVuSans-Bold-6f" d="M 2203 2784 
Q 1831 2784 1636 2517 
Q 1441 2250 1441 1747 
Q 1441 1244 1636 976 
Q 1831 709 2203 709 
Q 2569 709 2762 976 
Q 2956 1244 2956 1747 
Q 2956 2250 2762 2517 
Q 2569 2784 2203 2784 
z
M 2203 3584 
Q 3106 3584 3614 3096 
Q 4122 2609 4122 1747 
Q 4122 884 3614 396 
Q 3106 -91 2203 -91 
Q 1297 -91 786 396 
Q 275 884 275 1747 
Q 275 2609 786 3096 
Q 1297 3584 2203 3584 
z
" transform="scale(0.015625)"/>
      <path id="DejaVuSans-Bold-72" d="M 3138 2547 
Q 2991 2616 2845 2648 
Q 2700 2681 2553 2681 
Q 2122 2681 1889 2404 
Q 1656 2128 1656 1613 
L 1656 0 
L 538 0 
L 538 3500 
L 1656 3500 
L 1656 2925 
Q 1872 3269 2151 3426 
Q 2431 3584 2822 3584 
Q 2878 3584 2943 3579 
Q 3009 3575 3134 3559 
L 3138 2547 
z
" transform="scale(0.015625)"/>
      <path id="DejaVuSans-Bold-77" d="M 225 3500 
L 1313 3500 
L 1900 1088 
L 2491 3500 
L 3425 3500 
L 4013 1113 
L 4603 3500 
L 5691 3500 
L 4769 0 
L 3547 0 
L 2956 2406 
L 2369 0 
L 1147 0 
L 225 3500 
z
" transform="scale(0.015625)"/>
      <path id="DejaVuSans-Bold-61" d="M 2106 1575 
Q 1756 1575 1579 1456 
Q 1403 1338 1403 1106 
Q 1403 894 1545 773 
Q 1688 653 1941 653 
Q 2256 653 2472 879 
Q 2688 1106 2688 1447 
L 2688 1575 
L 2106 1575 
z
M 3816 1997 
L 3816 0 
L 2688 0 
L 2688 519 
Q 2463 200 2181 54 
Q 1900 -91 1497 -91 
Q 953 -91 614 226 
Q 275 544 275 1050 
Q 275 1666 698 1953 
Q 1122 2241 2028 2241 
L 2688 2241 
L 2688 2328 
Q 2688 2594 2478 2717 
Q 2269 2841 1825 2841 
Q 1466 2841 1156 2769 
Q 847 2697 581 2553 
L 581 3406 
Q 941 3494 1303 3539 
Q 1666 3584 2028 3584 
Q 2975 3584 3395 3211 
Q 3816 2838 3816 1997 
z
" transform="scale(0.015625)"/>
     </defs>
     <use xlink:href="#DejaVuSans-Bold-46"/>
     <use xlink:href="#DejaVuSans-Bold-65" transform="translate(64.310547 0)"/>
     <use xlink:href="#DejaVuSans-Bold-65" transform="translate(132.132812 0)"/>
     <use xlink:href="#DejaVuSans-Bold-64" transform="translate(199.955078 0)"/>
     <use xlink:href="#DejaVuSans-Bold-20" transform="translate(271.537109 0)"/>
     <use xlink:href="#DejaVuSans-Bold-46" transform="translate(306.351562 0)"/>
     <use xlink:href="#DejaVuSans-Bold-6f" transform="translate(370.662109 0)"/>
     <use xlink:href="#DejaVuSans-Bold-72" transform="translate(439.363281 0)"/>
     <use xlink:href="#DejaVuSans-Bold-77" transform="translate(488.679688 0)"/>
     <use xlink:href="#DejaVuSans-Bold-61" transform="translate(581.0625 0)"/>
     <use xlink:href="#DejaVuSans-Bold-72" transform="translate(648.542969 0)"/>
     <use xlink:href="#DejaVuSans-Bold-64" transform="translate(697.859375 0)"/>
    </g>
   </g>
   <g id="patch_9">
    <path d="M 230.4 358.477632 
Q 230.4 370.337737 230.4 379.961774 
" style="fill: none; stroke: #4a5568; stroke-width: 2; stroke-linecap: round"/>
    <path d="M 232.4 375.961774 
L 230.4 379.961774 
L 228.4 375.961774 
" style="fill: none; stroke: #4a5568; stroke-width: 2; stroke-linecap: round"/>
   </g>
   <g id="text_3">
    <!-- Add &amp; Norm -->
    <g style="fill: #ffffff" transform="translate(192.819531 331.793125) scale(0.11 -0.11)">
     <defs>
      <path id="DejaVuSans-Bold-41" d="M 3419 850 
L 1538 850 
L 1241 0 
L 31 0 
L 1759 4666 
L 3194 4666 
L 4922 0 
L 3713 0 
L 3419 850 
z
M 1838 1716 
L 3116 1716 
L 2478 3572 
L 1838 1716 
z
" transform="scale(0.015625)"/>
      <path id="DejaVuSans-Bold-26" d="M 2497 3097 
L 3775 1691 
Q 3941 1909 4027 2181 
Q 4113 2453 4128 2797 
L 5100 2797 
Q 5053 2228 4879 1784 
Q 4706 1341 4397 1006 
L 5313 0 
L 3988 0 
L 3681 341 
Q 3353 122 2990 15 
Q 2628 -91 2222 -91 
Q 1400 -91 892 342 
Q 384 775 384 1459 
Q 384 1916 607 2267 
Q 831 2619 1338 2950 
Q 1206 3116 1143 3281 
Q 1081 3447 1081 3628 
Q 1081 4138 1478 4444 
Q 1875 4750 2534 4750 
Q 2819 4750 3126 4704 
Q 3434 4659 3769 4569 
L 3769 3700 
Q 3475 3850 3212 3922 
Q 2950 3994 2700 3994 
Q 2459 3994 2326 3901 
Q 2194 3809 2194 3641 
Q 2194 3534 2270 3398 
Q 2347 3263 2497 3097 
z
M 1875 2322 
Q 1672 2175 1569 1989 
Q 1466 1803 1466 1581 
Q 1466 1222 1731 969 
Q 1997 716 2369 716 
Q 2578 716 2759 780 
Q 2941 844 3097 972 
L 1875 2322 
z
" transform="scale(0.015625)"/>
      <path id="DejaVuSans-Bold-4e" d="M 588 4666 
L 1931 4666 
L 3628 1466 
L 3628 4666 
L 4769 4666 
L 4769 0 
L 3425 0 
L 1728 3200 
L 1728 0 
L 588 0 
L 588 4666 
z
" transform="scale(0.015625)"/>
      <path id="DejaVuSans-Bold-6d" d="M 3781 2919 
Q 3994 3244 4286 3414 
Q 4578 3584 4928 3584 
Q 5531 3584 5847 3212 
Q 6163 2841 6163 2131 
L 6163 0 
L 5038 0 
L 5038 1825 
Q 5041 1866 5042 1909 
Q 5044 1953 5044 2034 
Q 5044 2406 4934 2573 
Q 4825 2741 4581 2741 
Q 4263 2741 4089 2478 
Q 3916 2216 3909 1719 
L 3909 0 
L 2784 0 
L 2784 1825 
Q 2784 2406 2684 2573 
Q 2584 2741 2328 2741 
Q 2006 2741 1831 2477 
Q 1656 2213 1656 1722 
L 1656 0 
L 531 0 
L 531 3500 
L 1656 3500 
L 1656 2988 
Q 1863 3284 2130 3434 
Q 2397 3584 2719 3584 
Q 3081 3584 3359 3409 
Q 3638 3234 3781 2919 
z
" transform="scale(0.015625)"/>
     </defs>
     <use xlink:href="#DejaVuSans-Bold-41"/>
     <use xlink:href="#DejaVuSans-Bold-64" transform="translate(77.392578 0)"/>
     <use xlink:href="#DejaVuSans-Bold-64" transform="translate(148.974609 0)"/>
     <use xlink:href="#DejaVuSans-Bold-20" transform="translate(220.556641 0)"/>
     <use xlink:href="#DejaVuSans-Bold-26" transform="translate(255.371094 0)"/>
     <use xlink:href="#DejaVuSans-Bold-20" transform="translate(342.578125 0)"/>
     <use xlink:href="#DejaVuSans-Bold-4e" transform="translate(377.392578 0)"/>
     <use xlink:href="#DejaVuSans-Bold-6f" transform="translate(461.083984 0)"/>
     <use xlink:href="#DejaVuSans-Bold-72" transform="translate(529.785156 0)"/>
     <use xlink:href="#DejaVuSans-Bold-6d" transform="translate(579.101562 0)"/>
    </g>
   </g>
   <g id="patch_10">
    <path d="M 230.4 275.317632 
Q 230.4 287.177737 230.4 296.801774 
" style="fill: none; stroke: #4a5568; stroke-width: 2; stroke-linecap: round"/>
    <path d="M 232.4 292.801774 
L 230.4 296.801774 
L 228.4 292.801774 
" style="fill: none; stroke: #4a5568; stroke-width: 2; stroke-linecap: round"/>
   </g>
   <g id="text_4">
    <!-- Self-Attention -->
    <g style="fill: #ffffff" transform="translate(186.876094 248.633125) scale(0.11 -0.11)">
     <defs>
      <path id="DejaVuSans-Bold-53" d="M 3834 4519 
L 3834 3531 
Q 3450 3703 3084 3790 
Q 2719 3878 2394 3878 
Q 1963 3878 1756 3759 
Q 1550 3641 1550 3391 
Q 1550 3203 1689 3098 
Q 1828 2994 2194 2919 
L 2706 2816 
Q 3484 2659 3812 2340 
Q 4141 2022 4141 1434 
Q 4141 663 3683 286 
Q 3225 -91 2284 -91 
Q 1841 -91 1394 -6 
Q 947 78 500 244 
L 500 1259 
Q 947 1022 1364 901 
Q 1781 781 2169 781 
Q 2563 781 2772 912 
Q 2981 1044 2981 1288 
Q 2981 1506 2839 1625 
Q 2697 1744 2272 1838 
L 1806 1941 
Q 1106 2091 782 2419 
Q 459 2747 459 3303 
Q 459 4000 909 4375 
Q 1359 4750 2203 4750 
Q 2588 4750 2994 4692 
Q 3400 4634 3834 4519 
z
" transform="scale(0.015625)"/>
      <path id="DejaVuSans-Bold-6c" d="M 538 4863 
L 1656 4863 
L 1656 0 
L 538 0 
L 538 4863 
z
" transform="scale(0.015625)"/>
      <path id="DejaVuSans-Bold-66" d="M 2841 4863 
L 2841 4128 
L 2222 4128 
Q 1984 4128 1890 4042 
Q 1797 3956 1797 3744 
L 1797 3500 
L 2753 3500 
L 2753 2700 
L 1797 2700 
L 1797 0 
L 678 0 
L 678 2700 
L 122 2700 
L 122 3500 
L 678 3500 
L 678 3744 
Q 678 4316 997 4589 
Q 1316 4863 1984 4863 
L 2841 4863 
z
" transform="scale(0.015625)"/>
      <path id="DejaVuSans-Bold-2d" d="M 347 2297 
L 2309 2297 
L 2309 1388 
L 347 1388 
L 347 2297 
z
" transform="scale(0.015625)"/>
      <path id="DejaVuSans-Bold-6e" d="M 4056 2131 
L 4056 0 
L 2931 0 
L 2931 347 
L 2931 1631 
Q 2931 2084 2911 2256 
Q 2891 2428 2841 2509 
Q 2775 2619 2662 2680 
Q 2550 2741 2406 2741 
Q 2056 2741 1856 2470 
Q 1656 2200 1656 1722 
L 1656 0 
L 538 0 
L 538 3500 
L 1656 3500 
L 1656 2988 
Q 1909 3294 2193 3439 
Q 2478 3584 2822 3584 
Q 3428 3584 3742 3212 
Q 4056 2841 4056 2131 
z
" transform="scale(0.015625)"/>
      <path id="DejaVuSans-Bold-69" d="M 538 3500 
L 1656 3500 
L 1656 0 
L 538 0 
L 538 3500 
z
M 538 4863 
L 1656 4863 
L 1656 3950 
L 538 3950 
L 538 4863 
z
" transform="scale(0.015625)"/>
     </defs>
     <use xlink:href="#DejaVuSans-Bold-53"/>
     <use xlink:href="#DejaVuSans-Bold-65" transform="translate(72.021484 0)"/>
     <use xlink:href="#DejaVuSans-Bold-6c" transform="translate(139.84375 0)"/>
     <use xlink:href="#DejaVuSans-Bold-66" transform="translate(174.121094 0)"/>
     <use xlink:href="#DejaVuSans-Bold-2d" transform="translate(215.876953 0)"/>
     <use xlink:href="#DejaVuSans-Bold-41" transform="translate(257.380859 0)"/>
     <use xlink:href="#DejaVuSans-Bold-74" transform="translate(334.773438 0)"/>
     <use xlink:href="#DejaVuSans-Bold-74" transform="translate(382.576172 0)"/>
     <use xlink:href="#DejaVuSans-Bold-65" transform="translate(430.378906 0)"/>
     <use xlink:href="#DejaVuSans-Bold-6e" transform="translate(498.201172 0)"/>
     <use xlink:href="#DejaVuSans-Bold-74" transform="translate(569.392578 0)"/>
     <use xlink:href="#DejaVuSans-Bold-69" transform="translate(617.195312 0)"/>
     <use xlink:href="#DejaVuSans-Bold-6f" transform="translate(651.472656 0)"/>
     <use xlink:href="#DejaVuSans-Bold-6e" transform="translate(720.173828 0)"/>
    </g>
   </g>
   <g id="patch_11">
    <path d="M 230.4 192.157632 
Q 230.4 204.017737 230.4 213.641774 
" style="fill: none; stroke: #4a5568; stroke-width: 2; stroke-linecap: round"/>
    <path d="M 232.4 209.641774 
L 230.4 213.641774 
L 228.4 209.641774 
" style="fill: none; stroke: #4a5568; stroke-width: 2; stroke-linecap: round"/>
   </g>
   <g id="text_5">
    <!-- Add &amp; Norm -->
    <g style="fill: #ffffff" transform="translate(192.819531 165.473125) scale(0.11 -0.11)">
     <use xlink:href="#DejaVuSans-Bold-41"/>
     <use xlink:href="#DejaVuSans-Bold-64" transform="translate(77.392578 0)"/>
     <use xlink:href="#DejaVuSans-Bold-64" transform="translate(148.974609 0)"/>
     <use xlink:href="#DejaVuSans-Bold-20" transform="translate(220.556641 0)"/>
     <use xlink:href="#DejaVuSans-Bold-26" transform="translate(255.371094 0)"/>
     <use xlink:href="#DejaVuSans-Bold-20" transform="translate(342.578125 0)"/>
     <use xlink:href="#DejaVuSans-Bold-4e" transform="translate(377.392578 0)"/>
     <use xlink:href="#DejaVuSans-Bold-6f" transform="translate(461.083984 0)"/>
     <use xlink:href="#DejaVuSans-Bold-72" transform="translate(529.785156 0)"/>
     <use xlink:href="#DejaVuSans-Bold-6d" transform="translate(579.101562 0)"/>
    </g>
   </g>
   <g id="patch_12">
    <path d="M 230.4 108.997632 
Q 230.4 120.857737 230.4 130.481774 
" style="fill: none; stroke: #4a5568; stroke-width: 2; stroke-linecap: round"/>
    <path d="M 232.4 126.481774 
L 230.4 130.481774 
L 228.4 126.481774 
" style="fill: none; stroke: #4a5568; stroke-width: 2; stroke-linecap: round"/>
   </g>
   <g id="text_6">
    <!-- Input Embeddings -->
    <g style="fill: #ffffff" transform="translate(174.002656 82.270156) scale(0.11 -0.11)">
     <defs>
      <path id="DejaVuSans-Bold-49" d="M 588 4666 
L 1791 4666 
L 1791 0 
L 588 0 
L 588 4666 
z
" transform="scale(0.015625)"/>
      <path id="DejaVuSans-Bold-45" d="M 588 4666 
L 3834 4666 
L 3834 3756 
L 1791 3756 
L 1791 2888 
L 3713 2888 
L 3713 1978 
L 1791 1978 
L 1791 909 
L 3903 909 
L 3903 0 
L 588 0 
L 588 4666 
z
" transform="scale(0.015625)"/>
      <path id="DejaVuSans-Bold-62" d="M 2400 722 
Q 2759 722 2948 984 
Q 3138 1247 3138 1747 
Q 3138 2247 2948 2509 
Q 2759 2772 2400 2772 
Q 2041 2772 1848 2508 
Q 1656 2244 1656 1747 
Q 1656 1250 1848 986 
Q 2041 722 2400 722 
z
M 1656 2988 
Q 1888 3294 2169 3439 
Q 2450 3584 2816 3584 
Q 3463 3584 3878 3070 
Q 4294 2556 4294 1747 
Q 4294 938 3878 423 
Q 3463 -91 2816 -91 
Q 2450 -91 2169 54 
Q 1888 200 1656 506 
L 1656 0 
L 538 0 
L 538 4863 
L 1656 4863 
L 1656 2988 
z
" transform="scale(0.015625)"/>
      <path id="DejaVuSans-Bold-67" d="M 2919 594 
Q 2688 288 2409 144 
Q 2131 0 1766 0 
Q 1125 0 706 504 
Q 288 1009 288 1791 
Q 288 2575 706 3076 
Q 1125 3578 1766 3578 
Q 2131 3578 2409 3434 
Q 2688 3291 2919 2981 
L 2919 3500 
L 4044 3500 
L 4044 353 
Q 4044 -491 3511 -936 
Q 2978 -1381 1966 -1381 
Q 1638 -1381 1331 -1331 
Q 1025 -1281 716 -1178 
L 716 -306 
Q 1009 -475 1290 -558 
Q 1572 -641 1856 -641 
Q 2406 -641 2662 -400 
Q 2919 -159 2919 353 
L 2919 594 
z
M 2181 2772 
Q 1834 2772 1640 2515 
Q 1447 2259 1447 1791 
Q 1447 1309 1634 1061 
Q 1822 813 2181 813 
Q 2531 813 2725 1069 
Q 2919 1325 2919 1791 
Q 2919 2259 2725 2515 
Q 2531 2772 2181 2772 
z
" transform="scale(0.015625)"/>
      <path id="DejaVuSans-Bold-73" d="M 3272 3391 
L 3272 2541 
Q 2913 2691 2578 2766 
Q 2244 2841 1947 2841 
Q 1628 2841 1473 2761 
Q 1319 2681 1319 2516 
Q 1319 2381 1436 2309 
Q 1553 2238 1856 2203 
L 2053 2175 
Q 2913 2066 3209 1816 
Q 3506 1566 3506 1031 
Q 3506 472 3093 190 
Q 2681 -91 1863 -91 
Q 1516 -91 1145 -36 
Q 775 19 384 128 
L 384 978 
Q 719 816 1070 734 
Q 1422 653 1784 653 
Q 2113 653 2278 743 
Q 2444 834 2444 1013 
Q 2444 1163 2330 1236 
Q 2216 1309 1875 1350 
L 1678 1375 
Q 931 1469 631 1722 
Q 331 1975 331 2491 
Q 331 3047 712 3315 
Q 1094 3584 1881 3584 
Q 2191 3584 2531 3537 
Q 2872 3491 3272 3391 
z
" transform="scale(0.015625)"/>
     </defs>
     <use xlink:href="#DejaVuSans-Bold-49"/>
     <use xlink:href="#DejaVuSans-Bold-6e" transform="translate(37.207031 0)"/>
     <use xlink:href="#DejaVuSans-Bold-70" transform="translate(108.398438 0)"/>
     <use xlink:href="#DejaVuSans-Bold-75" transform="translate(179.980469 0)"/>
     <use xlink:href="#DejaVuSans-Bold-74" transform="translate(251.171875 0)"/>
     <use xlink:href="#DejaVuSans-Bold-20" transform="translate(298.974609 0)"/>
     <use xlink:href="#DejaVuSans-Bold-45" transform="translate(333.789062 0)"/>
     <use xlink:href="#DejaVuSans-Bold-6d" transform="translate(402.099609 0)"/>
     <use xlink:href="#DejaVuSans-Bold-62" transform="translate(506.298828 0)"/>
     <use xlink:href="#DejaVuSans-Bold-65" transform="translate(577.880859 0)"/>
     <use xlink:href="#DejaVuSans-Bold-64" transform="translate(645.703125 0)"/>
     <use xlink:href="#DejaVuSans-Bold-64" transform="translate(717.285156 0)"/>
     <use xlink:href="#DejaVuSans-Bold-69" transform="translate(788.867188 0)"/>
     <use xlink:href="#DejaVuSans-Bold-6e" transform="translate(823.144531 0)"/>
     <use xlink:href="#DejaVuSans-Bold-67" transform="translate(894.335938 0)"/>
     <use xlink:href="#DejaVuSans-Bold-73" transform="translate(965.917969 0)"/>
    </g>
   </g>
   <g id="patch_13">
    <path d="M 97.492493 354.754618 
Q 120.41577 314.897356 98.32809 276.493847 
" style="fill: none; stroke: #e85a4f; stroke-width: 1.5; stroke-linecap: round"/>
    <path d="M 98.588656 280.958386 
L 98.32809 276.493847 
L 102.056061 278.964117 
" style="fill: none; stroke: #e85a4f; stroke-width: 1.5; stroke-linecap: round"/>
   </g>
   <g id="patch_14">
    <path d="M 97.492493 271.594618 
Q 120.41577 231.737356 98.32809 193.333847 
" style="fill: none; stroke: #e85a4f; stroke-width: 1.5; stroke-linecap: round"/>
    <path d="M 98.588656 197.798386 
L 98.32809 193.333847 
L 102.056061 195.804117 
" style="fill: none; stroke: #e85a4f; stroke-width: 1.5; stroke-linecap: round"/>
   </g>
   <g id="text_7">
    <!-- skip -->
    <g style="fill: #e85a4f" transform="translate(66.84675 319.333563) rotate(-90) scale(0.08 -0.08)">
     <defs>
      <path id="DejaVuSans-73" d="M 2834 3397 
L 2834 2853 
Q 2591 2978 2328 3040 
Q 2066 3103 1784 3103 
Q 1356 3103 1142 2972 
Q 928 2841 928 2578 
Q 928 2378 1081 2264 
Q 1234 2150 1697 2047 
L 1894 2003 
Q 2506 1872 2764 1633 
Q 3022 1394 3022 966 
Q 3022 478 2636 193 
Q 2250 -91 1575 -91 
Q 1294 -91 989 -36 
Q 684 19 347 128 
L 347 722 
Q 666 556 975 473 
Q 1284 391 1588 391 
Q 1994 391 2212 530 
Q 2431 669 2431 922 
Q 2431 1156 2273 1281 
Q 2116 1406 1581 1522 
L 1381 1569 
Q 847 1681 609 1914 
Q 372 2147 372 2553 
Q 372 3047 722 3315 
Q 1072 3584 1716 3584 
Q 2034 3584 2315 3537 
Q 2597 3491 2834 3397 
z
" transform="scale(0.015625)"/>
      <path id="DejaVuSans-6b" d="M 581 4863 
L 1159 4863 
L 1159 1991 
L 2875 3500 
L 3609 3500 
L 1753 1863 
L 3688 0 
L 2938 0 
L 1159 1709 
L 1159 0 
L 581 0 
L 581 4863 
z
" transform="scale(0.015625)"/>
      <path id="DejaVuSans-69" d="M 603 3500 
L 1178 3500 
L 1178 0 
L 603 0 
L 603 3500 
z
M 603 4863 
L 1178 4863 
L 1178 4134 
L 603 4134 
L 603 4863 
z
" transform="scale(0.015625)"/>
      <path id="DejaVuSans-70" d="M 1159 525 
L 1159 -1331 
L 581 -1331 
L 581 3500 
L 1159 3500 
L 1159 2969 
Q 1341 3281 1617 3432 
Q 1894 3584 2278 3584 
Q 2916 3584 3314 3078 
Q 3713 2572 3713 1747 
Q 3713 922 3314 415 
Q 2916 -91 2278 -91 
Q 1894 -91 1617 61 
Q 1341 213 1159 525 
z
M 3116 1747 
Q 3116 2381 2855 2742 
Q 2594 3103 2138 3103 
Q 1681 3103 1420 2742 
Q 1159 2381 1159 1747 
Q 1159 1113 1420 752 
Q 1681 391 2138 391 
Q 2594 391 2855 752 
Q 3116 1113 3116 1747 
z
" transform="scale(0.015625)"/>
     </defs>
     <use xlink:href="#DejaVuSans-73"/>
     <use xlink:href="#DejaVuSans-6b" transform="translate(52.099609 0)"/>
     <use xlink:href="#DejaVuSans-69" transform="translate(110.009766 0)"/>
     <use xlink:href="#DejaVuSans-70" transform="translate(137.792969 0)"/>
    </g>
   </g>
   <g id="text_8">
    <!-- Transformer Block (Simplified) -->
    <g style="fill: #1e3a5f" transform="translate(109.900469 17.837813) scale(0.14 -0.14)">
     <defs>
      <path id="DejaVuSans-Bold-54" d="M 31 4666 
L 4331 4666 
L 4331 3756 
L 2784 3756 
L 2784 0 
L 1581 0 
L 1581 3756 
L 31 3756 
L 31 4666 
z
" transform="scale(0.015625)"/>
      <path id="DejaVuSans-Bold-42" d="M 2456 2859 
Q 2741 2859 2887 2984 
Q 3034 3109 3034 3353 
Q 3034 3594 2887 3720 
Q 2741 3847 2456 3847 
L 1791 3847 
L 1791 2859 
L 2456 2859 
z
M 2497 819 
Q 2859 819 3042 972 
Q 3225 1125 3225 1434 
Q 3225 1738 3044 1889 
Q 2863 2041 2497 2041 
L 1791 2041 
L 1791 819 
L 2497 819 
z
M 3616 2497 
Q 4003 2384 4215 2081 
Q 4428 1778 4428 1338 
Q 4428 663 3972 331 
Q 3516 0 2584 0 
L 588 0 
L 588 4666 
L 2394 4666 
Q 3366 4666 3802 4372 
Q 4238 4078 4238 3431 
Q 4238 3091 4078 2852 
Q 3919 2613 3616 2497 
z
" transform="scale(0.015625)"/>
      <path id="DejaVuSans-Bold-63" d="M 3366 3391 
L 3366 2478 
Q 3138 2634 2908 2709 
Q 2678 2784 2431 2784 
Q 1963 2784 1702 2511 
Q 1441 2238 1441 1747 
Q 1441 1256 1702 982 
Q 1963 709 2431 709 
Q 2694 709 2930 787 
Q 3166 866 3366 1019 
L 3366 103 
Q 3103 6 2833 -42 
Q 2563 -91 2291 -91 
Q 1344 -91 809 395 
Q 275 881 275 1747 
Q 275 2613 809 3098 
Q 1344 3584 2291 3584 
Q 2566 3584 2833 3536 
Q 3100 3488 3366 3391 
z
" transform="scale(0.015625)"/>
      <path id="DejaVuSans-Bold-6b" d="M 538 4863 
L 1656 4863 
L 1656 2216 
L 2944 3500 
L 4244 3500 
L 2534 1894 
L 4378 0 
L 3022 0 
L 1656 1459 
L 1656 0 
L 538 0 
L 538 4863 
z
" transform="scale(0.015625)"/>
      <path id="DejaVuSans-Bold-28" d="M 2413 -844 
L 1484 -844 
Q 1006 -72 778 623 
Q 550 1319 550 2003 
Q 550 2688 779 3389 
Q 1009 4091 1484 4856 
L 2413 4856 
Q 2013 4116 1813 3408 
Q 1613 2700 1613 2009 
Q 1613 1319 1811 609 
Q 2009 -100 2413 -844 
z
" transform="scale(0.015625)"/>
      <path id="DejaVuSans-Bold-29" d="M 513 -844 
Q 913 -100 1113 609 
Q 1313 1319 1313 2009 
Q 1313 2700 1113 3408 
Q 913 4116 513 4856 
L 1441 4856 
Q 1916 4091 2145 3389 
Q 2375 2688 2375 2003 
Q 2375 1319 2147 623 
Q 1919 -72 1441 -844 
L 513 -844 
z
" transform="scale(0.015625)"/>
     </defs>
     <use xlink:href="#DejaVuSans-Bold-54"/>
     <use xlink:href="#DejaVuSans-Bold-72" transform="translate(57.212891 0)"/>
     <use xlink:href="#DejaVuSans-Bold-61" transform="translate(106.529297 0)"/>
     <use xlink:href="#DejaVuSans-Bold-6e" transform="translate(174.009766 0)"/>
     <use xlink:href="#DejaVuSans-Bold-73" transform="translate(245.201172 0)"/>
     <use xlink:href="#DejaVuSans-Bold-66" transform="translate(304.722656 0)"/>
     <use xlink:href="#DejaVuSans-Bold-6f" transform="translate(348.228516 0)"/>
     <use xlink:href="#DejaVuSans-Bold-72" transform="translate(416.929688 0)"/>
     <use xlink:href="#DejaVuSans-Bold-6d" transform="translate(466.246094 0)"/>
     <use xlink:href="#DejaVuSans-Bold-65" transform="translate(570.445312 0)"/>
     <use xlink:href="#DejaVuSans-Bold-72" transform="translate(638.267578 0)"/>
     <use xlink:href="#DejaVuSans-Bold-20" transform="translate(687.583984 0)"/>
     <use xlink:href="#DejaVuSans-Bold-42" transform="translate(722.398438 0)"/>
     <use xlink:href="#DejaVuSans-Bold-6c" transform="translate(798.619141 0)"/>
     <use xlink:href="#DejaVuSans-Bold-6f" transform="translate(832.896484 0)"/>
     <use xlink:href="#DejaVuSans-Bold-63" transform="translate(901.597656 0)"/>
     <use xlink:href="#DejaVuSans-Bold-6b" transform="translate(960.875 0)"/>
     <use xlink:href="#DejaVuSans-Bold-20" transform="translate(1027.378906 0)"/>
     <use xlink:href="#DejaVuSans-Bold-28" transform="translate(1062.193359 0)"/>
     <use xlink:href="#DejaVuSans-Bold-53" transform="translate(1107.896484 0)"/>
     <use xlink:href="#DejaVuSans-Bold-69" transform="translate(1179.917969 0)"/>
     <use xlink:href="#DejaVuSans-Bold-6d" transform="translate(1214.195312 0)"/>
     <use xlink:href="#DejaVuSans-Bold-70" transform="translate(1318.394531 0)"/>
     <use xlink:href="#DejaVuSans-Bold-6c" transform="translate(1389.976562 0)"/>
     <use xlink:href="#DejaVuSans-Bold-69" transform="translate(1424.253906 0)"/>
     <use xlink:href="#DejaVuSans-Bold-66" transform="translate(1458.53125 0)"/>
     <use xlink:href="#DejaVuSans-Bold-69" transform="translate(1502.037109 0)"/>
     <use xlink:href="#DejaVuSans-Bold-65" transform="translate(1536.314453 0)"/>
     <use xlink:href="#DejaVuSans-Bold-64" transform="translate(1604.136719 0)"/>
     <use xlink:href="#DejaVuSans-Bold-29" transform="translate(1675.71875 0)"/>
    </g>
   </g>
  </g>
 </g>
 <defs>
  <clipPath id="p34ee30c3ae">
   <rect x="7.2" y="23.837813" width="446.4" height="554.4"/>
  </clipPath>
 </defs>
</svg>
