<?xml version="1.0" encoding="utf-8" standalone="no"?>
<!DOCTYPE svg PUBLIC "-//W3C//DTD SVG 1.1//EN"
  "http://www.w3.org/Graphics/SVG/1.1/DTD/svg11.dtd">
<svg xmlns:xlink="http://www.w3.org/1999/xlink" width="795.6pt" height="402.48pt" viewBox="0 0 795.6 402.48" xmlns="http://www.w3.org/2000/svg" version="1.1">
 <metadata>
  <rdf:RDF xmlns:dc="http://purl.org/dc/elements/1.1/" xmlns:cc="http://creativecommons.org/ns#" xmlns:rdf="http://www.w3.org/1999/02/22-rdf-syntax-ns#">
   <cc:Work>
    <dc:type rdf:resource="http://purl.org/dc/dcmitype/StillImage"/>
    <dc:date>2026-01-06T11:45:15.804438</dc:date>
    <dc:format>image/svg+xml</dc:format>
    <dc:creator>
     <cc:Agent>
      <dc:title>Matplotlib v3.10.8, https://matplotlib.org/</dc:title>
     </cc:Agent>
    </dc:creator>
   </cc:Work>
  </rdf:RDF>
 </metadata>
 <defs>
  <style type="text/css">*{stroke-linejoin: round; stroke-linecap: butt}</style>
 </defs>
 <g id="figure_1">
  <g id="patch_1">
   <path d="M 0 402.48 
L 795.6 402.48 
L 795.6 -0 
L 0 -0 
z
" style="fill: #ffffff"/>
  </g>
  <g id="axes_1">
   <g id="patch_2">
    <path d="M 63 317.664 
L 163.44 317.664 
Q 169.02 317.664 169.02 312.12 
L 169.02 190.152 
Q 169.02 184.608 163.44 184.608 
L 63 184.608 
Q 57.42 184.608 57.42 190.152 
L 57.42 312.12 
Q 57.42 317.664 63 317.664 
z
" clip-path="url(#pa69cead5b6)" style="fill: #e85a4f; opacity: 0.4; stroke: #1e3a5f; stroke-width: 2; stroke-linejoin: miter"/>
   </g>
   <g id="patch_3">
    <path d="M 185.76 317.664 
L 286.2 317.664 
Q 291.78 317.664 291.78 312.12 
L 291.78 190.152 
Q 291.78 184.608 286.2 184.608 
L 185.76 184.608 
Q 180.18 184.608 180.18 190.152 
L 180.18 312.12 
Q 180.18 317.664 185.76 317.664 
z
" clip-path="url(#pa69cead5b6)" style="fill: #f59e0b; opacity: 0.4; stroke: #1e3a5f; stroke-width: 2; stroke-linejoin: miter"/>
   </g>
   <g id="patch_4">
    <path d="M 308.52 317.664 
L 408.96 317.664 
Q 414.54 317.664 414.54 312.12 
L 414.54 190.152 
Q 414.54 184.608 408.96 184.608 
L 308.52 184.608 
Q 302.94 184.608 302.94 190.152 
L 302.94 312.12 
Q 302.94 317.664 308.52 317.664 
z
" clip-path="url(#pa69cead5b6)" style="fill: #e9c46a; opacity: 0.4; stroke: #1e3a5f; stroke-width: 2; stroke-linejoin: miter"/>
   </g>
   <g id="patch_5">
    <path d="M 431.28 317.664 
L 531.72 317.664 
Q 537.3 317.664 537.3 312.12 
L 537.3 190.152 
Q 537.3 184.608 531.72 184.608 
L 431.28 184.608 
Q 425.7 184.608 425.7 190.152 
L 425.7 312.12 
Q 425.7 317.664 431.28 317.664 
z
" clip-path="url(#pa69cead5b6)" style="fill: #3b82f6; opacity: 0.4; stroke: #1e3a5f; stroke-width: 2; stroke-linejoin: miter"/>
   </g>
   <g id="patch_6">
    <path d="M 554.04 317.664 
L 654.48 317.664 
Q 660.06 317.664 660.06 312.12 
L 660.06 190.152 
Q 660.06 184.608 654.48 184.608 
L 554.04 184.608 
Q 548.46 184.608 548.46 190.152 
L 548.46 312.12 
Q 548.46 317.664 554.04 317.664 
z
" clip-path="url(#pa69cead5b6)" style="fill: #3b82f6; opacity: 0.4; stroke: #1e3a5f; stroke-width: 2; stroke-linejoin: miter"/>
   </g>
   <g id="patch_7">
    <path d="M 676.8 317.664 
L 777.24 317.664 
Q 782.82 317.664 782.82 312.12 
L 782.82 190.152 
Q 782.82 184.608 777.24 184.608 
L 676.8 184.608 
Q 671.22 184.608 671.22 190.152 
L 671.22 312.12 
Q 671.22 317.664 676.8 317.664 
z
" clip-path="url(#pa69cead5b6)" style="fill: #2a9d8f; opacity: 0.4; stroke: #1e3a5f; stroke-width: 2; stroke-linejoin: miter"/>
   </g>
   <g id="patch_8">
    <path d="M 174.6 179.064 
L 621 179.064 
Q 626.58 179.064 626.58 173.52 
L 626.58 106.992 
Q 626.58 101.448 621 101.448 
L 174.6 101.448 
Q 169.02 101.448 169.02 106.992 
L 169.02 173.52 
Q 169.02 179.064 174.6 179.064 
z
" clip-path="url(#pa69cead5b6)" style="fill: #f7fafc; stroke-dasharray: 7.4,3.2; stroke-dashoffset: 0; stroke: #e85a4f; stroke-width: 2; stroke-linejoin: miter"/>
   </g>
   <g id="text_1">
    <!-- Diffusion Models: Learning to Denoise -->
    <g style="fill: #1e3a5f" transform="translate(203.826094 34.92) scale(0.18 -0.18)">
     <defs>
      <path id="DejaVuSans-Bold-44" d="M 1791 3756 
L 1791 909 
L 2222 909 
Q 2959 909 3348 1275 
Q 3738 1641 3738 2338 
Q 3738 3031 3350 3393 
Q 2963 3756 2222 3756 
L 1791 3756 
z
M 588 4666 
L 1856 4666 
Q 2919 4666 3439 4514 
Q 3959 4363 4331 4000 
Q 4659 3684 4818 3271 
Q 4978 2859 4978 2338 
Q 4978 1809 4818 1395 
Q 4659 981 4331 666 
Q 3956 303 3431 151 
Q 2906 0 1856 0 
L 588 0 
L 588 4666 
z
" transform="scale(0.015625)"/>
      <path id="DejaVuSans-Bold-69" d="M 538 3500 
L 1656 3500 
L 1656 0 
L 538 0 
L 538 3500 
z
M 538 4863 
L 1656 4863 
L 1656 3950 
L 538 3950 
L 538 4863 
z
" transform="scale(0.015625)"/>
      <path id="DejaVuSans-Bold-66" d="M 2841 4863 
L 2841 4128 
L 2222 4128 
Q 1984 4128 1890 4042 
Q 1797 3956 1797 3744 
L 1797 3500 
L 2753 3500 
L 2753 2700 
L 1797 2700 
L 1797 0 
L 678 0 
L 678 2700 
L 122 2700 
L 122 3500 
L 678 3500 
L 678 3744 
Q 678 4316 997 4589 
Q 1316 4863 1984 4863 
L 2841 4863 
z
" transform="scale(0.015625)"/>
      <path id="DejaVuSans-Bold-75" d="M 500 1363 
L 500 3500 
L 1625 3500 
L 1625 3150 
Q 1625 2866 1622 2436 
Q 1619 2006 1619 1863 
Q 1619 1441 1641 1255 
Q 1663 1069 1716 984 
Q 1784 875 1895 815 
Q 2006 756 2150 756 
Q 2500 756 2700 1025 
Q 2900 1294 2900 1772 
L 2900 3500 
L 4019 3500 
L 4019 0 
L 2900 0 
L 2900 506 
Q 2647 200 2364 54 
Q 2081 -91 1741 -91 
Q 1134 -91 817 281 
Q 500 653 500 1363 
z
" transform="scale(0.015625)"/>
      <path id="DejaVuSans-Bold-73" d="M 3272 3391 
L 3272 2541 
Q 2913 2691 2578 2766 
Q 2244 2841 1947 2841 
Q 1628 2841 1473 2761 
Q 1319 2681 1319 2516 
Q 1319 2381 1436 2309 
Q 1553 2238 1856 2203 
L 2053 2175 
Q 2913 2066 3209 1816 
Q 3506 1566 3506 1031 
Q 3506 472 3093 190 
Q 2681 -91 1863 -91 
Q 1516 -91 1145 -36 
Q 775 19 384 128 
L 384 978 
Q 719 816 1070 734 
Q 1422 653 1784 653 
Q 2113 653 2278 743 
Q 2444 834 2444 1013 
Q 2444 1163 2330 1236 
Q 2216 1309 1875 1350 
L 1678 1375 
Q 931 1469 631 1722 
Q 331 1975 331 2491 
Q 331 3047 712 3315 
Q 1094 3584 1881 3584 
Q 2191 3584 2531 3537 
Q 2872 3491 3272 3391 
z
" transform="scale(0.015625)"/>
      <path id="DejaVuSans-Bold-6f" d="M 2203 2784 
Q 1831 2784 1636 2517 
Q 1441 2250 1441 1747 
Q 1441 1244 1636 976 
Q 1831 709 2203 709 
Q 2569 709 2762 976 
Q 2956 1244 2956 1747 
Q 2956 2250 2762 2517 
Q 2569 2784 2203 2784 
z
M 2203 3584 
Q 3106 3584 3614 3096 
Q 4122 2609 4122 1747 
Q 4122 884 3614 396 
Q 3106 -91 2203 -91 
Q 1297 -91 786 396 
Q 275 884 275 1747 
Q 275 2609 786 3096 
Q 1297 3584 2203 3584 
z
" transform="scale(0.015625)"/>
      <path id="DejaVuSans-Bold-6e" d="M 4056 2131 
L 4056 0 
L 2931 0 
L 2931 347 
L 2931 1631 
Q 2931 2084 2911 2256 
Q 2891 2428 2841 2509 
Q 2775 2619 2662 2680 
Q 2550 2741 2406 2741 
Q 2056 2741 1856 2470 
Q 1656 2200 1656 1722 
L 1656 0 
L 538 0 
L 538 3500 
L 1656 3500 
L 1656 2988 
Q 1909 3294 2193 3439 
Q 2478 3584 2822 3584 
Q 3428 3584 3742 3212 
Q 4056 2841 4056 2131 
z
" transform="scale(0.015625)"/>
      <path id="DejaVuSans-Bold-20" transform="scale(0.015625)"/>
      <path id="DejaVuSans-Bold-4d" d="M 588 4666 
L 2119 4666 
L 3181 2169 
L 4250 4666 
L 5778 4666 
L 5778 0 
L 4641 0 
L 4641 3413 
L 3566 897 
L 2803 897 
L 1728 3413 
L 1728 0 
L 588 0 
L 588 4666 
z
" transform="scale(0.015625)"/>
      <path id="DejaVuSans-Bold-64" d="M 2919 2988 
L 2919 4863 
L 4044 4863 
L 4044 0 
L 2919 0 
L 2919 506 
Q 2688 197 2409 53 
Q 2131 -91 1766 -91 
Q 1119 -91 703 423 
Q 288 938 288 1747 
Q 288 2556 703 3070 
Q 1119 3584 1766 3584 
Q 2128 3584 2408 3439 
Q 2688 3294 2919 2988 
z
M 2181 722 
Q 2541 722 2730 984 
Q 2919 1247 2919 1747 
Q 2919 2247 2730 2509 
Q 2541 2772 2181 2772 
Q 1825 2772 1636 2509 
Q 1447 2247 1447 1747 
Q 1447 1247 1636 984 
Q 1825 722 2181 722 
z
" transform="scale(0.015625)"/>
      <path id="DejaVuSans-Bold-65" d="M 4031 1759 
L 4031 1441 
L 1416 1441 
Q 1456 1047 1700 850 
Q 1944 653 2381 653 
Q 2734 653 3104 758 
Q 3475 863 3866 1075 
L 3866 213 
Q 3469 63 3072 -14 
Q 2675 -91 2278 -91 
Q 1328 -91 801 392 
Q 275 875 275 1747 
Q 275 2603 792 3093 
Q 1309 3584 2216 3584 
Q 3041 3584 3536 3087 
Q 4031 2591 4031 1759 
z
M 2881 2131 
Q 2881 2450 2695 2645 
Q 2509 2841 2209 2841 
Q 1884 2841 1681 2658 
Q 1478 2475 1428 2131 
L 2881 2131 
z
" transform="scale(0.015625)"/>
      <path id="DejaVuSans-Bold-6c" d="M 538 4863 
L 1656 4863 
L 1656 0 
L 538 0 
L 538 4863 
z
" transform="scale(0.015625)"/>
      <path id="DejaVuSans-Bold-3a" d="M 716 3500 
L 1844 3500 
L 1844 2291 
L 716 2291 
L 716 3500 
z
M 716 1209 
L 1844 1209 
L 1844 0 
L 716 0 
L 716 1209 
z
" transform="scale(0.015625)"/>
      <path id="DejaVuSans-Bold-4c" d="M 588 4666 
L 1791 4666 
L 1791 909 
L 3903 909 
L 3903 0 
L 588 0 
L 588 4666 
z
" transform="scale(0.015625)"/>
      <path id="DejaVuSans-Bold-61" d="M 2106 1575 
Q 1756 1575 1579 1456 
Q 1403 1338 1403 1106 
Q 1403 894 1545 773 
Q 1688 653 1941 653 
Q 2256 653 2472 879 
Q 2688 1106 2688 1447 
L 2688 1575 
L 2106 1575 
z
M 3816 1997 
L 3816 0 
L 2688 0 
L 2688 519 
Q 2463 200 2181 54 
Q 1900 -91 1497 -91 
Q 953 -91 614 226 
Q 275 544 275 1050 
Q 275 1666 698 1953 
Q 1122 2241 2028 2241 
L 2688 2241 
L 2688 2328 
Q 2688 2594 2478 2717 
Q 2269 2841 1825 2841 
Q 1466 2841 1156 2769 
Q 847 2697 581 2553 
L 581 3406 
Q 941 3494 1303 3539 
Q 1666 3584 2028 3584 
Q 2975 3584 3395 3211 
Q 3816 2838 3816 1997 
z
" transform="scale(0.015625)"/>
      <path id="DejaVuSans-Bold-72" d="M 3138 2547 
Q 2991 2616 2845 2648 
Q 2700 2681 2553 2681 
Q 2122 2681 1889 2404 
Q 1656 2128 1656 1613 
L 1656 0 
L 538 0 
L 538 3500 
L 1656 3500 
L 1656 2925 
Q 1872 3269 2151 3426 
Q 2431 3584 2822 3584 
Q 2878 3584 2943 3579 
Q 3009 3575 3134 3559 
L 3138 2547 
z
" transform="scale(0.015625)"/>
      <path id="DejaVuSans-Bold-67" d="M 2919 594 
Q 2688 288 2409 144 
Q 2131 0 1766 0 
Q 1125 0 706 504 
Q 288 1009 288 1791 
Q 288 2575 706 3076 
Q 1125 3578 1766 3578 
Q 2131 3578 2409 3434 
Q 2688 3291 2919 2981 
L 2919 3500 
L 4044 3500 
L 4044 353 
Q 4044 -491 3511 -936 
Q 2978 -1381 1966 -1381 
Q 1638 -1381 1331 -1331 
Q 1025 -1281 716 -1178 
L 716 -306 
Q 1009 -475 1290 -558 
Q 1572 -641 1856 -641 
Q 2406 -641 2662 -400 
Q 2919 -159 2919 353 
L 2919 594 
z
M 2181 2772 
Q 1834 2772 1640 2515 
Q 1447 2259 1447 1791 
Q 1447 1309 1634 1061 
Q 1822 813 2181 813 
Q 2531 813 2725 1069 
Q 2919 1325 2919 1791 
Q 2919 2259 2725 2515 
Q 2531 2772 2181 2772 
z
" transform="scale(0.015625)"/>
      <path id="DejaVuSans-Bold-74" d="M 1759 4494 
L 1759 3500 
L 2913 3500 
L 2913 2700 
L 1759 2700 
L 1759 1216 
Q 1759 972 1856 886 
Q 1953 800 2241 800 
L 2816 800 
L 2816 0 
L 1856 0 
Q 1194 0 917 276 
Q 641 553 641 1216 
L 641 2700 
L 84 2700 
L 84 3500 
L 641 3500 
L 641 4494 
L 1759 4494 
z
" transform="scale(0.015625)"/>
     </defs>
     <use xlink:href="#DejaVuSans-Bold-44"/>
     <use xlink:href="#DejaVuSans-Bold-69" transform="translate(83.007812 0)"/>
     <use xlink:href="#DejaVuSans-Bold-66" transform="translate(117.285156 0)"/>
     <use xlink:href="#DejaVuSans-Bold-66" transform="translate(160.791016 0)"/>
     <use xlink:href="#DejaVuSans-Bold-75" transform="translate(204.296875 0)"/>
     <use xlink:href="#DejaVuSans-Bold-73" transform="translate(275.488281 0)"/>
     <use xlink:href="#DejaVuSans-Bold-69" transform="translate(335.009766 0)"/>
     <use xlink:href="#DejaVuSans-Bold-6f" transform="translate(369.287109 0)"/>
     <use xlink:href="#DejaVuSans-Bold-6e" transform="translate(437.988281 0)"/>
     <use xlink:href="#DejaVuSans-Bold-20" transform="translate(509.179688 0)"/>
     <use xlink:href="#DejaVuSans-Bold-4d" transform="translate(543.994141 0)"/>
     <use xlink:href="#DejaVuSans-Bold-6f" transform="translate(643.505859 0)"/>
     <use xlink:href="#DejaVuSans-Bold-64" transform="translate(712.207031 0)"/>
     <use xlink:href="#DejaVuSans-Bold-65" transform="translate(783.789062 0)"/>
     <use xlink:href="#DejaVuSans-Bold-6c" transform="translate(851.611328 0)"/>
     <use xlink:href="#DejaVuSans-Bold-73" transform="translate(885.888672 0)"/>
     <use xlink:href="#DejaVuSans-Bold-3a" transform="translate(945.410156 0)"/>
     <use xlink:href="#DejaVuSans-Bold-20" transform="translate(985.400391 0)"/>
     <use xlink:href="#DejaVuSans-Bold-4c" transform="translate(1020.214844 0)"/>
     <use xlink:href="#DejaVuSans-Bold-65" transform="translate(1083.935547 0)"/>
     <use xlink:href="#DejaVuSans-Bold-61" transform="translate(1151.757812 0)"/>
     <use xlink:href="#DejaVuSans-Bold-72" transform="translate(1219.238281 0)"/>
     <use xlink:href="#DejaVuSans-Bold-6e" transform="translate(1268.554688 0)"/>
     <use xlink:href="#DejaVuSans-Bold-69" transform="translate(1339.746094 0)"/>
     <use xlink:href="#DejaVuSans-Bold-6e" transform="translate(1374.023438 0)"/>
     <use xlink:href="#DejaVuSans-Bold-67" transform="translate(1445.214844 0)"/>
     <use xlink:href="#DejaVuSans-Bold-20" transform="translate(1516.796875 0)"/>
     <use xlink:href="#DejaVuSans-Bold-74" transform="translate(1551.611328 0)"/>
     <use xlink:href="#DejaVuSans-Bold-6f" transform="translate(1599.414062 0)"/>
     <use xlink:href="#DejaVuSans-Bold-20" transform="translate(1668.115234 0)"/>
     <use xlink:href="#DejaVuSans-Bold-44" transform="translate(1702.929688 0)"/>
     <use xlink:href="#DejaVuSans-Bold-65" transform="translate(1785.9375 0)"/>
     <use xlink:href="#DejaVuSans-Bold-6e" transform="translate(1853.759766 0)"/>
     <use xlink:href="#DejaVuSans-Bold-6f" transform="translate(1924.951172 0)"/>
     <use xlink:href="#DejaVuSans-Bold-69" transform="translate(1993.652344 0)"/>
     <use xlink:href="#DejaVuSans-Bold-73" transform="translate(2027.929688 0)"/>
     <use xlink:href="#DejaVuSans-Bold-65" transform="translate(2087.451172 0)"/>
    </g>
   </g>
   <g id="text_2">
    <!-- NOISY IMAGE -->
    <g style="fill: #1e3a5f" transform="translate(75.737969 217.872) scale(0.1 -0.1)">
     <defs>
      <path id="DejaVuSans-Bold-4e" d="M 588 4666 
L 1931 4666 
L 3628 1466 
L 3628 4666 
L 4769 4666 
L 4769 0 
L 3425 0 
L 1728 3200 
L 1728 0 
L 588 0 
L 588 4666 
z
" transform="scale(0.015625)"/>
      <path id="DejaVuSans-Bold-4f" d="M 2719 3878 
Q 2169 3878 1866 3472 
Q 1563 3066 1563 2328 
Q 1563 1594 1866 1187 
Q 2169 781 2719 781 
Q 3272 781 3575 1187 
Q 3878 1594 3878 2328 
Q 3878 3066 3575 3472 
Q 3272 3878 2719 3878 
z
M 2719 4750 
Q 3844 4750 4481 4106 
Q 5119 3463 5119 2328 
Q 5119 1197 4481 553 
Q 3844 -91 2719 -91 
Q 1597 -91 958 553 
Q 319 1197 319 2328 
Q 319 3463 958 4106 
Q 1597 4750 2719 4750 
z
" transform="scale(0.015625)"/>
      <path id="DejaVuSans-Bold-49" d="M 588 4666 
L 1791 4666 
L 1791 0 
L 588 0 
L 588 4666 
z
" transform="scale(0.015625)"/>
      <path id="DejaVuSans-Bold-53" d="M 3834 4519 
L 3834 3531 
Q 3450 3703 3084 3790 
Q 2719 3878 2394 3878 
Q 1963 3878 1756 3759 
Q 1550 3641 1550 3391 
Q 1550 3203 1689 3098 
Q 1828 2994 2194 2919 
L 2706 2816 
Q 3484 2659 3812 2340 
Q 4141 2022 4141 1434 
Q 4141 663 3683 286 
Q 3225 -91 2284 -91 
Q 1841 -91 1394 -6 
Q 947 78 500 244 
L 500 1259 
Q 947 1022 1364 901 
Q 1781 781 2169 781 
Q 2563 781 2772 912 
Q 2981 1044 2981 1288 
Q 2981 1506 2839 1625 
Q 2697 1744 2272 1838 
L 1806 1941 
Q 1106 2091 782 2419 
Q 459 2747 459 3303 
Q 459 4000 909 4375 
Q 1359 4750 2203 4750 
Q 2588 4750 2994 4692 
Q 3400 4634 3834 4519 
z
" transform="scale(0.015625)"/>
      <path id="DejaVuSans-Bold-59" d="M -63 4666 
L 1253 4666 
L 2316 3003 
L 3378 4666 
L 4697 4666 
L 2919 1966 
L 2919 0 
L 1716 0 
L 1716 1966 
L -63 4666 
z
" transform="scale(0.015625)"/>
      <path id="DejaVuSans-Bold-41" d="M 3419 850 
L 1538 850 
L 1241 0 
L 31 0 
L 1759 4666 
L 3194 4666 
L 4922 0 
L 3713 0 
L 3419 850 
z
M 1838 1716 
L 3116 1716 
L 2478 3572 
L 1838 1716 
z
" transform="scale(0.015625)"/>
      <path id="DejaVuSans-Bold-47" d="M 4781 347 
Q 4331 128 3847 18 
Q 3363 -91 2847 -91 
Q 1681 -91 1000 561 
Q 319 1213 319 2328 
Q 319 3456 1012 4103 
Q 1706 4750 2913 4750 
Q 3378 4750 3804 4662 
Q 4231 4575 4609 4403 
L 4609 3438 
Q 4219 3659 3833 3768 
Q 3447 3878 3059 3878 
Q 2341 3878 1952 3476 
Q 1563 3075 1563 2328 
Q 1563 1588 1938 1184 
Q 2313 781 3003 781 
Q 3191 781 3352 804 
Q 3513 828 3641 878 
L 3641 1784 
L 2906 1784 
L 2906 2591 
L 4781 2591 
L 4781 347 
z
" transform="scale(0.015625)"/>
      <path id="DejaVuSans-Bold-45" d="M 588 4666 
L 3834 4666 
L 3834 3756 
L 1791 3756 
L 1791 2888 
L 3713 2888 
L 3713 1978 
L 1791 1978 
L 1791 909 
L 3903 909 
L 3903 0 
L 588 0 
L 588 4666 
z
" transform="scale(0.015625)"/>
     </defs>
     <use xlink:href="#DejaVuSans-Bold-4e"/>
     <use xlink:href="#DejaVuSans-Bold-4f" transform="translate(83.691406 0)"/>
     <use xlink:href="#DejaVuSans-Bold-49" transform="translate(168.701172 0)"/>
     <use xlink:href="#DejaVuSans-Bold-53" transform="translate(205.908203 0)"/>
     <use xlink:href="#DejaVuSans-Bold-59" transform="translate(277.929688 0)"/>
     <use xlink:href="#DejaVuSans-Bold-20" transform="translate(350.341797 0)"/>
     <use xlink:href="#DejaVuSans-Bold-49" transform="translate(385.15625 0)"/>
     <use xlink:href="#DejaVuSans-Bold-4d" transform="translate(422.363281 0)"/>
     <use xlink:href="#DejaVuSans-Bold-41" transform="translate(521.875 0)"/>
     <use xlink:href="#DejaVuSans-Bold-47" transform="translate(599.267578 0)"/>
     <use xlink:href="#DejaVuSans-Bold-45" transform="translate(681.347656 0)"/>
    </g>
   </g>
   <g id="text_3">
    <!-- Random noise -->
    <g style="fill: #2d3748" transform="translate(84.75125 247.72175) scale(0.08 -0.08)">
     <defs>
      <path id="DejaVuSans-52" d="M 2841 2188 
Q 3044 2119 3236 1894 
Q 3428 1669 3622 1275 
L 4263 0 
L 3584 0 
L 2988 1197 
Q 2756 1666 2539 1819 
Q 2322 1972 1947 1972 
L 1259 1972 
L 1259 0 
L 628 0 
L 628 4666 
L 2053 4666 
Q 2853 4666 3247 4331 
Q 3641 3997 3641 3322 
Q 3641 2881 3436 2590 
Q 3231 2300 2841 2188 
z
M 1259 4147 
L 1259 2491 
L 2053 2491 
Q 2509 2491 2742 2702 
Q 2975 2913 2975 3322 
Q 2975 3731 2742 3939 
Q 2509 4147 2053 4147 
L 1259 4147 
z
" transform="scale(0.015625)"/>
      <path id="DejaVuSans-61" d="M 2194 1759 
Q 1497 1759 1228 1600 
Q 959 1441 959 1056 
Q 959 750 1161 570 
Q 1363 391 1709 391 
Q 2188 391 2477 730 
Q 2766 1069 2766 1631 
L 2766 1759 
L 2194 1759 
z
M 3341 1997 
L 3341 0 
L 2766 0 
L 2766 531 
Q 2569 213 2275 61 
Q 1981 -91 1556 -91 
Q 1019 -91 701 211 
Q 384 513 384 1019 
Q 384 1609 779 1909 
Q 1175 2209 1959 2209 
L 2766 2209 
L 2766 2266 
Q 2766 2663 2505 2880 
Q 2244 3097 1772 3097 
Q 1472 3097 1187 3025 
Q 903 2953 641 2809 
L 641 3341 
Q 956 3463 1253 3523 
Q 1550 3584 1831 3584 
Q 2591 3584 2966 3190 
Q 3341 2797 3341 1997 
z
" transform="scale(0.015625)"/>
      <path id="DejaVuSans-6e" d="M 3513 2113 
L 3513 0 
L 2938 0 
L 2938 2094 
Q 2938 2591 2744 2837 
Q 2550 3084 2163 3084 
Q 1697 3084 1428 2787 
Q 1159 2491 1159 1978 
L 1159 0 
L 581 0 
L 581 3500 
L 1159 3500 
L 1159 2956 
Q 1366 3272 1645 3428 
Q 1925 3584 2291 3584 
Q 2894 3584 3203 3211 
Q 3513 2838 3513 2113 
z
" transform="scale(0.015625)"/>
      <path id="DejaVuSans-64" d="M 2906 2969 
L 2906 4863 
L 3481 4863 
L 3481 0 
L 2906 0 
L 2906 525 
Q 2725 213 2448 61 
Q 2172 -91 1784 -91 
Q 1150 -91 751 415 
Q 353 922 353 1747 
Q 353 2572 751 3078 
Q 1150 3584 1784 3584 
Q 2172 3584 2448 3432 
Q 2725 3281 2906 2969 
z
M 947 1747 
Q 947 1113 1208 752 
Q 1469 391 1925 391 
Q 2381 391 2643 752 
Q 2906 1113 2906 1747 
Q 2906 2381 2643 2742 
Q 2381 3103 1925 3103 
Q 1469 3103 1208 2742 
Q 947 2381 947 1747 
z
" transform="scale(0.015625)"/>
      <path id="DejaVuSans-6f" d="M 1959 3097 
Q 1497 3097 1228 2736 
Q 959 2375 959 1747 
Q 959 1119 1226 758 
Q 1494 397 1959 397 
Q 2419 397 2687 759 
Q 2956 1122 2956 1747 
Q 2956 2369 2687 2733 
Q 2419 3097 1959 3097 
z
M 1959 3584 
Q 2709 3584 3137 3096 
Q 3566 2609 3566 1747 
Q 3566 888 3137 398 
Q 2709 -91 1959 -91 
Q 1206 -91 779 398 
Q 353 888 353 1747 
Q 353 2609 779 3096 
Q 1206 3584 1959 3584 
z
" transform="scale(0.015625)"/>
      <path id="DejaVuSans-6d" d="M 3328 2828 
Q 3544 3216 3844 3400 
Q 4144 3584 4550 3584 
Q 5097 3584 5394 3201 
Q 5691 2819 5691 2113 
L 5691 0 
L 5113 0 
L 5113 2094 
Q 5113 2597 4934 2840 
Q 4756 3084 4391 3084 
Q 3944 3084 3684 2787 
Q 3425 2491 3425 1978 
L 3425 0 
L 2847 0 
L 2847 2094 
Q 2847 2600 2669 2842 
Q 2491 3084 2119 3084 
Q 1678 3084 1418 2786 
Q 1159 2488 1159 1978 
L 1159 0 
L 581 0 
L 581 3500 
L 1159 3500 
L 1159 2956 
Q 1356 3278 1631 3431 
Q 1906 3584 2284 3584 
Q 2666 3584 2933 3390 
Q 3200 3197 3328 2828 
z
" transform="scale(0.015625)"/>
      <path id="DejaVuSans-20" transform="scale(0.015625)"/>
      <path id="DejaVuSans-69" d="M 603 3500 
L 1178 3500 
L 1178 0 
L 603 0 
L 603 3500 
z
M 603 4863 
L 1178 4863 
L 1178 4134 
L 603 4134 
L 603 4863 
z
" transform="scale(0.015625)"/>
      <path id="DejaVuSans-73" d="M 2834 3397 
L 2834 2853 
Q 2591 2978 2328 3040 
Q 2066 3103 1784 3103 
Q 1356 3103 1142 2972 
Q 928 2841 928 2578 
Q 928 2378 1081 2264 
Q 1234 2150 1697 2047 
L 1894 2003 
Q 2506 1872 2764 1633 
Q 3022 1394 3022 966 
Q 3022 478 2636 193 
Q 2250 -91 1575 -91 
Q 1294 -91 989 -36 
Q 684 19 347 128 
L 347 722 
Q 666 556 975 473 
Q 1284 391 1588 391 
Q 1994 391 2212 530 
Q 2431 669 2431 922 
Q 2431 1156 2273 1281 
Q 2116 1406 1581 1522 
L 1381 1569 
Q 847 1681 609 1914 
Q 372 2147 372 2553 
Q 372 3047 722 3315 
Q 1072 3584 1716 3584 
Q 2034 3584 2315 3537 
Q 2597 3491 2834 3397 
z
" transform="scale(0.015625)"/>
      <path id="DejaVuSans-65" d="M 3597 1894 
L 3597 1613 
L 953 1613 
Q 991 1019 1311 708 
Q 1631 397 2203 397 
Q 2534 397 2845 478 
Q 3156 559 3463 722 
L 3463 178 
Q 3153 47 2828 -22 
Q 2503 -91 2169 -91 
Q 1331 -91 842 396 
Q 353 884 353 1716 
Q 353 2575 817 3079 
Q 1281 3584 2069 3584 
Q 2775 3584 3186 3129 
Q 3597 2675 3597 1894 
z
M 3022 2063 
Q 3016 2534 2758 2815 
Q 2500 3097 2075 3097 
Q 1594 3097 1305 2825 
Q 1016 2553 972 2059 
L 3022 2063 
z
" transform="scale(0.015625)"/>
     </defs>
     <use xlink:href="#DejaVuSans-52"/>
     <use xlink:href="#DejaVuSans-61" transform="translate(67.232422 0)"/>
     <use xlink:href="#DejaVuSans-6e" transform="translate(128.511719 0)"/>
     <use xlink:href="#DejaVuSans-64" transform="translate(191.890625 0)"/>
     <use xlink:href="#DejaVuSans-6f" transform="translate(255.367188 0)"/>
     <use xlink:href="#DejaVuSans-6d" transform="translate(316.548828 0)"/>
     <use xlink:href="#DejaVuSans-20" transform="translate(413.960938 0)"/>
     <use xlink:href="#DejaVuSans-6e" transform="translate(445.748047 0)"/>
     <use xlink:href="#DejaVuSans-6f" transform="translate(509.126953 0)"/>
     <use xlink:href="#DejaVuSans-69" transform="translate(570.308594 0)"/>
     <use xlink:href="#DejaVuSans-73" transform="translate(598.091797 0)"/>
     <use xlink:href="#DejaVuSans-65" transform="translate(650.191406 0)"/>
    </g>
    <!-- (Gaussian) -->
    <g style="fill: #2d3748" transform="translate(91.748125 256.68) scale(0.08 -0.08)">
     <defs>
      <path id="DejaVuSans-28" d="M 1984 4856 
Q 1566 4138 1362 3434 
Q 1159 2731 1159 2009 
Q 1159 1288 1364 580 
Q 1569 -128 1984 -844 
L 1484 -844 
Q 1016 -109 783 600 
Q 550 1309 550 2009 
Q 550 2706 781 3412 
Q 1013 4119 1484 4856 
L 1984 4856 
z
" transform="scale(0.015625)"/>
      <path id="DejaVuSans-47" d="M 3809 666 
L 3809 1919 
L 2778 1919 
L 2778 2438 
L 4434 2438 
L 4434 434 
Q 4069 175 3628 42 
Q 3188 -91 2688 -91 
Q 1594 -91 976 548 
Q 359 1188 359 2328 
Q 359 3472 976 4111 
Q 1594 4750 2688 4750 
Q 3144 4750 3555 4637 
Q 3966 4525 4313 4306 
L 4313 3634 
Q 3963 3931 3569 4081 
Q 3175 4231 2741 4231 
Q 1884 4231 1454 3753 
Q 1025 3275 1025 2328 
Q 1025 1384 1454 906 
Q 1884 428 2741 428 
Q 3075 428 3337 486 
Q 3600 544 3809 666 
z
" transform="scale(0.015625)"/>
      <path id="DejaVuSans-75" d="M 544 1381 
L 544 3500 
L 1119 3500 
L 1119 1403 
Q 1119 906 1312 657 
Q 1506 409 1894 409 
Q 2359 409 2629 706 
Q 2900 1003 2900 1516 
L 2900 3500 
L 3475 3500 
L 3475 0 
L 2900 0 
L 2900 538 
Q 2691 219 2414 64 
Q 2138 -91 1772 -91 
Q 1169 -91 856 284 
Q 544 659 544 1381 
z
M 1991 3584 
L 1991 3584 
z
" transform="scale(0.015625)"/>
      <path id="DejaVuSans-29" d="M 513 4856 
L 1013 4856 
Q 1481 4119 1714 3412 
Q 1947 2706 1947 2009 
Q 1947 1309 1714 600 
Q 1481 -109 1013 -844 
L 513 -844 
Q 928 -128 1133 580 
Q 1338 1288 1338 2009 
Q 1338 2731 1133 3434 
Q 928 4138 513 4856 
z
" transform="scale(0.015625)"/>
     </defs>
     <use xlink:href="#DejaVuSans-28"/>
     <use xlink:href="#DejaVuSans-47" transform="translate(39.013672 0)"/>
     <use xlink:href="#DejaVuSans-61" transform="translate(116.503906 0)"/>
     <use xlink:href="#DejaVuSans-75" transform="translate(177.783203 0)"/>
     <use xlink:href="#DejaVuSans-73" transform="translate(241.162109 0)"/>
     <use xlink:href="#DejaVuSans-73" transform="translate(293.261719 0)"/>
     <use xlink:href="#DejaVuSans-69" transform="translate(345.361328 0)"/>
     <use xlink:href="#DejaVuSans-61" transform="translate(373.144531 0)"/>
     <use xlink:href="#DejaVuSans-6e" transform="translate(434.423828 0)"/>
     <use xlink:href="#DejaVuSans-29" transform="translate(497.802734 0)"/>
    </g>
   </g>
   <g id="patch_9">
    <path d="M 159.858501 251.136 
Q 166.230528 251.136 170.366488 251.136 
" style="fill: none; stroke: #1e3a5f; stroke-width: 2; stroke-linecap: round"/>
    <path d="M 166.366488 249.136 
L 170.366488 251.136 
L 166.366488 253.136 
" style="fill: none; stroke: #1e3a5f; stroke-width: 2; stroke-linecap: round"/>
   </g>
   <g id="text_4">
    <!-- STEP 1 -->
    <g style="fill: #1e3a5f" transform="translate(216.668281 217.872) scale(0.1 -0.1)">
     <defs>
      <path id="DejaVuSans-Bold-54" d="M 31 4666 
L 4331 4666 
L 4331 3756 
L 2784 3756 
L 2784 0 
L 1581 0 
L 1581 3756 
L 31 3756 
L 31 4666 
z
" transform="scale(0.015625)"/>
      <path id="DejaVuSans-Bold-50" d="M 588 4666 
L 2584 4666 
Q 3475 4666 3951 4270 
Q 4428 3875 4428 3144 
Q 4428 2409 3951 2014 
Q 3475 1619 2584 1619 
L 1791 1619 
L 1791 0 
L 588 0 
L 588 4666 
z
M 1791 3794 
L 1791 2491 
L 2456 2491 
Q 2806 2491 2997 2661 
Q 3188 2831 3188 3144 
Q 3188 3456 2997 3625 
Q 2806 3794 2456 3794 
L 1791 3794 
z
" transform="scale(0.015625)"/>
      <path id="DejaVuSans-Bold-31" d="M 750 831 
L 1813 831 
L 1813 3847 
L 722 3622 
L 722 4441 
L 1806 4666 
L 2950 4666 
L 2950 831 
L 4013 831 
L 4013 0 
L 750 0 
L 750 831 
z
" transform="scale(0.015625)"/>
     </defs>
     <use xlink:href="#DejaVuSans-Bold-53"/>
     <use xlink:href="#DejaVuSans-Bold-54" transform="translate(72.021484 0)"/>
     <use xlink:href="#DejaVuSans-Bold-45" transform="translate(140.234375 0)"/>
     <use xlink:href="#DejaVuSans-Bold-50" transform="translate(208.544922 0)"/>
     <use xlink:href="#DejaVuSans-Bold-20" transform="translate(281.835938 0)"/>
     <use xlink:href="#DejaVuSans-Bold-31" transform="translate(316.650391 0)"/>
    </g>
   </g>
   <g id="text_5">
    <!-- Predict &amp; -->
    <g style="fill: #2d3748" transform="translate(217.81375 247.72175) scale(0.08 -0.08)">
     <defs>
      <path id="DejaVuSans-50" d="M 1259 4147 
L 1259 2394 
L 2053 2394 
Q 2494 2394 2734 2622 
Q 2975 2850 2975 3272 
Q 2975 3691 2734 3919 
Q 2494 4147 2053 4147 
L 1259 4147 
z
M 628 4666 
L 2053 4666 
Q 2838 4666 3239 4311 
Q 3641 3956 3641 3272 
Q 3641 2581 3239 2228 
Q 2838 1875 2053 1875 
L 1259 1875 
L 1259 0 
L 628 0 
L 628 4666 
z
" transform="scale(0.015625)"/>
      <path id="DejaVuSans-72" d="M 2631 2963 
Q 2534 3019 2420 3045 
Q 2306 3072 2169 3072 
Q 1681 3072 1420 2755 
Q 1159 2438 1159 1844 
L 1159 0 
L 581 0 
L 581 3500 
L 1159 3500 
L 1159 2956 
Q 1341 3275 1631 3429 
Q 1922 3584 2338 3584 
Q 2397 3584 2469 3576 
Q 2541 3569 2628 3553 
L 2631 2963 
z
" transform="scale(0.015625)"/>
      <path id="DejaVuSans-63" d="M 3122 3366 
L 3122 2828 
Q 2878 2963 2633 3030 
Q 2388 3097 2138 3097 
Q 1578 3097 1268 2742 
Q 959 2388 959 1747 
Q 959 1106 1268 751 
Q 1578 397 2138 397 
Q 2388 397 2633 464 
Q 2878 531 3122 666 
L 3122 134 
Q 2881 22 2623 -34 
Q 2366 -91 2075 -91 
Q 1284 -91 818 406 
Q 353 903 353 1747 
Q 353 2603 823 3093 
Q 1294 3584 2113 3584 
Q 2378 3584 2631 3529 
Q 2884 3475 3122 3366 
z
" transform="scale(0.015625)"/>
      <path id="DejaVuSans-74" d="M 1172 4494 
L 1172 3500 
L 2356 3500 
L 2356 3053 
L 1172 3053 
L 1172 1153 
Q 1172 725 1289 603 
Q 1406 481 1766 481 
L 2356 481 
L 2356 0 
L 1766 0 
Q 1100 0 847 248 
Q 594 497 594 1153 
L 594 3053 
L 172 3053 
L 172 3500 
L 594 3500 
L 594 4494 
L 1172 4494 
z
" transform="scale(0.015625)"/>
      <path id="DejaVuSans-26" d="M 1556 2509 
Q 1272 2256 1139 2004 
Q 1006 1753 1006 1478 
Q 1006 1022 1337 719 
Q 1669 416 2169 416 
Q 2466 416 2725 514 
Q 2984 613 3213 813 
L 1556 2509 
z
M 1997 2859 
L 3584 1234 
Q 3769 1513 3872 1830 
Q 3975 2147 3994 2503 
L 4575 2503 
Q 4538 2091 4375 1687 
Q 4213 1284 3922 891 
L 4794 0 
L 4006 0 
L 3559 459 
Q 3234 181 2878 45 
Q 2522 -91 2113 -91 
Q 1359 -91 881 339 
Q 403 769 403 1441 
Q 403 1841 612 2192 
Q 822 2544 1241 2853 
Q 1091 3050 1012 3245 
Q 934 3441 934 3628 
Q 934 4134 1281 4442 
Q 1628 4750 2203 4750 
Q 2463 4750 2720 4694 
Q 2978 4638 3244 4525 
L 3244 3956 
Q 2972 4103 2725 4179 
Q 2478 4256 2266 4256 
Q 1938 4256 1733 4082 
Q 1528 3909 1528 3634 
Q 1528 3475 1620 3314 
Q 1713 3153 1997 2859 
z
" transform="scale(0.015625)"/>
     </defs>
     <use xlink:href="#DejaVuSans-50"/>
     <use xlink:href="#DejaVuSans-72" transform="translate(58.552734 0)"/>
     <use xlink:href="#DejaVuSans-65" transform="translate(97.416016 0)"/>
     <use xlink:href="#DejaVuSans-64" transform="translate(158.939453 0)"/>
     <use xlink:href="#DejaVuSans-69" transform="translate(222.416016 0)"/>
     <use xlink:href="#DejaVuSans-63" transform="translate(250.199219 0)"/>
     <use xlink:href="#DejaVuSans-74" transform="translate(305.179688 0)"/>
     <use xlink:href="#DejaVuSans-20" transform="translate(344.388672 0)"/>
     <use xlink:href="#DejaVuSans-26" transform="translate(376.175781 0)"/>
    </g>
    <!-- remove noise -->
    <g style="fill: #2d3748" transform="translate(208.881875 256.68) scale(0.08 -0.08)">
     <defs>
      <path id="DejaVuSans-76" d="M 191 3500 
L 800 3500 
L 1894 563 
L 2988 3500 
L 3597 3500 
L 2284 0 
L 1503 0 
L 191 3500 
z
" transform="scale(0.015625)"/>
     </defs>
     <use xlink:href="#DejaVuSans-72"/>
     <use xlink:href="#DejaVuSans-65" transform="translate(38.863281 0)"/>
     <use xlink:href="#DejaVuSans-6d" transform="translate(100.386719 0)"/>
     <use xlink:href="#DejaVuSans-6f" transform="translate(197.798828 0)"/>
     <use xlink:href="#DejaVuSans-76" transform="translate(258.980469 0)"/>
     <use xlink:href="#DejaVuSans-65" transform="translate(318.160156 0)"/>
     <use xlink:href="#DejaVuSans-20" transform="translate(379.683594 0)"/>
     <use xlink:href="#DejaVuSans-6e" transform="translate(411.470703 0)"/>
     <use xlink:href="#DejaVuSans-6f" transform="translate(474.849609 0)"/>
     <use xlink:href="#DejaVuSans-69" transform="translate(536.03125 0)"/>
     <use xlink:href="#DejaVuSans-73" transform="translate(563.814453 0)"/>
     <use xlink:href="#DejaVuSans-65" transform="translate(615.914062 0)"/>
    </g>
   </g>
   <g id="patch_10">
    <path d="M 282.618501 251.136 
Q 288.990528 251.136 293.126488 251.136 
" style="fill: none; stroke: #1e3a5f; stroke-width: 2; stroke-linecap: round"/>
    <path d="M 289.126488 249.136 
L 293.126488 251.136 
L 289.126488 253.136 
" style="fill: none; stroke: #1e3a5f; stroke-width: 2; stroke-linecap: round"/>
   </g>
   <g id="text_6">
    <!-- STEP 2 -->
    <g style="fill: #1e3a5f" transform="translate(339.428281 217.872) scale(0.1 -0.1)">
     <defs>
      <path id="DejaVuSans-Bold-32" d="M 1844 884 
L 3897 884 
L 3897 0 
L 506 0 
L 506 884 
L 2209 2388 
Q 2438 2594 2547 2791 
Q 2656 2988 2656 3200 
Q 2656 3528 2436 3728 
Q 2216 3928 1850 3928 
Q 1569 3928 1234 3808 
Q 900 3688 519 3450 
L 519 4475 
Q 925 4609 1322 4679 
Q 1719 4750 2100 4750 
Q 2938 4750 3402 4381 
Q 3866 4013 3866 3353 
Q 3866 2972 3669 2642 
Q 3472 2313 2841 1759 
L 1844 884 
z
" transform="scale(0.015625)"/>
     </defs>
     <use xlink:href="#DejaVuSans-Bold-53"/>
     <use xlink:href="#DejaVuSans-Bold-54" transform="translate(72.021484 0)"/>
     <use xlink:href="#DejaVuSans-Bold-45" transform="translate(140.234375 0)"/>
     <use xlink:href="#DejaVuSans-Bold-50" transform="translate(208.544922 0)"/>
     <use xlink:href="#DejaVuSans-Bold-20" transform="translate(281.835938 0)"/>
     <use xlink:href="#DejaVuSans-Bold-32" transform="translate(316.650391 0)"/>
    </g>
   </g>
   <g id="text_7">
    <!-- Predict &amp; -->
    <g style="fill: #2d3748" transform="translate(340.57375 247.72175) scale(0.08 -0.08)">
     <use xlink:href="#DejaVuSans-50"/>
     <use xlink:href="#DejaVuSans-72" transform="translate(58.552734 0)"/>
     <use xlink:href="#DejaVuSans-65" transform="translate(97.416016 0)"/>
     <use xlink:href="#DejaVuSans-64" transform="translate(158.939453 0)"/>
     <use xlink:href="#DejaVuSans-69" transform="translate(222.416016 0)"/>
     <use xlink:href="#DejaVuSans-63" transform="translate(250.199219 0)"/>
     <use xlink:href="#DejaVuSans-74" transform="translate(305.179688 0)"/>
     <use xlink:href="#DejaVuSans-20" transform="translate(344.388672 0)"/>
     <use xlink:href="#DejaVuSans-26" transform="translate(376.175781 0)"/>
    </g>
    <!-- remove noise -->
    <g style="fill: #2d3748" transform="translate(331.641875 256.68) scale(0.08 -0.08)">
     <use xlink:href="#DejaVuSans-72"/>
     <use xlink:href="#DejaVuSans-65" transform="translate(38.863281 0)"/>
     <use xlink:href="#DejaVuSans-6d" transform="translate(100.386719 0)"/>
     <use xlink:href="#DejaVuSans-6f" transform="translate(197.798828 0)"/>
     <use xlink:href="#DejaVuSans-76" transform="translate(258.980469 0)"/>
     <use xlink:href="#DejaVuSans-65" transform="translate(318.160156 0)"/>
     <use xlink:href="#DejaVuSans-20" transform="translate(379.683594 0)"/>
     <use xlink:href="#DejaVuSans-6e" transform="translate(411.470703 0)"/>
     <use xlink:href="#DejaVuSans-6f" transform="translate(474.849609 0)"/>
     <use xlink:href="#DejaVuSans-69" transform="translate(536.03125 0)"/>
     <use xlink:href="#DejaVuSans-73" transform="translate(563.814453 0)"/>
     <use xlink:href="#DejaVuSans-65" transform="translate(615.914062 0)"/>
    </g>
   </g>
   <g id="patch_11">
    <path d="M 405.378501 251.136 
Q 411.750528 251.136 415.886488 251.136 
" style="fill: none; stroke: #1e3a5f; stroke-width: 2; stroke-linecap: round"/>
    <path d="M 411.886488 249.136 
L 415.886488 251.136 
L 411.886488 253.136 
" style="fill: none; stroke: #1e3a5f; stroke-width: 2; stroke-linecap: round"/>
   </g>
   <g id="text_8">
    <!-- STEP 3 -->
    <g style="fill: #1e3a5f" transform="translate(462.188281 217.872) scale(0.1 -0.1)">
     <defs>
      <path id="DejaVuSans-Bold-33" d="M 2981 2516 
Q 3453 2394 3698 2092 
Q 3944 1791 3944 1325 
Q 3944 631 3412 270 
Q 2881 -91 1863 -91 
Q 1503 -91 1142 -33 
Q 781 25 428 141 
L 428 1069 
Q 766 900 1098 814 
Q 1431 728 1753 728 
Q 2231 728 2486 893 
Q 2741 1059 2741 1369 
Q 2741 1688 2480 1852 
Q 2219 2016 1709 2016 
L 1228 2016 
L 1228 2791 
L 1734 2791 
Q 2188 2791 2409 2933 
Q 2631 3075 2631 3366 
Q 2631 3634 2415 3781 
Q 2200 3928 1806 3928 
Q 1516 3928 1219 3862 
Q 922 3797 628 3669 
L 628 4550 
Q 984 4650 1334 4700 
Q 1684 4750 2022 4750 
Q 2931 4750 3382 4451 
Q 3834 4153 3834 3553 
Q 3834 3144 3618 2883 
Q 3403 2622 2981 2516 
z
" transform="scale(0.015625)"/>
     </defs>
     <use xlink:href="#DejaVuSans-Bold-53"/>
     <use xlink:href="#DejaVuSans-Bold-54" transform="translate(72.021484 0)"/>
     <use xlink:href="#DejaVuSans-Bold-45" transform="translate(140.234375 0)"/>
     <use xlink:href="#DejaVuSans-Bold-50" transform="translate(208.544922 0)"/>
     <use xlink:href="#DejaVuSans-Bold-20" transform="translate(281.835938 0)"/>
     <use xlink:href="#DejaVuSans-Bold-33" transform="translate(316.650391 0)"/>
    </g>
   </g>
   <g id="text_9">
    <!-- Predict &amp; -->
    <g style="fill: #2d3748" transform="translate(463.33375 247.72175) scale(0.08 -0.08)">
     <use xlink:href="#DejaVuSans-50"/>
     <use xlink:href="#DejaVuSans-72" transform="translate(58.552734 0)"/>
     <use xlink:href="#DejaVuSans-65" transform="translate(97.416016 0)"/>
     <use xlink:href="#DejaVuSans-64" transform="translate(158.939453 0)"/>
     <use xlink:href="#DejaVuSans-69" transform="translate(222.416016 0)"/>
     <use xlink:href="#DejaVuSans-63" transform="translate(250.199219 0)"/>
     <use xlink:href="#DejaVuSans-74" transform="translate(305.179688 0)"/>
     <use xlink:href="#DejaVuSans-20" transform="translate(344.388672 0)"/>
     <use xlink:href="#DejaVuSans-26" transform="translate(376.175781 0)"/>
    </g>
    <!-- remove noise -->
    <g style="fill: #2d3748" transform="translate(454.401875 256.68) scale(0.08 -0.08)">
     <use xlink:href="#DejaVuSans-72"/>
     <use xlink:href="#DejaVuSans-65" transform="translate(38.863281 0)"/>
     <use xlink:href="#DejaVuSans-6d" transform="translate(100.386719 0)"/>
     <use xlink:href="#DejaVuSans-6f" transform="translate(197.798828 0)"/>
     <use xlink:href="#DejaVuSans-76" transform="translate(258.980469 0)"/>
     <use xlink:href="#DejaVuSans-65" transform="translate(318.160156 0)"/>
     <use xlink:href="#DejaVuSans-20" transform="translate(379.683594 0)"/>
     <use xlink:href="#DejaVuSans-6e" transform="translate(411.470703 0)"/>
     <use xlink:href="#DejaVuSans-6f" transform="translate(474.849609 0)"/>
     <use xlink:href="#DejaVuSans-69" transform="translate(536.03125 0)"/>
     <use xlink:href="#DejaVuSans-73" transform="translate(563.814453 0)"/>
     <use xlink:href="#DejaVuSans-65" transform="translate(615.914062 0)"/>
    </g>
   </g>
   <g id="patch_12">
    <path d="M 528.138501 251.136 
Q 534.510528 251.136 538.646488 251.136 
" style="fill: none; stroke: #1e3a5f; stroke-width: 2; stroke-linecap: round"/>
    <path d="M 534.646488 249.136 
L 538.646488 251.136 
L 534.646488 253.136 
" style="fill: none; stroke: #1e3a5f; stroke-width: 2; stroke-linecap: round"/>
   </g>
   <g id="text_10">
    <!-- STEP N -->
    <g style="fill: #1e3a5f" transform="translate(584.242813 217.872) scale(0.1 -0.1)">
     <use xlink:href="#DejaVuSans-Bold-53"/>
     <use xlink:href="#DejaVuSans-Bold-54" transform="translate(72.021484 0)"/>
     <use xlink:href="#DejaVuSans-Bold-45" transform="translate(140.234375 0)"/>
     <use xlink:href="#DejaVuSans-Bold-50" transform="translate(208.544922 0)"/>
     <use xlink:href="#DejaVuSans-Bold-20" transform="translate(281.835938 0)"/>
     <use xlink:href="#DejaVuSans-Bold-4e" transform="translate(316.650391 0)"/>
    </g>
   </g>
   <g id="text_11">
    <!-- Predict &amp; -->
    <g style="fill: #2d3748" transform="translate(586.09375 247.72175) scale(0.08 -0.08)">
     <use xlink:href="#DejaVuSans-50"/>
     <use xlink:href="#DejaVuSans-72" transform="translate(58.552734 0)"/>
     <use xlink:href="#DejaVuSans-65" transform="translate(97.416016 0)"/>
     <use xlink:href="#DejaVuSans-64" transform="translate(158.939453 0)"/>
     <use xlink:href="#DejaVuSans-69" transform="translate(222.416016 0)"/>
     <use xlink:href="#DejaVuSans-63" transform="translate(250.199219 0)"/>
     <use xlink:href="#DejaVuSans-74" transform="translate(305.179688 0)"/>
     <use xlink:href="#DejaVuSans-20" transform="translate(344.388672 0)"/>
     <use xlink:href="#DejaVuSans-26" transform="translate(376.175781 0)"/>
    </g>
    <!-- remove noise -->
    <g style="fill: #2d3748" transform="translate(577.161875 256.68) scale(0.08 -0.08)">
     <use xlink:href="#DejaVuSans-72"/>
     <use xlink:href="#DejaVuSans-65" transform="translate(38.863281 0)"/>
     <use xlink:href="#DejaVuSans-6d" transform="translate(100.386719 0)"/>
     <use xlink:href="#DejaVuSans-6f" transform="translate(197.798828 0)"/>
     <use xlink:href="#DejaVuSans-76" transform="translate(258.980469 0)"/>
     <use xlink:href="#DejaVuSans-65" transform="translate(318.160156 0)"/>
     <use xlink:href="#DejaVuSans-20" transform="translate(379.683594 0)"/>
     <use xlink:href="#DejaVuSans-6e" transform="translate(411.470703 0)"/>
     <use xlink:href="#DejaVuSans-6f" transform="translate(474.849609 0)"/>
     <use xlink:href="#DejaVuSans-69" transform="translate(536.03125 0)"/>
     <use xlink:href="#DejaVuSans-73" transform="translate(563.814453 0)"/>
     <use xlink:href="#DejaVuSans-65" transform="translate(615.914062 0)"/>
    </g>
   </g>
   <g id="patch_13">
    <path d="M 650.898501 251.136 
Q 657.270528 251.136 661.406488 251.136 
" style="fill: none; stroke: #1e3a5f; stroke-width: 2; stroke-linecap: round"/>
    <path d="M 657.406488 249.136 
L 661.406488 251.136 
L 657.406488 253.136 
" style="fill: none; stroke: #1e3a5f; stroke-width: 2; stroke-linecap: round"/>
   </g>
   <g id="text_12">
    <!-- CLEAN IMAGE -->
    <g style="fill: #1e3a5f" transform="translate(688.729375 217.872) scale(0.1 -0.1)">
     <defs>
      <path id="DejaVuSans-Bold-43" d="M 4288 256 
Q 3956 84 3597 -3 
Q 3238 -91 2847 -91 
Q 1681 -91 1000 561 
Q 319 1213 319 2328 
Q 319 3447 1000 4098 
Q 1681 4750 2847 4750 
Q 3238 4750 3597 4662 
Q 3956 4575 4288 4403 
L 4288 3438 
Q 3953 3666 3628 3772 
Q 3303 3878 2944 3878 
Q 2300 3878 1931 3465 
Q 1563 3053 1563 2328 
Q 1563 1606 1931 1193 
Q 2300 781 2944 781 
Q 3303 781 3628 887 
Q 3953 994 4288 1222 
L 4288 256 
z
" transform="scale(0.015625)"/>
     </defs>
     <use xlink:href="#DejaVuSans-Bold-43"/>
     <use xlink:href="#DejaVuSans-Bold-4c" transform="translate(73.388672 0)"/>
     <use xlink:href="#DejaVuSans-Bold-45" transform="translate(137.109375 0)"/>
     <use xlink:href="#DejaVuSans-Bold-41" transform="translate(205.419922 0)"/>
     <use xlink:href="#DejaVuSans-Bold-4e" transform="translate(282.8125 0)"/>
     <use xlink:href="#DejaVuSans-Bold-20" transform="translate(366.503906 0)"/>
     <use xlink:href="#DejaVuSans-Bold-49" transform="translate(401.318359 0)"/>
     <use xlink:href="#DejaVuSans-Bold-4d" transform="translate(438.525391 0)"/>
     <use xlink:href="#DejaVuSans-Bold-41" transform="translate(538.037109 0)"/>
     <use xlink:href="#DejaVuSans-Bold-47" transform="translate(615.429688 0)"/>
     <use xlink:href="#DejaVuSans-Bold-45" transform="translate(697.509766 0)"/>
    </g>
   </g>
   <g id="text_13">
    <!-- Original! -->
    <g style="fill: #2d3748" transform="translate(709.76375 247.72175) scale(0.08 -0.08)">
     <defs>
      <path id="DejaVuSans-4f" d="M 2522 4238 
Q 1834 4238 1429 3725 
Q 1025 3213 1025 2328 
Q 1025 1447 1429 934 
Q 1834 422 2522 422 
Q 3209 422 3611 934 
Q 4013 1447 4013 2328 
Q 4013 3213 3611 3725 
Q 3209 4238 2522 4238 
z
M 2522 4750 
Q 3503 4750 4090 4092 
Q 4678 3434 4678 2328 
Q 4678 1225 4090 567 
Q 3503 -91 2522 -91 
Q 1538 -91 948 565 
Q 359 1222 359 2328 
Q 359 3434 948 4092 
Q 1538 4750 2522 4750 
z
" transform="scale(0.015625)"/>
      <path id="DejaVuSans-67" d="M 2906 1791 
Q 2906 2416 2648 2759 
Q 2391 3103 1925 3103 
Q 1463 3103 1205 2759 
Q 947 2416 947 1791 
Q 947 1169 1205 825 
Q 1463 481 1925 481 
Q 2391 481 2648 825 
Q 2906 1169 2906 1791 
z
M 3481 434 
Q 3481 -459 3084 -895 
Q 2688 -1331 1869 -1331 
Q 1566 -1331 1297 -1286 
Q 1028 -1241 775 -1147 
L 775 -588 
Q 1028 -725 1275 -790 
Q 1522 -856 1778 -856 
Q 2344 -856 2625 -561 
Q 2906 -266 2906 331 
L 2906 616 
Q 2728 306 2450 153 
Q 2172 0 1784 0 
Q 1141 0 747 490 
Q 353 981 353 1791 
Q 353 2603 747 3093 
Q 1141 3584 1784 3584 
Q 2172 3584 2450 3431 
Q 2728 3278 2906 2969 
L 2906 3500 
L 3481 3500 
L 3481 434 
z
" transform="scale(0.015625)"/>
      <path id="DejaVuSans-6c" d="M 603 4863 
L 1178 4863 
L 1178 0 
L 603 0 
L 603 4863 
z
" transform="scale(0.015625)"/>
      <path id="DejaVuSans-21" d="M 966 794 
L 1600 794 
L 1600 0 
L 966 0 
L 966 794 
z
M 966 4666 
L 1600 4666 
L 1600 2619 
L 1538 1503 
L 1031 1503 
L 966 2619 
L 966 4666 
z
" transform="scale(0.015625)"/>
     </defs>
     <use xlink:href="#DejaVuSans-4f"/>
     <use xlink:href="#DejaVuSans-72" transform="translate(78.710938 0)"/>
     <use xlink:href="#DejaVuSans-69" transform="translate(119.824219 0)"/>
     <use xlink:href="#DejaVuSans-67" transform="translate(147.607422 0)"/>
     <use xlink:href="#DejaVuSans-69" transform="translate(211.083984 0)"/>
     <use xlink:href="#DejaVuSans-6e" transform="translate(238.867188 0)"/>
     <use xlink:href="#DejaVuSans-61" transform="translate(302.246094 0)"/>
     <use xlink:href="#DejaVuSans-6c" transform="translate(363.525391 0)"/>
     <use xlink:href="#DejaVuSans-21" transform="translate(391.308594 0)"/>
    </g>
    <!-- (Or new sample) -->
    <g style="fill: #2d3748" transform="translate(693.7525 256.68) scale(0.08 -0.08)">
     <defs>
      <path id="DejaVuSans-77" d="M 269 3500 
L 844 3500 
L 1563 769 
L 2278 3500 
L 2956 3500 
L 3675 769 
L 4391 3500 
L 4966 3500 
L 4050 0 
L 3372 0 
L 2619 2869 
L 1863 0 
L 1184 0 
L 269 3500 
z
" transform="scale(0.015625)"/>
      <path id="DejaVuSans-70" d="M 1159 525 
L 1159 -1331 
L 581 -1331 
L 581 3500 
L 1159 3500 
L 1159 2969 
Q 1341 3281 1617 3432 
Q 1894 3584 2278 3584 
Q 2916 3584 3314 3078 
Q 3713 2572 3713 1747 
Q 3713 922 3314 415 
Q 2916 -91 2278 -91 
Q 1894 -91 1617 61 
Q 1341 213 1159 525 
z
M 3116 1747 
Q 3116 2381 2855 2742 
Q 2594 3103 2138 3103 
Q 1681 3103 1420 2742 
Q 1159 2381 1159 1747 
Q 1159 1113 1420 752 
Q 1681 391 2138 391 
Q 2594 391 2855 752 
Q 3116 1113 3116 1747 
z
" transform="scale(0.015625)"/>
     </defs>
     <use xlink:href="#DejaVuSans-28"/>
     <use xlink:href="#DejaVuSans-4f" transform="translate(39.013672 0)"/>
     <use xlink:href="#DejaVuSans-72" transform="translate(117.724609 0)"/>
     <use xlink:href="#DejaVuSans-20" transform="translate(158.837891 0)"/>
     <use xlink:href="#DejaVuSans-6e" transform="translate(190.625 0)"/>
     <use xlink:href="#DejaVuSans-65" transform="translate(254.003906 0)"/>
     <use xlink:href="#DejaVuSans-77" transform="translate(315.527344 0)"/>
     <use xlink:href="#DejaVuSans-20" transform="translate(397.314453 0)"/>
     <use xlink:href="#DejaVuSans-73" transform="translate(429.101562 0)"/>
     <use xlink:href="#DejaVuSans-61" transform="translate(481.201172 0)"/>
     <use xlink:href="#DejaVuSans-6d" transform="translate(542.480469 0)"/>
     <use xlink:href="#DejaVuSans-70" transform="translate(639.892578 0)"/>
     <use xlink:href="#DejaVuSans-6c" transform="translate(703.369141 0)"/>
     <use xlink:href="#DejaVuSans-65" transform="translate(731.152344 0)"/>
     <use xlink:href="#DejaVuSans-29" transform="translate(792.675781 0)"/>
    </g>
   </g>
   <g id="text_14">
    <!-- Training Goal: Learn to predict the EXACT noise added at each step -->
    <g style="fill: #e85a4f" transform="translate(169.785 123.624) scale(0.12 -0.12)">
     <defs>
      <path id="DejaVuSans-Bold-70" d="M 1656 506 
L 1656 -1331 
L 538 -1331 
L 538 3500 
L 1656 3500 
L 1656 2988 
Q 1888 3294 2169 3439 
Q 2450 3584 2816 3584 
Q 3463 3584 3878 3070 
Q 4294 2556 4294 1747 
Q 4294 938 3878 423 
Q 3463 -91 2816 -91 
Q 2450 -91 2169 54 
Q 1888 200 1656 506 
z
M 2400 2772 
Q 2041 2772 1848 2508 
Q 1656 2244 1656 1747 
Q 1656 1250 1848 986 
Q 2041 722 2400 722 
Q 2759 722 2948 984 
Q 3138 1247 3138 1747 
Q 3138 2247 2948 2509 
Q 2759 2772 2400 2772 
z
" transform="scale(0.015625)"/>
      <path id="DejaVuSans-Bold-63" d="M 3366 3391 
L 3366 2478 
Q 3138 2634 2908 2709 
Q 2678 2784 2431 2784 
Q 1963 2784 1702 2511 
Q 1441 2238 1441 1747 
Q 1441 1256 1702 982 
Q 1963 709 2431 709 
Q 2694 709 2930 787 
Q 3166 866 3366 1019 
L 3366 103 
Q 3103 6 2833 -42 
Q 2563 -91 2291 -91 
Q 1344 -91 809 395 
Q 275 881 275 1747 
Q 275 2613 809 3098 
Q 1344 3584 2291 3584 
Q 2566 3584 2833 3536 
Q 3100 3488 3366 3391 
z
" transform="scale(0.015625)"/>
      <path id="DejaVuSans-Bold-68" d="M 4056 2131 
L 4056 0 
L 2931 0 
L 2931 347 
L 2931 1625 
Q 2931 2084 2911 2256 
Q 2891 2428 2841 2509 
Q 2775 2619 2662 2680 
Q 2550 2741 2406 2741 
Q 2056 2741 1856 2470 
Q 1656 2200 1656 1722 
L 1656 0 
L 538 0 
L 538 4863 
L 1656 4863 
L 1656 2988 
Q 1909 3294 2193 3439 
Q 2478 3584 2822 3584 
Q 3428 3584 3742 3212 
Q 4056 2841 4056 2131 
z
" transform="scale(0.015625)"/>
      <path id="DejaVuSans-Bold-58" d="M 3188 2381 
L 4806 0 
L 3553 0 
L 2463 1594 
L 1381 0 
L 122 0 
L 1741 2381 
L 184 4666 
L 1441 4666 
L 2463 3163 
L 3481 4666 
L 4744 4666 
L 3188 2381 
z
" transform="scale(0.015625)"/>
     </defs>
     <use xlink:href="#DejaVuSans-Bold-54"/>
     <use xlink:href="#DejaVuSans-Bold-72" transform="translate(57.212891 0)"/>
     <use xlink:href="#DejaVuSans-Bold-61" transform="translate(106.529297 0)"/>
     <use xlink:href="#DejaVuSans-Bold-69" transform="translate(174.009766 0)"/>
     <use xlink:href="#DejaVuSans-Bold-6e" transform="translate(208.287109 0)"/>
     <use xlink:href="#DejaVuSans-Bold-69" transform="translate(279.478516 0)"/>
     <use xlink:href="#DejaVuSans-Bold-6e" transform="translate(313.755859 0)"/>
     <use xlink:href="#DejaVuSans-Bold-67" transform="translate(384.947266 0)"/>
     <use xlink:href="#DejaVuSans-Bold-20" transform="translate(456.529297 0)"/>
     <use xlink:href="#DejaVuSans-Bold-47" transform="translate(491.34375 0)"/>
     <use xlink:href="#DejaVuSans-Bold-6f" transform="translate(573.423828 0)"/>
     <use xlink:href="#DejaVuSans-Bold-61" transform="translate(642.125 0)"/>
     <use xlink:href="#DejaVuSans-Bold-6c" transform="translate(709.605469 0)"/>
     <use xlink:href="#DejaVuSans-Bold-3a" transform="translate(743.882812 0)"/>
     <use xlink:href="#DejaVuSans-Bold-20" transform="translate(783.873047 0)"/>
     <use xlink:href="#DejaVuSans-Bold-4c" transform="translate(818.6875 0)"/>
     <use xlink:href="#DejaVuSans-Bold-65" transform="translate(882.408203 0)"/>
     <use xlink:href="#DejaVuSans-Bold-61" transform="translate(950.230469 0)"/>
     <use xlink:href="#DejaVuSans-Bold-72" transform="translate(1017.710938 0)"/>
     <use xlink:href="#DejaVuSans-Bold-6e" transform="translate(1067.027344 0)"/>
     <use xlink:href="#DejaVuSans-Bold-20" transform="translate(1138.21875 0)"/>
     <use xlink:href="#DejaVuSans-Bold-74" transform="translate(1173.033203 0)"/>
     <use xlink:href="#DejaVuSans-Bold-6f" transform="translate(1220.835938 0)"/>
     <use xlink:href="#DejaVuSans-Bold-20" transform="translate(1289.537109 0)"/>
     <use xlink:href="#DejaVuSans-Bold-70" transform="translate(1324.351562 0)"/>
     <use xlink:href="#DejaVuSans-Bold-72" transform="translate(1395.933594 0)"/>
     <use xlink:href="#DejaVuSans-Bold-65" transform="translate(1445.25 0)"/>
     <use xlink:href="#DejaVuSans-Bold-64" transform="translate(1513.072266 0)"/>
     <use xlink:href="#DejaVuSans-Bold-69" transform="translate(1584.654297 0)"/>
     <use xlink:href="#DejaVuSans-Bold-63" transform="translate(1618.931641 0)"/>
     <use xlink:href="#DejaVuSans-Bold-74" transform="translate(1678.208984 0)"/>
     <use xlink:href="#DejaVuSans-Bold-20" transform="translate(1726.011719 0)"/>
     <use xlink:href="#DejaVuSans-Bold-74" transform="translate(1760.826172 0)"/>
     <use xlink:href="#DejaVuSans-Bold-68" transform="translate(1808.628906 0)"/>
     <use xlink:href="#DejaVuSans-Bold-65" transform="translate(1879.820312 0)"/>
     <use xlink:href="#DejaVuSans-Bold-20" transform="translate(1947.642578 0)"/>
     <use xlink:href="#DejaVuSans-Bold-45" transform="translate(1982.457031 0)"/>
     <use xlink:href="#DejaVuSans-Bold-58" transform="translate(2050.767578 0)"/>
     <use xlink:href="#DejaVuSans-Bold-41" transform="translate(2127.867188 0)"/>
     <use xlink:href="#DejaVuSans-Bold-43" transform="translate(2205.259766 0)"/>
     <use xlink:href="#DejaVuSans-Bold-54" transform="translate(2278.648438 0)"/>
     <use xlink:href="#DejaVuSans-Bold-20" transform="translate(2346.861328 0)"/>
     <use xlink:href="#DejaVuSans-Bold-6e" transform="translate(2381.675781 0)"/>
     <use xlink:href="#DejaVuSans-Bold-6f" transform="translate(2452.867188 0)"/>
     <use xlink:href="#DejaVuSans-Bold-69" transform="translate(2521.568359 0)"/>
     <use xlink:href="#DejaVuSans-Bold-73" transform="translate(2555.845703 0)"/>
     <use xlink:href="#DejaVuSans-Bold-65" transform="translate(2615.367188 0)"/>
     <use xlink:href="#DejaVuSans-Bold-20" transform="translate(2683.189453 0)"/>
     <use xlink:href="#DejaVuSans-Bold-61" transform="translate(2718.003906 0)"/>
     <use xlink:href="#DejaVuSans-Bold-64" transform="translate(2785.484375 0)"/>
     <use xlink:href="#DejaVuSans-Bold-64" transform="translate(2857.066406 0)"/>
     <use xlink:href="#DejaVuSans-Bold-65" transform="translate(2928.648438 0)"/>
     <use xlink:href="#DejaVuSans-Bold-64" transform="translate(2996.470703 0)"/>
     <use xlink:href="#DejaVuSans-Bold-20" transform="translate(3068.052734 0)"/>
     <use xlink:href="#DejaVuSans-Bold-61" transform="translate(3102.867188 0)"/>
     <use xlink:href="#DejaVuSans-Bold-74" transform="translate(3170.347656 0)"/>
     <use xlink:href="#DejaVuSans-Bold-20" transform="translate(3218.150391 0)"/>
     <use xlink:href="#DejaVuSans-Bold-65" transform="translate(3252.964844 0)"/>
     <use xlink:href="#DejaVuSans-Bold-61" transform="translate(3320.787109 0)"/>
     <use xlink:href="#DejaVuSans-Bold-63" transform="translate(3388.267578 0)"/>
     <use xlink:href="#DejaVuSans-Bold-68" transform="translate(3447.544922 0)"/>
     <use xlink:href="#DejaVuSans-Bold-20" transform="translate(3518.736328 0)"/>
     <use xlink:href="#DejaVuSans-Bold-73" transform="translate(3553.550781 0)"/>
     <use xlink:href="#DejaVuSans-Bold-74" transform="translate(3613.072266 0)"/>
     <use xlink:href="#DejaVuSans-Bold-65" transform="translate(3660.875 0)"/>
     <use xlink:href="#DejaVuSans-Bold-70" transform="translate(3728.697266 0)"/>
    </g>
   </g>
   <g id="text_15">
    <!-- Generation: Start from pure random noise  iteratively denoise  sample! -->
    <g style="fill: #4a5568" transform="translate(192.117187 367.56) scale(0.11 -0.11)">
     <defs>
      <path id="DejaVuSans-Oblique-47" d="M 3494 697 
L 3738 1919 
L 2700 1919 
L 2797 2438 
L 4453 2438 
L 4050 384 
Q 3634 156 3143 32 
Q 2653 -91 2156 -91 
Q 1278 -91 783 396 
Q 288 884 288 1753 
Q 288 2475 589 3126 
Q 891 3778 1422 4213 
Q 1756 4484 2153 4617 
Q 2550 4750 3034 4750 
Q 3472 4750 3873 4639 
Q 4275 4528 4641 4306 
L 4513 3634 
Q 4231 3928 3853 4083 
Q 3475 4238 3047 4238 
Q 2550 4238 2172 4048 
Q 1794 3859 1497 3463 
Q 1244 3125 1098 2667 
Q 953 2209 953 1734 
Q 953 1081 1287 751 
Q 1622 422 2284 422 
Q 2616 422 2925 492 
Q 3234 563 3494 697 
z
" transform="scale(0.015625)"/>
      <path id="DejaVuSans-Oblique-65" d="M 3078 2063 
Q 3088 2113 3092 2166 
Q 3097 2219 3097 2272 
Q 3097 2653 2873 2875 
Q 2650 3097 2266 3097 
Q 1838 3097 1509 2826 
Q 1181 2556 1013 2059 
L 3078 2063 
z
M 3578 1613 
L 903 1613 
Q 884 1494 878 1425 
Q 872 1356 872 1306 
Q 872 872 1139 634 
Q 1406 397 1894 397 
Q 2269 397 2603 481 
Q 2938 566 3225 728 
L 3116 159 
Q 2806 34 2476 -28 
Q 2147 -91 1806 -91 
Q 1078 -91 686 257 
Q 294 606 294 1247 
Q 294 1794 489 2264 
Q 684 2734 1063 3103 
Q 1306 3334 1642 3459 
Q 1978 3584 2356 3584 
Q 2950 3584 3301 3228 
Q 3653 2872 3653 2272 
Q 3653 2128 3634 1964 
Q 3616 1800 3578 1613 
z
" transform="scale(0.015625)"/>
      <path id="DejaVuSans-Oblique-6e" d="M 3566 2113 
L 3156 0 
L 2578 0 
L 2988 2091 
Q 3016 2238 3031 2350 
Q 3047 2463 3047 2528 
Q 3047 2791 2881 2937 
Q 2716 3084 2419 3084 
Q 1956 3084 1622 2776 
Q 1288 2469 1184 1941 
L 800 0 
L 225 0 
L 903 3500 
L 1478 3500 
L 1363 2950 
Q 1603 3253 1940 3418 
Q 2278 3584 2650 3584 
Q 3113 3584 3367 3334 
Q 3622 3084 3622 2631 
Q 3622 2519 3608 2391 
Q 3594 2263 3566 2113 
z
" transform="scale(0.015625)"/>
      <path id="DejaVuSans-Oblique-72" d="M 2853 2969 
Q 2766 3016 2653 3041 
Q 2541 3066 2413 3066 
Q 1953 3066 1609 2717 
Q 1266 2369 1153 1784 
L 800 0 
L 225 0 
L 909 3500 
L 1484 3500 
L 1375 2956 
Q 1603 3259 1920 3421 
Q 2238 3584 2597 3584 
Q 2691 3584 2781 3573 
Q 2872 3563 2963 3538 
L 2853 2969 
z
" transform="scale(0.015625)"/>
      <path id="DejaVuSans-Oblique-61" d="M 3438 1997 
L 3047 0 
L 2472 0 
L 2578 531 
Q 2325 219 2001 64 
Q 1678 -91 1281 -91 
Q 834 -91 548 182 
Q 263 456 263 884 
Q 263 1497 752 1853 
Q 1241 2209 2100 2209 
L 2900 2209 
L 2931 2363 
Q 2938 2388 2941 2417 
Q 2944 2447 2944 2509 
Q 2944 2788 2717 2942 
Q 2491 3097 2081 3097 
Q 1800 3097 1504 3025 
Q 1209 2953 897 2809 
L 997 3341 
Q 1322 3463 1633 3523 
Q 1944 3584 2234 3584 
Q 2853 3584 3176 3315 
Q 3500 3047 3500 2534 
Q 3500 2431 3484 2292 
Q 3469 2153 3438 1997 
z
M 2816 1759 
L 2241 1759 
Q 1534 1759 1195 1570 
Q 856 1381 856 984 
Q 856 709 1029 553 
Q 1203 397 1509 397 
Q 1978 397 2328 733 
Q 2678 1069 2791 1631 
L 2816 1759 
z
" transform="scale(0.015625)"/>
      <path id="DejaVuSans-Oblique-74" d="M 2706 3500 
L 2619 3053 
L 1472 3053 
L 1100 1153 
Q 1081 1047 1072 975 
Q 1063 903 1063 863 
Q 1063 663 1183 572 
Q 1303 481 1569 481 
L 2150 481 
L 2053 0 
L 1503 0 
Q 991 0 739 200 
Q 488 400 488 806 
Q 488 878 497 964 
Q 506 1050 525 1153 
L 897 3053 
L 409 3053 
L 500 3500 
L 978 3500 
L 1172 4494 
L 1747 4494 
L 1556 3500 
L 2706 3500 
z
" transform="scale(0.015625)"/>
      <path id="DejaVuSans-Oblique-69" d="M 1172 4863 
L 1747 4863 
L 1606 4134 
L 1031 4134 
L 1172 4863 
z
M 909 3500 
L 1484 3500 
L 800 0 
L 225 0 
L 909 3500 
z
" transform="scale(0.015625)"/>
      <path id="DejaVuSans-Oblique-6f" d="M 1625 -91 
Q 1009 -91 651 289 
Q 294 669 294 1325 
Q 294 1706 417 2101 
Q 541 2497 738 2766 
Q 1047 3184 1428 3384 
Q 1809 3584 2291 3584 
Q 2888 3584 3255 3212 
Q 3622 2841 3622 2241 
Q 3622 1825 3500 1412 
Q 3378 1000 3181 728 
Q 2875 309 2494 109 
Q 2113 -91 1625 -91 
z
M 891 1344 
Q 891 869 1089 633 
Q 1288 397 1691 397 
Q 2269 397 2648 901 
Q 3028 1406 3028 2181 
Q 3028 2634 2825 2865 
Q 2622 3097 2228 3097 
Q 1903 3097 1650 2945 
Q 1397 2794 1197 2484 
Q 1050 2253 970 1956 
Q 891 1659 891 1344 
z
" transform="scale(0.015625)"/>
      <path id="DejaVuSans-Oblique-3a" d="M 978 3309 
L 1638 3309 
L 1484 2516 
L 825 2516 
L 978 3309 
z
M 488 794 
L 1147 794 
L 991 0 
L 331 0 
L 488 794 
z
" transform="scale(0.015625)"/>
      <path id="DejaVuSans-Oblique-20" transform="scale(0.015625)"/>
      <path id="DejaVuSans-Oblique-53" d="M 3859 4513 
L 3738 3897 
Q 3422 4066 3111 4152 
Q 2800 4238 2509 4238 
Q 1944 4238 1609 3991 
Q 1275 3744 1275 3334 
Q 1275 3109 1398 2989 
Q 1522 2869 2034 2731 
L 2413 2638 
Q 3053 2472 3303 2217 
Q 3553 1963 3553 1503 
Q 3553 797 2998 353 
Q 2444 -91 1538 -91 
Q 1166 -91 791 -17 
Q 416 56 38 206 
L 166 856 
Q 513 641 861 531 
Q 1209 422 1556 422 
Q 2147 422 2503 684 
Q 2859 947 2859 1369 
Q 2859 1650 2717 1795 
Q 2575 1941 2106 2059 
L 1728 2156 
Q 1081 2325 845 2545 
Q 609 2766 609 3163 
Q 609 3859 1145 4304 
Q 1681 4750 2541 4750 
Q 2875 4750 3203 4690 
Q 3531 4631 3859 4513 
z
" transform="scale(0.015625)"/>
      <path id="DejaVuSans-Oblique-66" d="M 3059 4863 
L 2969 4384 
L 2419 4384 
Q 2106 4384 1964 4261 
Q 1822 4138 1753 3809 
L 1691 3500 
L 2638 3500 
L 2553 3053 
L 1606 3053 
L 1013 0 
L 434 0 
L 1031 3053 
L 481 3053 
L 563 3500 
L 1113 3500 
L 1159 3744 
Q 1278 4363 1576 4613 
Q 1875 4863 2516 4863 
L 3059 4863 
z
" transform="scale(0.015625)"/>
      <path id="DejaVuSans-Oblique-6d" d="M 5747 2113 
L 5338 0 
L 4763 0 
L 5166 2094 
Q 5191 2228 5203 2325 
Q 5216 2422 5216 2491 
Q 5216 2772 5059 2928 
Q 4903 3084 4622 3084 
Q 4203 3084 3875 2770 
Q 3547 2456 3450 1953 
L 3066 0 
L 2491 0 
L 2900 2094 
Q 2925 2209 2937 2307 
Q 2950 2406 2950 2484 
Q 2950 2769 2794 2926 
Q 2638 3084 2363 3084 
Q 1938 3084 1609 2770 
Q 1281 2456 1184 1953 
L 800 0 
L 225 0 
L 909 3500 
L 1484 3500 
L 1375 2956 
Q 1609 3263 1923 3423 
Q 2238 3584 2597 3584 
Q 2978 3584 3223 3384 
Q 3469 3184 3519 2828 
Q 3781 3197 4126 3390 
Q 4472 3584 4856 3584 
Q 5306 3584 5551 3325 
Q 5797 3066 5797 2591 
Q 5797 2488 5784 2364 
Q 5772 2241 5747 2113 
z
" transform="scale(0.015625)"/>
      <path id="DejaVuSans-Oblique-70" d="M 3175 2156 
Q 3175 2616 2975 2859 
Q 2775 3103 2400 3103 
Q 2144 3103 1911 2972 
Q 1678 2841 1497 2591 
Q 1319 2344 1212 1994 
Q 1106 1644 1106 1300 
Q 1106 863 1306 627 
Q 1506 391 1875 391 
Q 2147 391 2380 519 
Q 2613 647 2778 891 
Q 2956 1147 3065 1494 
Q 3175 1841 3175 2156 
z
M 1394 2969 
Q 1625 3272 1939 3428 
Q 2253 3584 2638 3584 
Q 3175 3584 3472 3232 
Q 3769 2881 3769 2247 
Q 3769 1728 3584 1258 
Q 3400 788 3053 416 
Q 2822 169 2531 39 
Q 2241 -91 1919 -91 
Q 1547 -91 1294 64 
Q 1041 219 916 525 
L 556 -1331 
L -19 -1331 
L 922 3500 
L 1497 3500 
L 1394 2969 
z
" transform="scale(0.015625)"/>
      <path id="DejaVuSans-Oblique-75" d="M 428 1388 
L 838 3500 
L 1416 3500 
L 1006 1409 
Q 975 1256 961 1147 
Q 947 1038 947 966 
Q 947 700 1109 554 
Q 1272 409 1569 409 
Q 2031 409 2368 721 
Q 2706 1034 2809 1563 
L 3194 3500 
L 3769 3500 
L 3091 0 
L 2516 0 
L 2631 550 
Q 2388 244 2052 76 
Q 1716 -91 1338 -91 
Q 878 -91 622 161 
Q 366 413 366 863 
Q 366 956 381 1097 
Q 397 1238 428 1388 
z
" transform="scale(0.015625)"/>
      <path id="DejaVuSans-Oblique-64" d="M 2675 525 
Q 2444 222 2128 65 
Q 1813 -91 1428 -91 
Q 903 -91 598 267 
Q 294 625 294 1247 
Q 294 1766 478 2236 
Q 663 2706 1013 3078 
Q 1244 3325 1534 3454 
Q 1825 3584 2144 3584 
Q 2481 3584 2739 3421 
Q 2997 3259 3138 2956 
L 3513 4863 
L 4091 4863 
L 3144 0 
L 2566 0 
L 2675 525 
z
M 891 1350 
Q 891 897 1095 644 
Q 1300 391 1663 391 
Q 1931 391 2161 520 
Q 2391 650 2566 903 
Q 2750 1166 2856 1509 
Q 2963 1853 2963 2188 
Q 2963 2622 2758 2865 
Q 2553 3109 2194 3109 
Q 1922 3109 1687 2981 
Q 1453 2853 1288 2613 
Q 1106 2353 998 2009 
Q 891 1666 891 1350 
z
" transform="scale(0.015625)"/>
      <path id="DejaVuSans-Oblique-73" d="M 3200 3397 
L 3091 2853 
Q 2863 2978 2609 3040 
Q 2356 3103 2088 3103 
Q 1634 3103 1373 2948 
Q 1113 2794 1113 2528 
Q 1113 2219 1719 2053 
Q 1766 2041 1788 2034 
L 1972 1978 
Q 2547 1819 2739 1644 
Q 2931 1469 2931 1166 
Q 2931 609 2489 259 
Q 2047 -91 1331 -91 
Q 1053 -91 747 -37 
Q 441 16 72 128 
L 184 722 
Q 500 559 806 475 
Q 1113 391 1394 391 
Q 1816 391 2080 572 
Q 2344 753 2344 1031 
Q 2344 1331 1650 1516 
L 1591 1531 
L 1394 1581 
Q 956 1697 753 1886 
Q 550 2075 550 2369 
Q 550 2928 970 3256 
Q 1391 3584 2113 3584 
Q 2397 3584 2667 3537 
Q 2938 3491 3200 3397 
z
" transform="scale(0.015625)"/>
      <path id="DejaVuSans-Oblique-2192" d="M 5050 2147 
L 5050 1866 
L 3822 638 
L 3447 1013 
L 4175 1741 
L 366 1741 
L 366 2272 
L 4175 2272 
L 3447 3000 
L 3822 3375 
L 5050 2147 
z
" transform="scale(0.015625)"/>
      <path id="DejaVuSans-Oblique-76" d="M 459 3500 
L 1069 3500 
L 1581 525 
L 3256 3500 
L 3866 3500 
L 1875 0 
L 1100 0 
L 459 3500 
z
" transform="scale(0.015625)"/>
      <path id="DejaVuSans-Oblique-6c" d="M 1172 4863 
L 1747 4863 
L 800 0 
L 225 0 
L 1172 4863 
z
" transform="scale(0.015625)"/>
      <path id="DejaVuSans-Oblique-79" d="M 1588 -325 
Q 1188 -997 936 -1164 
Q 684 -1331 294 -1331 
L -159 -1331 
L -63 -850 
L 269 -850 
Q 509 -850 678 -719 
Q 847 -588 1056 -206 
L 1234 128 
L 459 3500 
L 1069 3500 
L 1650 819 
L 3256 3500 
L 3859 3500 
L 1588 -325 
z
" transform="scale(0.015625)"/>
      <path id="DejaVuSans-Oblique-21" d="M 1416 4666 
L 2047 4666 
L 1650 2619 
L 1369 1503 
L 863 1503 
L 1019 2619 
L 1416 4666 
z
M 666 794 
L 1300 794 
L 1147 0 
L 506 0 
L 666 794 
z
" transform="scale(0.015625)"/>
     </defs>
     <use xlink:href="#DejaVuSans-Oblique-47"/>
     <use xlink:href="#DejaVuSans-Oblique-65" transform="translate(77.490234 0)"/>
     <use xlink:href="#DejaVuSans-Oblique-6e" transform="translate(139.013672 0)"/>
     <use xlink:href="#DejaVuSans-Oblique-65" transform="translate(202.392578 0)"/>
     <use xlink:href="#DejaVuSans-Oblique-72" transform="translate(263.916016 0)"/>
     <use xlink:href="#DejaVuSans-Oblique-61" transform="translate(305.029297 0)"/>
     <use xlink:href="#DejaVuSans-Oblique-74" transform="translate(366.308594 0)"/>
     <use xlink:href="#DejaVuSans-Oblique-69" transform="translate(405.517578 0)"/>
     <use xlink:href="#DejaVuSans-Oblique-6f" transform="translate(433.300781 0)"/>
     <use xlink:href="#DejaVuSans-Oblique-6e" transform="translate(494.482422 0)"/>
     <use xlink:href="#DejaVuSans-Oblique-3a" transform="translate(557.861328 0)"/>
     <use xlink:href="#DejaVuSans-Oblique-20" transform="translate(591.552734 0)"/>
     <use xlink:href="#DejaVuSans-Oblique-53" transform="translate(623.339844 0)"/>
     <use xlink:href="#DejaVuSans-Oblique-74" transform="translate(686.816406 0)"/>
     <use xlink:href="#DejaVuSans-Oblique-61" transform="translate(726.025391 0)"/>
     <use xlink:href="#DejaVuSans-Oblique-72" transform="translate(787.304688 0)"/>
     <use xlink:href="#DejaVuSans-Oblique-74" transform="translate(828.417969 0)"/>
     <use xlink:href="#DejaVuSans-Oblique-20" transform="translate(867.626953 0)"/>
     <use xlink:href="#DejaVuSans-Oblique-66" transform="translate(899.414062 0)"/>
     <use xlink:href="#DejaVuSans-Oblique-72" transform="translate(934.619141 0)"/>
     <use xlink:href="#DejaVuSans-Oblique-6f" transform="translate(975.732422 0)"/>
     <use xlink:href="#DejaVuSans-Oblique-6d" transform="translate(1036.914062 0)"/>
     <use xlink:href="#DejaVuSans-Oblique-20" transform="translate(1134.326172 0)"/>
     <use xlink:href="#DejaVuSans-Oblique-70" transform="translate(1166.113281 0)"/>
     <use xlink:href="#DejaVuSans-Oblique-75" transform="translate(1229.589844 0)"/>
     <use xlink:href="#DejaVuSans-Oblique-72" transform="translate(1292.96875 0)"/>
     <use xlink:href="#DejaVuSans-Oblique-65" transform="translate(1334.082031 0)"/>
     <use xlink:href="#DejaVuSans-Oblique-20" transform="translate(1395.605469 0)"/>
     <use xlink:href="#DejaVuSans-Oblique-72" transform="translate(1427.392578 0)"/>
     <use xlink:href="#DejaVuSans-Oblique-61" transform="translate(1468.505859 0)"/>
     <use xlink:href="#DejaVuSans-Oblique-6e" transform="translate(1529.785156 0)"/>
     <use xlink:href="#DejaVuSans-Oblique-64" transform="translate(1593.164062 0)"/>
     <use xlink:href="#DejaVuSans-Oblique-6f" transform="translate(1656.640625 0)"/>
     <use xlink:href="#DejaVuSans-Oblique-6d" transform="translate(1717.822266 0)"/>
     <use xlink:href="#DejaVuSans-Oblique-20" transform="translate(1815.234375 0)"/>
     <use xlink:href="#DejaVuSans-Oblique-6e" transform="translate(1847.021484 0)"/>
     <use xlink:href="#DejaVuSans-Oblique-6f" transform="translate(1910.400391 0)"/>
     <use xlink:href="#DejaVuSans-Oblique-69" transform="translate(1971.582031 0)"/>
     <use xlink:href="#DejaVuSans-Oblique-73" transform="translate(1999.365234 0)"/>
     <use xlink:href="#DejaVuSans-Oblique-65" transform="translate(2051.464844 0)"/>
     <use xlink:href="#DejaVuSans-Oblique-20" transform="translate(2112.988281 0)"/>
     <use xlink:href="#DejaVuSans-Oblique-2192" transform="translate(2144.775391 0)"/>
     <use xlink:href="#DejaVuSans-Oblique-20" transform="translate(2228.564453 0)"/>
     <use xlink:href="#DejaVuSans-Oblique-69" transform="translate(2260.351562 0)"/>
     <use xlink:href="#DejaVuSans-Oblique-74" transform="translate(2288.134766 0)"/>
     <use xlink:href="#DejaVuSans-Oblique-65" transform="translate(2327.34375 0)"/>
     <use xlink:href="#DejaVuSans-Oblique-72" transform="translate(2388.867188 0)"/>
     <use xlink:href="#DejaVuSans-Oblique-61" transform="translate(2429.980469 0)"/>
     <use xlink:href="#DejaVuSans-Oblique-74" transform="translate(2491.259766 0)"/>
     <use xlink:href="#DejaVuSans-Oblique-69" transform="translate(2530.46875 0)"/>
     <use xlink:href="#DejaVuSans-Oblique-76" transform="translate(2558.251953 0)"/>
     <use xlink:href="#DejaVuSans-Oblique-65" transform="translate(2617.431641 0)"/>
     <use xlink:href="#DejaVuSans-Oblique-6c" transform="translate(2678.955078 0)"/>
     <use xlink:href="#DejaVuSans-Oblique-79" transform="translate(2706.738281 0)"/>
     <use xlink:href="#DejaVuSans-Oblique-20" transform="translate(2765.917969 0)"/>
     <use xlink:href="#DejaVuSans-Oblique-64" transform="translate(2797.705078 0)"/>
     <use xlink:href="#DejaVuSans-Oblique-65" transform="translate(2861.181641 0)"/>
     <use xlink:href="#DejaVuSans-Oblique-6e" transform="translate(2922.705078 0)"/>
     <use xlink:href="#DejaVuSans-Oblique-6f" transform="translate(2986.083984 0)"/>
     <use xlink:href="#DejaVuSans-Oblique-69" transform="translate(3047.265625 0)"/>
     <use xlink:href="#DejaVuSans-Oblique-73" transform="translate(3075.048828 0)"/>
     <use xlink:href="#DejaVuSans-Oblique-65" transform="translate(3127.148438 0)"/>
     <use xlink:href="#DejaVuSans-Oblique-20" transform="translate(3188.671875 0)"/>
     <use xlink:href="#DejaVuSans-Oblique-2192" transform="translate(3220.458984 0)"/>
     <use xlink:href="#DejaVuSans-Oblique-20" transform="translate(3304.248047 0)"/>
     <use xlink:href="#DejaVuSans-Oblique-73" transform="translate(3336.035156 0)"/>
     <use xlink:href="#DejaVuSans-Oblique-61" transform="translate(3388.134766 0)"/>
     <use xlink:href="#DejaVuSans-Oblique-6d" transform="translate(3449.414062 0)"/>
     <use xlink:href="#DejaVuSans-Oblique-70" transform="translate(3546.826172 0)"/>
     <use xlink:href="#DejaVuSans-Oblique-6c" transform="translate(3610.302734 0)"/>
     <use xlink:href="#DejaVuSans-Oblique-65" transform="translate(3638.085938 0)"/>
     <use xlink:href="#DejaVuSans-Oblique-21" transform="translate(3699.609375 0)"/>
    </g>
   </g>
  </g>
 </g>
 <defs>
  <clipPath id="pa69cead5b6">
   <rect x="7.2" y="7.2" width="781.2" height="388.08"/>
  </clipPath>
 </defs>
</svg>
