<?xml version="1.0" encoding="utf-8" standalone="no"?>
<!DOCTYPE svg PUBLIC "-//W3C//DTD SVG 1.1//EN"
  "http://www.w3.org/Graphics/SVG/1.1/DTD/svg11.dtd">
<svg xmlns:xlink="http://www.w3.org/1999/xlink" width="795.6pt" height="513.36pt" viewBox="0 0 795.6 513.36" xmlns="http://www.w3.org/2000/svg" version="1.1">
 <metadata>
  <rdf:RDF xmlns:dc="http://purl.org/dc/elements/1.1/" xmlns:cc="http://creativecommons.org/ns#" xmlns:rdf="http://www.w3.org/1999/02/22-rdf-syntax-ns#">
   <cc:Work>
    <dc:type rdf:resource="http://purl.org/dc/dcmitype/StillImage"/>
    <dc:date>2026-01-06T11:45:15.768097</dc:date>
    <dc:format>image/svg+xml</dc:format>
    <dc:creator>
     <cc:Agent>
      <dc:title>Matplotlib v3.10.8, https://matplotlib.org/</dc:title>
     </cc:Agent>
    </dc:creator>
   </cc:Work>
  </rdf:RDF>
 </metadata>
 <defs>
  <style type="text/css">*{stroke-linejoin: round; stroke-linecap: butt}</style>
 </defs>
 <g id="figure_1">
  <g id="patch_1">
   <path d="M 0 513.36 
L 795.6 513.36 
L 795.6 -0 
L 0 -0 
z
" style="fill: #ffffff"/>
  </g>
  <g id="axes_1">
   <g id="patch_2">
    <path d="M 230.4 117.496421 
L 565.2 117.496421 
Q 570.78 117.496421 570.78 112.244211 
L 570.78 49.217684 
Q 570.78 43.965474 565.2 43.965474 
L 230.4 43.965474 
Q 224.82 43.965474 224.82 49.217684 
L 224.82 112.244211 
Q 224.82 117.496421 230.4 117.496421 
z
" clip-path="url(#p48c0f2dd9c)" style="fill: #2a9d8f; opacity: 0.4; stroke: #1e3a5f; stroke-width: 2.5; stroke-linejoin: miter"/>
   </g>
   <g id="patch_3">
    <path d="M 35.1 222.540632 
L 258.3 222.540632 
Q 263.88 222.540632 263.88 217.288421 
L 263.88 122.748632 
Q 263.88 117.496421 258.3 117.496421 
L 35.1 117.496421 
Q 29.52 117.496421 29.52 122.748632 
L 29.52 217.288421 
Q 29.52 222.540632 35.1 222.540632 
z
" clip-path="url(#p48c0f2dd9c)" style="fill: #3b82f6; opacity: 0.3; stroke: #1e3a5f; stroke-width: 2; stroke-linejoin: miter"/>
   </g>
   <g id="patch_4">
    <path d="M 314.1 222.540632 
L 509.4 222.540632 
Q 514.98 222.540632 514.98 217.288421 
L 514.98 122.748632 
Q 514.98 117.496421 509.4 117.496421 
L 314.1 117.496421 
Q 308.52 117.496421 308.52 122.748632 
L 308.52 217.288421 
Q 308.52 222.540632 314.1 222.540632 
z
" clip-path="url(#p48c0f2dd9c)" style="fill: #8b5cf6; opacity: 0.3; stroke: #1e3a5f; stroke-width: 2; stroke-linejoin: miter"/>
   </g>
   <g id="patch_5">
    <path d="M 537.3 222.540632 
L 760.5 222.540632 
Q 766.08 222.540632 766.08 217.288421 
L 766.08 122.748632 
Q 766.08 117.496421 760.5 117.496421 
L 537.3 117.496421 
Q 531.72 117.496421 531.72 122.748632 
L 531.72 217.288421 
Q 531.72 222.540632 537.3 222.540632 
z
" clip-path="url(#p48c0f2dd9c)" style="fill: #e9c46a; opacity: 0.4; stroke: #1e3a5f; stroke-width: 2; stroke-linejoin: miter"/>
   </g>
   <g id="patch_6">
    <path d="M 230.4 353.845895 
L 565.2 353.845895 
Q 570.78 353.845895 570.78 348.593684 
L 570.78 254.053895 
Q 570.78 248.801684 565.2 248.801684 
L 230.4 248.801684 
Q 224.82 248.801684 224.82 254.053895 
L 224.82 348.593684 
Q 224.82 353.845895 230.4 353.845895 
z
" clip-path="url(#p48c0f2dd9c)" style="fill: #e85a4f; opacity: 0.4; stroke: #1e3a5f; stroke-width: 2.5; stroke-linejoin: miter"/>
   </g>
   <g id="patch_7">
    <path d="M 230.4 487.777263 
L 565.2 487.777263 
Q 573.57 487.777263 573.57 479.898947 
L 573.57 401.115789 
Q 573.57 393.237474 565.2 393.237474 
L 230.4 393.237474 
Q 222.03 393.237474 222.03 401.115789 
L 222.03 479.898947 
Q 222.03 487.777263 230.4 487.777263 
z
" clip-path="url(#p48c0f2dd9c)" style="fill: #10b981; opacity: 0.5; stroke: #1e3a5f; stroke-width: 3; stroke-linejoin: miter"/>
   </g>
   <g id="text_1">
    <!-- RLHF: Reinforcement Learning from Human Feedback -->
    <g style="fill: #1e3a5f" transform="translate(125.312344 43.965474) scale(0.18 -0.18)">
     <defs>
      <path id="DejaVuSans-Bold-52" d="M 2297 2597 
Q 2675 2597 2839 2737 
Q 3003 2878 3003 3200 
Q 3003 3519 2839 3656 
Q 2675 3794 2297 3794 
L 1791 3794 
L 1791 2597 
L 2297 2597 
z
M 1791 1766 
L 1791 0 
L 588 0 
L 588 4666 
L 2425 4666 
Q 3347 4666 3776 4356 
Q 4206 4047 4206 3378 
Q 4206 2916 3982 2619 
Q 3759 2322 3309 2181 
Q 3556 2125 3751 1926 
Q 3947 1728 4147 1325 
L 4800 0 
L 3519 0 
L 2950 1159 
Q 2778 1509 2601 1637 
Q 2425 1766 2131 1766 
L 1791 1766 
z
" transform="scale(0.015625)"/>
      <path id="DejaVuSans-Bold-4c" d="M 588 4666 
L 1791 4666 
L 1791 909 
L 3903 909 
L 3903 0 
L 588 0 
L 588 4666 
z
" transform="scale(0.015625)"/>
      <path id="DejaVuSans-Bold-48" d="M 588 4666 
L 1791 4666 
L 1791 2888 
L 3566 2888 
L 3566 4666 
L 4769 4666 
L 4769 0 
L 3566 0 
L 3566 1978 
L 1791 1978 
L 1791 0 
L 588 0 
L 588 4666 
z
" transform="scale(0.015625)"/>
      <path id="DejaVuSans-Bold-46" d="M 588 4666 
L 3834 4666 
L 3834 3756 
L 1791 3756 
L 1791 2888 
L 3713 2888 
L 3713 1978 
L 1791 1978 
L 1791 0 
L 588 0 
L 588 4666 
z
" transform="scale(0.015625)"/>
      <path id="DejaVuSans-Bold-3a" d="M 716 3500 
L 1844 3500 
L 1844 2291 
L 716 2291 
L 716 3500 
z
M 716 1209 
L 1844 1209 
L 1844 0 
L 716 0 
L 716 1209 
z
" transform="scale(0.015625)"/>
      <path id="DejaVuSans-Bold-20" transform="scale(0.015625)"/>
      <path id="DejaVuSans-Bold-65" d="M 4031 1759 
L 4031 1441 
L 1416 1441 
Q 1456 1047 1700 850 
Q 1944 653 2381 653 
Q 2734 653 3104 758 
Q 3475 863 3866 1075 
L 3866 213 
Q 3469 63 3072 -14 
Q 2675 -91 2278 -91 
Q 1328 -91 801 392 
Q 275 875 275 1747 
Q 275 2603 792 3093 
Q 1309 3584 2216 3584 
Q 3041 3584 3536 3087 
Q 4031 2591 4031 1759 
z
M 2881 2131 
Q 2881 2450 2695 2645 
Q 2509 2841 2209 2841 
Q 1884 2841 1681 2658 
Q 1478 2475 1428 2131 
L 2881 2131 
z
" transform="scale(0.015625)"/>
      <path id="DejaVuSans-Bold-69" d="M 538 3500 
L 1656 3500 
L 1656 0 
L 538 0 
L 538 3500 
z
M 538 4863 
L 1656 4863 
L 1656 3950 
L 538 3950 
L 538 4863 
z
" transform="scale(0.015625)"/>
      <path id="DejaVuSans-Bold-6e" d="M 4056 2131 
L 4056 0 
L 2931 0 
L 2931 347 
L 2931 1631 
Q 2931 2084 2911 2256 
Q 2891 2428 2841 2509 
Q 2775 2619 2662 2680 
Q 2550 2741 2406 2741 
Q 2056 2741 1856 2470 
Q 1656 2200 1656 1722 
L 1656 0 
L 538 0 
L 538 3500 
L 1656 3500 
L 1656 2988 
Q 1909 3294 2193 3439 
Q 2478 3584 2822 3584 
Q 3428 3584 3742 3212 
Q 4056 2841 4056 2131 
z
" transform="scale(0.015625)"/>
      <path id="DejaVuSans-Bold-66" d="M 2841 4863 
L 2841 4128 
L 2222 4128 
Q 1984 4128 1890 4042 
Q 1797 3956 1797 3744 
L 1797 3500 
L 2753 3500 
L 2753 2700 
L 1797 2700 
L 1797 0 
L 678 0 
L 678 2700 
L 122 2700 
L 122 3500 
L 678 3500 
L 678 3744 
Q 678 4316 997 4589 
Q 1316 4863 1984 4863 
L 2841 4863 
z
" transform="scale(0.015625)"/>
      <path id="DejaVuSans-Bold-6f" d="M 2203 2784 
Q 1831 2784 1636 2517 
Q 1441 2250 1441 1747 
Q 1441 1244 1636 976 
Q 1831 709 2203 709 
Q 2569 709 2762 976 
Q 2956 1244 2956 1747 
Q 2956 2250 2762 2517 
Q 2569 2784 2203 2784 
z
M 2203 3584 
Q 3106 3584 3614 3096 
Q 4122 2609 4122 1747 
Q 4122 884 3614 396 
Q 3106 -91 2203 -91 
Q 1297 -91 786 396 
Q 275 884 275 1747 
Q 275 2609 786 3096 
Q 1297 3584 2203 3584 
z
" transform="scale(0.015625)"/>
      <path id="DejaVuSans-Bold-72" d="M 3138 2547 
Q 2991 2616 2845 2648 
Q 2700 2681 2553 2681 
Q 2122 2681 1889 2404 
Q 1656 2128 1656 1613 
L 1656 0 
L 538 0 
L 538 3500 
L 1656 3500 
L 1656 2925 
Q 1872 3269 2151 3426 
Q 2431 3584 2822 3584 
Q 2878 3584 2943 3579 
Q 3009 3575 3134 3559 
L 3138 2547 
z
" transform="scale(0.015625)"/>
      <path id="DejaVuSans-Bold-63" d="M 3366 3391 
L 3366 2478 
Q 3138 2634 2908 2709 
Q 2678 2784 2431 2784 
Q 1963 2784 1702 2511 
Q 1441 2238 1441 1747 
Q 1441 1256 1702 982 
Q 1963 709 2431 709 
Q 2694 709 2930 787 
Q 3166 866 3366 1019 
L 3366 103 
Q 3103 6 2833 -42 
Q 2563 -91 2291 -91 
Q 1344 -91 809 395 
Q 275 881 275 1747 
Q 275 2613 809 3098 
Q 1344 3584 2291 3584 
Q 2566 3584 2833 3536 
Q 3100 3488 3366 3391 
z
" transform="scale(0.015625)"/>
      <path id="DejaVuSans-Bold-6d" d="M 3781 2919 
Q 3994 3244 4286 3414 
Q 4578 3584 4928 3584 
Q 5531 3584 5847 3212 
Q 6163 2841 6163 2131 
L 6163 0 
L 5038 0 
L 5038 1825 
Q 5041 1866 5042 1909 
Q 5044 1953 5044 2034 
Q 5044 2406 4934 2573 
Q 4825 2741 4581 2741 
Q 4263 2741 4089 2478 
Q 3916 2216 3909 1719 
L 3909 0 
L 2784 0 
L 2784 1825 
Q 2784 2406 2684 2573 
Q 2584 2741 2328 2741 
Q 2006 2741 1831 2477 
Q 1656 2213 1656 1722 
L 1656 0 
L 531 0 
L 531 3500 
L 1656 3500 
L 1656 2988 
Q 1863 3284 2130 3434 
Q 2397 3584 2719 3584 
Q 3081 3584 3359 3409 
Q 3638 3234 3781 2919 
z
" transform="scale(0.015625)"/>
      <path id="DejaVuSans-Bold-74" d="M 1759 4494 
L 1759 3500 
L 2913 3500 
L 2913 2700 
L 1759 2700 
L 1759 1216 
Q 1759 972 1856 886 
Q 1953 800 2241 800 
L 2816 800 
L 2816 0 
L 1856 0 
Q 1194 0 917 276 
Q 641 553 641 1216 
L 641 2700 
L 84 2700 
L 84 3500 
L 641 3500 
L 641 4494 
L 1759 4494 
z
" transform="scale(0.015625)"/>
      <path id="DejaVuSans-Bold-61" d="M 2106 1575 
Q 1756 1575 1579 1456 
Q 1403 1338 1403 1106 
Q 1403 894 1545 773 
Q 1688 653 1941 653 
Q 2256 653 2472 879 
Q 2688 1106 2688 1447 
L 2688 1575 
L 2106 1575 
z
M 3816 1997 
L 3816 0 
L 2688 0 
L 2688 519 
Q 2463 200 2181 54 
Q 1900 -91 1497 -91 
Q 953 -91 614 226 
Q 275 544 275 1050 
Q 275 1666 698 1953 
Q 1122 2241 2028 2241 
L 2688 2241 
L 2688 2328 
Q 2688 2594 2478 2717 
Q 2269 2841 1825 2841 
Q 1466 2841 1156 2769 
Q 847 2697 581 2553 
L 581 3406 
Q 941 3494 1303 3539 
Q 1666 3584 2028 3584 
Q 2975 3584 3395 3211 
Q 3816 2838 3816 1997 
z
" transform="scale(0.015625)"/>
      <path id="DejaVuSans-Bold-67" d="M 2919 594 
Q 2688 288 2409 144 
Q 2131 0 1766 0 
Q 1125 0 706 504 
Q 288 1009 288 1791 
Q 288 2575 706 3076 
Q 1125 3578 1766 3578 
Q 2131 3578 2409 3434 
Q 2688 3291 2919 2981 
L 2919 3500 
L 4044 3500 
L 4044 353 
Q 4044 -491 3511 -936 
Q 2978 -1381 1966 -1381 
Q 1638 -1381 1331 -1331 
Q 1025 -1281 716 -1178 
L 716 -306 
Q 1009 -475 1290 -558 
Q 1572 -641 1856 -641 
Q 2406 -641 2662 -400 
Q 2919 -159 2919 353 
L 2919 594 
z
M 2181 2772 
Q 1834 2772 1640 2515 
Q 1447 2259 1447 1791 
Q 1447 1309 1634 1061 
Q 1822 813 2181 813 
Q 2531 813 2725 1069 
Q 2919 1325 2919 1791 
Q 2919 2259 2725 2515 
Q 2531 2772 2181 2772 
z
" transform="scale(0.015625)"/>
      <path id="DejaVuSans-Bold-75" d="M 500 1363 
L 500 3500 
L 1625 3500 
L 1625 3150 
Q 1625 2866 1622 2436 
Q 1619 2006 1619 1863 
Q 1619 1441 1641 1255 
Q 1663 1069 1716 984 
Q 1784 875 1895 815 
Q 2006 756 2150 756 
Q 2500 756 2700 1025 
Q 2900 1294 2900 1772 
L 2900 3500 
L 4019 3500 
L 4019 0 
L 2900 0 
L 2900 506 
Q 2647 200 2364 54 
Q 2081 -91 1741 -91 
Q 1134 -91 817 281 
Q 500 653 500 1363 
z
" transform="scale(0.015625)"/>
      <path id="DejaVuSans-Bold-64" d="M 2919 2988 
L 2919 4863 
L 4044 4863 
L 4044 0 
L 2919 0 
L 2919 506 
Q 2688 197 2409 53 
Q 2131 -91 1766 -91 
Q 1119 -91 703 423 
Q 288 938 288 1747 
Q 288 2556 703 3070 
Q 1119 3584 1766 3584 
Q 2128 3584 2408 3439 
Q 2688 3294 2919 2988 
z
M 2181 722 
Q 2541 722 2730 984 
Q 2919 1247 2919 1747 
Q 2919 2247 2730 2509 
Q 2541 2772 2181 2772 
Q 1825 2772 1636 2509 
Q 1447 2247 1447 1747 
Q 1447 1247 1636 984 
Q 1825 722 2181 722 
z
" transform="scale(0.015625)"/>
      <path id="DejaVuSans-Bold-62" d="M 2400 722 
Q 2759 722 2948 984 
Q 3138 1247 3138 1747 
Q 3138 2247 2948 2509 
Q 2759 2772 2400 2772 
Q 2041 2772 1848 2508 
Q 1656 2244 1656 1747 
Q 1656 1250 1848 986 
Q 2041 722 2400 722 
z
M 1656 2988 
Q 1888 3294 2169 3439 
Q 2450 3584 2816 3584 
Q 3463 3584 3878 3070 
Q 4294 2556 4294 1747 
Q 4294 938 3878 423 
Q 3463 -91 2816 -91 
Q 2450 -91 2169 54 
Q 1888 200 1656 506 
L 1656 0 
L 538 0 
L 538 4863 
L 1656 4863 
L 1656 2988 
z
" transform="scale(0.015625)"/>
      <path id="DejaVuSans-Bold-6b" d="M 538 4863 
L 1656 4863 
L 1656 2216 
L 2944 3500 
L 4244 3500 
L 2534 1894 
L 4378 0 
L 3022 0 
L 1656 1459 
L 1656 0 
L 538 0 
L 538 4863 
z
" transform="scale(0.015625)"/>
     </defs>
     <use xlink:href="#DejaVuSans-Bold-52"/>
     <use xlink:href="#DejaVuSans-Bold-4c" transform="translate(77.001953 0)"/>
     <use xlink:href="#DejaVuSans-Bold-48" transform="translate(140.722656 0)"/>
     <use xlink:href="#DejaVuSans-Bold-46" transform="translate(224.414062 0)"/>
     <use xlink:href="#DejaVuSans-Bold-3a" transform="translate(287.224609 0)"/>
     <use xlink:href="#DejaVuSans-Bold-20" transform="translate(327.214844 0)"/>
     <use xlink:href="#DejaVuSans-Bold-52" transform="translate(362.029297 0)"/>
     <use xlink:href="#DejaVuSans-Bold-65" transform="translate(439.03125 0)"/>
     <use xlink:href="#DejaVuSans-Bold-69" transform="translate(506.853516 0)"/>
     <use xlink:href="#DejaVuSans-Bold-6e" transform="translate(541.130859 0)"/>
     <use xlink:href="#DejaVuSans-Bold-66" transform="translate(612.322266 0)"/>
     <use xlink:href="#DejaVuSans-Bold-6f" transform="translate(655.828125 0)"/>
     <use xlink:href="#DejaVuSans-Bold-72" transform="translate(724.529297 0)"/>
     <use xlink:href="#DejaVuSans-Bold-63" transform="translate(773.845703 0)"/>
     <use xlink:href="#DejaVuSans-Bold-65" transform="translate(833.123047 0)"/>
     <use xlink:href="#DejaVuSans-Bold-6d" transform="translate(900.945312 0)"/>
     <use xlink:href="#DejaVuSans-Bold-65" transform="translate(1005.144531 0)"/>
     <use xlink:href="#DejaVuSans-Bold-6e" transform="translate(1072.966797 0)"/>
     <use xlink:href="#DejaVuSans-Bold-74" transform="translate(1144.158203 0)"/>
     <use xlink:href="#DejaVuSans-Bold-20" transform="translate(1191.960938 0)"/>
     <use xlink:href="#DejaVuSans-Bold-4c" transform="translate(1226.775391 0)"/>
     <use xlink:href="#DejaVuSans-Bold-65" transform="translate(1290.496094 0)"/>
     <use xlink:href="#DejaVuSans-Bold-61" transform="translate(1358.318359 0)"/>
     <use xlink:href="#DejaVuSans-Bold-72" transform="translate(1425.798828 0)"/>
     <use xlink:href="#DejaVuSans-Bold-6e" transform="translate(1475.115234 0)"/>
     <use xlink:href="#DejaVuSans-Bold-69" transform="translate(1546.306641 0)"/>
     <use xlink:href="#DejaVuSans-Bold-6e" transform="translate(1580.583984 0)"/>
     <use xlink:href="#DejaVuSans-Bold-67" transform="translate(1651.775391 0)"/>
     <use xlink:href="#DejaVuSans-Bold-20" transform="translate(1723.357422 0)"/>
     <use xlink:href="#DejaVuSans-Bold-66" transform="translate(1758.171875 0)"/>
     <use xlink:href="#DejaVuSans-Bold-72" transform="translate(1801.677734 0)"/>
     <use xlink:href="#DejaVuSans-Bold-6f" transform="translate(1850.994141 0)"/>
     <use xlink:href="#DejaVuSans-Bold-6d" transform="translate(1919.695312 0)"/>
     <use xlink:href="#DejaVuSans-Bold-20" transform="translate(2023.894531 0)"/>
     <use xlink:href="#DejaVuSans-Bold-48" transform="translate(2058.708984 0)"/>
     <use xlink:href="#DejaVuSans-Bold-75" transform="translate(2142.400391 0)"/>
     <use xlink:href="#DejaVuSans-Bold-6d" transform="translate(2213.591797 0)"/>
     <use xlink:href="#DejaVuSans-Bold-61" transform="translate(2317.791016 0)"/>
     <use xlink:href="#DejaVuSans-Bold-6e" transform="translate(2385.271484 0)"/>
     <use xlink:href="#DejaVuSans-Bold-20" transform="translate(2456.462891 0)"/>
     <use xlink:href="#DejaVuSans-Bold-46" transform="translate(2491.277344 0)"/>
     <use xlink:href="#DejaVuSans-Bold-65" transform="translate(2555.587891 0)"/>
     <use xlink:href="#DejaVuSans-Bold-65" transform="translate(2623.410156 0)"/>
     <use xlink:href="#DejaVuSans-Bold-64" transform="translate(2691.232422 0)"/>
     <use xlink:href="#DejaVuSans-Bold-62" transform="translate(2762.814453 0)"/>
     <use xlink:href="#DejaVuSans-Bold-61" transform="translate(2834.396484 0)"/>
     <use xlink:href="#DejaVuSans-Bold-63" transform="translate(2901.876953 0)"/>
     <use xlink:href="#DejaVuSans-Bold-6b" transform="translate(2961.154297 0)"/>
    </g>
   </g>
   <g id="text_2">
    <!-- INSTRUCTION-TUNED MODEL -->
    <g style="fill: #1e3a5f" transform="translate(301.054687 80.730947) scale(0.12 -0.12)">
     <defs>
      <path id="DejaVuSans-Bold-49" d="M 588 4666 
L 1791 4666 
L 1791 0 
L 588 0 
L 588 4666 
z
" transform="scale(0.015625)"/>
      <path id="DejaVuSans-Bold-4e" d="M 588 4666 
L 1931 4666 
L 3628 1466 
L 3628 4666 
L 4769 4666 
L 4769 0 
L 3425 0 
L 1728 3200 
L 1728 0 
L 588 0 
L 588 4666 
z
" transform="scale(0.015625)"/>
      <path id="DejaVuSans-Bold-53" d="M 3834 4519 
L 3834 3531 
Q 3450 3703 3084 3790 
Q 2719 3878 2394 3878 
Q 1963 3878 1756 3759 
Q 1550 3641 1550 3391 
Q 1550 3203 1689 3098 
Q 1828 2994 2194 2919 
L 2706 2816 
Q 3484 2659 3812 2340 
Q 4141 2022 4141 1434 
Q 4141 663 3683 286 
Q 3225 -91 2284 -91 
Q 1841 -91 1394 -6 
Q 947 78 500 244 
L 500 1259 
Q 947 1022 1364 901 
Q 1781 781 2169 781 
Q 2563 781 2772 912 
Q 2981 1044 2981 1288 
Q 2981 1506 2839 1625 
Q 2697 1744 2272 1838 
L 1806 1941 
Q 1106 2091 782 2419 
Q 459 2747 459 3303 
Q 459 4000 909 4375 
Q 1359 4750 2203 4750 
Q 2588 4750 2994 4692 
Q 3400 4634 3834 4519 
z
" transform="scale(0.015625)"/>
      <path id="DejaVuSans-Bold-54" d="M 31 4666 
L 4331 4666 
L 4331 3756 
L 2784 3756 
L 2784 0 
L 1581 0 
L 1581 3756 
L 31 3756 
L 31 4666 
z
" transform="scale(0.015625)"/>
      <path id="DejaVuSans-Bold-55" d="M 588 4666 
L 1791 4666 
L 1791 1869 
Q 1791 1291 1980 1042 
Q 2169 794 2597 794 
Q 3028 794 3217 1042 
Q 3406 1291 3406 1869 
L 3406 4666 
L 4609 4666 
L 4609 1869 
Q 4609 878 4112 393 
Q 3616 -91 2597 -91 
Q 1581 -91 1084 393 
Q 588 878 588 1869 
L 588 4666 
z
" transform="scale(0.015625)"/>
      <path id="DejaVuSans-Bold-43" d="M 4288 256 
Q 3956 84 3597 -3 
Q 3238 -91 2847 -91 
Q 1681 -91 1000 561 
Q 319 1213 319 2328 
Q 319 3447 1000 4098 
Q 1681 4750 2847 4750 
Q 3238 4750 3597 4662 
Q 3956 4575 4288 4403 
L 4288 3438 
Q 3953 3666 3628 3772 
Q 3303 3878 2944 3878 
Q 2300 3878 1931 3465 
Q 1563 3053 1563 2328 
Q 1563 1606 1931 1193 
Q 2300 781 2944 781 
Q 3303 781 3628 887 
Q 3953 994 4288 1222 
L 4288 256 
z
" transform="scale(0.015625)"/>
      <path id="DejaVuSans-Bold-4f" d="M 2719 3878 
Q 2169 3878 1866 3472 
Q 1563 3066 1563 2328 
Q 1563 1594 1866 1187 
Q 2169 781 2719 781 
Q 3272 781 3575 1187 
Q 3878 1594 3878 2328 
Q 3878 3066 3575 3472 
Q 3272 3878 2719 3878 
z
M 2719 4750 
Q 3844 4750 4481 4106 
Q 5119 3463 5119 2328 
Q 5119 1197 4481 553 
Q 3844 -91 2719 -91 
Q 1597 -91 958 553 
Q 319 1197 319 2328 
Q 319 3463 958 4106 
Q 1597 4750 2719 4750 
z
" transform="scale(0.015625)"/>
      <path id="DejaVuSans-Bold-2d" d="M 347 2297 
L 2309 2297 
L 2309 1388 
L 347 1388 
L 347 2297 
z
" transform="scale(0.015625)"/>
      <path id="DejaVuSans-Bold-45" d="M 588 4666 
L 3834 4666 
L 3834 3756 
L 1791 3756 
L 1791 2888 
L 3713 2888 
L 3713 1978 
L 1791 1978 
L 1791 909 
L 3903 909 
L 3903 0 
L 588 0 
L 588 4666 
z
" transform="scale(0.015625)"/>
      <path id="DejaVuSans-Bold-44" d="M 1791 3756 
L 1791 909 
L 2222 909 
Q 2959 909 3348 1275 
Q 3738 1641 3738 2338 
Q 3738 3031 3350 3393 
Q 2963 3756 2222 3756 
L 1791 3756 
z
M 588 4666 
L 1856 4666 
Q 2919 4666 3439 4514 
Q 3959 4363 4331 4000 
Q 4659 3684 4818 3271 
Q 4978 2859 4978 2338 
Q 4978 1809 4818 1395 
Q 4659 981 4331 666 
Q 3956 303 3431 151 
Q 2906 0 1856 0 
L 588 0 
L 588 4666 
z
" transform="scale(0.015625)"/>
      <path id="DejaVuSans-Bold-4d" d="M 588 4666 
L 2119 4666 
L 3181 2169 
L 4250 4666 
L 5778 4666 
L 5778 0 
L 4641 0 
L 4641 3413 
L 3566 897 
L 2803 897 
L 1728 3413 
L 1728 0 
L 588 0 
L 588 4666 
z
" transform="scale(0.015625)"/>
     </defs>
     <use xlink:href="#DejaVuSans-Bold-49"/>
     <use xlink:href="#DejaVuSans-Bold-4e" transform="translate(37.207031 0)"/>
     <use xlink:href="#DejaVuSans-Bold-53" transform="translate(120.898438 0)"/>
     <use xlink:href="#DejaVuSans-Bold-54" transform="translate(192.919922 0)"/>
     <use xlink:href="#DejaVuSans-Bold-52" transform="translate(261.132812 0)"/>
     <use xlink:href="#DejaVuSans-Bold-55" transform="translate(338.134766 0)"/>
     <use xlink:href="#DejaVuSans-Bold-43" transform="translate(419.335938 0)"/>
     <use xlink:href="#DejaVuSans-Bold-54" transform="translate(492.724609 0)"/>
     <use xlink:href="#DejaVuSans-Bold-49" transform="translate(560.9375 0)"/>
     <use xlink:href="#DejaVuSans-Bold-4f" transform="translate(598.144531 0)"/>
     <use xlink:href="#DejaVuSans-Bold-4e" transform="translate(683.154297 0)"/>
     <use xlink:href="#DejaVuSans-Bold-2d" transform="translate(766.845703 0)"/>
     <use xlink:href="#DejaVuSans-Bold-54" transform="translate(793.599609 0)"/>
     <use xlink:href="#DejaVuSans-Bold-55" transform="translate(861.8125 0)"/>
     <use xlink:href="#DejaVuSans-Bold-4e" transform="translate(943.013672 0)"/>
     <use xlink:href="#DejaVuSans-Bold-45" transform="translate(1026.705078 0)"/>
     <use xlink:href="#DejaVuSans-Bold-44" transform="translate(1095.015625 0)"/>
     <use xlink:href="#DejaVuSans-Bold-20" transform="translate(1178.023438 0)"/>
     <use xlink:href="#DejaVuSans-Bold-4d" transform="translate(1212.837891 0)"/>
     <use xlink:href="#DejaVuSans-Bold-4f" transform="translate(1312.349609 0)"/>
     <use xlink:href="#DejaVuSans-Bold-44" transform="translate(1397.359375 0)"/>
     <use xlink:href="#DejaVuSans-Bold-45" transform="translate(1480.367188 0)"/>
     <use xlink:href="#DejaVuSans-Bold-4c" transform="translate(1548.677734 0)"/>
    </g>
   </g>
   <g id="text_3">
    <!-- 1. GENERATE -->
    <g style="fill: #1e3a5f" transform="translate(106.663437 154.261895) scale(0.11 -0.11)">
     <defs>
      <path id="DejaVuSans-Bold-31" d="M 750 831 
L 1813 831 
L 1813 3847 
L 722 3622 
L 722 4441 
L 1806 4666 
L 2950 4666 
L 2950 831 
L 4013 831 
L 4013 0 
L 750 0 
L 750 831 
z
" transform="scale(0.015625)"/>
      <path id="DejaVuSans-Bold-2e" d="M 653 1209 
L 1778 1209 
L 1778 0 
L 653 0 
L 653 1209 
z
" transform="scale(0.015625)"/>
      <path id="DejaVuSans-Bold-47" d="M 4781 347 
Q 4331 128 3847 18 
Q 3363 -91 2847 -91 
Q 1681 -91 1000 561 
Q 319 1213 319 2328 
Q 319 3456 1012 4103 
Q 1706 4750 2913 4750 
Q 3378 4750 3804 4662 
Q 4231 4575 4609 4403 
L 4609 3438 
Q 4219 3659 3833 3768 
Q 3447 3878 3059 3878 
Q 2341 3878 1952 3476 
Q 1563 3075 1563 2328 
Q 1563 1588 1938 1184 
Q 2313 781 3003 781 
Q 3191 781 3352 804 
Q 3513 828 3641 878 
L 3641 1784 
L 2906 1784 
L 2906 2591 
L 4781 2591 
L 4781 347 
z
" transform="scale(0.015625)"/>
      <path id="DejaVuSans-Bold-41" d="M 3419 850 
L 1538 850 
L 1241 0 
L 31 0 
L 1759 4666 
L 3194 4666 
L 4922 0 
L 3713 0 
L 3419 850 
z
M 1838 1716 
L 3116 1716 
L 2478 3572 
L 1838 1716 
z
" transform="scale(0.015625)"/>
     </defs>
     <use xlink:href="#DejaVuSans-Bold-31"/>
     <use xlink:href="#DejaVuSans-Bold-2e" transform="translate(69.580078 0)"/>
     <use xlink:href="#DejaVuSans-Bold-20" transform="translate(107.568359 0)"/>
     <use xlink:href="#DejaVuSans-Bold-47" transform="translate(142.382812 0)"/>
     <use xlink:href="#DejaVuSans-Bold-45" transform="translate(224.462891 0)"/>
     <use xlink:href="#DejaVuSans-Bold-4e" transform="translate(292.773438 0)"/>
     <use xlink:href="#DejaVuSans-Bold-45" transform="translate(376.464844 0)"/>
     <use xlink:href="#DejaVuSans-Bold-52" transform="translate(444.775391 0)"/>
     <use xlink:href="#DejaVuSans-Bold-41" transform="translate(521.777344 0)"/>
     <use xlink:href="#DejaVuSans-Bold-54" transform="translate(591.419922 0)"/>
     <use xlink:href="#DejaVuSans-Bold-45" transform="translate(659.632812 0)"/>
    </g>
   </g>
   <g id="text_4">
    <!-- Model produces -->
    <g style="fill: #2d3748" transform="translate(111.102891 175.270737) scale(0.09 -0.09)">
     <defs>
      <path id="DejaVuSans-4d" d="M 628 4666 
L 1569 4666 
L 2759 1491 
L 3956 4666 
L 4897 4666 
L 4897 0 
L 4281 0 
L 4281 4097 
L 3078 897 
L 2444 897 
L 1241 4097 
L 1241 0 
L 628 0 
L 628 4666 
z
" transform="scale(0.015625)"/>
      <path id="DejaVuSans-6f" d="M 1959 3097 
Q 1497 3097 1228 2736 
Q 959 2375 959 1747 
Q 959 1119 1226 758 
Q 1494 397 1959 397 
Q 2419 397 2687 759 
Q 2956 1122 2956 1747 
Q 2956 2369 2687 2733 
Q 2419 3097 1959 3097 
z
M 1959 3584 
Q 2709 3584 3137 3096 
Q 3566 2609 3566 1747 
Q 3566 888 3137 398 
Q 2709 -91 1959 -91 
Q 1206 -91 779 398 
Q 353 888 353 1747 
Q 353 2609 779 3096 
Q 1206 3584 1959 3584 
z
" transform="scale(0.015625)"/>
      <path id="DejaVuSans-64" d="M 2906 2969 
L 2906 4863 
L 3481 4863 
L 3481 0 
L 2906 0 
L 2906 525 
Q 2725 213 2448 61 
Q 2172 -91 1784 -91 
Q 1150 -91 751 415 
Q 353 922 353 1747 
Q 353 2572 751 3078 
Q 1150 3584 1784 3584 
Q 2172 3584 2448 3432 
Q 2725 3281 2906 2969 
z
M 947 1747 
Q 947 1113 1208 752 
Q 1469 391 1925 391 
Q 2381 391 2643 752 
Q 2906 1113 2906 1747 
Q 2906 2381 2643 2742 
Q 2381 3103 1925 3103 
Q 1469 3103 1208 2742 
Q 947 2381 947 1747 
z
" transform="scale(0.015625)"/>
      <path id="DejaVuSans-65" d="M 3597 1894 
L 3597 1613 
L 953 1613 
Q 991 1019 1311 708 
Q 1631 397 2203 397 
Q 2534 397 2845 478 
Q 3156 559 3463 722 
L 3463 178 
Q 3153 47 2828 -22 
Q 2503 -91 2169 -91 
Q 1331 -91 842 396 
Q 353 884 353 1716 
Q 353 2575 817 3079 
Q 1281 3584 2069 3584 
Q 2775 3584 3186 3129 
Q 3597 2675 3597 1894 
z
M 3022 2063 
Q 3016 2534 2758 2815 
Q 2500 3097 2075 3097 
Q 1594 3097 1305 2825 
Q 1016 2553 972 2059 
L 3022 2063 
z
" transform="scale(0.015625)"/>
      <path id="DejaVuSans-6c" d="M 603 4863 
L 1178 4863 
L 1178 0 
L 603 0 
L 603 4863 
z
" transform="scale(0.015625)"/>
      <path id="DejaVuSans-20" transform="scale(0.015625)"/>
      <path id="DejaVuSans-70" d="M 1159 525 
L 1159 -1331 
L 581 -1331 
L 581 3500 
L 1159 3500 
L 1159 2969 
Q 1341 3281 1617 3432 
Q 1894 3584 2278 3584 
Q 2916 3584 3314 3078 
Q 3713 2572 3713 1747 
Q 3713 922 3314 415 
Q 2916 -91 2278 -91 
Q 1894 -91 1617 61 
Q 1341 213 1159 525 
z
M 3116 1747 
Q 3116 2381 2855 2742 
Q 2594 3103 2138 3103 
Q 1681 3103 1420 2742 
Q 1159 2381 1159 1747 
Q 1159 1113 1420 752 
Q 1681 391 2138 391 
Q 2594 391 2855 752 
Q 3116 1113 3116 1747 
z
" transform="scale(0.015625)"/>
      <path id="DejaVuSans-72" d="M 2631 2963 
Q 2534 3019 2420 3045 
Q 2306 3072 2169 3072 
Q 1681 3072 1420 2755 
Q 1159 2438 1159 1844 
L 1159 0 
L 581 0 
L 581 3500 
L 1159 3500 
L 1159 2956 
Q 1341 3275 1631 3429 
Q 1922 3584 2338 3584 
Q 2397 3584 2469 3576 
Q 2541 3569 2628 3553 
L 2631 2963 
z
" transform="scale(0.015625)"/>
      <path id="DejaVuSans-75" d="M 544 1381 
L 544 3500 
L 1119 3500 
L 1119 1403 
Q 1119 906 1312 657 
Q 1506 409 1894 409 
Q 2359 409 2629 706 
Q 2900 1003 2900 1516 
L 2900 3500 
L 3475 3500 
L 3475 0 
L 2900 0 
L 2900 538 
Q 2691 219 2414 64 
Q 2138 -91 1772 -91 
Q 1169 -91 856 284 
Q 544 659 544 1381 
z
M 1991 3584 
L 1991 3584 
z
" transform="scale(0.015625)"/>
      <path id="DejaVuSans-63" d="M 3122 3366 
L 3122 2828 
Q 2878 2963 2633 3030 
Q 2388 3097 2138 3097 
Q 1578 3097 1268 2742 
Q 959 2388 959 1747 
Q 959 1106 1268 751 
Q 1578 397 2138 397 
Q 2388 397 2633 464 
Q 2878 531 3122 666 
L 3122 134 
Q 2881 22 2623 -34 
Q 2366 -91 2075 -91 
Q 1284 -91 818 406 
Q 353 903 353 1747 
Q 353 2603 823 3093 
Q 1294 3584 2113 3584 
Q 2378 3584 2631 3529 
Q 2884 3475 3122 3366 
z
" transform="scale(0.015625)"/>
      <path id="DejaVuSans-73" d="M 2834 3397 
L 2834 2853 
Q 2591 2978 2328 3040 
Q 2066 3103 1784 3103 
Q 1356 3103 1142 2972 
Q 928 2841 928 2578 
Q 928 2378 1081 2264 
Q 1234 2150 1697 2047 
L 1894 2003 
Q 2506 1872 2764 1633 
Q 3022 1394 3022 966 
Q 3022 478 2636 193 
Q 2250 -91 1575 -91 
Q 1294 -91 989 -36 
Q 684 19 347 128 
L 347 722 
Q 666 556 975 473 
Q 1284 391 1588 391 
Q 1994 391 2212 530 
Q 2431 669 2431 922 
Q 2431 1156 2273 1281 
Q 2116 1406 1581 1522 
L 1381 1569 
Q 847 1681 609 1914 
Q 372 2147 372 2553 
Q 372 3047 722 3315 
Q 1072 3584 1716 3584 
Q 2034 3584 2315 3537 
Q 2597 3491 2834 3397 
z
" transform="scale(0.015625)"/>
     </defs>
     <use xlink:href="#DejaVuSans-4d"/>
     <use xlink:href="#DejaVuSans-6f" transform="translate(86.279297 0)"/>
     <use xlink:href="#DejaVuSans-64" transform="translate(147.460938 0)"/>
     <use xlink:href="#DejaVuSans-65" transform="translate(210.9375 0)"/>
     <use xlink:href="#DejaVuSans-6c" transform="translate(272.460938 0)"/>
     <use xlink:href="#DejaVuSans-20" transform="translate(300.244141 0)"/>
     <use xlink:href="#DejaVuSans-70" transform="translate(332.03125 0)"/>
     <use xlink:href="#DejaVuSans-72" transform="translate(395.507812 0)"/>
     <use xlink:href="#DejaVuSans-6f" transform="translate(434.371094 0)"/>
     <use xlink:href="#DejaVuSans-64" transform="translate(495.552734 0)"/>
     <use xlink:href="#DejaVuSans-75" transform="translate(559.029297 0)"/>
     <use xlink:href="#DejaVuSans-63" transform="translate(622.408203 0)"/>
     <use xlink:href="#DejaVuSans-65" transform="translate(677.388672 0)"/>
     <use xlink:href="#DejaVuSans-73" transform="translate(738.912109 0)"/>
    </g>
   </g>
   <g id="text_5">
    <!-- multiple responses -->
    <g style="fill: #2d3748" transform="translate(104.113125 191.027368) scale(0.09 -0.09)">
     <defs>
      <path id="DejaVuSans-6d" d="M 3328 2828 
Q 3544 3216 3844 3400 
Q 4144 3584 4550 3584 
Q 5097 3584 5394 3201 
Q 5691 2819 5691 2113 
L 5691 0 
L 5113 0 
L 5113 2094 
Q 5113 2597 4934 2840 
Q 4756 3084 4391 3084 
Q 3944 3084 3684 2787 
Q 3425 2491 3425 1978 
L 3425 0 
L 2847 0 
L 2847 2094 
Q 2847 2600 2669 2842 
Q 2491 3084 2119 3084 
Q 1678 3084 1418 2786 
Q 1159 2488 1159 1978 
L 1159 0 
L 581 0 
L 581 3500 
L 1159 3500 
L 1159 2956 
Q 1356 3278 1631 3431 
Q 1906 3584 2284 3584 
Q 2666 3584 2933 3390 
Q 3200 3197 3328 2828 
z
" transform="scale(0.015625)"/>
      <path id="DejaVuSans-74" d="M 1172 4494 
L 1172 3500 
L 2356 3500 
L 2356 3053 
L 1172 3053 
L 1172 1153 
Q 1172 725 1289 603 
Q 1406 481 1766 481 
L 2356 481 
L 2356 0 
L 1766 0 
Q 1100 0 847 248 
Q 594 497 594 1153 
L 594 3053 
L 172 3053 
L 172 3500 
L 594 3500 
L 594 4494 
L 1172 4494 
z
" transform="scale(0.015625)"/>
      <path id="DejaVuSans-69" d="M 603 3500 
L 1178 3500 
L 1178 0 
L 603 0 
L 603 3500 
z
M 603 4863 
L 1178 4863 
L 1178 4134 
L 603 4134 
L 603 4863 
z
" transform="scale(0.015625)"/>
      <path id="DejaVuSans-6e" d="M 3513 2113 
L 3513 0 
L 2938 0 
L 2938 2094 
Q 2938 2591 2744 2837 
Q 2550 3084 2163 3084 
Q 1697 3084 1428 2787 
Q 1159 2491 1159 1978 
L 1159 0 
L 581 0 
L 581 3500 
L 1159 3500 
L 1159 2956 
Q 1366 3272 1645 3428 
Q 1925 3584 2291 3584 
Q 2894 3584 3203 3211 
Q 3513 2838 3513 2113 
z
" transform="scale(0.015625)"/>
     </defs>
     <use xlink:href="#DejaVuSans-6d"/>
     <use xlink:href="#DejaVuSans-75" transform="translate(97.412109 0)"/>
     <use xlink:href="#DejaVuSans-6c" transform="translate(160.791016 0)"/>
     <use xlink:href="#DejaVuSans-74" transform="translate(188.574219 0)"/>
     <use xlink:href="#DejaVuSans-69" transform="translate(227.783203 0)"/>
     <use xlink:href="#DejaVuSans-70" transform="translate(255.566406 0)"/>
     <use xlink:href="#DejaVuSans-6c" transform="translate(319.042969 0)"/>
     <use xlink:href="#DejaVuSans-65" transform="translate(346.826172 0)"/>
     <use xlink:href="#DejaVuSans-20" transform="translate(408.349609 0)"/>
     <use xlink:href="#DejaVuSans-72" transform="translate(440.136719 0)"/>
     <use xlink:href="#DejaVuSans-65" transform="translate(479 0)"/>
     <use xlink:href="#DejaVuSans-73" transform="translate(540.523438 0)"/>
     <use xlink:href="#DejaVuSans-70" transform="translate(592.623047 0)"/>
     <use xlink:href="#DejaVuSans-6f" transform="translate(656.099609 0)"/>
     <use xlink:href="#DejaVuSans-6e" transform="translate(717.28125 0)"/>
     <use xlink:href="#DejaVuSans-73" transform="translate(780.660156 0)"/>
     <use xlink:href="#DejaVuSans-65" transform="translate(832.759766 0)"/>
     <use xlink:href="#DejaVuSans-73" transform="translate(894.283203 0)"/>
    </g>
   </g>
   <g id="text_6">
    <!-- "A, B, C..." -->
    <g style="fill: #4a5568" transform="translate(123.156562 206.784) scale(0.09 -0.09)">
     <defs>
      <path id="DejaVuSans-Oblique-22" d="M 1147 4666 
L 1147 2931 
L 616 2931 
L 616 4666 
L 1147 4666 
z
M 2328 4666 
L 2328 2931 
L 1797 2931 
L 1797 4666 
L 2328 4666 
z
" transform="scale(0.015625)"/>
      <path id="DejaVuSans-Oblique-41" d="M 2356 4666 
L 3072 4666 
L 3938 0 
L 3278 0 
L 3084 1197 
L 984 1197 
L 325 0 
L -341 0 
L 2356 4666 
z
M 2584 4044 
L 1275 1722 
L 2988 1722 
L 2584 4044 
z
" transform="scale(0.015625)"/>
      <path id="DejaVuSans-Oblique-2c" d="M 575 794 
L 1234 794 
L 1131 256 
L 422 -744 
L 19 -744 
L 469 256 
L 575 794 
z
" transform="scale(0.015625)"/>
      <path id="DejaVuSans-Oblique-20" transform="scale(0.015625)"/>
      <path id="DejaVuSans-Oblique-42" d="M 1081 4666 
L 2694 4666 
Q 3350 4666 3675 4422 
Q 4000 4178 4000 3688 
Q 4000 3238 3720 2911 
Q 3441 2584 2988 2516 
Q 3375 2428 3569 2181 
Q 3763 1934 3763 1522 
Q 3763 819 3242 409 
Q 2722 0 1819 0 
L 172 0 
L 1081 4666 
z
M 1234 2228 
L 903 519 
L 1919 519 
Q 2491 519 2800 781 
Q 3109 1044 3109 1522 
Q 3109 1891 2904 2059 
Q 2700 2228 2247 2228 
L 1234 2228 
z
M 1606 4147 
L 1331 2741 
L 2272 2741 
Q 2775 2741 3058 2959 
Q 3341 3178 3341 3566 
Q 3341 3869 3150 4008 
Q 2959 4147 2541 4147 
L 1606 4147 
z
" transform="scale(0.015625)"/>
      <path id="DejaVuSans-Oblique-43" d="M 4447 4306 
L 4319 3641 
Q 4019 3944 3683 4091 
Q 3347 4238 2956 4238 
Q 2422 4238 2017 3981 
Q 1613 3725 1319 3200 
Q 1131 2863 1032 2486 
Q 934 2109 934 1728 
Q 934 1091 1264 756 
Q 1594 422 2222 422 
Q 2656 422 3056 561 
Q 3456 700 3834 978 
L 3688 231 
Q 3316 72 2936 -9 
Q 2556 -91 2175 -91 
Q 1278 -91 773 396 
Q 269 884 269 1753 
Q 269 2309 461 2846 
Q 653 3384 1013 3828 
Q 1394 4300 1883 4525 
Q 2372 4750 3022 4750 
Q 3422 4750 3780 4639 
Q 4138 4528 4447 4306 
z
" transform="scale(0.015625)"/>
      <path id="DejaVuSans-Oblique-2e" d="M 525 794 
L 1184 794 
L 1031 0 
L 372 0 
L 525 794 
z
" transform="scale(0.015625)"/>
     </defs>
     <use xlink:href="#DejaVuSans-Oblique-22"/>
     <use xlink:href="#DejaVuSans-Oblique-41" transform="translate(45.996094 0)"/>
     <use xlink:href="#DejaVuSans-Oblique-2c" transform="translate(116.279297 0)"/>
     <use xlink:href="#DejaVuSans-Oblique-20" transform="translate(148.066406 0)"/>
     <use xlink:href="#DejaVuSans-Oblique-42" transform="translate(179.853516 0)"/>
     <use xlink:href="#DejaVuSans-Oblique-2c" transform="translate(248.457031 0)"/>
     <use xlink:href="#DejaVuSans-Oblique-20" transform="translate(280.244141 0)"/>
     <use xlink:href="#DejaVuSans-Oblique-43" transform="translate(312.03125 0)"/>
     <use xlink:href="#DejaVuSans-Oblique-2e" transform="translate(381.855469 0)"/>
     <use xlink:href="#DejaVuSans-Oblique-2e" transform="translate(413.642578 0)"/>
     <use xlink:href="#DejaVuSans-Oblique-2e" transform="translate(445.429688 0)"/>
     <use xlink:href="#DejaVuSans-Oblique-22" transform="translate(477.216797 0)"/>
    </g>
   </g>
   <g id="text_7">
    <!-- 2. RANK -->
    <g style="fill: #1e3a5f" transform="translate(386.563437 154.261895) scale(0.11 -0.11)">
     <defs>
      <path id="DejaVuSans-Bold-32" d="M 1844 884 
L 3897 884 
L 3897 0 
L 506 0 
L 506 884 
L 2209 2388 
Q 2438 2594 2547 2791 
Q 2656 2988 2656 3200 
Q 2656 3528 2436 3728 
Q 2216 3928 1850 3928 
Q 1569 3928 1234 3808 
Q 900 3688 519 3450 
L 519 4475 
Q 925 4609 1322 4679 
Q 1719 4750 2100 4750 
Q 2938 4750 3402 4381 
Q 3866 4013 3866 3353 
Q 3866 2972 3669 2642 
Q 3472 2313 2841 1759 
L 1844 884 
z
" transform="scale(0.015625)"/>
      <path id="DejaVuSans-Bold-4b" d="M 588 4666 
L 1791 4666 
L 1791 2963 
L 3525 4666 
L 4922 4666 
L 2675 2456 
L 5153 0 
L 3647 0 
L 1791 1838 
L 1791 0 
L 588 0 
L 588 4666 
z
" transform="scale(0.015625)"/>
     </defs>
     <use xlink:href="#DejaVuSans-Bold-32"/>
     <use xlink:href="#DejaVuSans-Bold-2e" transform="translate(69.580078 0)"/>
     <use xlink:href="#DejaVuSans-Bold-20" transform="translate(107.568359 0)"/>
     <use xlink:href="#DejaVuSans-Bold-52" transform="translate(142.382812 0)"/>
     <use xlink:href="#DejaVuSans-Bold-41" transform="translate(219.384766 0)"/>
     <use xlink:href="#DejaVuSans-Bold-4e" transform="translate(296.777344 0)"/>
     <use xlink:href="#DejaVuSans-Bold-4b" transform="translate(380.46875 0)"/>
    </g>
   </g>
   <g id="text_8">
    <!-- Humans rank: -->
    <g style="fill: #2d3748" transform="translate(380.165625 175.270737) scale(0.09 -0.09)">
     <defs>
      <path id="DejaVuSans-48" d="M 628 4666 
L 1259 4666 
L 1259 2753 
L 3553 2753 
L 3553 4666 
L 4184 4666 
L 4184 0 
L 3553 0 
L 3553 2222 
L 1259 2222 
L 1259 0 
L 628 0 
L 628 4666 
z
" transform="scale(0.015625)"/>
      <path id="DejaVuSans-61" d="M 2194 1759 
Q 1497 1759 1228 1600 
Q 959 1441 959 1056 
Q 959 750 1161 570 
Q 1363 391 1709 391 
Q 2188 391 2477 730 
Q 2766 1069 2766 1631 
L 2766 1759 
L 2194 1759 
z
M 3341 1997 
L 3341 0 
L 2766 0 
L 2766 531 
Q 2569 213 2275 61 
Q 1981 -91 1556 -91 
Q 1019 -91 701 211 
Q 384 513 384 1019 
Q 384 1609 779 1909 
Q 1175 2209 1959 2209 
L 2766 2209 
L 2766 2266 
Q 2766 2663 2505 2880 
Q 2244 3097 1772 3097 
Q 1472 3097 1187 3025 
Q 903 2953 641 2809 
L 641 3341 
Q 956 3463 1253 3523 
Q 1550 3584 1831 3584 
Q 2591 3584 2966 3190 
Q 3341 2797 3341 1997 
z
" transform="scale(0.015625)"/>
      <path id="DejaVuSans-6b" d="M 581 4863 
L 1159 4863 
L 1159 1991 
L 2875 3500 
L 3609 3500 
L 1753 1863 
L 3688 0 
L 2938 0 
L 1159 1709 
L 1159 0 
L 581 0 
L 581 4863 
z
" transform="scale(0.015625)"/>
      <path id="DejaVuSans-3a" d="M 750 794 
L 1409 794 
L 1409 0 
L 750 0 
L 750 794 
z
M 750 3309 
L 1409 3309 
L 1409 2516 
L 750 2516 
L 750 3309 
z
" transform="scale(0.015625)"/>
     </defs>
     <use xlink:href="#DejaVuSans-48"/>
     <use xlink:href="#DejaVuSans-75" transform="translate(75.195312 0)"/>
     <use xlink:href="#DejaVuSans-6d" transform="translate(138.574219 0)"/>
     <use xlink:href="#DejaVuSans-61" transform="translate(235.986328 0)"/>
     <use xlink:href="#DejaVuSans-6e" transform="translate(297.265625 0)"/>
     <use xlink:href="#DejaVuSans-73" transform="translate(360.644531 0)"/>
     <use xlink:href="#DejaVuSans-20" transform="translate(412.744141 0)"/>
     <use xlink:href="#DejaVuSans-72" transform="translate(444.53125 0)"/>
     <use xlink:href="#DejaVuSans-61" transform="translate(485.644531 0)"/>
     <use xlink:href="#DejaVuSans-6e" transform="translate(546.923828 0)"/>
     <use xlink:href="#DejaVuSans-6b" transform="translate(610.302734 0)"/>
     <use xlink:href="#DejaVuSans-3a" transform="translate(668.212891 0)"/>
    </g>
   </g>
   <g id="text_9">
    <!-- A &gt; B &gt; C -->
    <g style="fill: #2d3748" transform="translate(389.179687 191.027368) scale(0.09 -0.09)">
     <defs>
      <path id="DejaVuSans-41" d="M 2188 4044 
L 1331 1722 
L 3047 1722 
L 2188 4044 
z
M 1831 4666 
L 2547 4666 
L 4325 0 
L 3669 0 
L 3244 1197 
L 1141 1197 
L 716 0 
L 50 0 
L 1831 4666 
z
" transform="scale(0.015625)"/>
      <path id="DejaVuSans-3e" d="M 678 3150 
L 678 3719 
L 4684 2266 
L 4684 1747 
L 678 294 
L 678 863 
L 3897 2003 
L 678 3150 
z
" transform="scale(0.015625)"/>
      <path id="DejaVuSans-42" d="M 1259 2228 
L 1259 519 
L 2272 519 
Q 2781 519 3026 730 
Q 3272 941 3272 1375 
Q 3272 1813 3026 2020 
Q 2781 2228 2272 2228 
L 1259 2228 
z
M 1259 4147 
L 1259 2741 
L 2194 2741 
Q 2656 2741 2882 2914 
Q 3109 3088 3109 3444 
Q 3109 3797 2882 3972 
Q 2656 4147 2194 4147 
L 1259 4147 
z
M 628 4666 
L 2241 4666 
Q 2963 4666 3353 4366 
Q 3744 4066 3744 3513 
Q 3744 3084 3544 2831 
Q 3344 2578 2956 2516 
Q 3422 2416 3680 2098 
Q 3938 1781 3938 1306 
Q 3938 681 3513 340 
Q 3088 0 2303 0 
L 628 0 
L 628 4666 
z
" transform="scale(0.015625)"/>
      <path id="DejaVuSans-43" d="M 4122 4306 
L 4122 3641 
Q 3803 3938 3442 4084 
Q 3081 4231 2675 4231 
Q 1875 4231 1450 3742 
Q 1025 3253 1025 2328 
Q 1025 1406 1450 917 
Q 1875 428 2675 428 
Q 3081 428 3442 575 
Q 3803 722 4122 1019 
L 4122 359 
Q 3791 134 3420 21 
Q 3050 -91 2638 -91 
Q 1578 -91 968 557 
Q 359 1206 359 2328 
Q 359 3453 968 4101 
Q 1578 4750 2638 4750 
Q 3056 4750 3426 4639 
Q 3797 4528 4122 4306 
z
" transform="scale(0.015625)"/>
     </defs>
     <use xlink:href="#DejaVuSans-41"/>
     <use xlink:href="#DejaVuSans-20" transform="translate(68.408203 0)"/>
     <use xlink:href="#DejaVuSans-3e" transform="translate(100.195312 0)"/>
     <use xlink:href="#DejaVuSans-20" transform="translate(183.984375 0)"/>
     <use xlink:href="#DejaVuSans-42" transform="translate(215.771484 0)"/>
     <use xlink:href="#DejaVuSans-20" transform="translate(284.375 0)"/>
     <use xlink:href="#DejaVuSans-3e" transform="translate(316.162109 0)"/>
     <use xlink:href="#DejaVuSans-20" transform="translate(399.951172 0)"/>
     <use xlink:href="#DejaVuSans-43" transform="translate(431.738281 0)"/>
    </g>
   </g>
   <g id="text_10">
    <!-- (A is best) -->
    <g style="fill: #4a5568" transform="translate(388.971562 206.784) scale(0.09 -0.09)">
     <defs>
      <path id="DejaVuSans-Oblique-28" d="M 2731 4856 
Q 1903 3822 1495 2892 
Q 1088 1963 1088 1100 
Q 1088 606 1206 120 
Q 1325 -366 1563 -844 
L 1063 -844 
Q 775 -306 634 201 
Q 494 709 494 1197 
Q 494 2125 923 3036 
Q 1353 3947 2222 4856 
L 2731 4856 
z
" transform="scale(0.015625)"/>
      <path id="DejaVuSans-Oblique-69" d="M 1172 4863 
L 1747 4863 
L 1606 4134 
L 1031 4134 
L 1172 4863 
z
M 909 3500 
L 1484 3500 
L 800 0 
L 225 0 
L 909 3500 
z
" transform="scale(0.015625)"/>
      <path id="DejaVuSans-Oblique-73" d="M 3200 3397 
L 3091 2853 
Q 2863 2978 2609 3040 
Q 2356 3103 2088 3103 
Q 1634 3103 1373 2948 
Q 1113 2794 1113 2528 
Q 1113 2219 1719 2053 
Q 1766 2041 1788 2034 
L 1972 1978 
Q 2547 1819 2739 1644 
Q 2931 1469 2931 1166 
Q 2931 609 2489 259 
Q 2047 -91 1331 -91 
Q 1053 -91 747 -37 
Q 441 16 72 128 
L 184 722 
Q 500 559 806 475 
Q 1113 391 1394 391 
Q 1816 391 2080 572 
Q 2344 753 2344 1031 
Q 2344 1331 1650 1516 
L 1591 1531 
L 1394 1581 
Q 956 1697 753 1886 
Q 550 2075 550 2369 
Q 550 2928 970 3256 
Q 1391 3584 2113 3584 
Q 2397 3584 2667 3537 
Q 2938 3491 3200 3397 
z
" transform="scale(0.015625)"/>
      <path id="DejaVuSans-Oblique-62" d="M 3169 2138 
Q 3169 2591 2961 2847 
Q 2753 3103 2388 3103 
Q 2122 3103 1889 2973 
Q 1656 2844 1484 2597 
Q 1303 2338 1198 1995 
Q 1094 1653 1094 1313 
Q 1094 881 1298 636 
Q 1503 391 1863 391 
Q 2134 391 2365 517 
Q 2597 644 2772 891 
Q 2950 1147 3059 1487 
Q 3169 1828 3169 2138 
z
M 1381 2969 
Q 1594 3256 1914 3420 
Q 2234 3584 2584 3584 
Q 3122 3584 3439 3221 
Q 3756 2859 3756 2241 
Q 3756 1734 3570 1259 
Q 3384 784 3041 416 
Q 2816 172 2522 40 
Q 2228 -91 1906 -91 
Q 1566 -91 1316 65 
Q 1066 222 909 531 
L 806 0 
L 231 0 
L 1178 4863 
L 1753 4863 
L 1381 2969 
z
" transform="scale(0.015625)"/>
      <path id="DejaVuSans-Oblique-65" d="M 3078 2063 
Q 3088 2113 3092 2166 
Q 3097 2219 3097 2272 
Q 3097 2653 2873 2875 
Q 2650 3097 2266 3097 
Q 1838 3097 1509 2826 
Q 1181 2556 1013 2059 
L 3078 2063 
z
M 3578 1613 
L 903 1613 
Q 884 1494 878 1425 
Q 872 1356 872 1306 
Q 872 872 1139 634 
Q 1406 397 1894 397 
Q 2269 397 2603 481 
Q 2938 566 3225 728 
L 3116 159 
Q 2806 34 2476 -28 
Q 2147 -91 1806 -91 
Q 1078 -91 686 257 
Q 294 606 294 1247 
Q 294 1794 489 2264 
Q 684 2734 1063 3103 
Q 1306 3334 1642 3459 
Q 1978 3584 2356 3584 
Q 2950 3584 3301 3228 
Q 3653 2872 3653 2272 
Q 3653 2128 3634 1964 
Q 3616 1800 3578 1613 
z
" transform="scale(0.015625)"/>
      <path id="DejaVuSans-Oblique-74" d="M 2706 3500 
L 2619 3053 
L 1472 3053 
L 1100 1153 
Q 1081 1047 1072 975 
Q 1063 903 1063 863 
Q 1063 663 1183 572 
Q 1303 481 1569 481 
L 2150 481 
L 2053 0 
L 1503 0 
Q 991 0 739 200 
Q 488 400 488 806 
Q 488 878 497 964 
Q 506 1050 525 1153 
L 897 3053 
L 409 3053 
L 500 3500 
L 978 3500 
L 1172 4494 
L 1747 4494 
L 1556 3500 
L 2706 3500 
z
" transform="scale(0.015625)"/>
      <path id="DejaVuSans-Oblique-29" d="M -397 -844 
Q 434 191 840 1120 
Q 1247 2050 1247 2913 
Q 1247 3406 1130 3892 
Q 1013 4378 775 4856 
L 1275 4856 
Q 1563 4316 1703 3812 
Q 1844 3309 1844 2822 
Q 1844 1891 1411 973 
Q 978 56 116 -844 
L -397 -844 
z
" transform="scale(0.015625)"/>
     </defs>
     <use xlink:href="#DejaVuSans-Oblique-28"/>
     <use xlink:href="#DejaVuSans-Oblique-41" transform="translate(39.013672 0)"/>
     <use xlink:href="#DejaVuSans-Oblique-20" transform="translate(107.421875 0)"/>
     <use xlink:href="#DejaVuSans-Oblique-69" transform="translate(139.208984 0)"/>
     <use xlink:href="#DejaVuSans-Oblique-73" transform="translate(166.992188 0)"/>
     <use xlink:href="#DejaVuSans-Oblique-20" transform="translate(219.091797 0)"/>
     <use xlink:href="#DejaVuSans-Oblique-62" transform="translate(250.878906 0)"/>
     <use xlink:href="#DejaVuSans-Oblique-65" transform="translate(314.355469 0)"/>
     <use xlink:href="#DejaVuSans-Oblique-73" transform="translate(375.878906 0)"/>
     <use xlink:href="#DejaVuSans-Oblique-74" transform="translate(427.978516 0)"/>
     <use xlink:href="#DejaVuSans-Oblique-29" transform="translate(467.1875 0)"/>
    </g>
   </g>
   <g id="text_11">
    <!-- 3. REWARD MODEL -->
    <g style="fill: #1e3a5f" transform="translate(590.309531 154.261895) scale(0.11 -0.11)">
     <defs>
      <path id="DejaVuSans-Bold-33" d="M 2981 2516 
Q 3453 2394 3698 2092 
Q 3944 1791 3944 1325 
Q 3944 631 3412 270 
Q 2881 -91 1863 -91 
Q 1503 -91 1142 -33 
Q 781 25 428 141 
L 428 1069 
Q 766 900 1098 814 
Q 1431 728 1753 728 
Q 2231 728 2486 893 
Q 2741 1059 2741 1369 
Q 2741 1688 2480 1852 
Q 2219 2016 1709 2016 
L 1228 2016 
L 1228 2791 
L 1734 2791 
Q 2188 2791 2409 2933 
Q 2631 3075 2631 3366 
Q 2631 3634 2415 3781 
Q 2200 3928 1806 3928 
Q 1516 3928 1219 3862 
Q 922 3797 628 3669 
L 628 4550 
Q 984 4650 1334 4700 
Q 1684 4750 2022 4750 
Q 2931 4750 3382 4451 
Q 3834 4153 3834 3553 
Q 3834 3144 3618 2883 
Q 3403 2622 2981 2516 
z
" transform="scale(0.015625)"/>
      <path id="DejaVuSans-Bold-57" d="M 191 4666 
L 1344 4666 
L 2150 1275 
L 2950 4666 
L 4109 4666 
L 4909 1275 
L 5716 4666 
L 6859 4666 
L 5759 0 
L 4372 0 
L 3525 3547 
L 2688 0 
L 1300 0 
L 191 4666 
z
" transform="scale(0.015625)"/>
     </defs>
     <use xlink:href="#DejaVuSans-Bold-33"/>
     <use xlink:href="#DejaVuSans-Bold-2e" transform="translate(69.580078 0)"/>
     <use xlink:href="#DejaVuSans-Bold-20" transform="translate(107.568359 0)"/>
     <use xlink:href="#DejaVuSans-Bold-52" transform="translate(142.382812 0)"/>
     <use xlink:href="#DejaVuSans-Bold-45" transform="translate(219.384766 0)"/>
     <use xlink:href="#DejaVuSans-Bold-57" transform="translate(287.695312 0)"/>
     <use xlink:href="#DejaVuSans-Bold-41" transform="translate(393.498047 0)"/>
     <use xlink:href="#DejaVuSans-Bold-52" transform="translate(470.890625 0)"/>
     <use xlink:href="#DejaVuSans-Bold-44" transform="translate(547.892578 0)"/>
     <use xlink:href="#DejaVuSans-Bold-20" transform="translate(630.900391 0)"/>
     <use xlink:href="#DejaVuSans-Bold-4d" transform="translate(665.714844 0)"/>
     <use xlink:href="#DejaVuSans-Bold-4f" transform="translate(765.226562 0)"/>
     <use xlink:href="#DejaVuSans-Bold-44" transform="translate(850.236328 0)"/>
     <use xlink:href="#DejaVuSans-Bold-45" transform="translate(933.244141 0)"/>
     <use xlink:href="#DejaVuSans-Bold-4c" transform="translate(1001.554688 0)"/>
    </g>
   </g>
   <g id="text_12">
    <!-- Train model to -->
    <g style="fill: #2d3748" transform="translate(616.715156 175.270737) scale(0.09 -0.09)">
     <defs>
      <path id="DejaVuSans-54" d="M -19 4666 
L 3928 4666 
L 3928 4134 
L 2272 4134 
L 2272 0 
L 1638 0 
L 1638 4134 
L -19 4134 
L -19 4666 
z
" transform="scale(0.015625)"/>
     </defs>
     <use xlink:href="#DejaVuSans-54"/>
     <use xlink:href="#DejaVuSans-72" transform="translate(46.333984 0)"/>
     <use xlink:href="#DejaVuSans-61" transform="translate(87.447266 0)"/>
     <use xlink:href="#DejaVuSans-69" transform="translate(148.726562 0)"/>
     <use xlink:href="#DejaVuSans-6e" transform="translate(176.509766 0)"/>
     <use xlink:href="#DejaVuSans-20" transform="translate(239.888672 0)"/>
     <use xlink:href="#DejaVuSans-6d" transform="translate(271.675781 0)"/>
     <use xlink:href="#DejaVuSans-6f" transform="translate(369.087891 0)"/>
     <use xlink:href="#DejaVuSans-64" transform="translate(430.269531 0)"/>
     <use xlink:href="#DejaVuSans-65" transform="translate(493.746094 0)"/>
     <use xlink:href="#DejaVuSans-6c" transform="translate(555.269531 0)"/>
     <use xlink:href="#DejaVuSans-20" transform="translate(583.052734 0)"/>
     <use xlink:href="#DejaVuSans-74" transform="translate(614.839844 0)"/>
     <use xlink:href="#DejaVuSans-6f" transform="translate(654.048828 0)"/>
    </g>
   </g>
   <g id="text_13">
    <!-- predict rankings -->
    <g style="fill: #2d3748" transform="translate(612.381797 191.027368) scale(0.09 -0.09)">
     <defs>
      <path id="DejaVuSans-67" d="M 2906 1791 
Q 2906 2416 2648 2759 
Q 2391 3103 1925 3103 
Q 1463 3103 1205 2759 
Q 947 2416 947 1791 
Q 947 1169 1205 825 
Q 1463 481 1925 481 
Q 2391 481 2648 825 
Q 2906 1169 2906 1791 
z
M 3481 434 
Q 3481 -459 3084 -895 
Q 2688 -1331 1869 -1331 
Q 1566 -1331 1297 -1286 
Q 1028 -1241 775 -1147 
L 775 -588 
Q 1028 -725 1275 -790 
Q 1522 -856 1778 -856 
Q 2344 -856 2625 -561 
Q 2906 -266 2906 331 
L 2906 616 
Q 2728 306 2450 153 
Q 2172 0 1784 0 
Q 1141 0 747 490 
Q 353 981 353 1791 
Q 353 2603 747 3093 
Q 1141 3584 1784 3584 
Q 2172 3584 2450 3431 
Q 2728 3278 2906 2969 
L 2906 3500 
L 3481 3500 
L 3481 434 
z
" transform="scale(0.015625)"/>
     </defs>
     <use xlink:href="#DejaVuSans-70"/>
     <use xlink:href="#DejaVuSans-72" transform="translate(63.476562 0)"/>
     <use xlink:href="#DejaVuSans-65" transform="translate(102.339844 0)"/>
     <use xlink:href="#DejaVuSans-64" transform="translate(163.863281 0)"/>
     <use xlink:href="#DejaVuSans-69" transform="translate(227.339844 0)"/>
     <use xlink:href="#DejaVuSans-63" transform="translate(255.123047 0)"/>
     <use xlink:href="#DejaVuSans-74" transform="translate(310.103516 0)"/>
     <use xlink:href="#DejaVuSans-20" transform="translate(349.3125 0)"/>
     <use xlink:href="#DejaVuSans-72" transform="translate(381.099609 0)"/>
     <use xlink:href="#DejaVuSans-61" transform="translate(422.212891 0)"/>
     <use xlink:href="#DejaVuSans-6e" transform="translate(483.492188 0)"/>
     <use xlink:href="#DejaVuSans-6b" transform="translate(546.871094 0)"/>
     <use xlink:href="#DejaVuSans-69" transform="translate(604.78125 0)"/>
     <use xlink:href="#DejaVuSans-6e" transform="translate(632.564453 0)"/>
     <use xlink:href="#DejaVuSans-67" transform="translate(695.943359 0)"/>
     <use xlink:href="#DejaVuSans-73" transform="translate(759.419922 0)"/>
    </g>
   </g>
   <g id="text_14">
    <!-- 4. OPTIMIZE (PPO/DPO) -->
    <g style="fill: #ffffff" transform="translate(318.639375 280.314947) scale(0.12 -0.12)">
     <defs>
      <path id="DejaVuSans-Bold-34" d="M 2356 3675 
L 1038 1722 
L 2356 1722 
L 2356 3675 
z
M 2156 4666 
L 3494 4666 
L 3494 1722 
L 4159 1722 
L 4159 850 
L 3494 850 
L 3494 0 
L 2356 0 
L 2356 850 
L 288 850 
L 288 1881 
L 2156 4666 
z
" transform="scale(0.015625)"/>
      <path id="DejaVuSans-Bold-50" d="M 588 4666 
L 2584 4666 
Q 3475 4666 3951 4270 
Q 4428 3875 4428 3144 
Q 4428 2409 3951 2014 
Q 3475 1619 2584 1619 
L 1791 1619 
L 1791 0 
L 588 0 
L 588 4666 
z
M 1791 3794 
L 1791 2491 
L 2456 2491 
Q 2806 2491 2997 2661 
Q 3188 2831 3188 3144 
Q 3188 3456 2997 3625 
Q 2806 3794 2456 3794 
L 1791 3794 
z
" transform="scale(0.015625)"/>
      <path id="DejaVuSans-Bold-5a" d="M 359 4666 
L 4281 4666 
L 4281 3938 
L 1778 909 
L 4353 909 
L 4353 0 
L 288 0 
L 288 728 
L 2791 3756 
L 359 3756 
L 359 4666 
z
" transform="scale(0.015625)"/>
      <path id="DejaVuSans-Bold-28" d="M 2413 -844 
L 1484 -844 
Q 1006 -72 778 623 
Q 550 1319 550 2003 
Q 550 2688 779 3389 
Q 1009 4091 1484 4856 
L 2413 4856 
Q 2013 4116 1813 3408 
Q 1613 2700 1613 2009 
Q 1613 1319 1811 609 
Q 2009 -100 2413 -844 
z
" transform="scale(0.015625)"/>
      <path id="DejaVuSans-Bold-2f" d="M 1644 4666 
L 2338 4666 
L 691 -594 
L 0 -594 
L 1644 4666 
z
" transform="scale(0.015625)"/>
      <path id="DejaVuSans-Bold-29" d="M 513 -844 
Q 913 -100 1113 609 
Q 1313 1319 1313 2009 
Q 1313 2700 1113 3408 
Q 913 4116 513 4856 
L 1441 4856 
Q 1916 4091 2145 3389 
Q 2375 2688 2375 2003 
Q 2375 1319 2147 623 
Q 1919 -72 1441 -844 
L 513 -844 
z
" transform="scale(0.015625)"/>
     </defs>
     <use xlink:href="#DejaVuSans-Bold-34"/>
     <use xlink:href="#DejaVuSans-Bold-2e" transform="translate(69.580078 0)"/>
     <use xlink:href="#DejaVuSans-Bold-20" transform="translate(107.568359 0)"/>
     <use xlink:href="#DejaVuSans-Bold-4f" transform="translate(142.382812 0)"/>
     <use xlink:href="#DejaVuSans-Bold-50" transform="translate(227.392578 0)"/>
     <use xlink:href="#DejaVuSans-Bold-54" transform="translate(300.683594 0)"/>
     <use xlink:href="#DejaVuSans-Bold-49" transform="translate(368.896484 0)"/>
     <use xlink:href="#DejaVuSans-Bold-4d" transform="translate(406.103516 0)"/>
     <use xlink:href="#DejaVuSans-Bold-49" transform="translate(505.615234 0)"/>
     <use xlink:href="#DejaVuSans-Bold-5a" transform="translate(542.822266 0)"/>
     <use xlink:href="#DejaVuSans-Bold-45" transform="translate(615.332031 0)"/>
     <use xlink:href="#DejaVuSans-Bold-20" transform="translate(683.642578 0)"/>
     <use xlink:href="#DejaVuSans-Bold-28" transform="translate(718.457031 0)"/>
     <use xlink:href="#DejaVuSans-Bold-50" transform="translate(764.160156 0)"/>
     <use xlink:href="#DejaVuSans-Bold-50" transform="translate(837.451172 0)"/>
     <use xlink:href="#DejaVuSans-Bold-4f" transform="translate(910.742188 0)"/>
     <use xlink:href="#DejaVuSans-Bold-2f" transform="translate(995.751953 0)"/>
     <use xlink:href="#DejaVuSans-Bold-44" transform="translate(1032.275391 0)"/>
     <use xlink:href="#DejaVuSans-Bold-50" transform="translate(1115.283203 0)"/>
     <use xlink:href="#DejaVuSans-Bold-4f" transform="translate(1188.574219 0)"/>
     <use xlink:href="#DejaVuSans-Bold-29" transform="translate(1273.583984 0)"/>
    </g>
   </g>
   <g id="text_15">
    <!-- Maximize reward while -->
    <g style="fill: #ffffff" transform="translate(340.507812 306.576) scale(0.1 -0.1)">
     <defs>
      <path id="DejaVuSans-78" d="M 3513 3500 
L 2247 1797 
L 3578 0 
L 2900 0 
L 1881 1375 
L 863 0 
L 184 0 
L 1544 1831 
L 300 3500 
L 978 3500 
L 1906 2253 
L 2834 3500 
L 3513 3500 
z
" transform="scale(0.015625)"/>
      <path id="DejaVuSans-7a" d="M 353 3500 
L 3084 3500 
L 3084 2975 
L 922 459 
L 3084 459 
L 3084 0 
L 275 0 
L 275 525 
L 2438 3041 
L 353 3041 
L 353 3500 
z
" transform="scale(0.015625)"/>
      <path id="DejaVuSans-77" d="M 269 3500 
L 844 3500 
L 1563 769 
L 2278 3500 
L 2956 3500 
L 3675 769 
L 4391 3500 
L 4966 3500 
L 4050 0 
L 3372 0 
L 2619 2869 
L 1863 0 
L 1184 0 
L 269 3500 
z
" transform="scale(0.015625)"/>
      <path id="DejaVuSans-68" d="M 3513 2113 
L 3513 0 
L 2938 0 
L 2938 2094 
Q 2938 2591 2744 2837 
Q 2550 3084 2163 3084 
Q 1697 3084 1428 2787 
Q 1159 2491 1159 1978 
L 1159 0 
L 581 0 
L 581 4863 
L 1159 4863 
L 1159 2956 
Q 1366 3272 1645 3428 
Q 1925 3584 2291 3584 
Q 2894 3584 3203 3211 
Q 3513 2838 3513 2113 
z
" transform="scale(0.015625)"/>
     </defs>
     <use xlink:href="#DejaVuSans-4d"/>
     <use xlink:href="#DejaVuSans-61" transform="translate(86.279297 0)"/>
     <use xlink:href="#DejaVuSans-78" transform="translate(147.558594 0)"/>
     <use xlink:href="#DejaVuSans-69" transform="translate(206.738281 0)"/>
     <use xlink:href="#DejaVuSans-6d" transform="translate(234.521484 0)"/>
     <use xlink:href="#DejaVuSans-69" transform="translate(331.933594 0)"/>
     <use xlink:href="#DejaVuSans-7a" transform="translate(359.716797 0)"/>
     <use xlink:href="#DejaVuSans-65" transform="translate(412.207031 0)"/>
     <use xlink:href="#DejaVuSans-20" transform="translate(473.730469 0)"/>
     <use xlink:href="#DejaVuSans-72" transform="translate(505.517578 0)"/>
     <use xlink:href="#DejaVuSans-65" transform="translate(544.380859 0)"/>
     <use xlink:href="#DejaVuSans-77" transform="translate(605.904297 0)"/>
     <use xlink:href="#DejaVuSans-61" transform="translate(687.691406 0)"/>
     <use xlink:href="#DejaVuSans-72" transform="translate(748.970703 0)"/>
     <use xlink:href="#DejaVuSans-64" transform="translate(788.333984 0)"/>
     <use xlink:href="#DejaVuSans-20" transform="translate(851.810547 0)"/>
     <use xlink:href="#DejaVuSans-77" transform="translate(883.597656 0)"/>
     <use xlink:href="#DejaVuSans-68" transform="translate(965.384766 0)"/>
     <use xlink:href="#DejaVuSans-69" transform="translate(1028.763672 0)"/>
     <use xlink:href="#DejaVuSans-6c" transform="translate(1056.546875 0)"/>
     <use xlink:href="#DejaVuSans-65" transform="translate(1084.330078 0)"/>
    </g>
   </g>
   <g id="text_16">
    <!-- staying close to base model -->
    <g style="fill: #ffffff" transform="translate(327.735937 327.584842) scale(0.1 -0.1)">
     <defs>
      <path id="DejaVuSans-79" d="M 2059 -325 
Q 1816 -950 1584 -1140 
Q 1353 -1331 966 -1331 
L 506 -1331 
L 506 -850 
L 844 -850 
Q 1081 -850 1212 -737 
Q 1344 -625 1503 -206 
L 1606 56 
L 191 3500 
L 800 3500 
L 1894 763 
L 2988 3500 
L 3597 3500 
L 2059 -325 
z
" transform="scale(0.015625)"/>
      <path id="DejaVuSans-62" d="M 3116 1747 
Q 3116 2381 2855 2742 
Q 2594 3103 2138 3103 
Q 1681 3103 1420 2742 
Q 1159 2381 1159 1747 
Q 1159 1113 1420 752 
Q 1681 391 2138 391 
Q 2594 391 2855 752 
Q 3116 1113 3116 1747 
z
M 1159 2969 
Q 1341 3281 1617 3432 
Q 1894 3584 2278 3584 
Q 2916 3584 3314 3078 
Q 3713 2572 3713 1747 
Q 3713 922 3314 415 
Q 2916 -91 2278 -91 
Q 1894 -91 1617 61 
Q 1341 213 1159 525 
L 1159 0 
L 581 0 
L 581 4863 
L 1159 4863 
L 1159 2969 
z
" transform="scale(0.015625)"/>
     </defs>
     <use xlink:href="#DejaVuSans-73"/>
     <use xlink:href="#DejaVuSans-74" transform="translate(52.099609 0)"/>
     <use xlink:href="#DejaVuSans-61" transform="translate(91.308594 0)"/>
     <use xlink:href="#DejaVuSans-79" transform="translate(152.587891 0)"/>
     <use xlink:href="#DejaVuSans-69" transform="translate(211.767578 0)"/>
     <use xlink:href="#DejaVuSans-6e" transform="translate(239.550781 0)"/>
     <use xlink:href="#DejaVuSans-67" transform="translate(302.929688 0)"/>
     <use xlink:href="#DejaVuSans-20" transform="translate(366.40625 0)"/>
     <use xlink:href="#DejaVuSans-63" transform="translate(398.193359 0)"/>
     <use xlink:href="#DejaVuSans-6c" transform="translate(453.173828 0)"/>
     <use xlink:href="#DejaVuSans-6f" transform="translate(480.957031 0)"/>
     <use xlink:href="#DejaVuSans-73" transform="translate(542.138672 0)"/>
     <use xlink:href="#DejaVuSans-65" transform="translate(594.238281 0)"/>
     <use xlink:href="#DejaVuSans-20" transform="translate(655.761719 0)"/>
     <use xlink:href="#DejaVuSans-74" transform="translate(687.548828 0)"/>
     <use xlink:href="#DejaVuSans-6f" transform="translate(726.757812 0)"/>
     <use xlink:href="#DejaVuSans-20" transform="translate(787.939453 0)"/>
     <use xlink:href="#DejaVuSans-62" transform="translate(819.726562 0)"/>
     <use xlink:href="#DejaVuSans-61" transform="translate(883.203125 0)"/>
     <use xlink:href="#DejaVuSans-73" transform="translate(944.482422 0)"/>
     <use xlink:href="#DejaVuSans-65" transform="translate(996.582031 0)"/>
     <use xlink:href="#DejaVuSans-20" transform="translate(1058.105469 0)"/>
     <use xlink:href="#DejaVuSans-6d" transform="translate(1089.892578 0)"/>
     <use xlink:href="#DejaVuSans-6f" transform="translate(1187.304688 0)"/>
     <use xlink:href="#DejaVuSans-64" transform="translate(1248.486328 0)"/>
     <use xlink:href="#DejaVuSans-65" transform="translate(1311.962891 0)"/>
     <use xlink:href="#DejaVuSans-6c" transform="translate(1373.486328 0)"/>
    </g>
   </g>
   <g id="text_17">
    <!-- AI ASSISTANT -->
    <g style="fill: #ffffff" transform="translate(344.228125 427.376842) scale(0.14 -0.14)">
     <use xlink:href="#DejaVuSans-Bold-41"/>
     <use xlink:href="#DejaVuSans-Bold-49" transform="translate(77.392578 0)"/>
     <use xlink:href="#DejaVuSans-Bold-20" transform="translate(114.599609 0)"/>
     <use xlink:href="#DejaVuSans-Bold-41" transform="translate(149.414062 0)"/>
     <use xlink:href="#DejaVuSans-Bold-53" transform="translate(226.806641 0)"/>
     <use xlink:href="#DejaVuSans-Bold-53" transform="translate(294.328125 0)"/>
     <use xlink:href="#DejaVuSans-Bold-49" transform="translate(366.349609 0)"/>
     <use xlink:href="#DejaVuSans-Bold-53" transform="translate(403.556641 0)"/>
     <use xlink:href="#DejaVuSans-Bold-54" transform="translate(475.578125 0)"/>
     <use xlink:href="#DejaVuSans-Bold-41" transform="translate(536.041016 0)"/>
     <use xlink:href="#DejaVuSans-Bold-4e" transform="translate(613.433594 0)"/>
     <use xlink:href="#DejaVuSans-Bold-54" transform="translate(697.125 0)"/>
    </g>
   </g>
   <g id="text_18">
    <!-- Helpful, harmless, honest -->
    <g style="fill: #ffffff" transform="translate(327.555547 458.890105) scale(0.11 -0.11)">
     <defs>
      <path id="DejaVuSans-66" d="M 2375 4863 
L 2375 4384 
L 1825 4384 
Q 1516 4384 1395 4259 
Q 1275 4134 1275 3809 
L 1275 3500 
L 2222 3500 
L 2222 3053 
L 1275 3053 
L 1275 0 
L 697 0 
L 697 3053 
L 147 3053 
L 147 3500 
L 697 3500 
L 697 3744 
Q 697 4328 969 4595 
Q 1241 4863 1831 4863 
L 2375 4863 
z
" transform="scale(0.015625)"/>
      <path id="DejaVuSans-2c" d="M 750 794 
L 1409 794 
L 1409 256 
L 897 -744 
L 494 -744 
L 750 256 
L 750 794 
z
" transform="scale(0.015625)"/>
     </defs>
     <use xlink:href="#DejaVuSans-48"/>
     <use xlink:href="#DejaVuSans-65" transform="translate(75.195312 0)"/>
     <use xlink:href="#DejaVuSans-6c" transform="translate(136.71875 0)"/>
     <use xlink:href="#DejaVuSans-70" transform="translate(164.501953 0)"/>
     <use xlink:href="#DejaVuSans-66" transform="translate(227.978516 0)"/>
     <use xlink:href="#DejaVuSans-75" transform="translate(263.183594 0)"/>
     <use xlink:href="#DejaVuSans-6c" transform="translate(326.5625 0)"/>
     <use xlink:href="#DejaVuSans-2c" transform="translate(354.345703 0)"/>
     <use xlink:href="#DejaVuSans-20" transform="translate(386.132812 0)"/>
     <use xlink:href="#DejaVuSans-68" transform="translate(417.919922 0)"/>
     <use xlink:href="#DejaVuSans-61" transform="translate(481.298828 0)"/>
     <use xlink:href="#DejaVuSans-72" transform="translate(542.578125 0)"/>
     <use xlink:href="#DejaVuSans-6d" transform="translate(581.941406 0)"/>
     <use xlink:href="#DejaVuSans-6c" transform="translate(679.353516 0)"/>
     <use xlink:href="#DejaVuSans-65" transform="translate(707.136719 0)"/>
     <use xlink:href="#DejaVuSans-73" transform="translate(768.660156 0)"/>
     <use xlink:href="#DejaVuSans-73" transform="translate(820.759766 0)"/>
     <use xlink:href="#DejaVuSans-2c" transform="translate(872.859375 0)"/>
     <use xlink:href="#DejaVuSans-20" transform="translate(904.646484 0)"/>
     <use xlink:href="#DejaVuSans-68" transform="translate(936.433594 0)"/>
     <use xlink:href="#DejaVuSans-6f" transform="translate(999.8125 0)"/>
     <use xlink:href="#DejaVuSans-6e" transform="translate(1060.994141 0)"/>
     <use xlink:href="#DejaVuSans-65" transform="translate(1124.373047 0)"/>
     <use xlink:href="#DejaVuSans-73" transform="translate(1185.896484 0)"/>
     <use xlink:href="#DejaVuSans-74" transform="translate(1237.996094 0)"/>
    </g>
   </g>
   <g id="patch_8">
    <path d="M 312.680724 82.140422 
Q 242.755993 150.969585 151.296818 124.107942 
" style="fill: none; stroke: #1e3a5f; stroke-width: 2.5; stroke-linecap: round"/>
    <path d="M 154.571116 127.154082 
L 151.296818 124.107942 
L 155.698309 123.316188 
" style="fill: none; stroke: #1e3a5f; stroke-width: 2.5; stroke-linecap: round"/>
   </g>
   <g id="patch_9">
    <path d="M 438.54483 82.395344 
Q 425.701007 101.738273 414.403326 118.752695 
" style="fill: none; stroke: #1e3a5f; stroke-width: 2.5; stroke-linecap: round"/>
    <path d="M 418.282129 116.526737 
L 414.403326 118.752695 
L 414.949842 114.314078 
" style="fill: none; stroke: #1e3a5f; stroke-width: 2.5; stroke-linecap: round"/>
   </g>
   <g id="patch_10">
    <path d="M 260.299182 170.018526 
Q 286.199692 170.018526 309.305117 170.018526 
" style="fill: none; stroke: #1e3a5f; stroke-width: 2.5; stroke-linecap: round"/>
    <path d="M 305.305117 168.018526 
L 309.305117 170.018526 
L 305.305117 172.018526 
" style="fill: none; stroke: #1e3a5f; stroke-width: 2.5; stroke-linecap: round"/>
   </g>
   <g id="patch_11">
    <path d="M 511.399182 170.018526 
Q 523.348906 170.018526 532.503546 170.018526 
" style="fill: none; stroke: #1e3a5f; stroke-width: 2.5; stroke-linecap: round"/>
    <path d="M 528.503546 168.018526 
L 532.503546 170.018526 
L 528.503546 172.018526 
" style="fill: none; stroke: #1e3a5f; stroke-width: 2.5; stroke-linecap: round"/>
   </g>
   <g id="patch_12">
    <path d="M 646.897346 217.301326 
Q 554.464918 218.331841 511.679707 297.106795 
" style="fill: none; stroke: #1e3a5f; stroke-width: 2.5; stroke-linecap: round"/>
    <path d="M 515.346326 294.546343 
L 511.679707 297.106795 
L 511.831317 292.637229 
" style="fill: none; stroke: #1e3a5f; stroke-width: 2.5; stroke-linecap: round"/>
   </g>
   <g id="patch_13">
    <path d="M 397.8 350.590832 
Q 397.8 374.852618 397.8 395.760302 
" style="fill: none; stroke: #1e3a5f; stroke-width: 3; stroke-linecap: round"/>
    <path d="M 399.8 391.760302 
L 397.8 395.760302 
L 395.8 391.760302 
" style="fill: none; stroke: #1e3a5f; stroke-width: 3; stroke-linecap: round"/>
   </g>
  </g>
 </g>
 <defs>
  <clipPath id="p48c0f2dd9c">
   <rect x="7.2" y="7.2" width="781.2" height="498.96"/>
  </clipPath>
 </defs>
</svg>
