<?xml version="1.0" encoding="utf-8" standalone="no"?>
<!DOCTYPE svg PUBLIC "-//W3C//DTD SVG 1.1//EN"
  "http://www.w3.org/Graphics/SVG/1.1/DTD/svg11.dtd">
<svg xmlns:xlink="http://www.w3.org/1999/xlink" width="795.6pt" height="457.92pt" viewBox="0 0 795.6 457.92" xmlns="http://www.w3.org/2000/svg" version="1.1">
 <metadata>
  <rdf:RDF xmlns:dc="http://purl.org/dc/elements/1.1/" xmlns:cc="http://creativecommons.org/ns#" xmlns:rdf="http://www.w3.org/1999/02/22-rdf-syntax-ns#">
   <cc:Work>
    <dc:type rdf:resource="http://purl.org/dc/dcmitype/StillImage"/>
    <dc:date>2026-01-06T11:45:15.728846</dc:date>
    <dc:format>image/svg+xml</dc:format>
    <dc:creator>
     <cc:Agent>
      <dc:title>Matplotlib v3.10.8, https://matplotlib.org/</dc:title>
     </cc:Agent>
    </dc:creator>
   </cc:Work>
  </rdf:RDF>
 </metadata>
 <defs>
  <style type="text/css">*{stroke-linejoin: round; stroke-linecap: butt}</style>
 </defs>
 <g id="figure_1">
  <g id="patch_1">
   <path d="M 0 457.92 
L 795.6 457.92 
L 795.6 0 
L 0 0 
z
" style="fill: #ffffff"/>
  </g>
  <g id="axes_1">
   <g id="patch_2">
    <path d="M 35.1 171.563294 
L 258.3 171.563294 
Q 266.67 171.563294 266.67 163.736471 
L 266.67 59.378824 
Q 266.67 51.552 258.3 51.552 
L 35.1 51.552 
Q 26.73 51.552 26.73 59.378824 
L 26.73 163.736471 
Q 26.73 171.563294 35.1 171.563294 
z
" clip-path="url(#pa8b02932bd)" style="fill: #3b82f6; opacity: 0.3; stroke: #1e3a5f; stroke-width: 2.5; stroke-linejoin: miter"/>
   </g>
   <g id="patch_3">
    <path d="M 342 171.563294 
L 565.2 171.563294 
Q 573.57 171.563294 573.57 163.736471 
L 573.57 59.378824 
Q 573.57 51.552 565.2 51.552 
L 342 51.552 
Q 333.63 51.552 333.63 59.378824 
L 333.63 163.736471 
Q 333.63 171.563294 342 171.563294 
z
" clip-path="url(#pa8b02932bd)" style="fill: #2a9d8f; opacity: 0.3; stroke: #1e3a5f; stroke-width: 2.5; stroke-linejoin: miter"/>
   </g>
   <g id="patch_4">
    <path d="M 146.7 328.099765 
L 593.1 328.099765 
Q 601.47 328.099765 601.47 320.272941 
L 601.47 215.915294 
Q 601.47 208.088471 593.1 208.088471 
L 146.7 208.088471 
Q 138.33 208.088471 138.33 215.915294 
L 138.33 320.272941 
Q 138.33 328.099765 146.7 328.099765 
z
" clip-path="url(#pa8b02932bd)" style="fill: #e9c46a; opacity: 0.4; stroke: #1e3a5f; stroke-width: 3; stroke-linejoin: miter"/>
   </g>
   <g id="patch_5">
    <path d="M 146.7 442.893176 
L 593.1 442.893176 
Q 601.47 442.893176 601.47 435.066353 
L 601.47 356.798118 
Q 601.47 348.971294 593.1 348.971294 
L 146.7 348.971294 
Q 138.33 348.971294 138.33 356.798118 
L 138.33 435.066353 
Q 138.33 442.893176 146.7 442.893176 
z
" clip-path="url(#pa8b02932bd)" style="fill: #2a9d8f; opacity: 0.4; stroke: #1e3a5f; stroke-width: 3; stroke-linejoin: miter"/>
   </g>
   <g id="text_1">
    <!-- Supervised Fine-Tuning (SFT) Pipeline -->
    <g style="fill: #1e3a5f" transform="translate(205.716094 43.725176) scale(0.18 -0.18)">
     <defs>
      <path id="DejaVuSans-Bold-53" d="M 3834 4519 
L 3834 3531 
Q 3450 3703 3084 3790 
Q 2719 3878 2394 3878 
Q 1963 3878 1756 3759 
Q 1550 3641 1550 3391 
Q 1550 3203 1689 3098 
Q 1828 2994 2194 2919 
L 2706 2816 
Q 3484 2659 3812 2340 
Q 4141 2022 4141 1434 
Q 4141 663 3683 286 
Q 3225 -91 2284 -91 
Q 1841 -91 1394 -6 
Q 947 78 500 244 
L 500 1259 
Q 947 1022 1364 901 
Q 1781 781 2169 781 
Q 2563 781 2772 912 
Q 2981 1044 2981 1288 
Q 2981 1506 2839 1625 
Q 2697 1744 2272 1838 
L 1806 1941 
Q 1106 2091 782 2419 
Q 459 2747 459 3303 
Q 459 4000 909 4375 
Q 1359 4750 2203 4750 
Q 2588 4750 2994 4692 
Q 3400 4634 3834 4519 
z
" transform="scale(0.015625)"/>
      <path id="DejaVuSans-Bold-75" d="M 500 1363 
L 500 3500 
L 1625 3500 
L 1625 3150 
Q 1625 2866 1622 2436 
Q 1619 2006 1619 1863 
Q 1619 1441 1641 1255 
Q 1663 1069 1716 984 
Q 1784 875 1895 815 
Q 2006 756 2150 756 
Q 2500 756 2700 1025 
Q 2900 1294 2900 1772 
L 2900 3500 
L 4019 3500 
L 4019 0 
L 2900 0 
L 2900 506 
Q 2647 200 2364 54 
Q 2081 -91 1741 -91 
Q 1134 -91 817 281 
Q 500 653 500 1363 
z
" transform="scale(0.015625)"/>
      <path id="DejaVuSans-Bold-70" d="M 1656 506 
L 1656 -1331 
L 538 -1331 
L 538 3500 
L 1656 3500 
L 1656 2988 
Q 1888 3294 2169 3439 
Q 2450 3584 2816 3584 
Q 3463 3584 3878 3070 
Q 4294 2556 4294 1747 
Q 4294 938 3878 423 
Q 3463 -91 2816 -91 
Q 2450 -91 2169 54 
Q 1888 200 1656 506 
z
M 2400 2772 
Q 2041 2772 1848 2508 
Q 1656 2244 1656 1747 
Q 1656 1250 1848 986 
Q 2041 722 2400 722 
Q 2759 722 2948 984 
Q 3138 1247 3138 1747 
Q 3138 2247 2948 2509 
Q 2759 2772 2400 2772 
z
" transform="scale(0.015625)"/>
      <path id="DejaVuSans-Bold-65" d="M 4031 1759 
L 4031 1441 
L 1416 1441 
Q 1456 1047 1700 850 
Q 1944 653 2381 653 
Q 2734 653 3104 758 
Q 3475 863 3866 1075 
L 3866 213 
Q 3469 63 3072 -14 
Q 2675 -91 2278 -91 
Q 1328 -91 801 392 
Q 275 875 275 1747 
Q 275 2603 792 3093 
Q 1309 3584 2216 3584 
Q 3041 3584 3536 3087 
Q 4031 2591 4031 1759 
z
M 2881 2131 
Q 2881 2450 2695 2645 
Q 2509 2841 2209 2841 
Q 1884 2841 1681 2658 
Q 1478 2475 1428 2131 
L 2881 2131 
z
" transform="scale(0.015625)"/>
      <path id="DejaVuSans-Bold-72" d="M 3138 2547 
Q 2991 2616 2845 2648 
Q 2700 2681 2553 2681 
Q 2122 2681 1889 2404 
Q 1656 2128 1656 1613 
L 1656 0 
L 538 0 
L 538 3500 
L 1656 3500 
L 1656 2925 
Q 1872 3269 2151 3426 
Q 2431 3584 2822 3584 
Q 2878 3584 2943 3579 
Q 3009 3575 3134 3559 
L 3138 2547 
z
" transform="scale(0.015625)"/>
      <path id="DejaVuSans-Bold-76" d="M 97 3500 
L 1216 3500 
L 2088 1081 
L 2956 3500 
L 4078 3500 
L 2700 0 
L 1472 0 
L 97 3500 
z
" transform="scale(0.015625)"/>
      <path id="DejaVuSans-Bold-69" d="M 538 3500 
L 1656 3500 
L 1656 0 
L 538 0 
L 538 3500 
z
M 538 4863 
L 1656 4863 
L 1656 3950 
L 538 3950 
L 538 4863 
z
" transform="scale(0.015625)"/>
      <path id="DejaVuSans-Bold-73" d="M 3272 3391 
L 3272 2541 
Q 2913 2691 2578 2766 
Q 2244 2841 1947 2841 
Q 1628 2841 1473 2761 
Q 1319 2681 1319 2516 
Q 1319 2381 1436 2309 
Q 1553 2238 1856 2203 
L 2053 2175 
Q 2913 2066 3209 1816 
Q 3506 1566 3506 1031 
Q 3506 472 3093 190 
Q 2681 -91 1863 -91 
Q 1516 -91 1145 -36 
Q 775 19 384 128 
L 384 978 
Q 719 816 1070 734 
Q 1422 653 1784 653 
Q 2113 653 2278 743 
Q 2444 834 2444 1013 
Q 2444 1163 2330 1236 
Q 2216 1309 1875 1350 
L 1678 1375 
Q 931 1469 631 1722 
Q 331 1975 331 2491 
Q 331 3047 712 3315 
Q 1094 3584 1881 3584 
Q 2191 3584 2531 3537 
Q 2872 3491 3272 3391 
z
" transform="scale(0.015625)"/>
      <path id="DejaVuSans-Bold-64" d="M 2919 2988 
L 2919 4863 
L 4044 4863 
L 4044 0 
L 2919 0 
L 2919 506 
Q 2688 197 2409 53 
Q 2131 -91 1766 -91 
Q 1119 -91 703 423 
Q 288 938 288 1747 
Q 288 2556 703 3070 
Q 1119 3584 1766 3584 
Q 2128 3584 2408 3439 
Q 2688 3294 2919 2988 
z
M 2181 722 
Q 2541 722 2730 984 
Q 2919 1247 2919 1747 
Q 2919 2247 2730 2509 
Q 2541 2772 2181 2772 
Q 1825 2772 1636 2509 
Q 1447 2247 1447 1747 
Q 1447 1247 1636 984 
Q 1825 722 2181 722 
z
" transform="scale(0.015625)"/>
      <path id="DejaVuSans-Bold-20" transform="scale(0.015625)"/>
      <path id="DejaVuSans-Bold-46" d="M 588 4666 
L 3834 4666 
L 3834 3756 
L 1791 3756 
L 1791 2888 
L 3713 2888 
L 3713 1978 
L 1791 1978 
L 1791 0 
L 588 0 
L 588 4666 
z
" transform="scale(0.015625)"/>
      <path id="DejaVuSans-Bold-6e" d="M 4056 2131 
L 4056 0 
L 2931 0 
L 2931 347 
L 2931 1631 
Q 2931 2084 2911 2256 
Q 2891 2428 2841 2509 
Q 2775 2619 2662 2680 
Q 2550 2741 2406 2741 
Q 2056 2741 1856 2470 
Q 1656 2200 1656 1722 
L 1656 0 
L 538 0 
L 538 3500 
L 1656 3500 
L 1656 2988 
Q 1909 3294 2193 3439 
Q 2478 3584 2822 3584 
Q 3428 3584 3742 3212 
Q 4056 2841 4056 2131 
z
" transform="scale(0.015625)"/>
      <path id="DejaVuSans-Bold-2d" d="M 347 2297 
L 2309 2297 
L 2309 1388 
L 347 1388 
L 347 2297 
z
" transform="scale(0.015625)"/>
      <path id="DejaVuSans-Bold-54" d="M 31 4666 
L 4331 4666 
L 4331 3756 
L 2784 3756 
L 2784 0 
L 1581 0 
L 1581 3756 
L 31 3756 
L 31 4666 
z
" transform="scale(0.015625)"/>
      <path id="DejaVuSans-Bold-67" d="M 2919 594 
Q 2688 288 2409 144 
Q 2131 0 1766 0 
Q 1125 0 706 504 
Q 288 1009 288 1791 
Q 288 2575 706 3076 
Q 1125 3578 1766 3578 
Q 2131 3578 2409 3434 
Q 2688 3291 2919 2981 
L 2919 3500 
L 4044 3500 
L 4044 353 
Q 4044 -491 3511 -936 
Q 2978 -1381 1966 -1381 
Q 1638 -1381 1331 -1331 
Q 1025 -1281 716 -1178 
L 716 -306 
Q 1009 -475 1290 -558 
Q 1572 -641 1856 -641 
Q 2406 -641 2662 -400 
Q 2919 -159 2919 353 
L 2919 594 
z
M 2181 2772 
Q 1834 2772 1640 2515 
Q 1447 2259 1447 1791 
Q 1447 1309 1634 1061 
Q 1822 813 2181 813 
Q 2531 813 2725 1069 
Q 2919 1325 2919 1791 
Q 2919 2259 2725 2515 
Q 2531 2772 2181 2772 
z
" transform="scale(0.015625)"/>
      <path id="DejaVuSans-Bold-28" d="M 2413 -844 
L 1484 -844 
Q 1006 -72 778 623 
Q 550 1319 550 2003 
Q 550 2688 779 3389 
Q 1009 4091 1484 4856 
L 2413 4856 
Q 2013 4116 1813 3408 
Q 1613 2700 1613 2009 
Q 1613 1319 1811 609 
Q 2009 -100 2413 -844 
z
" transform="scale(0.015625)"/>
      <path id="DejaVuSans-Bold-29" d="M 513 -844 
Q 913 -100 1113 609 
Q 1313 1319 1313 2009 
Q 1313 2700 1113 3408 
Q 913 4116 513 4856 
L 1441 4856 
Q 1916 4091 2145 3389 
Q 2375 2688 2375 2003 
Q 2375 1319 2147 623 
Q 1919 -72 1441 -844 
L 513 -844 
z
" transform="scale(0.015625)"/>
      <path id="DejaVuSans-Bold-50" d="M 588 4666 
L 2584 4666 
Q 3475 4666 3951 4270 
Q 4428 3875 4428 3144 
Q 4428 2409 3951 2014 
Q 3475 1619 2584 1619 
L 1791 1619 
L 1791 0 
L 588 0 
L 588 4666 
z
M 1791 3794 
L 1791 2491 
L 2456 2491 
Q 2806 2491 2997 2661 
Q 3188 2831 3188 3144 
Q 3188 3456 2997 3625 
Q 2806 3794 2456 3794 
L 1791 3794 
z
" transform="scale(0.015625)"/>
      <path id="DejaVuSans-Bold-6c" d="M 538 4863 
L 1656 4863 
L 1656 0 
L 538 0 
L 538 4863 
z
" transform="scale(0.015625)"/>
     </defs>
     <use xlink:href="#DejaVuSans-Bold-53"/>
     <use xlink:href="#DejaVuSans-Bold-75" transform="translate(72.021484 0)"/>
     <use xlink:href="#DejaVuSans-Bold-70" transform="translate(143.212891 0)"/>
     <use xlink:href="#DejaVuSans-Bold-65" transform="translate(214.794922 0)"/>
     <use xlink:href="#DejaVuSans-Bold-72" transform="translate(282.617188 0)"/>
     <use xlink:href="#DejaVuSans-Bold-76" transform="translate(331.933594 0)"/>
     <use xlink:href="#DejaVuSans-Bold-69" transform="translate(397.119141 0)"/>
     <use xlink:href="#DejaVuSans-Bold-73" transform="translate(431.396484 0)"/>
     <use xlink:href="#DejaVuSans-Bold-65" transform="translate(490.917969 0)"/>
     <use xlink:href="#DejaVuSans-Bold-64" transform="translate(558.740234 0)"/>
     <use xlink:href="#DejaVuSans-Bold-20" transform="translate(630.322266 0)"/>
     <use xlink:href="#DejaVuSans-Bold-46" transform="translate(665.136719 0)"/>
     <use xlink:href="#DejaVuSans-Bold-69" transform="translate(733.447266 0)"/>
     <use xlink:href="#DejaVuSans-Bold-6e" transform="translate(767.724609 0)"/>
     <use xlink:href="#DejaVuSans-Bold-65" transform="translate(838.916016 0)"/>
     <use xlink:href="#DejaVuSans-Bold-2d" transform="translate(906.738281 0)"/>
     <use xlink:href="#DejaVuSans-Bold-54" transform="translate(933.492188 0)"/>
     <use xlink:href="#DejaVuSans-Bold-75" transform="translate(990.705078 0)"/>
     <use xlink:href="#DejaVuSans-Bold-6e" transform="translate(1061.896484 0)"/>
     <use xlink:href="#DejaVuSans-Bold-69" transform="translate(1133.087891 0)"/>
     <use xlink:href="#DejaVuSans-Bold-6e" transform="translate(1167.365234 0)"/>
     <use xlink:href="#DejaVuSans-Bold-67" transform="translate(1238.556641 0)"/>
     <use xlink:href="#DejaVuSans-Bold-20" transform="translate(1310.138672 0)"/>
     <use xlink:href="#DejaVuSans-Bold-28" transform="translate(1344.953125 0)"/>
     <use xlink:href="#DejaVuSans-Bold-53" transform="translate(1390.65625 0)"/>
     <use xlink:href="#DejaVuSans-Bold-46" transform="translate(1462.677734 0)"/>
     <use xlink:href="#DejaVuSans-Bold-54" transform="translate(1530.988281 0)"/>
     <use xlink:href="#DejaVuSans-Bold-29" transform="translate(1599.201172 0)"/>
     <use xlink:href="#DejaVuSans-Bold-20" transform="translate(1644.904297 0)"/>
     <use xlink:href="#DejaVuSans-Bold-50" transform="translate(1679.71875 0)"/>
     <use xlink:href="#DejaVuSans-Bold-69" transform="translate(1753.009766 0)"/>
     <use xlink:href="#DejaVuSans-Bold-70" transform="translate(1787.287109 0)"/>
     <use xlink:href="#DejaVuSans-Bold-65" transform="translate(1858.869141 0)"/>
     <use xlink:href="#DejaVuSans-Bold-6c" transform="translate(1926.691406 0)"/>
     <use xlink:href="#DejaVuSans-Bold-69" transform="translate(1960.96875 0)"/>
     <use xlink:href="#DejaVuSans-Bold-6e" transform="translate(1995.246094 0)"/>
     <use xlink:href="#DejaVuSans-Bold-65" transform="translate(2066.4375 0)"/>
    </g>
   </g>
   <g id="text_2">
    <!-- BASE MODEL -->
    <g style="fill: #1e3a5f" transform="translate(99.358672 95.904) scale(0.13 -0.13)">
     <defs>
      <path id="DejaVuSans-Bold-42" d="M 2456 2859 
Q 2741 2859 2887 2984 
Q 3034 3109 3034 3353 
Q 3034 3594 2887 3720 
Q 2741 3847 2456 3847 
L 1791 3847 
L 1791 2859 
L 2456 2859 
z
M 2497 819 
Q 2859 819 3042 972 
Q 3225 1125 3225 1434 
Q 3225 1738 3044 1889 
Q 2863 2041 2497 2041 
L 1791 2041 
L 1791 819 
L 2497 819 
z
M 3616 2497 
Q 4003 2384 4215 2081 
Q 4428 1778 4428 1338 
Q 4428 663 3972 331 
Q 3516 0 2584 0 
L 588 0 
L 588 4666 
L 2394 4666 
Q 3366 4666 3802 4372 
Q 4238 4078 4238 3431 
Q 4238 3091 4078 2852 
Q 3919 2613 3616 2497 
z
" transform="scale(0.015625)"/>
      <path id="DejaVuSans-Bold-41" d="M 3419 850 
L 1538 850 
L 1241 0 
L 31 0 
L 1759 4666 
L 3194 4666 
L 4922 0 
L 3713 0 
L 3419 850 
z
M 1838 1716 
L 3116 1716 
L 2478 3572 
L 1838 1716 
z
" transform="scale(0.015625)"/>
      <path id="DejaVuSans-Bold-45" d="M 588 4666 
L 3834 4666 
L 3834 3756 
L 1791 3756 
L 1791 2888 
L 3713 2888 
L 3713 1978 
L 1791 1978 
L 1791 909 
L 3903 909 
L 3903 0 
L 588 0 
L 588 4666 
z
" transform="scale(0.015625)"/>
      <path id="DejaVuSans-Bold-4d" d="M 588 4666 
L 2119 4666 
L 3181 2169 
L 4250 4666 
L 5778 4666 
L 5778 0 
L 4641 0 
L 4641 3413 
L 3566 897 
L 2803 897 
L 1728 3413 
L 1728 0 
L 588 0 
L 588 4666 
z
" transform="scale(0.015625)"/>
      <path id="DejaVuSans-Bold-4f" d="M 2719 3878 
Q 2169 3878 1866 3472 
Q 1563 3066 1563 2328 
Q 1563 1594 1866 1187 
Q 2169 781 2719 781 
Q 3272 781 3575 1187 
Q 3878 1594 3878 2328 
Q 3878 3066 3575 3472 
Q 3272 3878 2719 3878 
z
M 2719 4750 
Q 3844 4750 4481 4106 
Q 5119 3463 5119 2328 
Q 5119 1197 4481 553 
Q 3844 -91 2719 -91 
Q 1597 -91 958 553 
Q 319 1197 319 2328 
Q 319 3463 958 4106 
Q 1597 4750 2719 4750 
z
" transform="scale(0.015625)"/>
      <path id="DejaVuSans-Bold-44" d="M 1791 3756 
L 1791 909 
L 2222 909 
Q 2959 909 3348 1275 
Q 3738 1641 3738 2338 
Q 3738 3031 3350 3393 
Q 2963 3756 2222 3756 
L 1791 3756 
z
M 588 4666 
L 1856 4666 
Q 2919 4666 3439 4514 
Q 3959 4363 4331 4000 
Q 4659 3684 4818 3271 
Q 4978 2859 4978 2338 
Q 4978 1809 4818 1395 
Q 4659 981 4331 666 
Q 3956 303 3431 151 
Q 2906 0 1856 0 
L 588 0 
L 588 4666 
z
" transform="scale(0.015625)"/>
      <path id="DejaVuSans-Bold-4c" d="M 588 4666 
L 1791 4666 
L 1791 909 
L 3903 909 
L 3903 0 
L 588 0 
L 588 4666 
z
" transform="scale(0.015625)"/>
     </defs>
     <use xlink:href="#DejaVuSans-Bold-42"/>
     <use xlink:href="#DejaVuSans-Bold-41" transform="translate(76.220703 0)"/>
     <use xlink:href="#DejaVuSans-Bold-53" transform="translate(153.613281 0)"/>
     <use xlink:href="#DejaVuSans-Bold-45" transform="translate(225.634766 0)"/>
     <use xlink:href="#DejaVuSans-Bold-20" transform="translate(293.945312 0)"/>
     <use xlink:href="#DejaVuSans-Bold-4d" transform="translate(328.759766 0)"/>
     <use xlink:href="#DejaVuSans-Bold-4f" transform="translate(428.271484 0)"/>
     <use xlink:href="#DejaVuSans-Bold-44" transform="translate(513.28125 0)"/>
     <use xlink:href="#DejaVuSans-Bold-45" transform="translate(596.289062 0)"/>
     <use xlink:href="#DejaVuSans-Bold-4c" transform="translate(664.599609 0)"/>
    </g>
   </g>
   <g id="text_3">
    <!-- (Pre-trained on -->
    <g style="fill: #2d3748" transform="translate(109.292969 121.993412) scale(0.1 -0.1)">
     <defs>
      <path id="DejaVuSans-28" d="M 1984 4856 
Q 1566 4138 1362 3434 
Q 1159 2731 1159 2009 
Q 1159 1288 1364 580 
Q 1569 -128 1984 -844 
L 1484 -844 
Q 1016 -109 783 600 
Q 550 1309 550 2009 
Q 550 2706 781 3412 
Q 1013 4119 1484 4856 
L 1984 4856 
z
" transform="scale(0.015625)"/>
      <path id="DejaVuSans-50" d="M 1259 4147 
L 1259 2394 
L 2053 2394 
Q 2494 2394 2734 2622 
Q 2975 2850 2975 3272 
Q 2975 3691 2734 3919 
Q 2494 4147 2053 4147 
L 1259 4147 
z
M 628 4666 
L 2053 4666 
Q 2838 4666 3239 4311 
Q 3641 3956 3641 3272 
Q 3641 2581 3239 2228 
Q 2838 1875 2053 1875 
L 1259 1875 
L 1259 0 
L 628 0 
L 628 4666 
z
" transform="scale(0.015625)"/>
      <path id="DejaVuSans-72" d="M 2631 2963 
Q 2534 3019 2420 3045 
Q 2306 3072 2169 3072 
Q 1681 3072 1420 2755 
Q 1159 2438 1159 1844 
L 1159 0 
L 581 0 
L 581 3500 
L 1159 3500 
L 1159 2956 
Q 1341 3275 1631 3429 
Q 1922 3584 2338 3584 
Q 2397 3584 2469 3576 
Q 2541 3569 2628 3553 
L 2631 2963 
z
" transform="scale(0.015625)"/>
      <path id="DejaVuSans-65" d="M 3597 1894 
L 3597 1613 
L 953 1613 
Q 991 1019 1311 708 
Q 1631 397 2203 397 
Q 2534 397 2845 478 
Q 3156 559 3463 722 
L 3463 178 
Q 3153 47 2828 -22 
Q 2503 -91 2169 -91 
Q 1331 -91 842 396 
Q 353 884 353 1716 
Q 353 2575 817 3079 
Q 1281 3584 2069 3584 
Q 2775 3584 3186 3129 
Q 3597 2675 3597 1894 
z
M 3022 2063 
Q 3016 2534 2758 2815 
Q 2500 3097 2075 3097 
Q 1594 3097 1305 2825 
Q 1016 2553 972 2059 
L 3022 2063 
z
" transform="scale(0.015625)"/>
      <path id="DejaVuSans-2d" d="M 313 2009 
L 1997 2009 
L 1997 1497 
L 313 1497 
L 313 2009 
z
" transform="scale(0.015625)"/>
      <path id="DejaVuSans-74" d="M 1172 4494 
L 1172 3500 
L 2356 3500 
L 2356 3053 
L 1172 3053 
L 1172 1153 
Q 1172 725 1289 603 
Q 1406 481 1766 481 
L 2356 481 
L 2356 0 
L 1766 0 
Q 1100 0 847 248 
Q 594 497 594 1153 
L 594 3053 
L 172 3053 
L 172 3500 
L 594 3500 
L 594 4494 
L 1172 4494 
z
" transform="scale(0.015625)"/>
      <path id="DejaVuSans-61" d="M 2194 1759 
Q 1497 1759 1228 1600 
Q 959 1441 959 1056 
Q 959 750 1161 570 
Q 1363 391 1709 391 
Q 2188 391 2477 730 
Q 2766 1069 2766 1631 
L 2766 1759 
L 2194 1759 
z
M 3341 1997 
L 3341 0 
L 2766 0 
L 2766 531 
Q 2569 213 2275 61 
Q 1981 -91 1556 -91 
Q 1019 -91 701 211 
Q 384 513 384 1019 
Q 384 1609 779 1909 
Q 1175 2209 1959 2209 
L 2766 2209 
L 2766 2266 
Q 2766 2663 2505 2880 
Q 2244 3097 1772 3097 
Q 1472 3097 1187 3025 
Q 903 2953 641 2809 
L 641 3341 
Q 956 3463 1253 3523 
Q 1550 3584 1831 3584 
Q 2591 3584 2966 3190 
Q 3341 2797 3341 1997 
z
" transform="scale(0.015625)"/>
      <path id="DejaVuSans-69" d="M 603 3500 
L 1178 3500 
L 1178 0 
L 603 0 
L 603 3500 
z
M 603 4863 
L 1178 4863 
L 1178 4134 
L 603 4134 
L 603 4863 
z
" transform="scale(0.015625)"/>
      <path id="DejaVuSans-6e" d="M 3513 2113 
L 3513 0 
L 2938 0 
L 2938 2094 
Q 2938 2591 2744 2837 
Q 2550 3084 2163 3084 
Q 1697 3084 1428 2787 
Q 1159 2491 1159 1978 
L 1159 0 
L 581 0 
L 581 3500 
L 1159 3500 
L 1159 2956 
Q 1366 3272 1645 3428 
Q 1925 3584 2291 3584 
Q 2894 3584 3203 3211 
Q 3513 2838 3513 2113 
z
" transform="scale(0.015625)"/>
      <path id="DejaVuSans-64" d="M 2906 2969 
L 2906 4863 
L 3481 4863 
L 3481 0 
L 2906 0 
L 2906 525 
Q 2725 213 2448 61 
Q 2172 -91 1784 -91 
Q 1150 -91 751 415 
Q 353 922 353 1747 
Q 353 2572 751 3078 
Q 1150 3584 1784 3584 
Q 2172 3584 2448 3432 
Q 2725 3281 2906 2969 
z
M 947 1747 
Q 947 1113 1208 752 
Q 1469 391 1925 391 
Q 2381 391 2643 752 
Q 2906 1113 2906 1747 
Q 2906 2381 2643 2742 
Q 2381 3103 1925 3103 
Q 1469 3103 1208 2742 
Q 947 2381 947 1747 
z
" transform="scale(0.015625)"/>
      <path id="DejaVuSans-20" transform="scale(0.015625)"/>
      <path id="DejaVuSans-6f" d="M 1959 3097 
Q 1497 3097 1228 2736 
Q 959 2375 959 1747 
Q 959 1119 1226 758 
Q 1494 397 1959 397 
Q 2419 397 2687 759 
Q 2956 1122 2956 1747 
Q 2956 2369 2687 2733 
Q 2419 3097 1959 3097 
z
M 1959 3584 
Q 2709 3584 3137 3096 
Q 3566 2609 3566 1747 
Q 3566 888 3137 398 
Q 2709 -91 1959 -91 
Q 1206 -91 779 398 
Q 353 888 353 1747 
Q 353 2609 779 3096 
Q 1206 3584 1959 3584 
z
" transform="scale(0.015625)"/>
     </defs>
     <use xlink:href="#DejaVuSans-28"/>
     <use xlink:href="#DejaVuSans-50" transform="translate(39.013672 0)"/>
     <use xlink:href="#DejaVuSans-72" transform="translate(97.566406 0)"/>
     <use xlink:href="#DejaVuSans-65" transform="translate(136.429688 0)"/>
     <use xlink:href="#DejaVuSans-2d" transform="translate(197.953125 0)"/>
     <use xlink:href="#DejaVuSans-74" transform="translate(234.037109 0)"/>
     <use xlink:href="#DejaVuSans-72" transform="translate(273.246094 0)"/>
     <use xlink:href="#DejaVuSans-61" transform="translate(314.359375 0)"/>
     <use xlink:href="#DejaVuSans-69" transform="translate(375.638672 0)"/>
     <use xlink:href="#DejaVuSans-6e" transform="translate(403.421875 0)"/>
     <use xlink:href="#DejaVuSans-65" transform="translate(466.800781 0)"/>
     <use xlink:href="#DejaVuSans-64" transform="translate(528.324219 0)"/>
     <use xlink:href="#DejaVuSans-20" transform="translate(591.800781 0)"/>
     <use xlink:href="#DejaVuSans-6f" transform="translate(623.587891 0)"/>
     <use xlink:href="#DejaVuSans-6e" transform="translate(684.769531 0)"/>
    </g>
   </g>
   <g id="text_4">
    <!-- internet text) -->
    <g style="fill: #2d3748" transform="translate(113.523437 137.647059) scale(0.1 -0.1)">
     <defs>
      <path id="DejaVuSans-78" d="M 3513 3500 
L 2247 1797 
L 3578 0 
L 2900 0 
L 1881 1375 
L 863 0 
L 184 0 
L 1544 1831 
L 300 3500 
L 978 3500 
L 1906 2253 
L 2834 3500 
L 3513 3500 
z
" transform="scale(0.015625)"/>
      <path id="DejaVuSans-29" d="M 513 4856 
L 1013 4856 
Q 1481 4119 1714 3412 
Q 1947 2706 1947 2009 
Q 1947 1309 1714 600 
Q 1481 -109 1013 -844 
L 513 -844 
Q 928 -128 1133 580 
Q 1338 1288 1338 2009 
Q 1338 2731 1133 3434 
Q 928 4138 513 4856 
z
" transform="scale(0.015625)"/>
     </defs>
     <use xlink:href="#DejaVuSans-69"/>
     <use xlink:href="#DejaVuSans-6e" transform="translate(27.783203 0)"/>
     <use xlink:href="#DejaVuSans-74" transform="translate(91.162109 0)"/>
     <use xlink:href="#DejaVuSans-65" transform="translate(130.371094 0)"/>
     <use xlink:href="#DejaVuSans-72" transform="translate(191.894531 0)"/>
     <use xlink:href="#DejaVuSans-6e" transform="translate(231.257812 0)"/>
     <use xlink:href="#DejaVuSans-65" transform="translate(294.636719 0)"/>
     <use xlink:href="#DejaVuSans-74" transform="translate(356.160156 0)"/>
     <use xlink:href="#DejaVuSans-20" transform="translate(395.369141 0)"/>
     <use xlink:href="#DejaVuSans-74" transform="translate(427.15625 0)"/>
     <use xlink:href="#DejaVuSans-65" transform="translate(466.365234 0)"/>
     <use xlink:href="#DejaVuSans-78" transform="translate(526.138672 0)"/>
     <use xlink:href="#DejaVuSans-74" transform="translate(585.318359 0)"/>
     <use xlink:href="#DejaVuSans-29" transform="translate(624.527344 0)"/>
    </g>
   </g>
   <g id="text_5">
    <!-- "Text completer" -->
    <g style="fill: #4a5568" transform="translate(108.871875 153.300706) scale(0.09 -0.09)">
     <defs>
      <path id="DejaVuSans-Oblique-22" d="M 1147 4666 
L 1147 2931 
L 616 2931 
L 616 4666 
L 1147 4666 
z
M 2328 4666 
L 2328 2931 
L 1797 2931 
L 1797 4666 
L 2328 4666 
z
" transform="scale(0.015625)"/>
      <path id="DejaVuSans-Oblique-54" d="M 378 4666 
L 4325 4666 
L 4225 4134 
L 2559 4134 
L 1759 0 
L 1125 0 
L 1925 4134 
L 275 4134 
L 378 4666 
z
" transform="scale(0.015625)"/>
      <path id="DejaVuSans-Oblique-65" d="M 3078 2063 
Q 3088 2113 3092 2166 
Q 3097 2219 3097 2272 
Q 3097 2653 2873 2875 
Q 2650 3097 2266 3097 
Q 1838 3097 1509 2826 
Q 1181 2556 1013 2059 
L 3078 2063 
z
M 3578 1613 
L 903 1613 
Q 884 1494 878 1425 
Q 872 1356 872 1306 
Q 872 872 1139 634 
Q 1406 397 1894 397 
Q 2269 397 2603 481 
Q 2938 566 3225 728 
L 3116 159 
Q 2806 34 2476 -28 
Q 2147 -91 1806 -91 
Q 1078 -91 686 257 
Q 294 606 294 1247 
Q 294 1794 489 2264 
Q 684 2734 1063 3103 
Q 1306 3334 1642 3459 
Q 1978 3584 2356 3584 
Q 2950 3584 3301 3228 
Q 3653 2872 3653 2272 
Q 3653 2128 3634 1964 
Q 3616 1800 3578 1613 
z
" transform="scale(0.015625)"/>
      <path id="DejaVuSans-Oblique-78" d="M 3841 3500 
L 2234 1784 
L 3219 0 
L 2559 0 
L 1819 1388 
L 531 0 
L -166 0 
L 1556 1844 
L 641 3500 
L 1300 3500 
L 1972 2234 
L 3144 3500 
L 3841 3500 
z
" transform="scale(0.015625)"/>
      <path id="DejaVuSans-Oblique-74" d="M 2706 3500 
L 2619 3053 
L 1472 3053 
L 1100 1153 
Q 1081 1047 1072 975 
Q 1063 903 1063 863 
Q 1063 663 1183 572 
Q 1303 481 1569 481 
L 2150 481 
L 2053 0 
L 1503 0 
Q 991 0 739 200 
Q 488 400 488 806 
Q 488 878 497 964 
Q 506 1050 525 1153 
L 897 3053 
L 409 3053 
L 500 3500 
L 978 3500 
L 1172 4494 
L 1747 4494 
L 1556 3500 
L 2706 3500 
z
" transform="scale(0.015625)"/>
      <path id="DejaVuSans-Oblique-20" transform="scale(0.015625)"/>
      <path id="DejaVuSans-Oblique-63" d="M 3431 3366 
L 3316 2797 
Q 3109 2947 2876 3022 
Q 2644 3097 2394 3097 
Q 2119 3097 1870 3000 
Q 1622 2903 1453 2725 
Q 1184 2453 1037 2087 
Q 891 1722 891 1331 
Q 891 859 1127 628 
Q 1363 397 1844 397 
Q 2081 397 2348 469 
Q 2616 541 2906 684 
L 2797 116 
Q 2547 13 2283 -39 
Q 2019 -91 1741 -91 
Q 1044 -91 669 257 
Q 294 606 294 1253 
Q 294 1797 489 2255 
Q 684 2713 1069 3078 
Q 1331 3328 1684 3456 
Q 2038 3584 2456 3584 
Q 2700 3584 2940 3529 
Q 3181 3475 3431 3366 
z
" transform="scale(0.015625)"/>
      <path id="DejaVuSans-Oblique-6f" d="M 1625 -91 
Q 1009 -91 651 289 
Q 294 669 294 1325 
Q 294 1706 417 2101 
Q 541 2497 738 2766 
Q 1047 3184 1428 3384 
Q 1809 3584 2291 3584 
Q 2888 3584 3255 3212 
Q 3622 2841 3622 2241 
Q 3622 1825 3500 1412 
Q 3378 1000 3181 728 
Q 2875 309 2494 109 
Q 2113 -91 1625 -91 
z
M 891 1344 
Q 891 869 1089 633 
Q 1288 397 1691 397 
Q 2269 397 2648 901 
Q 3028 1406 3028 2181 
Q 3028 2634 2825 2865 
Q 2622 3097 2228 3097 
Q 1903 3097 1650 2945 
Q 1397 2794 1197 2484 
Q 1050 2253 970 1956 
Q 891 1659 891 1344 
z
" transform="scale(0.015625)"/>
      <path id="DejaVuSans-Oblique-6d" d="M 5747 2113 
L 5338 0 
L 4763 0 
L 5166 2094 
Q 5191 2228 5203 2325 
Q 5216 2422 5216 2491 
Q 5216 2772 5059 2928 
Q 4903 3084 4622 3084 
Q 4203 3084 3875 2770 
Q 3547 2456 3450 1953 
L 3066 0 
L 2491 0 
L 2900 2094 
Q 2925 2209 2937 2307 
Q 2950 2406 2950 2484 
Q 2950 2769 2794 2926 
Q 2638 3084 2363 3084 
Q 1938 3084 1609 2770 
Q 1281 2456 1184 1953 
L 800 0 
L 225 0 
L 909 3500 
L 1484 3500 
L 1375 2956 
Q 1609 3263 1923 3423 
Q 2238 3584 2597 3584 
Q 2978 3584 3223 3384 
Q 3469 3184 3519 2828 
Q 3781 3197 4126 3390 
Q 4472 3584 4856 3584 
Q 5306 3584 5551 3325 
Q 5797 3066 5797 2591 
Q 5797 2488 5784 2364 
Q 5772 2241 5747 2113 
z
" transform="scale(0.015625)"/>
      <path id="DejaVuSans-Oblique-70" d="M 3175 2156 
Q 3175 2616 2975 2859 
Q 2775 3103 2400 3103 
Q 2144 3103 1911 2972 
Q 1678 2841 1497 2591 
Q 1319 2344 1212 1994 
Q 1106 1644 1106 1300 
Q 1106 863 1306 627 
Q 1506 391 1875 391 
Q 2147 391 2380 519 
Q 2613 647 2778 891 
Q 2956 1147 3065 1494 
Q 3175 1841 3175 2156 
z
M 1394 2969 
Q 1625 3272 1939 3428 
Q 2253 3584 2638 3584 
Q 3175 3584 3472 3232 
Q 3769 2881 3769 2247 
Q 3769 1728 3584 1258 
Q 3400 788 3053 416 
Q 2822 169 2531 39 
Q 2241 -91 1919 -91 
Q 1547 -91 1294 64 
Q 1041 219 916 525 
L 556 -1331 
L -19 -1331 
L 922 3500 
L 1497 3500 
L 1394 2969 
z
" transform="scale(0.015625)"/>
      <path id="DejaVuSans-Oblique-6c" d="M 1172 4863 
L 1747 4863 
L 800 0 
L 225 0 
L 1172 4863 
z
" transform="scale(0.015625)"/>
      <path id="DejaVuSans-Oblique-72" d="M 2853 2969 
Q 2766 3016 2653 3041 
Q 2541 3066 2413 3066 
Q 1953 3066 1609 2717 
Q 1266 2369 1153 1784 
L 800 0 
L 225 0 
L 909 3500 
L 1484 3500 
L 1375 2956 
Q 1603 3259 1920 3421 
Q 2238 3584 2597 3584 
Q 2691 3584 2781 3573 
Q 2872 3563 2963 3538 
L 2853 2969 
z
" transform="scale(0.015625)"/>
     </defs>
     <use xlink:href="#DejaVuSans-Oblique-22"/>
     <use xlink:href="#DejaVuSans-Oblique-54" transform="translate(45.996094 0)"/>
     <use xlink:href="#DejaVuSans-Oblique-65" transform="translate(94.705078 0)"/>
     <use xlink:href="#DejaVuSans-Oblique-78" transform="translate(156.228516 0)"/>
     <use xlink:href="#DejaVuSans-Oblique-74" transform="translate(215.408203 0)"/>
     <use xlink:href="#DejaVuSans-Oblique-20" transform="translate(254.617188 0)"/>
     <use xlink:href="#DejaVuSans-Oblique-63" transform="translate(286.404297 0)"/>
     <use xlink:href="#DejaVuSans-Oblique-6f" transform="translate(341.384766 0)"/>
     <use xlink:href="#DejaVuSans-Oblique-6d" transform="translate(402.566406 0)"/>
     <use xlink:href="#DejaVuSans-Oblique-70" transform="translate(499.978516 0)"/>
     <use xlink:href="#DejaVuSans-Oblique-6c" transform="translate(563.455078 0)"/>
     <use xlink:href="#DejaVuSans-Oblique-65" transform="translate(591.238281 0)"/>
     <use xlink:href="#DejaVuSans-Oblique-74" transform="translate(652.761719 0)"/>
     <use xlink:href="#DejaVuSans-Oblique-65" transform="translate(691.970703 0)"/>
     <use xlink:href="#DejaVuSans-Oblique-72" transform="translate(753.494141 0)"/>
     <use xlink:href="#DejaVuSans-Oblique-22" transform="translate(794.607422 0)"/>
    </g>
   </g>
   <g id="text_6">
    <!-- SFT DATA -->
    <g style="fill: #1e3a5f" transform="translate(418.898125 95.904) scale(0.13 -0.13)">
     <use xlink:href="#DejaVuSans-Bold-53"/>
     <use xlink:href="#DejaVuSans-Bold-46" transform="translate(72.021484 0)"/>
     <use xlink:href="#DejaVuSans-Bold-54" transform="translate(140.332031 0)"/>
     <use xlink:href="#DejaVuSans-Bold-20" transform="translate(208.544922 0)"/>
     <use xlink:href="#DejaVuSans-Bold-44" transform="translate(243.359375 0)"/>
     <use xlink:href="#DejaVuSans-Bold-41" transform="translate(326.367188 0)"/>
     <use xlink:href="#DejaVuSans-Bold-54" transform="translate(396.009766 0)"/>
     <use xlink:href="#DejaVuSans-Bold-41" transform="translate(456.472656 0)"/>
    </g>
   </g>
   <g id="text_7">
    <!-- (Instruction, Response) -->
    <g style="fill: #2d3748" transform="translate(395.746875 121.993412) scale(0.1 -0.1)">
     <defs>
      <path id="DejaVuSans-49" d="M 628 4666 
L 1259 4666 
L 1259 0 
L 628 0 
L 628 4666 
z
" transform="scale(0.015625)"/>
      <path id="DejaVuSans-73" d="M 2834 3397 
L 2834 2853 
Q 2591 2978 2328 3040 
Q 2066 3103 1784 3103 
Q 1356 3103 1142 2972 
Q 928 2841 928 2578 
Q 928 2378 1081 2264 
Q 1234 2150 1697 2047 
L 1894 2003 
Q 2506 1872 2764 1633 
Q 3022 1394 3022 966 
Q 3022 478 2636 193 
Q 2250 -91 1575 -91 
Q 1294 -91 989 -36 
Q 684 19 347 128 
L 347 722 
Q 666 556 975 473 
Q 1284 391 1588 391 
Q 1994 391 2212 530 
Q 2431 669 2431 922 
Q 2431 1156 2273 1281 
Q 2116 1406 1581 1522 
L 1381 1569 
Q 847 1681 609 1914 
Q 372 2147 372 2553 
Q 372 3047 722 3315 
Q 1072 3584 1716 3584 
Q 2034 3584 2315 3537 
Q 2597 3491 2834 3397 
z
" transform="scale(0.015625)"/>
      <path id="DejaVuSans-75" d="M 544 1381 
L 544 3500 
L 1119 3500 
L 1119 1403 
Q 1119 906 1312 657 
Q 1506 409 1894 409 
Q 2359 409 2629 706 
Q 2900 1003 2900 1516 
L 2900 3500 
L 3475 3500 
L 3475 0 
L 2900 0 
L 2900 538 
Q 2691 219 2414 64 
Q 2138 -91 1772 -91 
Q 1169 -91 856 284 
Q 544 659 544 1381 
z
M 1991 3584 
L 1991 3584 
z
" transform="scale(0.015625)"/>
      <path id="DejaVuSans-63" d="M 3122 3366 
L 3122 2828 
Q 2878 2963 2633 3030 
Q 2388 3097 2138 3097 
Q 1578 3097 1268 2742 
Q 959 2388 959 1747 
Q 959 1106 1268 751 
Q 1578 397 2138 397 
Q 2388 397 2633 464 
Q 2878 531 3122 666 
L 3122 134 
Q 2881 22 2623 -34 
Q 2366 -91 2075 -91 
Q 1284 -91 818 406 
Q 353 903 353 1747 
Q 353 2603 823 3093 
Q 1294 3584 2113 3584 
Q 2378 3584 2631 3529 
Q 2884 3475 3122 3366 
z
" transform="scale(0.015625)"/>
      <path id="DejaVuSans-2c" d="M 750 794 
L 1409 794 
L 1409 256 
L 897 -744 
L 494 -744 
L 750 256 
L 750 794 
z
" transform="scale(0.015625)"/>
      <path id="DejaVuSans-52" d="M 2841 2188 
Q 3044 2119 3236 1894 
Q 3428 1669 3622 1275 
L 4263 0 
L 3584 0 
L 2988 1197 
Q 2756 1666 2539 1819 
Q 2322 1972 1947 1972 
L 1259 1972 
L 1259 0 
L 628 0 
L 628 4666 
L 2053 4666 
Q 2853 4666 3247 4331 
Q 3641 3997 3641 3322 
Q 3641 2881 3436 2590 
Q 3231 2300 2841 2188 
z
M 1259 4147 
L 1259 2491 
L 2053 2491 
Q 2509 2491 2742 2702 
Q 2975 2913 2975 3322 
Q 2975 3731 2742 3939 
Q 2509 4147 2053 4147 
L 1259 4147 
z
" transform="scale(0.015625)"/>
      <path id="DejaVuSans-70" d="M 1159 525 
L 1159 -1331 
L 581 -1331 
L 581 3500 
L 1159 3500 
L 1159 2969 
Q 1341 3281 1617 3432 
Q 1894 3584 2278 3584 
Q 2916 3584 3314 3078 
Q 3713 2572 3713 1747 
Q 3713 922 3314 415 
Q 2916 -91 2278 -91 
Q 1894 -91 1617 61 
Q 1341 213 1159 525 
z
M 3116 1747 
Q 3116 2381 2855 2742 
Q 2594 3103 2138 3103 
Q 1681 3103 1420 2742 
Q 1159 2381 1159 1747 
Q 1159 1113 1420 752 
Q 1681 391 2138 391 
Q 2594 391 2855 752 
Q 3116 1113 3116 1747 
z
" transform="scale(0.015625)"/>
     </defs>
     <use xlink:href="#DejaVuSans-28"/>
     <use xlink:href="#DejaVuSans-49" transform="translate(39.013672 0)"/>
     <use xlink:href="#DejaVuSans-6e" transform="translate(68.505859 0)"/>
     <use xlink:href="#DejaVuSans-73" transform="translate(131.884766 0)"/>
     <use xlink:href="#DejaVuSans-74" transform="translate(183.984375 0)"/>
     <use xlink:href="#DejaVuSans-72" transform="translate(223.193359 0)"/>
     <use xlink:href="#DejaVuSans-75" transform="translate(264.306641 0)"/>
     <use xlink:href="#DejaVuSans-63" transform="translate(327.685547 0)"/>
     <use xlink:href="#DejaVuSans-74" transform="translate(382.666016 0)"/>
     <use xlink:href="#DejaVuSans-69" transform="translate(421.875 0)"/>
     <use xlink:href="#DejaVuSans-6f" transform="translate(449.658203 0)"/>
     <use xlink:href="#DejaVuSans-6e" transform="translate(510.839844 0)"/>
     <use xlink:href="#DejaVuSans-2c" transform="translate(574.21875 0)"/>
     <use xlink:href="#DejaVuSans-20" transform="translate(606.005859 0)"/>
     <use xlink:href="#DejaVuSans-52" transform="translate(637.792969 0)"/>
     <use xlink:href="#DejaVuSans-65" transform="translate(702.775391 0)"/>
     <use xlink:href="#DejaVuSans-73" transform="translate(764.298828 0)"/>
     <use xlink:href="#DejaVuSans-70" transform="translate(816.398438 0)"/>
     <use xlink:href="#DejaVuSans-6f" transform="translate(879.875 0)"/>
     <use xlink:href="#DejaVuSans-6e" transform="translate(941.056641 0)"/>
     <use xlink:href="#DejaVuSans-73" transform="translate(1004.435547 0)"/>
     <use xlink:href="#DejaVuSans-65" transform="translate(1056.535156 0)"/>
     <use xlink:href="#DejaVuSans-29" transform="translate(1118.058594 0)"/>
    </g>
   </g>
   <g id="text_8">
    <!-- pairs -->
    <g style="fill: #2d3748" transform="translate(441.3125 137.647059) scale(0.1 -0.1)">
     <use xlink:href="#DejaVuSans-70"/>
     <use xlink:href="#DejaVuSans-61" transform="translate(63.476562 0)"/>
     <use xlink:href="#DejaVuSans-69" transform="translate(124.755859 0)"/>
     <use xlink:href="#DejaVuSans-72" transform="translate(152.539062 0)"/>
     <use xlink:href="#DejaVuSans-73" transform="translate(193.652344 0)"/>
    </g>
   </g>
   <g id="text_9">
    <!-- 10K-100K examples -->
    <g style="fill: #4a5568" transform="translate(408.985312 153.300706) scale(0.09 -0.09)">
     <defs>
      <path id="DejaVuSans-Oblique-31" d="M 416 531 
L 1447 531 
L 2144 4122 
L 978 3897 
L 1088 4441 
L 2247 4666 
L 2881 4666 
L 2075 531 
L 3103 531 
L 3003 0 
L 313 0 
L 416 531 
z
" transform="scale(0.015625)"/>
      <path id="DejaVuSans-Oblique-30" d="M 2444 4750 
Q 3078 4750 3414 4328 
Q 3750 3906 3750 3116 
Q 3750 2516 3592 1923 
Q 3434 1331 3150 863 
Q 2859 394 2467 151 
Q 2075 -91 1600 -91 
Q 988 -91 653 334 
Q 319 759 319 1544 
Q 319 2138 480 2733 
Q 641 3328 928 3794 
Q 1216 4263 1602 4506 
Q 1988 4750 2444 4750 
z
M 2406 4250 
Q 2169 4250 1955 4123 
Q 1741 3997 1569 3750 
Q 1281 3338 1111 2720 
Q 941 2103 941 1453 
Q 941 938 1123 673 
Q 1306 409 1663 409 
Q 1913 409 2125 536 
Q 2338 663 2509 909 
Q 2794 1319 2961 1936 
Q 3128 2553 3128 3206 
Q 3128 3722 2945 3986 
Q 2763 4250 2406 4250 
z
" transform="scale(0.015625)"/>
      <path id="DejaVuSans-Oblique-4b" d="M 1081 4666 
L 1716 4666 
L 1331 2700 
L 3781 4666 
L 4622 4666 
L 1850 2438 
L 3878 0 
L 3109 0 
L 1247 2272 
L 806 0 
L 172 0 
L 1081 4666 
z
" transform="scale(0.015625)"/>
      <path id="DejaVuSans-Oblique-2d" d="M 391 2009 
L 2075 2009 
L 1978 1497 
L 288 1497 
L 391 2009 
z
" transform="scale(0.015625)"/>
      <path id="DejaVuSans-Oblique-61" d="M 3438 1997 
L 3047 0 
L 2472 0 
L 2578 531 
Q 2325 219 2001 64 
Q 1678 -91 1281 -91 
Q 834 -91 548 182 
Q 263 456 263 884 
Q 263 1497 752 1853 
Q 1241 2209 2100 2209 
L 2900 2209 
L 2931 2363 
Q 2938 2388 2941 2417 
Q 2944 2447 2944 2509 
Q 2944 2788 2717 2942 
Q 2491 3097 2081 3097 
Q 1800 3097 1504 3025 
Q 1209 2953 897 2809 
L 997 3341 
Q 1322 3463 1633 3523 
Q 1944 3584 2234 3584 
Q 2853 3584 3176 3315 
Q 3500 3047 3500 2534 
Q 3500 2431 3484 2292 
Q 3469 2153 3438 1997 
z
M 2816 1759 
L 2241 1759 
Q 1534 1759 1195 1570 
Q 856 1381 856 984 
Q 856 709 1029 553 
Q 1203 397 1509 397 
Q 1978 397 2328 733 
Q 2678 1069 2791 1631 
L 2816 1759 
z
" transform="scale(0.015625)"/>
      <path id="DejaVuSans-Oblique-73" d="M 3200 3397 
L 3091 2853 
Q 2863 2978 2609 3040 
Q 2356 3103 2088 3103 
Q 1634 3103 1373 2948 
Q 1113 2794 1113 2528 
Q 1113 2219 1719 2053 
Q 1766 2041 1788 2034 
L 1972 1978 
Q 2547 1819 2739 1644 
Q 2931 1469 2931 1166 
Q 2931 609 2489 259 
Q 2047 -91 1331 -91 
Q 1053 -91 747 -37 
Q 441 16 72 128 
L 184 722 
Q 500 559 806 475 
Q 1113 391 1394 391 
Q 1816 391 2080 572 
Q 2344 753 2344 1031 
Q 2344 1331 1650 1516 
L 1591 1531 
L 1394 1581 
Q 956 1697 753 1886 
Q 550 2075 550 2369 
Q 550 2928 970 3256 
Q 1391 3584 2113 3584 
Q 2397 3584 2667 3537 
Q 2938 3491 3200 3397 
z
" transform="scale(0.015625)"/>
     </defs>
     <use xlink:href="#DejaVuSans-Oblique-31"/>
     <use xlink:href="#DejaVuSans-Oblique-30" transform="translate(63.623047 0)"/>
     <use xlink:href="#DejaVuSans-Oblique-4b" transform="translate(127.246094 0)"/>
     <use xlink:href="#DejaVuSans-Oblique-2d" transform="translate(182.822266 0)"/>
     <use xlink:href="#DejaVuSans-Oblique-31" transform="translate(218.90625 0)"/>
     <use xlink:href="#DejaVuSans-Oblique-30" transform="translate(282.529297 0)"/>
     <use xlink:href="#DejaVuSans-Oblique-30" transform="translate(346.152344 0)"/>
     <use xlink:href="#DejaVuSans-Oblique-4b" transform="translate(409.775391 0)"/>
     <use xlink:href="#DejaVuSans-Oblique-20" transform="translate(475.351562 0)"/>
     <use xlink:href="#DejaVuSans-Oblique-65" transform="translate(507.138672 0)"/>
     <use xlink:href="#DejaVuSans-Oblique-78" transform="translate(568.662109 0)"/>
     <use xlink:href="#DejaVuSans-Oblique-61" transform="translate(627.841797 0)"/>
     <use xlink:href="#DejaVuSans-Oblique-6d" transform="translate(689.121094 0)"/>
     <use xlink:href="#DejaVuSans-Oblique-70" transform="translate(786.533203 0)"/>
     <use xlink:href="#DejaVuSans-Oblique-6c" transform="translate(850.009766 0)"/>
     <use xlink:href="#DejaVuSans-Oblique-65" transform="translate(877.792969 0)"/>
     <use xlink:href="#DejaVuSans-Oblique-73" transform="translate(939.316406 0)"/>
    </g>
   </g>
   <g id="text_10">
    <!-- SUPERVISED FINE-TUNING -->
    <g style="fill: #1e3a5f" transform="translate(267.355469 242.004706) scale(0.14 -0.14)">
     <defs>
      <path id="DejaVuSans-Bold-55" d="M 588 4666 
L 1791 4666 
L 1791 1869 
Q 1791 1291 1980 1042 
Q 2169 794 2597 794 
Q 3028 794 3217 1042 
Q 3406 1291 3406 1869 
L 3406 4666 
L 4609 4666 
L 4609 1869 
Q 4609 878 4112 393 
Q 3616 -91 2597 -91 
Q 1581 -91 1084 393 
Q 588 878 588 1869 
L 588 4666 
z
" transform="scale(0.015625)"/>
      <path id="DejaVuSans-Bold-52" d="M 2297 2597 
Q 2675 2597 2839 2737 
Q 3003 2878 3003 3200 
Q 3003 3519 2839 3656 
Q 2675 3794 2297 3794 
L 1791 3794 
L 1791 2597 
L 2297 2597 
z
M 1791 1766 
L 1791 0 
L 588 0 
L 588 4666 
L 2425 4666 
Q 3347 4666 3776 4356 
Q 4206 4047 4206 3378 
Q 4206 2916 3982 2619 
Q 3759 2322 3309 2181 
Q 3556 2125 3751 1926 
Q 3947 1728 4147 1325 
L 4800 0 
L 3519 0 
L 2950 1159 
Q 2778 1509 2601 1637 
Q 2425 1766 2131 1766 
L 1791 1766 
z
" transform="scale(0.015625)"/>
      <path id="DejaVuSans-Bold-56" d="M 31 4666 
L 1241 4666 
L 2478 1222 
L 3713 4666 
L 4922 4666 
L 3194 0 
L 1759 0 
L 31 4666 
z
" transform="scale(0.015625)"/>
      <path id="DejaVuSans-Bold-49" d="M 588 4666 
L 1791 4666 
L 1791 0 
L 588 0 
L 588 4666 
z
" transform="scale(0.015625)"/>
      <path id="DejaVuSans-Bold-4e" d="M 588 4666 
L 1931 4666 
L 3628 1466 
L 3628 4666 
L 4769 4666 
L 4769 0 
L 3425 0 
L 1728 3200 
L 1728 0 
L 588 0 
L 588 4666 
z
" transform="scale(0.015625)"/>
      <path id="DejaVuSans-Bold-47" d="M 4781 347 
Q 4331 128 3847 18 
Q 3363 -91 2847 -91 
Q 1681 -91 1000 561 
Q 319 1213 319 2328 
Q 319 3456 1012 4103 
Q 1706 4750 2913 4750 
Q 3378 4750 3804 4662 
Q 4231 4575 4609 4403 
L 4609 3438 
Q 4219 3659 3833 3768 
Q 3447 3878 3059 3878 
Q 2341 3878 1952 3476 
Q 1563 3075 1563 2328 
Q 1563 1588 1938 1184 
Q 2313 781 3003 781 
Q 3191 781 3352 804 
Q 3513 828 3641 878 
L 3641 1784 
L 2906 1784 
L 2906 2591 
L 4781 2591 
L 4781 347 
z
" transform="scale(0.015625)"/>
     </defs>
     <use xlink:href="#DejaVuSans-Bold-53"/>
     <use xlink:href="#DejaVuSans-Bold-55" transform="translate(72.021484 0)"/>
     <use xlink:href="#DejaVuSans-Bold-50" transform="translate(153.222656 0)"/>
     <use xlink:href="#DejaVuSans-Bold-45" transform="translate(226.513672 0)"/>
     <use xlink:href="#DejaVuSans-Bold-52" transform="translate(294.824219 0)"/>
     <use xlink:href="#DejaVuSans-Bold-56" transform="translate(371.826172 0)"/>
     <use xlink:href="#DejaVuSans-Bold-49" transform="translate(449.21875 0)"/>
     <use xlink:href="#DejaVuSans-Bold-53" transform="translate(486.425781 0)"/>
     <use xlink:href="#DejaVuSans-Bold-45" transform="translate(558.447266 0)"/>
     <use xlink:href="#DejaVuSans-Bold-44" transform="translate(626.757812 0)"/>
     <use xlink:href="#DejaVuSans-Bold-20" transform="translate(709.765625 0)"/>
     <use xlink:href="#DejaVuSans-Bold-46" transform="translate(744.580078 0)"/>
     <use xlink:href="#DejaVuSans-Bold-49" transform="translate(812.890625 0)"/>
     <use xlink:href="#DejaVuSans-Bold-4e" transform="translate(850.097656 0)"/>
     <use xlink:href="#DejaVuSans-Bold-45" transform="translate(933.789062 0)"/>
     <use xlink:href="#DejaVuSans-Bold-2d" transform="translate(1002.099609 0)"/>
     <use xlink:href="#DejaVuSans-Bold-54" transform="translate(1028.853516 0)"/>
     <use xlink:href="#DejaVuSans-Bold-55" transform="translate(1097.066406 0)"/>
     <use xlink:href="#DejaVuSans-Bold-4e" transform="translate(1178.267578 0)"/>
     <use xlink:href="#DejaVuSans-Bold-49" transform="translate(1261.958984 0)"/>
     <use xlink:href="#DejaVuSans-Bold-4e" transform="translate(1299.166016 0)"/>
     <use xlink:href="#DejaVuSans-Bold-47" transform="translate(1382.857422 0)"/>
    </g>
   </g>
   <g id="text_11">
    <!-- Continue training on instruction-response pairs -->
    <g style="fill: #2d3748" transform="translate(240.199687 268.094118) scale(0.11 -0.11)">
     <defs>
      <path id="DejaVuSans-43" d="M 4122 4306 
L 4122 3641 
Q 3803 3938 3442 4084 
Q 3081 4231 2675 4231 
Q 1875 4231 1450 3742 
Q 1025 3253 1025 2328 
Q 1025 1406 1450 917 
Q 1875 428 2675 428 
Q 3081 428 3442 575 
Q 3803 722 4122 1019 
L 4122 359 
Q 3791 134 3420 21 
Q 3050 -91 2638 -91 
Q 1578 -91 968 557 
Q 359 1206 359 2328 
Q 359 3453 968 4101 
Q 1578 4750 2638 4750 
Q 3056 4750 3426 4639 
Q 3797 4528 4122 4306 
z
" transform="scale(0.015625)"/>
      <path id="DejaVuSans-67" d="M 2906 1791 
Q 2906 2416 2648 2759 
Q 2391 3103 1925 3103 
Q 1463 3103 1205 2759 
Q 947 2416 947 1791 
Q 947 1169 1205 825 
Q 1463 481 1925 481 
Q 2391 481 2648 825 
Q 2906 1169 2906 1791 
z
M 3481 434 
Q 3481 -459 3084 -895 
Q 2688 -1331 1869 -1331 
Q 1566 -1331 1297 -1286 
Q 1028 -1241 775 -1147 
L 775 -588 
Q 1028 -725 1275 -790 
Q 1522 -856 1778 -856 
Q 2344 -856 2625 -561 
Q 2906 -266 2906 331 
L 2906 616 
Q 2728 306 2450 153 
Q 2172 0 1784 0 
Q 1141 0 747 490 
Q 353 981 353 1791 
Q 353 2603 747 3093 
Q 1141 3584 1784 3584 
Q 2172 3584 2450 3431 
Q 2728 3278 2906 2969 
L 2906 3500 
L 3481 3500 
L 3481 434 
z
" transform="scale(0.015625)"/>
     </defs>
     <use xlink:href="#DejaVuSans-43"/>
     <use xlink:href="#DejaVuSans-6f" transform="translate(69.824219 0)"/>
     <use xlink:href="#DejaVuSans-6e" transform="translate(131.005859 0)"/>
     <use xlink:href="#DejaVuSans-74" transform="translate(194.384766 0)"/>
     <use xlink:href="#DejaVuSans-69" transform="translate(233.59375 0)"/>
     <use xlink:href="#DejaVuSans-6e" transform="translate(261.376953 0)"/>
     <use xlink:href="#DejaVuSans-75" transform="translate(324.755859 0)"/>
     <use xlink:href="#DejaVuSans-65" transform="translate(388.134766 0)"/>
     <use xlink:href="#DejaVuSans-20" transform="translate(449.658203 0)"/>
     <use xlink:href="#DejaVuSans-74" transform="translate(481.445312 0)"/>
     <use xlink:href="#DejaVuSans-72" transform="translate(520.654297 0)"/>
     <use xlink:href="#DejaVuSans-61" transform="translate(561.767578 0)"/>
     <use xlink:href="#DejaVuSans-69" transform="translate(623.046875 0)"/>
     <use xlink:href="#DejaVuSans-6e" transform="translate(650.830078 0)"/>
     <use xlink:href="#DejaVuSans-69" transform="translate(714.208984 0)"/>
     <use xlink:href="#DejaVuSans-6e" transform="translate(741.992188 0)"/>
     <use xlink:href="#DejaVuSans-67" transform="translate(805.371094 0)"/>
     <use xlink:href="#DejaVuSans-20" transform="translate(868.847656 0)"/>
     <use xlink:href="#DejaVuSans-6f" transform="translate(900.634766 0)"/>
     <use xlink:href="#DejaVuSans-6e" transform="translate(961.816406 0)"/>
     <use xlink:href="#DejaVuSans-20" transform="translate(1025.195312 0)"/>
     <use xlink:href="#DejaVuSans-69" transform="translate(1056.982422 0)"/>
     <use xlink:href="#DejaVuSans-6e" transform="translate(1084.765625 0)"/>
     <use xlink:href="#DejaVuSans-73" transform="translate(1148.144531 0)"/>
     <use xlink:href="#DejaVuSans-74" transform="translate(1200.244141 0)"/>
     <use xlink:href="#DejaVuSans-72" transform="translate(1239.453125 0)"/>
     <use xlink:href="#DejaVuSans-75" transform="translate(1280.566406 0)"/>
     <use xlink:href="#DejaVuSans-63" transform="translate(1343.945312 0)"/>
     <use xlink:href="#DejaVuSans-74" transform="translate(1398.925781 0)"/>
     <use xlink:href="#DejaVuSans-69" transform="translate(1438.134766 0)"/>
     <use xlink:href="#DejaVuSans-6f" transform="translate(1465.917969 0)"/>
     <use xlink:href="#DejaVuSans-6e" transform="translate(1527.099609 0)"/>
     <use xlink:href="#DejaVuSans-2d" transform="translate(1590.478516 0)"/>
     <use xlink:href="#DejaVuSans-72" transform="translate(1626.5625 0)"/>
     <use xlink:href="#DejaVuSans-65" transform="translate(1665.425781 0)"/>
     <use xlink:href="#DejaVuSans-73" transform="translate(1726.949219 0)"/>
     <use xlink:href="#DejaVuSans-70" transform="translate(1779.048828 0)"/>
     <use xlink:href="#DejaVuSans-6f" transform="translate(1842.525391 0)"/>
     <use xlink:href="#DejaVuSans-6e" transform="translate(1903.707031 0)"/>
     <use xlink:href="#DejaVuSans-73" transform="translate(1967.085938 0)"/>
     <use xlink:href="#DejaVuSans-65" transform="translate(2019.185547 0)"/>
     <use xlink:href="#DejaVuSans-20" transform="translate(2080.708984 0)"/>
     <use xlink:href="#DejaVuSans-70" transform="translate(2112.496094 0)"/>
     <use xlink:href="#DejaVuSans-61" transform="translate(2175.972656 0)"/>
     <use xlink:href="#DejaVuSans-69" transform="translate(2237.251953 0)"/>
     <use xlink:href="#DejaVuSans-72" transform="translate(2265.035156 0)"/>
     <use xlink:href="#DejaVuSans-73" transform="translate(2306.148438 0)"/>
    </g>
   </g>
   <g id="text_12">
    <!-- Same architecture, new objective -->
    <g style="fill: #4a5568" transform="translate(285.717187 294.183529) scale(0.1 -0.1)">
     <defs>
      <path id="DejaVuSans-Oblique-53" d="M 3859 4513 
L 3738 3897 
Q 3422 4066 3111 4152 
Q 2800 4238 2509 4238 
Q 1944 4238 1609 3991 
Q 1275 3744 1275 3334 
Q 1275 3109 1398 2989 
Q 1522 2869 2034 2731 
L 2413 2638 
Q 3053 2472 3303 2217 
Q 3553 1963 3553 1503 
Q 3553 797 2998 353 
Q 2444 -91 1538 -91 
Q 1166 -91 791 -17 
Q 416 56 38 206 
L 166 856 
Q 513 641 861 531 
Q 1209 422 1556 422 
Q 2147 422 2503 684 
Q 2859 947 2859 1369 
Q 2859 1650 2717 1795 
Q 2575 1941 2106 2059 
L 1728 2156 
Q 1081 2325 845 2545 
Q 609 2766 609 3163 
Q 609 3859 1145 4304 
Q 1681 4750 2541 4750 
Q 2875 4750 3203 4690 
Q 3531 4631 3859 4513 
z
" transform="scale(0.015625)"/>
      <path id="DejaVuSans-Oblique-68" d="M 3566 2113 
L 3156 0 
L 2578 0 
L 2988 2091 
Q 3016 2238 3031 2350 
Q 3047 2463 3047 2528 
Q 3047 2791 2881 2937 
Q 2716 3084 2419 3084 
Q 1956 3084 1617 2771 
Q 1278 2459 1178 1941 
L 800 0 
L 225 0 
L 1172 4863 
L 1747 4863 
L 1375 2950 
Q 1594 3244 1934 3414 
Q 2275 3584 2650 3584 
Q 3113 3584 3367 3334 
Q 3622 3084 3622 2631 
Q 3622 2519 3608 2391 
Q 3594 2263 3566 2113 
z
" transform="scale(0.015625)"/>
      <path id="DejaVuSans-Oblique-69" d="M 1172 4863 
L 1747 4863 
L 1606 4134 
L 1031 4134 
L 1172 4863 
z
M 909 3500 
L 1484 3500 
L 800 0 
L 225 0 
L 909 3500 
z
" transform="scale(0.015625)"/>
      <path id="DejaVuSans-Oblique-75" d="M 428 1388 
L 838 3500 
L 1416 3500 
L 1006 1409 
Q 975 1256 961 1147 
Q 947 1038 947 966 
Q 947 700 1109 554 
Q 1272 409 1569 409 
Q 2031 409 2368 721 
Q 2706 1034 2809 1563 
L 3194 3500 
L 3769 3500 
L 3091 0 
L 2516 0 
L 2631 550 
Q 2388 244 2052 76 
Q 1716 -91 1338 -91 
Q 878 -91 622 161 
Q 366 413 366 863 
Q 366 956 381 1097 
Q 397 1238 428 1388 
z
" transform="scale(0.015625)"/>
      <path id="DejaVuSans-Oblique-2c" d="M 575 794 
L 1234 794 
L 1131 256 
L 422 -744 
L 19 -744 
L 469 256 
L 575 794 
z
" transform="scale(0.015625)"/>
      <path id="DejaVuSans-Oblique-6e" d="M 3566 2113 
L 3156 0 
L 2578 0 
L 2988 2091 
Q 3016 2238 3031 2350 
Q 3047 2463 3047 2528 
Q 3047 2791 2881 2937 
Q 2716 3084 2419 3084 
Q 1956 3084 1622 2776 
Q 1288 2469 1184 1941 
L 800 0 
L 225 0 
L 903 3500 
L 1478 3500 
L 1363 2950 
Q 1603 3253 1940 3418 
Q 2278 3584 2650 3584 
Q 3113 3584 3367 3334 
Q 3622 3084 3622 2631 
Q 3622 2519 3608 2391 
Q 3594 2263 3566 2113 
z
" transform="scale(0.015625)"/>
      <path id="DejaVuSans-Oblique-77" d="M 544 3500 
L 1113 3500 
L 1259 684 
L 2566 3500 
L 3231 3500 
L 3425 684 
L 4666 3500 
L 5241 3500 
L 3641 0 
L 2969 0 
L 2797 2900 
L 1459 0 
L 781 0 
L 544 3500 
z
" transform="scale(0.015625)"/>
      <path id="DejaVuSans-Oblique-62" d="M 3169 2138 
Q 3169 2591 2961 2847 
Q 2753 3103 2388 3103 
Q 2122 3103 1889 2973 
Q 1656 2844 1484 2597 
Q 1303 2338 1198 1995 
Q 1094 1653 1094 1313 
Q 1094 881 1298 636 
Q 1503 391 1863 391 
Q 2134 391 2365 517 
Q 2597 644 2772 891 
Q 2950 1147 3059 1487 
Q 3169 1828 3169 2138 
z
M 1381 2969 
Q 1594 3256 1914 3420 
Q 2234 3584 2584 3584 
Q 3122 3584 3439 3221 
Q 3756 2859 3756 2241 
Q 3756 1734 3570 1259 
Q 3384 784 3041 416 
Q 2816 172 2522 40 
Q 2228 -91 1906 -91 
Q 1566 -91 1316 65 
Q 1066 222 909 531 
L 806 0 
L 231 0 
L 1178 4863 
L 1753 4863 
L 1381 2969 
z
" transform="scale(0.015625)"/>
      <path id="DejaVuSans-Oblique-6a" d="M 928 3500 
L 1503 3500 
L 813 -63 
L 809 -78 
Q 694 -675 544 -897 
Q 403 -1106 132 -1218 
Q -138 -1331 -506 -1331 
L -722 -1331 
L -628 -844 
L -481 -844 
Q -144 -844 -1 -703 
Q 141 -563 238 -63 
L 928 3500 
z
M 1197 4863 
L 1772 4863 
L 1631 4134 
L 1056 4134 
L 1197 4863 
z
" transform="scale(0.015625)"/>
      <path id="DejaVuSans-Oblique-76" d="M 459 3500 
L 1069 3500 
L 1581 525 
L 3256 3500 
L 3866 3500 
L 1875 0 
L 1100 0 
L 459 3500 
z
" transform="scale(0.015625)"/>
     </defs>
     <use xlink:href="#DejaVuSans-Oblique-53"/>
     <use xlink:href="#DejaVuSans-Oblique-61" transform="translate(63.476562 0)"/>
     <use xlink:href="#DejaVuSans-Oblique-6d" transform="translate(124.755859 0)"/>
     <use xlink:href="#DejaVuSans-Oblique-65" transform="translate(222.167969 0)"/>
     <use xlink:href="#DejaVuSans-Oblique-20" transform="translate(283.691406 0)"/>
     <use xlink:href="#DejaVuSans-Oblique-61" transform="translate(315.478516 0)"/>
     <use xlink:href="#DejaVuSans-Oblique-72" transform="translate(376.757812 0)"/>
     <use xlink:href="#DejaVuSans-Oblique-63" transform="translate(417.871094 0)"/>
     <use xlink:href="#DejaVuSans-Oblique-68" transform="translate(472.851562 0)"/>
     <use xlink:href="#DejaVuSans-Oblique-69" transform="translate(536.230469 0)"/>
     <use xlink:href="#DejaVuSans-Oblique-74" transform="translate(564.013672 0)"/>
     <use xlink:href="#DejaVuSans-Oblique-65" transform="translate(603.222656 0)"/>
     <use xlink:href="#DejaVuSans-Oblique-63" transform="translate(664.746094 0)"/>
     <use xlink:href="#DejaVuSans-Oblique-74" transform="translate(719.726562 0)"/>
     <use xlink:href="#DejaVuSans-Oblique-75" transform="translate(758.935547 0)"/>
     <use xlink:href="#DejaVuSans-Oblique-72" transform="translate(822.314453 0)"/>
     <use xlink:href="#DejaVuSans-Oblique-65" transform="translate(863.427734 0)"/>
     <use xlink:href="#DejaVuSans-Oblique-2c" transform="translate(924.951172 0)"/>
     <use xlink:href="#DejaVuSans-Oblique-20" transform="translate(956.738281 0)"/>
     <use xlink:href="#DejaVuSans-Oblique-6e" transform="translate(988.525391 0)"/>
     <use xlink:href="#DejaVuSans-Oblique-65" transform="translate(1051.904297 0)"/>
     <use xlink:href="#DejaVuSans-Oblique-77" transform="translate(1113.427734 0)"/>
     <use xlink:href="#DejaVuSans-Oblique-20" transform="translate(1195.214844 0)"/>
     <use xlink:href="#DejaVuSans-Oblique-6f" transform="translate(1227.001953 0)"/>
     <use xlink:href="#DejaVuSans-Oblique-62" transform="translate(1288.183594 0)"/>
     <use xlink:href="#DejaVuSans-Oblique-6a" transform="translate(1351.660156 0)"/>
     <use xlink:href="#DejaVuSans-Oblique-65" transform="translate(1379.443359 0)"/>
     <use xlink:href="#DejaVuSans-Oblique-63" transform="translate(1440.966797 0)"/>
     <use xlink:href="#DejaVuSans-Oblique-74" transform="translate(1495.947266 0)"/>
     <use xlink:href="#DejaVuSans-Oblique-69" transform="translate(1535.15625 0)"/>
     <use xlink:href="#DejaVuSans-Oblique-76" transform="translate(1562.939453 0)"/>
     <use xlink:href="#DejaVuSans-Oblique-65" transform="translate(1622.119141 0)"/>
    </g>
   </g>
   <g id="text_13">
    <!-- INSTRUCTION-TUNED MODEL -->
    <g style="fill: #1e3a5f" transform="translate(257.030469 382.887529) scale(0.14 -0.14)">
     <defs>
      <path id="DejaVuSans-Bold-43" d="M 4288 256 
Q 3956 84 3597 -3 
Q 3238 -91 2847 -91 
Q 1681 -91 1000 561 
Q 319 1213 319 2328 
Q 319 3447 1000 4098 
Q 1681 4750 2847 4750 
Q 3238 4750 3597 4662 
Q 3956 4575 4288 4403 
L 4288 3438 
Q 3953 3666 3628 3772 
Q 3303 3878 2944 3878 
Q 2300 3878 1931 3465 
Q 1563 3053 1563 2328 
Q 1563 1606 1931 1193 
Q 2300 781 2944 781 
Q 3303 781 3628 887 
Q 3953 994 4288 1222 
L 4288 256 
z
" transform="scale(0.015625)"/>
     </defs>
     <use xlink:href="#DejaVuSans-Bold-49"/>
     <use xlink:href="#DejaVuSans-Bold-4e" transform="translate(37.207031 0)"/>
     <use xlink:href="#DejaVuSans-Bold-53" transform="translate(120.898438 0)"/>
     <use xlink:href="#DejaVuSans-Bold-54" transform="translate(192.919922 0)"/>
     <use xlink:href="#DejaVuSans-Bold-52" transform="translate(261.132812 0)"/>
     <use xlink:href="#DejaVuSans-Bold-55" transform="translate(338.134766 0)"/>
     <use xlink:href="#DejaVuSans-Bold-43" transform="translate(419.335938 0)"/>
     <use xlink:href="#DejaVuSans-Bold-54" transform="translate(492.724609 0)"/>
     <use xlink:href="#DejaVuSans-Bold-49" transform="translate(560.9375 0)"/>
     <use xlink:href="#DejaVuSans-Bold-4f" transform="translate(598.144531 0)"/>
     <use xlink:href="#DejaVuSans-Bold-4e" transform="translate(683.154297 0)"/>
     <use xlink:href="#DejaVuSans-Bold-2d" transform="translate(766.845703 0)"/>
     <use xlink:href="#DejaVuSans-Bold-54" transform="translate(793.599609 0)"/>
     <use xlink:href="#DejaVuSans-Bold-55" transform="translate(861.8125 0)"/>
     <use xlink:href="#DejaVuSans-Bold-4e" transform="translate(943.013672 0)"/>
     <use xlink:href="#DejaVuSans-Bold-45" transform="translate(1026.705078 0)"/>
     <use xlink:href="#DejaVuSans-Bold-44" transform="translate(1095.015625 0)"/>
     <use xlink:href="#DejaVuSans-Bold-20" transform="translate(1178.023438 0)"/>
     <use xlink:href="#DejaVuSans-Bold-4d" transform="translate(1212.837891 0)"/>
     <use xlink:href="#DejaVuSans-Bold-4f" transform="translate(1312.349609 0)"/>
     <use xlink:href="#DejaVuSans-Bold-44" transform="translate(1397.359375 0)"/>
     <use xlink:href="#DejaVuSans-Bold-45" transform="translate(1480.367188 0)"/>
     <use xlink:href="#DejaVuSans-Bold-4c" transform="translate(1548.677734 0)"/>
    </g>
   </g>
   <g id="text_14">
    <!-- Follows instructions, helpful assistant -->
    <g style="fill: #2d3748" transform="translate(267.086953 414.194824) scale(0.11 -0.11)">
     <defs>
      <path id="DejaVuSans-46" d="M 628 4666 
L 3309 4666 
L 3309 4134 
L 1259 4134 
L 1259 2759 
L 3109 2759 
L 3109 2228 
L 1259 2228 
L 1259 0 
L 628 0 
L 628 4666 
z
" transform="scale(0.015625)"/>
      <path id="DejaVuSans-6c" d="M 603 4863 
L 1178 4863 
L 1178 0 
L 603 0 
L 603 4863 
z
" transform="scale(0.015625)"/>
      <path id="DejaVuSans-77" d="M 269 3500 
L 844 3500 
L 1563 769 
L 2278 3500 
L 2956 3500 
L 3675 769 
L 4391 3500 
L 4966 3500 
L 4050 0 
L 3372 0 
L 2619 2869 
L 1863 0 
L 1184 0 
L 269 3500 
z
" transform="scale(0.015625)"/>
      <path id="DejaVuSans-68" d="M 3513 2113 
L 3513 0 
L 2938 0 
L 2938 2094 
Q 2938 2591 2744 2837 
Q 2550 3084 2163 3084 
Q 1697 3084 1428 2787 
Q 1159 2491 1159 1978 
L 1159 0 
L 581 0 
L 581 4863 
L 1159 4863 
L 1159 2956 
Q 1366 3272 1645 3428 
Q 1925 3584 2291 3584 
Q 2894 3584 3203 3211 
Q 3513 2838 3513 2113 
z
" transform="scale(0.015625)"/>
      <path id="DejaVuSans-66" d="M 2375 4863 
L 2375 4384 
L 1825 4384 
Q 1516 4384 1395 4259 
Q 1275 4134 1275 3809 
L 1275 3500 
L 2222 3500 
L 2222 3053 
L 1275 3053 
L 1275 0 
L 697 0 
L 697 3053 
L 147 3053 
L 147 3500 
L 697 3500 
L 697 3744 
Q 697 4328 969 4595 
Q 1241 4863 1831 4863 
L 2375 4863 
z
" transform="scale(0.015625)"/>
     </defs>
     <use xlink:href="#DejaVuSans-46"/>
     <use xlink:href="#DejaVuSans-6f" transform="translate(53.894531 0)"/>
     <use xlink:href="#DejaVuSans-6c" transform="translate(115.076172 0)"/>
     <use xlink:href="#DejaVuSans-6c" transform="translate(142.859375 0)"/>
     <use xlink:href="#DejaVuSans-6f" transform="translate(170.642578 0)"/>
     <use xlink:href="#DejaVuSans-77" transform="translate(231.824219 0)"/>
     <use xlink:href="#DejaVuSans-73" transform="translate(313.611328 0)"/>
     <use xlink:href="#DejaVuSans-20" transform="translate(365.710938 0)"/>
     <use xlink:href="#DejaVuSans-69" transform="translate(397.498047 0)"/>
     <use xlink:href="#DejaVuSans-6e" transform="translate(425.28125 0)"/>
     <use xlink:href="#DejaVuSans-73" transform="translate(488.660156 0)"/>
     <use xlink:href="#DejaVuSans-74" transform="translate(540.759766 0)"/>
     <use xlink:href="#DejaVuSans-72" transform="translate(579.96875 0)"/>
     <use xlink:href="#DejaVuSans-75" transform="translate(621.082031 0)"/>
     <use xlink:href="#DejaVuSans-63" transform="translate(684.460938 0)"/>
     <use xlink:href="#DejaVuSans-74" transform="translate(739.441406 0)"/>
     <use xlink:href="#DejaVuSans-69" transform="translate(778.650391 0)"/>
     <use xlink:href="#DejaVuSans-6f" transform="translate(806.433594 0)"/>
     <use xlink:href="#DejaVuSans-6e" transform="translate(867.615234 0)"/>
     <use xlink:href="#DejaVuSans-73" transform="translate(930.994141 0)"/>
     <use xlink:href="#DejaVuSans-2c" transform="translate(983.09375 0)"/>
     <use xlink:href="#DejaVuSans-20" transform="translate(1014.880859 0)"/>
     <use xlink:href="#DejaVuSans-68" transform="translate(1046.667969 0)"/>
     <use xlink:href="#DejaVuSans-65" transform="translate(1110.046875 0)"/>
     <use xlink:href="#DejaVuSans-6c" transform="translate(1171.570312 0)"/>
     <use xlink:href="#DejaVuSans-70" transform="translate(1199.353516 0)"/>
     <use xlink:href="#DejaVuSans-66" transform="translate(1262.830078 0)"/>
     <use xlink:href="#DejaVuSans-75" transform="translate(1298.035156 0)"/>
     <use xlink:href="#DejaVuSans-6c" transform="translate(1361.414062 0)"/>
     <use xlink:href="#DejaVuSans-20" transform="translate(1389.197266 0)"/>
     <use xlink:href="#DejaVuSans-61" transform="translate(1420.984375 0)"/>
     <use xlink:href="#DejaVuSans-73" transform="translate(1482.263672 0)"/>
     <use xlink:href="#DejaVuSans-73" transform="translate(1534.363281 0)"/>
     <use xlink:href="#DejaVuSans-69" transform="translate(1586.462891 0)"/>
     <use xlink:href="#DejaVuSans-73" transform="translate(1614.246094 0)"/>
     <use xlink:href="#DejaVuSans-74" transform="translate(1666.345703 0)"/>
     <use xlink:href="#DejaVuSans-61" transform="translate(1705.554688 0)"/>
     <use xlink:href="#DejaVuSans-6e" transform="translate(1766.833984 0)"/>
     <use xlink:href="#DejaVuSans-74" transform="translate(1830.212891 0)"/>
    </g>
   </g>
   <g id="patch_6">
    <path d="M 148.161072 165.102725 
Q 202.499481 215.914809 254.388021 264.436009 
" style="fill: none; stroke: #1e3a5f; stroke-width: 3; stroke-linecap: round"/>
    <path d="M 252.832401 260.243153 
L 254.388021 264.436009 
L 250.100364 263.164791 
" style="fill: none; stroke: #1e3a5f; stroke-width: 3; stroke-linecap: round"/>
   </g>
   <g id="patch_7">
    <path d="M 454.116824 165.669609 
Q 467.549773 215.914445 480.116428 262.918981 
" style="fill: none; stroke: #1e3a5f; stroke-width: 3; stroke-linecap: round"/>
    <path d="M 481.015454 258.538142 
L 480.116428 262.918981 
L 477.151172 259.571257 
" style="fill: none; stroke: #1e3a5f; stroke-width: 3; stroke-linecap: round"/>
   </g>
   <g id="patch_8">
    <path d="M 369.9 322.27487 
Q 369.9 338.535606 369.9 351.44224 
" style="fill: none; stroke: #1e3a5f; stroke-width: 3; stroke-linecap: round"/>
    <path d="M 371.9 347.44224 
L 369.9 351.44224 
L 367.9 347.44224 
" style="fill: none; stroke: #1e3a5f; stroke-width: 3; stroke-linecap: round"/>
   </g>
  </g>
 </g>
 <defs>
  <clipPath id="pa8b02932bd">
   <rect x="7.2" y="7.2" width="781.2" height="443.52"/>
  </clipPath>
 </defs>
</svg>
