<?xml version="1.0" encoding="utf-8" standalone="no"?>
<!DOCTYPE svg PUBLIC "-//W3C//DTD SVG 1.1//EN"
  "http://www.w3.org/Graphics/SVG/1.1/DTD/svg11.dtd">
<svg xmlns:xlink="http://www.w3.org/1999/xlink" width="795.6pt" height="236.16pt" viewBox="0 0 795.6 236.16" xmlns="http://www.w3.org/2000/svg" version="1.1">
 <metadata>
  <rdf:RDF xmlns:dc="http://purl.org/dc/elements/1.1/" xmlns:cc="http://creativecommons.org/ns#" xmlns:rdf="http://www.w3.org/1999/02/22-rdf-syntax-ns#">
   <cc:Work>
    <dc:type rdf:resource="http://purl.org/dc/dcmitype/StillImage"/>
    <dc:date>2026-01-06T07:09:44.892231</dc:date>
    <dc:format>image/svg+xml</dc:format>
    <dc:creator>
     <cc:Agent>
      <dc:title>Matplotlib v3.10.6, https://matplotlib.org/</dc:title>
     </cc:Agent>
    </dc:creator>
   </cc:Work>
  </rdf:RDF>
 </metadata>
 <defs>
  <style type="text/css">*{stroke-linejoin: round; stroke-linecap: butt}</style>
 </defs>
 <g id="figure_1">
  <g id="patch_1">
   <path d="M 0 236.16 
L 795.6 236.16 
L 795.6 0 
L 0 0 
z
" style="fill: #ffffff"/>
  </g>
  <g id="axes_1">
   <g id="patch_2">
    <path d="M 35.1 193.4784 
L 135.54 193.4784 
Q 141.12 193.4784 141.12 184.608 
L 141.12 51.552 
Q 141.12 42.6816 135.54 42.6816 
L 35.1 42.6816 
Q 29.52 42.6816 29.52 51.552 
L 29.52 184.608 
Q 29.52 193.4784 35.1 193.4784 
z
" clip-path="url(#pe10f74b543)" style="fill: #3b82f6; opacity: 0.3; stroke: #1e3a5f; stroke-width: 2; stroke-linejoin: miter"/>
   </g>
   <g id="patch_3">
    <path d="M 163.44 193.4784 
L 263.88 193.4784 
Q 269.46 193.4784 269.46 184.608 
L 269.46 51.552 
Q 269.46 42.6816 263.88 42.6816 
L 163.44 42.6816 
Q 157.86 42.6816 157.86 51.552 
L 157.86 184.608 
Q 157.86 193.4784 163.44 193.4784 
z
" clip-path="url(#pe10f74b543)" style="fill: #e85a4f; opacity: 0.3; stroke: #1e3a5f; stroke-width: 2; stroke-linejoin: miter"/>
   </g>
   <g id="patch_4">
    <path d="M 291.78 193.4784 
L 392.22 193.4784 
Q 397.8 193.4784 397.8 184.608 
L 397.8 51.552 
Q 397.8 42.6816 392.22 42.6816 
L 291.78 42.6816 
Q 286.2 42.6816 286.2 51.552 
L 286.2 184.608 
Q 286.2 193.4784 291.78 193.4784 
z
" clip-path="url(#pe10f74b543)" style="fill: #2a9d8f; opacity: 0.3; stroke: #1e3a5f; stroke-width: 2; stroke-linejoin: miter"/>
   </g>
   <g id="patch_5">
    <path d="M 420.12 193.4784 
L 520.56 193.4784 
Q 526.14 193.4784 526.14 184.608 
L 526.14 51.552 
Q 526.14 42.6816 520.56 42.6816 
L 420.12 42.6816 
Q 414.54 42.6816 414.54 51.552 
L 414.54 184.608 
Q 414.54 193.4784 420.12 193.4784 
z
" clip-path="url(#pe10f74b543)" style="fill: #e9c46a; opacity: 0.3; stroke: #1e3a5f; stroke-width: 2; stroke-linejoin: miter"/>
   </g>
   <g id="patch_6">
    <path d="M 548.46 193.4784 
L 648.9 193.4784 
Q 654.48 193.4784 654.48 184.608 
L 654.48 51.552 
Q 654.48 42.6816 648.9 42.6816 
L 548.46 42.6816 
Q 542.88 42.6816 542.88 51.552 
L 542.88 184.608 
Q 542.88 193.4784 548.46 193.4784 
z
" clip-path="url(#pe10f74b543)" style="fill: #8b5cf6; opacity: 0.3; stroke: #1e3a5f; stroke-width: 2; stroke-linejoin: miter"/>
   </g>
   <g id="patch_7">
    <path d="M 676.8 193.4784 
L 777.24 193.4784 
Q 782.82 193.4784 782.82 184.608 
L 782.82 51.552 
Q 782.82 42.6816 777.24 42.6816 
L 676.8 42.6816 
Q 671.22 42.6816 671.22 51.552 
L 671.22 184.608 
Q 671.22 193.4784 676.8 193.4784 
z
" clip-path="url(#pe10f74b543)" style="fill: #1e3a5f; opacity: 0.3; stroke: #1e3a5f; stroke-width: 2; stroke-linejoin: miter"/>
   </g>
   <g id="text_1">
    <!-- 1. Collect -->
    <g style="fill: #1e3a5f" transform="translate(56.283437 118.08) scale(0.11 -0.11)">
     <defs>
      <path id="DejaVuSans-Bold-31" d="M 750 831 
L 1813 831 
L 1813 3847 
L 722 3622 
L 722 4441 
L 1806 4666 
L 2950 4666 
L 2950 831 
L 4013 831 
L 4013 0 
L 750 0 
L 750 831 
z
" transform="scale(0.015625)"/>
      <path id="DejaVuSans-Bold-2e" d="M 653 1209 
L 1778 1209 
L 1778 0 
L 653 0 
L 653 1209 
z
" transform="scale(0.015625)"/>
      <path id="DejaVuSans-Bold-20" transform="scale(0.015625)"/>
      <path id="DejaVuSans-Bold-43" d="M 4288 256 
Q 3956 84 3597 -3 
Q 3238 -91 2847 -91 
Q 1681 -91 1000 561 
Q 319 1213 319 2328 
Q 319 3447 1000 4098 
Q 1681 4750 2847 4750 
Q 3238 4750 3597 4662 
Q 3956 4575 4288 4403 
L 4288 3438 
Q 3953 3666 3628 3772 
Q 3303 3878 2944 3878 
Q 2300 3878 1931 3465 
Q 1563 3053 1563 2328 
Q 1563 1606 1931 1193 
Q 2300 781 2944 781 
Q 3303 781 3628 887 
Q 3953 994 4288 1222 
L 4288 256 
z
" transform="scale(0.015625)"/>
      <path id="DejaVuSans-Bold-6f" d="M 2203 2784 
Q 1831 2784 1636 2517 
Q 1441 2250 1441 1747 
Q 1441 1244 1636 976 
Q 1831 709 2203 709 
Q 2569 709 2762 976 
Q 2956 1244 2956 1747 
Q 2956 2250 2762 2517 
Q 2569 2784 2203 2784 
z
M 2203 3584 
Q 3106 3584 3614 3096 
Q 4122 2609 4122 1747 
Q 4122 884 3614 396 
Q 3106 -91 2203 -91 
Q 1297 -91 786 396 
Q 275 884 275 1747 
Q 275 2609 786 3096 
Q 1297 3584 2203 3584 
z
" transform="scale(0.015625)"/>
      <path id="DejaVuSans-Bold-6c" d="M 538 4863 
L 1656 4863 
L 1656 0 
L 538 0 
L 538 4863 
z
" transform="scale(0.015625)"/>
      <path id="DejaVuSans-Bold-65" d="M 4031 1759 
L 4031 1441 
L 1416 1441 
Q 1456 1047 1700 850 
Q 1944 653 2381 653 
Q 2734 653 3104 758 
Q 3475 863 3866 1075 
L 3866 213 
Q 3469 63 3072 -14 
Q 2675 -91 2278 -91 
Q 1328 -91 801 392 
Q 275 875 275 1747 
Q 275 2603 792 3093 
Q 1309 3584 2216 3584 
Q 3041 3584 3536 3087 
Q 4031 2591 4031 1759 
z
M 2881 2131 
Q 2881 2450 2695 2645 
Q 2509 2841 2209 2841 
Q 1884 2841 1681 2658 
Q 1478 2475 1428 2131 
L 2881 2131 
z
" transform="scale(0.015625)"/>
      <path id="DejaVuSans-Bold-63" d="M 3366 3391 
L 3366 2478 
Q 3138 2634 2908 2709 
Q 2678 2784 2431 2784 
Q 1963 2784 1702 2511 
Q 1441 2238 1441 1747 
Q 1441 1256 1702 982 
Q 1963 709 2431 709 
Q 2694 709 2930 787 
Q 3166 866 3366 1019 
L 3366 103 
Q 3103 6 2833 -42 
Q 2563 -91 2291 -91 
Q 1344 -91 809 395 
Q 275 881 275 1747 
Q 275 2613 809 3098 
Q 1344 3584 2291 3584 
Q 2566 3584 2833 3536 
Q 3100 3488 3366 3391 
z
" transform="scale(0.015625)"/>
      <path id="DejaVuSans-Bold-74" d="M 1759 4494 
L 1759 3500 
L 2913 3500 
L 2913 2700 
L 1759 2700 
L 1759 1216 
Q 1759 972 1856 886 
Q 1953 800 2241 800 
L 2816 800 
L 2816 0 
L 1856 0 
Q 1194 0 917 276 
Q 641 553 641 1216 
L 641 2700 
L 84 2700 
L 84 3500 
L 641 3500 
L 641 4494 
L 1759 4494 
z
" transform="scale(0.015625)"/>
     </defs>
     <use xlink:href="#DejaVuSans-Bold-31"/>
     <use xlink:href="#DejaVuSans-Bold-2e" transform="translate(69.580078 0)"/>
     <use xlink:href="#DejaVuSans-Bold-20" transform="translate(107.568359 0)"/>
     <use xlink:href="#DejaVuSans-Bold-43" transform="translate(142.382812 0)"/>
     <use xlink:href="#DejaVuSans-Bold-6f" transform="translate(215.771484 0)"/>
     <use xlink:href="#DejaVuSans-Bold-6c" transform="translate(284.472656 0)"/>
     <use xlink:href="#DejaVuSans-Bold-6c" transform="translate(318.75 0)"/>
     <use xlink:href="#DejaVuSans-Bold-65" transform="translate(353.027344 0)"/>
     <use xlink:href="#DejaVuSans-Bold-63" transform="translate(420.849609 0)"/>
     <use xlink:href="#DejaVuSans-Bold-74" transform="translate(480.126953 0)"/>
    </g>
   </g>
   <g id="patch_8">
    <path d="M 145.912588 118.08 
Q 149.491938 118.08 150.83522 118.08 
" style="fill: none; stroke: #1e3a5f; stroke-width: 2; stroke-linecap: round"/>
    <path d="M 146.83522 116.08 
L 150.83522 118.08 
L 146.83522 120.08 
" style="fill: none; stroke: #1e3a5f; stroke-width: 2; stroke-linecap: round"/>
   </g>
   <g id="text_2">
    <!-- 2. Clean -->
    <g style="fill: #1e3a5f" transform="translate(188.549922 118.08) scale(0.11 -0.11)">
     <defs>
      <path id="DejaVuSans-Bold-32" d="M 1844 884 
L 3897 884 
L 3897 0 
L 506 0 
L 506 884 
L 2209 2388 
Q 2438 2594 2547 2791 
Q 2656 2988 2656 3200 
Q 2656 3528 2436 3728 
Q 2216 3928 1850 3928 
Q 1569 3928 1234 3808 
Q 900 3688 519 3450 
L 519 4475 
Q 925 4609 1322 4679 
Q 1719 4750 2100 4750 
Q 2938 4750 3402 4381 
Q 3866 4013 3866 3353 
Q 3866 2972 3669 2642 
Q 3472 2313 2841 1759 
L 1844 884 
z
" transform="scale(0.015625)"/>
      <path id="DejaVuSans-Bold-61" d="M 2106 1575 
Q 1756 1575 1579 1456 
Q 1403 1338 1403 1106 
Q 1403 894 1545 773 
Q 1688 653 1941 653 
Q 2256 653 2472 879 
Q 2688 1106 2688 1447 
L 2688 1575 
L 2106 1575 
z
M 3816 1997 
L 3816 0 
L 2688 0 
L 2688 519 
Q 2463 200 2181 54 
Q 1900 -91 1497 -91 
Q 953 -91 614 226 
Q 275 544 275 1050 
Q 275 1666 698 1953 
Q 1122 2241 2028 2241 
L 2688 2241 
L 2688 2328 
Q 2688 2594 2478 2717 
Q 2269 2841 1825 2841 
Q 1466 2841 1156 2769 
Q 847 2697 581 2553 
L 581 3406 
Q 941 3494 1303 3539 
Q 1666 3584 2028 3584 
Q 2975 3584 3395 3211 
Q 3816 2838 3816 1997 
z
" transform="scale(0.015625)"/>
      <path id="DejaVuSans-Bold-6e" d="M 4056 2131 
L 4056 0 
L 2931 0 
L 2931 347 
L 2931 1631 
Q 2931 2084 2911 2256 
Q 2891 2428 2841 2509 
Q 2775 2619 2662 2680 
Q 2550 2741 2406 2741 
Q 2056 2741 1856 2470 
Q 1656 2200 1656 1722 
L 1656 0 
L 538 0 
L 538 3500 
L 1656 3500 
L 1656 2988 
Q 1909 3294 2193 3439 
Q 2478 3584 2822 3584 
Q 3428 3584 3742 3212 
Q 4056 2841 4056 2131 
z
" transform="scale(0.015625)"/>
     </defs>
     <use xlink:href="#DejaVuSans-Bold-32"/>
     <use xlink:href="#DejaVuSans-Bold-2e" transform="translate(69.580078 0)"/>
     <use xlink:href="#DejaVuSans-Bold-20" transform="translate(107.568359 0)"/>
     <use xlink:href="#DejaVuSans-Bold-43" transform="translate(142.382812 0)"/>
     <use xlink:href="#DejaVuSans-Bold-6c" transform="translate(215.771484 0)"/>
     <use xlink:href="#DejaVuSans-Bold-65" transform="translate(250.048828 0)"/>
     <use xlink:href="#DejaVuSans-Bold-61" transform="translate(317.871094 0)"/>
     <use xlink:href="#DejaVuSans-Bold-6e" transform="translate(385.351562 0)"/>
    </g>
   </g>
   <g id="patch_9">
    <path d="M 274.252588 118.08 
Q 277.831938 118.08 279.17522 118.08 
" style="fill: none; stroke: #1e3a5f; stroke-width: 2; stroke-linecap: round"/>
    <path d="M 275.17522 116.08 
L 279.17522 118.08 
L 275.17522 120.08 
" style="fill: none; stroke: #1e3a5f; stroke-width: 2; stroke-linecap: round"/>
   </g>
   <g id="text_3">
    <!-- 3. Explore -->
    <g style="fill: #1e3a5f" transform="translate(310.821016 118.08) scale(0.11 -0.11)">
     <defs>
      <path id="DejaVuSans-Bold-33" d="M 2981 2516 
Q 3453 2394 3698 2092 
Q 3944 1791 3944 1325 
Q 3944 631 3412 270 
Q 2881 -91 1863 -91 
Q 1503 -91 1142 -33 
Q 781 25 428 141 
L 428 1069 
Q 766 900 1098 814 
Q 1431 728 1753 728 
Q 2231 728 2486 893 
Q 2741 1059 2741 1369 
Q 2741 1688 2480 1852 
Q 2219 2016 1709 2016 
L 1228 2016 
L 1228 2791 
L 1734 2791 
Q 2188 2791 2409 2933 
Q 2631 3075 2631 3366 
Q 2631 3634 2415 3781 
Q 2200 3928 1806 3928 
Q 1516 3928 1219 3862 
Q 922 3797 628 3669 
L 628 4550 
Q 984 4650 1334 4700 
Q 1684 4750 2022 4750 
Q 2931 4750 3382 4451 
Q 3834 4153 3834 3553 
Q 3834 3144 3618 2883 
Q 3403 2622 2981 2516 
z
" transform="scale(0.015625)"/>
      <path id="DejaVuSans-Bold-45" d="M 588 4666 
L 3834 4666 
L 3834 3756 
L 1791 3756 
L 1791 2888 
L 3713 2888 
L 3713 1978 
L 1791 1978 
L 1791 909 
L 3903 909 
L 3903 0 
L 588 0 
L 588 4666 
z
" transform="scale(0.015625)"/>
      <path id="DejaVuSans-Bold-78" d="M 1422 1791 
L 159 3500 
L 1344 3500 
L 2059 2463 
L 2784 3500 
L 3969 3500 
L 2706 1797 
L 4031 0 
L 2847 0 
L 2059 1106 
L 1281 0 
L 97 0 
L 1422 1791 
z
" transform="scale(0.015625)"/>
      <path id="DejaVuSans-Bold-70" d="M 1656 506 
L 1656 -1331 
L 538 -1331 
L 538 3500 
L 1656 3500 
L 1656 2988 
Q 1888 3294 2169 3439 
Q 2450 3584 2816 3584 
Q 3463 3584 3878 3070 
Q 4294 2556 4294 1747 
Q 4294 938 3878 423 
Q 3463 -91 2816 -91 
Q 2450 -91 2169 54 
Q 1888 200 1656 506 
z
M 2400 2772 
Q 2041 2772 1848 2508 
Q 1656 2244 1656 1747 
Q 1656 1250 1848 986 
Q 2041 722 2400 722 
Q 2759 722 2948 984 
Q 3138 1247 3138 1747 
Q 3138 2247 2948 2509 
Q 2759 2772 2400 2772 
z
" transform="scale(0.015625)"/>
      <path id="DejaVuSans-Bold-72" d="M 3138 2547 
Q 2991 2616 2845 2648 
Q 2700 2681 2553 2681 
Q 2122 2681 1889 2404 
Q 1656 2128 1656 1613 
L 1656 0 
L 538 0 
L 538 3500 
L 1656 3500 
L 1656 2925 
Q 1872 3269 2151 3426 
Q 2431 3584 2822 3584 
Q 2878 3584 2943 3579 
Q 3009 3575 3134 3559 
L 3138 2547 
z
" transform="scale(0.015625)"/>
     </defs>
     <use xlink:href="#DejaVuSans-Bold-33"/>
     <use xlink:href="#DejaVuSans-Bold-2e" transform="translate(69.580078 0)"/>
     <use xlink:href="#DejaVuSans-Bold-20" transform="translate(107.568359 0)"/>
     <use xlink:href="#DejaVuSans-Bold-45" transform="translate(142.382812 0)"/>
     <use xlink:href="#DejaVuSans-Bold-78" transform="translate(210.693359 0)"/>
     <use xlink:href="#DejaVuSans-Bold-70" transform="translate(275.195312 0)"/>
     <use xlink:href="#DejaVuSans-Bold-6c" transform="translate(346.777344 0)"/>
     <use xlink:href="#DejaVuSans-Bold-6f" transform="translate(381.054688 0)"/>
     <use xlink:href="#DejaVuSans-Bold-72" transform="translate(449.755859 0)"/>
     <use xlink:href="#DejaVuSans-Bold-65" transform="translate(499.072266 0)"/>
    </g>
   </g>
   <g id="patch_10">
    <path d="M 402.592588 118.08 
Q 406.171938 118.08 407.51522 118.08 
" style="fill: none; stroke: #1e3a5f; stroke-width: 2; stroke-linecap: round"/>
    <path d="M 403.51522 116.08 
L 407.51522 118.08 
L 403.51522 120.08 
" style="fill: none; stroke: #1e3a5f; stroke-width: 2; stroke-linecap: round"/>
   </g>
   <g id="text_4">
    <!-- 4. Transform -->
    <g style="fill: #1e3a5f" transform="translate(431.135312 118.08) scale(0.11 -0.11)">
     <defs>
      <path id="DejaVuSans-Bold-34" d="M 2356 3675 
L 1038 1722 
L 2356 1722 
L 2356 3675 
z
M 2156 4666 
L 3494 4666 
L 3494 1722 
L 4159 1722 
L 4159 850 
L 3494 850 
L 3494 0 
L 2356 0 
L 2356 850 
L 288 850 
L 288 1881 
L 2156 4666 
z
" transform="scale(0.015625)"/>
      <path id="DejaVuSans-Bold-54" d="M 31 4666 
L 4331 4666 
L 4331 3756 
L 2784 3756 
L 2784 0 
L 1581 0 
L 1581 3756 
L 31 3756 
L 31 4666 
z
" transform="scale(0.015625)"/>
      <path id="DejaVuSans-Bold-73" d="M 3272 3391 
L 3272 2541 
Q 2913 2691 2578 2766 
Q 2244 2841 1947 2841 
Q 1628 2841 1473 2761 
Q 1319 2681 1319 2516 
Q 1319 2381 1436 2309 
Q 1553 2238 1856 2203 
L 2053 2175 
Q 2913 2066 3209 1816 
Q 3506 1566 3506 1031 
Q 3506 472 3093 190 
Q 2681 -91 1863 -91 
Q 1516 -91 1145 -36 
Q 775 19 384 128 
L 384 978 
Q 719 816 1070 734 
Q 1422 653 1784 653 
Q 2113 653 2278 743 
Q 2444 834 2444 1013 
Q 2444 1163 2330 1236 
Q 2216 1309 1875 1350 
L 1678 1375 
Q 931 1469 631 1722 
Q 331 1975 331 2491 
Q 331 3047 712 3315 
Q 1094 3584 1881 3584 
Q 2191 3584 2531 3537 
Q 2872 3491 3272 3391 
z
" transform="scale(0.015625)"/>
      <path id="DejaVuSans-Bold-66" d="M 2841 4863 
L 2841 4128 
L 2222 4128 
Q 1984 4128 1890 4042 
Q 1797 3956 1797 3744 
L 1797 3500 
L 2753 3500 
L 2753 2700 
L 1797 2700 
L 1797 0 
L 678 0 
L 678 2700 
L 122 2700 
L 122 3500 
L 678 3500 
L 678 3744 
Q 678 4316 997 4589 
Q 1316 4863 1984 4863 
L 2841 4863 
z
" transform="scale(0.015625)"/>
      <path id="DejaVuSans-Bold-6d" d="M 3781 2919 
Q 3994 3244 4286 3414 
Q 4578 3584 4928 3584 
Q 5531 3584 5847 3212 
Q 6163 2841 6163 2131 
L 6163 0 
L 5038 0 
L 5038 1825 
Q 5041 1866 5042 1909 
Q 5044 1953 5044 2034 
Q 5044 2406 4934 2573 
Q 4825 2741 4581 2741 
Q 4263 2741 4089 2478 
Q 3916 2216 3909 1719 
L 3909 0 
L 2784 0 
L 2784 1825 
Q 2784 2406 2684 2573 
Q 2584 2741 2328 2741 
Q 2006 2741 1831 2477 
Q 1656 2213 1656 1722 
L 1656 0 
L 531 0 
L 531 3500 
L 1656 3500 
L 1656 2988 
Q 1863 3284 2130 3434 
Q 2397 3584 2719 3584 
Q 3081 3584 3359 3409 
Q 3638 3234 3781 2919 
z
" transform="scale(0.015625)"/>
     </defs>
     <use xlink:href="#DejaVuSans-Bold-34"/>
     <use xlink:href="#DejaVuSans-Bold-2e" transform="translate(69.580078 0)"/>
     <use xlink:href="#DejaVuSans-Bold-20" transform="translate(107.568359 0)"/>
     <use xlink:href="#DejaVuSans-Bold-54" transform="translate(142.382812 0)"/>
     <use xlink:href="#DejaVuSans-Bold-72" transform="translate(199.595703 0)"/>
     <use xlink:href="#DejaVuSans-Bold-61" transform="translate(248.912109 0)"/>
     <use xlink:href="#DejaVuSans-Bold-6e" transform="translate(316.392578 0)"/>
     <use xlink:href="#DejaVuSans-Bold-73" transform="translate(387.583984 0)"/>
     <use xlink:href="#DejaVuSans-Bold-66" transform="translate(447.105469 0)"/>
     <use xlink:href="#DejaVuSans-Bold-6f" transform="translate(490.611328 0)"/>
     <use xlink:href="#DejaVuSans-Bold-72" transform="translate(559.3125 0)"/>
     <use xlink:href="#DejaVuSans-Bold-6d" transform="translate(608.628906 0)"/>
    </g>
   </g>
   <g id="patch_11">
    <path d="M 530.932588 118.08 
Q 534.511938 118.08 535.85522 118.08 
" style="fill: none; stroke: #1e3a5f; stroke-width: 2; stroke-linecap: round"/>
    <path d="M 531.85522 116.08 
L 535.85522 118.08 
L 531.85522 120.08 
" style="fill: none; stroke: #1e3a5f; stroke-width: 2; stroke-linecap: round"/>
   </g>
   <g id="text_5">
    <!-- 5. Split -->
    <g style="fill: #1e3a5f" transform="translate(576.551953 118.08) scale(0.11 -0.11)">
     <defs>
      <path id="DejaVuSans-Bold-35" d="M 678 4666 
L 3669 4666 
L 3669 3781 
L 1638 3781 
L 1638 3059 
Q 1775 3097 1914 3117 
Q 2053 3138 2203 3138 
Q 3056 3138 3531 2711 
Q 4006 2284 4006 1522 
Q 4006 766 3489 337 
Q 2972 -91 2053 -91 
Q 1656 -91 1267 -14 
Q 878 63 494 219 
L 494 1166 
Q 875 947 1217 837 
Q 1559 728 1863 728 
Q 2300 728 2551 942 
Q 2803 1156 2803 1522 
Q 2803 1891 2551 2103 
Q 2300 2316 1863 2316 
Q 1603 2316 1309 2248 
Q 1016 2181 678 2041 
L 678 4666 
z
" transform="scale(0.015625)"/>
      <path id="DejaVuSans-Bold-53" d="M 3834 4519 
L 3834 3531 
Q 3450 3703 3084 3790 
Q 2719 3878 2394 3878 
Q 1963 3878 1756 3759 
Q 1550 3641 1550 3391 
Q 1550 3203 1689 3098 
Q 1828 2994 2194 2919 
L 2706 2816 
Q 3484 2659 3812 2340 
Q 4141 2022 4141 1434 
Q 4141 663 3683 286 
Q 3225 -91 2284 -91 
Q 1841 -91 1394 -6 
Q 947 78 500 244 
L 500 1259 
Q 947 1022 1364 901 
Q 1781 781 2169 781 
Q 2563 781 2772 912 
Q 2981 1044 2981 1288 
Q 2981 1506 2839 1625 
Q 2697 1744 2272 1838 
L 1806 1941 
Q 1106 2091 782 2419 
Q 459 2747 459 3303 
Q 459 4000 909 4375 
Q 1359 4750 2203 4750 
Q 2588 4750 2994 4692 
Q 3400 4634 3834 4519 
z
" transform="scale(0.015625)"/>
      <path id="DejaVuSans-Bold-69" d="M 538 3500 
L 1656 3500 
L 1656 0 
L 538 0 
L 538 3500 
z
M 538 4863 
L 1656 4863 
L 1656 3950 
L 538 3950 
L 538 4863 
z
" transform="scale(0.015625)"/>
     </defs>
     <use xlink:href="#DejaVuSans-Bold-35"/>
     <use xlink:href="#DejaVuSans-Bold-2e" transform="translate(69.580078 0)"/>
     <use xlink:href="#DejaVuSans-Bold-20" transform="translate(107.568359 0)"/>
     <use xlink:href="#DejaVuSans-Bold-53" transform="translate(142.382812 0)"/>
     <use xlink:href="#DejaVuSans-Bold-70" transform="translate(214.404297 0)"/>
     <use xlink:href="#DejaVuSans-Bold-6c" transform="translate(285.986328 0)"/>
     <use xlink:href="#DejaVuSans-Bold-69" transform="translate(320.263672 0)"/>
     <use xlink:href="#DejaVuSans-Bold-74" transform="translate(354.541016 0)"/>
    </g>
   </g>
   <g id="patch_12">
    <path d="M 659.272588 118.08 
Q 662.851938 118.08 664.19522 118.08 
" style="fill: none; stroke: #1e3a5f; stroke-width: 2; stroke-linecap: round"/>
    <path d="M 660.19522 116.08 
L 664.19522 118.08 
L 660.19522 120.08 
" style="fill: none; stroke: #1e3a5f; stroke-width: 2; stroke-linecap: round"/>
   </g>
   <g id="text_6">
    <!-- 6. Use -->
    <g style="fill: #1e3a5f" transform="translate(707.719297 118.08) scale(0.11 -0.11)">
     <defs>
      <path id="DejaVuSans-Bold-36" d="M 2316 2303 
Q 2000 2303 1842 2098 
Q 1684 1894 1684 1484 
Q 1684 1075 1842 870 
Q 2000 666 2316 666 
Q 2634 666 2792 870 
Q 2950 1075 2950 1484 
Q 2950 1894 2792 2098 
Q 2634 2303 2316 2303 
z
M 3803 4544 
L 3803 3681 
Q 3506 3822 3243 3889 
Q 2981 3956 2731 3956 
Q 2194 3956 1894 3657 
Q 1594 3359 1544 2772 
Q 1750 2925 1990 3001 
Q 2231 3078 2516 3078 
Q 3231 3078 3670 2659 
Q 4109 2241 4109 1563 
Q 4109 813 3618 361 
Q 3128 -91 2303 -91 
Q 1394 -91 895 523 
Q 397 1138 397 2266 
Q 397 3422 980 4083 
Q 1563 4744 2578 4744 
Q 2900 4744 3203 4694 
Q 3506 4644 3803 4544 
z
" transform="scale(0.015625)"/>
      <path id="DejaVuSans-Bold-55" d="M 588 4666 
L 1791 4666 
L 1791 1869 
Q 1791 1291 1980 1042 
Q 2169 794 2597 794 
Q 3028 794 3217 1042 
Q 3406 1291 3406 1869 
L 3406 4666 
L 4609 4666 
L 4609 1869 
Q 4609 878 4112 393 
Q 3616 -91 2597 -91 
Q 1581 -91 1084 393 
Q 588 878 588 1869 
L 588 4666 
z
" transform="scale(0.015625)"/>
     </defs>
     <use xlink:href="#DejaVuSans-Bold-36"/>
     <use xlink:href="#DejaVuSans-Bold-2e" transform="translate(69.580078 0)"/>
     <use xlink:href="#DejaVuSans-Bold-20" transform="translate(107.568359 0)"/>
     <use xlink:href="#DejaVuSans-Bold-55" transform="translate(142.382812 0)"/>
     <use xlink:href="#DejaVuSans-Bold-73" transform="translate(223.583984 0)"/>
     <use xlink:href="#DejaVuSans-Bold-65" transform="translate(283.105469 0)"/>
    </g>
   </g>
  </g>
 </g>
 <defs>
  <clipPath id="pe10f74b543">
   <rect x="7.2" y="7.2" width="781.2" height="221.76"/>
  </clipPath>
 </defs>
</svg>
