<?xml version="1.0" encoding="utf-8" standalone="no"?>
<!DOCTYPE svg PUBLIC "-//W3C//DTD SVG 1.1//EN"
  "http://www.w3.org/Graphics/SVG/1.1/DTD/svg11.dtd">
<svg xmlns:xlink="http://www.w3.org/1999/xlink" width="795.6pt" height="291.6pt" viewBox="0 0 795.6 291.6" xmlns="http://www.w3.org/2000/svg" version="1.1">
 <metadata>
  <rdf:RDF xmlns:dc="http://purl.org/dc/elements/1.1/" xmlns:cc="http://creativecommons.org/ns#" xmlns:rdf="http://www.w3.org/1999/02/22-rdf-syntax-ns#">
   <cc:Work>
    <dc:type rdf:resource="http://purl.org/dc/dcmitype/StillImage"/>
    <dc:date>2026-01-06T07:09:44.781572</dc:date>
    <dc:format>image/svg+xml</dc:format>
    <dc:creator>
     <cc:Agent>
      <dc:title>Matplotlib v3.10.6, https://matplotlib.org/</dc:title>
     </cc:Agent>
    </dc:creator>
   </cc:Work>
  </rdf:RDF>
 </metadata>
 <defs>
  <style type="text/css">*{stroke-linejoin: round; stroke-linecap: butt}</style>
 </defs>
 <g id="figure_1">
  <g id="patch_1">
   <path d="M 0 291.6 
L 795.6 291.6 
L 795.6 0 
L 0 0 
z
" style="fill: #ffffff"/>
  </g>
  <g id="axes_1">
   <g id="patch_2">
    <path d="M 38.448 256.68 
L 213.4368 256.68 
Q 219.6864 256.68 219.6864 249.75 
L 219.6864 41.85 
Q 219.6864 34.92 213.4368 34.92 
L 38.448 34.92 
Q 32.1984 34.92 32.1984 41.85 
L 32.1984 249.75 
Q 32.1984 256.68 38.448 256.68 
z
" clip-path="url(#p6530cc68d1)" style="fill: #3b82f6; opacity: 0.2; stroke: #1e3a5f; stroke-width: 2; stroke-linejoin: miter"/>
   </g>
   <g id="patch_3">
    <path d="M 232.1856 256.68 
L 407.1744 256.68 
Q 413.424 256.68 413.424 249.75 
L 413.424 41.85 
Q 413.424 34.92 407.1744 34.92 
L 232.1856 34.92 
Q 225.936 34.92 225.936 41.85 
L 225.936 249.75 
Q 225.936 256.68 232.1856 256.68 
z
" clip-path="url(#p6530cc68d1)" style="fill: #2a9d8f; opacity: 0.2; stroke: #1e3a5f; stroke-width: 2; stroke-linejoin: miter"/>
   </g>
   <g id="patch_4">
    <path d="M 425.9232 256.68 
L 600.912 256.68 
Q 607.1616 256.68 607.1616 249.75 
L 607.1616 41.85 
Q 607.1616 34.92 600.912 34.92 
L 425.9232 34.92 
Q 419.6736 34.92 419.6736 41.85 
L 419.6736 249.75 
Q 419.6736 256.68 425.9232 256.68 
z
" clip-path="url(#p6530cc68d1)" style="fill: #e9c46a; opacity: 0.2; stroke: #1e3a5f; stroke-width: 2; stroke-linejoin: miter"/>
   </g>
   <g id="patch_5">
    <path d="M 619.6608 256.68 
L 794.6496 256.68 
Q 800.8992 256.68 800.8992 249.75 
L 800.8992 41.85 
Q 800.8992 34.92 794.6496 34.92 
L 619.6608 34.92 
Q 613.4112 34.92 613.4112 41.85 
L 613.4112 249.75 
Q 613.4112 256.68 619.6608 256.68 
z
" clip-path="url(#p6530cc68d1)" style="fill: #e85a4f; opacity: 0.2; stroke: #1e3a5f; stroke-width: 2; stroke-linejoin: miter"/>
   </g>
   <g id="text_1">
    <!-- Tabular -->
    <g style="fill: #1e3a5f" transform="translate(98.858728 69.57) scale(0.13 -0.13)">
     <defs>
      <path id="DejaVuSans-Bold-54" d="M 31 4666 
L 4331 4666 
L 4331 3756 
L 2784 3756 
L 2784 0 
L 1581 0 
L 1581 3756 
L 31 3756 
L 31 4666 
z
" transform="scale(0.015625)"/>
      <path id="DejaVuSans-Bold-61" d="M 2106 1575 
Q 1756 1575 1579 1456 
Q 1403 1338 1403 1106 
Q 1403 894 1545 773 
Q 1688 653 1941 653 
Q 2256 653 2472 879 
Q 2688 1106 2688 1447 
L 2688 1575 
L 2106 1575 
z
M 3816 1997 
L 3816 0 
L 2688 0 
L 2688 519 
Q 2463 200 2181 54 
Q 1900 -91 1497 -91 
Q 953 -91 614 226 
Q 275 544 275 1050 
Q 275 1666 698 1953 
Q 1122 2241 2028 2241 
L 2688 2241 
L 2688 2328 
Q 2688 2594 2478 2717 
Q 2269 2841 1825 2841 
Q 1466 2841 1156 2769 
Q 847 2697 581 2553 
L 581 3406 
Q 941 3494 1303 3539 
Q 1666 3584 2028 3584 
Q 2975 3584 3395 3211 
Q 3816 2838 3816 1997 
z
" transform="scale(0.015625)"/>
      <path id="DejaVuSans-Bold-62" d="M 2400 722 
Q 2759 722 2948 984 
Q 3138 1247 3138 1747 
Q 3138 2247 2948 2509 
Q 2759 2772 2400 2772 
Q 2041 2772 1848 2508 
Q 1656 2244 1656 1747 
Q 1656 1250 1848 986 
Q 2041 722 2400 722 
z
M 1656 2988 
Q 1888 3294 2169 3439 
Q 2450 3584 2816 3584 
Q 3463 3584 3878 3070 
Q 4294 2556 4294 1747 
Q 4294 938 3878 423 
Q 3463 -91 2816 -91 
Q 2450 -91 2169 54 
Q 1888 200 1656 506 
L 1656 0 
L 538 0 
L 538 4863 
L 1656 4863 
L 1656 2988 
z
" transform="scale(0.015625)"/>
      <path id="DejaVuSans-Bold-75" d="M 500 1363 
L 500 3500 
L 1625 3500 
L 1625 3150 
Q 1625 2866 1622 2436 
Q 1619 2006 1619 1863 
Q 1619 1441 1641 1255 
Q 1663 1069 1716 984 
Q 1784 875 1895 815 
Q 2006 756 2150 756 
Q 2500 756 2700 1025 
Q 2900 1294 2900 1772 
L 2900 3500 
L 4019 3500 
L 4019 0 
L 2900 0 
L 2900 506 
Q 2647 200 2364 54 
Q 2081 -91 1741 -91 
Q 1134 -91 817 281 
Q 500 653 500 1363 
z
" transform="scale(0.015625)"/>
      <path id="DejaVuSans-Bold-6c" d="M 538 4863 
L 1656 4863 
L 1656 0 
L 538 0 
L 538 4863 
z
" transform="scale(0.015625)"/>
      <path id="DejaVuSans-Bold-72" d="M 3138 2547 
Q 2991 2616 2845 2648 
Q 2700 2681 2553 2681 
Q 2122 2681 1889 2404 
Q 1656 2128 1656 1613 
L 1656 0 
L 538 0 
L 538 3500 
L 1656 3500 
L 1656 2925 
Q 1872 3269 2151 3426 
Q 2431 3584 2822 3584 
Q 2878 3584 2943 3579 
Q 3009 3575 3134 3559 
L 3138 2547 
z
" transform="scale(0.015625)"/>
     </defs>
     <use xlink:href="#DejaVuSans-Bold-54"/>
     <use xlink:href="#DejaVuSans-Bold-61" transform="translate(55.337891 0)"/>
     <use xlink:href="#DejaVuSans-Bold-62" transform="translate(122.818359 0)"/>
     <use xlink:href="#DejaVuSans-Bold-75" transform="translate(194.400391 0)"/>
     <use xlink:href="#DejaVuSans-Bold-6c" transform="translate(265.591797 0)"/>
     <use xlink:href="#DejaVuSans-Bold-61" transform="translate(299.869141 0)"/>
     <use xlink:href="#DejaVuSans-Bold-72" transform="translate(367.349609 0)"/>
    </g>
   </g>
   <g id="text_2">
    <!-- ┌───┬───┐ -->
    <g style="fill: #2d3748" transform="translate(101.560134 138.151266) scale(0.09 -0.09)">
     <defs>
      <path id="DejaVuSansMono-250c" d="M 1675 -1600 
L 1675 2469 
L 3916 2469 
L 3916 1931 
L 2175 1931 
L 2175 -1600 
L 1675 -1600 
z
" transform="scale(0.015625)"/>
      <path id="DejaVuSansMono-2500" d="M -63 1931 
L -63 2469 
L 3916 2469 
L 3916 1931 
L -63 1931 
z
" transform="scale(0.015625)"/>
      <path id="DejaVuSansMono-252c" d="M 1675 -1600 
L 1675 1931 
L -63 1931 
L -63 2469 
L 3916 2469 
L 3916 1931 
L 2175 1931 
L 2175 -1600 
L 1675 -1600 
z
" transform="scale(0.015625)"/>
      <path id="DejaVuSansMono-2510" d="M 1675 -1600 
L 1675 1931 
L -63 1931 
L -63 2469 
L 2175 2469 
L 2175 -1600 
L 1675 -1600 
z
" transform="scale(0.015625)"/>
     </defs>
     <use xlink:href="#DejaVuSansMono-250c"/>
     <use xlink:href="#DejaVuSansMono-2500" transform="translate(60.205078 0)"/>
     <use xlink:href="#DejaVuSansMono-2500" transform="translate(120.410156 0)"/>
     <use xlink:href="#DejaVuSansMono-2500" transform="translate(180.615234 0)"/>
     <use xlink:href="#DejaVuSansMono-252c" transform="translate(240.820312 0)"/>
     <use xlink:href="#DejaVuSansMono-2500" transform="translate(301.025391 0)"/>
     <use xlink:href="#DejaVuSansMono-2500" transform="translate(361.230469 0)"/>
     <use xlink:href="#DejaVuSansMono-2500" transform="translate(421.435547 0)"/>
     <use xlink:href="#DejaVuSansMono-2510" transform="translate(481.640625 0)"/>
    </g>
    <!-- │ A │ B │ -->
    <g style="fill: #2d3748" transform="translate(101.560134 150.531328) scale(0.09 -0.09)">
     <defs>
      <path id="DejaVuSansMono-2502" d="M 1675 -1600 
L 1675 6003 
L 2175 6003 
L 2175 -1600 
L 1675 -1600 
z
" transform="scale(0.015625)"/>
      <path id="DejaVuSansMono-20" transform="scale(0.015625)"/>
      <path id="DejaVuSansMono-41" d="M 1925 4109 
L 1259 1722 
L 2591 1722 
L 1925 4109 
z
M 1544 4666 
L 2309 4666 
L 3738 0 
L 3084 0 
L 2741 1216 
L 1106 1216 
L 769 0 
L 116 0 
L 1544 4666 
z
" transform="scale(0.015625)"/>
      <path id="DejaVuSansMono-42" d="M 1153 2228 
L 1153 519 
L 1900 519 
Q 2450 519 2684 711 
Q 2919 903 2919 1344 
Q 2919 1800 2672 2014 
Q 2425 2228 1900 2228 
L 1153 2228 
z
M 1153 4147 
L 1153 2741 
L 1888 2741 
Q 2344 2741 2548 2916 
Q 2753 3091 2753 3481 
Q 2753 3834 2551 3990 
Q 2350 4147 1888 4147 
L 1153 4147 
z
M 519 4666 
L 1900 4666 
Q 2616 4666 3003 4356 
Q 3391 4047 3391 3481 
Q 3391 3053 3186 2806 
Q 2981 2559 2572 2497 
Q 3031 2428 3292 2104 
Q 3553 1781 3553 1281 
Q 3553 647 3137 323 
Q 2722 0 1900 0 
L 519 0 
L 519 4666 
z
" transform="scale(0.015625)"/>
     </defs>
     <use xlink:href="#DejaVuSansMono-2502"/>
     <use xlink:href="#DejaVuSansMono-20" transform="translate(60.205078 0)"/>
     <use xlink:href="#DejaVuSansMono-41" transform="translate(120.410156 0)"/>
     <use xlink:href="#DejaVuSansMono-20" transform="translate(180.615234 0)"/>
     <use xlink:href="#DejaVuSansMono-2502" transform="translate(240.820312 0)"/>
     <use xlink:href="#DejaVuSansMono-20" transform="translate(301.025391 0)"/>
     <use xlink:href="#DejaVuSansMono-42" transform="translate(361.230469 0)"/>
     <use xlink:href="#DejaVuSansMono-20" transform="translate(421.435547 0)"/>
     <use xlink:href="#DejaVuSansMono-2502" transform="translate(481.640625 0)"/>
    </g>
    <!-- ├───┼───┤ -->
    <g style="fill: #2d3748" transform="translate(101.560134 162.911391) scale(0.09 -0.09)">
     <defs>
      <path id="DejaVuSansMono-251c" d="M 1675 -1600 
L 1675 6003 
L 2175 6003 
L 2175 2469 
L 3916 2469 
L 3916 1931 
L 2175 1931 
L 2175 -1600 
L 1675 -1600 
z
" transform="scale(0.015625)"/>
      <path id="DejaVuSansMono-253c" d="M 2175 1931 
L 2175 -1600 
L 1675 -1600 
L 1675 1931 
L -63 1931 
L -63 2469 
L 1675 2469 
L 1675 6003 
L 2175 6003 
L 2175 2469 
L 3916 2469 
L 3916 1931 
L 2175 1931 
z
" transform="scale(0.015625)"/>
      <path id="DejaVuSansMono-2524" d="M 1675 -1600 
L 1675 1931 
L -63 1931 
L -63 2469 
L 1675 2469 
L 1675 6003 
L 2175 6003 
L 2175 -1600 
L 1675 -1600 
z
" transform="scale(0.015625)"/>
     </defs>
     <use xlink:href="#DejaVuSansMono-251c"/>
     <use xlink:href="#DejaVuSansMono-2500" transform="translate(60.205078 0)"/>
     <use xlink:href="#DejaVuSansMono-2500" transform="translate(120.410156 0)"/>
     <use xlink:href="#DejaVuSansMono-2500" transform="translate(180.615234 0)"/>
     <use xlink:href="#DejaVuSansMono-253c" transform="translate(240.820312 0)"/>
     <use xlink:href="#DejaVuSansMono-2500" transform="translate(301.025391 0)"/>
     <use xlink:href="#DejaVuSansMono-2500" transform="translate(361.230469 0)"/>
     <use xlink:href="#DejaVuSansMono-2500" transform="translate(421.435547 0)"/>
     <use xlink:href="#DejaVuSansMono-2524" transform="translate(481.640625 0)"/>
    </g>
    <!-- │ 1 │ 2 │ -->
    <g style="fill: #2d3748" transform="translate(101.560134 175.291453) scale(0.09 -0.09)">
     <defs>
      <path id="DejaVuSansMono-31" d="M 844 531 
L 1825 531 
L 1825 4097 
L 769 3859 
L 769 4434 
L 1819 4666 
L 2450 4666 
L 2450 531 
L 3419 531 
L 3419 0 
L 844 0 
L 844 531 
z
" transform="scale(0.015625)"/>
      <path id="DejaVuSansMono-32" d="M 1166 531 
L 3309 531 
L 3309 0 
L 475 0 
L 475 531 
Q 1059 1147 1496 1619 
Q 1934 2091 2100 2284 
Q 2413 2666 2522 2902 
Q 2631 3138 2631 3384 
Q 2631 3775 2401 3997 
Q 2172 4219 1772 4219 
Q 1488 4219 1175 4116 
Q 863 4013 513 3803 
L 513 4441 
Q 834 4594 1145 4672 
Q 1456 4750 1759 4750 
Q 2444 4750 2861 4386 
Q 3278 4022 3278 3431 
Q 3278 3131 3139 2831 
Q 3000 2531 2688 2169 
Q 2513 1966 2180 1606 
Q 1847 1247 1166 531 
z
" transform="scale(0.015625)"/>
     </defs>
     <use xlink:href="#DejaVuSansMono-2502"/>
     <use xlink:href="#DejaVuSansMono-20" transform="translate(60.205078 0)"/>
     <use xlink:href="#DejaVuSansMono-31" transform="translate(120.410156 0)"/>
     <use xlink:href="#DejaVuSansMono-20" transform="translate(180.615234 0)"/>
     <use xlink:href="#DejaVuSansMono-2502" transform="translate(240.820312 0)"/>
     <use xlink:href="#DejaVuSansMono-20" transform="translate(301.025391 0)"/>
     <use xlink:href="#DejaVuSansMono-32" transform="translate(361.230469 0)"/>
     <use xlink:href="#DejaVuSansMono-20" transform="translate(421.435547 0)"/>
     <use xlink:href="#DejaVuSansMono-2502" transform="translate(481.640625 0)"/>
    </g>
    <!-- └───┴───┘ -->
    <g style="fill: #2d3748" transform="translate(101.560134 185.805141) scale(0.09 -0.09)">
     <defs>
      <path id="DejaVuSansMono-2514" d="M 1675 1931 
L 1675 6003 
L 2175 6003 
L 2175 2469 
L 3916 2469 
L 3916 1931 
L 1675 1931 
z
" transform="scale(0.015625)"/>
      <path id="DejaVuSansMono-2534" d="M -63 1931 
L -63 2469 
L 1675 2469 
L 1675 6003 
L 2175 6003 
L 2175 2469 
L 3916 2469 
L 3916 1931 
L -63 1931 
z
" transform="scale(0.015625)"/>
      <path id="DejaVuSansMono-2518" d="M -63 1931 
L -63 2469 
L 1675 2469 
L 1675 6003 
L 2175 6003 
L 2175 1931 
L -63 1931 
z
" transform="scale(0.015625)"/>
     </defs>
     <use xlink:href="#DejaVuSansMono-2514"/>
     <use xlink:href="#DejaVuSansMono-2500" transform="translate(60.205078 0)"/>
     <use xlink:href="#DejaVuSansMono-2500" transform="translate(120.410156 0)"/>
     <use xlink:href="#DejaVuSansMono-2500" transform="translate(180.615234 0)"/>
     <use xlink:href="#DejaVuSansMono-2534" transform="translate(240.820312 0)"/>
     <use xlink:href="#DejaVuSansMono-2500" transform="translate(301.025391 0)"/>
     <use xlink:href="#DejaVuSansMono-2500" transform="translate(361.230469 0)"/>
     <use xlink:href="#DejaVuSansMono-2500" transform="translate(421.435547 0)"/>
     <use xlink:href="#DejaVuSansMono-2518" transform="translate(481.640625 0)"/>
    </g>
   </g>
   <g id="text_3">
    <!-- Image -->
    <g style="fill: #1e3a5f" transform="translate(297.040703 69.57) scale(0.13 -0.13)">
     <defs>
      <path id="DejaVuSans-Bold-49" d="M 588 4666 
L 1791 4666 
L 1791 0 
L 588 0 
L 588 4666 
z
" transform="scale(0.015625)"/>
      <path id="DejaVuSans-Bold-6d" d="M 3781 2919 
Q 3994 3244 4286 3414 
Q 4578 3584 4928 3584 
Q 5531 3584 5847 3212 
Q 6163 2841 6163 2131 
L 6163 0 
L 5038 0 
L 5038 1825 
Q 5041 1866 5042 1909 
Q 5044 1953 5044 2034 
Q 5044 2406 4934 2573 
Q 4825 2741 4581 2741 
Q 4263 2741 4089 2478 
Q 3916 2216 3909 1719 
L 3909 0 
L 2784 0 
L 2784 1825 
Q 2784 2406 2684 2573 
Q 2584 2741 2328 2741 
Q 2006 2741 1831 2477 
Q 1656 2213 1656 1722 
L 1656 0 
L 531 0 
L 531 3500 
L 1656 3500 
L 1656 2988 
Q 1863 3284 2130 3434 
Q 2397 3584 2719 3584 
Q 3081 3584 3359 3409 
Q 3638 3234 3781 2919 
z
" transform="scale(0.015625)"/>
      <path id="DejaVuSans-Bold-67" d="M 2919 594 
Q 2688 288 2409 144 
Q 2131 0 1766 0 
Q 1125 0 706 504 
Q 288 1009 288 1791 
Q 288 2575 706 3076 
Q 1125 3578 1766 3578 
Q 2131 3578 2409 3434 
Q 2688 3291 2919 2981 
L 2919 3500 
L 4044 3500 
L 4044 353 
Q 4044 -491 3511 -936 
Q 2978 -1381 1966 -1381 
Q 1638 -1381 1331 -1331 
Q 1025 -1281 716 -1178 
L 716 -306 
Q 1009 -475 1290 -558 
Q 1572 -641 1856 -641 
Q 2406 -641 2662 -400 
Q 2919 -159 2919 353 
L 2919 594 
z
M 2181 2772 
Q 1834 2772 1640 2515 
Q 1447 2259 1447 1791 
Q 1447 1309 1634 1061 
Q 1822 813 2181 813 
Q 2531 813 2725 1069 
Q 2919 1325 2919 1791 
Q 2919 2259 2725 2515 
Q 2531 2772 2181 2772 
z
" transform="scale(0.015625)"/>
      <path id="DejaVuSans-Bold-65" d="M 4031 1759 
L 4031 1441 
L 1416 1441 
Q 1456 1047 1700 850 
Q 1944 653 2381 653 
Q 2734 653 3104 758 
Q 3475 863 3866 1075 
L 3866 213 
Q 3469 63 3072 -14 
Q 2675 -91 2278 -91 
Q 1328 -91 801 392 
Q 275 875 275 1747 
Q 275 2603 792 3093 
Q 1309 3584 2216 3584 
Q 3041 3584 3536 3087 
Q 4031 2591 4031 1759 
z
M 2881 2131 
Q 2881 2450 2695 2645 
Q 2509 2841 2209 2841 
Q 1884 2841 1681 2658 
Q 1478 2475 1428 2131 
L 2881 2131 
z
" transform="scale(0.015625)"/>
     </defs>
     <use xlink:href="#DejaVuSans-Bold-49"/>
     <use xlink:href="#DejaVuSans-Bold-6d" transform="translate(37.207031 0)"/>
     <use xlink:href="#DejaVuSans-Bold-61" transform="translate(141.40625 0)"/>
     <use xlink:href="#DejaVuSans-Bold-67" transform="translate(208.886719 0)"/>
     <use xlink:href="#DejaVuSans-Bold-65" transform="translate(280.46875 0)"/>
    </g>
   </g>
   <g id="text_4">
    <!-- █▓▒░░▒▓█ -->
    <g style="fill: #2d3748" transform="translate(298.006875 144.473484) scale(0.09 -0.09)">
     <defs>
      <path id="DejaVuSansMono-2588" d="M -63 -1600 
L -63 6003 
L 3916 6003 
L 3916 -1600 
L -63 -1600 
z
" transform="scale(0.015625)"/>
      <path id="DejaVuSansMono-2593" d="M 1925 3309 
L 2406 3309 
L 2406 4000 
L 1925 4000 
L 1925 3309 
z
M 963 2341 
L 1444 2341 
L 1444 3034 
L 963 3034 
L 963 2341 
z
M 2888 2341 
L 3372 2341 
L 3372 3034 
L 2888 3034 
L 2888 2341 
z
M 1925 1369 
L 2406 1369 
L 2406 2063 
L 1925 2063 
L 1925 1369 
z
M 963 403 
L 1444 403 
L 1444 1094 
L 963 1094 
L 963 403 
z
M 2888 403 
L 3372 403 
L 3372 1094 
L 2888 1094 
L 2888 403 
z
M 1925 -569 
L 2406 -569 
L 2406 122 
L 1925 122 
L 1925 -569 
z
M 963 4281 
L 1444 4281 
L 1444 4972 
L 963 4972 
L 963 4281 
z
M 2888 4281 
L 3372 4281 
L 3372 4972 
L 2888 4972 
L 2888 4281 
z
M 2406 5941 
L 3853 5941 
L 3853 -1538 
L 3372 -1538 
L 3372 -847 
L 2888 -847 
L 2888 -1538 
L 1444 -1538 
L 1444 -847 
L 963 -847 
L 963 -1538 
L 0 -1538 
L 0 -569 
L 478 -569 
L 478 122 
L 0 122 
L 0 1369 
L 478 1369 
L 478 2063 
L 0 2063 
L 0 3309 
L 478 3309 
L 478 4000 
L 0 4000 
L 0 5250 
L 478 5250 
L 478 5941 
L 1925 5941 
L 1925 5250 
L 2406 5250 
L 2406 5941 
z
" transform="scale(0.015625)"/>
      <path id="DejaVuSansMono-2592" d="M 3213 2947 
L 3213 3697 
L 3853 3697 
L 3853 2947 
L 3213 2947 
z
M 2569 3697 
L 2569 4444 
L 3213 4444 
L 3213 3697 
L 2569 3697 
z
M 2569 2200 
L 2569 2947 
L 3213 2947 
L 3213 2200 
L 2569 2200 
z
M 3213 1453 
L 3213 2200 
L 3853 2200 
L 3853 1453 
L 3213 1453 
z
M 2569 706 
L 2569 1453 
L 3213 1453 
L 3213 706 
L 2569 706 
z
M 3213 -44 
L 3213 706 
L 3853 706 
L 3853 -44 
L 3213 -44 
z
M 2569 -791 
L 2569 -44 
L 3213 -44 
L 3213 -791 
L 2569 -791 
z
M 3213 -1538 
L 3213 -791 
L 3853 -791 
L 3853 -1538 
L 3213 -1538 
z
M 1928 2947 
L 1928 3697 
L 2569 3697 
L 2569 2947 
L 1928 2947 
z
M 1288 3697 
L 1288 4444 
L 1928 4444 
L 1928 3697 
L 1288 3697 
z
M 1288 2200 
L 1288 2947 
L 1928 2947 
L 1928 2200 
L 1288 2200 
z
M 1928 1453 
L 1928 2200 
L 2569 2200 
L 2569 1453 
L 1928 1453 
z
M 1288 706 
L 1288 1453 
L 1928 1453 
L 1928 706 
L 1288 706 
z
M 1928 -44 
L 1928 706 
L 2569 706 
L 2569 -44 
L 1928 -44 
z
M 1288 -791 
L 1288 -44 
L 1928 -44 
L 1928 -791 
L 1288 -791 
z
M 1928 -1538 
L 1928 -791 
L 2569 -791 
L 2569 -1538 
L 1928 -1538 
z
M 638 2947 
L 638 3697 
L 1288 3697 
L 1288 2947 
L 638 2947 
z
M 0 3697 
L 0 4444 
L 638 4444 
L 638 3697 
L 0 3697 
z
M 0 2200 
L 0 2947 
L 638 2947 
L 638 2200 
L 0 2200 
z
M 638 1453 
L 638 2200 
L 1288 2200 
L 1288 1453 
L 638 1453 
z
M 0 706 
L 0 1453 
L 638 1453 
L 638 706 
L 0 706 
z
M 638 -44 
L 638 706 
L 1288 706 
L 1288 -44 
L 638 -44 
z
M 0 -791 
L 0 -44 
L 638 -44 
L 638 -791 
L 0 -791 
z
M 638 -1538 
L 638 -791 
L 1288 -791 
L 1288 -1538 
L 638 -1538 
z
M 3213 4444 
L 3213 5191 
L 3853 5191 
L 3853 4444 
L 3213 4444 
z
M 2569 5191 
L 2569 5938 
L 3213 5938 
L 3213 5191 
L 2569 5191 
z
M 1928 4444 
L 1928 5191 
L 2569 5191 
L 2569 4444 
L 1928 4444 
z
M 1288 5191 
L 1288 5938 
L 1928 5938 
L 1928 5191 
L 1288 5191 
z
M 638 4444 
L 638 5191 
L 1288 5191 
L 1288 4444 
L 638 4444 
z
M 0 5191 
L 0 5938 
L 638 5938 
L 638 5191 
L 0 5191 
z
" transform="scale(0.015625)"/>
      <path id="DejaVuSansMono-2591" d="M 2891 4281 
L 2891 4972 
L 3375 4972 
L 3375 4281 
L 2891 4281 
z
M 966 4281 
L 966 4972 
L 1447 4972 
L 1447 4281 
L 966 4281 
z
M 1928 5250 
L 1928 5941 
L 2409 5941 
L 2409 5250 
L 1928 5250 
z
M 0 5250 
L 0 5941 
L 481 5941 
L 481 5250 
L 0 5250 
z
M 2891 -1538 
L 2891 -847 
L 3375 -847 
L 3375 -1538 
L 2891 -1538 
z
M 966 -1538 
L 966 -847 
L 1447 -847 
L 1447 -1538 
L 966 -1538 
z
M 1928 -569 
L 1928 122 
L 2409 122 
L 2409 -569 
L 1928 -569 
z
M 0 -569 
L 0 122 
L 481 122 
L 481 -569 
L 0 -569 
z
M 2891 403 
L 2891 1094 
L 3375 1094 
L 3375 403 
L 2891 403 
z
M 966 403 
L 966 1094 
L 1447 1094 
L 1447 403 
L 966 403 
z
M 1928 1369 
L 1928 2063 
L 2409 2063 
L 2409 1369 
L 1928 1369 
z
M 0 1369 
L 0 2063 
L 481 2063 
L 481 1369 
L 0 1369 
z
M 2891 2341 
L 2891 3034 
L 3375 3034 
L 3375 2341 
L 2891 2341 
z
M 966 2341 
L 966 3034 
L 1447 3034 
L 1447 2341 
L 966 2341 
z
M 1928 3309 
L 1928 4000 
L 2409 4000 
L 2409 3309 
L 1928 3309 
z
M 0 3309 
L 0 4000 
L 481 4000 
L 481 3309 
L 0 3309 
z
" transform="scale(0.015625)"/>
     </defs>
     <use xlink:href="#DejaVuSansMono-2588"/>
     <use xlink:href="#DejaVuSansMono-2593" transform="translate(60.205078 0)"/>
     <use xlink:href="#DejaVuSansMono-2592" transform="translate(120.410156 0)"/>
     <use xlink:href="#DejaVuSansMono-2591" transform="translate(180.615234 0)"/>
     <use xlink:href="#DejaVuSansMono-2591" transform="translate(240.820312 0)"/>
     <use xlink:href="#DejaVuSansMono-2592" transform="translate(301.025391 0)"/>
     <use xlink:href="#DejaVuSansMono-2593" transform="translate(361.230469 0)"/>
     <use xlink:href="#DejaVuSansMono-2588" transform="translate(421.435547 0)"/>
    </g>
    <!-- ▓▒░░░░▒▓ -->
    <g style="fill: #2d3748" transform="translate(298.006875 156.748922) scale(0.09 -0.09)">
     <use xlink:href="#DejaVuSansMono-2593"/>
     <use xlink:href="#DejaVuSansMono-2592" transform="translate(60.205078 0)"/>
     <use xlink:href="#DejaVuSansMono-2591" transform="translate(120.410156 0)"/>
     <use xlink:href="#DejaVuSansMono-2591" transform="translate(180.615234 0)"/>
     <use xlink:href="#DejaVuSansMono-2591" transform="translate(240.820312 0)"/>
     <use xlink:href="#DejaVuSansMono-2591" transform="translate(301.025391 0)"/>
     <use xlink:href="#DejaVuSansMono-2592" transform="translate(361.230469 0)"/>
     <use xlink:href="#DejaVuSansMono-2593" transform="translate(421.435547 0)"/>
    </g>
    <!-- ▒░░░░░░▒ -->
    <g style="fill: #2d3748" transform="translate(298.006875 168.937172) scale(0.09 -0.09)">
     <use xlink:href="#DejaVuSansMono-2592"/>
     <use xlink:href="#DejaVuSansMono-2591" transform="translate(60.205078 0)"/>
     <use xlink:href="#DejaVuSansMono-2591" transform="translate(120.410156 0)"/>
     <use xlink:href="#DejaVuSansMono-2591" transform="translate(180.615234 0)"/>
     <use xlink:href="#DejaVuSansMono-2591" transform="translate(240.820312 0)"/>
     <use xlink:href="#DejaVuSansMono-2591" transform="translate(301.025391 0)"/>
     <use xlink:href="#DejaVuSansMono-2591" transform="translate(361.230469 0)"/>
     <use xlink:href="#DejaVuSansMono-2592" transform="translate(421.435547 0)"/>
    </g>
    <!-- ░░░░░░░░ -->
    <g style="fill: #2d3748" transform="translate(298.006875 181.125422) scale(0.09 -0.09)">
     <use xlink:href="#DejaVuSansMono-2591"/>
     <use xlink:href="#DejaVuSansMono-2591" transform="translate(60.205078 0)"/>
     <use xlink:href="#DejaVuSansMono-2591" transform="translate(120.410156 0)"/>
     <use xlink:href="#DejaVuSansMono-2591" transform="translate(180.615234 0)"/>
     <use xlink:href="#DejaVuSansMono-2591" transform="translate(240.820312 0)"/>
     <use xlink:href="#DejaVuSansMono-2591" transform="translate(301.025391 0)"/>
     <use xlink:href="#DejaVuSansMono-2591" transform="translate(361.230469 0)"/>
     <use xlink:href="#DejaVuSansMono-2591" transform="translate(421.435547 0)"/>
    </g>
   </g>
   <g id="text_5">
    <!-- Text -->
    <g style="fill: #1e3a5f" transform="translate(498.136506 69.57) scale(0.13 -0.13)">
     <defs>
      <path id="DejaVuSans-Bold-78" d="M 1422 1791 
L 159 3500 
L 1344 3500 
L 2059 2463 
L 2784 3500 
L 3969 3500 
L 2706 1797 
L 4031 0 
L 2847 0 
L 2059 1106 
L 1281 0 
L 97 0 
L 1422 1791 
z
" transform="scale(0.015625)"/>
      <path id="DejaVuSans-Bold-74" d="M 1759 4494 
L 1759 3500 
L 2913 3500 
L 2913 2700 
L 1759 2700 
L 1759 1216 
Q 1759 972 1856 886 
Q 1953 800 2241 800 
L 2816 800 
L 2816 0 
L 1856 0 
Q 1194 0 917 276 
Q 641 553 641 1216 
L 641 2700 
L 84 2700 
L 84 3500 
L 641 3500 
L 641 4494 
L 1759 4494 
z
" transform="scale(0.015625)"/>
     </defs>
     <use xlink:href="#DejaVuSans-Bold-54"/>
     <use xlink:href="#DejaVuSans-Bold-65" transform="translate(54.962891 0)"/>
     <use xlink:href="#DejaVuSans-Bold-78" transform="translate(122.785156 0)"/>
     <use xlink:href="#DejaVuSans-Bold-74" transform="translate(187.287109 0)"/>
    </g>
   </g>
   <g id="text_6">
    <!-- "The quick -->
    <g style="fill: #2d3748" transform="translate(486.326194 152.013656) scale(0.09 -0.09)">
     <defs>
      <path id="DejaVuSansMono-22" d="M 2797 4666 
L 2797 2931 
L 2253 2931 
L 2253 4666 
L 2797 4666 
z
M 1600 4666 
L 1600 2931 
L 1056 2931 
L 1056 4666 
L 1600 4666 
z
" transform="scale(0.015625)"/>
      <path id="DejaVuSansMono-54" d="M 147 4666 
L 3706 4666 
L 3706 4134 
L 2247 4134 
L 2247 0 
L 1613 0 
L 1613 4134 
L 147 4134 
L 147 4666 
z
" transform="scale(0.015625)"/>
      <path id="DejaVuSansMono-68" d="M 3284 2169 
L 3284 0 
L 2706 0 
L 2706 2169 
Q 2706 2641 2540 2862 
Q 2375 3084 2022 3084 
Q 1619 3084 1401 2798 
Q 1184 2513 1184 1978 
L 1184 0 
L 609 0 
L 609 4863 
L 1184 4863 
L 1184 2975 
Q 1338 3275 1600 3429 
Q 1863 3584 2222 3584 
Q 2756 3584 3020 3232 
Q 3284 2881 3284 2169 
z
" transform="scale(0.015625)"/>
      <path id="DejaVuSansMono-65" d="M 3475 1894 
L 3475 1613 
L 984 1613 
L 984 1594 
Q 984 1022 1282 709 
Q 1581 397 2125 397 
Q 2400 397 2700 484 
Q 3000 572 3341 750 
L 3341 178 
Q 3013 44 2708 -23 
Q 2403 -91 2119 -91 
Q 1303 -91 843 398 
Q 384 888 384 1747 
Q 384 2584 834 3084 
Q 1284 3584 2034 3584 
Q 2703 3584 3089 3131 
Q 3475 2678 3475 1894 
z
M 2900 2063 
Q 2888 2569 2661 2833 
Q 2434 3097 2009 3097 
Q 1594 3097 1325 2822 
Q 1056 2547 1006 2059 
L 2900 2063 
z
" transform="scale(0.015625)"/>
      <path id="DejaVuSansMono-71" d="M 1038 1734 
Q 1038 1066 1248 725 
Q 1459 384 1875 384 
Q 2291 384 2505 726 
Q 2719 1069 2719 1734 
Q 2719 2400 2505 2742 
Q 2291 3084 1875 3084 
Q 1459 3084 1248 2743 
Q 1038 2403 1038 1734 
z
M 2719 434 
Q 2578 175 2339 36 
Q 2100 -103 1784 -103 
Q 1156 -103 792 383 
Q 428 869 428 1722 
Q 428 2591 790 3081 
Q 1153 3572 1784 3572 
Q 2097 3572 2336 3436 
Q 2575 3300 2719 3041 
L 2719 3488 
L 3297 3488 
L 3297 -1344 
L 2719 -1344 
L 2719 434 
z
" transform="scale(0.015625)"/>
      <path id="DejaVuSansMono-75" d="M 609 1325 
L 609 3494 
L 1184 3494 
L 1184 1325 
Q 1184 853 1351 631 
Q 1519 409 1869 409 
Q 2275 409 2490 695 
Q 2706 981 2706 1516 
L 2706 3494 
L 3284 3494 
L 3284 0 
L 2706 0 
L 2706 525 
Q 2553 222 2289 65 
Q 2025 -91 1672 -91 
Q 1134 -91 871 261 
Q 609 613 609 1325 
z
" transform="scale(0.015625)"/>
      <path id="DejaVuSansMono-69" d="M 800 3500 
L 2272 3500 
L 2272 447 
L 3413 447 
L 3413 0 
L 556 0 
L 556 447 
L 1697 447 
L 1697 3053 
L 800 3053 
L 800 3500 
z
M 1697 4863 
L 2272 4863 
L 2272 4134 
L 1697 4134 
L 1697 4863 
z
" transform="scale(0.015625)"/>
      <path id="DejaVuSansMono-63" d="M 3316 178 
Q 3084 44 2839 -23 
Q 2594 -91 2338 -91 
Q 1525 -91 1067 396 
Q 609 884 609 1747 
Q 609 2609 1067 3096 
Q 1525 3584 2338 3584 
Q 2591 3584 2831 3518 
Q 3072 3453 3316 3316 
L 3316 2713 
Q 3088 2916 2858 3006 
Q 2628 3097 2338 3097 
Q 1797 3097 1506 2747 
Q 1216 2397 1216 1747 
Q 1216 1100 1508 748 
Q 1800 397 2338 397 
Q 2638 397 2875 489 
Q 3113 581 3316 775 
L 3316 178 
z
" transform="scale(0.015625)"/>
      <path id="DejaVuSansMono-6b" d="M 738 4863 
L 1331 4863 
L 1331 2047 
L 2841 3500 
L 3541 3500 
L 2163 2181 
L 3756 0 
L 3053 0 
L 1759 1806 
L 1331 1403 
L 1331 0 
L 738 0 
L 738 4863 
z
" transform="scale(0.015625)"/>
     </defs>
     <use xlink:href="#DejaVuSansMono-22"/>
     <use xlink:href="#DejaVuSansMono-54" transform="translate(60.205078 0)"/>
     <use xlink:href="#DejaVuSansMono-68" transform="translate(120.410156 0)"/>
     <use xlink:href="#DejaVuSansMono-65" transform="translate(180.615234 0)"/>
     <use xlink:href="#DejaVuSansMono-20" transform="translate(240.820312 0)"/>
     <use xlink:href="#DejaVuSansMono-71" transform="translate(301.025391 0)"/>
     <use xlink:href="#DejaVuSansMono-75" transform="translate(361.230469 0)"/>
     <use xlink:href="#DejaVuSansMono-69" transform="translate(421.435547 0)"/>
     <use xlink:href="#DejaVuSansMono-63" transform="translate(481.640625 0)"/>
     <use xlink:href="#DejaVuSansMono-6b" transform="translate(541.845703 0)"/>
    </g>
    <!-- brown fox -->
    <g style="fill: #2d3748" transform="translate(489.035334 162.167344) scale(0.09 -0.09)">
     <defs>
      <path id="DejaVuSansMono-62" d="M 2869 1747 
Q 2869 2416 2656 2756 
Q 2444 3097 2028 3097 
Q 1609 3097 1393 2755 
Q 1178 2413 1178 1747 
Q 1178 1084 1393 740 
Q 1609 397 2028 397 
Q 2444 397 2656 737 
Q 2869 1078 2869 1747 
z
M 1178 3053 
Q 1316 3309 1558 3446 
Q 1800 3584 2119 3584 
Q 2750 3584 3112 3098 
Q 3475 2613 3475 1759 
Q 3475 894 3111 401 
Q 2747 -91 2113 -91 
Q 1800 -91 1561 45 
Q 1322 181 1178 441 
L 1178 0 
L 603 0 
L 603 4863 
L 1178 4863 
L 1178 3053 
z
" transform="scale(0.015625)"/>
      <path id="DejaVuSansMono-72" d="M 3609 2778 
Q 3425 2922 3234 2987 
Q 3044 3053 2816 3053 
Q 2278 3053 1993 2715 
Q 1709 2378 1709 1741 
L 1709 0 
L 1131 0 
L 1131 3500 
L 1709 3500 
L 1709 2816 
Q 1853 3188 2151 3386 
Q 2450 3584 2859 3584 
Q 3072 3584 3256 3531 
Q 3441 3478 3609 3366 
L 3609 2778 
z
" transform="scale(0.015625)"/>
      <path id="DejaVuSansMono-6f" d="M 1925 3097 
Q 1488 3097 1263 2756 
Q 1038 2416 1038 1747 
Q 1038 1081 1263 739 
Q 1488 397 1925 397 
Q 2366 397 2591 739 
Q 2816 1081 2816 1747 
Q 2816 2416 2591 2756 
Q 2366 3097 1925 3097 
z
M 1925 3584 
Q 2653 3584 3039 3112 
Q 3425 2641 3425 1747 
Q 3425 850 3040 379 
Q 2656 -91 1925 -91 
Q 1197 -91 812 379 
Q 428 850 428 1747 
Q 428 2641 812 3112 
Q 1197 3584 1925 3584 
z
" transform="scale(0.015625)"/>
      <path id="DejaVuSansMono-77" d="M 0 3500 
L 569 3500 
L 1178 672 
L 1678 2478 
L 2169 2478 
L 2675 672 
L 3284 3500 
L 3853 3500 
L 3034 0 
L 2484 0 
L 1925 1919 
L 1369 0 
L 819 0 
L 0 3500 
z
" transform="scale(0.015625)"/>
      <path id="DejaVuSansMono-6e" d="M 3284 2169 
L 3284 0 
L 2706 0 
L 2706 2169 
Q 2706 2641 2540 2862 
Q 2375 3084 2022 3084 
Q 1619 3084 1401 2798 
Q 1184 2513 1184 1978 
L 1184 0 
L 609 0 
L 609 3500 
L 1184 3500 
L 1184 2975 
Q 1338 3275 1600 3429 
Q 1863 3584 2222 3584 
Q 2756 3584 3020 3232 
Q 3284 2881 3284 2169 
z
" transform="scale(0.015625)"/>
      <path id="DejaVuSansMono-66" d="M 3322 4863 
L 3322 4384 
L 2669 4384 
Q 2359 4384 2239 4257 
Q 2119 4131 2119 3809 
L 2119 3500 
L 3322 3500 
L 3322 3053 
L 2119 3053 
L 2119 0 
L 1544 0 
L 1544 3053 
L 609 3053 
L 609 3500 
L 1544 3500 
L 1544 3744 
Q 1544 4319 1808 4591 
Q 2072 4863 2631 4863 
L 3322 4863 
z
" transform="scale(0.015625)"/>
      <path id="DejaVuSansMono-78" d="M 3494 3500 
L 2241 1825 
L 3616 0 
L 2950 0 
L 1925 1403 
L 903 0 
L 238 0 
L 1613 1825 
L 359 3500 
L 997 3500 
L 1925 2234 
L 2847 3500 
L 3494 3500 
z
" transform="scale(0.015625)"/>
     </defs>
     <use xlink:href="#DejaVuSansMono-62"/>
     <use xlink:href="#DejaVuSansMono-72" transform="translate(60.205078 0)"/>
     <use xlink:href="#DejaVuSansMono-6f" transform="translate(120.410156 0)"/>
     <use xlink:href="#DejaVuSansMono-77" transform="translate(180.615234 0)"/>
     <use xlink:href="#DejaVuSansMono-6e" transform="translate(240.820312 0)"/>
     <use xlink:href="#DejaVuSansMono-20" transform="translate(301.025391 0)"/>
     <use xlink:href="#DejaVuSansMono-66" transform="translate(361.230469 0)"/>
     <use xlink:href="#DejaVuSansMono-6f" transform="translate(421.435547 0)"/>
     <use xlink:href="#DejaVuSansMono-78" transform="translate(481.640625 0)"/>
    </g>
    <!-- jumps..." -->
    <g style="fill: #2d3748" transform="translate(489.035334 172.30275) scale(0.09 -0.09)">
     <defs>
      <path id="DejaVuSansMono-6a" d="M 1875 -63 
L 1875 3053 
L 884 3053 
L 884 3500 
L 2450 3500 
L 2450 -63 
Q 2450 -672 2170 -1001 
Q 1891 -1331 1375 -1331 
L 581 -1331 
L 581 -844 
L 1313 -844 
Q 1594 -844 1734 -648 
Q 1875 -453 1875 -63 
z
M 1875 4863 
L 2450 4863 
L 2450 4134 
L 1875 4134 
L 1875 4863 
z
" transform="scale(0.015625)"/>
      <path id="DejaVuSansMono-6d" d="M 2113 3144 
Q 2219 3369 2383 3476 
Q 2547 3584 2778 3584 
Q 3200 3584 3373 3257 
Q 3547 2931 3547 2028 
L 3547 0 
L 3022 0 
L 3022 2003 
Q 3022 2744 2939 2923 
Q 2856 3103 2638 3103 
Q 2388 3103 2295 2911 
Q 2203 2719 2203 2003 
L 2203 0 
L 1678 0 
L 1678 2003 
Q 1678 2753 1589 2928 
Q 1500 3103 1269 3103 
Q 1041 3103 952 2911 
Q 863 2719 863 2003 
L 863 0 
L 341 0 
L 341 3500 
L 863 3500 
L 863 3200 
Q 966 3388 1120 3486 
Q 1275 3584 1472 3584 
Q 1709 3584 1867 3475 
Q 2025 3366 2113 3144 
z
" transform="scale(0.015625)"/>
      <path id="DejaVuSansMono-70" d="M 1172 441 
L 1172 -1331 
L 594 -1331 
L 594 3500 
L 1172 3500 
L 1172 3053 
Q 1316 3313 1555 3448 
Q 1794 3584 2106 3584 
Q 2741 3584 3102 3093 
Q 3463 2603 3463 1734 
Q 3463 881 3100 395 
Q 2738 -91 2106 -91 
Q 1788 -91 1548 45 
Q 1309 181 1172 441 
z
M 2859 1747 
Q 2859 2416 2648 2756 
Q 2438 3097 2022 3097 
Q 1603 3097 1387 2755 
Q 1172 2413 1172 1747 
Q 1172 1084 1387 740 
Q 1603 397 2022 397 
Q 2438 397 2648 737 
Q 2859 1078 2859 1747 
z
" transform="scale(0.015625)"/>
      <path id="DejaVuSansMono-73" d="M 3041 3378 
L 3041 2816 
Q 2794 2959 2544 3031 
Q 2294 3103 2034 3103 
Q 1644 3103 1451 2976 
Q 1259 2850 1259 2591 
Q 1259 2356 1403 2240 
Q 1547 2125 2119 2016 
L 2350 1972 
Q 2778 1891 2998 1647 
Q 3219 1403 3219 1013 
Q 3219 494 2850 201 
Q 2481 -91 1825 -91 
Q 1566 -91 1281 -36 
Q 997 19 666 128 
L 666 722 
Q 988 556 1281 473 
Q 1575 391 1838 391 
Q 2219 391 2428 545 
Q 2638 700 2638 978 
Q 2638 1378 1872 1531 
L 1847 1538 
L 1631 1581 
Q 1134 1678 906 1908 
Q 678 2138 678 2534 
Q 678 3038 1018 3311 
Q 1359 3584 1991 3584 
Q 2272 3584 2531 3532 
Q 2791 3481 3041 3378 
z
" transform="scale(0.015625)"/>
      <path id="DejaVuSansMono-2e" d="M 1528 953 
L 2316 953 
L 2316 0 
L 1528 0 
L 1528 953 
z
" transform="scale(0.015625)"/>
     </defs>
     <use xlink:href="#DejaVuSansMono-6a"/>
     <use xlink:href="#DejaVuSansMono-75" transform="translate(60.205078 0)"/>
     <use xlink:href="#DejaVuSansMono-6d" transform="translate(120.410156 0)"/>
     <use xlink:href="#DejaVuSansMono-70" transform="translate(180.615234 0)"/>
     <use xlink:href="#DejaVuSansMono-73" transform="translate(240.820312 0)"/>
     <use xlink:href="#DejaVuSansMono-2e" transform="translate(301.025391 0)"/>
     <use xlink:href="#DejaVuSansMono-2e" transform="translate(361.230469 0)"/>
     <use xlink:href="#DejaVuSansMono-2e" transform="translate(421.435547 0)"/>
     <use xlink:href="#DejaVuSansMono-22" transform="translate(481.640625 0)"/>
    </g>
   </g>
   <g id="text_7">
    <!-- Time Series -->
    <g style="fill: #1e3a5f" transform="translate(664.247075 69.57) scale(0.13 -0.13)">
     <defs>
      <path id="DejaVuSans-Bold-69" d="M 538 3500 
L 1656 3500 
L 1656 0 
L 538 0 
L 538 3500 
z
M 538 4863 
L 1656 4863 
L 1656 3950 
L 538 3950 
L 538 4863 
z
" transform="scale(0.015625)"/>
      <path id="DejaVuSans-Bold-20" transform="scale(0.015625)"/>
      <path id="DejaVuSans-Bold-53" d="M 3834 4519 
L 3834 3531 
Q 3450 3703 3084 3790 
Q 2719 3878 2394 3878 
Q 1963 3878 1756 3759 
Q 1550 3641 1550 3391 
Q 1550 3203 1689 3098 
Q 1828 2994 2194 2919 
L 2706 2816 
Q 3484 2659 3812 2340 
Q 4141 2022 4141 1434 
Q 4141 663 3683 286 
Q 3225 -91 2284 -91 
Q 1841 -91 1394 -6 
Q 947 78 500 244 
L 500 1259 
Q 947 1022 1364 901 
Q 1781 781 2169 781 
Q 2563 781 2772 912 
Q 2981 1044 2981 1288 
Q 2981 1506 2839 1625 
Q 2697 1744 2272 1838 
L 1806 1941 
Q 1106 2091 782 2419 
Q 459 2747 459 3303 
Q 459 4000 909 4375 
Q 1359 4750 2203 4750 
Q 2588 4750 2994 4692 
Q 3400 4634 3834 4519 
z
" transform="scale(0.015625)"/>
      <path id="DejaVuSans-Bold-73" d="M 3272 3391 
L 3272 2541 
Q 2913 2691 2578 2766 
Q 2244 2841 1947 2841 
Q 1628 2841 1473 2761 
Q 1319 2681 1319 2516 
Q 1319 2381 1436 2309 
Q 1553 2238 1856 2203 
L 2053 2175 
Q 2913 2066 3209 1816 
Q 3506 1566 3506 1031 
Q 3506 472 3093 190 
Q 2681 -91 1863 -91 
Q 1516 -91 1145 -36 
Q 775 19 384 128 
L 384 978 
Q 719 816 1070 734 
Q 1422 653 1784 653 
Q 2113 653 2278 743 
Q 2444 834 2444 1013 
Q 2444 1163 2330 1236 
Q 2216 1309 1875 1350 
L 1678 1375 
Q 931 1469 631 1722 
Q 331 1975 331 2491 
Q 331 3047 712 3315 
Q 1094 3584 1881 3584 
Q 2191 3584 2531 3537 
Q 2872 3491 3272 3391 
z
" transform="scale(0.015625)"/>
     </defs>
     <use xlink:href="#DejaVuSans-Bold-54"/>
     <use xlink:href="#DejaVuSans-Bold-69" transform="translate(68.212891 0)"/>
     <use xlink:href="#DejaVuSans-Bold-6d" transform="translate(102.490234 0)"/>
     <use xlink:href="#DejaVuSans-Bold-65" transform="translate(206.689453 0)"/>
     <use xlink:href="#DejaVuSans-Bold-20" transform="translate(274.511719 0)"/>
     <use xlink:href="#DejaVuSans-Bold-53" transform="translate(309.326172 0)"/>
     <use xlink:href="#DejaVuSans-Bold-65" transform="translate(381.347656 0)"/>
     <use xlink:href="#DejaVuSans-Bold-72" transform="translate(449.169922 0)"/>
     <use xlink:href="#DejaVuSans-Bold-69" transform="translate(498.486328 0)"/>
     <use xlink:href="#DejaVuSans-Bold-65" transform="translate(532.763672 0)"/>
     <use xlink:href="#DejaVuSans-Bold-73" transform="translate(600.585938 0)"/>
    </g>
   </g>
   <g id="text_8">
    <!-- ╱╲╱╲ -->
    <g style="fill: #2d3748" transform="translate(696.318638 150.567609) scale(0.09 -0.09)">
     <defs>
      <path id="DejaVuSansMono-2571" d="M -278 -1538 
L 3575 5941 
L 4131 5941 
L 278 -1538 
L -278 -1538 
z
" transform="scale(0.015625)"/>
      <path id="DejaVuSansMono-2572" d="M 4131 -1538 
L 3575 -1538 
L -278 5941 
L 278 5941 
L 4131 -1538 
z
" transform="scale(0.015625)"/>
     </defs>
     <use xlink:href="#DejaVuSansMono-2571"/>
     <use xlink:href="#DejaVuSansMono-2572" transform="translate(60.205078 0)"/>
     <use xlink:href="#DejaVuSansMono-2571" transform="translate(120.410156 0)"/>
     <use xlink:href="#DejaVuSansMono-2572" transform="translate(180.615234 0)"/>
    </g>
    <!--   ╱  ╲ -->
    <g style="fill: #2d3748" transform="translate(690.900356 162.755859) scale(0.09 -0.09)">
     <use xlink:href="#DejaVuSansMono-20"/>
     <use xlink:href="#DejaVuSansMono-20" transform="translate(60.205078 0)"/>
     <use xlink:href="#DejaVuSansMono-2571" transform="translate(120.410156 0)"/>
     <use xlink:href="#DejaVuSansMono-20" transform="translate(180.615234 0)"/>
     <use xlink:href="#DejaVuSansMono-20" transform="translate(240.820312 0)"/>
     <use xlink:href="#DejaVuSansMono-2572" transform="translate(301.025391 0)"/>
    </g>
    <!-- ╱    ╲ -->
    <g style="fill: #2d3748" transform="translate(690.900356 174.944109) scale(0.09 -0.09)">
     <use xlink:href="#DejaVuSansMono-2571"/>
     <use xlink:href="#DejaVuSansMono-20" transform="translate(60.205078 0)"/>
     <use xlink:href="#DejaVuSansMono-20" transform="translate(120.410156 0)"/>
     <use xlink:href="#DejaVuSansMono-20" transform="translate(180.615234 0)"/>
     <use xlink:href="#DejaVuSansMono-20" transform="translate(240.820312 0)"/>
     <use xlink:href="#DejaVuSansMono-2572" transform="translate(301.025391 0)"/>
    </g>
   </g>
  </g>
 </g>
 <defs>
  <clipPath id="p6530cc68d1">
   <rect x="7.2" y="7.2" width="781.2" height="277.2"/>
  </clipPath>
 </defs>
</svg>
