<?xml version="1.0" encoding="utf-8" standalone="no"?>
<!DOCTYPE svg PUBLIC "-//W3C//DTD SVG 1.1//EN"
  "http://www.w3.org/Graphics/SVG/1.1/DTD/svg11.dtd">
<svg xmlns:xlink="http://www.w3.org/1999/xlink" width="684pt" height="347.04pt" viewBox="0 0 684 347.04" xmlns="http://www.w3.org/2000/svg" version="1.1">
 <metadata>
  <rdf:RDF xmlns:dc="http://purl.org/dc/elements/1.1/" xmlns:cc="http://creativecommons.org/ns#" xmlns:rdf="http://www.w3.org/1999/02/22-rdf-syntax-ns#">
   <cc:Work>
    <dc:type rdf:resource="http://purl.org/dc/dcmitype/StillImage"/>
    <dc:date>2026-01-06T07:09:44.717778</dc:date>
    <dc:format>image/svg+xml</dc:format>
    <dc:creator>
     <cc:Agent>
      <dc:title>Matplotlib v3.10.6, https://matplotlib.org/</dc:title>
     </cc:Agent>
    </dc:creator>
   </cc:Work>
  </rdf:RDF>
 </metadata>
 <defs>
  <style type="text/css">*{stroke-linejoin: round; stroke-linecap: butt}</style>
 </defs>
 <g id="figure_1">
  <g id="patch_1">
   <path d="M 0 347.04 
L 684 347.04 
L 684 -0 
L 0 -0 
z
" style="fill: #ffffff"/>
  </g>
  <g id="axes_1">
   <g id="patch_2">
    <path d="M 58.707692 131.184 
L 146.270769 131.184 
Q 148.846154 131.184 148.846154 128.16 
L 148.846154 85.824 
Q 148.846154 82.8 146.270769 82.8 
L 58.707692 82.8 
Q 56.132308 82.8 56.132308 85.824 
L 56.132308 128.16 
Q 56.132308 131.184 58.707692 131.184 
z
" clip-path="url(#pc2ab124fc6)" style="fill: #3b82f6; opacity: 0.3; stroke: #1e3a5f; stroke-width: 1.5; stroke-linejoin: miter"/>
   </g>
   <g id="patch_3">
    <path d="M 151.421538 131.184 
L 238.984615 131.184 
Q 241.56 131.184 241.56 128.16 
L 241.56 85.824 
Q 241.56 82.8 238.984615 82.8 
L 151.421538 82.8 
Q 148.846154 82.8 148.846154 85.824 
L 148.846154 128.16 
Q 148.846154 131.184 151.421538 131.184 
z
" clip-path="url(#pc2ab124fc6)" style="fill: #3b82f6; opacity: 0.3; stroke: #1e3a5f; stroke-width: 1.5; stroke-linejoin: miter"/>
   </g>
   <g id="patch_4">
    <path d="M 244.135385 131.184 
L 331.698462 131.184 
Q 334.273846 131.184 334.273846 128.16 
L 334.273846 85.824 
Q 334.273846 82.8 331.698462 82.8 
L 244.135385 82.8 
Q 241.56 82.8 241.56 85.824 
L 241.56 128.16 
Q 241.56 131.184 244.135385 131.184 
z
" clip-path="url(#pc2ab124fc6)" style="fill: #3b82f6; opacity: 0.3; stroke: #1e3a5f; stroke-width: 1.5; stroke-linejoin: miter"/>
   </g>
   <g id="patch_5">
    <path d="M 336.849231 131.184 
L 424.412308 131.184 
Q 426.987692 131.184 426.987692 128.16 
L 426.987692 85.824 
Q 426.987692 82.8 424.412308 82.8 
L 336.849231 82.8 
Q 334.273846 82.8 334.273846 85.824 
L 334.273846 128.16 
Q 334.273846 131.184 336.849231 131.184 
z
" clip-path="url(#pc2ab124fc6)" style="fill: #3b82f6; opacity: 0.3; stroke: #1e3a5f; stroke-width: 1.5; stroke-linejoin: miter"/>
   </g>
   <g id="patch_6">
    <path d="M 522.276923 131.184 
L 609.84 131.184 
Q 612.415385 131.184 612.415385 128.16 
L 612.415385 85.824 
Q 612.415385 82.8 609.84 82.8 
L 522.276923 82.8 
Q 519.701538 82.8 519.701538 85.824 
L 519.701538 128.16 
Q 519.701538 131.184 522.276923 131.184 
z
" clip-path="url(#pc2ab124fc6)" style="fill: #2a9d8f; opacity: 0.3; stroke: #1e3a5f; stroke-width: 1.5; stroke-linejoin: miter"/>
   </g>
   <g id="patch_7">
    <path d="M 58.707692 183.8016 
L 146.270769 183.8016 
Q 147.300923 183.8016 147.300923 182.592 
L 147.300923 146.304 
Q 147.300923 145.0944 146.270769 145.0944 
L 58.707692 145.0944 
Q 57.677538 145.0944 57.677538 146.304 
L 57.677538 182.592 
Q 57.677538 183.8016 58.707692 183.8016 
z
" clip-path="url(#pc2ab124fc6)" style="fill: #ffffff; stroke: #94a3b8; stroke-linejoin: miter"/>
   </g>
   <g id="patch_8">
    <path d="M 151.421538 183.8016 
L 238.984615 183.8016 
Q 240.014769 183.8016 240.014769 182.592 
L 240.014769 146.304 
Q 240.014769 145.0944 238.984615 145.0944 
L 151.421538 145.0944 
Q 150.391385 145.0944 150.391385 146.304 
L 150.391385 182.592 
Q 150.391385 183.8016 151.421538 183.8016 
z
" clip-path="url(#pc2ab124fc6)" style="fill: #ffffff; stroke: #94a3b8; stroke-linejoin: miter"/>
   </g>
   <g id="patch_9">
    <path d="M 244.135385 183.8016 
L 331.698462 183.8016 
Q 332.728615 183.8016 332.728615 182.592 
L 332.728615 146.304 
Q 332.728615 145.0944 331.698462 145.0944 
L 244.135385 145.0944 
Q 243.105231 145.0944 243.105231 146.304 
L 243.105231 182.592 
Q 243.105231 183.8016 244.135385 183.8016 
z
" clip-path="url(#pc2ab124fc6)" style="fill: #ffffff; stroke: #94a3b8; stroke-linejoin: miter"/>
   </g>
   <g id="patch_10">
    <path d="M 336.849231 183.8016 
L 424.412308 183.8016 
Q 425.442462 183.8016 425.442462 182.592 
L 425.442462 146.304 
Q 425.442462 145.0944 424.412308 145.0944 
L 336.849231 145.0944 
Q 335.819077 145.0944 335.819077 146.304 
L 335.819077 182.592 
Q 335.819077 183.8016 336.849231 183.8016 
z
" clip-path="url(#pc2ab124fc6)" style="fill: #ffffff; stroke: #94a3b8; stroke-linejoin: miter"/>
   </g>
   <g id="patch_11">
    <path d="M 522.276923 183.8016 
L 609.84 183.8016 
Q 610.870154 183.8016 610.870154 182.592 
L 610.870154 146.304 
Q 610.870154 145.0944 609.84 145.0944 
L 522.276923 145.0944 
Q 521.246769 145.0944 521.246769 146.304 
L 521.246769 182.592 
Q 521.246769 183.8016 522.276923 183.8016 
z
" clip-path="url(#pc2ab124fc6)" style="fill: #ffffff; stroke: #94a3b8; stroke-linejoin: miter"/>
   </g>
   <g id="patch_12">
    <path d="M 58.707692 226.1376 
L 146.270769 226.1376 
Q 147.300923 226.1376 147.300923 224.928 
L 147.300923 188.64 
Q 147.300923 187.4304 146.270769 187.4304 
L 58.707692 187.4304 
Q 57.677538 187.4304 57.677538 188.64 
L 57.677538 224.928 
Q 57.677538 226.1376 58.707692 226.1376 
z
" clip-path="url(#pc2ab124fc6)" style="fill: #ffffff; stroke: #94a3b8; stroke-linejoin: miter"/>
   </g>
   <g id="patch_13">
    <path d="M 151.421538 226.1376 
L 238.984615 226.1376 
Q 240.014769 226.1376 240.014769 224.928 
L 240.014769 188.64 
Q 240.014769 187.4304 238.984615 187.4304 
L 151.421538 187.4304 
Q 150.391385 187.4304 150.391385 188.64 
L 150.391385 224.928 
Q 150.391385 226.1376 151.421538 226.1376 
z
" clip-path="url(#pc2ab124fc6)" style="fill: #ffffff; stroke: #94a3b8; stroke-linejoin: miter"/>
   </g>
   <g id="patch_14">
    <path d="M 244.135385 226.1376 
L 331.698462 226.1376 
Q 332.728615 226.1376 332.728615 224.928 
L 332.728615 188.64 
Q 332.728615 187.4304 331.698462 187.4304 
L 244.135385 187.4304 
Q 243.105231 187.4304 243.105231 188.64 
L 243.105231 224.928 
Q 243.105231 226.1376 244.135385 226.1376 
z
" clip-path="url(#pc2ab124fc6)" style="fill: #ffffff; stroke: #94a3b8; stroke-linejoin: miter"/>
   </g>
   <g id="patch_15">
    <path d="M 336.849231 226.1376 
L 424.412308 226.1376 
Q 425.442462 226.1376 425.442462 224.928 
L 425.442462 188.64 
Q 425.442462 187.4304 424.412308 187.4304 
L 336.849231 187.4304 
Q 335.819077 187.4304 335.819077 188.64 
L 335.819077 224.928 
Q 335.819077 226.1376 336.849231 226.1376 
z
" clip-path="url(#pc2ab124fc6)" style="fill: #ffffff; stroke: #94a3b8; stroke-linejoin: miter"/>
   </g>
   <g id="patch_16">
    <path d="M 522.276923 226.1376 
L 609.84 226.1376 
Q 610.870154 226.1376 610.870154 224.928 
L 610.870154 188.64 
Q 610.870154 187.4304 609.84 187.4304 
L 522.276923 187.4304 
Q 521.246769 187.4304 521.246769 188.64 
L 521.246769 224.928 
Q 521.246769 226.1376 522.276923 226.1376 
z
" clip-path="url(#pc2ab124fc6)" style="fill: #ffffff; stroke: #94a3b8; stroke-linejoin: miter"/>
   </g>
   <g id="patch_17">
    <path d="M 58.707692 268.4736 
L 146.270769 268.4736 
Q 147.300923 268.4736 147.300923 267.264 
L 147.300923 230.976 
Q 147.300923 229.7664 146.270769 229.7664 
L 58.707692 229.7664 
Q 57.677538 229.7664 57.677538 230.976 
L 57.677538 267.264 
Q 57.677538 268.4736 58.707692 268.4736 
z
" clip-path="url(#pc2ab124fc6)" style="fill: #ffffff; stroke: #94a3b8; stroke-linejoin: miter"/>
   </g>
   <g id="patch_18">
    <path d="M 151.421538 268.4736 
L 238.984615 268.4736 
Q 240.014769 268.4736 240.014769 267.264 
L 240.014769 230.976 
Q 240.014769 229.7664 238.984615 229.7664 
L 151.421538 229.7664 
Q 150.391385 229.7664 150.391385 230.976 
L 150.391385 267.264 
Q 150.391385 268.4736 151.421538 268.4736 
z
" clip-path="url(#pc2ab124fc6)" style="fill: #ffffff; stroke: #94a3b8; stroke-linejoin: miter"/>
   </g>
   <g id="patch_19">
    <path d="M 244.135385 268.4736 
L 331.698462 268.4736 
Q 332.728615 268.4736 332.728615 267.264 
L 332.728615 230.976 
Q 332.728615 229.7664 331.698462 229.7664 
L 244.135385 229.7664 
Q 243.105231 229.7664 243.105231 230.976 
L 243.105231 267.264 
Q 243.105231 268.4736 244.135385 268.4736 
z
" clip-path="url(#pc2ab124fc6)" style="fill: #ffffff; stroke: #94a3b8; stroke-linejoin: miter"/>
   </g>
   <g id="patch_20">
    <path d="M 336.849231 268.4736 
L 424.412308 268.4736 
Q 425.442462 268.4736 425.442462 267.264 
L 425.442462 230.976 
Q 425.442462 229.7664 424.412308 229.7664 
L 336.849231 229.7664 
Q 335.819077 229.7664 335.819077 230.976 
L 335.819077 267.264 
Q 335.819077 268.4736 336.849231 268.4736 
z
" clip-path="url(#pc2ab124fc6)" style="fill: #ffffff; stroke: #94a3b8; stroke-linejoin: miter"/>
   </g>
   <g id="patch_21">
    <path d="M 522.276923 268.4736 
L 609.84 268.4736 
Q 610.870154 268.4736 610.870154 267.264 
L 610.870154 230.976 
Q 610.870154 229.7664 609.84 229.7664 
L 522.276923 229.7664 
Q 521.246769 229.7664 521.246769 230.976 
L 521.246769 267.264 
Q 521.246769 268.4736 522.276923 268.4736 
z
" clip-path="url(#pc2ab124fc6)" style="fill: #ffffff; stroke: #94a3b8; stroke-linejoin: miter"/>
   </g>
   <g id="line2d_1">
    <path d="M 475.92 306.576 
L 475.92 57.096 
" clip-path="url(#pc2ab124fc6)" style="fill: none; stroke: #e85a4f; stroke-width: 3; stroke-linecap: square"/>
   </g>
   <g id="text_1">
    <!-- sqft -->
    <g style="fill: #1e3a5f" transform="translate(90.257746 110.027312) scale(0.11 -0.11)">
     <defs>
      <path id="DejaVuSans-Bold-73" d="M 3272 3391 
L 3272 2541 
Q 2913 2691 2578 2766 
Q 2244 2841 1947 2841 
Q 1628 2841 1473 2761 
Q 1319 2681 1319 2516 
Q 1319 2381 1436 2309 
Q 1553 2238 1856 2203 
L 2053 2175 
Q 2913 2066 3209 1816 
Q 3506 1566 3506 1031 
Q 3506 472 3093 190 
Q 2681 -91 1863 -91 
Q 1516 -91 1145 -36 
Q 775 19 384 128 
L 384 978 
Q 719 816 1070 734 
Q 1422 653 1784 653 
Q 2113 653 2278 743 
Q 2444 834 2444 1013 
Q 2444 1163 2330 1236 
Q 2216 1309 1875 1350 
L 1678 1375 
Q 931 1469 631 1722 
Q 331 1975 331 2491 
Q 331 3047 712 3315 
Q 1094 3584 1881 3584 
Q 2191 3584 2531 3537 
Q 2872 3491 3272 3391 
z
" transform="scale(0.015625)"/>
      <path id="DejaVuSans-Bold-71" d="M 2181 2772 
Q 1825 2772 1636 2509 
Q 1447 2247 1447 1747 
Q 1447 1247 1636 984 
Q 1825 722 2181 722 
Q 2541 722 2730 984 
Q 2919 1247 2919 1747 
Q 2919 2247 2730 2509 
Q 2541 2772 2181 2772 
z
M 2919 506 
Q 2688 197 2409 53 
Q 2131 -91 1766 -91 
Q 1119 -91 703 423 
Q 288 938 288 1747 
Q 288 2556 703 3067 
Q 1119 3578 1766 3578 
Q 2131 3578 2409 3434 
Q 2688 3291 2919 2981 
L 2919 3500 
L 4044 3500 
L 4044 -1331 
L 2919 -1331 
L 2919 506 
z
" transform="scale(0.015625)"/>
      <path id="DejaVuSans-Bold-66" d="M 2841 4863 
L 2841 4128 
L 2222 4128 
Q 1984 4128 1890 4042 
Q 1797 3956 1797 3744 
L 1797 3500 
L 2753 3500 
L 2753 2700 
L 1797 2700 
L 1797 0 
L 678 0 
L 678 2700 
L 122 2700 
L 122 3500 
L 678 3500 
L 678 3744 
Q 678 4316 997 4589 
Q 1316 4863 1984 4863 
L 2841 4863 
z
" transform="scale(0.015625)"/>
      <path id="DejaVuSans-Bold-74" d="M 1759 4494 
L 1759 3500 
L 2913 3500 
L 2913 2700 
L 1759 2700 
L 1759 1216 
Q 1759 972 1856 886 
Q 1953 800 2241 800 
L 2816 800 
L 2816 0 
L 1856 0 
Q 1194 0 917 276 
Q 641 553 641 1216 
L 641 2700 
L 84 2700 
L 84 3500 
L 641 3500 
L 641 4494 
L 1759 4494 
z
" transform="scale(0.015625)"/>
     </defs>
     <use xlink:href="#DejaVuSans-Bold-73"/>
     <use xlink:href="#DejaVuSans-Bold-71" transform="translate(59.521484 0)"/>
     <use xlink:href="#DejaVuSans-Bold-66" transform="translate(131.103516 0)"/>
     <use xlink:href="#DejaVuSans-Bold-74" transform="translate(174.609375 0)"/>
    </g>
   </g>
   <g id="text_2">
    <!-- beds -->
    <g style="fill: #1e3a5f" transform="translate(180.325577 110.027312) scale(0.11 -0.11)">
     <defs>
      <path id="DejaVuSans-Bold-62" d="M 2400 722 
Q 2759 722 2948 984 
Q 3138 1247 3138 1747 
Q 3138 2247 2948 2509 
Q 2759 2772 2400 2772 
Q 2041 2772 1848 2508 
Q 1656 2244 1656 1747 
Q 1656 1250 1848 986 
Q 2041 722 2400 722 
z
M 1656 2988 
Q 1888 3294 2169 3439 
Q 2450 3584 2816 3584 
Q 3463 3584 3878 3070 
Q 4294 2556 4294 1747 
Q 4294 938 3878 423 
Q 3463 -91 2816 -91 
Q 2450 -91 2169 54 
Q 1888 200 1656 506 
L 1656 0 
L 538 0 
L 538 4863 
L 1656 4863 
L 1656 2988 
z
" transform="scale(0.015625)"/>
      <path id="DejaVuSans-Bold-65" d="M 4031 1759 
L 4031 1441 
L 1416 1441 
Q 1456 1047 1700 850 
Q 1944 653 2381 653 
Q 2734 653 3104 758 
Q 3475 863 3866 1075 
L 3866 213 
Q 3469 63 3072 -14 
Q 2675 -91 2278 -91 
Q 1328 -91 801 392 
Q 275 875 275 1747 
Q 275 2603 792 3093 
Q 1309 3584 2216 3584 
Q 3041 3584 3536 3087 
Q 4031 2591 4031 1759 
z
M 2881 2131 
Q 2881 2450 2695 2645 
Q 2509 2841 2209 2841 
Q 1884 2841 1681 2658 
Q 1478 2475 1428 2131 
L 2881 2131 
z
" transform="scale(0.015625)"/>
      <path id="DejaVuSans-Bold-64" d="M 2919 2988 
L 2919 4863 
L 4044 4863 
L 4044 0 
L 2919 0 
L 2919 506 
Q 2688 197 2409 53 
Q 2131 -91 1766 -91 
Q 1119 -91 703 423 
Q 288 938 288 1747 
Q 288 2556 703 3070 
Q 1119 3584 1766 3584 
Q 2128 3584 2408 3439 
Q 2688 3294 2919 2988 
z
M 2181 722 
Q 2541 722 2730 984 
Q 2919 1247 2919 1747 
Q 2919 2247 2730 2509 
Q 2541 2772 2181 2772 
Q 1825 2772 1636 2509 
Q 1447 2247 1447 1747 
Q 1447 1247 1636 984 
Q 1825 722 2181 722 
z
" transform="scale(0.015625)"/>
     </defs>
     <use xlink:href="#DejaVuSans-Bold-62"/>
     <use xlink:href="#DejaVuSans-Bold-65" transform="translate(71.582031 0)"/>
     <use xlink:href="#DejaVuSans-Bold-64" transform="translate(139.404297 0)"/>
     <use xlink:href="#DejaVuSans-Bold-73" transform="translate(210.986328 0)"/>
    </g>
   </g>
   <g id="text_3">
    <!-- baths -->
    <g style="fill: #1e3a5f" transform="translate(270.450986 110.027312) scale(0.11 -0.11)">
     <defs>
      <path id="DejaVuSans-Bold-61" d="M 2106 1575 
Q 1756 1575 1579 1456 
Q 1403 1338 1403 1106 
Q 1403 894 1545 773 
Q 1688 653 1941 653 
Q 2256 653 2472 879 
Q 2688 1106 2688 1447 
L 2688 1575 
L 2106 1575 
z
M 3816 1997 
L 3816 0 
L 2688 0 
L 2688 519 
Q 2463 200 2181 54 
Q 1900 -91 1497 -91 
Q 953 -91 614 226 
Q 275 544 275 1050 
Q 275 1666 698 1953 
Q 1122 2241 2028 2241 
L 2688 2241 
L 2688 2328 
Q 2688 2594 2478 2717 
Q 2269 2841 1825 2841 
Q 1466 2841 1156 2769 
Q 847 2697 581 2553 
L 581 3406 
Q 941 3494 1303 3539 
Q 1666 3584 2028 3584 
Q 2975 3584 3395 3211 
Q 3816 2838 3816 1997 
z
" transform="scale(0.015625)"/>
      <path id="DejaVuSans-Bold-68" d="M 4056 2131 
L 4056 0 
L 2931 0 
L 2931 347 
L 2931 1625 
Q 2931 2084 2911 2256 
Q 2891 2428 2841 2509 
Q 2775 2619 2662 2680 
Q 2550 2741 2406 2741 
Q 2056 2741 1856 2470 
Q 1656 2200 1656 1722 
L 1656 0 
L 538 0 
L 538 4863 
L 1656 4863 
L 1656 2988 
Q 1909 3294 2193 3439 
Q 2478 3584 2822 3584 
Q 3428 3584 3742 3212 
Q 4056 2841 4056 2131 
z
" transform="scale(0.015625)"/>
     </defs>
     <use xlink:href="#DejaVuSans-Bold-62"/>
     <use xlink:href="#DejaVuSans-Bold-61" transform="translate(71.582031 0)"/>
     <use xlink:href="#DejaVuSans-Bold-74" transform="translate(139.0625 0)"/>
     <use xlink:href="#DejaVuSans-Bold-68" transform="translate(186.865234 0)"/>
     <use xlink:href="#DejaVuSans-Bold-73" transform="translate(258.056641 0)"/>
    </g>
   </g>
   <g id="text_4">
    <!-- garage -->
    <g style="fill: #1e3a5f" transform="translate(358.89116 109.941375) scale(0.11 -0.11)">
     <defs>
      <path id="DejaVuSans-Bold-67" d="M 2919 594 
Q 2688 288 2409 144 
Q 2131 0 1766 0 
Q 1125 0 706 504 
Q 288 1009 288 1791 
Q 288 2575 706 3076 
Q 1125 3578 1766 3578 
Q 2131 3578 2409 3434 
Q 2688 3291 2919 2981 
L 2919 3500 
L 4044 3500 
L 4044 353 
Q 4044 -491 3511 -936 
Q 2978 -1381 1966 -1381 
Q 1638 -1381 1331 -1331 
Q 1025 -1281 716 -1178 
L 716 -306 
Q 1009 -475 1290 -558 
Q 1572 -641 1856 -641 
Q 2406 -641 2662 -400 
Q 2919 -159 2919 353 
L 2919 594 
z
M 2181 2772 
Q 1834 2772 1640 2515 
Q 1447 2259 1447 1791 
Q 1447 1309 1634 1061 
Q 1822 813 2181 813 
Q 2531 813 2725 1069 
Q 2919 1325 2919 1791 
Q 2919 2259 2725 2515 
Q 2531 2772 2181 2772 
z
" transform="scale(0.015625)"/>
      <path id="DejaVuSans-Bold-72" d="M 3138 2547 
Q 2991 2616 2845 2648 
Q 2700 2681 2553 2681 
Q 2122 2681 1889 2404 
Q 1656 2128 1656 1613 
L 1656 0 
L 538 0 
L 538 3500 
L 1656 3500 
L 1656 2925 
Q 1872 3269 2151 3426 
Q 2431 3584 2822 3584 
Q 2878 3584 2943 3579 
Q 3009 3575 3134 3559 
L 3138 2547 
z
" transform="scale(0.015625)"/>
     </defs>
     <use xlink:href="#DejaVuSans-Bold-67"/>
     <use xlink:href="#DejaVuSans-Bold-61" transform="translate(71.582031 0)"/>
     <use xlink:href="#DejaVuSans-Bold-72" transform="translate(139.0625 0)"/>
     <use xlink:href="#DejaVuSans-Bold-61" transform="translate(188.378906 0)"/>
     <use xlink:href="#DejaVuSans-Bold-67" transform="translate(255.859375 0)"/>
     <use xlink:href="#DejaVuSans-Bold-65" transform="translate(327.441406 0)"/>
    </g>
   </g>
   <g id="text_5">
    <!-- price -->
    <g style="fill: #1e3a5f" transform="translate(550.532993 110.027312) scale(0.11 -0.11)">
     <defs>
      <path id="DejaVuSans-Bold-70" d="M 1656 506 
L 1656 -1331 
L 538 -1331 
L 538 3500 
L 1656 3500 
L 1656 2988 
Q 1888 3294 2169 3439 
Q 2450 3584 2816 3584 
Q 3463 3584 3878 3070 
Q 4294 2556 4294 1747 
Q 4294 938 3878 423 
Q 3463 -91 2816 -91 
Q 2450 -91 2169 54 
Q 1888 200 1656 506 
z
M 2400 2772 
Q 2041 2772 1848 2508 
Q 1656 2244 1656 1747 
Q 1656 1250 1848 986 
Q 2041 722 2400 722 
Q 2759 722 2948 984 
Q 3138 1247 3138 1747 
Q 3138 2247 2948 2509 
Q 2759 2772 2400 2772 
z
" transform="scale(0.015625)"/>
      <path id="DejaVuSans-Bold-69" d="M 538 3500 
L 1656 3500 
L 1656 0 
L 538 0 
L 538 3500 
z
M 538 4863 
L 1656 4863 
L 1656 3950 
L 538 3950 
L 538 4863 
z
" transform="scale(0.015625)"/>
      <path id="DejaVuSans-Bold-63" d="M 3366 3391 
L 3366 2478 
Q 3138 2634 2908 2709 
Q 2678 2784 2431 2784 
Q 1963 2784 1702 2511 
Q 1441 2238 1441 1747 
Q 1441 1256 1702 982 
Q 1963 709 2431 709 
Q 2694 709 2930 787 
Q 3166 866 3366 1019 
L 3366 103 
Q 3103 6 2833 -42 
Q 2563 -91 2291 -91 
Q 1344 -91 809 395 
Q 275 881 275 1747 
Q 275 2613 809 3098 
Q 1344 3584 2291 3584 
Q 2566 3584 2833 3536 
Q 3100 3488 3366 3391 
z
" transform="scale(0.015625)"/>
     </defs>
     <use xlink:href="#DejaVuSans-Bold-70"/>
     <use xlink:href="#DejaVuSans-Bold-72" transform="translate(71.582031 0)"/>
     <use xlink:href="#DejaVuSans-Bold-69" transform="translate(120.898438 0)"/>
     <use xlink:href="#DejaVuSans-Bold-63" transform="translate(155.175781 0)"/>
     <use xlink:href="#DejaVuSans-Bold-65" transform="translate(214.453125 0)"/>
    </g>
   </g>
   <g id="text_6">
    <!-- 1500 -->
    <g style="fill: #2d3748" transform="translate(89.764231 167.207375) scale(0.1 -0.1)">
     <defs>
      <path id="DejaVuSans-31" d="M 794 531 
L 1825 531 
L 1825 4091 
L 703 3866 
L 703 4441 
L 1819 4666 
L 2450 4666 
L 2450 531 
L 3481 531 
L 3481 0 
L 794 0 
L 794 531 
z
" transform="scale(0.015625)"/>
      <path id="DejaVuSans-35" d="M 691 4666 
L 3169 4666 
L 3169 4134 
L 1269 4134 
L 1269 2991 
Q 1406 3038 1543 3061 
Q 1681 3084 1819 3084 
Q 2600 3084 3056 2656 
Q 3513 2228 3513 1497 
Q 3513 744 3044 326 
Q 2575 -91 1722 -91 
Q 1428 -91 1123 -41 
Q 819 9 494 109 
L 494 744 
Q 775 591 1075 516 
Q 1375 441 1709 441 
Q 2250 441 2565 725 
Q 2881 1009 2881 1497 
Q 2881 1984 2565 2268 
Q 2250 2553 1709 2553 
Q 1456 2553 1204 2497 
Q 953 2441 691 2322 
L 691 4666 
z
" transform="scale(0.015625)"/>
      <path id="DejaVuSans-30" d="M 2034 4250 
Q 1547 4250 1301 3770 
Q 1056 3291 1056 2328 
Q 1056 1369 1301 889 
Q 1547 409 2034 409 
Q 2525 409 2770 889 
Q 3016 1369 3016 2328 
Q 3016 3291 2770 3770 
Q 2525 4250 2034 4250 
z
M 2034 4750 
Q 2819 4750 3233 4129 
Q 3647 3509 3647 2328 
Q 3647 1150 3233 529 
Q 2819 -91 2034 -91 
Q 1250 -91 836 529 
Q 422 1150 422 2328 
Q 422 3509 836 4129 
Q 1250 4750 2034 4750 
z
" transform="scale(0.015625)"/>
     </defs>
     <use xlink:href="#DejaVuSans-31"/>
     <use xlink:href="#DejaVuSans-35" transform="translate(63.623047 0)"/>
     <use xlink:href="#DejaVuSans-30" transform="translate(127.246094 0)"/>
     <use xlink:href="#DejaVuSans-30" transform="translate(190.869141 0)"/>
    </g>
   </g>
   <g id="text_7">
    <!-- 3 -->
    <g style="fill: #2d3748" transform="translate(192.021827 167.207375) scale(0.1 -0.1)">
     <defs>
      <path id="DejaVuSans-33" d="M 2597 2516 
Q 3050 2419 3304 2112 
Q 3559 1806 3559 1356 
Q 3559 666 3084 287 
Q 2609 -91 1734 -91 
Q 1441 -91 1130 -33 
Q 819 25 488 141 
L 488 750 
Q 750 597 1062 519 
Q 1375 441 1716 441 
Q 2309 441 2620 675 
Q 2931 909 2931 1356 
Q 2931 1769 2642 2001 
Q 2353 2234 1838 2234 
L 1294 2234 
L 1294 2753 
L 1863 2753 
Q 2328 2753 2575 2939 
Q 2822 3125 2822 3475 
Q 2822 3834 2567 4026 
Q 2313 4219 1838 4219 
Q 1578 4219 1281 4162 
Q 984 4106 628 3988 
L 628 4550 
Q 988 4650 1302 4700 
Q 1616 4750 1894 4750 
Q 2613 4750 3031 4423 
Q 3450 4097 3450 3541 
Q 3450 3153 3228 2886 
Q 3006 2619 2597 2516 
z
" transform="scale(0.015625)"/>
     </defs>
     <use xlink:href="#DejaVuSans-33"/>
    </g>
   </g>
   <g id="text_8">
    <!-- 2 -->
    <g style="fill: #2d3748" transform="translate(284.735673 167.207375) scale(0.1 -0.1)">
     <defs>
      <path id="DejaVuSans-32" d="M 1228 531 
L 3431 531 
L 3431 0 
L 469 0 
L 469 531 
Q 828 903 1448 1529 
Q 2069 2156 2228 2338 
Q 2531 2678 2651 2914 
Q 2772 3150 2772 3378 
Q 2772 3750 2511 3984 
Q 2250 4219 1831 4219 
Q 1534 4219 1204 4116 
Q 875 4013 500 3803 
L 500 4441 
Q 881 4594 1212 4672 
Q 1544 4750 1819 4750 
Q 2544 4750 2975 4387 
Q 3406 4025 3406 3419 
Q 3406 3131 3298 2873 
Q 3191 2616 2906 2266 
Q 2828 2175 2409 1742 
Q 1991 1309 1228 531 
z
" transform="scale(0.015625)"/>
     </defs>
     <use xlink:href="#DejaVuSans-32"/>
    </g>
   </g>
   <g id="text_9">
    <!-- Yes -->
    <g style="fill: #2d3748" transform="translate(372.558113 167.207375) scale(0.1 -0.1)">
     <defs>
      <path id="DejaVuSans-59" d="M -13 4666 
L 666 4666 
L 1959 2747 
L 3244 4666 
L 3922 4666 
L 2272 2222 
L 2272 0 
L 1638 0 
L 1638 2222 
L -13 4666 
z
" transform="scale(0.015625)"/>
      <path id="DejaVuSans-65" d="M 3597 1894 
L 3597 1613 
L 953 1613 
Q 991 1019 1311 708 
Q 1631 397 2203 397 
Q 2534 397 2845 478 
Q 3156 559 3463 722 
L 3463 178 
Q 3153 47 2828 -22 
Q 2503 -91 2169 -91 
Q 1331 -91 842 396 
Q 353 884 353 1716 
Q 353 2575 817 3079 
Q 1281 3584 2069 3584 
Q 2775 3584 3186 3129 
Q 3597 2675 3597 1894 
z
M 3022 2063 
Q 3016 2534 2758 2815 
Q 2500 3097 2075 3097 
Q 1594 3097 1305 2825 
Q 1016 2553 972 2059 
L 3022 2063 
z
" transform="scale(0.015625)"/>
      <path id="DejaVuSans-73" d="M 2834 3397 
L 2834 2853 
Q 2591 2978 2328 3040 
Q 2066 3103 1784 3103 
Q 1356 3103 1142 2972 
Q 928 2841 928 2578 
Q 928 2378 1081 2264 
Q 1234 2150 1697 2047 
L 1894 2003 
Q 2506 1872 2764 1633 
Q 3022 1394 3022 966 
Q 3022 478 2636 193 
Q 2250 -91 1575 -91 
Q 1294 -91 989 -36 
Q 684 19 347 128 
L 347 722 
Q 666 556 975 473 
Q 1284 391 1588 391 
Q 1994 391 2212 530 
Q 2431 669 2431 922 
Q 2431 1156 2273 1281 
Q 2116 1406 1581 1522 
L 1381 1569 
Q 847 1681 609 1914 
Q 372 2147 372 2553 
Q 372 3047 722 3315 
Q 1072 3584 1716 3584 
Q 2034 3584 2315 3537 
Q 2597 3491 2834 3397 
z
" transform="scale(0.015625)"/>
     </defs>
     <use xlink:href="#DejaVuSans-59"/>
     <use xlink:href="#DejaVuSans-65" transform="translate(47.833984 0)"/>
     <use xlink:href="#DejaVuSans-73" transform="translate(109.357422 0)"/>
    </g>
   </g>
   <g id="text_10">
    <!-- $300K -->
    <g style="fill: #2d3748" transform="translate(550.054555 167.207375) scale(0.1 -0.1)">
     <defs>
      <path id="DejaVuSans-24" d="M 2163 -941 
L 1850 -941 
L 1847 0 
Q 1519 6 1191 76 
Q 863 147 531 288 
L 531 850 
Q 850 650 1176 548 
Q 1503 447 1850 444 
L 1850 1869 
Q 1159 1981 845 2250 
Q 531 2519 531 2988 
Q 531 3497 872 3790 
Q 1213 4084 1850 4128 
L 1850 4863 
L 2163 4863 
L 2163 4138 
Q 2453 4125 2725 4076 
Q 2997 4028 3256 3944 
L 3256 3397 
Q 2997 3528 2723 3600 
Q 2450 3672 2163 3684 
L 2163 2350 
Q 2872 2241 3206 1959 
Q 3541 1678 3541 1191 
Q 3541 663 3186 358 
Q 2831 53 2163 6 
L 2163 -941 
z
M 1850 2406 
L 1850 3688 
Q 1488 3647 1297 3481 
Q 1106 3316 1106 3041 
Q 1106 2772 1282 2622 
Q 1459 2472 1850 2406 
z
M 2163 1806 
L 2163 453 
Q 2559 506 2761 678 
Q 2963 850 2963 1131 
Q 2963 1406 2770 1568 
Q 2578 1731 2163 1806 
z
" transform="scale(0.015625)"/>
      <path id="DejaVuSans-4b" d="M 628 4666 
L 1259 4666 
L 1259 2694 
L 3353 4666 
L 4166 4666 
L 1850 2491 
L 4331 0 
L 3500 0 
L 1259 2247 
L 1259 0 
L 628 0 
L 628 4666 
z
" transform="scale(0.015625)"/>
     </defs>
     <use xlink:href="#DejaVuSans-24"/>
     <use xlink:href="#DejaVuSans-33" transform="translate(63.623047 0)"/>
     <use xlink:href="#DejaVuSans-30" transform="translate(127.246094 0)"/>
     <use xlink:href="#DejaVuSans-30" transform="translate(190.869141 0)"/>
     <use xlink:href="#DejaVuSans-4b" transform="translate(254.492188 0)"/>
    </g>
   </g>
   <g id="text_11">
    <!-- 2000 -->
    <g style="fill: #2d3748" transform="translate(89.764231 209.543375) scale(0.1 -0.1)">
     <use xlink:href="#DejaVuSans-32"/>
     <use xlink:href="#DejaVuSans-30" transform="translate(63.623047 0)"/>
     <use xlink:href="#DejaVuSans-30" transform="translate(127.246094 0)"/>
     <use xlink:href="#DejaVuSans-30" transform="translate(190.869141 0)"/>
    </g>
   </g>
   <g id="text_12">
    <!-- 4 -->
    <g style="fill: #2d3748" transform="translate(192.021827 209.543375) scale(0.1 -0.1)">
     <defs>
      <path id="DejaVuSans-34" d="M 2419 4116 
L 825 1625 
L 2419 1625 
L 2419 4116 
z
M 2253 4666 
L 3047 4666 
L 3047 1625 
L 3713 1625 
L 3713 1100 
L 3047 1100 
L 3047 0 
L 2419 0 
L 2419 1100 
L 313 1100 
L 313 1709 
L 2253 4666 
z
" transform="scale(0.015625)"/>
     </defs>
     <use xlink:href="#DejaVuSans-34"/>
    </g>
   </g>
   <g id="text_13">
    <!-- 3 -->
    <g style="fill: #2d3748" transform="translate(284.735673 209.543375) scale(0.1 -0.1)">
     <use xlink:href="#DejaVuSans-33"/>
    </g>
   </g>
   <g id="text_14">
    <!-- Yes -->
    <g style="fill: #2d3748" transform="translate(372.558113 209.543375) scale(0.1 -0.1)">
     <use xlink:href="#DejaVuSans-59"/>
     <use xlink:href="#DejaVuSans-65" transform="translate(47.833984 0)"/>
     <use xlink:href="#DejaVuSans-73" transform="translate(109.357422 0)"/>
    </g>
   </g>
   <g id="text_15">
    <!-- $450K -->
    <g style="fill: #2d3748" transform="translate(550.054555 209.543375) scale(0.1 -0.1)">
     <use xlink:href="#DejaVuSans-24"/>
     <use xlink:href="#DejaVuSans-34" transform="translate(63.623047 0)"/>
     <use xlink:href="#DejaVuSans-35" transform="translate(127.246094 0)"/>
     <use xlink:href="#DejaVuSans-30" transform="translate(190.869141 0)"/>
     <use xlink:href="#DejaVuSans-4b" transform="translate(254.492188 0)"/>
    </g>
   </g>
   <g id="text_16">
    <!-- 1200 -->
    <g style="fill: #2d3748" transform="translate(89.764231 251.879375) scale(0.1 -0.1)">
     <use xlink:href="#DejaVuSans-31"/>
     <use xlink:href="#DejaVuSans-32" transform="translate(63.623047 0)"/>
     <use xlink:href="#DejaVuSans-30" transform="translate(127.246094 0)"/>
     <use xlink:href="#DejaVuSans-30" transform="translate(190.869141 0)"/>
    </g>
   </g>
   <g id="text_17">
    <!-- 2 -->
    <g style="fill: #2d3748" transform="translate(192.021827 251.879375) scale(0.1 -0.1)">
     <use xlink:href="#DejaVuSans-32"/>
    </g>
   </g>
   <g id="text_18">
    <!-- 1 -->
    <g style="fill: #2d3748" transform="translate(284.735673 251.879375) scale(0.1 -0.1)">
     <use xlink:href="#DejaVuSans-31"/>
    </g>
   </g>
   <g id="text_19">
    <!-- No -->
    <g style="fill: #2d3748" transform="translate(373.830769 251.879375) scale(0.1 -0.1)">
     <defs>
      <path id="DejaVuSans-4e" d="M 628 4666 
L 1478 4666 
L 3547 763 
L 3547 4666 
L 4159 4666 
L 4159 0 
L 3309 0 
L 1241 3903 
L 1241 0 
L 628 0 
L 628 4666 
z
" transform="scale(0.015625)"/>
      <path id="DejaVuSans-6f" d="M 1959 3097 
Q 1497 3097 1228 2736 
Q 959 2375 959 1747 
Q 959 1119 1226 758 
Q 1494 397 1959 397 
Q 2419 397 2687 759 
Q 2956 1122 2956 1747 
Q 2956 2369 2687 2733 
Q 2419 3097 1959 3097 
z
M 1959 3584 
Q 2709 3584 3137 3096 
Q 3566 2609 3566 1747 
Q 3566 888 3137 398 
Q 2709 -91 1959 -91 
Q 1206 -91 779 398 
Q 353 888 353 1747 
Q 353 2609 779 3096 
Q 1206 3584 1959 3584 
z
" transform="scale(0.015625)"/>
     </defs>
     <use xlink:href="#DejaVuSans-4e"/>
     <use xlink:href="#DejaVuSans-6f" transform="translate(74.804688 0)"/>
    </g>
   </g>
   <g id="text_20">
    <!-- $200K -->
    <g style="fill: #2d3748" transform="translate(550.054555 251.879375) scale(0.1 -0.1)">
     <use xlink:href="#DejaVuSans-24"/>
     <use xlink:href="#DejaVuSans-32" transform="translate(63.623047 0)"/>
     <use xlink:href="#DejaVuSans-30" transform="translate(127.246094 0)"/>
     <use xlink:href="#DejaVuSans-30" transform="translate(190.869141 0)"/>
     <use xlink:href="#DejaVuSans-4b" transform="translate(254.492188 0)"/>
    </g>
   </g>
   <g id="text_21">
    <!-- Features (X) -->
    <g style="fill: #3b82f6" transform="translate(195.234916 55.584) scale(0.14 -0.14)">
     <defs>
      <path id="DejaVuSans-Bold-46" d="M 588 4666 
L 3834 4666 
L 3834 3756 
L 1791 3756 
L 1791 2888 
L 3713 2888 
L 3713 1978 
L 1791 1978 
L 1791 0 
L 588 0 
L 588 4666 
z
" transform="scale(0.015625)"/>
      <path id="DejaVuSans-Bold-75" d="M 500 1363 
L 500 3500 
L 1625 3500 
L 1625 3150 
Q 1625 2866 1622 2436 
Q 1619 2006 1619 1863 
Q 1619 1441 1641 1255 
Q 1663 1069 1716 984 
Q 1784 875 1895 815 
Q 2006 756 2150 756 
Q 2500 756 2700 1025 
Q 2900 1294 2900 1772 
L 2900 3500 
L 4019 3500 
L 4019 0 
L 2900 0 
L 2900 506 
Q 2647 200 2364 54 
Q 2081 -91 1741 -91 
Q 1134 -91 817 281 
Q 500 653 500 1363 
z
" transform="scale(0.015625)"/>
      <path id="DejaVuSans-Bold-20" transform="scale(0.015625)"/>
      <path id="DejaVuSans-Bold-28" d="M 2413 -844 
L 1484 -844 
Q 1006 -72 778 623 
Q 550 1319 550 2003 
Q 550 2688 779 3389 
Q 1009 4091 1484 4856 
L 2413 4856 
Q 2013 4116 1813 3408 
Q 1613 2700 1613 2009 
Q 1613 1319 1811 609 
Q 2009 -100 2413 -844 
z
" transform="scale(0.015625)"/>
      <path id="DejaVuSans-Bold-58" d="M 3188 2381 
L 4806 0 
L 3553 0 
L 2463 1594 
L 1381 0 
L 122 0 
L 1741 2381 
L 184 4666 
L 1441 4666 
L 2463 3163 
L 3481 4666 
L 4744 4666 
L 3188 2381 
z
" transform="scale(0.015625)"/>
      <path id="DejaVuSans-Bold-29" d="M 513 -844 
Q 913 -100 1113 609 
Q 1313 1319 1313 2009 
Q 1313 2700 1113 3408 
Q 913 4116 513 4856 
L 1441 4856 
Q 1916 4091 2145 3389 
Q 2375 2688 2375 2003 
Q 2375 1319 2147 623 
Q 1919 -72 1441 -844 
L 513 -844 
z
" transform="scale(0.015625)"/>
     </defs>
     <use xlink:href="#DejaVuSans-Bold-46"/>
     <use xlink:href="#DejaVuSans-Bold-65" transform="translate(64.310547 0)"/>
     <use xlink:href="#DejaVuSans-Bold-61" transform="translate(132.132812 0)"/>
     <use xlink:href="#DejaVuSans-Bold-74" transform="translate(199.613281 0)"/>
     <use xlink:href="#DejaVuSans-Bold-75" transform="translate(247.416016 0)"/>
     <use xlink:href="#DejaVuSans-Bold-72" transform="translate(318.607422 0)"/>
     <use xlink:href="#DejaVuSans-Bold-65" transform="translate(367.923828 0)"/>
     <use xlink:href="#DejaVuSans-Bold-73" transform="translate(435.746094 0)"/>
     <use xlink:href="#DejaVuSans-Bold-20" transform="translate(495.267578 0)"/>
     <use xlink:href="#DejaVuSans-Bold-28" transform="translate(530.082031 0)"/>
     <use xlink:href="#DejaVuSans-Bold-58" transform="translate(575.785156 0)"/>
     <use xlink:href="#DejaVuSans-Bold-29" transform="translate(652.884766 0)"/>
    </g>
   </g>
   <g id="patch_22">
    <path d="M 378.971113 73.728 
Q 244.136629 73.728 109.302144 73.728 
" style="fill: none; stroke: #3b82f6; stroke-width: 2; stroke-linecap: round"/>
    <path d="M 374.971113 71.728 
L 378.971113 73.728 
L 374.971113 75.728 
" style="fill: none; stroke: #3b82f6; stroke-width: 2; stroke-linecap: round"/>
    <path d="M 113.302144 75.728 
L 109.302144 73.728 
L 113.302144 71.728 
" style="fill: none; stroke: #3b82f6; stroke-width: 2; stroke-linecap: round"/>
   </g>
   <g id="text_22">
    <!-- Label (y) -->
    <g style="fill: #2a9d8f" transform="translate(487.536142 55.584) scale(0.14 -0.14)">
     <defs>
      <path id="DejaVuSans-Bold-4c" d="M 588 4666 
L 1791 4666 
L 1791 909 
L 3903 909 
L 3903 0 
L 588 0 
L 588 4666 
z
" transform="scale(0.015625)"/>
      <path id="DejaVuSans-Bold-6c" d="M 538 4863 
L 1656 4863 
L 1656 0 
L 538 0 
L 538 4863 
z
" transform="scale(0.015625)"/>
      <path id="DejaVuSans-Bold-79" d="M 78 3500 
L 1197 3500 
L 2138 1125 
L 2938 3500 
L 4056 3500 
L 2584 -331 
Q 2363 -916 2067 -1148 
Q 1772 -1381 1288 -1381 
L 641 -1381 
L 641 -647 
L 991 -647 
Q 1275 -647 1404 -556 
Q 1534 -466 1606 -231 
L 1638 -134 
L 78 3500 
z
" transform="scale(0.015625)"/>
     </defs>
     <use xlink:href="#DejaVuSans-Bold-4c"/>
     <use xlink:href="#DejaVuSans-Bold-61" transform="translate(63.720703 0)"/>
     <use xlink:href="#DejaVuSans-Bold-62" transform="translate(131.201172 0)"/>
     <use xlink:href="#DejaVuSans-Bold-65" transform="translate(202.783203 0)"/>
     <use xlink:href="#DejaVuSans-Bold-6c" transform="translate(270.605469 0)"/>
     <use xlink:href="#DejaVuSans-Bold-20" transform="translate(304.882812 0)"/>
     <use xlink:href="#DejaVuSans-Bold-28" transform="translate(339.697266 0)"/>
     <use xlink:href="#DejaVuSans-Bold-79" transform="translate(385.400391 0)"/>
     <use xlink:href="#DejaVuSans-Bold-29" transform="translate(450.585938 0)"/>
    </g>
   </g>
  </g>
 </g>
 <defs>
  <clipPath id="pc2ab124fc6">
   <rect x="7.2" y="7.2" width="669.6" height="332.64"/>
  </clipPath>
 </defs>
</svg>
