<?xml version="1.0" encoding="utf-8" standalone="no"?>
<!DOCTYPE svg PUBLIC "-//W3C//DTD SVG 1.1//EN"
  "http://www.w3.org/Graphics/SVG/1.1/DTD/svg11.dtd">
<svg xmlns:xlink="http://www.w3.org/1999/xlink" width="617.279375pt" height="467.086625pt" viewBox="0 0 617.279375 467.086625" xmlns="http://www.w3.org/2000/svg" version="1.1">
 <metadata>
  <rdf:RDF xmlns:dc="http://purl.org/dc/elements/1.1/" xmlns:cc="http://creativecommons.org/ns#" xmlns:rdf="http://www.w3.org/1999/02/22-rdf-syntax-ns#">
   <cc:Work>
    <dc:type rdf:resource="http://purl.org/dc/dcmitype/StillImage"/>
    <dc:date>2026-01-31T13:17:28.110921</dc:date>
    <dc:format>image/svg+xml</dc:format>
    <dc:creator>
     <cc:Agent>
      <dc:title>Matplotlib v3.10.8, https://matplotlib.org/</dc:title>
     </cc:Agent>
    </dc:creator>
   </cc:Work>
  </rdf:RDF>
 </metadata>
 <defs>
  <style type="text/css">*{stroke-linejoin: round; stroke-linecap: butt}</style>
 </defs>
 <g id="figure_1">
  <g id="patch_1">
   <path d="M 0 467.086625 
L 617.279375 467.086625 
L 617.279375 0 
L 0 0 
z
" style="fill: #ffffff"/>
  </g>
  <g id="axes_1">
   <g id="patch_2">
    <path d="M 52.079375 427.59475 
L 610.079375 427.59475 
L 610.079375 39.51475 
L 52.079375 39.51475 
z
" style="fill: #ffffff"/>
   </g>
   <g id="FillBetweenPolyCollection_1">
    <defs>
     <path id="m483ae0f350" d="M 77.443011 -57.131875 
L 77.443011 -409.931875 
L 82.566978 -401.71017 
L 87.690945 -393.309833 
L 92.814912 -384.725789 
L 97.938879 -375.956728 
L 103.062846 -367.005111 
L 108.186813 -357.877156 
L 113.31078 -348.582762 
L 118.434747 -339.135421 
L 123.558714 -329.552068 
L 128.682681 -319.852919 
L 133.806648 -310.061257 
L 138.930615 -300.2032 
L 144.054582 -290.307433 
L 149.178549 -280.404913 
L 154.302515 -270.528557 
L 159.426482 -260.712905 
L 164.550449 -250.993769 
L 169.674416 -241.407864 
L 174.798383 -231.99244 
L 179.92235 -222.784896 
L 185.046317 -213.822405 
L 190.170284 -205.141527 
L 195.294251 -196.777845 
L 200.418218 -188.765596 
L 205.542185 -181.137325 
L 210.666152 -173.923553 
L 215.790119 -167.152463 
L 220.914086 -160.849618 
L 226.038053 -155.037694 
L 231.16202 -149.736256 
L 236.285987 -144.961551 
L 241.409954 -140.726349 
L 246.53392 -137.039808 
L 251.657887 -133.907384 
L 256.781854 -131.330771 
L 261.905821 -129.307892 
L 267.029788 -127.832909 
L 272.153755 -126.896292 
L 277.277722 -126.484912 
L 282.401689 -126.582175 
L 287.525656 -127.16819 
L 292.649623 -128.219977 
L 297.77359 -129.711693 
L 302.897557 -131.614903 
L 308.021524 -133.898866 
L 313.145491 -136.53085 
L 318.269458 -139.476464 
L 323.393425 -142.700009 
L 328.517392 -146.164846 
L 333.641358 -149.83376 
L 338.765325 -153.669351 
L 343.889292 -157.634407 
L 349.013259 -161.692286 
L 354.137226 -165.807291 
L 359.261193 -169.945029 
L 364.38516 -174.072769 
L 369.509127 -178.159771 
L 374.633094 -182.177597 
L 379.757061 -186.100408 
L 384.881028 -189.905221 
L 390.004995 -193.572147 
L 395.128962 -197.084591 
L 400.252929 -200.429424 
L 405.376896 -203.597115 
L 410.500863 -206.581828 
L 415.62483 -209.381484 
L 420.748796 -211.997779 
L 425.872763 -214.436168 
L 430.99673 -216.705809 
L 436.120697 -218.819472 
L 441.244664 -220.793405 
L 446.368631 -222.64717 
L 451.492598 -224.403447 
L 456.616565 -226.087796 
L 461.740532 -227.728401 
L 466.864499 -229.355783 
L 471.988466 -231.002487 
L 477.112433 -232.702751 
L 482.2364 -234.492156 
L 487.360367 -236.407264 
L 492.484334 -238.485246 
L 497.608301 -240.763503 
L 502.732268 -243.279283 
L 507.856235 -246.069303 
L 512.980201 -249.169374 
L 518.104168 -252.614035 
L 523.228135 -256.436205 
L 528.352102 -260.66684 
L 533.476069 -265.334625 
L 538.600036 -270.465678 
L 543.724003 -276.083282 
L 548.84797 -282.207652 
L 553.971937 -288.855726 
L 559.095904 -296.040992 
L 564.219871 -303.773353 
L 569.343838 -312.059024 
L 574.467805 -320.900468 
L 579.591772 -330.296373 
L 584.715739 -340.241665 
L 584.715739 -57.131875 
L 584.715739 -57.131875 
L 579.591772 -57.131875 
L 574.467805 -57.131875 
L 569.343838 -57.131875 
L 564.219871 -57.131875 
L 559.095904 -57.131875 
L 553.971937 -57.131875 
L 548.84797 -57.131875 
L 543.724003 -57.131875 
L 538.600036 -57.131875 
L 533.476069 -57.131875 
L 528.352102 -57.131875 
L 523.228135 -57.131875 
L 518.104168 -57.131875 
L 512.980201 -57.131875 
L 507.856235 -57.131875 
L 502.732268 -57.131875 
L 497.608301 -57.131875 
L 492.484334 -57.131875 
L 487.360367 -57.131875 
L 482.2364 -57.131875 
L 477.112433 -57.131875 
L 471.988466 -57.131875 
L 466.864499 -57.131875 
L 461.740532 -57.131875 
L 456.616565 -57.131875 
L 451.492598 -57.131875 
L 446.368631 -57.131875 
L 441.244664 -57.131875 
L 436.120697 -57.131875 
L 430.99673 -57.131875 
L 425.872763 -57.131875 
L 420.748796 -57.131875 
L 415.62483 -57.131875 
L 410.500863 -57.131875 
L 405.376896 -57.131875 
L 400.252929 -57.131875 
L 395.128962 -57.131875 
L 390.004995 -57.131875 
L 384.881028 -57.131875 
L 379.757061 -57.131875 
L 374.633094 -57.131875 
L 369.509127 -57.131875 
L 364.38516 -57.131875 
L 359.261193 -57.131875 
L 354.137226 -57.131875 
L 349.013259 -57.131875 
L 343.889292 -57.131875 
L 338.765325 -57.131875 
L 333.641358 -57.131875 
L 328.517392 -57.131875 
L 323.393425 -57.131875 
L 318.269458 -57.131875 
L 313.145491 -57.131875 
L 308.021524 -57.131875 
L 302.897557 -57.131875 
L 297.77359 -57.131875 
L 292.649623 -57.131875 
L 287.525656 -57.131875 
L 282.401689 -57.131875 
L 277.277722 -57.131875 
L 272.153755 -57.131875 
L 267.029788 -57.131875 
L 261.905821 -57.131875 
L 256.781854 -57.131875 
L 251.657887 -57.131875 
L 246.53392 -57.131875 
L 241.409954 -57.131875 
L 236.285987 -57.131875 
L 231.16202 -57.131875 
L 226.038053 -57.131875 
L 220.914086 -57.131875 
L 215.790119 -57.131875 
L 210.666152 -57.131875 
L 205.542185 -57.131875 
L 200.418218 -57.131875 
L 195.294251 -57.131875 
L 190.170284 -57.131875 
L 185.046317 -57.131875 
L 179.92235 -57.131875 
L 174.798383 -57.131875 
L 169.674416 -57.131875 
L 164.550449 -57.131875 
L 159.426482 -57.131875 
L 154.302515 -57.131875 
L 149.178549 -57.131875 
L 144.054582 -57.131875 
L 138.930615 -57.131875 
L 133.806648 -57.131875 
L 128.682681 -57.131875 
L 123.558714 -57.131875 
L 118.434747 -57.131875 
L 113.31078 -57.131875 
L 108.186813 -57.131875 
L 103.062846 -57.131875 
L 97.938879 -57.131875 
L 92.814912 -57.131875 
L 87.690945 -57.131875 
L 82.566978 -57.131875 
L 77.443011 -57.131875 
z
" style="stroke: #3b82f6; stroke-opacity: 0.1"/>
    </defs>
    <g clip-path="url(#pa6c97c9159)">
     <use xlink:href="#m483ae0f350" x="0" y="467.086625" style="fill: #3b82f6; fill-opacity: 0.1; stroke: #3b82f6; stroke-opacity: 0.1"/>
    </g>
   </g>
   <g id="matplotlib.axis_1">
    <g id="xtick_1">
     <g id="line2d_1">
      <path d="M 128.170284 427.59475 
L 128.170284 39.51475 
" clip-path="url(#pa6c97c9159)" style="fill: none; stroke: #b0b0b0; stroke-opacity: 0.3; stroke-width: 0.8; stroke-linecap: square"/>
     </g>
     <g id="line2d_2">
      <defs>
       <path id="mc18a97d9e2" d="M 0 0 
L 0 3.5 
" style="stroke: #000000; stroke-width: 0.8"/>
      </defs>
      <g>
       <use xlink:href="#mc18a97d9e2" x="128.170284" y="427.59475" style="stroke: #000000; stroke-width: 0.8"/>
      </g>
     </g>
     <g id="text_1">
      <!-- −4 -->
      <g transform="translate(120.79919 442.193187) scale(0.1 -0.1)">
       <defs>
        <path id="DejaVuSans-2212" d="M 678 2272 
L 4684 2272 
L 4684 1741 
L 678 1741 
L 678 2272 
z
" transform="scale(0.015625)"/>
        <path id="DejaVuSans-34" d="M 2419 4116 
L 825 1625 
L 2419 1625 
L 2419 4116 
z
M 2253 4666 
L 3047 4666 
L 3047 1625 
L 3713 1625 
L 3713 1100 
L 3047 1100 
L 3047 0 
L 2419 0 
L 2419 1100 
L 313 1100 
L 313 1709 
L 2253 4666 
z
" transform="scale(0.015625)"/>
       </defs>
       <use xlink:href="#DejaVuSans-2212"/>
       <use xlink:href="#DejaVuSans-34" transform="translate(83.789062 0)"/>
      </g>
     </g>
    </g>
    <g id="xtick_2">
     <g id="line2d_3">
      <path d="M 229.62483 427.59475 
L 229.62483 39.51475 
" clip-path="url(#pa6c97c9159)" style="fill: none; stroke: #b0b0b0; stroke-opacity: 0.3; stroke-width: 0.8; stroke-linecap: square"/>
     </g>
     <g id="line2d_4">
      <g>
       <use xlink:href="#mc18a97d9e2" x="229.62483" y="427.59475" style="stroke: #000000; stroke-width: 0.8"/>
      </g>
     </g>
     <g id="text_2">
      <!-- −2 -->
      <g transform="translate(222.253736 442.193187) scale(0.1 -0.1)">
       <defs>
        <path id="DejaVuSans-32" d="M 1228 531 
L 3431 531 
L 3431 0 
L 469 0 
L 469 531 
Q 828 903 1448 1529 
Q 2069 2156 2228 2338 
Q 2531 2678 2651 2914 
Q 2772 3150 2772 3378 
Q 2772 3750 2511 3984 
Q 2250 4219 1831 4219 
Q 1534 4219 1204 4116 
Q 875 4013 500 3803 
L 500 4441 
Q 881 4594 1212 4672 
Q 1544 4750 1819 4750 
Q 2544 4750 2975 4387 
Q 3406 4025 3406 3419 
Q 3406 3131 3298 2873 
Q 3191 2616 2906 2266 
Q 2828 2175 2409 1742 
Q 1991 1309 1228 531 
z
" transform="scale(0.015625)"/>
       </defs>
       <use xlink:href="#DejaVuSans-2212"/>
       <use xlink:href="#DejaVuSans-32" transform="translate(83.789062 0)"/>
      </g>
     </g>
    </g>
    <g id="xtick_3">
     <g id="line2d_5">
      <path d="M 331.079375 427.59475 
L 331.079375 39.51475 
" clip-path="url(#pa6c97c9159)" style="fill: none; stroke: #b0b0b0; stroke-opacity: 0.3; stroke-width: 0.8; stroke-linecap: square"/>
     </g>
     <g id="line2d_6">
      <g>
       <use xlink:href="#mc18a97d9e2" x="331.079375" y="427.59475" style="stroke: #000000; stroke-width: 0.8"/>
      </g>
     </g>
     <g id="text_3">
      <!-- 0 -->
      <g transform="translate(327.898125 442.193187) scale(0.1 -0.1)">
       <defs>
        <path id="DejaVuSans-30" d="M 2034 4250 
Q 1547 4250 1301 3770 
Q 1056 3291 1056 2328 
Q 1056 1369 1301 889 
Q 1547 409 2034 409 
Q 2525 409 2770 889 
Q 3016 1369 3016 2328 
Q 3016 3291 2770 3770 
Q 2525 4250 2034 4250 
z
M 2034 4750 
Q 2819 4750 3233 4129 
Q 3647 3509 3647 2328 
Q 3647 1150 3233 529 
Q 2819 -91 2034 -91 
Q 1250 -91 836 529 
Q 422 1150 422 2328 
Q 422 3509 836 4129 
Q 1250 4750 2034 4750 
z
" transform="scale(0.015625)"/>
       </defs>
       <use xlink:href="#DejaVuSans-30"/>
      </g>
     </g>
    </g>
    <g id="xtick_4">
     <g id="line2d_7">
      <path d="M 432.53392 427.59475 
L 432.53392 39.51475 
" clip-path="url(#pa6c97c9159)" style="fill: none; stroke: #b0b0b0; stroke-opacity: 0.3; stroke-width: 0.8; stroke-linecap: square"/>
     </g>
     <g id="line2d_8">
      <g>
       <use xlink:href="#mc18a97d9e2" x="432.53392" y="427.59475" style="stroke: #000000; stroke-width: 0.8"/>
      </g>
     </g>
     <g id="text_4">
      <!-- 2 -->
      <g transform="translate(429.35267 442.193187) scale(0.1 -0.1)">
       <use xlink:href="#DejaVuSans-32"/>
      </g>
     </g>
    </g>
    <g id="xtick_5">
     <g id="line2d_9">
      <path d="M 533.988466 427.59475 
L 533.988466 39.51475 
" clip-path="url(#pa6c97c9159)" style="fill: none; stroke: #b0b0b0; stroke-opacity: 0.3; stroke-width: 0.8; stroke-linecap: square"/>
     </g>
     <g id="line2d_10">
      <g>
       <use xlink:href="#mc18a97d9e2" x="533.988466" y="427.59475" style="stroke: #000000; stroke-width: 0.8"/>
      </g>
     </g>
     <g id="text_5">
      <!-- 4 -->
      <g transform="translate(530.807216 442.193187) scale(0.1 -0.1)">
       <use xlink:href="#DejaVuSans-34"/>
      </g>
     </g>
    </g>
    <g id="text_6">
     <!-- Parameter (θ) -->
     <g transform="translate(289.604375 457.391) scale(0.12 -0.12)">
      <defs>
       <path id="DejaVuSans-50" d="M 1259 4147 
L 1259 2394 
L 2053 2394 
Q 2494 2394 2734 2622 
Q 2975 2850 2975 3272 
Q 2975 3691 2734 3919 
Q 2494 4147 2053 4147 
L 1259 4147 
z
M 628 4666 
L 2053 4666 
Q 2838 4666 3239 4311 
Q 3641 3956 3641 3272 
Q 3641 2581 3239 2228 
Q 2838 1875 2053 1875 
L 1259 1875 
L 1259 0 
L 628 0 
L 628 4666 
z
" transform="scale(0.015625)"/>
       <path id="DejaVuSans-61" d="M 2194 1759 
Q 1497 1759 1228 1600 
Q 959 1441 959 1056 
Q 959 750 1161 570 
Q 1363 391 1709 391 
Q 2188 391 2477 730 
Q 2766 1069 2766 1631 
L 2766 1759 
L 2194 1759 
z
M 3341 1997 
L 3341 0 
L 2766 0 
L 2766 531 
Q 2569 213 2275 61 
Q 1981 -91 1556 -91 
Q 1019 -91 701 211 
Q 384 513 384 1019 
Q 384 1609 779 1909 
Q 1175 2209 1959 2209 
L 2766 2209 
L 2766 2266 
Q 2766 2663 2505 2880 
Q 2244 3097 1772 3097 
Q 1472 3097 1187 3025 
Q 903 2953 641 2809 
L 641 3341 
Q 956 3463 1253 3523 
Q 1550 3584 1831 3584 
Q 2591 3584 2966 3190 
Q 3341 2797 3341 1997 
z
" transform="scale(0.015625)"/>
       <path id="DejaVuSans-72" d="M 2631 2963 
Q 2534 3019 2420 3045 
Q 2306 3072 2169 3072 
Q 1681 3072 1420 2755 
Q 1159 2438 1159 1844 
L 1159 0 
L 581 0 
L 581 3500 
L 1159 3500 
L 1159 2956 
Q 1341 3275 1631 3429 
Q 1922 3584 2338 3584 
Q 2397 3584 2469 3576 
Q 2541 3569 2628 3553 
L 2631 2963 
z
" transform="scale(0.015625)"/>
       <path id="DejaVuSans-6d" d="M 3328 2828 
Q 3544 3216 3844 3400 
Q 4144 3584 4550 3584 
Q 5097 3584 5394 3201 
Q 5691 2819 5691 2113 
L 5691 0 
L 5113 0 
L 5113 2094 
Q 5113 2597 4934 2840 
Q 4756 3084 4391 3084 
Q 3944 3084 3684 2787 
Q 3425 2491 3425 1978 
L 3425 0 
L 2847 0 
L 2847 2094 
Q 2847 2600 2669 2842 
Q 2491 3084 2119 3084 
Q 1678 3084 1418 2786 
Q 1159 2488 1159 1978 
L 1159 0 
L 581 0 
L 581 3500 
L 1159 3500 
L 1159 2956 
Q 1356 3278 1631 3431 
Q 1906 3584 2284 3584 
Q 2666 3584 2933 3390 
Q 3200 3197 3328 2828 
z
" transform="scale(0.015625)"/>
       <path id="DejaVuSans-65" d="M 3597 1894 
L 3597 1613 
L 953 1613 
Q 991 1019 1311 708 
Q 1631 397 2203 397 
Q 2534 397 2845 478 
Q 3156 559 3463 722 
L 3463 178 
Q 3153 47 2828 -22 
Q 2503 -91 2169 -91 
Q 1331 -91 842 396 
Q 353 884 353 1716 
Q 353 2575 817 3079 
Q 1281 3584 2069 3584 
Q 2775 3584 3186 3129 
Q 3597 2675 3597 1894 
z
M 3022 2063 
Q 3016 2534 2758 2815 
Q 2500 3097 2075 3097 
Q 1594 3097 1305 2825 
Q 1016 2553 972 2059 
L 3022 2063 
z
" transform="scale(0.015625)"/>
       <path id="DejaVuSans-74" d="M 1172 4494 
L 1172 3500 
L 2356 3500 
L 2356 3053 
L 1172 3053 
L 1172 1153 
Q 1172 725 1289 603 
Q 1406 481 1766 481 
L 2356 481 
L 2356 0 
L 1766 0 
Q 1100 0 847 248 
Q 594 497 594 1153 
L 594 3053 
L 172 3053 
L 172 3500 
L 594 3500 
L 594 4494 
L 1172 4494 
z
" transform="scale(0.015625)"/>
       <path id="DejaVuSans-20" transform="scale(0.015625)"/>
       <path id="DejaVuSans-28" d="M 1984 4856 
Q 1566 4138 1362 3434 
Q 1159 2731 1159 2009 
Q 1159 1288 1364 580 
Q 1569 -128 1984 -844 
L 1484 -844 
Q 1016 -109 783 600 
Q 550 1309 550 2009 
Q 550 2706 781 3412 
Q 1013 4119 1484 4856 
L 1984 4856 
z
" transform="scale(0.015625)"/>
       <path id="DejaVuSans-3b8" d="M 2953 2219 
L 963 2219 
Q 1009 1284 1225 888 
Q 1494 400 1959 400 
Q 2428 400 2688 891 
Q 2916 1322 2953 2219 
z
M 2944 2750 
Q 2856 3638 2688 3950 
Q 2419 4444 1959 4444 
Q 1481 4444 1228 3956 
Q 1028 3563 969 2750 
L 2944 2750 
z
M 1959 4913 
Q 2709 4913 3138 4250 
Q 3566 3591 3566 2422 
Q 3566 1256 3138 594 
Q 2709 -72 1959 -72 
Q 1206 -72 781 594 
Q 353 1256 353 2422 
Q 353 3591 781 4250 
Q 1206 4913 1959 4913 
z
" transform="scale(0.015625)"/>
       <path id="DejaVuSans-29" d="M 513 4856 
L 1013 4856 
Q 1481 4119 1714 3412 
Q 1947 2706 1947 2009 
Q 1947 1309 1714 600 
Q 1481 -109 1013 -844 
L 513 -844 
Q 928 -128 1133 580 
Q 1338 1288 1338 2009 
Q 1338 2731 1133 3434 
Q 928 4138 513 4856 
z
" transform="scale(0.015625)"/>
      </defs>
      <use xlink:href="#DejaVuSans-50"/>
      <use xlink:href="#DejaVuSans-61" transform="translate(55.802734 0)"/>
      <use xlink:href="#DejaVuSans-72" transform="translate(117.082031 0)"/>
      <use xlink:href="#DejaVuSans-61" transform="translate(158.195312 0)"/>
      <use xlink:href="#DejaVuSans-6d" transform="translate(219.474609 0)"/>
      <use xlink:href="#DejaVuSans-65" transform="translate(316.886719 0)"/>
      <use xlink:href="#DejaVuSans-74" transform="translate(378.410156 0)"/>
      <use xlink:href="#DejaVuSans-65" transform="translate(417.619141 0)"/>
      <use xlink:href="#DejaVuSans-72" transform="translate(479.142578 0)"/>
      <use xlink:href="#DejaVuSans-20" transform="translate(520.255859 0)"/>
      <use xlink:href="#DejaVuSans-28" transform="translate(552.042969 0)"/>
      <use xlink:href="#DejaVuSans-3b8" transform="translate(591.056641 0)"/>
      <use xlink:href="#DejaVuSans-29" transform="translate(652.238281 0)"/>
     </g>
    </g>
   </g>
   <g id="matplotlib.axis_2">
    <g id="ytick_1">
     <g id="line2d_11">
      <path d="M 52.079375 409.95475 
L 610.079375 409.95475 
" clip-path="url(#pa6c97c9159)" style="fill: none; stroke: #b0b0b0; stroke-opacity: 0.3; stroke-width: 0.8; stroke-linecap: square"/>
     </g>
     <g id="line2d_12">
      <defs>
       <path id="md94685de67" d="M 0 0 
L -3.5 0 
" style="stroke: #000000; stroke-width: 0.8"/>
      </defs>
      <g>
       <use xlink:href="#md94685de67" x="52.079375" y="409.95475" style="stroke: #000000; stroke-width: 0.8"/>
      </g>
     </g>
     <g id="text_7">
      <!-- 0.0 -->
      <g transform="translate(29.17625 413.753969) scale(0.1 -0.1)">
       <defs>
        <path id="DejaVuSans-2e" d="M 684 794 
L 1344 794 
L 1344 0 
L 684 0 
L 684 794 
z
" transform="scale(0.015625)"/>
       </defs>
       <use xlink:href="#DejaVuSans-30"/>
       <use xlink:href="#DejaVuSans-2e" transform="translate(63.623047 0)"/>
       <use xlink:href="#DejaVuSans-30" transform="translate(95.410156 0)"/>
      </g>
     </g>
    </g>
    <g id="ytick_2">
     <g id="line2d_13">
      <path d="M 52.079375 364.532622 
L 610.079375 364.532622 
" clip-path="url(#pa6c97c9159)" style="fill: none; stroke: #b0b0b0; stroke-opacity: 0.3; stroke-width: 0.8; stroke-linecap: square"/>
     </g>
     <g id="line2d_14">
      <g>
       <use xlink:href="#md94685de67" x="52.079375" y="364.532622" style="stroke: #000000; stroke-width: 0.8"/>
      </g>
     </g>
     <g id="text_8">
      <!-- 2.5 -->
      <g transform="translate(29.17625 368.331841) scale(0.1 -0.1)">
       <defs>
        <path id="DejaVuSans-35" d="M 691 4666 
L 3169 4666 
L 3169 4134 
L 1269 4134 
L 1269 2991 
Q 1406 3038 1543 3061 
Q 1681 3084 1819 3084 
Q 2600 3084 3056 2656 
Q 3513 2228 3513 1497 
Q 3513 744 3044 326 
Q 2575 -91 1722 -91 
Q 1428 -91 1123 -41 
Q 819 9 494 109 
L 494 744 
Q 775 591 1075 516 
Q 1375 441 1709 441 
Q 2250 441 2565 725 
Q 2881 1009 2881 1497 
Q 2881 1984 2565 2268 
Q 2250 2553 1709 2553 
Q 1456 2553 1204 2497 
Q 953 2441 691 2322 
L 691 4666 
z
" transform="scale(0.015625)"/>
       </defs>
       <use xlink:href="#DejaVuSans-32"/>
       <use xlink:href="#DejaVuSans-2e" transform="translate(63.623047 0)"/>
       <use xlink:href="#DejaVuSans-35" transform="translate(95.410156 0)"/>
      </g>
     </g>
    </g>
    <g id="ytick_3">
     <g id="line2d_15">
      <path d="M 52.079375 319.110494 
L 610.079375 319.110494 
" clip-path="url(#pa6c97c9159)" style="fill: none; stroke: #b0b0b0; stroke-opacity: 0.3; stroke-width: 0.8; stroke-linecap: square"/>
     </g>
     <g id="line2d_16">
      <g>
       <use xlink:href="#md94685de67" x="52.079375" y="319.110494" style="stroke: #000000; stroke-width: 0.8"/>
      </g>
     </g>
     <g id="text_9">
      <!-- 5.0 -->
      <g transform="translate(29.17625 322.909713) scale(0.1 -0.1)">
       <use xlink:href="#DejaVuSans-35"/>
       <use xlink:href="#DejaVuSans-2e" transform="translate(63.623047 0)"/>
       <use xlink:href="#DejaVuSans-30" transform="translate(95.410156 0)"/>
      </g>
     </g>
    </g>
    <g id="ytick_4">
     <g id="line2d_17">
      <path d="M 52.079375 273.688366 
L 610.079375 273.688366 
" clip-path="url(#pa6c97c9159)" style="fill: none; stroke: #b0b0b0; stroke-opacity: 0.3; stroke-width: 0.8; stroke-linecap: square"/>
     </g>
     <g id="line2d_18">
      <g>
       <use xlink:href="#md94685de67" x="52.079375" y="273.688366" style="stroke: #000000; stroke-width: 0.8"/>
      </g>
     </g>
     <g id="text_10">
      <!-- 7.5 -->
      <g transform="translate(29.17625 277.487585) scale(0.1 -0.1)">
       <defs>
        <path id="DejaVuSans-37" d="M 525 4666 
L 3525 4666 
L 3525 4397 
L 1831 0 
L 1172 0 
L 2766 4134 
L 525 4134 
L 525 4666 
z
" transform="scale(0.015625)"/>
       </defs>
       <use xlink:href="#DejaVuSans-37"/>
       <use xlink:href="#DejaVuSans-2e" transform="translate(63.623047 0)"/>
       <use xlink:href="#DejaVuSans-35" transform="translate(95.410156 0)"/>
      </g>
     </g>
    </g>
    <g id="ytick_5">
     <g id="line2d_19">
      <path d="M 52.079375 228.266238 
L 610.079375 228.266238 
" clip-path="url(#pa6c97c9159)" style="fill: none; stroke: #b0b0b0; stroke-opacity: 0.3; stroke-width: 0.8; stroke-linecap: square"/>
     </g>
     <g id="line2d_20">
      <g>
       <use xlink:href="#md94685de67" x="52.079375" y="228.266238" style="stroke: #000000; stroke-width: 0.8"/>
      </g>
     </g>
     <g id="text_11">
      <!-- 10.0 -->
      <g transform="translate(22.81375 232.065457) scale(0.1 -0.1)">
       <defs>
        <path id="DejaVuSans-31" d="M 794 531 
L 1825 531 
L 1825 4091 
L 703 3866 
L 703 4441 
L 1819 4666 
L 2450 4666 
L 2450 531 
L 3481 531 
L 3481 0 
L 794 0 
L 794 531 
z
" transform="scale(0.015625)"/>
       </defs>
       <use xlink:href="#DejaVuSans-31"/>
       <use xlink:href="#DejaVuSans-30" transform="translate(63.623047 0)"/>
       <use xlink:href="#DejaVuSans-2e" transform="translate(127.246094 0)"/>
       <use xlink:href="#DejaVuSans-30" transform="translate(159.033203 0)"/>
      </g>
     </g>
    </g>
    <g id="ytick_6">
     <g id="line2d_21">
      <path d="M 52.079375 182.844111 
L 610.079375 182.844111 
" clip-path="url(#pa6c97c9159)" style="fill: none; stroke: #b0b0b0; stroke-opacity: 0.3; stroke-width: 0.8; stroke-linecap: square"/>
     </g>
     <g id="line2d_22">
      <g>
       <use xlink:href="#md94685de67" x="52.079375" y="182.844111" style="stroke: #000000; stroke-width: 0.8"/>
      </g>
     </g>
     <g id="text_12">
      <!-- 12.5 -->
      <g transform="translate(22.81375 186.643329) scale(0.1 -0.1)">
       <use xlink:href="#DejaVuSans-31"/>
       <use xlink:href="#DejaVuSans-32" transform="translate(63.623047 0)"/>
       <use xlink:href="#DejaVuSans-2e" transform="translate(127.246094 0)"/>
       <use xlink:href="#DejaVuSans-35" transform="translate(159.033203 0)"/>
      </g>
     </g>
    </g>
    <g id="ytick_7">
     <g id="line2d_23">
      <path d="M 52.079375 137.421983 
L 610.079375 137.421983 
" clip-path="url(#pa6c97c9159)" style="fill: none; stroke: #b0b0b0; stroke-opacity: 0.3; stroke-width: 0.8; stroke-linecap: square"/>
     </g>
     <g id="line2d_24">
      <g>
       <use xlink:href="#md94685de67" x="52.079375" y="137.421983" style="stroke: #000000; stroke-width: 0.8"/>
      </g>
     </g>
     <g id="text_13">
      <!-- 15.0 -->
      <g transform="translate(22.81375 141.221201) scale(0.1 -0.1)">
       <use xlink:href="#DejaVuSans-31"/>
       <use xlink:href="#DejaVuSans-35" transform="translate(63.623047 0)"/>
       <use xlink:href="#DejaVuSans-2e" transform="translate(127.246094 0)"/>
       <use xlink:href="#DejaVuSans-30" transform="translate(159.033203 0)"/>
      </g>
     </g>
    </g>
    <g id="ytick_8">
     <g id="line2d_25">
      <path d="M 52.079375 91.999855 
L 610.079375 91.999855 
" clip-path="url(#pa6c97c9159)" style="fill: none; stroke: #b0b0b0; stroke-opacity: 0.3; stroke-width: 0.8; stroke-linecap: square"/>
     </g>
     <g id="line2d_26">
      <g>
       <use xlink:href="#md94685de67" x="52.079375" y="91.999855" style="stroke: #000000; stroke-width: 0.8"/>
      </g>
     </g>
     <g id="text_14">
      <!-- 17.5 -->
      <g transform="translate(22.81375 95.799074) scale(0.1 -0.1)">
       <use xlink:href="#DejaVuSans-31"/>
       <use xlink:href="#DejaVuSans-37" transform="translate(63.623047 0)"/>
       <use xlink:href="#DejaVuSans-2e" transform="translate(127.246094 0)"/>
       <use xlink:href="#DejaVuSans-35" transform="translate(159.033203 0)"/>
      </g>
     </g>
    </g>
    <g id="ytick_9">
     <g id="line2d_27">
      <path d="M 52.079375 46.577727 
L 610.079375 46.577727 
" clip-path="url(#pa6c97c9159)" style="fill: none; stroke: #b0b0b0; stroke-opacity: 0.3; stroke-width: 0.8; stroke-linecap: square"/>
     </g>
     <g id="line2d_28">
      <g>
       <use xlink:href="#md94685de67" x="52.079375" y="46.577727" style="stroke: #000000; stroke-width: 0.8"/>
      </g>
     </g>
     <g id="text_15">
      <!-- 20.0 -->
      <g transform="translate(22.81375 50.376946) scale(0.1 -0.1)">
       <use xlink:href="#DejaVuSans-32"/>
       <use xlink:href="#DejaVuSans-30" transform="translate(63.623047 0)"/>
       <use xlink:href="#DejaVuSans-2e" transform="translate(127.246094 0)"/>
       <use xlink:href="#DejaVuSans-30" transform="translate(159.033203 0)"/>
      </g>
     </g>
    </g>
    <g id="text_16">
     <!-- Loss L(θ) -->
     <g transform="translate(16.318125 260.3185) rotate(-90) scale(0.12 -0.12)">
      <defs>
       <path id="DejaVuSans-4c" d="M 628 4666 
L 1259 4666 
L 1259 531 
L 3531 531 
L 3531 0 
L 628 0 
L 628 4666 
z
" transform="scale(0.015625)"/>
       <path id="DejaVuSans-6f" d="M 1959 3097 
Q 1497 3097 1228 2736 
Q 959 2375 959 1747 
Q 959 1119 1226 758 
Q 1494 397 1959 397 
Q 2419 397 2687 759 
Q 2956 1122 2956 1747 
Q 2956 2369 2687 2733 
Q 2419 3097 1959 3097 
z
M 1959 3584 
Q 2709 3584 3137 3096 
Q 3566 2609 3566 1747 
Q 3566 888 3137 398 
Q 2709 -91 1959 -91 
Q 1206 -91 779 398 
Q 353 888 353 1747 
Q 353 2609 779 3096 
Q 1206 3584 1959 3584 
z
" transform="scale(0.015625)"/>
       <path id="DejaVuSans-73" d="M 2834 3397 
L 2834 2853 
Q 2591 2978 2328 3040 
Q 2066 3103 1784 3103 
Q 1356 3103 1142 2972 
Q 928 2841 928 2578 
Q 928 2378 1081 2264 
Q 1234 2150 1697 2047 
L 1894 2003 
Q 2506 1872 2764 1633 
Q 3022 1394 3022 966 
Q 3022 478 2636 193 
Q 2250 -91 1575 -91 
Q 1294 -91 989 -36 
Q 684 19 347 128 
L 347 722 
Q 666 556 975 473 
Q 1284 391 1588 391 
Q 1994 391 2212 530 
Q 2431 669 2431 922 
Q 2431 1156 2273 1281 
Q 2116 1406 1581 1522 
L 1381 1569 
Q 847 1681 609 1914 
Q 372 2147 372 2553 
Q 372 3047 722 3315 
Q 1072 3584 1716 3584 
Q 2034 3584 2315 3537 
Q 2597 3491 2834 3397 
z
" transform="scale(0.015625)"/>
      </defs>
      <use xlink:href="#DejaVuSans-4c"/>
      <use xlink:href="#DejaVuSans-6f" transform="translate(53.962891 0)"/>
      <use xlink:href="#DejaVuSans-73" transform="translate(115.144531 0)"/>
      <use xlink:href="#DejaVuSans-73" transform="translate(167.244141 0)"/>
      <use xlink:href="#DejaVuSans-20" transform="translate(219.34375 0)"/>
      <use xlink:href="#DejaVuSans-4c" transform="translate(251.130859 0)"/>
      <use xlink:href="#DejaVuSans-28" transform="translate(306.84375 0)"/>
      <use xlink:href="#DejaVuSans-3b8" transform="translate(345.857422 0)"/>
      <use xlink:href="#DejaVuSans-29" transform="translate(407.039062 0)"/>
     </g>
    </g>
   </g>
   <g id="line2d_29">
    <path d="M 77.443011 57.15475 
L 82.566978 65.376455 
L 87.690945 73.776792 
L 92.814912 82.360836 
L 97.938879 91.129897 
L 103.062846 100.081514 
L 108.186813 109.209469 
L 113.31078 118.503863 
L 118.434747 127.951204 
L 123.558714 137.534557 
L 128.682681 147.233706 
L 133.806648 157.025368 
L 138.930615 166.883425 
L 144.054582 176.779192 
L 149.178549 186.681712 
L 154.302515 196.558068 
L 159.426482 206.37372 
L 164.550449 216.092856 
L 169.674416 225.678761 
L 174.798383 235.094185 
L 179.92235 244.301729 
L 185.046317 253.26422 
L 190.170284 261.945098 
L 195.294251 270.30878 
L 200.418218 278.321029 
L 205.542185 285.9493 
L 210.666152 293.163072 
L 215.790119 299.934162 
L 220.914086 306.237007 
L 226.038053 312.048931 
L 231.16202 317.350369 
L 236.285987 322.125074 
L 241.409954 326.360276 
L 246.53392 330.046817 
L 251.657887 333.179241 
L 256.781854 335.755854 
L 261.905821 337.778733 
L 267.029788 339.253716 
L 272.153755 340.190333 
L 277.277722 340.601713 
L 282.401689 340.50445 
L 287.525656 339.918435 
L 292.649623 338.866648 
L 297.77359 337.374932 
L 302.897557 335.471722 
L 308.021524 333.187759 
L 313.145491 330.555775 
L 318.269458 327.610161 
L 323.393425 324.386616 
L 328.517392 320.921779 
L 333.641358 317.252865 
L 338.765325 313.417274 
L 343.889292 309.452218 
L 349.013259 305.394339 
L 354.137226 301.279334 
L 359.261193 297.141596 
L 364.38516 293.013856 
L 369.509127 288.926854 
L 374.633094 284.909028 
L 379.757061 280.986217 
L 384.881028 277.181404 
L 390.004995 273.514478 
L 395.128962 270.002034 
L 400.252929 266.657201 
L 405.376896 263.48951 
L 410.500863 260.504797 
L 415.62483 257.705141 
L 420.748796 255.088846 
L 425.872763 252.650457 
L 430.99673 250.380816 
L 436.120697 248.267153 
L 441.244664 246.29322 
L 446.368631 244.439455 
L 451.492598 242.683178 
L 456.616565 240.998829 
L 461.740532 239.358224 
L 466.864499 237.730842 
L 471.988466 236.084138 
L 477.112433 234.383874 
L 482.2364 232.594469 
L 487.360367 230.679361 
L 492.484334 228.601379 
L 497.608301 226.323122 
L 502.732268 223.807342 
L 507.856235 221.017322 
L 512.980201 217.917251 
L 518.104168 214.47259 
L 523.228135 210.65042 
L 528.352102 206.419785 
L 533.476069 201.752 
L 538.600036 196.620947 
L 543.724003 191.003343 
L 548.84797 184.878973 
L 553.971937 178.230899 
L 559.095904 171.045633 
L 564.219871 163.313272 
L 569.343838 155.027601 
L 574.467805 146.186157 
L 579.591772 136.790252 
L 584.715739 126.84496 
" clip-path="url(#pa6c97c9159)" style="fill: none; stroke: #1e3a5f; stroke-width: 3; stroke-linecap: square"/>
   </g>
   <g id="patch_3">
    <path d="M 52.079375 427.59475 
L 52.079375 39.51475 
" style="fill: none; stroke: #000000; stroke-width: 0.8; stroke-linejoin: miter; stroke-linecap: square"/>
   </g>
   <g id="patch_4">
    <path d="M 610.079375 427.59475 
L 610.079375 39.51475 
" style="fill: none; stroke: #000000; stroke-width: 0.8; stroke-linejoin: miter; stroke-linecap: square"/>
   </g>
   <g id="patch_5">
    <path d="M 52.079375 427.59475 
L 610.079375 427.59475 
" style="fill: none; stroke: #000000; stroke-width: 0.8; stroke-linejoin: miter; stroke-linecap: square"/>
   </g>
   <g id="patch_6">
    <path d="M 52.079375 39.51475 
L 610.079375 39.51475 
" style="fill: none; stroke: #000000; stroke-width: 0.8; stroke-linejoin: miter; stroke-linecap: square"/>
   </g>
   <g id="text_17">
    <!-- Step 1 -->
    <g style="fill: #e85a4f" transform="translate(111.807862 131.72414) scale(0.09 -0.09)">
     <defs>
      <path id="DejaVuSans-Bold-53" d="M 3834 4519 
L 3834 3531 
Q 3450 3703 3084 3790 
Q 2719 3878 2394 3878 
Q 1963 3878 1756 3759 
Q 1550 3641 1550 3391 
Q 1550 3203 1689 3098 
Q 1828 2994 2194 2919 
L 2706 2816 
Q 3484 2659 3812 2340 
Q 4141 2022 4141 1434 
Q 4141 663 3683 286 
Q 3225 -91 2284 -91 
Q 1841 -91 1394 -6 
Q 947 78 500 244 
L 500 1259 
Q 947 1022 1364 901 
Q 1781 781 2169 781 
Q 2563 781 2772 912 
Q 2981 1044 2981 1288 
Q 2981 1506 2839 1625 
Q 2697 1744 2272 1838 
L 1806 1941 
Q 1106 2091 782 2419 
Q 459 2747 459 3303 
Q 459 4000 909 4375 
Q 1359 4750 2203 4750 
Q 2588 4750 2994 4692 
Q 3400 4634 3834 4519 
z
" transform="scale(0.015625)"/>
      <path id="DejaVuSans-Bold-74" d="M 1759 4494 
L 1759 3500 
L 2913 3500 
L 2913 2700 
L 1759 2700 
L 1759 1216 
Q 1759 972 1856 886 
Q 1953 800 2241 800 
L 2816 800 
L 2816 0 
L 1856 0 
Q 1194 0 917 276 
Q 641 553 641 1216 
L 641 2700 
L 84 2700 
L 84 3500 
L 641 3500 
L 641 4494 
L 1759 4494 
z
" transform="scale(0.015625)"/>
      <path id="DejaVuSans-Bold-65" d="M 4031 1759 
L 4031 1441 
L 1416 1441 
Q 1456 1047 1700 850 
Q 1944 653 2381 653 
Q 2734 653 3104 758 
Q 3475 863 3866 1075 
L 3866 213 
Q 3469 63 3072 -14 
Q 2675 -91 2278 -91 
Q 1328 -91 801 392 
Q 275 875 275 1747 
Q 275 2603 792 3093 
Q 1309 3584 2216 3584 
Q 3041 3584 3536 3087 
Q 4031 2591 4031 1759 
z
M 2881 2131 
Q 2881 2450 2695 2645 
Q 2509 2841 2209 2841 
Q 1884 2841 1681 2658 
Q 1478 2475 1428 2131 
L 2881 2131 
z
" transform="scale(0.015625)"/>
      <path id="DejaVuSans-Bold-70" d="M 1656 506 
L 1656 -1331 
L 538 -1331 
L 538 3500 
L 1656 3500 
L 1656 2988 
Q 1888 3294 2169 3439 
Q 2450 3584 2816 3584 
Q 3463 3584 3878 3070 
Q 4294 2556 4294 1747 
Q 4294 938 3878 423 
Q 3463 -91 2816 -91 
Q 2450 -91 2169 54 
Q 1888 200 1656 506 
z
M 2400 2772 
Q 2041 2772 1848 2508 
Q 1656 2244 1656 1747 
Q 1656 1250 1848 986 
Q 2041 722 2400 722 
Q 2759 722 2948 984 
Q 3138 1247 3138 1747 
Q 3138 2247 2948 2509 
Q 2759 2772 2400 2772 
z
" transform="scale(0.015625)"/>
      <path id="DejaVuSans-Bold-20" transform="scale(0.015625)"/>
      <path id="DejaVuSans-Bold-31" d="M 750 831 
L 1813 831 
L 1813 3847 
L 722 3622 
L 722 4441 
L 1806 4666 
L 2950 4666 
L 2950 831 
L 4013 831 
L 4013 0 
L 750 0 
L 750 831 
z
" transform="scale(0.015625)"/>
     </defs>
     <use xlink:href="#DejaVuSans-Bold-53"/>
     <use xlink:href="#DejaVuSans-Bold-74" transform="translate(72.021484 0)"/>
     <use xlink:href="#DejaVuSans-Bold-65" transform="translate(119.824219 0)"/>
     <use xlink:href="#DejaVuSans-Bold-70" transform="translate(187.646484 0)"/>
     <use xlink:href="#DejaVuSans-Bold-20" transform="translate(259.228516 0)"/>
     <use xlink:href="#DejaVuSans-Bold-31" transform="translate(294.042969 0)"/>
    </g>
   </g>
   <g id="patch_7">
    <path d="M 129.138604 148.013104 
Q 166.217315 215.172434 202.215267 280.374225 
" style="fill: none; stroke-dasharray: 7.4,3.2; stroke-dashoffset: 0; stroke: #94a3b8; stroke-width: 2; stroke-linecap: round"/>
    <path d="M 202.032823 275.905812 
L 202.215267 280.374225 
L 198.53107 277.839132 
" style="fill: none; stroke-dasharray: 7.4,3.2; stroke-dashoffset: 0; stroke: #94a3b8; stroke-width: 2; stroke-linecap: round"/>
   </g>
   <g id="text_18">
    <!-- Step 2 -->
    <g style="fill: #e9c46a" transform="translate(187.898771 269.544856) scale(0.09 -0.09)">
     <defs>
      <path id="DejaVuSans-Bold-32" d="M 1844 884 
L 3897 884 
L 3897 0 
L 506 0 
L 506 884 
L 2209 2388 
Q 2438 2594 2547 2791 
Q 2656 2988 2656 3200 
Q 2656 3528 2436 3728 
Q 2216 3928 1850 3928 
Q 1569 3928 1234 3808 
Q 900 3688 519 3450 
L 519 4475 
Q 925 4609 1322 4679 
Q 1719 4750 2100 4750 
Q 2938 4750 3402 4381 
Q 3866 4013 3866 3353 
Q 3866 2972 3669 2642 
Q 3472 2313 2841 1759 
L 1844 884 
z
" transform="scale(0.015625)"/>
     </defs>
     <use xlink:href="#DejaVuSans-Bold-53"/>
     <use xlink:href="#DejaVuSans-Bold-74" transform="translate(72.021484 0)"/>
     <use xlink:href="#DejaVuSans-Bold-65" transform="translate(119.824219 0)"/>
     <use xlink:href="#DejaVuSans-Bold-70" transform="translate(187.646484 0)"/>
     <use xlink:href="#DejaVuSans-Bold-20" transform="translate(259.228516 0)"/>
     <use xlink:href="#DejaVuSans-Bold-32" transform="translate(294.042969 0)"/>
    </g>
   </g>
   <g id="patch_8">
    <path d="M 205.788677 285.372821 
Q 237.233918 311.988507 266.972394 337.159563 
" style="fill: none; stroke-dasharray: 7.4,3.2; stroke-dashoffset: 0; stroke: #94a3b8; stroke-width: 2; stroke-linecap: round"/>
    <path d="M 265.211356 333.048755 
L 266.972394 337.159563 
L 262.627124 336.101908 
" style="fill: none; stroke-dasharray: 7.4,3.2; stroke-dashoffset: 0; stroke: #94a3b8; stroke-width: 2; stroke-linecap: round"/>
   </g>
   <g id="text_19">
    <!-- Step 3 -->
    <g style="fill: #8b5cf6" transform="translate(253.844226 325.361999) scale(0.09 -0.09)">
     <defs>
      <path id="DejaVuSans-Bold-33" d="M 2981 2516 
Q 3453 2394 3698 2092 
Q 3944 1791 3944 1325 
Q 3944 631 3412 270 
Q 2881 -91 1863 -91 
Q 1503 -91 1142 -33 
Q 781 25 428 141 
L 428 1069 
Q 766 900 1098 814 
Q 1431 728 1753 728 
Q 2231 728 2486 893 
Q 2741 1059 2741 1369 
Q 2741 1688 2480 1852 
Q 2219 2016 1709 2016 
L 1228 2016 
L 1228 2791 
L 1734 2791 
Q 2188 2791 2409 2933 
Q 2631 3075 2631 3366 
Q 2631 3634 2415 3781 
Q 2200 3928 1806 3928 
Q 1516 3928 1219 3862 
Q 922 3797 628 3669 
L 628 4550 
Q 984 4650 1334 4700 
Q 1684 4750 2022 4750 
Q 2931 4750 3382 4451 
Q 3834 4153 3834 3553 
Q 3834 3144 3618 2883 
Q 3403 2622 2981 2516 
z
" transform="scale(0.015625)"/>
     </defs>
     <use xlink:href="#DejaVuSans-Bold-53"/>
     <use xlink:href="#DejaVuSans-Bold-74" transform="translate(72.021484 0)"/>
     <use xlink:href="#DejaVuSans-Bold-65" transform="translate(119.824219 0)"/>
     <use xlink:href="#DejaVuSans-Bold-70" transform="translate(187.646484 0)"/>
     <use xlink:href="#DejaVuSans-Bold-20" transform="translate(259.228516 0)"/>
     <use xlink:href="#DejaVuSans-Bold-33" transform="translate(294.042969 0)"/>
    </g>
   </g>
   <g id="patch_9">
    <path d="M 272.154434 339.433512 
Q 293.035455 334.463885 311.741168 330.011976 
" style="fill: none; stroke-dasharray: 7.4,3.2; stroke-dashoffset: 0; stroke: #94a3b8; stroke-width: 2; stroke-linecap: round"/>
    <path d="M 307.386797 328.992442 
L 311.741168 330.011976 
L 308.312918 332.883753 
" style="fill: none; stroke-dasharray: 7.4,3.2; stroke-dashoffset: 0; stroke: #94a3b8; stroke-width: 2; stroke-linecap: round"/>
   </g>
   <g id="text_20">
    <!-- Step 4 -->
    <g style="fill: #3b82f6" transform="translate(299.498771 314.49634) scale(0.09 -0.09)">
     <defs>
      <path id="DejaVuSans-Bold-34" d="M 2356 3675 
L 1038 1722 
L 2356 1722 
L 2356 3675 
z
M 2156 4666 
L 3494 4666 
L 3494 1722 
L 4159 1722 
L 4159 850 
L 3494 850 
L 3494 0 
L 2356 0 
L 2356 850 
L 288 850 
L 288 1881 
L 2156 4666 
z
" transform="scale(0.015625)"/>
     </defs>
     <use xlink:href="#DejaVuSans-Bold-53"/>
     <use xlink:href="#DejaVuSans-Bold-74" transform="translate(72.021484 0)"/>
     <use xlink:href="#DejaVuSans-Bold-65" transform="translate(119.824219 0)"/>
     <use xlink:href="#DejaVuSans-Bold-70" transform="translate(187.646484 0)"/>
     <use xlink:href="#DejaVuSans-Bold-20" transform="translate(259.228516 0)"/>
     <use xlink:href="#DejaVuSans-Bold-34" transform="translate(294.042969 0)"/>
    </g>
   </g>
   <g id="patch_10">
    <path d="M 317.505247 327.896857 
Q 328.541281 320.28087 337.736939 313.93493 
" style="fill: none; stroke-dasharray: 7.4,3.2; stroke-dashoffset: 0; stroke: #94a3b8; stroke-width: 2; stroke-linecap: round"/>
    <path d="M 333.308811 314.560776 
L 337.736939 313.93493 
L 335.580739 317.85294 
" style="fill: none; stroke-dasharray: 7.4,3.2; stroke-dashoffset: 0; stroke: #94a3b8; stroke-width: 2; stroke-linecap: round"/>
   </g>
   <g id="text_21">
    <!-- Step 5 -->
    <g style="fill: #2a9d8f" transform="translate(324.862408 296.992849) scale(0.09 -0.09)">
     <defs>
      <path id="DejaVuSans-Bold-35" d="M 678 4666 
L 3669 4666 
L 3669 3781 
L 1638 3781 
L 1638 3059 
Q 1775 3097 1914 3117 
Q 2053 3138 2203 3138 
Q 3056 3138 3531 2711 
Q 4006 2284 4006 1522 
Q 4006 766 3489 337 
Q 2972 -91 2053 -91 
Q 1656 -91 1267 -14 
Q 878 63 494 219 
L 494 1166 
Q 875 947 1217 837 
Q 1559 728 1863 728 
Q 2300 728 2551 942 
Q 2803 1156 2803 1522 
Q 2803 1891 2551 2103 
Q 2300 2316 1863 2316 
Q 1603 2316 1309 2248 
Q 1016 2181 678 2041 
L 678 4666 
z
" transform="scale(0.015625)"/>
     </defs>
     <use xlink:href="#DejaVuSans-Bold-53"/>
     <use xlink:href="#DejaVuSans-Bold-74" transform="translate(72.021484 0)"/>
     <use xlink:href="#DejaVuSans-Bold-65" transform="translate(119.824219 0)"/>
     <use xlink:href="#DejaVuSans-Bold-70" transform="translate(187.646484 0)"/>
     <use xlink:href="#DejaVuSans-Bold-20" transform="translate(259.228516 0)"/>
     <use xlink:href="#DejaVuSans-Bold-35" transform="translate(294.042969 0)"/>
    </g>
   </g>
   <g id="text_22">
    <!-- Gradient Descent: Follow the Slope Downhill -->
    <g style="fill: #1e3a5f" transform="translate(155.010781 17.837812) scale(0.14 -0.14)">
     <defs>
      <path id="DejaVuSans-Bold-47" d="M 4781 347 
Q 4331 128 3847 18 
Q 3363 -91 2847 -91 
Q 1681 -91 1000 561 
Q 319 1213 319 2328 
Q 319 3456 1012 4103 
Q 1706 4750 2913 4750 
Q 3378 4750 3804 4662 
Q 4231 4575 4609 4403 
L 4609 3438 
Q 4219 3659 3833 3768 
Q 3447 3878 3059 3878 
Q 2341 3878 1952 3476 
Q 1563 3075 1563 2328 
Q 1563 1588 1938 1184 
Q 2313 781 3003 781 
Q 3191 781 3352 804 
Q 3513 828 3641 878 
L 3641 1784 
L 2906 1784 
L 2906 2591 
L 4781 2591 
L 4781 347 
z
" transform="scale(0.015625)"/>
      <path id="DejaVuSans-Bold-72" d="M 3138 2547 
Q 2991 2616 2845 2648 
Q 2700 2681 2553 2681 
Q 2122 2681 1889 2404 
Q 1656 2128 1656 1613 
L 1656 0 
L 538 0 
L 538 3500 
L 1656 3500 
L 1656 2925 
Q 1872 3269 2151 3426 
Q 2431 3584 2822 3584 
Q 2878 3584 2943 3579 
Q 3009 3575 3134 3559 
L 3138 2547 
z
" transform="scale(0.015625)"/>
      <path id="DejaVuSans-Bold-61" d="M 2106 1575 
Q 1756 1575 1579 1456 
Q 1403 1338 1403 1106 
Q 1403 894 1545 773 
Q 1688 653 1941 653 
Q 2256 653 2472 879 
Q 2688 1106 2688 1447 
L 2688 1575 
L 2106 1575 
z
M 3816 1997 
L 3816 0 
L 2688 0 
L 2688 519 
Q 2463 200 2181 54 
Q 1900 -91 1497 -91 
Q 953 -91 614 226 
Q 275 544 275 1050 
Q 275 1666 698 1953 
Q 1122 2241 2028 2241 
L 2688 2241 
L 2688 2328 
Q 2688 2594 2478 2717 
Q 2269 2841 1825 2841 
Q 1466 2841 1156 2769 
Q 847 2697 581 2553 
L 581 3406 
Q 941 3494 1303 3539 
Q 1666 3584 2028 3584 
Q 2975 3584 3395 3211 
Q 3816 2838 3816 1997 
z
" transform="scale(0.015625)"/>
      <path id="DejaVuSans-Bold-64" d="M 2919 2988 
L 2919 4863 
L 4044 4863 
L 4044 0 
L 2919 0 
L 2919 506 
Q 2688 197 2409 53 
Q 2131 -91 1766 -91 
Q 1119 -91 703 423 
Q 288 938 288 1747 
Q 288 2556 703 3070 
Q 1119 3584 1766 3584 
Q 2128 3584 2408 3439 
Q 2688 3294 2919 2988 
z
M 2181 722 
Q 2541 722 2730 984 
Q 2919 1247 2919 1747 
Q 2919 2247 2730 2509 
Q 2541 2772 2181 2772 
Q 1825 2772 1636 2509 
Q 1447 2247 1447 1747 
Q 1447 1247 1636 984 
Q 1825 722 2181 722 
z
" transform="scale(0.015625)"/>
      <path id="DejaVuSans-Bold-69" d="M 538 3500 
L 1656 3500 
L 1656 0 
L 538 0 
L 538 3500 
z
M 538 4863 
L 1656 4863 
L 1656 3950 
L 538 3950 
L 538 4863 
z
" transform="scale(0.015625)"/>
      <path id="DejaVuSans-Bold-6e" d="M 4056 2131 
L 4056 0 
L 2931 0 
L 2931 347 
L 2931 1631 
Q 2931 2084 2911 2256 
Q 2891 2428 2841 2509 
Q 2775 2619 2662 2680 
Q 2550 2741 2406 2741 
Q 2056 2741 1856 2470 
Q 1656 2200 1656 1722 
L 1656 0 
L 538 0 
L 538 3500 
L 1656 3500 
L 1656 2988 
Q 1909 3294 2193 3439 
Q 2478 3584 2822 3584 
Q 3428 3584 3742 3212 
Q 4056 2841 4056 2131 
z
" transform="scale(0.015625)"/>
      <path id="DejaVuSans-Bold-44" d="M 1791 3756 
L 1791 909 
L 2222 909 
Q 2959 909 3348 1275 
Q 3738 1641 3738 2338 
Q 3738 3031 3350 3393 
Q 2963 3756 2222 3756 
L 1791 3756 
z
M 588 4666 
L 1856 4666 
Q 2919 4666 3439 4514 
Q 3959 4363 4331 4000 
Q 4659 3684 4818 3271 
Q 4978 2859 4978 2338 
Q 4978 1809 4818 1395 
Q 4659 981 4331 666 
Q 3956 303 3431 151 
Q 2906 0 1856 0 
L 588 0 
L 588 4666 
z
" transform="scale(0.015625)"/>
      <path id="DejaVuSans-Bold-73" d="M 3272 3391 
L 3272 2541 
Q 2913 2691 2578 2766 
Q 2244 2841 1947 2841 
Q 1628 2841 1473 2761 
Q 1319 2681 1319 2516 
Q 1319 2381 1436 2309 
Q 1553 2238 1856 2203 
L 2053 2175 
Q 2913 2066 3209 1816 
Q 3506 1566 3506 1031 
Q 3506 472 3093 190 
Q 2681 -91 1863 -91 
Q 1516 -91 1145 -36 
Q 775 19 384 128 
L 384 978 
Q 719 816 1070 734 
Q 1422 653 1784 653 
Q 2113 653 2278 743 
Q 2444 834 2444 1013 
Q 2444 1163 2330 1236 
Q 2216 1309 1875 1350 
L 1678 1375 
Q 931 1469 631 1722 
Q 331 1975 331 2491 
Q 331 3047 712 3315 
Q 1094 3584 1881 3584 
Q 2191 3584 2531 3537 
Q 2872 3491 3272 3391 
z
" transform="scale(0.015625)"/>
      <path id="DejaVuSans-Bold-63" d="M 3366 3391 
L 3366 2478 
Q 3138 2634 2908 2709 
Q 2678 2784 2431 2784 
Q 1963 2784 1702 2511 
Q 1441 2238 1441 1747 
Q 1441 1256 1702 982 
Q 1963 709 2431 709 
Q 2694 709 2930 787 
Q 3166 866 3366 1019 
L 3366 103 
Q 3103 6 2833 -42 
Q 2563 -91 2291 -91 
Q 1344 -91 809 395 
Q 275 881 275 1747 
Q 275 2613 809 3098 
Q 1344 3584 2291 3584 
Q 2566 3584 2833 3536 
Q 3100 3488 3366 3391 
z
" transform="scale(0.015625)"/>
      <path id="DejaVuSans-Bold-3a" d="M 716 3500 
L 1844 3500 
L 1844 2291 
L 716 2291 
L 716 3500 
z
M 716 1209 
L 1844 1209 
L 1844 0 
L 716 0 
L 716 1209 
z
" transform="scale(0.015625)"/>
      <path id="DejaVuSans-Bold-46" d="M 588 4666 
L 3834 4666 
L 3834 3756 
L 1791 3756 
L 1791 2888 
L 3713 2888 
L 3713 1978 
L 1791 1978 
L 1791 0 
L 588 0 
L 588 4666 
z
" transform="scale(0.015625)"/>
      <path id="DejaVuSans-Bold-6f" d="M 2203 2784 
Q 1831 2784 1636 2517 
Q 1441 2250 1441 1747 
Q 1441 1244 1636 976 
Q 1831 709 2203 709 
Q 2569 709 2762 976 
Q 2956 1244 2956 1747 
Q 2956 2250 2762 2517 
Q 2569 2784 2203 2784 
z
M 2203 3584 
Q 3106 3584 3614 3096 
Q 4122 2609 4122 1747 
Q 4122 884 3614 396 
Q 3106 -91 2203 -91 
Q 1297 -91 786 396 
Q 275 884 275 1747 
Q 275 2609 786 3096 
Q 1297 3584 2203 3584 
z
" transform="scale(0.015625)"/>
      <path id="DejaVuSans-Bold-6c" d="M 538 4863 
L 1656 4863 
L 1656 0 
L 538 0 
L 538 4863 
z
" transform="scale(0.015625)"/>
      <path id="DejaVuSans-Bold-77" d="M 225 3500 
L 1313 3500 
L 1900 1088 
L 2491 3500 
L 3425 3500 
L 4013 1113 
L 4603 3500 
L 5691 3500 
L 4769 0 
L 3547 0 
L 2956 2406 
L 2369 0 
L 1147 0 
L 225 3500 
z
" transform="scale(0.015625)"/>
      <path id="DejaVuSans-Bold-68" d="M 4056 2131 
L 4056 0 
L 2931 0 
L 2931 347 
L 2931 1625 
Q 2931 2084 2911 2256 
Q 2891 2428 2841 2509 
Q 2775 2619 2662 2680 
Q 2550 2741 2406 2741 
Q 2056 2741 1856 2470 
Q 1656 2200 1656 1722 
L 1656 0 
L 538 0 
L 538 4863 
L 1656 4863 
L 1656 2988 
Q 1909 3294 2193 3439 
Q 2478 3584 2822 3584 
Q 3428 3584 3742 3212 
Q 4056 2841 4056 2131 
z
" transform="scale(0.015625)"/>
     </defs>
     <use xlink:href="#DejaVuSans-Bold-47"/>
     <use xlink:href="#DejaVuSans-Bold-72" transform="translate(82.080078 0)"/>
     <use xlink:href="#DejaVuSans-Bold-61" transform="translate(131.396484 0)"/>
     <use xlink:href="#DejaVuSans-Bold-64" transform="translate(198.876953 0)"/>
     <use xlink:href="#DejaVuSans-Bold-69" transform="translate(270.458984 0)"/>
     <use xlink:href="#DejaVuSans-Bold-65" transform="translate(304.736328 0)"/>
     <use xlink:href="#DejaVuSans-Bold-6e" transform="translate(372.558594 0)"/>
     <use xlink:href="#DejaVuSans-Bold-74" transform="translate(443.75 0)"/>
     <use xlink:href="#DejaVuSans-Bold-20" transform="translate(491.552734 0)"/>
     <use xlink:href="#DejaVuSans-Bold-44" transform="translate(526.367188 0)"/>
     <use xlink:href="#DejaVuSans-Bold-65" transform="translate(609.375 0)"/>
     <use xlink:href="#DejaVuSans-Bold-73" transform="translate(677.197266 0)"/>
     <use xlink:href="#DejaVuSans-Bold-63" transform="translate(736.71875 0)"/>
     <use xlink:href="#DejaVuSans-Bold-65" transform="translate(795.996094 0)"/>
     <use xlink:href="#DejaVuSans-Bold-6e" transform="translate(863.818359 0)"/>
     <use xlink:href="#DejaVuSans-Bold-74" transform="translate(935.009766 0)"/>
     <use xlink:href="#DejaVuSans-Bold-3a" transform="translate(982.8125 0)"/>
     <use xlink:href="#DejaVuSans-Bold-20" transform="translate(1022.802734 0)"/>
     <use xlink:href="#DejaVuSans-Bold-46" transform="translate(1057.617188 0)"/>
     <use xlink:href="#DejaVuSans-Bold-6f" transform="translate(1121.927734 0)"/>
     <use xlink:href="#DejaVuSans-Bold-6c" transform="translate(1190.628906 0)"/>
     <use xlink:href="#DejaVuSans-Bold-6c" transform="translate(1224.90625 0)"/>
     <use xlink:href="#DejaVuSans-Bold-6f" transform="translate(1259.183594 0)"/>
     <use xlink:href="#DejaVuSans-Bold-77" transform="translate(1327.884766 0)"/>
     <use xlink:href="#DejaVuSans-Bold-20" transform="translate(1420.267578 0)"/>
     <use xlink:href="#DejaVuSans-Bold-74" transform="translate(1455.082031 0)"/>
     <use xlink:href="#DejaVuSans-Bold-68" transform="translate(1502.884766 0)"/>
     <use xlink:href="#DejaVuSans-Bold-65" transform="translate(1574.076172 0)"/>
     <use xlink:href="#DejaVuSans-Bold-20" transform="translate(1641.898438 0)"/>
     <use xlink:href="#DejaVuSans-Bold-53" transform="translate(1676.712891 0)"/>
     <use xlink:href="#DejaVuSans-Bold-6c" transform="translate(1748.734375 0)"/>
     <use xlink:href="#DejaVuSans-Bold-6f" transform="translate(1783.011719 0)"/>
     <use xlink:href="#DejaVuSans-Bold-70" transform="translate(1851.712891 0)"/>
     <use xlink:href="#DejaVuSans-Bold-65" transform="translate(1923.294922 0)"/>
     <use xlink:href="#DejaVuSans-Bold-20" transform="translate(1991.117188 0)"/>
     <use xlink:href="#DejaVuSans-Bold-44" transform="translate(2025.931641 0)"/>
     <use xlink:href="#DejaVuSans-Bold-6f" transform="translate(2108.939453 0)"/>
     <use xlink:href="#DejaVuSans-Bold-77" transform="translate(2177.640625 0)"/>
     <use xlink:href="#DejaVuSans-Bold-6e" transform="translate(2270.023438 0)"/>
     <use xlink:href="#DejaVuSans-Bold-68" transform="translate(2341.214844 0)"/>
     <use xlink:href="#DejaVuSans-Bold-69" transform="translate(2412.40625 0)"/>
     <use xlink:href="#DejaVuSans-Bold-6c" transform="translate(2446.683594 0)"/>
     <use xlink:href="#DejaVuSans-Bold-6c" transform="translate(2480.960938 0)"/>
    </g>
    <!-- "Minimize loss by updating parameters" -->
    <g style="fill: #1e3a5f" transform="translate(172.528281 33.51475) scale(0.14 -0.14)">
     <defs>
      <path id="DejaVuSans-Bold-22" d="M 2725 4666 
L 2725 2931 
L 1984 2931 
L 1984 4666 
L 2725 4666 
z
M 1350 4666 
L 1350 2931 
L 609 2931 
L 609 4666 
L 1350 4666 
z
" transform="scale(0.015625)"/>
      <path id="DejaVuSans-Bold-4d" d="M 588 4666 
L 2119 4666 
L 3181 2169 
L 4250 4666 
L 5778 4666 
L 5778 0 
L 4641 0 
L 4641 3413 
L 3566 897 
L 2803 897 
L 1728 3413 
L 1728 0 
L 588 0 
L 588 4666 
z
" transform="scale(0.015625)"/>
      <path id="DejaVuSans-Bold-6d" d="M 3781 2919 
Q 3994 3244 4286 3414 
Q 4578 3584 4928 3584 
Q 5531 3584 5847 3212 
Q 6163 2841 6163 2131 
L 6163 0 
L 5038 0 
L 5038 1825 
Q 5041 1866 5042 1909 
Q 5044 1953 5044 2034 
Q 5044 2406 4934 2573 
Q 4825 2741 4581 2741 
Q 4263 2741 4089 2478 
Q 3916 2216 3909 1719 
L 3909 0 
L 2784 0 
L 2784 1825 
Q 2784 2406 2684 2573 
Q 2584 2741 2328 2741 
Q 2006 2741 1831 2477 
Q 1656 2213 1656 1722 
L 1656 0 
L 531 0 
L 531 3500 
L 1656 3500 
L 1656 2988 
Q 1863 3284 2130 3434 
Q 2397 3584 2719 3584 
Q 3081 3584 3359 3409 
Q 3638 3234 3781 2919 
z
" transform="scale(0.015625)"/>
      <path id="DejaVuSans-Bold-7a" d="M 366 3500 
L 3419 3500 
L 3419 2719 
L 1575 800 
L 3419 800 
L 3419 0 
L 288 0 
L 288 781 
L 2131 2700 
L 366 2700 
L 366 3500 
z
" transform="scale(0.015625)"/>
      <path id="DejaVuSans-Bold-62" d="M 2400 722 
Q 2759 722 2948 984 
Q 3138 1247 3138 1747 
Q 3138 2247 2948 2509 
Q 2759 2772 2400 2772 
Q 2041 2772 1848 2508 
Q 1656 2244 1656 1747 
Q 1656 1250 1848 986 
Q 2041 722 2400 722 
z
M 1656 2988 
Q 1888 3294 2169 3439 
Q 2450 3584 2816 3584 
Q 3463 3584 3878 3070 
Q 4294 2556 4294 1747 
Q 4294 938 3878 423 
Q 3463 -91 2816 -91 
Q 2450 -91 2169 54 
Q 1888 200 1656 506 
L 1656 0 
L 538 0 
L 538 4863 
L 1656 4863 
L 1656 2988 
z
" transform="scale(0.015625)"/>
      <path id="DejaVuSans-Bold-79" d="M 78 3500 
L 1197 3500 
L 2138 1125 
L 2938 3500 
L 4056 3500 
L 2584 -331 
Q 2363 -916 2067 -1148 
Q 1772 -1381 1288 -1381 
L 641 -1381 
L 641 -647 
L 991 -647 
Q 1275 -647 1404 -556 
Q 1534 -466 1606 -231 
L 1638 -134 
L 78 3500 
z
" transform="scale(0.015625)"/>
      <path id="DejaVuSans-Bold-75" d="M 500 1363 
L 500 3500 
L 1625 3500 
L 1625 3150 
Q 1625 2866 1622 2436 
Q 1619 2006 1619 1863 
Q 1619 1441 1641 1255 
Q 1663 1069 1716 984 
Q 1784 875 1895 815 
Q 2006 756 2150 756 
Q 2500 756 2700 1025 
Q 2900 1294 2900 1772 
L 2900 3500 
L 4019 3500 
L 4019 0 
L 2900 0 
L 2900 506 
Q 2647 200 2364 54 
Q 2081 -91 1741 -91 
Q 1134 -91 817 281 
Q 500 653 500 1363 
z
" transform="scale(0.015625)"/>
      <path id="DejaVuSans-Bold-67" d="M 2919 594 
Q 2688 288 2409 144 
Q 2131 0 1766 0 
Q 1125 0 706 504 
Q 288 1009 288 1791 
Q 288 2575 706 3076 
Q 1125 3578 1766 3578 
Q 2131 3578 2409 3434 
Q 2688 3291 2919 2981 
L 2919 3500 
L 4044 3500 
L 4044 353 
Q 4044 -491 3511 -936 
Q 2978 -1381 1966 -1381 
Q 1638 -1381 1331 -1331 
Q 1025 -1281 716 -1178 
L 716 -306 
Q 1009 -475 1290 -558 
Q 1572 -641 1856 -641 
Q 2406 -641 2662 -400 
Q 2919 -159 2919 353 
L 2919 594 
z
M 2181 2772 
Q 1834 2772 1640 2515 
Q 1447 2259 1447 1791 
Q 1447 1309 1634 1061 
Q 1822 813 2181 813 
Q 2531 813 2725 1069 
Q 2919 1325 2919 1791 
Q 2919 2259 2725 2515 
Q 2531 2772 2181 2772 
z
" transform="scale(0.015625)"/>
     </defs>
     <use xlink:href="#DejaVuSans-Bold-22"/>
     <use xlink:href="#DejaVuSans-Bold-4d" transform="translate(52.099609 0)"/>
     <use xlink:href="#DejaVuSans-Bold-69" transform="translate(151.611328 0)"/>
     <use xlink:href="#DejaVuSans-Bold-6e" transform="translate(185.888672 0)"/>
     <use xlink:href="#DejaVuSans-Bold-69" transform="translate(257.080078 0)"/>
     <use xlink:href="#DejaVuSans-Bold-6d" transform="translate(291.357422 0)"/>
     <use xlink:href="#DejaVuSans-Bold-69" transform="translate(395.556641 0)"/>
     <use xlink:href="#DejaVuSans-Bold-7a" transform="translate(429.833984 0)"/>
     <use xlink:href="#DejaVuSans-Bold-65" transform="translate(488.037109 0)"/>
     <use xlink:href="#DejaVuSans-Bold-20" transform="translate(555.859375 0)"/>
     <use xlink:href="#DejaVuSans-Bold-6c" transform="translate(590.673828 0)"/>
     <use xlink:href="#DejaVuSans-Bold-6f" transform="translate(624.951172 0)"/>
     <use xlink:href="#DejaVuSans-Bold-73" transform="translate(693.652344 0)"/>
     <use xlink:href="#DejaVuSans-Bold-73" transform="translate(753.173828 0)"/>
     <use xlink:href="#DejaVuSans-Bold-20" transform="translate(812.695312 0)"/>
     <use xlink:href="#DejaVuSans-Bold-62" transform="translate(847.509766 0)"/>
     <use xlink:href="#DejaVuSans-Bold-79" transform="translate(919.091797 0)"/>
     <use xlink:href="#DejaVuSans-Bold-20" transform="translate(984.277344 0)"/>
     <use xlink:href="#DejaVuSans-Bold-75" transform="translate(1019.091797 0)"/>
     <use xlink:href="#DejaVuSans-Bold-70" transform="translate(1090.283203 0)"/>
     <use xlink:href="#DejaVuSans-Bold-64" transform="translate(1161.865234 0)"/>
     <use xlink:href="#DejaVuSans-Bold-61" transform="translate(1233.447266 0)"/>
     <use xlink:href="#DejaVuSans-Bold-74" transform="translate(1300.927734 0)"/>
     <use xlink:href="#DejaVuSans-Bold-69" transform="translate(1348.730469 0)"/>
     <use xlink:href="#DejaVuSans-Bold-6e" transform="translate(1383.007812 0)"/>
     <use xlink:href="#DejaVuSans-Bold-67" transform="translate(1454.199219 0)"/>
     <use xlink:href="#DejaVuSans-Bold-20" transform="translate(1525.78125 0)"/>
     <use xlink:href="#DejaVuSans-Bold-70" transform="translate(1560.595703 0)"/>
     <use xlink:href="#DejaVuSans-Bold-61" transform="translate(1632.177734 0)"/>
     <use xlink:href="#DejaVuSans-Bold-72" transform="translate(1699.658203 0)"/>
     <use xlink:href="#DejaVuSans-Bold-61" transform="translate(1748.974609 0)"/>
     <use xlink:href="#DejaVuSans-Bold-6d" transform="translate(1816.455078 0)"/>
     <use xlink:href="#DejaVuSans-Bold-65" transform="translate(1920.654297 0)"/>
     <use xlink:href="#DejaVuSans-Bold-74" transform="translate(1988.476562 0)"/>
     <use xlink:href="#DejaVuSans-Bold-65" transform="translate(2036.279297 0)"/>
     <use xlink:href="#DejaVuSans-Bold-72" transform="translate(2104.101562 0)"/>
     <use xlink:href="#DejaVuSans-Bold-73" transform="translate(2153.417969 0)"/>
     <use xlink:href="#DejaVuSans-Bold-22" transform="translate(2212.939453 0)"/>
    </g>
   </g>
   <g id="PathCollection_1">
    <defs>
     <path id="m3375c773e9" d="M 0 6.123724 
C 1.624031 6.123724 3.181764 5.47849 4.330127 4.330127 
C 5.47849 3.181764 6.123724 1.624031 6.123724 0 
C 6.123724 -1.624031 5.47849 -3.181764 4.330127 -4.330127 
C 3.181764 -5.47849 1.624031 -6.123724 0 -6.123724 
C -1.624031 -6.123724 -3.181764 -5.47849 -4.330127 -4.330127 
C -5.47849 -3.181764 -6.123724 -1.624031 -6.123724 0 
C -6.123724 1.624031 -5.47849 3.181764 -4.330127 4.330127 
C -3.181764 5.47849 -1.624031 6.123724 0 6.123724 
z
" style="stroke: #000000; stroke-width: 1.5"/>
    </defs>
    <g clip-path="url(#pa6c97c9159)">
     <use xlink:href="#m3375c773e9" x="128.170284" y="146.259221" style="fill: #e85a4f; stroke: #000000; stroke-width: 1.5"/>
    </g>
   </g>
   <g id="PathCollection_2">
    <defs>
     <path id="m089c9f4898" d="M 0 6.123724 
C 1.624031 6.123724 3.181764 5.47849 4.330127 4.330127 
C 5.47849 3.181764 6.123724 1.624031 6.123724 0 
C 6.123724 -1.624031 5.47849 -3.181764 4.330127 -4.330127 
C 3.181764 -5.47849 1.624031 -6.123724 0 -6.123724 
C -1.624031 -6.123724 -3.181764 -5.47849 -4.330127 -4.330127 
C -5.47849 -3.181764 -6.123724 -1.624031 -6.123724 0 
C -6.123724 1.624031 -5.47849 3.181764 -4.330127 4.330127 
C -3.181764 5.47849 -1.624031 6.123724 0 6.123724 
z
" style="stroke: #000000; stroke-width: 1.5"/>
    </defs>
    <g clip-path="url(#pa6c97c9159)">
     <use xlink:href="#m089c9f4898" x="204.261193" y="284.079937" style="fill: #e9c46a; stroke: #000000; stroke-width: 1.5"/>
    </g>
   </g>
   <g id="PathCollection_3">
    <defs>
     <path id="m587f7d780e" d="M 0 6.123724 
C 1.624031 6.123724 3.181764 5.47849 4.330127 4.330127 
C 5.47849 3.181764 6.123724 1.624031 6.123724 0 
C 6.123724 -1.624031 5.47849 -3.181764 4.330127 -4.330127 
C 3.181764 -5.47849 1.624031 -6.123724 0 -6.123724 
C -1.624031 -6.123724 -3.181764 -5.47849 -4.330127 -4.330127 
C -5.47849 -3.181764 -6.123724 -1.624031 -6.123724 0 
C -6.123724 1.624031 -5.47849 3.181764 -4.330127 4.330127 
C -3.181764 5.47849 -1.624031 6.123724 0 6.123724 
z
" style="stroke: #000000; stroke-width: 1.5"/>
    </defs>
    <g clip-path="url(#pa6c97c9159)">
     <use xlink:href="#m587f7d780e" x="270.206648" y="339.89708" style="fill: #8b5cf6; stroke: #000000; stroke-width: 1.5"/>
    </g>
   </g>
   <g id="PathCollection_4">
    <defs>
     <path id="m0e6e0e8ae9" d="M 0 6.123724 
C 1.624031 6.123724 3.181764 5.47849 4.330127 4.330127 
C 5.47849 3.181764 6.123724 1.624031 6.123724 0 
C 6.123724 -1.624031 5.47849 -3.181764 4.330127 -4.330127 
C 3.181764 -5.47849 1.624031 -6.123724 0 -6.123724 
C -1.624031 -6.123724 -3.181764 -5.47849 -4.330127 -4.330127 
C -5.47849 -3.181764 -6.123724 -1.624031 -6.123724 0 
C -6.123724 1.624031 -5.47849 3.181764 -4.330127 4.330127 
C -3.181764 5.47849 -1.624031 6.123724 0 6.123724 
z
" style="stroke: #000000; stroke-width: 1.5"/>
    </defs>
    <g clip-path="url(#pa6c97c9159)">
     <use xlink:href="#m0e6e0e8ae9" x="315.861193" y="329.031421" style="fill: #3b82f6; stroke: #000000; stroke-width: 1.5"/>
    </g>
   </g>
   <g id="PathCollection_5">
    <defs>
     <path id="me64edc1f6e" d="M 0 6.123724 
C 1.624031 6.123724 3.181764 5.47849 4.330127 4.330127 
C 5.47849 3.181764 6.123724 1.624031 6.123724 0 
C 6.123724 -1.624031 5.47849 -3.181764 4.330127 -4.330127 
C 3.181764 -5.47849 1.624031 -6.123724 0 -6.123724 
C -1.624031 -6.123724 -3.181764 -5.47849 -4.330127 -4.330127 
C -5.47849 -3.181764 -6.123724 -1.624031 -6.123724 0 
C -6.123724 1.624031 -5.47849 3.181764 -4.330127 4.330127 
C -3.181764 5.47849 -1.624031 6.123724 0 6.123724 
z
" style="stroke: #000000; stroke-width: 1.5"/>
    </defs>
    <g clip-path="url(#pa6c97c9159)">
     <use xlink:href="#me64edc1f6e" x="341.22483" y="311.52793" style="fill: #2a9d8f; stroke: #000000; stroke-width: 1.5"/>
    </g>
   </g>
   <g id="legend_1">
    <g id="patch_11">
     <path d="M 505.118438 76.871 
L 603.079375 76.871 
Q 605.079375 76.871 605.079375 74.871 
L 605.079375 46.51475 
Q 605.079375 44.51475 603.079375 44.51475 
L 505.118438 44.51475 
Q 503.118438 44.51475 503.118438 46.51475 
L 503.118438 74.871 
Q 503.118438 76.871 505.118438 76.871 
z
" style="fill: #ffffff; opacity: 0.95; stroke: #cccccc; stroke-linejoin: miter"/>
    </g>
    <g id="line2d_30">
     <path d="M 507.118438 52.613187 
L 517.118438 52.613187 
L 527.118438 52.613187 
" style="fill: none; stroke: #1e3a5f; stroke-width: 3; stroke-linecap: square"/>
    </g>
    <g id="text_23">
     <!-- Loss function -->
     <g transform="translate(535.118438 56.113187) scale(0.1 -0.1)">
      <defs>
       <path id="DejaVuSans-66" d="M 2375 4863 
L 2375 4384 
L 1825 4384 
Q 1516 4384 1395 4259 
Q 1275 4134 1275 3809 
L 1275 3500 
L 2222 3500 
L 2222 3053 
L 1275 3053 
L 1275 0 
L 697 0 
L 697 3053 
L 147 3053 
L 147 3500 
L 697 3500 
L 697 3744 
Q 697 4328 969 4595 
Q 1241 4863 1831 4863 
L 2375 4863 
z
" transform="scale(0.015625)"/>
       <path id="DejaVuSans-75" d="M 544 1381 
L 544 3500 
L 1119 3500 
L 1119 1403 
Q 1119 906 1312 657 
Q 1506 409 1894 409 
Q 2359 409 2629 706 
Q 2900 1003 2900 1516 
L 2900 3500 
L 3475 3500 
L 3475 0 
L 2900 0 
L 2900 538 
Q 2691 219 2414 64 
Q 2138 -91 1772 -91 
Q 1169 -91 856 284 
Q 544 659 544 1381 
z
M 1991 3584 
L 1991 3584 
z
" transform="scale(0.015625)"/>
       <path id="DejaVuSans-6e" d="M 3513 2113 
L 3513 0 
L 2938 0 
L 2938 2094 
Q 2938 2591 2744 2837 
Q 2550 3084 2163 3084 
Q 1697 3084 1428 2787 
Q 1159 2491 1159 1978 
L 1159 0 
L 581 0 
L 581 3500 
L 1159 3500 
L 1159 2956 
Q 1366 3272 1645 3428 
Q 1925 3584 2291 3584 
Q 2894 3584 3203 3211 
Q 3513 2838 3513 2113 
z
" transform="scale(0.015625)"/>
       <path id="DejaVuSans-63" d="M 3122 3366 
L 3122 2828 
Q 2878 2963 2633 3030 
Q 2388 3097 2138 3097 
Q 1578 3097 1268 2742 
Q 959 2388 959 1747 
Q 959 1106 1268 751 
Q 1578 397 2138 397 
Q 2388 397 2633 464 
Q 2878 531 3122 666 
L 3122 134 
Q 2881 22 2623 -34 
Q 2366 -91 2075 -91 
Q 1284 -91 818 406 
Q 353 903 353 1747 
Q 353 2603 823 3093 
Q 1294 3584 2113 3584 
Q 2378 3584 2631 3529 
Q 2884 3475 3122 3366 
z
" transform="scale(0.015625)"/>
       <path id="DejaVuSans-69" d="M 603 3500 
L 1178 3500 
L 1178 0 
L 603 0 
L 603 3500 
z
M 603 4863 
L 1178 4863 
L 1178 4134 
L 603 4134 
L 603 4863 
z
" transform="scale(0.015625)"/>
      </defs>
      <use xlink:href="#DejaVuSans-4c"/>
      <use xlink:href="#DejaVuSans-6f" transform="translate(53.962891 0)"/>
      <use xlink:href="#DejaVuSans-73" transform="translate(115.144531 0)"/>
      <use xlink:href="#DejaVuSans-73" transform="translate(167.244141 0)"/>
      <use xlink:href="#DejaVuSans-20" transform="translate(219.34375 0)"/>
      <use xlink:href="#DejaVuSans-66" transform="translate(251.130859 0)"/>
      <use xlink:href="#DejaVuSans-75" transform="translate(286.335938 0)"/>
      <use xlink:href="#DejaVuSans-6e" transform="translate(349.714844 0)"/>
      <use xlink:href="#DejaVuSans-63" transform="translate(413.09375 0)"/>
      <use xlink:href="#DejaVuSans-74" transform="translate(468.074219 0)"/>
      <use xlink:href="#DejaVuSans-69" transform="translate(507.283203 0)"/>
      <use xlink:href="#DejaVuSans-6f" transform="translate(535.066406 0)"/>
      <use xlink:href="#DejaVuSans-6e" transform="translate(596.248047 0)"/>
     </g>
    </g>
    <g id="PathCollection_6">
     <defs>
      <path id="m834d9ab308" d="M 0 -7.071068 
L -1.587554 -2.18508 
L -6.724985 -2.18508 
L -2.568716 0.834626 
L -4.156269 5.720614 
L -0 2.700907 
L 4.156269 5.720614 
L 2.568716 0.834626 
L 6.724985 -2.18508 
L 1.587554 -2.18508 
z
" style="stroke: #000000; stroke-width: 2"/>
     </defs>
     <g>
      <use xlink:href="#m834d9ab308" x="517.118438" y="68.166313" style="fill: #2a9d8f; stroke: #000000; stroke-width: 2"/>
     </g>
    </g>
    <g id="text_24">
     <!-- Optimum -->
     <g transform="translate(535.118438 70.791313) scale(0.1 -0.1)">
      <defs>
       <path id="DejaVuSans-4f" d="M 2522 4238 
Q 1834 4238 1429 3725 
Q 1025 3213 1025 2328 
Q 1025 1447 1429 934 
Q 1834 422 2522 422 
Q 3209 422 3611 934 
Q 4013 1447 4013 2328 
Q 4013 3213 3611 3725 
Q 3209 4238 2522 4238 
z
M 2522 4750 
Q 3503 4750 4090 4092 
Q 4678 3434 4678 2328 
Q 4678 1225 4090 567 
Q 3503 -91 2522 -91 
Q 1538 -91 948 565 
Q 359 1222 359 2328 
Q 359 3434 948 4092 
Q 1538 4750 2522 4750 
z
" transform="scale(0.015625)"/>
       <path id="DejaVuSans-70" d="M 1159 525 
L 1159 -1331 
L 581 -1331 
L 581 3500 
L 1159 3500 
L 1159 2969 
Q 1341 3281 1617 3432 
Q 1894 3584 2278 3584 
Q 2916 3584 3314 3078 
Q 3713 2572 3713 1747 
Q 3713 922 3314 415 
Q 2916 -91 2278 -91 
Q 1894 -91 1617 61 
Q 1341 213 1159 525 
z
M 3116 1747 
Q 3116 2381 2855 2742 
Q 2594 3103 2138 3103 
Q 1681 3103 1420 2742 
Q 1159 2381 1159 1747 
Q 1159 1113 1420 752 
Q 1681 391 2138 391 
Q 2594 391 2855 752 
Q 3116 1113 3116 1747 
z
" transform="scale(0.015625)"/>
      </defs>
      <use xlink:href="#DejaVuSans-4f"/>
      <use xlink:href="#DejaVuSans-70" transform="translate(78.710938 0)"/>
      <use xlink:href="#DejaVuSans-74" transform="translate(142.1875 0)"/>
      <use xlink:href="#DejaVuSans-69" transform="translate(181.396484 0)"/>
      <use xlink:href="#DejaVuSans-6d" transform="translate(209.179688 0)"/>
      <use xlink:href="#DejaVuSans-75" transform="translate(306.591797 0)"/>
      <use xlink:href="#DejaVuSans-6d" transform="translate(369.970703 0)"/>
     </g>
    </g>
   </g>
   <g id="PathCollection_7">
    <g clip-path="url(#pa6c97c9159)">
     <use xlink:href="#m834d9ab308" x="277.277722" y="340.601713" style="fill: #2a9d8f; stroke: #000000; stroke-width: 2"/>
    </g>
   </g>
  </g>
 </g>
 <defs>
  <clipPath id="pa6c97c9159">
   <rect x="52.079375" y="39.51475" width="558" height="388.08"/>
  </clipPath>
 </defs>
</svg>
