<?xml version="1.0" encoding="utf-8" standalone="no"?>
<!DOCTYPE svg PUBLIC "-//W3C//DTD SVG 1.1//EN"
  "http://www.w3.org/Graphics/SVG/1.1/DTD/svg11.dtd">
<svg xmlns:xlink="http://www.w3.org/1999/xlink" width="856.8pt" height="568.763437pt" viewBox="0 0 856.8 568.763437" xmlns="http://www.w3.org/2000/svg" version="1.1">
 <metadata>
  <rdf:RDF xmlns:dc="http://purl.org/dc/elements/1.1/" xmlns:cc="http://creativecommons.org/ns#" xmlns:rdf="http://www.w3.org/1999/02/22-rdf-syntax-ns#">
   <cc:Work>
    <dc:type rdf:resource="http://purl.org/dc/dcmitype/StillImage"/>
    <dc:date>2025-12-29T10:49:50.141206</dc:date>
    <dc:format>image/svg+xml</dc:format>
    <dc:creator>
     <cc:Agent>
      <dc:title>Matplotlib v3.10.1, https://matplotlib.org/</dc:title>
     </cc:Agent>
    </dc:creator>
   </cc:Work>
  </rdf:RDF>
 </metadata>
 <defs>
  <style type="text/css">*{stroke-linejoin: round; stroke-linecap: butt}</style>
 </defs>
 <g id="figure_1">
  <g id="patch_1">
   <path d="M 0 568.763437 
L 856.8 568.763437 
L 856.8 0 
L 0 0 
z
" style="fill: #f8f9fa"/>
  </g>
  <g id="axes_1">
   <g id="patch_2">
    <path d="M 302.04 379.122437 
L 554.76 379.122437 
L 554.76 222.744438 
L 302.04 222.744438 
z
" clip-path="url(#pea864242a4)" style="fill: #ffffff; opacity: 0.5; stroke: #808080; stroke-width: 2; stroke-linejoin: miter"/>
   </g>
   <g id="patch_3">
    <path d="M 196.74 379.122437 
L 323.1 379.122437 
L 323.1 222.744438 
L 196.74 222.744438 
z
" clip-path="url(#pea864242a4)" style="fill: #2e86ab; opacity: 0.3; stroke: #2e86ab; stroke-width: 3; stroke-linejoin: miter"/>
   </g>
   <g id="patch_4">
    <path d="M 323.1 340.027938 
L 533.7 340.027938 
L 533.7 261.838938 
L 323.1 261.838938 
z
" clip-path="url(#pea864242a4)" style="fill: #06a77d; opacity: 0.3; stroke: #06a77d; stroke-width: 3; stroke-linejoin: miter"/>
   </g>
   <g id="patch_5">
    <path d="M 512.64 353.059437 
L 681.12 353.059437 
L 681.12 248.807437 
L 512.64 248.807437 
z
" clip-path="url(#pea864242a4)" style="fill: #e63946; opacity: 0.3; stroke: #e63946; stroke-width: 3; stroke-linejoin: miter"/>
   </g>
   <g id="text_1">
    <!-- One Grid Cell -->
    <g transform="translate(390.060937 144.555437) scale(0.12 -0.12)">
     <defs>
      <path id="Arial-BoldMT-4f" d="M 278 2263 
Q 278 2963 488 3438 
Q 644 3788 914 4066 
Q 1184 4344 1506 4478 
Q 1934 4659 2494 4659 
Q 3506 4659 4114 4031 
Q 4722 3403 4722 2284 
Q 4722 1175 4119 548 
Q 3516 -78 2506 -78 
Q 1484 -78 881 545 
Q 278 1169 278 2263 
z
M 1231 2294 
Q 1231 1516 1590 1114 
Q 1950 713 2503 713 
Q 3056 713 3411 1111 
Q 3766 1509 3766 2306 
Q 3766 3094 3420 3481 
Q 3075 3869 2503 3869 
Q 1931 3869 1581 3476 
Q 1231 3084 1231 2294 
z
" transform="scale(0.015625)"/>
      <path id="Arial-BoldMT-6e" d="M 3478 0 
L 2600 0 
L 2600 1694 
Q 2600 2231 2544 2389 
Q 2488 2547 2361 2634 
Q 2234 2722 2056 2722 
Q 1828 2722 1647 2597 
Q 1466 2472 1398 2265 
Q 1331 2059 1331 1503 
L 1331 0 
L 453 0 
L 453 3319 
L 1269 3319 
L 1269 2831 
Q 1703 3394 2363 3394 
Q 2653 3394 2893 3289 
Q 3134 3184 3257 3021 
Q 3381 2859 3429 2653 
Q 3478 2447 3478 2063 
L 3478 0 
z
" transform="scale(0.015625)"/>
      <path id="Arial-BoldMT-65" d="M 2381 1056 
L 3256 909 
Q 3088 428 2723 176 
Q 2359 -75 1813 -75 
Q 947 -75 531 491 
Q 203 944 203 1634 
Q 203 2459 634 2926 
Q 1066 3394 1725 3394 
Q 2466 3394 2894 2905 
Q 3322 2416 3303 1406 
L 1103 1406 
Q 1113 1016 1316 798 
Q 1519 581 1822 581 
Q 2028 581 2168 693 
Q 2309 806 2381 1056 
z
M 2431 1944 
Q 2422 2325 2234 2523 
Q 2047 2722 1778 2722 
Q 1491 2722 1303 2513 
Q 1116 2303 1119 1944 
L 2431 1944 
z
" transform="scale(0.015625)"/>
      <path id="Arial-BoldMT-20" transform="scale(0.015625)"/>
      <path id="Arial-BoldMT-47" d="M 2597 1684 
L 2597 2456 
L 4591 2456 
L 4591 631 
Q 4300 350 3748 136 
Q 3197 -78 2631 -78 
Q 1913 -78 1378 223 
Q 844 525 575 1086 
Q 306 1647 306 2306 
Q 306 3022 606 3578 
Q 906 4134 1484 4431 
Q 1925 4659 2581 4659 
Q 3434 4659 3914 4301 
Q 4394 3944 4531 3313 
L 3613 3141 
Q 3516 3478 3248 3673 
Q 2981 3869 2581 3869 
Q 1975 3869 1617 3484 
Q 1259 3100 1259 2344 
Q 1259 1528 1621 1120 
Q 1984 713 2572 713 
Q 2863 713 3155 827 
Q 3447 941 3656 1103 
L 3656 1684 
L 2597 1684 
z
" transform="scale(0.015625)"/>
      <path id="Arial-BoldMT-72" d="M 1300 0 
L 422 0 
L 422 3319 
L 1238 3319 
L 1238 2847 
Q 1447 3181 1614 3287 
Q 1781 3394 1994 3394 
Q 2294 3394 2572 3228 
L 2300 2463 
Q 2078 2606 1888 2606 
Q 1703 2606 1575 2504 
Q 1447 2403 1373 2137 
Q 1300 1872 1300 1025 
L 1300 0 
z
" transform="scale(0.015625)"/>
      <path id="Arial-BoldMT-69" d="M 459 3769 
L 459 4581 
L 1338 4581 
L 1338 3769 
L 459 3769 
z
M 459 0 
L 459 3319 
L 1338 3319 
L 1338 0 
L 459 0 
z
" transform="scale(0.015625)"/>
      <path id="Arial-BoldMT-64" d="M 3503 0 
L 2688 0 
L 2688 488 
Q 2484 203 2207 64 
Q 1931 -75 1650 -75 
Q 1078 -75 670 386 
Q 263 847 263 1672 
Q 263 2516 659 2955 
Q 1056 3394 1663 3394 
Q 2219 3394 2625 2931 
L 2625 4581 
L 3503 4581 
L 3503 0 
z
M 1159 1731 
Q 1159 1200 1306 963 
Q 1519 619 1900 619 
Q 2203 619 2415 876 
Q 2628 1134 2628 1647 
Q 2628 2219 2422 2470 
Q 2216 2722 1894 2722 
Q 1581 2722 1370 2473 
Q 1159 2225 1159 1731 
z
" transform="scale(0.015625)"/>
      <path id="Arial-BoldMT-43" d="M 3397 1684 
L 4294 1400 
Q 4088 650 3608 286 
Q 3128 -78 2391 -78 
Q 1478 -78 890 545 
Q 303 1169 303 2250 
Q 303 3394 893 4026 
Q 1484 4659 2447 4659 
Q 3288 4659 3813 4163 
Q 4125 3869 4281 3319 
L 3366 3100 
Q 3284 3456 3026 3662 
Q 2769 3869 2400 3869 
Q 1891 3869 1573 3503 
Q 1256 3138 1256 2319 
Q 1256 1450 1568 1081 
Q 1881 713 2381 713 
Q 2750 713 3015 947 
Q 3281 1181 3397 1684 
z
" transform="scale(0.015625)"/>
      <path id="Arial-BoldMT-6c" d="M 459 0 
L 459 4581 
L 1338 4581 
L 1338 0 
L 459 0 
z
" transform="scale(0.015625)"/>
     </defs>
     <use xlink:href="#Arial-BoldMT-4f"/>
     <use xlink:href="#Arial-BoldMT-6e" transform="translate(77.783203 0)"/>
     <use xlink:href="#Arial-BoldMT-65" transform="translate(138.867188 0)"/>
     <use xlink:href="#Arial-BoldMT-20" transform="translate(194.482422 0)"/>
     <use xlink:href="#Arial-BoldMT-47" transform="translate(222.265625 0)"/>
     <use xlink:href="#Arial-BoldMT-72" transform="translate(300.048828 0)"/>
     <use xlink:href="#Arial-BoldMT-69" transform="translate(338.964844 0)"/>
     <use xlink:href="#Arial-BoldMT-64" transform="translate(366.748047 0)"/>
     <use xlink:href="#Arial-BoldMT-20" transform="translate(427.832031 0)"/>
     <use xlink:href="#Arial-BoldMT-43" transform="translate(455.615234 0)"/>
     <use xlink:href="#Arial-BoldMT-65" transform="translate(527.832031 0)"/>
     <use xlink:href="#Arial-BoldMT-6c" transform="translate(583.447266 0)"/>
     <use xlink:href="#Arial-BoldMT-6c" transform="translate(611.230469 0)"/>
    </g>
   </g>
   <g id="text_2">
    <!-- Tall -->
    <g style="fill: #2e86ab" transform="translate(251.67625 394.476375) scale(0.1 -0.1)">
     <defs>
      <path id="Arial-BoldMT-54" d="M 1497 0 
L 1497 3806 
L 138 3806 
L 138 4581 
L 3778 4581 
L 3778 3806 
L 2422 3806 
L 2422 0 
L 1497 0 
z
" transform="scale(0.015625)"/>
      <path id="Arial-BoldMT-61" d="M 1116 2306 
L 319 2450 
Q 453 2931 781 3162 
Q 1109 3394 1756 3394 
Q 2344 3394 2631 3255 
Q 2919 3116 3036 2902 
Q 3153 2688 3153 2116 
L 3144 1091 
Q 3144 653 3186 445 
Q 3228 238 3344 0 
L 2475 0 
Q 2441 88 2391 259 
Q 2369 338 2359 363 
Q 2134 144 1878 34 
Q 1622 -75 1331 -75 
Q 819 -75 523 203 
Q 228 481 228 906 
Q 228 1188 362 1408 
Q 497 1628 739 1745 
Q 981 1863 1438 1950 
Q 2053 2066 2291 2166 
L 2291 2253 
Q 2291 2506 2166 2614 
Q 2041 2722 1694 2722 
Q 1459 2722 1328 2630 
Q 1197 2538 1116 2306 
z
M 2291 1594 
Q 2122 1538 1756 1459 
Q 1391 1381 1278 1306 
Q 1106 1184 1106 997 
Q 1106 813 1243 678 
Q 1381 544 1594 544 
Q 1831 544 2047 700 
Q 2206 819 2256 991 
Q 2291 1103 2291 1419 
L 2291 1594 
z
" transform="scale(0.015625)"/>
     </defs>
     <use xlink:href="#Arial-BoldMT-54"/>
     <use xlink:href="#Arial-BoldMT-61" transform="translate(53.708984 0)"/>
     <use xlink:href="#Arial-BoldMT-6c" transform="translate(109.324219 0)"/>
     <use xlink:href="#Arial-BoldMT-6c" transform="translate(137.107422 0)"/>
    </g>
    <!-- (person) -->
    <g style="fill: #2e86ab" transform="translate(239.921562 405.185437) scale(0.1 -0.1)">
     <defs>
      <path id="Arial-BoldMT-28" d="M 1916 -1347 
L 1313 -1347 
Q 834 -625 584 153 
Q 334 931 334 1659 
Q 334 2563 644 3369 
Q 913 4069 1325 4659 
L 1925 4659 
Q 1497 3713 1336 3048 
Q 1175 2384 1175 1641 
Q 1175 1128 1270 590 
Q 1366 53 1531 -431 
Q 1641 -750 1916 -1347 
z
" transform="scale(0.015625)"/>
      <path id="Arial-BoldMT-70" d="M 434 3319 
L 1253 3319 
L 1253 2831 
Q 1413 3081 1684 3237 
Q 1956 3394 2288 3394 
Q 2866 3394 3269 2941 
Q 3672 2488 3672 1678 
Q 3672 847 3265 386 
Q 2859 -75 2281 -75 
Q 2006 -75 1782 34 
Q 1559 144 1313 409 
L 1313 -1263 
L 434 -1263 
L 434 3319 
z
M 1303 1716 
Q 1303 1156 1525 889 
Q 1747 622 2066 622 
Q 2372 622 2575 867 
Q 2778 1113 2778 1672 
Q 2778 2194 2568 2447 
Q 2359 2700 2050 2700 
Q 1728 2700 1515 2451 
Q 1303 2203 1303 1716 
z
" transform="scale(0.015625)"/>
      <path id="Arial-BoldMT-73" d="M 150 947 
L 1031 1081 
Q 1088 825 1259 692 
Q 1431 559 1741 559 
Q 2081 559 2253 684 
Q 2369 772 2369 919 
Q 2369 1019 2306 1084 
Q 2241 1147 2013 1200 
Q 950 1434 666 1628 
Q 272 1897 272 2375 
Q 272 2806 612 3100 
Q 953 3394 1669 3394 
Q 2350 3394 2681 3172 
Q 3013 2950 3138 2516 
L 2309 2363 
Q 2256 2556 2107 2659 
Q 1959 2763 1684 2763 
Q 1338 2763 1188 2666 
Q 1088 2597 1088 2488 
Q 1088 2394 1175 2328 
Q 1294 2241 1995 2081 
Q 2697 1922 2975 1691 
Q 3250 1456 3250 1038 
Q 3250 581 2869 253 
Q 2488 -75 1741 -75 
Q 1063 -75 667 200 
Q 272 475 150 947 
z
" transform="scale(0.015625)"/>
      <path id="Arial-BoldMT-6f" d="M 256 1706 
Q 256 2144 472 2553 
Q 688 2963 1083 3178 
Q 1478 3394 1966 3394 
Q 2719 3394 3200 2905 
Q 3681 2416 3681 1669 
Q 3681 916 3195 420 
Q 2709 -75 1972 -75 
Q 1516 -75 1102 131 
Q 688 338 472 736 
Q 256 1134 256 1706 
z
M 1156 1659 
Q 1156 1166 1390 903 
Q 1625 641 1969 641 
Q 2313 641 2545 903 
Q 2778 1166 2778 1666 
Q 2778 2153 2545 2415 
Q 2313 2678 1969 2678 
Q 1625 2678 1390 2415 
Q 1156 2153 1156 1659 
z
" transform="scale(0.015625)"/>
      <path id="Arial-BoldMT-29" d="M 216 -1347 
Q 475 -791 581 -494 
Q 688 -197 778 190 
Q 869 578 912 926 
Q 956 1275 956 1641 
Q 956 2384 797 3048 
Q 638 3713 209 4659 
L 806 4659 
Q 1278 3988 1539 3234 
Q 1800 2481 1800 1706 
Q 1800 1053 1594 306 
Q 1359 -531 822 -1347 
L 216 -1347 
z
" transform="scale(0.015625)"/>
     </defs>
     <use xlink:href="#Arial-BoldMT-28"/>
     <use xlink:href="#Arial-BoldMT-70" transform="translate(33.300781 0)"/>
     <use xlink:href="#Arial-BoldMT-65" transform="translate(94.384766 0)"/>
     <use xlink:href="#Arial-BoldMT-72" transform="translate(150 0)"/>
     <use xlink:href="#Arial-BoldMT-73" transform="translate(188.916016 0)"/>
     <use xlink:href="#Arial-BoldMT-6f" transform="translate(244.53125 0)"/>
     <use xlink:href="#Arial-BoldMT-6e" transform="translate(305.615234 0)"/>
     <use xlink:href="#Arial-BoldMT-29" transform="translate(366.699219 0)"/>
    </g>
   </g>
   <g id="text_3">
    <!-- Wide -->
    <g style="fill: #06a77d" transform="translate(416.500781 355.381875) scale(0.1 -0.1)">
     <defs>
      <path id="Arial-BoldMT-57" d="M 1116 0 
L 22 4581 
L 969 4581 
L 1659 1434 
L 2497 4581 
L 3597 4581 
L 4400 1381 
L 5103 4581 
L 6034 4581 
L 4922 0 
L 3941 0 
L 3028 3425 
L 2119 0 
L 1116 0 
z
" transform="scale(0.015625)"/>
     </defs>
     <use xlink:href="#Arial-BoldMT-57"/>
     <use xlink:href="#Arial-BoldMT-69" transform="translate(93.509766 0)"/>
     <use xlink:href="#Arial-BoldMT-64" transform="translate(121.292969 0)"/>
     <use xlink:href="#Arial-BoldMT-65" transform="translate(182.376953 0)"/>
    </g>
    <!-- (car) -->
    <g style="fill: #06a77d" transform="translate(417.563281 366.090937) scale(0.1 -0.1)">
     <defs>
      <path id="Arial-BoldMT-63" d="M 3353 2338 
L 2488 2181 
Q 2444 2441 2289 2572 
Q 2134 2703 1888 2703 
Q 1559 2703 1364 2476 
Q 1169 2250 1169 1719 
Q 1169 1128 1367 884 
Q 1566 641 1900 641 
Q 2150 641 2309 783 
Q 2469 925 2534 1272 
L 3397 1125 
Q 3263 531 2881 228 
Q 2500 -75 1859 -75 
Q 1131 -75 698 384 
Q 266 844 266 1656 
Q 266 2478 700 2936 
Q 1134 3394 1875 3394 
Q 2481 3394 2839 3133 
Q 3197 2872 3353 2338 
z
" transform="scale(0.015625)"/>
     </defs>
     <use xlink:href="#Arial-BoldMT-28"/>
     <use xlink:href="#Arial-BoldMT-63" transform="translate(33.300781 0)"/>
     <use xlink:href="#Arial-BoldMT-61" transform="translate(88.916016 0)"/>
     <use xlink:href="#Arial-BoldMT-72" transform="translate(144.53125 0)"/>
     <use xlink:href="#Arial-BoldMT-29" transform="translate(183.447266 0)"/>
    </g>
   </g>
   <g id="text_4">
    <!-- Square -->
    <g style="fill: #e63946" transform="translate(579.93 368.413375) scale(0.1 -0.1)">
     <defs>
      <path id="Arial-BoldMT-53" d="M 231 1491 
L 1131 1578 
Q 1213 1125 1461 912 
Q 1709 700 2131 700 
Q 2578 700 2804 889 
Q 3031 1078 3031 1331 
Q 3031 1494 2936 1608 
Q 2841 1722 2603 1806 
Q 2441 1863 1863 2006 
Q 1119 2191 819 2459 
Q 397 2838 397 3381 
Q 397 3731 595 4036 
Q 794 4341 1167 4500 
Q 1541 4659 2069 4659 
Q 2931 4659 3367 4281 
Q 3803 3903 3825 3272 
L 2900 3231 
Q 2841 3584 2645 3739 
Q 2450 3894 2059 3894 
Q 1656 3894 1428 3728 
Q 1281 3622 1281 3444 
Q 1281 3281 1419 3166 
Q 1594 3019 2269 2859 
Q 2944 2700 3267 2529 
Q 3591 2359 3773 2064 
Q 3956 1769 3956 1334 
Q 3956 941 3737 597 
Q 3519 253 3119 86 
Q 2719 -81 2122 -81 
Q 1253 -81 787 320 
Q 322 722 231 1491 
z
" transform="scale(0.015625)"/>
      <path id="Arial-BoldMT-71" d="M 2628 -1263 
L 2628 406 
Q 2456 184 2200 54 
Q 1944 -75 1647 -75 
Q 1081 -75 716 350 
Q 284 847 284 1697 
Q 284 2497 689 2945 
Q 1094 3394 1694 3394 
Q 2025 3394 2267 3253 
Q 2509 3113 2697 2828 
L 2697 3319 
L 3506 3319 
L 3506 -1263 
L 2628 -1263 
z
M 2656 1700 
Q 2656 2209 2448 2457 
Q 2241 2706 1928 2706 
Q 1609 2706 1395 2453 
Q 1181 2200 1181 1650 
Q 1181 1103 1387 861 
Q 1594 619 1897 619 
Q 2200 619 2428 891 
Q 2656 1163 2656 1700 
z
" transform="scale(0.015625)"/>
      <path id="Arial-BoldMT-75" d="M 2644 0 
L 2644 497 
Q 2463 231 2167 78 
Q 1872 -75 1544 -75 
Q 1209 -75 943 72 
Q 678 219 559 484 
Q 441 750 441 1219 
L 441 3319 
L 1319 3319 
L 1319 1794 
Q 1319 1094 1367 936 
Q 1416 778 1544 686 
Q 1672 594 1869 594 
Q 2094 594 2272 717 
Q 2450 841 2515 1023 
Q 2581 1206 2581 1919 
L 2581 3319 
L 3459 3319 
L 3459 0 
L 2644 0 
z
" transform="scale(0.015625)"/>
     </defs>
     <use xlink:href="#Arial-BoldMT-53"/>
     <use xlink:href="#Arial-BoldMT-71" transform="translate(66.699219 0)"/>
     <use xlink:href="#Arial-BoldMT-75" transform="translate(127.783203 0)"/>
     <use xlink:href="#Arial-BoldMT-61" transform="translate(188.867188 0)"/>
     <use xlink:href="#Arial-BoldMT-72" transform="translate(244.482422 0)"/>
     <use xlink:href="#Arial-BoldMT-65" transform="translate(283.398438 0)"/>
    </g>
    <!-- (ball) -->
    <g style="fill: #e63946" transform="translate(584.937812 379.122437) scale(0.1 -0.1)">
     <defs>
      <path id="Arial-BoldMT-62" d="M 422 0 
L 422 4581 
L 1300 4581 
L 1300 2931 
Q 1706 3394 2263 3394 
Q 2869 3394 3266 2955 
Q 3663 2516 3663 1694 
Q 3663 844 3258 384 
Q 2853 -75 2275 -75 
Q 1991 -75 1714 67 
Q 1438 209 1238 488 
L 1238 0 
L 422 0 
z
M 1294 1731 
Q 1294 1216 1456 969 
Q 1684 619 2063 619 
Q 2353 619 2558 867 
Q 2763 1116 2763 1650 
Q 2763 2219 2556 2470 
Q 2350 2722 2028 2722 
Q 1713 2722 1503 2476 
Q 1294 2231 1294 1731 
z
" transform="scale(0.015625)"/>
     </defs>
     <use xlink:href="#Arial-BoldMT-28"/>
     <use xlink:href="#Arial-BoldMT-62" transform="translate(33.300781 0)"/>
     <use xlink:href="#Arial-BoldMT-61" transform="translate(94.384766 0)"/>
     <use xlink:href="#Arial-BoldMT-6c" transform="translate(150 0)"/>
     <use xlink:href="#Arial-BoldMT-6c" transform="translate(177.783203 0)"/>
     <use xlink:href="#Arial-BoldMT-29" transform="translate(205.566406 0)"/>
    </g>
   </g>
   <g id="text_5">
    <!-- Each anchor predicts offsets: predicted_w = anchor_w × exp(tw) -->
    <g transform="translate(271.884609 483.374437) scale(0.11 -0.11)">
     <defs>
      <path id="Arial-ItalicMT-45" d="M 288 0 
L 1247 4581 
L 4553 4581 
L 4444 4059 
L 1750 4059 
L 1450 2634 
L 4075 2634 
L 3966 2113 
L 1341 2113 
L 1009 519 
L 3894 519 
L 3784 0 
L 288 0 
z
" transform="scale(0.015625)"/>
      <path id="Arial-ItalicMT-61" d="M 2450 413 
Q 2156 159 1884 42 
Q 1613 -75 1303 -75 
Q 844 -75 562 195 
Q 281 466 281 888 
Q 281 1166 407 1380 
Q 534 1594 743 1723 
Q 953 1853 1256 1909 
Q 1447 1947 1980 1969 
Q 2513 1991 2744 2081 
Q 2809 2313 2809 2466 
Q 2809 2663 2666 2775 
Q 2469 2931 2091 2931 
Q 1734 2931 1507 2773 
Q 1281 2616 1178 2325 
L 606 2375 
Q 781 2869 1161 3131 
Q 1541 3394 2119 3394 
Q 2734 3394 3094 3100 
Q 3369 2881 3369 2531 
Q 3369 2266 3291 1916 
L 3106 1091 
Q 3019 697 3019 450 
Q 3019 294 3088 0 
L 2516 0 
Q 2469 163 2450 413 
z
M 2659 1681 
Q 2541 1634 2405 1609 
Q 2269 1584 1950 1556 
Q 1456 1513 1253 1445 
Q 1050 1378 947 1231 
Q 844 1084 844 906 
Q 844 669 1008 516 
Q 1172 363 1475 363 
Q 1756 363 2015 511 
Q 2275 659 2425 925 
Q 2575 1191 2659 1681 
z
" transform="scale(0.015625)"/>
      <path id="Arial-ItalicMT-63" d="M 2503 1209 
L 3069 1150 
Q 2856 528 2464 226 
Q 2072 -75 1572 -75 
Q 1031 -75 695 275 
Q 359 625 359 1253 
Q 359 1797 575 2322 
Q 791 2847 1192 3120 
Q 1594 3394 2109 3394 
Q 2644 3394 2956 3092 
Q 3269 2791 3269 2294 
L 2713 2256 
Q 2709 2572 2529 2750 
Q 2350 2928 2056 2928 
Q 1716 2928 1466 2712 
Q 1216 2497 1073 2058 
Q 931 1619 931 1213 
Q 931 788 1118 575 
Q 1306 363 1581 363 
Q 1856 363 2107 572 
Q 2359 781 2503 1209 
z
" transform="scale(0.015625)"/>
      <path id="Arial-ItalicMT-68" d="M 213 0 
L 1169 4581 
L 1734 4581 
L 1369 2822 
Q 1684 3128 1956 3261 
Q 2228 3394 2516 3394 
Q 2928 3394 3156 3176 
Q 3384 2959 3384 2603 
Q 3384 2428 3284 1959 
L 2875 0 
L 2309 0 
L 2731 2009 
Q 2822 2447 2822 2559 
Q 2822 2722 2709 2825 
Q 2597 2928 2384 2928 
Q 2078 2928 1800 2767 
Q 1522 2606 1364 2326 
Q 1206 2047 1075 1425 
L 778 0 
L 213 0 
z
" transform="scale(0.015625)"/>
      <path id="Arial-ItalicMT-20" transform="scale(0.015625)"/>
      <path id="Arial-ItalicMT-6e" d="M 213 0 
L 906 3319 
L 1419 3319 
L 1297 2741 
Q 1631 3081 1922 3237 
Q 2213 3394 2516 3394 
Q 2919 3394 3148 3175 
Q 3378 2956 3378 2591 
Q 3378 2406 3297 2009 
L 2875 0 
L 2309 0 
L 2750 2103 
Q 2816 2409 2816 2556 
Q 2816 2722 2702 2825 
Q 2588 2928 2372 2928 
Q 1938 2928 1598 2615 
Q 1259 2303 1100 1544 
L 778 0 
L 213 0 
z
" transform="scale(0.015625)"/>
      <path id="Arial-ItalicMT-6f" d="M 313 1259 
Q 313 2231 884 2869 
Q 1356 3394 2122 3394 
Q 2722 3394 3089 3019 
Q 3456 2644 3456 2006 
Q 3456 1434 3225 942 
Q 2994 450 2567 187 
Q 2141 -75 1669 -75 
Q 1281 -75 964 90 
Q 647 256 480 559 
Q 313 863 313 1259 
z
M 878 1316 
Q 878 847 1103 605 
Q 1328 363 1675 363 
Q 1856 363 2034 436 
Q 2213 509 2366 659 
Q 2519 809 2626 1001 
Q 2734 1194 2800 1416 
Q 2897 1725 2897 2009 
Q 2897 2459 2670 2707 
Q 2444 2956 2100 2956 
Q 1834 2956 1615 2829 
Q 1397 2703 1220 2459 
Q 1044 2216 961 1892 
Q 878 1569 878 1316 
z
" transform="scale(0.015625)"/>
      <path id="Arial-ItalicMT-72" d="M 213 0 
L 906 3319 
L 1406 3319 
L 1266 2641 
Q 1522 3025 1767 3209 
Q 2013 3394 2269 3394 
Q 2438 3394 2684 3272 
L 2453 2747 
Q 2306 2853 2131 2853 
Q 1834 2853 1521 2522 
Q 1209 2191 1031 1331 
L 750 0 
L 213 0 
z
" transform="scale(0.015625)"/>
      <path id="Arial-ItalicMT-70" d="M -66 -1272 
L 894 3319 
L 1416 3319 
L 1319 2856 
Q 1609 3159 1839 3276 
Q 2069 3394 2325 3394 
Q 2800 3394 3112 3048 
Q 3425 2703 3425 2059 
Q 3425 1541 3253 1114 
Q 3081 688 2831 428 
Q 2581 169 2325 47 
Q 2069 -75 1800 -75 
Q 1203 -75 875 531 
L 500 -1272 
L -66 -1272 
z
M 1053 1356 
Q 1053 984 1106 841 
Q 1184 638 1362 513 
Q 1541 388 1775 388 
Q 2263 388 2563 936 
Q 2863 1484 2863 2056 
Q 2863 2478 2661 2708 
Q 2459 2938 2159 2938 
Q 1944 2938 1759 2823 
Q 1575 2709 1417 2482 
Q 1259 2256 1156 1928 
Q 1053 1600 1053 1356 
z
" transform="scale(0.015625)"/>
      <path id="Arial-ItalicMT-65" d="M 2650 1128 
L 3200 1072 
Q 3081 663 2654 294 
Q 2228 -75 1638 -75 
Q 1269 -75 961 95 
Q 653 266 492 591 
Q 331 916 331 1331 
Q 331 1875 582 2386 
Q 834 2897 1234 3145 
Q 1634 3394 2100 3394 
Q 2694 3394 3048 3025 
Q 3403 2656 3403 2019 
Q 3403 1775 3359 1519 
L 916 1519 
Q 903 1422 903 1344 
Q 903 878 1117 633 
Q 1331 388 1641 388 
Q 1931 388 2212 578 
Q 2494 769 2650 1128 
z
M 1006 1950 
L 2869 1950 
Q 2872 2038 2872 2075 
Q 2872 2500 2659 2726 
Q 2447 2953 2113 2953 
Q 1750 2953 1451 2703 
Q 1153 2453 1006 1950 
z
" transform="scale(0.015625)"/>
      <path id="Arial-ItalicMT-64" d="M 2450 481 
Q 1966 -75 1438 -75 
Q 966 -75 652 273 
Q 338 622 338 1284 
Q 338 1891 586 2392 
Q 834 2894 1207 3144 
Q 1581 3394 1956 3394 
Q 2575 3394 2891 2797 
L 3266 4581 
L 3828 4581 
L 2872 0 
L 2350 0 
L 2450 481 
z
M 900 1391 
Q 900 1044 969 844 
Q 1038 644 1203 511 
Q 1369 378 1600 378 
Q 1984 378 2297 778 
Q 2716 1309 2716 2091 
Q 2716 2484 2509 2706 
Q 2303 2928 1991 2928 
Q 1788 2928 1620 2837 
Q 1453 2747 1289 2530 
Q 1125 2313 1012 1978 
Q 900 1644 900 1391 
z
" transform="scale(0.015625)"/>
      <path id="Arial-ItalicMT-69" d="M 1016 3941 
L 1150 4581 
L 1713 4581 
L 1578 3941 
L 1016 3941 
z
M 191 0 
L 884 3319 
L 1450 3319 
L 756 0 
L 191 0 
z
" transform="scale(0.015625)"/>
      <path id="Arial-ItalicMT-74" d="M 1534 459 
L 1441 -3 
Q 1238 -56 1047 -56 
Q 709 -56 509 109 
Q 359 234 359 450 
Q 359 559 441 953 
L 844 2881 
L 397 2881 
L 488 3319 
L 934 3319 
L 1106 4134 
L 1753 4525 
L 1500 3319 
L 2056 3319 
L 1963 2881 
L 1409 2881 
L 1025 1047 
Q 953 697 953 628 
Q 953 528 1011 475 
Q 1069 422 1200 422 
Q 1388 422 1534 459 
z
" transform="scale(0.015625)"/>
      <path id="Arial-ItalicMT-73" d="M 266 1134 
L 831 1169 
Q 831 925 906 753 
Q 981 581 1182 472 
Q 1384 363 1653 363 
Q 2028 363 2215 513 
Q 2403 663 2403 866 
Q 2403 1013 2291 1144 
Q 2175 1275 1726 1467 
Q 1278 1659 1153 1738 
Q 944 1866 837 2039 
Q 731 2213 731 2438 
Q 731 2831 1043 3112 
Q 1356 3394 1919 3394 
Q 2544 3394 2870 3105 
Q 3197 2816 3209 2344 
L 2656 2306 
Q 2644 2606 2444 2781 
Q 2244 2956 1878 2956 
Q 1584 2956 1421 2822 
Q 1259 2688 1259 2531 
Q 1259 2375 1400 2256 
Q 1494 2175 1884 2006 
Q 2534 1725 2703 1563 
Q 2972 1303 2972 931 
Q 2972 684 2820 446 
Q 2669 209 2358 67 
Q 2047 -75 1625 -75 
Q 1050 -75 647 209 
Q 244 494 266 1134 
z
" transform="scale(0.015625)"/>
      <path id="Arial-ItalicMT-66" d="M 291 0 
L 894 2881 
L 388 2881 
L 478 3319 
L 984 3319 
L 1081 3791 
Q 1156 4144 1236 4300 
Q 1316 4456 1495 4557 
Q 1675 4659 1984 4659 
Q 2200 4659 2609 4569 
L 2506 4075 
Q 2219 4150 2025 4150 
Q 1859 4150 1773 4067 
Q 1688 3984 1625 3675 
L 1550 3319 
L 2181 3319 
L 2091 2881 
L 1459 2881 
L 856 0 
L 291 0 
z
" transform="scale(0.015625)"/>
      <path id="Arial-ItalicMT-3a" d="M 925 2678 
L 1059 3319 
L 1697 3319 
L 1566 2678 
L 925 2678 
z
M 366 0 
L 500 641 
L 1141 641 
L 1003 0 
L 366 0 
z
" transform="scale(0.015625)"/>
      <path id="Arial-ItalicMT-5f" d="M -406 -1272 
L -406 -866 
L 3322 -866 
L 3322 -1272 
L -406 -1272 
z
" transform="scale(0.015625)"/>
      <path id="Arial-ItalicMT-77" d="M 844 0 
L 497 3319 
L 1041 3319 
L 1191 1828 
L 1250 991 
Q 1256 897 1269 613 
Q 1363 931 1428 1101 
Q 1494 1272 1638 1588 
L 2428 3319 
L 3044 3319 
L 3153 1659 
Q 3178 1281 3184 650 
Q 3341 1069 3694 1813 
L 4406 3319 
L 4972 3319 
L 3350 0 
L 2763 0 
L 2638 1947 
Q 2625 2128 2619 2653 
Q 2491 2319 2316 1931 
L 1438 0 
L 844 0 
z
" transform="scale(0.015625)"/>
      <path id="Arial-ItalicMT-3d" d="M 3600 2694 
L 575 2694 
L 575 3219 
L 3600 3219 
L 3600 2694 
z
M 3600 1303 
L 575 1303 
L 575 1828 
L 3600 1828 
L 3600 1303 
z
" transform="scale(0.015625)"/>
      <path id="Arial-ItalicMT-d7" d="M 816 1278 
L 1800 2263 
L 819 3244 
L 1200 3625 
L 2181 2644 
L 3159 3622 
L 3534 3244 
L 2559 2266 
L 3541 1284 
L 3159 903 
L 2178 1884 
L 1194 900 
L 816 1278 
z
" transform="scale(0.015625)"/>
      <path id="Arial-ItalicMT-78" d="M -9 0 
L 1434 1684 
L 606 3319 
L 1231 3319 
L 1513 2728 
Q 1669 2397 1794 2094 
L 2750 3319 
L 3441 3319 
L 2047 1641 
L 2884 0 
L 2259 0 
L 1928 675 
Q 1822 891 1688 1209 
L 700 0 
L -9 0 
z
" transform="scale(0.015625)"/>
      <path id="Arial-ItalicMT-28" d="M 1031 -1347 
Q 541 -272 541 863 
Q 541 1619 739 2270 
Q 938 2922 1344 3559 
Q 1613 3984 2203 4659 
L 2644 4659 
Q 2278 4269 1870 3559 
Q 1463 2850 1278 2165 
Q 1094 1481 1094 791 
Q 1094 -241 1453 -1347 
L 1031 -1347 
z
" transform="scale(0.015625)"/>
      <path id="Arial-ItalicMT-29" d="M 1269 4659 
Q 1763 3584 1763 2453 
Q 1763 1694 1564 1044 
Q 1366 394 959 -247 
Q 688 -672 100 -1347 
L -341 -1347 
Q 22 -953 431 -243 
Q 841 466 1023 1148 
Q 1206 1831 1206 2525 
Q 1206 3556 847 4659 
L 1269 4659 
z
" transform="scale(0.015625)"/>
     </defs>
     <use xlink:href="#Arial-ItalicMT-45"/>
     <use xlink:href="#Arial-ItalicMT-61" transform="translate(66.699219 0)"/>
     <use xlink:href="#Arial-ItalicMT-63" transform="translate(122.314453 0)"/>
     <use xlink:href="#Arial-ItalicMT-68" transform="translate(172.314453 0)"/>
     <use xlink:href="#Arial-ItalicMT-20" transform="translate(227.929688 0)"/>
     <use xlink:href="#Arial-ItalicMT-61" transform="translate(255.712891 0)"/>
     <use xlink:href="#Arial-ItalicMT-6e" transform="translate(311.328125 0)"/>
     <use xlink:href="#Arial-ItalicMT-63" transform="translate(366.943359 0)"/>
     <use xlink:href="#Arial-ItalicMT-68" transform="translate(416.943359 0)"/>
     <use xlink:href="#Arial-ItalicMT-6f" transform="translate(472.558594 0)"/>
     <use xlink:href="#Arial-ItalicMT-72" transform="translate(528.173828 0)"/>
     <use xlink:href="#Arial-ItalicMT-20" transform="translate(561.474609 0)"/>
     <use xlink:href="#Arial-ItalicMT-70" transform="translate(589.257812 0)"/>
     <use xlink:href="#Arial-ItalicMT-72" transform="translate(644.873047 0)"/>
     <use xlink:href="#Arial-ItalicMT-65" transform="translate(678.173828 0)"/>
     <use xlink:href="#Arial-ItalicMT-64" transform="translate(733.789062 0)"/>
     <use xlink:href="#Arial-ItalicMT-69" transform="translate(789.404297 0)"/>
     <use xlink:href="#Arial-ItalicMT-63" transform="translate(811.621094 0)"/>
     <use xlink:href="#Arial-ItalicMT-74" transform="translate(861.621094 0)"/>
     <use xlink:href="#Arial-ItalicMT-73" transform="translate(889.404297 0)"/>
     <use xlink:href="#Arial-ItalicMT-20" transform="translate(939.404297 0)"/>
     <use xlink:href="#Arial-ItalicMT-6f" transform="translate(967.1875 0)"/>
     <use xlink:href="#Arial-ItalicMT-66" transform="translate(1022.802734 0)"/>
     <use xlink:href="#Arial-ItalicMT-66" transform="translate(1050.585938 0)"/>
     <use xlink:href="#Arial-ItalicMT-73" transform="translate(1078.369141 0)"/>
     <use xlink:href="#Arial-ItalicMT-65" transform="translate(1128.369141 0)"/>
     <use xlink:href="#Arial-ItalicMT-74" transform="translate(1183.984375 0)"/>
     <use xlink:href="#Arial-ItalicMT-73" transform="translate(1211.767578 0)"/>
     <use xlink:href="#Arial-ItalicMT-3a" transform="translate(1261.767578 0)"/>
     <use xlink:href="#Arial-ItalicMT-20" transform="translate(1289.550781 0)"/>
     <use xlink:href="#Arial-ItalicMT-70" transform="translate(1317.333984 0)"/>
     <use xlink:href="#Arial-ItalicMT-72" transform="translate(1372.949219 0)"/>
     <use xlink:href="#Arial-ItalicMT-65" transform="translate(1406.25 0)"/>
     <use xlink:href="#Arial-ItalicMT-64" transform="translate(1461.865234 0)"/>
     <use xlink:href="#Arial-ItalicMT-69" transform="translate(1517.480469 0)"/>
     <use xlink:href="#Arial-ItalicMT-63" transform="translate(1539.697266 0)"/>
     <use xlink:href="#Arial-ItalicMT-74" transform="translate(1589.697266 0)"/>
     <use xlink:href="#Arial-ItalicMT-65" transform="translate(1617.480469 0)"/>
     <use xlink:href="#Arial-ItalicMT-64" transform="translate(1673.095703 0)"/>
     <use xlink:href="#Arial-ItalicMT-5f" transform="translate(1728.710938 0)"/>
     <use xlink:href="#Arial-ItalicMT-77" transform="translate(1784.326172 0)"/>
     <use xlink:href="#Arial-ItalicMT-20" transform="translate(1856.542969 0)"/>
     <use xlink:href="#Arial-ItalicMT-3d" transform="translate(1884.326172 0)"/>
     <use xlink:href="#Arial-ItalicMT-20" transform="translate(1942.724609 0)"/>
     <use xlink:href="#Arial-ItalicMT-61" transform="translate(1970.507812 0)"/>
     <use xlink:href="#Arial-ItalicMT-6e" transform="translate(2026.123047 0)"/>
     <use xlink:href="#Arial-ItalicMT-63" transform="translate(2081.738281 0)"/>
     <use xlink:href="#Arial-ItalicMT-68" transform="translate(2131.738281 0)"/>
     <use xlink:href="#Arial-ItalicMT-6f" transform="translate(2187.353516 0)"/>
     <use xlink:href="#Arial-ItalicMT-72" transform="translate(2242.96875 0)"/>
     <use xlink:href="#Arial-ItalicMT-5f" transform="translate(2276.269531 0)"/>
     <use xlink:href="#Arial-ItalicMT-77" transform="translate(2331.884766 0)"/>
     <use xlink:href="#Arial-ItalicMT-20" transform="translate(2404.101562 0)"/>
     <use xlink:href="#Arial-ItalicMT-d7" transform="translate(2431.884766 0)"/>
     <use xlink:href="#Arial-ItalicMT-20" transform="translate(2490.283203 0)"/>
     <use xlink:href="#Arial-ItalicMT-65" transform="translate(2518.066406 0)"/>
     <use xlink:href="#Arial-ItalicMT-78" transform="translate(2573.681641 0)"/>
     <use xlink:href="#Arial-ItalicMT-70" transform="translate(2623.681641 0)"/>
     <use xlink:href="#Arial-ItalicMT-28" transform="translate(2679.296875 0)"/>
     <use xlink:href="#Arial-ItalicMT-74" transform="translate(2712.597656 0)"/>
     <use xlink:href="#Arial-ItalicMT-77" transform="translate(2740.380859 0)"/>
     <use xlink:href="#Arial-ItalicMT-29" transform="translate(2812.597656 0)"/>
    </g>
   </g>
   <g id="text_6">
    <!-- Anchor Boxes: Pre-defined Shapes -->
    <g transform="translate(277.875 20.303437) scale(0.18 -0.18)">
     <defs>
      <path id="Arial-BoldMT-41" d="M 4597 0 
L 3591 0 
L 3191 1041 
L 1359 1041 
L 981 0 
L 0 0 
L 1784 4581 
L 2763 4581 
L 4597 0 
z
M 2894 1813 
L 2263 3513 
L 1644 1813 
L 2894 1813 
z
" transform="scale(0.015625)"/>
      <path id="Arial-BoldMT-68" d="M 1334 4581 
L 1334 2897 
Q 1759 3394 2350 3394 
Q 2653 3394 2897 3281 
Q 3141 3169 3264 2994 
Q 3388 2819 3433 2606 
Q 3478 2394 3478 1947 
L 3478 0 
L 2600 0 
L 2600 1753 
Q 2600 2275 2550 2415 
Q 2500 2556 2373 2639 
Q 2247 2722 2056 2722 
Q 1838 2722 1666 2615 
Q 1494 2509 1414 2295 
Q 1334 2081 1334 1663 
L 1334 0 
L 456 0 
L 456 4581 
L 1334 4581 
z
" transform="scale(0.015625)"/>
      <path id="Arial-BoldMT-42" d="M 469 4581 
L 2300 4581 
Q 2844 4581 3111 4536 
Q 3378 4491 3589 4347 
Q 3800 4203 3940 3964 
Q 4081 3725 4081 3428 
Q 4081 3106 3907 2837 
Q 3734 2569 3438 2434 
Q 3856 2313 4081 2019 
Q 4306 1725 4306 1328 
Q 4306 1016 4161 720 
Q 4016 425 3764 248 
Q 3513 72 3144 31 
Q 2913 6 2028 0 
L 469 0 
L 469 4581 
z
M 1394 3819 
L 1394 2759 
L 2000 2759 
Q 2541 2759 2672 2775 
Q 2909 2803 3045 2939 
Q 3181 3075 3181 3297 
Q 3181 3509 3064 3642 
Q 2947 3775 2716 3803 
Q 2578 3819 1925 3819 
L 1394 3819 
z
M 1394 1997 
L 1394 772 
L 2250 772 
Q 2750 772 2884 800 
Q 3091 838 3220 983 
Q 3350 1128 3350 1372 
Q 3350 1578 3250 1722 
Q 3150 1866 2961 1931 
Q 2772 1997 2141 1997 
L 1394 1997 
z
" transform="scale(0.015625)"/>
      <path id="Arial-BoldMT-78" d="M 38 0 
L 1234 1709 
L 88 3319 
L 1159 3319 
L 1747 2406 
L 2366 3319 
L 3397 3319 
L 2272 1747 
L 3500 0 
L 2422 0 
L 1747 1028 
L 1066 0 
L 38 0 
z
" transform="scale(0.015625)"/>
      <path id="Arial-BoldMT-3a" d="M 628 2441 
L 628 3319 
L 1506 3319 
L 1506 2441 
L 628 2441 
z
M 628 0 
L 628 878 
L 1506 878 
L 1506 0 
L 628 0 
z
" transform="scale(0.015625)"/>
      <path id="Arial-BoldMT-50" d="M 466 0 
L 466 4581 
L 1950 4581 
Q 2794 4581 3050 4513 
Q 3444 4409 3709 4064 
Q 3975 3719 3975 3172 
Q 3975 2750 3822 2462 
Q 3669 2175 3433 2011 
Q 3197 1847 2953 1794 
Q 2622 1728 1994 1728 
L 1391 1728 
L 1391 0 
L 466 0 
z
M 1391 3806 
L 1391 2506 
L 1897 2506 
Q 2444 2506 2628 2578 
Q 2813 2650 2917 2803 
Q 3022 2956 3022 3159 
Q 3022 3409 2875 3571 
Q 2728 3734 2503 3775 
Q 2338 3806 1838 3806 
L 1391 3806 
z
" transform="scale(0.015625)"/>
      <path id="Arial-BoldMT-2d" d="M 359 1222 
L 359 2100 
L 2084 2100 
L 2084 1222 
L 359 1222 
z
" transform="scale(0.015625)"/>
      <path id="Arial-BoldMT-66" d="M 75 3319 
L 563 3319 
L 563 3569 
Q 563 3988 652 4194 
Q 741 4400 980 4529 
Q 1219 4659 1584 4659 
Q 1959 4659 2319 4547 
L 2200 3934 
Q 1991 3984 1797 3984 
Q 1606 3984 1523 3895 
Q 1441 3806 1441 3553 
L 1441 3319 
L 2097 3319 
L 2097 2628 
L 1441 2628 
L 1441 0 
L 563 0 
L 563 2628 
L 75 2628 
L 75 3319 
z
" transform="scale(0.015625)"/>
     </defs>
     <use xlink:href="#Arial-BoldMT-41"/>
     <use xlink:href="#Arial-BoldMT-6e" transform="translate(72.216797 0)"/>
     <use xlink:href="#Arial-BoldMT-63" transform="translate(133.300781 0)"/>
     <use xlink:href="#Arial-BoldMT-68" transform="translate(188.916016 0)"/>
     <use xlink:href="#Arial-BoldMT-6f" transform="translate(250 0)"/>
     <use xlink:href="#Arial-BoldMT-72" transform="translate(311.083984 0)"/>
     <use xlink:href="#Arial-BoldMT-20" transform="translate(350 0)"/>
     <use xlink:href="#Arial-BoldMT-42" transform="translate(377.783203 0)"/>
     <use xlink:href="#Arial-BoldMT-6f" transform="translate(450 0)"/>
     <use xlink:href="#Arial-BoldMT-78" transform="translate(511.083984 0)"/>
     <use xlink:href="#Arial-BoldMT-65" transform="translate(566.699219 0)"/>
     <use xlink:href="#Arial-BoldMT-73" transform="translate(622.314453 0)"/>
     <use xlink:href="#Arial-BoldMT-3a" transform="translate(677.929688 0)"/>
     <use xlink:href="#Arial-BoldMT-20" transform="translate(711.230469 0)"/>
     <use xlink:href="#Arial-BoldMT-50" transform="translate(739.013672 0)"/>
     <use xlink:href="#Arial-BoldMT-72" transform="translate(805.712891 0)"/>
     <use xlink:href="#Arial-BoldMT-65" transform="translate(844.628906 0)"/>
     <use xlink:href="#Arial-BoldMT-2d" transform="translate(900.244141 0)"/>
     <use xlink:href="#Arial-BoldMT-64" transform="translate(933.544922 0)"/>
     <use xlink:href="#Arial-BoldMT-65" transform="translate(994.628906 0)"/>
     <use xlink:href="#Arial-BoldMT-66" transform="translate(1050.244141 0)"/>
     <use xlink:href="#Arial-BoldMT-69" transform="translate(1083.544922 0)"/>
     <use xlink:href="#Arial-BoldMT-6e" transform="translate(1111.328125 0)"/>
     <use xlink:href="#Arial-BoldMT-65" transform="translate(1172.412109 0)"/>
     <use xlink:href="#Arial-BoldMT-64" transform="translate(1228.027344 0)"/>
     <use xlink:href="#Arial-BoldMT-20" transform="translate(1289.111328 0)"/>
     <use xlink:href="#Arial-BoldMT-53" transform="translate(1316.894531 0)"/>
     <use xlink:href="#Arial-BoldMT-68" transform="translate(1383.59375 0)"/>
     <use xlink:href="#Arial-BoldMT-61" transform="translate(1444.677734 0)"/>
     <use xlink:href="#Arial-BoldMT-70" transform="translate(1500.292969 0)"/>
     <use xlink:href="#Arial-BoldMT-65" transform="translate(1561.376953 0)"/>
     <use xlink:href="#Arial-BoldMT-73" transform="translate(1616.992188 0)"/>
    </g>
   </g>
  </g>
 </g>
 <defs>
  <clipPath id="pea864242a4">
   <rect x="7.2" y="40.303437" width="842.4" height="521.26"/>
  </clipPath>
 </defs>
</svg>
