<?xml version="1.0" encoding="utf-8" standalone="no"?>
<!DOCTYPE svg PUBLIC "-//W3C//DTD SVG 1.1//EN"
  "http://www.w3.org/Graphics/SVG/1.1/DTD/svg11.dtd">
<svg xmlns:xlink="http://www.w3.org/1999/xlink" width="1000.8pt" height="496.779375pt" viewBox="0 0 1000.8 496.779375" xmlns="http://www.w3.org/2000/svg" version="1.1">
 <metadata>
  <rdf:RDF xmlns:dc="http://purl.org/dc/elements/1.1/" xmlns:cc="http://creativecommons.org/ns#" xmlns:rdf="http://www.w3.org/1999/02/22-rdf-syntax-ns#">
   <cc:Work>
    <dc:type rdf:resource="http://purl.org/dc/dcmitype/StillImage"/>
    <dc:date>2025-12-29T10:49:49.635690</dc:date>
    <dc:format>image/svg+xml</dc:format>
    <dc:creator>
     <cc:Agent>
      <dc:title>Matplotlib v3.10.1, https://matplotlib.org/</dc:title>
     </cc:Agent>
    </dc:creator>
   </cc:Work>
  </rdf:RDF>
 </metadata>
 <defs>
  <style type="text/css">*{stroke-linejoin: round; stroke-linecap: butt}</style>
 </defs>
 <g id="figure_1">
  <g id="patch_1">
   <path d="M 0 496.779375 
L 1000.8 496.779375 
L 1000.8 0 
L 0 0 
z
" style="fill: #f8f9fa"/>
  </g>
  <g id="axes_1">
   <g id="patch_2">
    <path d="M 135.432 185.061775 
L 372.168 185.061775 
Q 382.032 185.061775 382.032 180.583575 
L 382.032 126.845175 
Q 382.032 122.366975 372.168 122.366975 
L 135.432 122.366975 
Q 125.568 122.366975 125.568 126.845175 
L 125.568 180.583575 
Q 125.568 185.061775 135.432 185.061775 
z
" clip-path="url(#pac92b96d5a)" style="fill: #2e86ab; opacity: 0.7; stroke: #000000; stroke-linejoin: miter"/>
   </g>
   <g id="patch_3">
    <path d="M 135.432 274.625775 
L 372.168 274.625775 
Q 382.032 274.625775 382.032 270.147575 
L 382.032 216.409175 
Q 382.032 211.930975 372.168 211.930975 
L 135.432 211.930975 
Q 125.568 211.930975 125.568 216.409175 
L 125.568 270.147575 
Q 125.568 274.625775 135.432 274.625775 
z
" clip-path="url(#pac92b96d5a)" style="fill: #2e86ab; opacity: 0.7; stroke: #000000; stroke-linejoin: miter"/>
   </g>
   <g id="patch_4">
    <path d="M 135.432 364.189775 
L 372.168 364.189775 
Q 382.032 364.189775 382.032 359.711575 
L 382.032 305.973175 
Q 382.032 301.494975 372.168 301.494975 
L 135.432 301.494975 
Q 125.568 301.494975 125.568 305.973175 
L 125.568 359.711575 
Q 125.568 364.189775 135.432 364.189775 
z
" clip-path="url(#pac92b96d5a)" style="fill: #2e86ab; opacity: 0.7; stroke: #000000; stroke-linejoin: miter"/>
   </g>
   <g id="patch_5">
    <path d="M 135.432 453.753775 
L 372.168 453.753775 
Q 382.032 453.753775 382.032 449.275575 
L 382.032 395.537175 
Q 382.032 391.058975 372.168 391.058975 
L 135.432 391.058975 
Q 125.568 391.058975 125.568 395.537175 
L 125.568 449.275575 
Q 125.568 453.753775 135.432 453.753775 
z
" clip-path="url(#pac92b96d5a)" style="fill: #2e86ab; opacity: 0.7; stroke: #000000; stroke-linejoin: miter"/>
   </g>
   <g id="patch_6">
    <path d="M 628.632 216.409175 
L 865.368 216.409175 
Q 875.232 216.409175 875.232 211.930975 
L 875.232 140.279775 
Q 875.232 135.801575 865.368 135.801575 
L 628.632 135.801575 
Q 618.768 135.801575 618.768 140.279775 
L 618.768 211.930975 
Q 618.768 216.409175 628.632 216.409175 
z
" clip-path="url(#pac92b96d5a)" style="fill: #06a77d; opacity: 0.7; stroke: #000000; stroke-linejoin: miter"/>
   </g>
   <g id="patch_7">
    <path d="M 628.632 328.364175 
L 865.368 328.364175 
Q 875.232 328.364175 875.232 323.885975 
L 875.232 252.234775 
Q 875.232 247.756575 865.368 247.756575 
L 628.632 247.756575 
Q 618.768 247.756575 618.768 252.234775 
L 618.768 323.885975 
Q 618.768 328.364175 628.632 328.364175 
z
" clip-path="url(#pac92b96d5a)" style="fill: #06a77d; opacity: 0.7; stroke: #000000; stroke-linejoin: miter"/>
   </g>
   <g id="patch_8">
    <path d="M 628.632 440.319175 
L 865.368 440.319175 
Q 875.232 440.319175 875.232 435.840975 
L 875.232 364.189775 
Q 875.232 359.711575 865.368 359.711575 
L 628.632 359.711575 
Q 618.768 359.711575 618.768 364.189775 
L 618.768 435.840975 
Q 618.768 440.319175 628.632 440.319175 
z
" clip-path="url(#pac92b96d5a)" style="fill: #06a77d; opacity: 0.7; stroke: #000000; stroke-linejoin: miter"/>
   </g>
   <g id="line2d_1">
    <path d="M 500.4 489.579375 
L 500.4 41.759375 
" clip-path="url(#pac92b96d5a)" style="fill: none; stroke-dasharray: 7.4,3.2; stroke-dashoffset: 0; stroke: #808080; stroke-opacity: 0.5; stroke-width: 2"/>
   </g>
   <g id="text_1">
    <!-- Two-Stage Detectors -->
    <g style="fill: #2e86ab" transform="translate(174.825 64.150375) scale(0.16 -0.16)">
     <defs>
      <path id="Arial-BoldMT-54" d="M 1497 0 
L 1497 3806 
L 138 3806 
L 138 4581 
L 3778 4581 
L 3778 3806 
L 2422 3806 
L 2422 0 
L 1497 0 
z
" transform="scale(0.015625)"/>
      <path id="Arial-BoldMT-77" d="M 1078 0 
L 28 3319 
L 881 3319 
L 1503 1144 
L 2075 3319 
L 2922 3319 
L 3475 1144 
L 4109 3319 
L 4975 3319 
L 3909 0 
L 3066 0 
L 2494 2134 
L 1931 0 
L 1078 0 
z
" transform="scale(0.015625)"/>
      <path id="Arial-BoldMT-6f" d="M 256 1706 
Q 256 2144 472 2553 
Q 688 2963 1083 3178 
Q 1478 3394 1966 3394 
Q 2719 3394 3200 2905 
Q 3681 2416 3681 1669 
Q 3681 916 3195 420 
Q 2709 -75 1972 -75 
Q 1516 -75 1102 131 
Q 688 338 472 736 
Q 256 1134 256 1706 
z
M 1156 1659 
Q 1156 1166 1390 903 
Q 1625 641 1969 641 
Q 2313 641 2545 903 
Q 2778 1166 2778 1666 
Q 2778 2153 2545 2415 
Q 2313 2678 1969 2678 
Q 1625 2678 1390 2415 
Q 1156 2153 1156 1659 
z
" transform="scale(0.015625)"/>
      <path id="Arial-BoldMT-2d" d="M 359 1222 
L 359 2100 
L 2084 2100 
L 2084 1222 
L 359 1222 
z
" transform="scale(0.015625)"/>
      <path id="Arial-BoldMT-53" d="M 231 1491 
L 1131 1578 
Q 1213 1125 1461 912 
Q 1709 700 2131 700 
Q 2578 700 2804 889 
Q 3031 1078 3031 1331 
Q 3031 1494 2936 1608 
Q 2841 1722 2603 1806 
Q 2441 1863 1863 2006 
Q 1119 2191 819 2459 
Q 397 2838 397 3381 
Q 397 3731 595 4036 
Q 794 4341 1167 4500 
Q 1541 4659 2069 4659 
Q 2931 4659 3367 4281 
Q 3803 3903 3825 3272 
L 2900 3231 
Q 2841 3584 2645 3739 
Q 2450 3894 2059 3894 
Q 1656 3894 1428 3728 
Q 1281 3622 1281 3444 
Q 1281 3281 1419 3166 
Q 1594 3019 2269 2859 
Q 2944 2700 3267 2529 
Q 3591 2359 3773 2064 
Q 3956 1769 3956 1334 
Q 3956 941 3737 597 
Q 3519 253 3119 86 
Q 2719 -81 2122 -81 
Q 1253 -81 787 320 
Q 322 722 231 1491 
z
" transform="scale(0.015625)"/>
      <path id="Arial-BoldMT-74" d="M 1981 3319 
L 1981 2619 
L 1381 2619 
L 1381 1281 
Q 1381 875 1398 808 
Q 1416 741 1477 697 
Q 1538 653 1625 653 
Q 1747 653 1978 738 
L 2053 56 
Q 1747 -75 1359 -75 
Q 1122 -75 931 4 
Q 741 84 652 211 
Q 563 338 528 553 
Q 500 706 500 1172 
L 500 2619 
L 97 2619 
L 97 3319 
L 500 3319 
L 500 3978 
L 1381 4491 
L 1381 3319 
L 1981 3319 
z
" transform="scale(0.015625)"/>
      <path id="Arial-BoldMT-61" d="M 1116 2306 
L 319 2450 
Q 453 2931 781 3162 
Q 1109 3394 1756 3394 
Q 2344 3394 2631 3255 
Q 2919 3116 3036 2902 
Q 3153 2688 3153 2116 
L 3144 1091 
Q 3144 653 3186 445 
Q 3228 238 3344 0 
L 2475 0 
Q 2441 88 2391 259 
Q 2369 338 2359 363 
Q 2134 144 1878 34 
Q 1622 -75 1331 -75 
Q 819 -75 523 203 
Q 228 481 228 906 
Q 228 1188 362 1408 
Q 497 1628 739 1745 
Q 981 1863 1438 1950 
Q 2053 2066 2291 2166 
L 2291 2253 
Q 2291 2506 2166 2614 
Q 2041 2722 1694 2722 
Q 1459 2722 1328 2630 
Q 1197 2538 1116 2306 
z
M 2291 1594 
Q 2122 1538 1756 1459 
Q 1391 1381 1278 1306 
Q 1106 1184 1106 997 
Q 1106 813 1243 678 
Q 1381 544 1594 544 
Q 1831 544 2047 700 
Q 2206 819 2256 991 
Q 2291 1103 2291 1419 
L 2291 1594 
z
" transform="scale(0.015625)"/>
      <path id="Arial-BoldMT-67" d="M 378 -219 
L 1381 -341 
Q 1406 -516 1497 -581 
Q 1622 -675 1891 -675 
Q 2234 -675 2406 -572 
Q 2522 -503 2581 -350 
Q 2622 -241 2622 53 
L 2622 538 
Q 2228 0 1628 0 
Q 959 0 569 566 
Q 263 1013 263 1678 
Q 263 2513 664 2953 
Q 1066 3394 1663 3394 
Q 2278 3394 2678 2853 
L 2678 3319 
L 3500 3319 
L 3500 341 
Q 3500 -247 3403 -537 
Q 3306 -828 3131 -993 
Q 2956 -1159 2664 -1253 
Q 2372 -1347 1925 -1347 
Q 1081 -1347 728 -1058 
Q 375 -769 375 -325 
Q 375 -281 378 -219 
z
M 1163 1728 
Q 1163 1200 1367 954 
Q 1572 709 1872 709 
Q 2194 709 2416 961 
Q 2638 1213 2638 1706 
Q 2638 2222 2425 2472 
Q 2213 2722 1888 2722 
Q 1572 2722 1367 2476 
Q 1163 2231 1163 1728 
z
" transform="scale(0.015625)"/>
      <path id="Arial-BoldMT-65" d="M 2381 1056 
L 3256 909 
Q 3088 428 2723 176 
Q 2359 -75 1813 -75 
Q 947 -75 531 491 
Q 203 944 203 1634 
Q 203 2459 634 2926 
Q 1066 3394 1725 3394 
Q 2466 3394 2894 2905 
Q 3322 2416 3303 1406 
L 1103 1406 
Q 1113 1016 1316 798 
Q 1519 581 1822 581 
Q 2028 581 2168 693 
Q 2309 806 2381 1056 
z
M 2431 1944 
Q 2422 2325 2234 2523 
Q 2047 2722 1778 2722 
Q 1491 2722 1303 2513 
Q 1116 2303 1119 1944 
L 2431 1944 
z
" transform="scale(0.015625)"/>
      <path id="Arial-BoldMT-20" transform="scale(0.015625)"/>
      <path id="Arial-BoldMT-44" d="M 463 4581 
L 2153 4581 
Q 2725 4581 3025 4494 
Q 3428 4375 3715 4072 
Q 4003 3769 4153 3330 
Q 4303 2891 4303 2247 
Q 4303 1681 4163 1272 
Q 3991 772 3672 463 
Q 3431 228 3022 97 
Q 2716 0 2203 0 
L 463 0 
L 463 4581 
z
M 1388 3806 
L 1388 772 
L 2078 772 
Q 2466 772 2638 816 
Q 2863 872 3011 1006 
Q 3159 1141 3253 1448 
Q 3347 1756 3347 2288 
Q 3347 2819 3253 3103 
Q 3159 3388 2990 3547 
Q 2822 3706 2563 3763 
Q 2369 3806 1803 3806 
L 1388 3806 
z
" transform="scale(0.015625)"/>
      <path id="Arial-BoldMT-63" d="M 3353 2338 
L 2488 2181 
Q 2444 2441 2289 2572 
Q 2134 2703 1888 2703 
Q 1559 2703 1364 2476 
Q 1169 2250 1169 1719 
Q 1169 1128 1367 884 
Q 1566 641 1900 641 
Q 2150 641 2309 783 
Q 2469 925 2534 1272 
L 3397 1125 
Q 3263 531 2881 228 
Q 2500 -75 1859 -75 
Q 1131 -75 698 384 
Q 266 844 266 1656 
Q 266 2478 700 2936 
Q 1134 3394 1875 3394 
Q 2481 3394 2839 3133 
Q 3197 2872 3353 2338 
z
" transform="scale(0.015625)"/>
      <path id="Arial-BoldMT-72" d="M 1300 0 
L 422 0 
L 422 3319 
L 1238 3319 
L 1238 2847 
Q 1447 3181 1614 3287 
Q 1781 3394 1994 3394 
Q 2294 3394 2572 3228 
L 2300 2463 
Q 2078 2606 1888 2606 
Q 1703 2606 1575 2504 
Q 1447 2403 1373 2137 
Q 1300 1872 1300 1025 
L 1300 0 
z
" transform="scale(0.015625)"/>
      <path id="Arial-BoldMT-73" d="M 150 947 
L 1031 1081 
Q 1088 825 1259 692 
Q 1431 559 1741 559 
Q 2081 559 2253 684 
Q 2369 772 2369 919 
Q 2369 1019 2306 1084 
Q 2241 1147 2013 1200 
Q 950 1434 666 1628 
Q 272 1897 272 2375 
Q 272 2806 612 3100 
Q 953 3394 1669 3394 
Q 2350 3394 2681 3172 
Q 3013 2950 3138 2516 
L 2309 2363 
Q 2256 2556 2107 2659 
Q 1959 2763 1684 2763 
Q 1338 2763 1188 2666 
Q 1088 2597 1088 2488 
Q 1088 2394 1175 2328 
Q 1294 2241 1995 2081 
Q 2697 1922 2975 1691 
Q 3250 1456 3250 1038 
Q 3250 581 2869 253 
Q 2488 -75 1741 -75 
Q 1063 -75 667 200 
Q 272 475 150 947 
z
" transform="scale(0.015625)"/>
     </defs>
     <use xlink:href="#Arial-BoldMT-54"/>
     <use xlink:href="#Arial-BoldMT-77" transform="translate(53.708984 0)"/>
     <use xlink:href="#Arial-BoldMT-6f" transform="translate(131.492188 0)"/>
     <use xlink:href="#Arial-BoldMT-2d" transform="translate(192.576172 0)"/>
     <use xlink:href="#Arial-BoldMT-53" transform="translate(225.876953 0)"/>
     <use xlink:href="#Arial-BoldMT-74" transform="translate(292.576172 0)"/>
     <use xlink:href="#Arial-BoldMT-61" transform="translate(325.876953 0)"/>
     <use xlink:href="#Arial-BoldMT-67" transform="translate(381.492188 0)"/>
     <use xlink:href="#Arial-BoldMT-65" transform="translate(442.576172 0)"/>
     <use xlink:href="#Arial-BoldMT-20" transform="translate(498.191406 0)"/>
     <use xlink:href="#Arial-BoldMT-44" transform="translate(525.974609 0)"/>
     <use xlink:href="#Arial-BoldMT-65" transform="translate(598.191406 0)"/>
     <use xlink:href="#Arial-BoldMT-74" transform="translate(653.806641 0)"/>
     <use xlink:href="#Arial-BoldMT-65" transform="translate(687.107422 0)"/>
     <use xlink:href="#Arial-BoldMT-63" transform="translate(742.722656 0)"/>
     <use xlink:href="#Arial-BoldMT-74" transform="translate(798.337891 0)"/>
     <use xlink:href="#Arial-BoldMT-6f" transform="translate(831.638672 0)"/>
     <use xlink:href="#Arial-BoldMT-72" transform="translate(892.722656 0)"/>
     <use xlink:href="#Arial-BoldMT-73" transform="translate(931.638672 0)"/>
    </g>
   </g>
   <g id="text_2">
    <!-- (Accurate but slower) -->
    <g style="fill: #808080" transform="translate(201.840469 95.497775) scale(0.11 -0.11)">
     <defs>
      <path id="ArialMT-28" d="M 1497 -1347 
Q 1031 -759 709 28 
Q 388 816 388 1659 
Q 388 2403 628 3084 
Q 909 3875 1497 4659 
L 1900 4659 
Q 1522 4009 1400 3731 
Q 1209 3300 1100 2831 
Q 966 2247 966 1656 
Q 966 153 1900 -1347 
L 1497 -1347 
z
" transform="scale(0.015625)"/>
      <path id="ArialMT-41" d="M -9 0 
L 1750 4581 
L 2403 4581 
L 4278 0 
L 3588 0 
L 3053 1388 
L 1138 1388 
L 634 0 
L -9 0 
z
M 1313 1881 
L 2866 1881 
L 2388 3150 
Q 2169 3728 2063 4100 
Q 1975 3659 1816 3225 
L 1313 1881 
z
" transform="scale(0.015625)"/>
      <path id="ArialMT-63" d="M 2588 1216 
L 3141 1144 
Q 3050 572 2676 248 
Q 2303 -75 1759 -75 
Q 1078 -75 664 370 
Q 250 816 250 1647 
Q 250 2184 428 2587 
Q 606 2991 970 3192 
Q 1334 3394 1763 3394 
Q 2303 3394 2647 3120 
Q 2991 2847 3088 2344 
L 2541 2259 
Q 2463 2594 2264 2762 
Q 2066 2931 1784 2931 
Q 1359 2931 1093 2626 
Q 828 2322 828 1663 
Q 828 994 1084 691 
Q 1341 388 1753 388 
Q 2084 388 2306 591 
Q 2528 794 2588 1216 
z
" transform="scale(0.015625)"/>
      <path id="ArialMT-75" d="M 2597 0 
L 2597 488 
Q 2209 -75 1544 -75 
Q 1250 -75 995 37 
Q 741 150 617 320 
Q 494 491 444 738 
Q 409 903 409 1263 
L 409 3319 
L 972 3319 
L 972 1478 
Q 972 1038 1006 884 
Q 1059 663 1231 536 
Q 1403 409 1656 409 
Q 1909 409 2131 539 
Q 2353 669 2445 892 
Q 2538 1116 2538 1541 
L 2538 3319 
L 3100 3319 
L 3100 0 
L 2597 0 
z
" transform="scale(0.015625)"/>
      <path id="ArialMT-72" d="M 416 0 
L 416 3319 
L 922 3319 
L 922 2816 
Q 1116 3169 1280 3281 
Q 1444 3394 1641 3394 
Q 1925 3394 2219 3213 
L 2025 2691 
Q 1819 2813 1613 2813 
Q 1428 2813 1281 2702 
Q 1134 2591 1072 2394 
Q 978 2094 978 1738 
L 978 0 
L 416 0 
z
" transform="scale(0.015625)"/>
      <path id="ArialMT-61" d="M 2588 409 
Q 2275 144 1986 34 
Q 1697 -75 1366 -75 
Q 819 -75 525 192 
Q 231 459 231 875 
Q 231 1119 342 1320 
Q 453 1522 633 1644 
Q 813 1766 1038 1828 
Q 1203 1872 1538 1913 
Q 2219 1994 2541 2106 
Q 2544 2222 2544 2253 
Q 2544 2597 2384 2738 
Q 2169 2928 1744 2928 
Q 1347 2928 1158 2789 
Q 969 2650 878 2297 
L 328 2372 
Q 403 2725 575 2942 
Q 747 3159 1072 3276 
Q 1397 3394 1825 3394 
Q 2250 3394 2515 3294 
Q 2781 3194 2906 3042 
Q 3031 2891 3081 2659 
Q 3109 2516 3109 2141 
L 3109 1391 
Q 3109 606 3145 398 
Q 3181 191 3288 0 
L 2700 0 
Q 2613 175 2588 409 
z
M 2541 1666 
Q 2234 1541 1622 1453 
Q 1275 1403 1131 1340 
Q 988 1278 909 1158 
Q 831 1038 831 891 
Q 831 666 1001 516 
Q 1172 366 1500 366 
Q 1825 366 2078 508 
Q 2331 650 2450 897 
Q 2541 1088 2541 1459 
L 2541 1666 
z
" transform="scale(0.015625)"/>
      <path id="ArialMT-74" d="M 1650 503 
L 1731 6 
Q 1494 -44 1306 -44 
Q 1000 -44 831 53 
Q 663 150 594 308 
Q 525 466 525 972 
L 525 2881 
L 113 2881 
L 113 3319 
L 525 3319 
L 525 4141 
L 1084 4478 
L 1084 3319 
L 1650 3319 
L 1650 2881 
L 1084 2881 
L 1084 941 
Q 1084 700 1114 631 
Q 1144 563 1211 522 
Q 1278 481 1403 481 
Q 1497 481 1650 503 
z
" transform="scale(0.015625)"/>
      <path id="ArialMT-65" d="M 2694 1069 
L 3275 997 
Q 3138 488 2766 206 
Q 2394 -75 1816 -75 
Q 1088 -75 661 373 
Q 234 822 234 1631 
Q 234 2469 665 2931 
Q 1097 3394 1784 3394 
Q 2450 3394 2872 2941 
Q 3294 2488 3294 1666 
Q 3294 1616 3291 1516 
L 816 1516 
Q 847 969 1125 678 
Q 1403 388 1819 388 
Q 2128 388 2347 550 
Q 2566 713 2694 1069 
z
M 847 1978 
L 2700 1978 
Q 2663 2397 2488 2606 
Q 2219 2931 1791 2931 
Q 1403 2931 1139 2672 
Q 875 2413 847 1978 
z
" transform="scale(0.015625)"/>
      <path id="ArialMT-20" transform="scale(0.015625)"/>
      <path id="ArialMT-62" d="M 941 0 
L 419 0 
L 419 4581 
L 981 4581 
L 981 2947 
Q 1338 3394 1891 3394 
Q 2197 3394 2470 3270 
Q 2744 3147 2920 2923 
Q 3097 2700 3197 2384 
Q 3297 2069 3297 1709 
Q 3297 856 2875 390 
Q 2453 -75 1863 -75 
Q 1275 -75 941 416 
L 941 0 
z
M 934 1684 
Q 934 1088 1097 822 
Q 1363 388 1816 388 
Q 2184 388 2453 708 
Q 2722 1028 2722 1663 
Q 2722 2313 2464 2622 
Q 2206 2931 1841 2931 
Q 1472 2931 1203 2611 
Q 934 2291 934 1684 
z
" transform="scale(0.015625)"/>
      <path id="ArialMT-73" d="M 197 991 
L 753 1078 
Q 800 744 1014 566 
Q 1228 388 1613 388 
Q 2000 388 2187 545 
Q 2375 703 2375 916 
Q 2375 1106 2209 1216 
Q 2094 1291 1634 1406 
Q 1016 1563 777 1677 
Q 538 1791 414 1992 
Q 291 2194 291 2438 
Q 291 2659 392 2848 
Q 494 3038 669 3163 
Q 800 3259 1026 3326 
Q 1253 3394 1513 3394 
Q 1903 3394 2198 3281 
Q 2494 3169 2634 2976 
Q 2775 2784 2828 2463 
L 2278 2388 
Q 2241 2644 2061 2787 
Q 1881 2931 1553 2931 
Q 1166 2931 1000 2803 
Q 834 2675 834 2503 
Q 834 2394 903 2306 
Q 972 2216 1119 2156 
Q 1203 2125 1616 2013 
Q 2213 1853 2448 1751 
Q 2684 1650 2818 1456 
Q 2953 1263 2953 975 
Q 2953 694 2789 445 
Q 2625 197 2315 61 
Q 2006 -75 1616 -75 
Q 969 -75 630 194 
Q 291 463 197 991 
z
" transform="scale(0.015625)"/>
      <path id="ArialMT-6c" d="M 409 0 
L 409 4581 
L 972 4581 
L 972 0 
L 409 0 
z
" transform="scale(0.015625)"/>
      <path id="ArialMT-6f" d="M 213 1659 
Q 213 2581 725 3025 
Q 1153 3394 1769 3394 
Q 2453 3394 2887 2945 
Q 3322 2497 3322 1706 
Q 3322 1066 3130 698 
Q 2938 331 2570 128 
Q 2203 -75 1769 -75 
Q 1072 -75 642 372 
Q 213 819 213 1659 
z
M 791 1659 
Q 791 1022 1069 705 
Q 1347 388 1769 388 
Q 2188 388 2466 706 
Q 2744 1025 2744 1678 
Q 2744 2294 2464 2611 
Q 2184 2928 1769 2928 
Q 1347 2928 1069 2612 
Q 791 2297 791 1659 
z
" transform="scale(0.015625)"/>
      <path id="ArialMT-77" d="M 1034 0 
L 19 3319 
L 600 3319 
L 1128 1403 
L 1325 691 
Q 1338 744 1497 1375 
L 2025 3319 
L 2603 3319 
L 3100 1394 
L 3266 759 
L 3456 1400 
L 4025 3319 
L 4572 3319 
L 3534 0 
L 2950 0 
L 2422 1988 
L 2294 2553 
L 1622 0 
L 1034 0 
z
" transform="scale(0.015625)"/>
      <path id="ArialMT-29" d="M 791 -1347 
L 388 -1347 
Q 1322 153 1322 1656 
Q 1322 2244 1188 2822 
Q 1081 3291 891 3722 
Q 769 4003 388 4659 
L 791 4659 
Q 1378 3875 1659 3084 
Q 1900 2403 1900 1659 
Q 1900 816 1576 28 
Q 1253 -759 791 -1347 
z
" transform="scale(0.015625)"/>
     </defs>
     <use xlink:href="#ArialMT-28"/>
     <use xlink:href="#ArialMT-41" transform="translate(33.300781 0)"/>
     <use xlink:href="#ArialMT-63" transform="translate(100 0)"/>
     <use xlink:href="#ArialMT-63" transform="translate(150 0)"/>
     <use xlink:href="#ArialMT-75" transform="translate(200 0)"/>
     <use xlink:href="#ArialMT-72" transform="translate(255.615234 0)"/>
     <use xlink:href="#ArialMT-61" transform="translate(288.916016 0)"/>
     <use xlink:href="#ArialMT-74" transform="translate(344.53125 0)"/>
     <use xlink:href="#ArialMT-65" transform="translate(372.314453 0)"/>
     <use xlink:href="#ArialMT-20" transform="translate(427.929688 0)"/>
     <use xlink:href="#ArialMT-62" transform="translate(455.712891 0)"/>
     <use xlink:href="#ArialMT-75" transform="translate(511.328125 0)"/>
     <use xlink:href="#ArialMT-74" transform="translate(566.943359 0)"/>
     <use xlink:href="#ArialMT-20" transform="translate(594.726562 0)"/>
     <use xlink:href="#ArialMT-73" transform="translate(622.509766 0)"/>
     <use xlink:href="#ArialMT-6c" transform="translate(672.509766 0)"/>
     <use xlink:href="#ArialMT-6f" transform="translate(694.726562 0)"/>
     <use xlink:href="#ArialMT-77" transform="translate(750.341797 0)"/>
     <use xlink:href="#ArialMT-65" transform="translate(822.558594 0)"/>
     <use xlink:href="#ArialMT-72" transform="translate(878.173828 0)"/>
     <use xlink:href="#ArialMT-29" transform="translate(911.474609 0)"/>
    </g>
   </g>
   <g id="text_3">
    <!-- Image -->
    <g style="fill: #ffffff" transform="translate(239.35 156.240937) scale(0.1 -0.1)">
     <defs>
      <path id="Arial-BoldMT-49" d="M 438 0 
L 438 4581 
L 1363 4581 
L 1363 0 
L 438 0 
z
" transform="scale(0.015625)"/>
      <path id="Arial-BoldMT-6d" d="M 394 3319 
L 1203 3319 
L 1203 2866 
Q 1638 3394 2238 3394 
Q 2556 3394 2790 3262 
Q 3025 3131 3175 2866 
Q 3394 3131 3647 3262 
Q 3900 3394 4188 3394 
Q 4553 3394 4806 3245 
Q 5059 3097 5184 2809 
Q 5275 2597 5275 2122 
L 5275 0 
L 4397 0 
L 4397 1897 
Q 4397 2391 4306 2534 
Q 4184 2722 3931 2722 
Q 3747 2722 3584 2609 
Q 3422 2497 3350 2280 
Q 3278 2063 3278 1594 
L 3278 0 
L 2400 0 
L 2400 1819 
Q 2400 2303 2353 2443 
Q 2306 2584 2207 2653 
Q 2109 2722 1941 2722 
Q 1738 2722 1575 2612 
Q 1413 2503 1342 2297 
Q 1272 2091 1272 1613 
L 1272 0 
L 394 0 
L 394 3319 
z
" transform="scale(0.015625)"/>
     </defs>
     <use xlink:href="#Arial-BoldMT-49"/>
     <use xlink:href="#Arial-BoldMT-6d" transform="translate(27.783203 0)"/>
     <use xlink:href="#Arial-BoldMT-61" transform="translate(116.699219 0)"/>
     <use xlink:href="#Arial-BoldMT-67" transform="translate(172.314453 0)"/>
     <use xlink:href="#Arial-BoldMT-65" transform="translate(233.398438 0)"/>
    </g>
   </g>
   <g id="text_4">
    <!-- Region Proposal -->
    <g style="fill: #ffffff" transform="translate(214.075781 240.384781) scale(0.1 -0.1)">
     <defs>
      <path id="Arial-BoldMT-52" d="M 469 0 
L 469 4581 
L 2416 4581 
Q 3150 4581 3483 4457 
Q 3816 4334 4016 4018 
Q 4216 3703 4216 3297 
Q 4216 2781 3912 2445 
Q 3609 2109 3006 2022 
Q 3306 1847 3501 1637 
Q 3697 1428 4028 894 
L 4588 0 
L 3481 0 
L 2813 997 
Q 2456 1531 2325 1670 
Q 2194 1809 2047 1861 
Q 1900 1913 1581 1913 
L 1394 1913 
L 1394 0 
L 469 0 
z
M 1394 2644 
L 2078 2644 
Q 2744 2644 2909 2700 
Q 3075 2756 3169 2893 
Q 3263 3031 3263 3238 
Q 3263 3469 3139 3611 
Q 3016 3753 2791 3791 
Q 2678 3806 2116 3806 
L 1394 3806 
L 1394 2644 
z
" transform="scale(0.015625)"/>
      <path id="Arial-BoldMT-69" d="M 459 3769 
L 459 4581 
L 1338 4581 
L 1338 3769 
L 459 3769 
z
M 459 0 
L 459 3319 
L 1338 3319 
L 1338 0 
L 459 0 
z
" transform="scale(0.015625)"/>
      <path id="Arial-BoldMT-6e" d="M 3478 0 
L 2600 0 
L 2600 1694 
Q 2600 2231 2544 2389 
Q 2488 2547 2361 2634 
Q 2234 2722 2056 2722 
Q 1828 2722 1647 2597 
Q 1466 2472 1398 2265 
Q 1331 2059 1331 1503 
L 1331 0 
L 453 0 
L 453 3319 
L 1269 3319 
L 1269 2831 
Q 1703 3394 2363 3394 
Q 2653 3394 2893 3289 
Q 3134 3184 3257 3021 
Q 3381 2859 3429 2653 
Q 3478 2447 3478 2063 
L 3478 0 
z
" transform="scale(0.015625)"/>
      <path id="Arial-BoldMT-50" d="M 466 0 
L 466 4581 
L 1950 4581 
Q 2794 4581 3050 4513 
Q 3444 4409 3709 4064 
Q 3975 3719 3975 3172 
Q 3975 2750 3822 2462 
Q 3669 2175 3433 2011 
Q 3197 1847 2953 1794 
Q 2622 1728 1994 1728 
L 1391 1728 
L 1391 0 
L 466 0 
z
M 1391 3806 
L 1391 2506 
L 1897 2506 
Q 2444 2506 2628 2578 
Q 2813 2650 2917 2803 
Q 3022 2956 3022 3159 
Q 3022 3409 2875 3571 
Q 2728 3734 2503 3775 
Q 2338 3806 1838 3806 
L 1391 3806 
z
" transform="scale(0.015625)"/>
      <path id="Arial-BoldMT-70" d="M 434 3319 
L 1253 3319 
L 1253 2831 
Q 1413 3081 1684 3237 
Q 1956 3394 2288 3394 
Q 2866 3394 3269 2941 
Q 3672 2488 3672 1678 
Q 3672 847 3265 386 
Q 2859 -75 2281 -75 
Q 2006 -75 1782 34 
Q 1559 144 1313 409 
L 1313 -1263 
L 434 -1263 
L 434 3319 
z
M 1303 1716 
Q 1303 1156 1525 889 
Q 1747 622 2066 622 
Q 2372 622 2575 867 
Q 2778 1113 2778 1672 
Q 2778 2194 2568 2447 
Q 2359 2700 2050 2700 
Q 1728 2700 1515 2451 
Q 1303 2203 1303 1716 
z
" transform="scale(0.015625)"/>
      <path id="Arial-BoldMT-6c" d="M 459 0 
L 459 4581 
L 1338 4581 
L 1338 0 
L 459 0 
z
" transform="scale(0.015625)"/>
     </defs>
     <use xlink:href="#Arial-BoldMT-52"/>
     <use xlink:href="#Arial-BoldMT-65" transform="translate(72.216797 0)"/>
     <use xlink:href="#Arial-BoldMT-67" transform="translate(127.832031 0)"/>
     <use xlink:href="#Arial-BoldMT-69" transform="translate(188.916016 0)"/>
     <use xlink:href="#Arial-BoldMT-6f" transform="translate(216.699219 0)"/>
     <use xlink:href="#Arial-BoldMT-6e" transform="translate(277.783203 0)"/>
     <use xlink:href="#Arial-BoldMT-20" transform="translate(338.867188 0)"/>
     <use xlink:href="#Arial-BoldMT-50" transform="translate(366.650391 0)"/>
     <use xlink:href="#Arial-BoldMT-72" transform="translate(433.349609 0)"/>
     <use xlink:href="#Arial-BoldMT-6f" transform="translate(472.265625 0)"/>
     <use xlink:href="#Arial-BoldMT-70" transform="translate(533.349609 0)"/>
     <use xlink:href="#Arial-BoldMT-6f" transform="translate(594.433594 0)"/>
     <use xlink:href="#Arial-BoldMT-73" transform="translate(655.517578 0)"/>
     <use xlink:href="#Arial-BoldMT-61" transform="translate(711.132812 0)"/>
     <use xlink:href="#Arial-BoldMT-6c" transform="translate(766.748047 0)"/>
    </g>
    <!-- Network (RPN) -->
    <g style="fill: #ffffff" transform="translate(218.798437 251.225094) scale(0.1 -0.1)">
     <defs>
      <path id="Arial-BoldMT-4e" d="M 475 0 
L 475 4581 
L 1375 4581 
L 3250 1522 
L 3250 4581 
L 4109 4581 
L 4109 0 
L 3181 0 
L 1334 2988 
L 1334 0 
L 475 0 
z
" transform="scale(0.015625)"/>
      <path id="Arial-BoldMT-6b" d="M 428 0 
L 428 4581 
L 1306 4581 
L 1306 2150 
L 2334 3319 
L 3416 3319 
L 2281 2106 
L 3497 0 
L 2550 0 
L 1716 1491 
L 1306 1063 
L 1306 0 
L 428 0 
z
" transform="scale(0.015625)"/>
      <path id="Arial-BoldMT-28" d="M 1916 -1347 
L 1313 -1347 
Q 834 -625 584 153 
Q 334 931 334 1659 
Q 334 2563 644 3369 
Q 913 4069 1325 4659 
L 1925 4659 
Q 1497 3713 1336 3048 
Q 1175 2384 1175 1641 
Q 1175 1128 1270 590 
Q 1366 53 1531 -431 
Q 1641 -750 1916 -1347 
z
" transform="scale(0.015625)"/>
      <path id="Arial-BoldMT-29" d="M 216 -1347 
Q 475 -791 581 -494 
Q 688 -197 778 190 
Q 869 578 912 926 
Q 956 1275 956 1641 
Q 956 2384 797 3048 
Q 638 3713 209 4659 
L 806 4659 
Q 1278 3988 1539 3234 
Q 1800 2481 1800 1706 
Q 1800 1053 1594 306 
Q 1359 -531 822 -1347 
L 216 -1347 
z
" transform="scale(0.015625)"/>
     </defs>
     <use xlink:href="#Arial-BoldMT-4e"/>
     <use xlink:href="#Arial-BoldMT-65" transform="translate(72.216797 0)"/>
     <use xlink:href="#Arial-BoldMT-74" transform="translate(127.832031 0)"/>
     <use xlink:href="#Arial-BoldMT-77" transform="translate(161.132812 0)"/>
     <use xlink:href="#Arial-BoldMT-6f" transform="translate(238.916016 0)"/>
     <use xlink:href="#Arial-BoldMT-72" transform="translate(300 0)"/>
     <use xlink:href="#Arial-BoldMT-6b" transform="translate(338.916016 0)"/>
     <use xlink:href="#Arial-BoldMT-20" transform="translate(394.53125 0)"/>
     <use xlink:href="#Arial-BoldMT-28" transform="translate(422.314453 0)"/>
     <use xlink:href="#Arial-BoldMT-52" transform="translate(455.615234 0)"/>
     <use xlink:href="#Arial-BoldMT-50" transform="translate(527.832031 0)"/>
     <use xlink:href="#Arial-BoldMT-4e" transform="translate(594.53125 0)"/>
     <use xlink:href="#Arial-BoldMT-29" transform="translate(666.748047 0)"/>
    </g>
   </g>
   <g id="text_5">
    <!-- ROI Pooling -->
    <g style="fill: #ffffff" transform="translate(225.192969 335.429875) scale(0.1 -0.1)">
     <defs>
      <path id="Arial-BoldMT-4f" d="M 278 2263 
Q 278 2963 488 3438 
Q 644 3788 914 4066 
Q 1184 4344 1506 4478 
Q 1934 4659 2494 4659 
Q 3506 4659 4114 4031 
Q 4722 3403 4722 2284 
Q 4722 1175 4119 548 
Q 3516 -78 2506 -78 
Q 1484 -78 881 545 
Q 278 1169 278 2263 
z
M 1231 2294 
Q 1231 1516 1590 1114 
Q 1950 713 2503 713 
Q 3056 713 3411 1111 
Q 3766 1509 3766 2306 
Q 3766 3094 3420 3481 
Q 3075 3869 2503 3869 
Q 1931 3869 1581 3476 
Q 1231 3084 1231 2294 
z
" transform="scale(0.015625)"/>
     </defs>
     <use xlink:href="#Arial-BoldMT-52"/>
     <use xlink:href="#Arial-BoldMT-4f" transform="translate(72.216797 0)"/>
     <use xlink:href="#Arial-BoldMT-49" transform="translate(150 0)"/>
     <use xlink:href="#Arial-BoldMT-20" transform="translate(177.783203 0)"/>
     <use xlink:href="#Arial-BoldMT-50" transform="translate(205.566406 0)"/>
     <use xlink:href="#Arial-BoldMT-6f" transform="translate(272.265625 0)"/>
     <use xlink:href="#Arial-BoldMT-6f" transform="translate(333.349609 0)"/>
     <use xlink:href="#Arial-BoldMT-6c" transform="translate(394.433594 0)"/>
     <use xlink:href="#Arial-BoldMT-69" transform="translate(422.216797 0)"/>
     <use xlink:href="#Arial-BoldMT-6e" transform="translate(450 0)"/>
     <use xlink:href="#Arial-BoldMT-67" transform="translate(511.083984 0)"/>
    </g>
   </g>
   <g id="text_6">
    <!-- Classification -->
    <g style="fill: #ffffff" transform="translate(221.292969 419.717156) scale(0.1 -0.1)">
     <defs>
      <path id="Arial-BoldMT-43" d="M 3397 1684 
L 4294 1400 
Q 4088 650 3608 286 
Q 3128 -78 2391 -78 
Q 1478 -78 890 545 
Q 303 1169 303 2250 
Q 303 3394 893 4026 
Q 1484 4659 2447 4659 
Q 3288 4659 3813 4163 
Q 4125 3869 4281 3319 
L 3366 3100 
Q 3284 3456 3026 3662 
Q 2769 3869 2400 3869 
Q 1891 3869 1573 3503 
Q 1256 3138 1256 2319 
Q 1256 1450 1568 1081 
Q 1881 713 2381 713 
Q 2750 713 3015 947 
Q 3281 1181 3397 1684 
z
" transform="scale(0.015625)"/>
      <path id="Arial-BoldMT-66" d="M 75 3319 
L 563 3319 
L 563 3569 
Q 563 3988 652 4194 
Q 741 4400 980 4529 
Q 1219 4659 1584 4659 
Q 1959 4659 2319 4547 
L 2200 3934 
Q 1991 3984 1797 3984 
Q 1606 3984 1523 3895 
Q 1441 3806 1441 3553 
L 1441 3319 
L 2097 3319 
L 2097 2628 
L 1441 2628 
L 1441 0 
L 563 0 
L 563 2628 
L 75 2628 
L 75 3319 
z
" transform="scale(0.015625)"/>
     </defs>
     <use xlink:href="#Arial-BoldMT-43"/>
     <use xlink:href="#Arial-BoldMT-6c" transform="translate(72.216797 0)"/>
     <use xlink:href="#Arial-BoldMT-61" transform="translate(100 0)"/>
     <use xlink:href="#Arial-BoldMT-73" transform="translate(155.615234 0)"/>
     <use xlink:href="#Arial-BoldMT-73" transform="translate(211.230469 0)"/>
     <use xlink:href="#Arial-BoldMT-69" transform="translate(266.845703 0)"/>
     <use xlink:href="#Arial-BoldMT-66" transform="translate(294.628906 0)"/>
     <use xlink:href="#Arial-BoldMT-69" transform="translate(327.929688 0)"/>
     <use xlink:href="#Arial-BoldMT-63" transform="translate(355.712891 0)"/>
     <use xlink:href="#Arial-BoldMT-61" transform="translate(411.328125 0)"/>
     <use xlink:href="#Arial-BoldMT-74" transform="translate(466.943359 0)"/>
     <use xlink:href="#Arial-BoldMT-69" transform="translate(500.244141 0)"/>
     <use xlink:href="#Arial-BoldMT-6f" transform="translate(528.027344 0)"/>
     <use xlink:href="#Arial-BoldMT-6e" transform="translate(589.111328 0)"/>
    </g>
    <!-- + Refinement -->
    <g style="fill: #ffffff" transform="translate(222.265625 430.279969) scale(0.1 -0.1)">
     <defs>
      <path id="Arial-BoldMT-2b" d="M 1466 659 
L 1466 1850 
L 266 1850 
L 266 2672 
L 1466 2672 
L 1466 3863 
L 2266 3863 
L 2266 2672 
L 3469 2672 
L 3469 1850 
L 2266 1850 
L 2266 659 
L 1466 659 
z
" transform="scale(0.015625)"/>
     </defs>
     <use xlink:href="#Arial-BoldMT-2b"/>
     <use xlink:href="#Arial-BoldMT-20" transform="translate(58.398438 0)"/>
     <use xlink:href="#Arial-BoldMT-52" transform="translate(86.181641 0)"/>
     <use xlink:href="#Arial-BoldMT-65" transform="translate(158.398438 0)"/>
     <use xlink:href="#Arial-BoldMT-66" transform="translate(214.013672 0)"/>
     <use xlink:href="#Arial-BoldMT-69" transform="translate(247.314453 0)"/>
     <use xlink:href="#Arial-BoldMT-6e" transform="translate(275.097656 0)"/>
     <use xlink:href="#Arial-BoldMT-65" transform="translate(336.181641 0)"/>
     <use xlink:href="#Arial-BoldMT-6d" transform="translate(391.796875 0)"/>
     <use xlink:href="#Arial-BoldMT-65" transform="translate(480.712891 0)"/>
     <use xlink:href="#Arial-BoldMT-6e" transform="translate(536.328125 0)"/>
     <use xlink:href="#Arial-BoldMT-74" transform="translate(597.412109 0)"/>
    </g>
   </g>
   <g id="patch_9">
    <path d="M 253.8 182.582147 
Q 253.8 198.494311 253.8 212.170408 
" style="fill: none; stroke: #000000; stroke-width: 2; stroke-linecap: round"/>
    <path d="M 255.8 208.170408 
L 253.8 212.170408 
L 251.8 208.170408 
" style="fill: none; stroke: #000000; stroke-width: 2; stroke-linecap: round"/>
   </g>
   <g id="patch_10">
    <path d="M 253.8 272.146147 
Q 253.8 288.058311 253.8 301.734408 
" style="fill: none; stroke: #000000; stroke-width: 2; stroke-linecap: round"/>
    <path d="M 255.8 297.734408 
L 253.8 301.734408 
L 251.8 297.734408 
" style="fill: none; stroke: #000000; stroke-width: 2; stroke-linecap: round"/>
   </g>
   <g id="patch_11">
    <path d="M 253.8 361.710147 
Q 253.8 377.622311 253.8 391.298408 
" style="fill: none; stroke: #000000; stroke-width: 2; stroke-linecap: round"/>
    <path d="M 255.8 387.298408 
L 253.8 391.298408 
L 251.8 387.298408 
" style="fill: none; stroke: #000000; stroke-width: 2; stroke-linecap: round"/>
   </g>
   <g id="text_7">
    <!-- One-Stage Detectors -->
    <g style="fill: #06a77d" transform="translate(667.8725 64.150375) scale(0.16 -0.16)">
     <use xlink:href="#Arial-BoldMT-4f"/>
     <use xlink:href="#Arial-BoldMT-6e" transform="translate(77.783203 0)"/>
     <use xlink:href="#Arial-BoldMT-65" transform="translate(138.867188 0)"/>
     <use xlink:href="#Arial-BoldMT-2d" transform="translate(194.482422 0)"/>
     <use xlink:href="#Arial-BoldMT-53" transform="translate(227.783203 0)"/>
     <use xlink:href="#Arial-BoldMT-74" transform="translate(294.482422 0)"/>
     <use xlink:href="#Arial-BoldMT-61" transform="translate(327.783203 0)"/>
     <use xlink:href="#Arial-BoldMT-67" transform="translate(383.398438 0)"/>
     <use xlink:href="#Arial-BoldMT-65" transform="translate(444.482422 0)"/>
     <use xlink:href="#Arial-BoldMT-20" transform="translate(500.097656 0)"/>
     <use xlink:href="#Arial-BoldMT-44" transform="translate(527.880859 0)"/>
     <use xlink:href="#Arial-BoldMT-65" transform="translate(600.097656 0)"/>
     <use xlink:href="#Arial-BoldMT-74" transform="translate(655.712891 0)"/>
     <use xlink:href="#Arial-BoldMT-65" transform="translate(689.013672 0)"/>
     <use xlink:href="#Arial-BoldMT-63" transform="translate(744.628906 0)"/>
     <use xlink:href="#Arial-BoldMT-74" transform="translate(800.244141 0)"/>
     <use xlink:href="#Arial-BoldMT-6f" transform="translate(833.544922 0)"/>
     <use xlink:href="#Arial-BoldMT-72" transform="translate(894.628906 0)"/>
     <use xlink:href="#Arial-BoldMT-73" transform="translate(933.544922 0)"/>
    </g>
   </g>
   <g id="text_8">
    <!-- (Fast, good enough) -->
    <g style="fill: #808080" transform="translate(697.4725 95.497775) scale(0.11 -0.11)">
     <defs>
      <path id="ArialMT-46" d="M 525 0 
L 525 4581 
L 3616 4581 
L 3616 4041 
L 1131 4041 
L 1131 2622 
L 3281 2622 
L 3281 2081 
L 1131 2081 
L 1131 0 
L 525 0 
z
" transform="scale(0.015625)"/>
      <path id="ArialMT-2c" d="M 569 0 
L 569 641 
L 1209 641 
L 1209 0 
Q 1209 -353 1084 -570 
Q 959 -788 688 -906 
L 531 -666 
Q 709 -588 793 -436 
Q 878 -284 888 0 
L 569 0 
z
" transform="scale(0.015625)"/>
      <path id="ArialMT-67" d="M 319 -275 
L 866 -356 
Q 900 -609 1056 -725 
Q 1266 -881 1628 -881 
Q 2019 -881 2231 -725 
Q 2444 -569 2519 -288 
Q 2563 -116 2559 434 
Q 2191 0 1641 0 
Q 956 0 581 494 
Q 206 988 206 1678 
Q 206 2153 378 2554 
Q 550 2956 876 3175 
Q 1203 3394 1644 3394 
Q 2231 3394 2613 2919 
L 2613 3319 
L 3131 3319 
L 3131 450 
Q 3131 -325 2973 -648 
Q 2816 -972 2473 -1159 
Q 2131 -1347 1631 -1347 
Q 1038 -1347 672 -1080 
Q 306 -813 319 -275 
z
M 784 1719 
Q 784 1066 1043 766 
Q 1303 466 1694 466 
Q 2081 466 2343 764 
Q 2606 1063 2606 1700 
Q 2606 2309 2336 2618 
Q 2066 2928 1684 2928 
Q 1309 2928 1046 2623 
Q 784 2319 784 1719 
z
" transform="scale(0.015625)"/>
      <path id="ArialMT-64" d="M 2575 0 
L 2575 419 
Q 2259 -75 1647 -75 
Q 1250 -75 917 144 
Q 584 363 401 755 
Q 219 1147 219 1656 
Q 219 2153 384 2558 
Q 550 2963 881 3178 
Q 1213 3394 1622 3394 
Q 1922 3394 2156 3267 
Q 2391 3141 2538 2938 
L 2538 4581 
L 3097 4581 
L 3097 0 
L 2575 0 
z
M 797 1656 
Q 797 1019 1065 703 
Q 1334 388 1700 388 
Q 2069 388 2326 689 
Q 2584 991 2584 1609 
Q 2584 2291 2321 2609 
Q 2059 2928 1675 2928 
Q 1300 2928 1048 2622 
Q 797 2316 797 1656 
z
" transform="scale(0.015625)"/>
      <path id="ArialMT-6e" d="M 422 0 
L 422 3319 
L 928 3319 
L 928 2847 
Q 1294 3394 1984 3394 
Q 2284 3394 2536 3286 
Q 2788 3178 2913 3003 
Q 3038 2828 3088 2588 
Q 3119 2431 3119 2041 
L 3119 0 
L 2556 0 
L 2556 2019 
Q 2556 2363 2490 2533 
Q 2425 2703 2258 2804 
Q 2091 2906 1866 2906 
Q 1506 2906 1245 2678 
Q 984 2450 984 1813 
L 984 0 
L 422 0 
z
" transform="scale(0.015625)"/>
      <path id="ArialMT-68" d="M 422 0 
L 422 4581 
L 984 4581 
L 984 2938 
Q 1378 3394 1978 3394 
Q 2347 3394 2619 3248 
Q 2891 3103 3008 2847 
Q 3125 2591 3125 2103 
L 3125 0 
L 2563 0 
L 2563 2103 
Q 2563 2525 2380 2717 
Q 2197 2909 1863 2909 
Q 1613 2909 1392 2779 
Q 1172 2650 1078 2428 
Q 984 2206 984 1816 
L 984 0 
L 422 0 
z
" transform="scale(0.015625)"/>
     </defs>
     <use xlink:href="#ArialMT-28"/>
     <use xlink:href="#ArialMT-46" transform="translate(33.300781 0)"/>
     <use xlink:href="#ArialMT-61" transform="translate(94.384766 0)"/>
     <use xlink:href="#ArialMT-73" transform="translate(150 0)"/>
     <use xlink:href="#ArialMT-74" transform="translate(200 0)"/>
     <use xlink:href="#ArialMT-2c" transform="translate(227.783203 0)"/>
     <use xlink:href="#ArialMT-20" transform="translate(255.566406 0)"/>
     <use xlink:href="#ArialMT-67" transform="translate(283.349609 0)"/>
     <use xlink:href="#ArialMT-6f" transform="translate(338.964844 0)"/>
     <use xlink:href="#ArialMT-6f" transform="translate(394.580078 0)"/>
     <use xlink:href="#ArialMT-64" transform="translate(450.195312 0)"/>
     <use xlink:href="#ArialMT-20" transform="translate(505.810547 0)"/>
     <use xlink:href="#ArialMT-65" transform="translate(533.59375 0)"/>
     <use xlink:href="#ArialMT-6e" transform="translate(589.208984 0)"/>
     <use xlink:href="#ArialMT-6f" transform="translate(644.824219 0)"/>
     <use xlink:href="#ArialMT-75" transform="translate(700.439453 0)"/>
     <use xlink:href="#ArialMT-67" transform="translate(756.054688 0)"/>
     <use xlink:href="#ArialMT-68" transform="translate(811.669922 0)"/>
     <use xlink:href="#ArialMT-29" transform="translate(867.285156 0)"/>
    </g>
   </g>
   <g id="text_9">
    <!-- Image -->
    <g style="fill: #ffffff" transform="translate(732.55 178.631937) scale(0.1 -0.1)">
     <use xlink:href="#Arial-BoldMT-49"/>
     <use xlink:href="#Arial-BoldMT-6d" transform="translate(27.783203 0)"/>
     <use xlink:href="#Arial-BoldMT-61" transform="translate(116.699219 0)"/>
     <use xlink:href="#Arial-BoldMT-67" transform="translate(172.314453 0)"/>
     <use xlink:href="#Arial-BoldMT-65" transform="translate(233.398438 0)"/>
    </g>
   </g>
   <g id="text_10">
    <!-- Backbone + -->
    <g style="fill: #ffffff" transform="translate(718.796094 285.371156) scale(0.1 -0.1)">
     <defs>
      <path id="Arial-BoldMT-42" d="M 469 4581 
L 2300 4581 
Q 2844 4581 3111 4536 
Q 3378 4491 3589 4347 
Q 3800 4203 3940 3964 
Q 4081 3725 4081 3428 
Q 4081 3106 3907 2837 
Q 3734 2569 3438 2434 
Q 3856 2313 4081 2019 
Q 4306 1725 4306 1328 
Q 4306 1016 4161 720 
Q 4016 425 3764 248 
Q 3513 72 3144 31 
Q 2913 6 2028 0 
L 469 0 
L 469 4581 
z
M 1394 3819 
L 1394 2759 
L 2000 2759 
Q 2541 2759 2672 2775 
Q 2909 2803 3045 2939 
Q 3181 3075 3181 3297 
Q 3181 3509 3064 3642 
Q 2947 3775 2716 3803 
Q 2578 3819 1925 3819 
L 1394 3819 
z
M 1394 1997 
L 1394 772 
L 2250 772 
Q 2750 772 2884 800 
Q 3091 838 3220 983 
Q 3350 1128 3350 1372 
Q 3350 1578 3250 1722 
Q 3150 1866 2961 1931 
Q 2772 1997 2141 1997 
L 1394 1997 
z
" transform="scale(0.015625)"/>
      <path id="Arial-BoldMT-62" d="M 422 0 
L 422 4581 
L 1300 4581 
L 1300 2931 
Q 1706 3394 2263 3394 
Q 2869 3394 3266 2955 
Q 3663 2516 3663 1694 
Q 3663 844 3258 384 
Q 2853 -75 2275 -75 
Q 1991 -75 1714 67 
Q 1438 209 1238 488 
L 1238 0 
L 422 0 
z
M 1294 1731 
Q 1294 1216 1456 969 
Q 1684 619 2063 619 
Q 2353 619 2558 867 
Q 2763 1116 2763 1650 
Q 2763 2219 2556 2470 
Q 2350 2722 2028 2722 
Q 1713 2722 1503 2476 
Q 1294 2231 1294 1731 
z
" transform="scale(0.015625)"/>
     </defs>
     <use xlink:href="#Arial-BoldMT-42"/>
     <use xlink:href="#Arial-BoldMT-61" transform="translate(72.216797 0)"/>
     <use xlink:href="#Arial-BoldMT-63" transform="translate(127.832031 0)"/>
     <use xlink:href="#Arial-BoldMT-6b" transform="translate(183.447266 0)"/>
     <use xlink:href="#Arial-BoldMT-62" transform="translate(239.0625 0)"/>
     <use xlink:href="#Arial-BoldMT-6f" transform="translate(300.146484 0)"/>
     <use xlink:href="#Arial-BoldMT-6e" transform="translate(361.230469 0)"/>
     <use xlink:href="#Arial-BoldMT-65" transform="translate(422.314453 0)"/>
     <use xlink:href="#Arial-BoldMT-20" transform="translate(477.929688 0)"/>
     <use xlink:href="#Arial-BoldMT-2b" transform="translate(505.712891 0)"/>
    </g>
    <!-- Detection Head -->
    <g style="fill: #ffffff" transform="translate(710.60625 295.933969) scale(0.1 -0.1)">
     <defs>
      <path id="Arial-BoldMT-48" d="M 469 0 
L 469 4581 
L 1394 4581 
L 1394 2778 
L 3206 2778 
L 3206 4581 
L 4131 4581 
L 4131 0 
L 3206 0 
L 3206 2003 
L 1394 2003 
L 1394 0 
L 469 0 
z
" transform="scale(0.015625)"/>
      <path id="Arial-BoldMT-64" d="M 3503 0 
L 2688 0 
L 2688 488 
Q 2484 203 2207 64 
Q 1931 -75 1650 -75 
Q 1078 -75 670 386 
Q 263 847 263 1672 
Q 263 2516 659 2955 
Q 1056 3394 1663 3394 
Q 2219 3394 2625 2931 
L 2625 4581 
L 3503 4581 
L 3503 0 
z
M 1159 1731 
Q 1159 1200 1306 963 
Q 1519 619 1900 619 
Q 2203 619 2415 876 
Q 2628 1134 2628 1647 
Q 2628 2219 2422 2470 
Q 2216 2722 1894 2722 
Q 1581 2722 1370 2473 
Q 1159 2225 1159 1731 
z
" transform="scale(0.015625)"/>
     </defs>
     <use xlink:href="#Arial-BoldMT-44"/>
     <use xlink:href="#Arial-BoldMT-65" transform="translate(72.216797 0)"/>
     <use xlink:href="#Arial-BoldMT-74" transform="translate(127.832031 0)"/>
     <use xlink:href="#Arial-BoldMT-65" transform="translate(161.132812 0)"/>
     <use xlink:href="#Arial-BoldMT-63" transform="translate(216.748047 0)"/>
     <use xlink:href="#Arial-BoldMT-74" transform="translate(272.363281 0)"/>
     <use xlink:href="#Arial-BoldMT-69" transform="translate(305.664062 0)"/>
     <use xlink:href="#Arial-BoldMT-6f" transform="translate(333.447266 0)"/>
     <use xlink:href="#Arial-BoldMT-6e" transform="translate(394.53125 0)"/>
     <use xlink:href="#Arial-BoldMT-20" transform="translate(455.615234 0)"/>
     <use xlink:href="#Arial-BoldMT-48" transform="translate(483.398438 0)"/>
     <use xlink:href="#Arial-BoldMT-65" transform="translate(555.615234 0)"/>
     <use xlink:href="#Arial-BoldMT-61" transform="translate(611.230469 0)"/>
     <use xlink:href="#Arial-BoldMT-64" transform="translate(666.845703 0)"/>
    </g>
   </g>
   <g id="text_11">
    <!-- All Detections -->
    <g style="fill: #ffffff" transform="translate(713.6625 397.187406) scale(0.1 -0.1)">
     <defs>
      <path id="Arial-BoldMT-41" d="M 4597 0 
L 3591 0 
L 3191 1041 
L 1359 1041 
L 981 0 
L 0 0 
L 1784 4581 
L 2763 4581 
L 4597 0 
z
M 2894 1813 
L 2263 3513 
L 1644 1813 
L 2894 1813 
z
" transform="scale(0.015625)"/>
     </defs>
     <use xlink:href="#Arial-BoldMT-41"/>
     <use xlink:href="#Arial-BoldMT-6c" transform="translate(72.216797 0)"/>
     <use xlink:href="#Arial-BoldMT-6c" transform="translate(100 0)"/>
     <use xlink:href="#Arial-BoldMT-20" transform="translate(127.783203 0)"/>
     <use xlink:href="#Arial-BoldMT-44" transform="translate(155.566406 0)"/>
     <use xlink:href="#Arial-BoldMT-65" transform="translate(227.783203 0)"/>
     <use xlink:href="#Arial-BoldMT-74" transform="translate(283.398438 0)"/>
     <use xlink:href="#Arial-BoldMT-65" transform="translate(316.699219 0)"/>
     <use xlink:href="#Arial-BoldMT-63" transform="translate(372.314453 0)"/>
     <use xlink:href="#Arial-BoldMT-74" transform="translate(427.929688 0)"/>
     <use xlink:href="#Arial-BoldMT-69" transform="translate(461.230469 0)"/>
     <use xlink:href="#Arial-BoldMT-6f" transform="translate(489.013672 0)"/>
     <use xlink:href="#Arial-BoldMT-6e" transform="translate(550.097656 0)"/>
     <use xlink:href="#Arial-BoldMT-73" transform="translate(611.181641 0)"/>
    </g>
    <!-- (one pass!) -->
    <g style="fill: #ffffff" transform="translate(720.332813 407.896469) scale(0.1 -0.1)">
     <defs>
      <path id="Arial-BoldMT-21" d="M 803 1181 
L 575 3506 
L 575 4581 
L 1525 4581 
L 1525 3506 
L 1300 1181 
L 803 1181 
z
M 613 0 
L 613 878 
L 1491 878 
L 1491 0 
L 613 0 
z
" transform="scale(0.015625)"/>
     </defs>
     <use xlink:href="#Arial-BoldMT-28"/>
     <use xlink:href="#Arial-BoldMT-6f" transform="translate(33.300781 0)"/>
     <use xlink:href="#Arial-BoldMT-6e" transform="translate(94.384766 0)"/>
     <use xlink:href="#Arial-BoldMT-65" transform="translate(155.46875 0)"/>
     <use xlink:href="#Arial-BoldMT-20" transform="translate(211.083984 0)"/>
     <use xlink:href="#Arial-BoldMT-70" transform="translate(238.867188 0)"/>
     <use xlink:href="#Arial-BoldMT-61" transform="translate(299.951172 0)"/>
     <use xlink:href="#Arial-BoldMT-73" transform="translate(355.566406 0)"/>
     <use xlink:href="#Arial-BoldMT-73" transform="translate(411.181641 0)"/>
     <use xlink:href="#Arial-BoldMT-21" transform="translate(466.796875 0)"/>
     <use xlink:href="#Arial-BoldMT-29" transform="translate(500.097656 0)"/>
    </g>
   </g>
   <g id="patch_12">
    <path d="M 747 213.933373 
Q 747 232.085863 747 248.002284 
" style="fill: none; stroke: #000000; stroke-width: 2; stroke-linecap: round"/>
    <path d="M 749 244.002284 
L 747 248.002284 
L 745 244.002284 
" style="fill: none; stroke: #000000; stroke-width: 2; stroke-linecap: round"/>
   </g>
   <g id="patch_13">
    <path d="M 747 325.888373 
Q 747 344.040863 747 359.957284 
" style="fill: none; stroke: #000000; stroke-width: 2; stroke-linecap: round"/>
    <path d="M 749 355.957284 
L 747 359.957284 
L 745 355.957284 
" style="fill: none; stroke: #000000; stroke-width: 2; stroke-linecap: round"/>
   </g>
   <g id="text_12">
    <!-- Examples: R-CNN, Faster R-CNN, Mask R-CNN -->
    <g transform="translate(146.295312 470.0461) scale(0.1 -0.1)">
     <defs>
      <path id="Arial-ItalicMT-45" d="M 288 0 
L 1247 4581 
L 4553 4581 
L 4444 4059 
L 1750 4059 
L 1450 2634 
L 4075 2634 
L 3966 2113 
L 1341 2113 
L 1009 519 
L 3894 519 
L 3784 0 
L 288 0 
z
" transform="scale(0.015625)"/>
      <path id="Arial-ItalicMT-78" d="M -9 0 
L 1434 1684 
L 606 3319 
L 1231 3319 
L 1513 2728 
Q 1669 2397 1794 2094 
L 2750 3319 
L 3441 3319 
L 2047 1641 
L 2884 0 
L 2259 0 
L 1928 675 
Q 1822 891 1688 1209 
L 700 0 
L -9 0 
z
" transform="scale(0.015625)"/>
      <path id="Arial-ItalicMT-61" d="M 2450 413 
Q 2156 159 1884 42 
Q 1613 -75 1303 -75 
Q 844 -75 562 195 
Q 281 466 281 888 
Q 281 1166 407 1380 
Q 534 1594 743 1723 
Q 953 1853 1256 1909 
Q 1447 1947 1980 1969 
Q 2513 1991 2744 2081 
Q 2809 2313 2809 2466 
Q 2809 2663 2666 2775 
Q 2469 2931 2091 2931 
Q 1734 2931 1507 2773 
Q 1281 2616 1178 2325 
L 606 2375 
Q 781 2869 1161 3131 
Q 1541 3394 2119 3394 
Q 2734 3394 3094 3100 
Q 3369 2881 3369 2531 
Q 3369 2266 3291 1916 
L 3106 1091 
Q 3019 697 3019 450 
Q 3019 294 3088 0 
L 2516 0 
Q 2469 163 2450 413 
z
M 2659 1681 
Q 2541 1634 2405 1609 
Q 2269 1584 1950 1556 
Q 1456 1513 1253 1445 
Q 1050 1378 947 1231 
Q 844 1084 844 906 
Q 844 669 1008 516 
Q 1172 363 1475 363 
Q 1756 363 2015 511 
Q 2275 659 2425 925 
Q 2575 1191 2659 1681 
z
" transform="scale(0.015625)"/>
      <path id="Arial-ItalicMT-6d" d="M 209 0 
L 903 3319 
L 1469 3319 
L 1353 2772 
Q 1669 3125 1917 3259 
Q 2166 3394 2456 3394 
Q 2766 3394 2973 3230 
Q 3181 3066 3247 2772 
Q 3500 3084 3779 3239 
Q 4059 3394 4369 3394 
Q 4784 3394 4992 3197 
Q 5200 3000 5200 2644 
Q 5200 2491 5128 2138 
L 4681 0 
L 4116 0 
L 4572 2194 
Q 4631 2463 4631 2578 
Q 4631 2741 4528 2834 
Q 4425 2928 4238 2928 
Q 3984 2928 3721 2775 
Q 3459 2622 3314 2373 
Q 3169 2125 3059 1609 
L 2722 0 
L 2156 0 
L 2625 2241 
Q 2675 2469 2675 2566 
Q 2675 2728 2573 2828 
Q 2472 2928 2309 2928 
Q 2069 2928 1805 2775 
Q 1541 2622 1375 2348 
Q 1209 2075 1103 1569 
L 775 0 
L 209 0 
z
" transform="scale(0.015625)"/>
      <path id="Arial-ItalicMT-70" d="M -66 -1272 
L 894 3319 
L 1416 3319 
L 1319 2856 
Q 1609 3159 1839 3276 
Q 2069 3394 2325 3394 
Q 2800 3394 3112 3048 
Q 3425 2703 3425 2059 
Q 3425 1541 3253 1114 
Q 3081 688 2831 428 
Q 2581 169 2325 47 
Q 2069 -75 1800 -75 
Q 1203 -75 875 531 
L 500 -1272 
L -66 -1272 
z
M 1053 1356 
Q 1053 984 1106 841 
Q 1184 638 1362 513 
Q 1541 388 1775 388 
Q 2263 388 2563 936 
Q 2863 1484 2863 2056 
Q 2863 2478 2661 2708 
Q 2459 2938 2159 2938 
Q 1944 2938 1759 2823 
Q 1575 2709 1417 2482 
Q 1259 2256 1156 1928 
Q 1053 1600 1053 1356 
z
" transform="scale(0.015625)"/>
      <path id="Arial-ItalicMT-6c" d="M 169 0 
L 1125 4581 
L 1691 4581 
L 734 0 
L 169 0 
z
" transform="scale(0.015625)"/>
      <path id="Arial-ItalicMT-65" d="M 2650 1128 
L 3200 1072 
Q 3081 663 2654 294 
Q 2228 -75 1638 -75 
Q 1269 -75 961 95 
Q 653 266 492 591 
Q 331 916 331 1331 
Q 331 1875 582 2386 
Q 834 2897 1234 3145 
Q 1634 3394 2100 3394 
Q 2694 3394 3048 3025 
Q 3403 2656 3403 2019 
Q 3403 1775 3359 1519 
L 916 1519 
Q 903 1422 903 1344 
Q 903 878 1117 633 
Q 1331 388 1641 388 
Q 1931 388 2212 578 
Q 2494 769 2650 1128 
z
M 1006 1950 
L 2869 1950 
Q 2872 2038 2872 2075 
Q 2872 2500 2659 2726 
Q 2447 2953 2113 2953 
Q 1750 2953 1451 2703 
Q 1153 2453 1006 1950 
z
" transform="scale(0.015625)"/>
      <path id="Arial-ItalicMT-73" d="M 266 1134 
L 831 1169 
Q 831 925 906 753 
Q 981 581 1182 472 
Q 1384 363 1653 363 
Q 2028 363 2215 513 
Q 2403 663 2403 866 
Q 2403 1013 2291 1144 
Q 2175 1275 1726 1467 
Q 1278 1659 1153 1738 
Q 944 1866 837 2039 
Q 731 2213 731 2438 
Q 731 2831 1043 3112 
Q 1356 3394 1919 3394 
Q 2544 3394 2870 3105 
Q 3197 2816 3209 2344 
L 2656 2306 
Q 2644 2606 2444 2781 
Q 2244 2956 1878 2956 
Q 1584 2956 1421 2822 
Q 1259 2688 1259 2531 
Q 1259 2375 1400 2256 
Q 1494 2175 1884 2006 
Q 2534 1725 2703 1563 
Q 2972 1303 2972 931 
Q 2972 684 2820 446 
Q 2669 209 2358 67 
Q 2047 -75 1625 -75 
Q 1050 -75 647 209 
Q 244 494 266 1134 
z
" transform="scale(0.015625)"/>
      <path id="Arial-ItalicMT-3a" d="M 925 2678 
L 1059 3319 
L 1697 3319 
L 1566 2678 
L 925 2678 
z
M 366 0 
L 500 641 
L 1141 641 
L 1003 0 
L 366 0 
z
" transform="scale(0.015625)"/>
      <path id="Arial-ItalicMT-20" transform="scale(0.015625)"/>
      <path id="Arial-ItalicMT-52" d="M 300 0 
L 1259 4581 
L 3181 4581 
Q 3750 4581 4044 4486 
Q 4338 4391 4505 4128 
Q 4672 3866 4672 3466 
Q 4672 2906 4306 2537 
Q 3941 2169 3125 2059 
Q 3375 1875 3503 1697 
Q 3791 1294 3966 863 
L 4316 0 
L 3631 0 
L 3303 853 
Q 3125 1316 2897 1653 
Q 2741 1888 2578 1961 
Q 2416 2034 2050 2034 
L 1338 2034 
L 913 0 
L 300 0 
z
M 1441 2531 
L 2288 2531 
Q 2875 2531 3053 2547 
Q 3400 2581 3622 2703 
Q 3844 2825 3966 3031 
Q 4088 3238 4088 3475 
Q 4088 3675 3997 3823 
Q 3906 3972 3759 4025 
Q 3613 4078 3259 4078 
L 1766 4078 
L 1441 2531 
z
" transform="scale(0.015625)"/>
      <path id="Arial-ItalicMT-2d" d="M 297 1375 
L 416 1941 
L 2141 1941 
L 2025 1375 
L 297 1375 
z
" transform="scale(0.015625)"/>
      <path id="Arial-ItalicMT-43" d="M 3859 1613 
L 4466 1528 
Q 4178 734 3628 328 
Q 3078 -78 2394 -78 
Q 1559 -78 1070 431 
Q 581 941 581 1891 
Q 581 3128 1325 3938 
Q 1988 4659 2972 4659 
Q 3700 4659 4151 4268 
Q 4603 3878 4675 3219 
L 4103 3166 
Q 4013 3663 3730 3908 
Q 3447 4153 3000 4153 
Q 2159 4153 1641 3406 
Q 1191 2763 1191 1878 
Q 1191 1172 1537 800 
Q 1884 428 2441 428 
Q 2916 428 3300 737 
Q 3684 1047 3859 1613 
z
" transform="scale(0.015625)"/>
      <path id="Arial-ItalicMT-4e" d="M 313 0 
L 1272 4581 
L 1866 4581 
L 2638 2863 
Q 2991 2075 3197 1538 
Q 3316 1225 3472 694 
Q 3556 1272 3684 1888 
L 4247 4581 
L 4844 4581 
L 3888 0 
L 3281 0 
L 2144 2647 
Q 1841 3347 1672 3881 
Q 1625 3434 1491 2784 
L 909 0 
L 313 0 
z
" transform="scale(0.015625)"/>
      <path id="Arial-ItalicMT-2c" d="M 347 0 
L 481 641 
L 1125 641 
L 1009 81 
Q 903 -422 679 -656 
Q 456 -891 153 -925 
L 206 -678 
Q 578 -575 697 0 
L 347 0 
z
" transform="scale(0.015625)"/>
      <path id="Arial-ItalicMT-46" d="M 291 0 
L 1247 4581 
L 4225 4581 
L 4116 4059 
L 1750 4059 
L 1447 2600 
L 3856 2600 
L 3747 2078 
L 1338 2078 
L 903 0 
L 291 0 
z
" transform="scale(0.015625)"/>
      <path id="Arial-ItalicMT-74" d="M 1534 459 
L 1441 -3 
Q 1238 -56 1047 -56 
Q 709 -56 509 109 
Q 359 234 359 450 
Q 359 559 441 953 
L 844 2881 
L 397 2881 
L 488 3319 
L 934 3319 
L 1106 4134 
L 1753 4525 
L 1500 3319 
L 2056 3319 
L 1963 2881 
L 1409 2881 
L 1025 1047 
Q 953 697 953 628 
Q 953 528 1011 475 
Q 1069 422 1200 422 
Q 1388 422 1534 459 
z
" transform="scale(0.015625)"/>
      <path id="Arial-ItalicMT-72" d="M 213 0 
L 906 3319 
L 1406 3319 
L 1266 2641 
Q 1522 3025 1767 3209 
Q 2013 3394 2269 3394 
Q 2438 3394 2684 3272 
L 2453 2747 
Q 2306 2853 2131 2853 
Q 1834 2853 1521 2522 
Q 1209 2191 1031 1331 
L 750 0 
L 213 0 
z
" transform="scale(0.015625)"/>
      <path id="Arial-ItalicMT-4d" d="M 281 0 
L 1238 4581 
L 1991 4581 
L 2453 1613 
Q 2544 1028 2572 491 
Q 2763 953 3209 1744 
L 4816 4581 
L 5581 4581 
L 4625 0 
L 4022 0 
L 4500 2228 
Q 4666 3000 4975 3959 
Q 4778 3513 4488 2997 
L 2781 0 
L 2191 0 
L 1731 2938 
Q 1669 3341 1641 3878 
Q 1563 3275 1488 2922 
L 878 0 
L 281 0 
z
" transform="scale(0.015625)"/>
      <path id="Arial-ItalicMT-6b" d="M 219 0 
L 1178 4581 
L 1741 4581 
L 1147 1741 
L 2797 3319 
L 3544 3319 
L 2128 2081 
L 2984 0 
L 2366 0 
L 1703 1703 
L 1016 1109 
L 784 0 
L 219 0 
z
" transform="scale(0.015625)"/>
     </defs>
     <use xlink:href="#Arial-ItalicMT-45"/>
     <use xlink:href="#Arial-ItalicMT-78" transform="translate(66.699219 0)"/>
     <use xlink:href="#Arial-ItalicMT-61" transform="translate(116.699219 0)"/>
     <use xlink:href="#Arial-ItalicMT-6d" transform="translate(172.314453 0)"/>
     <use xlink:href="#Arial-ItalicMT-70" transform="translate(255.615234 0)"/>
     <use xlink:href="#Arial-ItalicMT-6c" transform="translate(311.230469 0)"/>
     <use xlink:href="#Arial-ItalicMT-65" transform="translate(333.447266 0)"/>
     <use xlink:href="#Arial-ItalicMT-73" transform="translate(389.0625 0)"/>
     <use xlink:href="#Arial-ItalicMT-3a" transform="translate(439.0625 0)"/>
     <use xlink:href="#Arial-ItalicMT-20" transform="translate(466.845703 0)"/>
     <use xlink:href="#Arial-ItalicMT-52" transform="translate(494.628906 0)"/>
     <use xlink:href="#Arial-ItalicMT-2d" transform="translate(566.845703 0)"/>
     <use xlink:href="#Arial-ItalicMT-43" transform="translate(600.146484 0)"/>
     <use xlink:href="#Arial-ItalicMT-4e" transform="translate(672.363281 0)"/>
     <use xlink:href="#Arial-ItalicMT-4e" transform="translate(744.580078 0)"/>
     <use xlink:href="#Arial-ItalicMT-2c" transform="translate(816.796875 0)"/>
     <use xlink:href="#Arial-ItalicMT-20" transform="translate(844.580078 0)"/>
     <use xlink:href="#Arial-ItalicMT-46" transform="translate(872.363281 0)"/>
     <use xlink:href="#Arial-ItalicMT-61" transform="translate(933.447266 0)"/>
     <use xlink:href="#Arial-ItalicMT-73" transform="translate(989.0625 0)"/>
     <use xlink:href="#Arial-ItalicMT-74" transform="translate(1039.0625 0)"/>
     <use xlink:href="#Arial-ItalicMT-65" transform="translate(1066.845703 0)"/>
     <use xlink:href="#Arial-ItalicMT-72" transform="translate(1122.460938 0)"/>
     <use xlink:href="#Arial-ItalicMT-20" transform="translate(1155.761719 0)"/>
     <use xlink:href="#Arial-ItalicMT-52" transform="translate(1183.544922 0)"/>
     <use xlink:href="#Arial-ItalicMT-2d" transform="translate(1255.761719 0)"/>
     <use xlink:href="#Arial-ItalicMT-43" transform="translate(1289.0625 0)"/>
     <use xlink:href="#Arial-ItalicMT-4e" transform="translate(1361.279297 0)"/>
     <use xlink:href="#Arial-ItalicMT-4e" transform="translate(1433.496094 0)"/>
     <use xlink:href="#Arial-ItalicMT-2c" transform="translate(1505.712891 0)"/>
     <use xlink:href="#Arial-ItalicMT-20" transform="translate(1533.496094 0)"/>
     <use xlink:href="#Arial-ItalicMT-4d" transform="translate(1561.279297 0)"/>
     <use xlink:href="#Arial-ItalicMT-61" transform="translate(1644.580078 0)"/>
     <use xlink:href="#Arial-ItalicMT-73" transform="translate(1700.195312 0)"/>
     <use xlink:href="#Arial-ItalicMT-6b" transform="translate(1750.195312 0)"/>
     <use xlink:href="#Arial-ItalicMT-20" transform="translate(1800.195312 0)"/>
     <use xlink:href="#Arial-ItalicMT-52" transform="translate(1827.978516 0)"/>
     <use xlink:href="#Arial-ItalicMT-2d" transform="translate(1900.195312 0)"/>
     <use xlink:href="#Arial-ItalicMT-43" transform="translate(1933.496094 0)"/>
     <use xlink:href="#Arial-ItalicMT-4e" transform="translate(2005.712891 0)"/>
     <use xlink:href="#Arial-ItalicMT-4e" transform="translate(2077.929688 0)"/>
    </g>
    <!-- ~5-10 FPS -->
    <g transform="translate(229.760156 480.622975) scale(0.1 -0.1)">
     <defs>
      <path id="Arial-ItalicMT-7e" d="M 513 1741 
L 513 2381 
Q 844 2756 1381 2756 
Q 1569 2756 1775 2701 
Q 1981 2647 2363 2484 
Q 2578 2394 2686 2366 
Q 2794 2338 2903 2338 
Q 3106 2338 3323 2459 
Q 3541 2581 3709 2766 
L 3709 2103 
Q 3509 1916 3304 1831 
Q 3100 1747 2844 1747 
Q 2656 1747 2486 1790 
Q 2316 1834 1945 2000 
Q 1575 2166 1328 2166 
Q 1128 2166 951 2080 
Q 775 1994 513 1741 
z
" transform="scale(0.015625)"/>
      <path id="Arial-ItalicMT-35" d="M 447 1309 
L 1022 1366 
Q 1016 1244 1016 1219 
Q 1016 1013 1120 803 
Q 1225 594 1404 483 
Q 1584 372 1784 372 
Q 2047 372 2319 553 
Q 2591 734 2759 1081 
Q 2928 1428 2928 1769 
Q 2928 2153 2701 2384 
Q 2475 2616 2106 2616 
Q 1859 2616 1639 2497 
Q 1419 2378 1228 2141 
L 734 2175 
L 1425 4519 
L 3663 4519 
L 3553 4000 
L 1813 4000 
L 1469 2834 
Q 1663 2975 1867 3045 
Q 2072 3116 2288 3116 
Q 2813 3116 3150 2769 
Q 3488 2422 3488 1819 
Q 3488 1291 3256 845 
Q 3025 400 2620 161 
Q 2216 -78 1747 -78 
Q 1353 -78 1050 100 
Q 747 278 595 590 
Q 444 903 444 1216 
Q 444 1247 447 1309 
z
" transform="scale(0.015625)"/>
      <path id="Arial-ItalicMT-31" d="M 1541 0 
L 2266 3459 
Q 1797 3091 947 2869 
L 1053 3381 
Q 1475 3550 1886 3822 
Q 2297 4094 2503 4297 
Q 2628 4422 2741 4600 
L 3069 4600 
L 2109 0 
L 1541 0 
z
" transform="scale(0.015625)"/>
      <path id="Arial-ItalicMT-30" d="M 453 1503 
Q 453 2084 626 2684 
Q 800 3284 1012 3643 
Q 1225 4003 1453 4206 
Q 1681 4409 1901 4504 
Q 2122 4600 2391 4600 
Q 2916 4600 3267 4209 
Q 3619 3819 3619 3081 
Q 3619 2322 3375 1578 
Q 3088 697 2575 256 
Q 2181 -78 1678 -78 
Q 1163 -78 808 326 
Q 453 731 453 1503 
z
M 1000 1359 
Q 1000 938 1141 700 
Q 1331 372 1706 372 
Q 2034 372 2303 669 
Q 2691 1088 2886 1895 
Q 3081 2703 3081 3216 
Q 3081 3709 2892 3928 
Q 2703 4147 2394 4147 
Q 2169 4147 1973 4031 
Q 1778 3916 1600 3634 
Q 1347 3238 1159 2447 
Q 1000 1772 1000 1359 
z
" transform="scale(0.015625)"/>
      <path id="Arial-ItalicMT-50" d="M 275 0 
L 1234 4581 
L 3147 4581 
Q 3644 4581 3892 4467 
Q 4141 4353 4303 4076 
Q 4466 3800 4466 3456 
Q 4466 3172 4350 2878 
Q 4234 2584 4057 2393 
Q 3881 2203 3700 2106 
Q 3519 2009 3313 1963 
Q 2872 1859 2422 1859 
L 1275 1859 
L 888 0 
L 275 0 
z
M 1384 2378 
L 2394 2378 
Q 2981 2378 3256 2504 
Q 3531 2631 3697 2890 
Q 3863 3150 3863 3441 
Q 3863 3666 3775 3808 
Q 3688 3950 3528 4017 
Q 3369 4084 2916 4084 
L 1741 4084 
L 1384 2378 
z
" transform="scale(0.015625)"/>
      <path id="Arial-ItalicMT-53" d="M 450 1481 
L 1050 1538 
L 1044 1378 
Q 1044 1113 1166 892 
Q 1288 672 1569 551 
Q 1850 431 2238 431 
Q 2788 431 3077 672 
Q 3366 913 3366 1222 
Q 3366 1438 3213 1616 
Q 3056 1791 2359 2091 
Q 1819 2325 1622 2450 
Q 1313 2653 1166 2892 
Q 1019 3131 1019 3438 
Q 1019 3791 1212 4075 
Q 1406 4359 1779 4509 
Q 2153 4659 2622 4659 
Q 3181 4659 3565 4471 
Q 3950 4284 4123 3971 
Q 4297 3659 4297 3375 
Q 4297 3347 4294 3281 
L 3703 3234 
Q 3703 3428 3669 3538 
Q 3606 3728 3475 3859 
Q 3344 3991 3114 4070 
Q 2884 4150 2600 4150 
Q 2100 4150 1822 3925 
Q 1609 3753 1609 3469 
Q 1609 3300 1696 3167 
Q 1784 3034 2013 2906 
Q 2175 2816 2784 2547 
Q 3278 2328 3466 2203 
Q 3716 2038 3850 1802 
Q 3984 1566 3984 1266 
Q 3984 894 3757 580 
Q 3531 266 3131 94 
Q 2731 -78 2216 -78 
Q 1438 -78 945 261 
Q 453 600 450 1481 
z
" transform="scale(0.015625)"/>
     </defs>
     <use xlink:href="#Arial-ItalicMT-7e"/>
     <use xlink:href="#Arial-ItalicMT-35" transform="translate(58.398438 0)"/>
     <use xlink:href="#Arial-ItalicMT-2d" transform="translate(114.013672 0)"/>
     <use xlink:href="#Arial-ItalicMT-31" transform="translate(147.314453 0)"/>
     <use xlink:href="#Arial-ItalicMT-30" transform="translate(202.929688 0)"/>
     <use xlink:href="#Arial-ItalicMT-20" transform="translate(258.544922 0)"/>
     <use xlink:href="#Arial-ItalicMT-46" transform="translate(286.328125 0)"/>
     <use xlink:href="#Arial-ItalicMT-50" transform="translate(347.412109 0)"/>
     <use xlink:href="#Arial-ItalicMT-53" transform="translate(414.111328 0)"/>
    </g>
   </g>
   <g id="text_13">
    <!-- Examples: YOLO, SSD, RetinaNet -->
    <g transform="translate(670.392969 470.0461) scale(0.1 -0.1)">
     <defs>
      <path id="Arial-ItalicMT-59" d="M 1788 0 
L 2156 1772 
L 747 4581 
L 1403 4581 
L 2078 3244 
Q 2300 2806 2509 2306 
Q 2741 2731 3141 3234 
L 4216 4581 
L 4947 4581 
L 2759 1725 
L 2400 0 
L 1788 0 
z
" transform="scale(0.015625)"/>
      <path id="Arial-ItalicMT-4f" d="M 584 1919 
Q 584 3144 1292 3901 
Q 2000 4659 3009 4659 
Q 3866 4659 4405 4101 
Q 4944 3544 4944 2606 
Q 4944 1938 4672 1366 
Q 4469 938 4159 627 
Q 3850 316 3497 147 
Q 3028 -78 2503 -78 
Q 1953 -78 1501 184 
Q 1050 447 817 917 
Q 584 1388 584 1919 
z
M 1188 1888 
Q 1188 1484 1355 1146 
Q 1522 809 1853 618 
Q 2184 428 2550 428 
Q 2903 428 3222 595 
Q 3541 763 3792 1061 
Q 4044 1359 4189 1795 
Q 4334 2231 4334 2653 
Q 4334 3338 3951 3744 
Q 3569 4150 3006 4150 
Q 2288 4150 1738 3536 
Q 1188 2922 1188 1888 
z
" transform="scale(0.015625)"/>
      <path id="Arial-ItalicMT-4c" d="M 256 0 
L 1213 4581 
L 1825 4581 
L 978 519 
L 3356 519 
L 3247 0 
L 256 0 
z
" transform="scale(0.015625)"/>
      <path id="Arial-ItalicMT-44" d="M 284 0 
L 1241 4581 
L 2622 4581 
Q 3119 4581 3381 4509 
Q 3756 4413 4022 4164 
Q 4288 3916 4422 3544 
Q 4556 3172 4556 2709 
Q 4556 2156 4389 1701 
Q 4222 1247 3951 901 
Q 3681 556 3386 361 
Q 3091 166 2688 72 
Q 2381 0 1934 0 
L 284 0 
z
M 1006 519 
L 1731 519 
Q 2222 519 2603 609 
Q 2841 666 3009 775 
Q 3231 916 3413 1147 
Q 3650 1453 3792 1845 
Q 3934 2238 3934 2738 
Q 3934 3294 3740 3592 
Q 3547 3891 3247 3988 
Q 3025 4059 2556 4059 
L 1747 4059 
L 1006 519 
z
" transform="scale(0.015625)"/>
      <path id="Arial-ItalicMT-69" d="M 1016 3941 
L 1150 4581 
L 1713 4581 
L 1578 3941 
L 1016 3941 
z
M 191 0 
L 884 3319 
L 1450 3319 
L 756 0 
L 191 0 
z
" transform="scale(0.015625)"/>
      <path id="Arial-ItalicMT-6e" d="M 213 0 
L 906 3319 
L 1419 3319 
L 1297 2741 
Q 1631 3081 1922 3237 
Q 2213 3394 2516 3394 
Q 2919 3394 3148 3175 
Q 3378 2956 3378 2591 
Q 3378 2406 3297 2009 
L 2875 0 
L 2309 0 
L 2750 2103 
Q 2816 2409 2816 2556 
Q 2816 2722 2702 2825 
Q 2588 2928 2372 2928 
Q 1938 2928 1598 2615 
Q 1259 2303 1100 1544 
L 778 0 
L 213 0 
z
" transform="scale(0.015625)"/>
     </defs>
     <use xlink:href="#Arial-ItalicMT-45"/>
     <use xlink:href="#Arial-ItalicMT-78" transform="translate(66.699219 0)"/>
     <use xlink:href="#Arial-ItalicMT-61" transform="translate(116.699219 0)"/>
     <use xlink:href="#Arial-ItalicMT-6d" transform="translate(172.314453 0)"/>
     <use xlink:href="#Arial-ItalicMT-70" transform="translate(255.615234 0)"/>
     <use xlink:href="#Arial-ItalicMT-6c" transform="translate(311.230469 0)"/>
     <use xlink:href="#Arial-ItalicMT-65" transform="translate(333.447266 0)"/>
     <use xlink:href="#Arial-ItalicMT-73" transform="translate(389.0625 0)"/>
     <use xlink:href="#Arial-ItalicMT-3a" transform="translate(439.0625 0)"/>
     <use xlink:href="#Arial-ItalicMT-20" transform="translate(466.845703 0)"/>
     <use xlink:href="#Arial-ItalicMT-59" transform="translate(492.878906 0)"/>
     <use xlink:href="#Arial-ItalicMT-4f" transform="translate(559.578125 0)"/>
     <use xlink:href="#Arial-ItalicMT-4c" transform="translate(637.361328 0)"/>
     <use xlink:href="#Arial-ItalicMT-4f" transform="translate(692.976562 0)"/>
     <use xlink:href="#Arial-ItalicMT-2c" transform="translate(770.759766 0)"/>
     <use xlink:href="#Arial-ItalicMT-20" transform="translate(798.542969 0)"/>
     <use xlink:href="#Arial-ItalicMT-53" transform="translate(826.326172 0)"/>
     <use xlink:href="#Arial-ItalicMT-53" transform="translate(893.025391 0)"/>
     <use xlink:href="#Arial-ItalicMT-44" transform="translate(959.724609 0)"/>
     <use xlink:href="#Arial-ItalicMT-2c" transform="translate(1031.941406 0)"/>
     <use xlink:href="#Arial-ItalicMT-20" transform="translate(1059.724609 0)"/>
     <use xlink:href="#Arial-ItalicMT-52" transform="translate(1087.507812 0)"/>
     <use xlink:href="#Arial-ItalicMT-65" transform="translate(1159.724609 0)"/>
     <use xlink:href="#Arial-ItalicMT-74" transform="translate(1215.339844 0)"/>
     <use xlink:href="#Arial-ItalicMT-69" transform="translate(1243.123047 0)"/>
     <use xlink:href="#Arial-ItalicMT-6e" transform="translate(1265.339844 0)"/>
     <use xlink:href="#Arial-ItalicMT-61" transform="translate(1320.955078 0)"/>
     <use xlink:href="#Arial-ItalicMT-4e" transform="translate(1376.570312 0)"/>
     <use xlink:href="#Arial-ItalicMT-65" transform="translate(1448.787109 0)"/>
     <use xlink:href="#Arial-ItalicMT-74" transform="translate(1504.402344 0)"/>
    </g>
    <!-- ~30-100+ FPS -->
    <g transform="translate(714.478906 480.622975) scale(0.1 -0.1)">
     <defs>
      <path id="Arial-ItalicMT-33" d="M 350 1200 
L 900 1269 
Q 963 788 1177 580 
Q 1391 372 1738 372 
Q 2156 372 2461 672 
Q 2766 972 2766 1359 
Q 2766 1697 2537 1917 
Q 2309 2138 1925 2138 
Q 1881 2138 1744 2125 
L 1841 2597 
Q 1922 2584 1997 2584 
Q 2481 2584 2742 2820 
Q 3003 3056 3003 3400 
Q 3003 3716 2789 3931 
Q 2575 4147 2266 4147 
Q 1963 4147 1720 3926 
Q 1478 3706 1409 3303 
L 853 3416 
Q 991 3981 1381 4290 
Q 1772 4600 2306 4600 
Q 2869 4600 3217 4259 
Q 3566 3919 3566 3422 
Q 3566 3059 3377 2789 
Q 3188 2519 2809 2341 
Q 3078 2181 3211 1956 
Q 3344 1731 3344 1441 
Q 3344 825 2883 373 
Q 2422 -78 1781 -78 
Q 1159 -78 776 270 
Q 394 619 350 1200 
z
" transform="scale(0.015625)"/>
      <path id="Arial-ItalicMT-2b" d="M 1822 741 
L 1822 1997 
L 575 1997 
L 575 2522 
L 1822 2522 
L 1822 3769 
L 2353 3769 
L 2353 2522 
L 3600 2522 
L 3600 1997 
L 2353 1997 
L 2353 741 
L 1822 741 
z
" transform="scale(0.015625)"/>
     </defs>
     <use xlink:href="#Arial-ItalicMT-7e"/>
     <use xlink:href="#Arial-ItalicMT-33" transform="translate(58.398438 0)"/>
     <use xlink:href="#Arial-ItalicMT-30" transform="translate(114.013672 0)"/>
     <use xlink:href="#Arial-ItalicMT-2d" transform="translate(169.628906 0)"/>
     <use xlink:href="#Arial-ItalicMT-31" transform="translate(202.929688 0)"/>
     <use xlink:href="#Arial-ItalicMT-30" transform="translate(258.544922 0)"/>
     <use xlink:href="#Arial-ItalicMT-30" transform="translate(314.160156 0)"/>
     <use xlink:href="#Arial-ItalicMT-2b" transform="translate(369.775391 0)"/>
     <use xlink:href="#Arial-ItalicMT-20" transform="translate(428.173828 0)"/>
     <use xlink:href="#Arial-ItalicMT-46" transform="translate(455.957031 0)"/>
     <use xlink:href="#Arial-ItalicMT-50" transform="translate(517.041016 0)"/>
     <use xlink:href="#Arial-ItalicMT-53" transform="translate(583.740234 0)"/>
    </g>
   </g>
   <g id="text_14">
    <!-- Two Families of Object Detectors -->
    <g transform="translate(343.335938 21.759375) scale(0.2 -0.2)">
     <defs>
      <path id="Arial-BoldMT-46" d="M 472 0 
L 472 4581 
L 3613 4581 
L 3613 3806 
L 1397 3806 
L 1397 2722 
L 3309 2722 
L 3309 1947 
L 1397 1947 
L 1397 0 
L 472 0 
z
" transform="scale(0.015625)"/>
      <path id="Arial-BoldMT-6a" d="M 441 3769 
L 441 4581 
L 1319 4581 
L 1319 3769 
L 441 3769 
z
M 1319 3319 
L 1319 103 
Q 1319 -531 1236 -792 
Q 1153 -1053 917 -1200 
Q 681 -1347 316 -1347 
Q 184 -1347 32 -1323 
Q -119 -1300 -294 -1253 
L -141 -503 
Q -78 -516 -23 -523 
Q 31 -531 78 -531 
Q 213 -531 298 -473 
Q 384 -416 412 -334 
Q 441 -253 441 153 
L 441 3319 
L 1319 3319 
z
" transform="scale(0.015625)"/>
     </defs>
     <use xlink:href="#Arial-BoldMT-54"/>
     <use xlink:href="#Arial-BoldMT-77" transform="translate(53.708984 0)"/>
     <use xlink:href="#Arial-BoldMT-6f" transform="translate(131.492188 0)"/>
     <use xlink:href="#Arial-BoldMT-20" transform="translate(192.576172 0)"/>
     <use xlink:href="#Arial-BoldMT-46" transform="translate(220.359375 0)"/>
     <use xlink:href="#Arial-BoldMT-61" transform="translate(281.443359 0)"/>
     <use xlink:href="#Arial-BoldMT-6d" transform="translate(337.058594 0)"/>
     <use xlink:href="#Arial-BoldMT-69" transform="translate(425.974609 0)"/>
     <use xlink:href="#Arial-BoldMT-6c" transform="translate(453.757812 0)"/>
     <use xlink:href="#Arial-BoldMT-69" transform="translate(481.541016 0)"/>
     <use xlink:href="#Arial-BoldMT-65" transform="translate(509.324219 0)"/>
     <use xlink:href="#Arial-BoldMT-73" transform="translate(564.939453 0)"/>
     <use xlink:href="#Arial-BoldMT-20" transform="translate(620.554688 0)"/>
     <use xlink:href="#Arial-BoldMT-6f" transform="translate(648.337891 0)"/>
     <use xlink:href="#Arial-BoldMT-66" transform="translate(709.421875 0)"/>
     <use xlink:href="#Arial-BoldMT-20" transform="translate(742.722656 0)"/>
     <use xlink:href="#Arial-BoldMT-4f" transform="translate(770.505859 0)"/>
     <use xlink:href="#Arial-BoldMT-62" transform="translate(848.289062 0)"/>
     <use xlink:href="#Arial-BoldMT-6a" transform="translate(909.373047 0)"/>
     <use xlink:href="#Arial-BoldMT-65" transform="translate(937.15625 0)"/>
     <use xlink:href="#Arial-BoldMT-63" transform="translate(992.771484 0)"/>
     <use xlink:href="#Arial-BoldMT-74" transform="translate(1048.386719 0)"/>
     <use xlink:href="#Arial-BoldMT-20" transform="translate(1081.6875 0)"/>
     <use xlink:href="#Arial-BoldMT-44" transform="translate(1109.470703 0)"/>
     <use xlink:href="#Arial-BoldMT-65" transform="translate(1181.6875 0)"/>
     <use xlink:href="#Arial-BoldMT-74" transform="translate(1237.302734 0)"/>
     <use xlink:href="#Arial-BoldMT-65" transform="translate(1270.603516 0)"/>
     <use xlink:href="#Arial-BoldMT-63" transform="translate(1326.21875 0)"/>
     <use xlink:href="#Arial-BoldMT-74" transform="translate(1381.833984 0)"/>
     <use xlink:href="#Arial-BoldMT-6f" transform="translate(1415.134766 0)"/>
     <use xlink:href="#Arial-BoldMT-72" transform="translate(1476.21875 0)"/>
     <use xlink:href="#Arial-BoldMT-73" transform="translate(1515.134766 0)"/>
    </g>
   </g>
  </g>
 </g>
 <defs>
  <clipPath id="pac92b96d5a">
   <rect x="7.2" y="41.759375" width="986.4" height="447.82"/>
  </clipPath>
 </defs>
</svg>
