<?xml version="1.0" encoding="utf-8" standalone="no"?>
<!DOCTYPE svg PUBLIC "-//W3C//DTD SVG 1.1//EN"
  "http://www.w3.org/Graphics/SVG/1.1/DTD/svg11.dtd">
<svg xmlns:xlink="http://www.w3.org/1999/xlink" width="982.181647pt" height="370.8pt" viewBox="0 0 982.181647 370.8" xmlns="http://www.w3.org/2000/svg" version="1.1">
 <metadata>
  <rdf:RDF xmlns:dc="http://purl.org/dc/elements/1.1/" xmlns:cc="http://creativecommons.org/ns#" xmlns:rdf="http://www.w3.org/1999/02/22-rdf-syntax-ns#">
   <cc:Work>
    <dc:type rdf:resource="http://purl.org/dc/dcmitype/StillImage"/>
    <dc:date>2025-12-29T08:48:24.290673</dc:date>
    <dc:format>image/svg+xml</dc:format>
    <dc:creator>
     <cc:Agent>
      <dc:title>Matplotlib v3.10.1, https://matplotlib.org/</dc:title>
     </cc:Agent>
    </dc:creator>
   </cc:Work>
  </rdf:RDF>
 </metadata>
 <defs>
  <style type="text/css">*{stroke-linejoin: round; stroke-linecap: butt}</style>
 </defs>
 <g id="figure_1">
  <g id="patch_1">
   <path d="M 0 370.8 
L 982.181647 370.8 
L 982.181647 0 
L 0 0 
z
" style="fill: #f8f9fa"/>
  </g>
  <g id="axes_1">
   <g id="patch_2">
    <path d="M 37.498165 333.301835 
L 128.392659 333.301835 
L 128.392659 242.407341 
L 37.498165 242.407341 
z
" clip-path="url(#p5d631d74c3)" style="fill: #2e86ab; opacity: 0.3; stroke: #2e86ab; stroke-width: 3; stroke-linejoin: miter"/>
   </g>
   <g id="patch_3">
    <path d="M 188.988988 181.811012 
L 279.883482 181.811012 
L 279.883482 90.916518 
L 188.988988 90.916518 
z
" clip-path="url(#p5d631d74c3)" style="fill: #e63946; opacity: 0.3; stroke: #e63946; stroke-width: 3; stroke-linejoin: miter"/>
   </g>
   <g id="text_1">
    <!-- IoU = 0.0 -->
    <g transform="translate(129.707542 39.625665) scale(0.14 -0.14)">
     <defs>
      <path id="Arial-BoldMT-49" d="M 438 0 
L 438 4581 
L 1363 4581 
L 1363 0 
L 438 0 
z
" transform="scale(0.015625)"/>
      <path id="Arial-BoldMT-6f" d="M 256 1706 
Q 256 2144 472 2553 
Q 688 2963 1083 3178 
Q 1478 3394 1966 3394 
Q 2719 3394 3200 2905 
Q 3681 2416 3681 1669 
Q 3681 916 3195 420 
Q 2709 -75 1972 -75 
Q 1516 -75 1102 131 
Q 688 338 472 736 
Q 256 1134 256 1706 
z
M 1156 1659 
Q 1156 1166 1390 903 
Q 1625 641 1969 641 
Q 2313 641 2545 903 
Q 2778 1166 2778 1666 
Q 2778 2153 2545 2415 
Q 2313 2678 1969 2678 
Q 1625 2678 1390 2415 
Q 1156 2153 1156 1659 
z
" transform="scale(0.015625)"/>
      <path id="Arial-BoldMT-55" d="M 459 4581 
L 1384 4581 
L 1384 2100 
Q 1384 1509 1419 1334 
Q 1478 1053 1701 883 
Q 1925 713 2313 713 
Q 2706 713 2906 873 
Q 3106 1034 3147 1268 
Q 3188 1503 3188 2047 
L 3188 4581 
L 4113 4581 
L 4113 2175 
Q 4113 1350 4038 1009 
Q 3963 669 3761 434 
Q 3559 200 3221 61 
Q 2884 -78 2341 -78 
Q 1684 -78 1345 73 
Q 1006 225 809 467 
Q 613 709 550 975 
Q 459 1369 459 2138 
L 459 4581 
z
" transform="scale(0.015625)"/>
      <path id="Arial-BoldMT-20" transform="scale(0.015625)"/>
      <path id="Arial-BoldMT-3d" d="M 266 2550 
L 266 3356 
L 3469 3356 
L 3469 2550 
L 266 2550 
z
M 266 1163 
L 266 1972 
L 3469 1972 
L 3469 1163 
L 266 1163 
z
" transform="scale(0.015625)"/>
      <path id="Arial-BoldMT-30" d="M 1756 4600 
Q 2422 4600 2797 4125 
Q 3244 3563 3244 2259 
Q 3244 959 2794 391 
Q 2422 -78 1756 -78 
Q 1088 -78 678 436 
Q 269 950 269 2269 
Q 269 3563 719 4131 
Q 1091 4600 1756 4600 
z
M 1756 3872 
Q 1597 3872 1472 3770 
Q 1347 3669 1278 3406 
Q 1188 3066 1188 2259 
Q 1188 1453 1269 1151 
Q 1350 850 1473 750 
Q 1597 650 1756 650 
Q 1916 650 2041 751 
Q 2166 853 2234 1116 
Q 2325 1453 2325 2259 
Q 2325 3066 2244 3367 
Q 2163 3669 2039 3770 
Q 1916 3872 1756 3872 
z
" transform="scale(0.015625)"/>
      <path id="Arial-BoldMT-2e" d="M 459 0 
L 459 878 
L 1338 878 
L 1338 0 
L 459 0 
z
" transform="scale(0.015625)"/>
     </defs>
     <use xlink:href="#Arial-BoldMT-49"/>
     <use xlink:href="#Arial-BoldMT-6f" transform="translate(27.783203 0)"/>
     <use xlink:href="#Arial-BoldMT-55" transform="translate(88.867188 0)"/>
     <use xlink:href="#Arial-BoldMT-20" transform="translate(161.083984 0)"/>
     <use xlink:href="#Arial-BoldMT-3d" transform="translate(188.867188 0)"/>
     <use xlink:href="#Arial-BoldMT-20" transform="translate(247.265625 0)"/>
     <use xlink:href="#Arial-BoldMT-30" transform="translate(275.048828 0)"/>
     <use xlink:href="#Arial-BoldMT-2e" transform="translate(330.664062 0)"/>
     <use xlink:href="#Arial-BoldMT-30" transform="translate(358.447266 0)"/>
    </g>
    <!-- No Overlap -->
    <g transform="translate(121.348011 54.618353) scale(0.14 -0.14)">
     <defs>
      <path id="Arial-BoldMT-4e" d="M 475 0 
L 475 4581 
L 1375 4581 
L 3250 1522 
L 3250 4581 
L 4109 4581 
L 4109 0 
L 3181 0 
L 1334 2988 
L 1334 0 
L 475 0 
z
" transform="scale(0.015625)"/>
      <path id="Arial-BoldMT-4f" d="M 278 2263 
Q 278 2963 488 3438 
Q 644 3788 914 4066 
Q 1184 4344 1506 4478 
Q 1934 4659 2494 4659 
Q 3506 4659 4114 4031 
Q 4722 3403 4722 2284 
Q 4722 1175 4119 548 
Q 3516 -78 2506 -78 
Q 1484 -78 881 545 
Q 278 1169 278 2263 
z
M 1231 2294 
Q 1231 1516 1590 1114 
Q 1950 713 2503 713 
Q 3056 713 3411 1111 
Q 3766 1509 3766 2306 
Q 3766 3094 3420 3481 
Q 3075 3869 2503 3869 
Q 1931 3869 1581 3476 
Q 1231 3084 1231 2294 
z
" transform="scale(0.015625)"/>
      <path id="Arial-BoldMT-76" d="M 1372 0 
L 34 3319 
L 956 3319 
L 1581 1625 
L 1763 1059 
Q 1834 1275 1853 1344 
Q 1897 1484 1947 1625 
L 2578 3319 
L 3481 3319 
L 2163 0 
L 1372 0 
z
" transform="scale(0.015625)"/>
      <path id="Arial-BoldMT-65" d="M 2381 1056 
L 3256 909 
Q 3088 428 2723 176 
Q 2359 -75 1813 -75 
Q 947 -75 531 491 
Q 203 944 203 1634 
Q 203 2459 634 2926 
Q 1066 3394 1725 3394 
Q 2466 3394 2894 2905 
Q 3322 2416 3303 1406 
L 1103 1406 
Q 1113 1016 1316 798 
Q 1519 581 1822 581 
Q 2028 581 2168 693 
Q 2309 806 2381 1056 
z
M 2431 1944 
Q 2422 2325 2234 2523 
Q 2047 2722 1778 2722 
Q 1491 2722 1303 2513 
Q 1116 2303 1119 1944 
L 2431 1944 
z
" transform="scale(0.015625)"/>
      <path id="Arial-BoldMT-72" d="M 1300 0 
L 422 0 
L 422 3319 
L 1238 3319 
L 1238 2847 
Q 1447 3181 1614 3287 
Q 1781 3394 1994 3394 
Q 2294 3394 2572 3228 
L 2300 2463 
Q 2078 2606 1888 2606 
Q 1703 2606 1575 2504 
Q 1447 2403 1373 2137 
Q 1300 1872 1300 1025 
L 1300 0 
z
" transform="scale(0.015625)"/>
      <path id="Arial-BoldMT-6c" d="M 459 0 
L 459 4581 
L 1338 4581 
L 1338 0 
L 459 0 
z
" transform="scale(0.015625)"/>
      <path id="Arial-BoldMT-61" d="M 1116 2306 
L 319 2450 
Q 453 2931 781 3162 
Q 1109 3394 1756 3394 
Q 2344 3394 2631 3255 
Q 2919 3116 3036 2902 
Q 3153 2688 3153 2116 
L 3144 1091 
Q 3144 653 3186 445 
Q 3228 238 3344 0 
L 2475 0 
Q 2441 88 2391 259 
Q 2369 338 2359 363 
Q 2134 144 1878 34 
Q 1622 -75 1331 -75 
Q 819 -75 523 203 
Q 228 481 228 906 
Q 228 1188 362 1408 
Q 497 1628 739 1745 
Q 981 1863 1438 1950 
Q 2053 2066 2291 2166 
L 2291 2253 
Q 2291 2506 2166 2614 
Q 2041 2722 1694 2722 
Q 1459 2722 1328 2630 
Q 1197 2538 1116 2306 
z
M 2291 1594 
Q 2122 1538 1756 1459 
Q 1391 1381 1278 1306 
Q 1106 1184 1106 997 
Q 1106 813 1243 678 
Q 1381 544 1594 544 
Q 1831 544 2047 700 
Q 2206 819 2256 991 
Q 2291 1103 2291 1419 
L 2291 1594 
z
" transform="scale(0.015625)"/>
      <path id="Arial-BoldMT-70" d="M 434 3319 
L 1253 3319 
L 1253 2831 
Q 1413 3081 1684 3237 
Q 1956 3394 2288 3394 
Q 2866 3394 3269 2941 
Q 3672 2488 3672 1678 
Q 3672 847 3265 386 
Q 2859 -75 2281 -75 
Q 2006 -75 1782 34 
Q 1559 144 1313 409 
L 1313 -1263 
L 434 -1263 
L 434 3319 
z
M 1303 1716 
Q 1303 1156 1525 889 
Q 1747 622 2066 622 
Q 2372 622 2575 867 
Q 2778 1113 2778 1672 
Q 2778 2194 2568 2447 
Q 2359 2700 2050 2700 
Q 1728 2700 1515 2451 
Q 1303 2203 1303 1716 
z
" transform="scale(0.015625)"/>
     </defs>
     <use xlink:href="#Arial-BoldMT-4e"/>
     <use xlink:href="#Arial-BoldMT-6f" transform="translate(72.216797 0)"/>
     <use xlink:href="#Arial-BoldMT-20" transform="translate(133.300781 0)"/>
     <use xlink:href="#Arial-BoldMT-4f" transform="translate(161.083984 0)"/>
     <use xlink:href="#Arial-BoldMT-76" transform="translate(238.867188 0)"/>
     <use xlink:href="#Arial-BoldMT-65" transform="translate(294.482422 0)"/>
     <use xlink:href="#Arial-BoldMT-72" transform="translate(350.097656 0)"/>
     <use xlink:href="#Arial-BoldMT-6c" transform="translate(389.013672 0)"/>
     <use xlink:href="#Arial-BoldMT-61" transform="translate(416.796875 0)"/>
     <use xlink:href="#Arial-BoldMT-70" transform="translate(472.412109 0)"/>
    </g>
   </g>
   <g id="legend_1">
    <g id="patch_4">
     <path d="M 222.056178 93.279915 
L 303.881647 93.279915 
Q 305.681647 93.279915 305.681647 91.479915 
L 305.681647 66.918353 
Q 305.681647 65.118353 303.881647 65.118353 
L 222.056178 65.118353 
Q 220.256178 65.118353 220.256178 66.918353 
L 220.256178 91.479915 
Q 220.256178 93.279915 222.056178 93.279915 
z
" style="fill: #ffffff; opacity: 0.8; stroke: #cccccc; stroke-linejoin: miter"/>
    </g>
    <g id="patch_5">
     <path d="M 223.856178 75.160384 
L 241.856178 75.160384 
L 241.856178 68.860384 
L 223.856178 68.860384 
z
" style="fill: #2e86ab; opacity: 0.5; stroke: #2e86ab; stroke-linejoin: miter"/>
    </g>
    <g id="text_2">
     <!-- Ground Truth -->
     <g transform="translate(249.056178 75.160384) scale(0.09 -0.09)">
      <defs>
       <path id="ArialMT-47" d="M 2638 1797 
L 2638 2334 
L 4578 2338 
L 4578 638 
Q 4131 281 3656 101 
Q 3181 -78 2681 -78 
Q 2006 -78 1454 211 
Q 903 500 622 1047 
Q 341 1594 341 2269 
Q 341 2938 620 3517 
Q 900 4097 1425 4378 
Q 1950 4659 2634 4659 
Q 3131 4659 3532 4498 
Q 3934 4338 4162 4050 
Q 4391 3763 4509 3300 
L 3963 3150 
Q 3859 3500 3706 3700 
Q 3553 3900 3268 4020 
Q 2984 4141 2638 4141 
Q 2222 4141 1919 4014 
Q 1616 3888 1430 3681 
Q 1244 3475 1141 3228 
Q 966 2803 966 2306 
Q 966 1694 1177 1281 
Q 1388 869 1791 669 
Q 2194 469 2647 469 
Q 3041 469 3416 620 
Q 3791 772 3984 944 
L 3984 1797 
L 2638 1797 
z
" transform="scale(0.015625)"/>
       <path id="ArialMT-72" d="M 416 0 
L 416 3319 
L 922 3319 
L 922 2816 
Q 1116 3169 1280 3281 
Q 1444 3394 1641 3394 
Q 1925 3394 2219 3213 
L 2025 2691 
Q 1819 2813 1613 2813 
Q 1428 2813 1281 2702 
Q 1134 2591 1072 2394 
Q 978 2094 978 1738 
L 978 0 
L 416 0 
z
" transform="scale(0.015625)"/>
       <path id="ArialMT-6f" d="M 213 1659 
Q 213 2581 725 3025 
Q 1153 3394 1769 3394 
Q 2453 3394 2887 2945 
Q 3322 2497 3322 1706 
Q 3322 1066 3130 698 
Q 2938 331 2570 128 
Q 2203 -75 1769 -75 
Q 1072 -75 642 372 
Q 213 819 213 1659 
z
M 791 1659 
Q 791 1022 1069 705 
Q 1347 388 1769 388 
Q 2188 388 2466 706 
Q 2744 1025 2744 1678 
Q 2744 2294 2464 2611 
Q 2184 2928 1769 2928 
Q 1347 2928 1069 2612 
Q 791 2297 791 1659 
z
" transform="scale(0.015625)"/>
       <path id="ArialMT-75" d="M 2597 0 
L 2597 488 
Q 2209 -75 1544 -75 
Q 1250 -75 995 37 
Q 741 150 617 320 
Q 494 491 444 738 
Q 409 903 409 1263 
L 409 3319 
L 972 3319 
L 972 1478 
Q 972 1038 1006 884 
Q 1059 663 1231 536 
Q 1403 409 1656 409 
Q 1909 409 2131 539 
Q 2353 669 2445 892 
Q 2538 1116 2538 1541 
L 2538 3319 
L 3100 3319 
L 3100 0 
L 2597 0 
z
" transform="scale(0.015625)"/>
       <path id="ArialMT-6e" d="M 422 0 
L 422 3319 
L 928 3319 
L 928 2847 
Q 1294 3394 1984 3394 
Q 2284 3394 2536 3286 
Q 2788 3178 2913 3003 
Q 3038 2828 3088 2588 
Q 3119 2431 3119 2041 
L 3119 0 
L 2556 0 
L 2556 2019 
Q 2556 2363 2490 2533 
Q 2425 2703 2258 2804 
Q 2091 2906 1866 2906 
Q 1506 2906 1245 2678 
Q 984 2450 984 1813 
L 984 0 
L 422 0 
z
" transform="scale(0.015625)"/>
       <path id="ArialMT-64" d="M 2575 0 
L 2575 419 
Q 2259 -75 1647 -75 
Q 1250 -75 917 144 
Q 584 363 401 755 
Q 219 1147 219 1656 
Q 219 2153 384 2558 
Q 550 2963 881 3178 
Q 1213 3394 1622 3394 
Q 1922 3394 2156 3267 
Q 2391 3141 2538 2938 
L 2538 4581 
L 3097 4581 
L 3097 0 
L 2575 0 
z
M 797 1656 
Q 797 1019 1065 703 
Q 1334 388 1700 388 
Q 2069 388 2326 689 
Q 2584 991 2584 1609 
Q 2584 2291 2321 2609 
Q 2059 2928 1675 2928 
Q 1300 2928 1048 2622 
Q 797 2316 797 1656 
z
" transform="scale(0.015625)"/>
       <path id="ArialMT-20" transform="scale(0.015625)"/>
       <path id="ArialMT-54" d="M 1659 0 
L 1659 4041 
L 150 4041 
L 150 4581 
L 3781 4581 
L 3781 4041 
L 2266 4041 
L 2266 0 
L 1659 0 
z
" transform="scale(0.015625)"/>
       <path id="ArialMT-74" d="M 1650 503 
L 1731 6 
Q 1494 -44 1306 -44 
Q 1000 -44 831 53 
Q 663 150 594 308 
Q 525 466 525 972 
L 525 2881 
L 113 2881 
L 113 3319 
L 525 3319 
L 525 4141 
L 1084 4478 
L 1084 3319 
L 1650 3319 
L 1650 2881 
L 1084 2881 
L 1084 941 
Q 1084 700 1114 631 
Q 1144 563 1211 522 
Q 1278 481 1403 481 
Q 1497 481 1650 503 
z
" transform="scale(0.015625)"/>
       <path id="ArialMT-68" d="M 422 0 
L 422 4581 
L 984 4581 
L 984 2938 
Q 1378 3394 1978 3394 
Q 2347 3394 2619 3248 
Q 2891 3103 3008 2847 
Q 3125 2591 3125 2103 
L 3125 0 
L 2563 0 
L 2563 2103 
Q 2563 2525 2380 2717 
Q 2197 2909 1863 2909 
Q 1613 2909 1392 2779 
Q 1172 2650 1078 2428 
Q 984 2206 984 1816 
L 984 0 
L 422 0 
z
" transform="scale(0.015625)"/>
      </defs>
      <use xlink:href="#ArialMT-47"/>
      <use xlink:href="#ArialMT-72" transform="translate(77.783203 0)"/>
      <use xlink:href="#ArialMT-6f" transform="translate(111.083984 0)"/>
      <use xlink:href="#ArialMT-75" transform="translate(166.699219 0)"/>
      <use xlink:href="#ArialMT-6e" transform="translate(222.314453 0)"/>
      <use xlink:href="#ArialMT-64" transform="translate(277.929688 0)"/>
      <use xlink:href="#ArialMT-20" transform="translate(333.544922 0)"/>
      <use xlink:href="#ArialMT-54" transform="translate(359.578125 0)"/>
      <use xlink:href="#ArialMT-72" transform="translate(416.912109 0)"/>
      <use xlink:href="#ArialMT-75" transform="translate(450.212891 0)"/>
      <use xlink:href="#ArialMT-74" transform="translate(505.828125 0)"/>
      <use xlink:href="#ArialMT-68" transform="translate(533.611328 0)"/>
     </g>
    </g>
    <g id="patch_6">
     <path d="M 223.856178 87.891165 
L 241.856178 87.891165 
L 241.856178 81.591165 
L 223.856178 81.591165 
z
" style="fill: #e63946; opacity: 0.5; stroke: #e63946; stroke-linejoin: miter"/>
    </g>
    <g id="text_3">
     <!-- Prediction -->
     <g transform="translate(249.056178 87.891165) scale(0.09 -0.09)">
      <defs>
       <path id="ArialMT-50" d="M 494 0 
L 494 4581 
L 2222 4581 
Q 2678 4581 2919 4538 
Q 3256 4481 3484 4323 
Q 3713 4166 3852 3881 
Q 3991 3597 3991 3256 
Q 3991 2672 3619 2267 
Q 3247 1863 2275 1863 
L 1100 1863 
L 1100 0 
L 494 0 
z
M 1100 2403 
L 2284 2403 
Q 2872 2403 3119 2622 
Q 3366 2841 3366 3238 
Q 3366 3525 3220 3729 
Q 3075 3934 2838 4000 
Q 2684 4041 2272 4041 
L 1100 4041 
L 1100 2403 
z
" transform="scale(0.015625)"/>
       <path id="ArialMT-65" d="M 2694 1069 
L 3275 997 
Q 3138 488 2766 206 
Q 2394 -75 1816 -75 
Q 1088 -75 661 373 
Q 234 822 234 1631 
Q 234 2469 665 2931 
Q 1097 3394 1784 3394 
Q 2450 3394 2872 2941 
Q 3294 2488 3294 1666 
Q 3294 1616 3291 1516 
L 816 1516 
Q 847 969 1125 678 
Q 1403 388 1819 388 
Q 2128 388 2347 550 
Q 2566 713 2694 1069 
z
M 847 1978 
L 2700 1978 
Q 2663 2397 2488 2606 
Q 2219 2931 1791 2931 
Q 1403 2931 1139 2672 
Q 875 2413 847 1978 
z
" transform="scale(0.015625)"/>
       <path id="ArialMT-69" d="M 425 3934 
L 425 4581 
L 988 4581 
L 988 3934 
L 425 3934 
z
M 425 0 
L 425 3319 
L 988 3319 
L 988 0 
L 425 0 
z
" transform="scale(0.015625)"/>
       <path id="ArialMT-63" d="M 2588 1216 
L 3141 1144 
Q 3050 572 2676 248 
Q 2303 -75 1759 -75 
Q 1078 -75 664 370 
Q 250 816 250 1647 
Q 250 2184 428 2587 
Q 606 2991 970 3192 
Q 1334 3394 1763 3394 
Q 2303 3394 2647 3120 
Q 2991 2847 3088 2344 
L 2541 2259 
Q 2463 2594 2264 2762 
Q 2066 2931 1784 2931 
Q 1359 2931 1093 2626 
Q 828 2322 828 1663 
Q 828 994 1084 691 
Q 1341 388 1753 388 
Q 2084 388 2306 591 
Q 2528 794 2588 1216 
z
" transform="scale(0.015625)"/>
      </defs>
      <use xlink:href="#ArialMT-50"/>
      <use xlink:href="#ArialMT-72" transform="translate(66.699219 0)"/>
      <use xlink:href="#ArialMT-65" transform="translate(100 0)"/>
      <use xlink:href="#ArialMT-64" transform="translate(155.615234 0)"/>
      <use xlink:href="#ArialMT-69" transform="translate(211.230469 0)"/>
      <use xlink:href="#ArialMT-63" transform="translate(233.447266 0)"/>
      <use xlink:href="#ArialMT-74" transform="translate(283.447266 0)"/>
      <use xlink:href="#ArialMT-69" transform="translate(311.230469 0)"/>
      <use xlink:href="#ArialMT-6f" transform="translate(333.447266 0)"/>
      <use xlink:href="#ArialMT-6e" transform="translate(389.0625 0)"/>
     </g>
    </g>
   </g>
  </g>
  <g id="axes_2">
   <g id="patch_7">
    <path d="M 400.196329 303.003671 
L 521.388988 303.003671 
L 521.388988 181.811012 
L 400.196329 181.811012 
z
" clip-path="url(#p5cf2e2b53a)" style="fill: #2e86ab; opacity: 0.3; stroke: #2e86ab; stroke-width: 3; stroke-linejoin: miter"/>
   </g>
   <g id="patch_8">
    <path d="M 460.792659 272.705506 
L 581.985318 272.705506 
L 581.985318 151.512847 
L 460.792659 151.512847 
z
" clip-path="url(#p5cf2e2b53a)" style="fill: #e63946; opacity: 0.3; stroke: #e63946; stroke-width: 3; stroke-linejoin: miter"/>
   </g>
   <g id="patch_9">
    <path d="M 460.792659 272.705506 
L 521.388988 272.705506 
L 521.388988 181.811012 
L 460.792659 181.811012 
z
" clip-path="url(#p5cf2e2b53a)" style="fill: #9b59b6; opacity: 0.6"/>
   </g>
   <g id="text_4">
    <!-- IoU ≈ 0.5 -->
    <g transform="translate(462.353636 39.830415) scale(0.14 -0.14)">
     <defs>
      <path id="Arial-BoldMT-2248" d="M 97 2378 
L 97 3184 
Q 494 3616 1022 3616 
Q 1219 3616 1384 3577 
Q 1550 3538 1903 3395 
Q 2256 3253 2368 3222 
Q 2481 3191 2563 3191 
Q 2738 3191 2967 3298 
Q 3197 3406 3416 3644 
L 3416 2800 
Q 3272 2650 3014 2517 
Q 2756 2384 2481 2384 
Q 2325 2384 2176 2421 
Q 2028 2459 1706 2600 
Q 1225 2809 950 2809 
Q 513 2809 97 2378 
z
M 97 863 
L 97 1672 
Q 494 2100 1022 2100 
Q 1219 2100 1384 2061 
Q 1550 2022 1903 1881 
Q 2256 1741 2368 1709 
Q 2481 1678 2563 1678 
Q 2738 1678 2967 1786 
Q 3197 1894 3416 2128 
L 3416 1284 
Q 3272 1134 3014 1001 
Q 2756 869 2481 869 
Q 2325 869 2176 908 
Q 2028 947 1706 1088 
Q 1225 1297 950 1297 
Q 513 1297 97 863 
z
" transform="scale(0.015625)"/>
      <path id="Arial-BoldMT-35" d="M 284 1178 
L 1159 1269 
Q 1197 972 1381 798 
Q 1566 625 1806 625 
Q 2081 625 2272 848 
Q 2463 1072 2463 1522 
Q 2463 1944 2273 2155 
Q 2084 2366 1781 2366 
Q 1403 2366 1103 2031 
L 391 2134 
L 841 4519 
L 3163 4519 
L 3163 3697 
L 1506 3697 
L 1369 2919 
Q 1663 3066 1969 3066 
Q 2553 3066 2959 2641 
Q 3366 2216 3366 1538 
Q 3366 972 3038 528 
Q 2591 -78 1797 -78 
Q 1163 -78 763 262 
Q 363 603 284 1178 
z
" transform="scale(0.015625)"/>
     </defs>
     <use xlink:href="#Arial-BoldMT-49"/>
     <use xlink:href="#Arial-BoldMT-6f" transform="translate(27.783203 0)"/>
     <use xlink:href="#Arial-BoldMT-55" transform="translate(88.867188 0)"/>
     <use xlink:href="#Arial-BoldMT-20" transform="translate(161.083984 0)"/>
     <use xlink:href="#Arial-BoldMT-2248" transform="translate(188.867188 0)"/>
     <use xlink:href="#Arial-BoldMT-20" transform="translate(243.75 0)"/>
     <use xlink:href="#Arial-BoldMT-30" transform="translate(271.533203 0)"/>
     <use xlink:href="#Arial-BoldMT-2e" transform="translate(327.148438 0)"/>
     <use xlink:href="#Arial-BoldMT-35" transform="translate(354.931641 0)"/>
    </g>
    <!-- Good Match -->
    <g transform="translate(450.652699 54.618353) scale(0.14 -0.14)">
     <defs>
      <path id="Arial-BoldMT-47" d="M 2597 1684 
L 2597 2456 
L 4591 2456 
L 4591 631 
Q 4300 350 3748 136 
Q 3197 -78 2631 -78 
Q 1913 -78 1378 223 
Q 844 525 575 1086 
Q 306 1647 306 2306 
Q 306 3022 606 3578 
Q 906 4134 1484 4431 
Q 1925 4659 2581 4659 
Q 3434 4659 3914 4301 
Q 4394 3944 4531 3313 
L 3613 3141 
Q 3516 3478 3248 3673 
Q 2981 3869 2581 3869 
Q 1975 3869 1617 3484 
Q 1259 3100 1259 2344 
Q 1259 1528 1621 1120 
Q 1984 713 2572 713 
Q 2863 713 3155 827 
Q 3447 941 3656 1103 
L 3656 1684 
L 2597 1684 
z
" transform="scale(0.015625)"/>
      <path id="Arial-BoldMT-64" d="M 3503 0 
L 2688 0 
L 2688 488 
Q 2484 203 2207 64 
Q 1931 -75 1650 -75 
Q 1078 -75 670 386 
Q 263 847 263 1672 
Q 263 2516 659 2955 
Q 1056 3394 1663 3394 
Q 2219 3394 2625 2931 
L 2625 4581 
L 3503 4581 
L 3503 0 
z
M 1159 1731 
Q 1159 1200 1306 963 
Q 1519 619 1900 619 
Q 2203 619 2415 876 
Q 2628 1134 2628 1647 
Q 2628 2219 2422 2470 
Q 2216 2722 1894 2722 
Q 1581 2722 1370 2473 
Q 1159 2225 1159 1731 
z
" transform="scale(0.015625)"/>
      <path id="Arial-BoldMT-4d" d="M 453 0 
L 453 4581 
L 1838 4581 
L 2669 1456 
L 3491 4581 
L 4878 4581 
L 4878 0 
L 4019 0 
L 4019 3606 
L 3109 0 
L 2219 0 
L 1313 3606 
L 1313 0 
L 453 0 
z
" transform="scale(0.015625)"/>
      <path id="Arial-BoldMT-74" d="M 1981 3319 
L 1981 2619 
L 1381 2619 
L 1381 1281 
Q 1381 875 1398 808 
Q 1416 741 1477 697 
Q 1538 653 1625 653 
Q 1747 653 1978 738 
L 2053 56 
Q 1747 -75 1359 -75 
Q 1122 -75 931 4 
Q 741 84 652 211 
Q 563 338 528 553 
Q 500 706 500 1172 
L 500 2619 
L 97 2619 
L 97 3319 
L 500 3319 
L 500 3978 
L 1381 4491 
L 1381 3319 
L 1981 3319 
z
" transform="scale(0.015625)"/>
      <path id="Arial-BoldMT-63" d="M 3353 2338 
L 2488 2181 
Q 2444 2441 2289 2572 
Q 2134 2703 1888 2703 
Q 1559 2703 1364 2476 
Q 1169 2250 1169 1719 
Q 1169 1128 1367 884 
Q 1566 641 1900 641 
Q 2150 641 2309 783 
Q 2469 925 2534 1272 
L 3397 1125 
Q 3263 531 2881 228 
Q 2500 -75 1859 -75 
Q 1131 -75 698 384 
Q 266 844 266 1656 
Q 266 2478 700 2936 
Q 1134 3394 1875 3394 
Q 2481 3394 2839 3133 
Q 3197 2872 3353 2338 
z
" transform="scale(0.015625)"/>
      <path id="Arial-BoldMT-68" d="M 1334 4581 
L 1334 2897 
Q 1759 3394 2350 3394 
Q 2653 3394 2897 3281 
Q 3141 3169 3264 2994 
Q 3388 2819 3433 2606 
Q 3478 2394 3478 1947 
L 3478 0 
L 2600 0 
L 2600 1753 
Q 2600 2275 2550 2415 
Q 2500 2556 2373 2639 
Q 2247 2722 2056 2722 
Q 1838 2722 1666 2615 
Q 1494 2509 1414 2295 
Q 1334 2081 1334 1663 
L 1334 0 
L 456 0 
L 456 4581 
L 1334 4581 
z
" transform="scale(0.015625)"/>
     </defs>
     <use xlink:href="#Arial-BoldMT-47"/>
     <use xlink:href="#Arial-BoldMT-6f" transform="translate(77.783203 0)"/>
     <use xlink:href="#Arial-BoldMT-6f" transform="translate(138.867188 0)"/>
     <use xlink:href="#Arial-BoldMT-64" transform="translate(199.951172 0)"/>
     <use xlink:href="#Arial-BoldMT-20" transform="translate(261.035156 0)"/>
     <use xlink:href="#Arial-BoldMT-4d" transform="translate(288.818359 0)"/>
     <use xlink:href="#Arial-BoldMT-61" transform="translate(372.119141 0)"/>
     <use xlink:href="#Arial-BoldMT-74" transform="translate(427.734375 0)"/>
     <use xlink:href="#Arial-BoldMT-63" transform="translate(461.035156 0)"/>
     <use xlink:href="#Arial-BoldMT-68" transform="translate(516.650391 0)"/>
    </g>
   </g>
   <g id="legend_2">
    <g id="patch_10">
     <path d="M 554.456178 93.279915 
L 636.281647 93.279915 
Q 638.081647 93.279915 638.081647 91.479915 
L 638.081647 66.918353 
Q 638.081647 65.118353 636.281647 65.118353 
L 554.456178 65.118353 
Q 552.656178 65.118353 552.656178 66.918353 
L 552.656178 91.479915 
Q 552.656178 93.279915 554.456178 93.279915 
z
" style="fill: #ffffff; opacity: 0.8; stroke: #cccccc; stroke-linejoin: miter"/>
    </g>
    <g id="patch_11">
     <path d="M 556.256178 75.160384 
L 574.256178 75.160384 
L 574.256178 68.860384 
L 556.256178 68.860384 
z
" style="fill: #2e86ab; opacity: 0.5; stroke: #2e86ab; stroke-linejoin: miter"/>
    </g>
    <g id="text_5">
     <!-- Ground Truth -->
     <g transform="translate(581.456178 75.160384) scale(0.09 -0.09)">
      <use xlink:href="#ArialMT-47"/>
      <use xlink:href="#ArialMT-72" transform="translate(77.783203 0)"/>
      <use xlink:href="#ArialMT-6f" transform="translate(111.083984 0)"/>
      <use xlink:href="#ArialMT-75" transform="translate(166.699219 0)"/>
      <use xlink:href="#ArialMT-6e" transform="translate(222.314453 0)"/>
      <use xlink:href="#ArialMT-64" transform="translate(277.929688 0)"/>
      <use xlink:href="#ArialMT-20" transform="translate(333.544922 0)"/>
      <use xlink:href="#ArialMT-54" transform="translate(359.578125 0)"/>
      <use xlink:href="#ArialMT-72" transform="translate(416.912109 0)"/>
      <use xlink:href="#ArialMT-75" transform="translate(450.212891 0)"/>
      <use xlink:href="#ArialMT-74" transform="translate(505.828125 0)"/>
      <use xlink:href="#ArialMT-68" transform="translate(533.611328 0)"/>
     </g>
    </g>
    <g id="patch_12">
     <path d="M 556.256178 87.891165 
L 574.256178 87.891165 
L 574.256178 81.591165 
L 556.256178 81.591165 
z
" style="fill: #e63946; opacity: 0.5; stroke: #e63946; stroke-linejoin: miter"/>
    </g>
    <g id="text_6">
     <!-- Prediction -->
     <g transform="translate(581.456178 87.891165) scale(0.09 -0.09)">
      <use xlink:href="#ArialMT-50"/>
      <use xlink:href="#ArialMT-72" transform="translate(66.699219 0)"/>
      <use xlink:href="#ArialMT-65" transform="translate(100 0)"/>
      <use xlink:href="#ArialMT-64" transform="translate(155.615234 0)"/>
      <use xlink:href="#ArialMT-69" transform="translate(211.230469 0)"/>
      <use xlink:href="#ArialMT-63" transform="translate(233.447266 0)"/>
      <use xlink:href="#ArialMT-74" transform="translate(283.447266 0)"/>
      <use xlink:href="#ArialMT-69" transform="translate(311.230469 0)"/>
      <use xlink:href="#ArialMT-6f" transform="translate(333.447266 0)"/>
      <use xlink:href="#ArialMT-6e" transform="translate(389.0625 0)"/>
     </g>
    </g>
   </g>
  </g>
  <g id="axes_3">
   <g id="patch_13">
    <path d="M 747.745412 287.854588 
L 899.236235 287.854588 
L 899.236235 136.363765 
L 747.745412 136.363765 
z
" clip-path="url(#p24603c8acc)" style="fill: #2e86ab; opacity: 0.3; stroke: #2e86ab; stroke-width: 3; stroke-linejoin: miter"/>
   </g>
   <g id="patch_14">
    <path d="M 747.745412 287.854588 
L 899.236235 287.854588 
L 899.236235 136.363765 
L 747.745412 136.363765 
z
" clip-path="url(#p24603c8acc)" style="fill: #e63946; opacity: 0.3; stroke: #e63946; stroke-width: 3; stroke-linejoin: miter"/>
   </g>
   <g id="patch_15">
    <path d="M 747.745412 287.854588 
L 899.236235 287.854588 
L 899.236235 136.363765 
L 747.745412 136.363765 
z
" clip-path="url(#p24603c8acc)" style="fill: #9b59b6; opacity: 0.6"/>
   </g>
   <g id="text_7">
    <!-- IoU = 1.0 -->
    <g transform="translate(794.507542 39.830415) scale(0.14 -0.14)">
     <defs>
      <path id="Arial-BoldMT-31" d="M 2519 0 
L 1641 0 
L 1641 3309 
Q 1159 2859 506 2644 
L 506 3441 
Q 850 3553 1253 3867 
Q 1656 4181 1806 4600 
L 2519 4600 
L 2519 0 
z
" transform="scale(0.015625)"/>
     </defs>
     <use xlink:href="#Arial-BoldMT-49"/>
     <use xlink:href="#Arial-BoldMT-6f" transform="translate(27.783203 0)"/>
     <use xlink:href="#Arial-BoldMT-55" transform="translate(88.867188 0)"/>
     <use xlink:href="#Arial-BoldMT-20" transform="translate(161.083984 0)"/>
     <use xlink:href="#Arial-BoldMT-3d" transform="translate(188.867188 0)"/>
     <use xlink:href="#Arial-BoldMT-20" transform="translate(247.265625 0)"/>
     <use xlink:href="#Arial-BoldMT-31" transform="translate(275.048828 0)"/>
     <use xlink:href="#Arial-BoldMT-2e" transform="translate(330.664062 0)"/>
     <use xlink:href="#Arial-BoldMT-30" transform="translate(358.447266 0)"/>
    </g>
    <!-- Perfect -->
    <g transform="translate(799.757542 54.618353) scale(0.14 -0.14)">
     <defs>
      <path id="Arial-BoldMT-50" d="M 466 0 
L 466 4581 
L 1950 4581 
Q 2794 4581 3050 4513 
Q 3444 4409 3709 4064 
Q 3975 3719 3975 3172 
Q 3975 2750 3822 2462 
Q 3669 2175 3433 2011 
Q 3197 1847 2953 1794 
Q 2622 1728 1994 1728 
L 1391 1728 
L 1391 0 
L 466 0 
z
M 1391 3806 
L 1391 2506 
L 1897 2506 
Q 2444 2506 2628 2578 
Q 2813 2650 2917 2803 
Q 3022 2956 3022 3159 
Q 3022 3409 2875 3571 
Q 2728 3734 2503 3775 
Q 2338 3806 1838 3806 
L 1391 3806 
z
" transform="scale(0.015625)"/>
      <path id="Arial-BoldMT-66" d="M 75 3319 
L 563 3319 
L 563 3569 
Q 563 3988 652 4194 
Q 741 4400 980 4529 
Q 1219 4659 1584 4659 
Q 1959 4659 2319 4547 
L 2200 3934 
Q 1991 3984 1797 3984 
Q 1606 3984 1523 3895 
Q 1441 3806 1441 3553 
L 1441 3319 
L 2097 3319 
L 2097 2628 
L 1441 2628 
L 1441 0 
L 563 0 
L 563 2628 
L 75 2628 
L 75 3319 
z
" transform="scale(0.015625)"/>
     </defs>
     <use xlink:href="#Arial-BoldMT-50"/>
     <use xlink:href="#Arial-BoldMT-65" transform="translate(66.699219 0)"/>
     <use xlink:href="#Arial-BoldMT-72" transform="translate(122.314453 0)"/>
     <use xlink:href="#Arial-BoldMT-66" transform="translate(161.230469 0)"/>
     <use xlink:href="#Arial-BoldMT-65" transform="translate(194.53125 0)"/>
     <use xlink:href="#Arial-BoldMT-63" transform="translate(250.146484 0)"/>
     <use xlink:href="#Arial-BoldMT-74" transform="translate(305.761719 0)"/>
    </g>
   </g>
   <g id="legend_3">
    <g id="patch_16">
     <path d="M 886.856178 93.279915 
L 968.681647 93.279915 
Q 970.481647 93.279915 970.481647 91.479915 
L 970.481647 66.918353 
Q 970.481647 65.118353 968.681647 65.118353 
L 886.856178 65.118353 
Q 885.056178 65.118353 885.056178 66.918353 
L 885.056178 91.479915 
Q 885.056178 93.279915 886.856178 93.279915 
z
" style="fill: #ffffff; opacity: 0.8; stroke: #cccccc; stroke-linejoin: miter"/>
    </g>
    <g id="patch_17">
     <path d="M 888.656178 75.160384 
L 906.656178 75.160384 
L 906.656178 68.860384 
L 888.656178 68.860384 
z
" style="fill: #2e86ab; opacity: 0.5; stroke: #2e86ab; stroke-linejoin: miter"/>
    </g>
    <g id="text_8">
     <!-- Ground Truth -->
     <g transform="translate(913.856178 75.160384) scale(0.09 -0.09)">
      <use xlink:href="#ArialMT-47"/>
      <use xlink:href="#ArialMT-72" transform="translate(77.783203 0)"/>
      <use xlink:href="#ArialMT-6f" transform="translate(111.083984 0)"/>
      <use xlink:href="#ArialMT-75" transform="translate(166.699219 0)"/>
      <use xlink:href="#ArialMT-6e" transform="translate(222.314453 0)"/>
      <use xlink:href="#ArialMT-64" transform="translate(277.929688 0)"/>
      <use xlink:href="#ArialMT-20" transform="translate(333.544922 0)"/>
      <use xlink:href="#ArialMT-54" transform="translate(359.578125 0)"/>
      <use xlink:href="#ArialMT-72" transform="translate(416.912109 0)"/>
      <use xlink:href="#ArialMT-75" transform="translate(450.212891 0)"/>
      <use xlink:href="#ArialMT-74" transform="translate(505.828125 0)"/>
      <use xlink:href="#ArialMT-68" transform="translate(533.611328 0)"/>
     </g>
    </g>
    <g id="patch_18">
     <path d="M 888.656178 87.891165 
L 906.656178 87.891165 
L 906.656178 81.591165 
L 888.656178 81.591165 
z
" style="fill: #e63946; opacity: 0.5; stroke: #e63946; stroke-linejoin: miter"/>
    </g>
    <g id="text_9">
     <!-- Prediction -->
     <g transform="translate(913.856178 87.891165) scale(0.09 -0.09)">
      <use xlink:href="#ArialMT-50"/>
      <use xlink:href="#ArialMT-72" transform="translate(66.699219 0)"/>
      <use xlink:href="#ArialMT-65" transform="translate(100 0)"/>
      <use xlink:href="#ArialMT-64" transform="translate(155.615234 0)"/>
      <use xlink:href="#ArialMT-69" transform="translate(211.230469 0)"/>
      <use xlink:href="#ArialMT-63" transform="translate(233.447266 0)"/>
      <use xlink:href="#ArialMT-74" transform="translate(283.447266 0)"/>
      <use xlink:href="#ArialMT-69" transform="translate(311.230469 0)"/>
      <use xlink:href="#ArialMT-6f" transform="translate(333.447266 0)"/>
      <use xlink:href="#ArialMT-6e" transform="translate(389.0625 0)"/>
     </g>
    </g>
   </g>
  </g>
  <g id="text_10">
   <!-- Intersection over Union (IoU) -->
   <g transform="translate(367.591136 20.303437) scale(0.18 -0.18)">
    <defs>
     <path id="Arial-BoldMT-6e" d="M 3478 0 
L 2600 0 
L 2600 1694 
Q 2600 2231 2544 2389 
Q 2488 2547 2361 2634 
Q 2234 2722 2056 2722 
Q 1828 2722 1647 2597 
Q 1466 2472 1398 2265 
Q 1331 2059 1331 1503 
L 1331 0 
L 453 0 
L 453 3319 
L 1269 3319 
L 1269 2831 
Q 1703 3394 2363 3394 
Q 2653 3394 2893 3289 
Q 3134 3184 3257 3021 
Q 3381 2859 3429 2653 
Q 3478 2447 3478 2063 
L 3478 0 
z
" transform="scale(0.015625)"/>
     <path id="Arial-BoldMT-73" d="M 150 947 
L 1031 1081 
Q 1088 825 1259 692 
Q 1431 559 1741 559 
Q 2081 559 2253 684 
Q 2369 772 2369 919 
Q 2369 1019 2306 1084 
Q 2241 1147 2013 1200 
Q 950 1434 666 1628 
Q 272 1897 272 2375 
Q 272 2806 612 3100 
Q 953 3394 1669 3394 
Q 2350 3394 2681 3172 
Q 3013 2950 3138 2516 
L 2309 2363 
Q 2256 2556 2107 2659 
Q 1959 2763 1684 2763 
Q 1338 2763 1188 2666 
Q 1088 2597 1088 2488 
Q 1088 2394 1175 2328 
Q 1294 2241 1995 2081 
Q 2697 1922 2975 1691 
Q 3250 1456 3250 1038 
Q 3250 581 2869 253 
Q 2488 -75 1741 -75 
Q 1063 -75 667 200 
Q 272 475 150 947 
z
" transform="scale(0.015625)"/>
     <path id="Arial-BoldMT-69" d="M 459 3769 
L 459 4581 
L 1338 4581 
L 1338 3769 
L 459 3769 
z
M 459 0 
L 459 3319 
L 1338 3319 
L 1338 0 
L 459 0 
z
" transform="scale(0.015625)"/>
     <path id="Arial-BoldMT-28" d="M 1916 -1347 
L 1313 -1347 
Q 834 -625 584 153 
Q 334 931 334 1659 
Q 334 2563 644 3369 
Q 913 4069 1325 4659 
L 1925 4659 
Q 1497 3713 1336 3048 
Q 1175 2384 1175 1641 
Q 1175 1128 1270 590 
Q 1366 53 1531 -431 
Q 1641 -750 1916 -1347 
z
" transform="scale(0.015625)"/>
     <path id="Arial-BoldMT-29" d="M 216 -1347 
Q 475 -791 581 -494 
Q 688 -197 778 190 
Q 869 578 912 926 
Q 956 1275 956 1641 
Q 956 2384 797 3048 
Q 638 3713 209 4659 
L 806 4659 
Q 1278 3988 1539 3234 
Q 1800 2481 1800 1706 
Q 1800 1053 1594 306 
Q 1359 -531 822 -1347 
L 216 -1347 
z
" transform="scale(0.015625)"/>
    </defs>
    <use xlink:href="#Arial-BoldMT-49"/>
    <use xlink:href="#Arial-BoldMT-6e" transform="translate(27.783203 0)"/>
    <use xlink:href="#Arial-BoldMT-74" transform="translate(88.867188 0)"/>
    <use xlink:href="#Arial-BoldMT-65" transform="translate(122.167969 0)"/>
    <use xlink:href="#Arial-BoldMT-72" transform="translate(177.783203 0)"/>
    <use xlink:href="#Arial-BoldMT-73" transform="translate(216.699219 0)"/>
    <use xlink:href="#Arial-BoldMT-65" transform="translate(272.314453 0)"/>
    <use xlink:href="#Arial-BoldMT-63" transform="translate(327.929688 0)"/>
    <use xlink:href="#Arial-BoldMT-74" transform="translate(383.544922 0)"/>
    <use xlink:href="#Arial-BoldMT-69" transform="translate(416.845703 0)"/>
    <use xlink:href="#Arial-BoldMT-6f" transform="translate(444.628906 0)"/>
    <use xlink:href="#Arial-BoldMT-6e" transform="translate(505.712891 0)"/>
    <use xlink:href="#Arial-BoldMT-20" transform="translate(566.796875 0)"/>
    <use xlink:href="#Arial-BoldMT-6f" transform="translate(594.580078 0)"/>
    <use xlink:href="#Arial-BoldMT-76" transform="translate(655.664062 0)"/>
    <use xlink:href="#Arial-BoldMT-65" transform="translate(711.279297 0)"/>
    <use xlink:href="#Arial-BoldMT-72" transform="translate(766.894531 0)"/>
    <use xlink:href="#Arial-BoldMT-20" transform="translate(805.810547 0)"/>
    <use xlink:href="#Arial-BoldMT-55" transform="translate(833.59375 0)"/>
    <use xlink:href="#Arial-BoldMT-6e" transform="translate(905.810547 0)"/>
    <use xlink:href="#Arial-BoldMT-69" transform="translate(966.894531 0)"/>
    <use xlink:href="#Arial-BoldMT-6f" transform="translate(994.677734 0)"/>
    <use xlink:href="#Arial-BoldMT-6e" transform="translate(1055.761719 0)"/>
    <use xlink:href="#Arial-BoldMT-20" transform="translate(1116.845703 0)"/>
    <use xlink:href="#Arial-BoldMT-28" transform="translate(1144.628906 0)"/>
    <use xlink:href="#Arial-BoldMT-49" transform="translate(1177.929688 0)"/>
    <use xlink:href="#Arial-BoldMT-6f" transform="translate(1205.712891 0)"/>
    <use xlink:href="#Arial-BoldMT-55" transform="translate(1266.796875 0)"/>
    <use xlink:href="#Arial-BoldMT-29" transform="translate(1339.013672 0)"/>
   </g>
  </g>
 </g>
 <defs>
  <clipPath id="p5d631d74c3">
   <rect x="7.2" y="60.618353" width="302.981647" height="302.981647"/>
  </clipPath>
  <clipPath id="p5cf2e2b53a">
   <rect x="339.6" y="60.618353" width="302.981647" height="302.981647"/>
  </clipPath>
  <clipPath id="p24603c8acc">
   <rect x="672" y="60.618353" width="302.981647" height="302.981647"/>
  </clipPath>
 </defs>
</svg>
