<?xml version="1.0" encoding="utf-8" standalone="no"?>
<!DOCTYPE svg PUBLIC "-//W3C//DTD SVG 1.1//EN"
  "http://www.w3.org/Graphics/SVG/1.1/DTD/svg11.dtd">
<svg xmlns:xlink="http://www.w3.org/1999/xlink" width="856.8pt" height="568.715625pt" viewBox="0 0 856.8 568.715625" xmlns="http://www.w3.org/2000/svg" version="1.1">
 <metadata>
  <rdf:RDF xmlns:dc="http://purl.org/dc/elements/1.1/" xmlns:cc="http://creativecommons.org/ns#" xmlns:rdf="http://www.w3.org/1999/02/22-rdf-syntax-ns#">
   <cc:Work>
    <dc:type rdf:resource="http://purl.org/dc/dcmitype/StillImage"/>
    <dc:date>2025-12-29T10:49:50.268933</dc:date>
    <dc:format>image/svg+xml</dc:format>
    <dc:creator>
     <cc:Agent>
      <dc:title>Matplotlib v3.10.1, https://matplotlib.org/</dc:title>
     </cc:Agent>
    </dc:creator>
   </cc:Work>
  </rdf:RDF>
 </metadata>
 <defs>
  <style type="text/css">*{stroke-linejoin: round; stroke-linecap: butt}</style>
 </defs>
 <g id="figure_1">
  <g id="patch_1">
   <path d="M 0 568.715625 
L 856.8 568.715625 
L 856.8 0 
L 0 0 
z
" style="fill: #f8f9fa"/>
  </g>
  <g id="axes_1">
   <g id="patch_2">
    <path d="M 74.592 425.015625 
L 276.768 425.015625 
Q 293.616 425.015625 293.616 412.015625 
L 293.616 256.015625 
Q 293.616 243.015625 276.768 243.015625 
L 74.592 243.015625 
Q 57.744 243.015625 57.744 256.015625 
L 57.744 412.015625 
Q 57.744 425.015625 74.592 425.015625 
z
" clip-path="url(#pe8e0c7784a)" style="fill: #2e86ab; opacity: 0.8; stroke: #000000; stroke-width: 2; stroke-linejoin: miter"/>
   </g>
   <g id="patch_3">
    <path d="M 327.312 425.015625 
L 529.488 425.015625 
Q 546.336 425.015625 546.336 412.015625 
L 546.336 256.015625 
Q 546.336 243.015625 529.488 243.015625 
L 327.312 243.015625 
Q 310.464 243.015625 310.464 256.015625 
L 310.464 412.015625 
Q 310.464 425.015625 327.312 425.015625 
z
" clip-path="url(#pe8e0c7784a)" style="fill: #06a77d; opacity: 0.8; stroke: #000000; stroke-width: 2; stroke-linejoin: miter"/>
   </g>
   <g id="patch_4">
    <path d="M 580.032 425.015625 
L 782.208 425.015625 
Q 799.056 425.015625 799.056 412.015625 
L 799.056 256.015625 
Q 799.056 243.015625 782.208 243.015625 
L 580.032 243.015625 
Q 563.184 243.015625 563.184 256.015625 
L 563.184 412.015625 
Q 563.184 425.015625 580.032 425.015625 
z
" clip-path="url(#pe8e0c7784a)" style="fill: #e63946; opacity: 0.8; stroke: #000000; stroke-width: 2; stroke-linejoin: miter"/>
   </g>
   <g id="text_1">
    <!-- Total Loss = w1*Lbox + w2*Lobj + w3*Lclass -->
    <g transform="translate(238.26375 93.515625) scale(0.18 -0.18)">
     <defs>
      <path id="Arial-BoldMT-54" d="M 1497 0 
L 1497 3806 
L 138 3806 
L 138 4581 
L 3778 4581 
L 3778 3806 
L 2422 3806 
L 2422 0 
L 1497 0 
z
" transform="scale(0.015625)"/>
      <path id="Arial-BoldMT-6f" d="M 256 1706 
Q 256 2144 472 2553 
Q 688 2963 1083 3178 
Q 1478 3394 1966 3394 
Q 2719 3394 3200 2905 
Q 3681 2416 3681 1669 
Q 3681 916 3195 420 
Q 2709 -75 1972 -75 
Q 1516 -75 1102 131 
Q 688 338 472 736 
Q 256 1134 256 1706 
z
M 1156 1659 
Q 1156 1166 1390 903 
Q 1625 641 1969 641 
Q 2313 641 2545 903 
Q 2778 1166 2778 1666 
Q 2778 2153 2545 2415 
Q 2313 2678 1969 2678 
Q 1625 2678 1390 2415 
Q 1156 2153 1156 1659 
z
" transform="scale(0.015625)"/>
      <path id="Arial-BoldMT-74" d="M 1981 3319 
L 1981 2619 
L 1381 2619 
L 1381 1281 
Q 1381 875 1398 808 
Q 1416 741 1477 697 
Q 1538 653 1625 653 
Q 1747 653 1978 738 
L 2053 56 
Q 1747 -75 1359 -75 
Q 1122 -75 931 4 
Q 741 84 652 211 
Q 563 338 528 553 
Q 500 706 500 1172 
L 500 2619 
L 97 2619 
L 97 3319 
L 500 3319 
L 500 3978 
L 1381 4491 
L 1381 3319 
L 1981 3319 
z
" transform="scale(0.015625)"/>
      <path id="Arial-BoldMT-61" d="M 1116 2306 
L 319 2450 
Q 453 2931 781 3162 
Q 1109 3394 1756 3394 
Q 2344 3394 2631 3255 
Q 2919 3116 3036 2902 
Q 3153 2688 3153 2116 
L 3144 1091 
Q 3144 653 3186 445 
Q 3228 238 3344 0 
L 2475 0 
Q 2441 88 2391 259 
Q 2369 338 2359 363 
Q 2134 144 1878 34 
Q 1622 -75 1331 -75 
Q 819 -75 523 203 
Q 228 481 228 906 
Q 228 1188 362 1408 
Q 497 1628 739 1745 
Q 981 1863 1438 1950 
Q 2053 2066 2291 2166 
L 2291 2253 
Q 2291 2506 2166 2614 
Q 2041 2722 1694 2722 
Q 1459 2722 1328 2630 
Q 1197 2538 1116 2306 
z
M 2291 1594 
Q 2122 1538 1756 1459 
Q 1391 1381 1278 1306 
Q 1106 1184 1106 997 
Q 1106 813 1243 678 
Q 1381 544 1594 544 
Q 1831 544 2047 700 
Q 2206 819 2256 991 
Q 2291 1103 2291 1419 
L 2291 1594 
z
" transform="scale(0.015625)"/>
      <path id="Arial-BoldMT-6c" d="M 459 0 
L 459 4581 
L 1338 4581 
L 1338 0 
L 459 0 
z
" transform="scale(0.015625)"/>
      <path id="Arial-BoldMT-20" transform="scale(0.015625)"/>
      <path id="Arial-BoldMT-4c" d="M 491 0 
L 491 4544 
L 1416 4544 
L 1416 772 
L 3716 772 
L 3716 0 
L 491 0 
z
" transform="scale(0.015625)"/>
      <path id="Arial-BoldMT-73" d="M 150 947 
L 1031 1081 
Q 1088 825 1259 692 
Q 1431 559 1741 559 
Q 2081 559 2253 684 
Q 2369 772 2369 919 
Q 2369 1019 2306 1084 
Q 2241 1147 2013 1200 
Q 950 1434 666 1628 
Q 272 1897 272 2375 
Q 272 2806 612 3100 
Q 953 3394 1669 3394 
Q 2350 3394 2681 3172 
Q 3013 2950 3138 2516 
L 2309 2363 
Q 2256 2556 2107 2659 
Q 1959 2763 1684 2763 
Q 1338 2763 1188 2666 
Q 1088 2597 1088 2488 
Q 1088 2394 1175 2328 
Q 1294 2241 1995 2081 
Q 2697 1922 2975 1691 
Q 3250 1456 3250 1038 
Q 3250 581 2869 253 
Q 2488 -75 1741 -75 
Q 1063 -75 667 200 
Q 272 475 150 947 
z
" transform="scale(0.015625)"/>
      <path id="Arial-BoldMT-3d" d="M 266 2550 
L 266 3356 
L 3469 3356 
L 3469 2550 
L 266 2550 
z
M 266 1163 
L 266 1972 
L 3469 1972 
L 3469 1163 
L 266 1163 
z
" transform="scale(0.015625)"/>
      <path id="Arial-BoldMT-77" d="M 1078 0 
L 28 3319 
L 881 3319 
L 1503 1144 
L 2075 3319 
L 2922 3319 
L 3475 1144 
L 4109 3319 
L 4975 3319 
L 3909 0 
L 3066 0 
L 2494 2134 
L 1931 0 
L 1078 0 
z
" transform="scale(0.015625)"/>
      <path id="Arial-BoldMT-31" d="M 2519 0 
L 1641 0 
L 1641 3309 
Q 1159 2859 506 2644 
L 506 3441 
Q 850 3553 1253 3867 
Q 1656 4181 1806 4600 
L 2519 4600 
L 2519 0 
z
" transform="scale(0.015625)"/>
      <path id="Arial-BoldMT-2a" d="M 766 2475 
L 294 2841 
Q 519 3094 763 3325 
Q 859 3419 884 3444 
Q 806 3456 438 3547 
Q 172 3613 88 3644 
L 272 4194 
Q 681 4028 1003 3828 
Q 928 4338 928 4659 
L 1484 4659 
Q 1484 4431 1400 3822 
Q 1463 3847 1669 3944 
Q 1950 4072 2188 4163 
L 2353 3597 
Q 2006 3519 1550 3444 
L 1925 3022 
Q 2038 2894 2103 2813 
L 1625 2497 
L 1203 3194 
Q 1013 2856 766 2475 
z
" transform="scale(0.015625)"/>
      <path id="Arial-BoldMT-62" d="M 422 0 
L 422 4581 
L 1300 4581 
L 1300 2931 
Q 1706 3394 2263 3394 
Q 2869 3394 3266 2955 
Q 3663 2516 3663 1694 
Q 3663 844 3258 384 
Q 2853 -75 2275 -75 
Q 1991 -75 1714 67 
Q 1438 209 1238 488 
L 1238 0 
L 422 0 
z
M 1294 1731 
Q 1294 1216 1456 969 
Q 1684 619 2063 619 
Q 2353 619 2558 867 
Q 2763 1116 2763 1650 
Q 2763 2219 2556 2470 
Q 2350 2722 2028 2722 
Q 1713 2722 1503 2476 
Q 1294 2231 1294 1731 
z
" transform="scale(0.015625)"/>
      <path id="Arial-BoldMT-78" d="M 38 0 
L 1234 1709 
L 88 3319 
L 1159 3319 
L 1747 2406 
L 2366 3319 
L 3397 3319 
L 2272 1747 
L 3500 0 
L 2422 0 
L 1747 1028 
L 1066 0 
L 38 0 
z
" transform="scale(0.015625)"/>
      <path id="Arial-BoldMT-2b" d="M 1466 659 
L 1466 1850 
L 266 1850 
L 266 2672 
L 1466 2672 
L 1466 3863 
L 2266 3863 
L 2266 2672 
L 3469 2672 
L 3469 1850 
L 2266 1850 
L 2266 659 
L 1466 659 
z
" transform="scale(0.015625)"/>
      <path id="Arial-BoldMT-32" d="M 3238 816 
L 3238 0 
L 159 0 
Q 209 463 459 877 
Q 709 1291 1447 1975 
Q 2041 2528 2175 2725 
Q 2356 2997 2356 3263 
Q 2356 3556 2198 3714 
Q 2041 3872 1763 3872 
Q 1488 3872 1325 3706 
Q 1163 3541 1138 3156 
L 263 3244 
Q 341 3969 753 4284 
Q 1166 4600 1784 4600 
Q 2463 4600 2850 4234 
Q 3238 3869 3238 3325 
Q 3238 3016 3127 2736 
Q 3016 2456 2775 2150 
Q 2616 1947 2200 1565 
Q 1784 1184 1673 1059 
Q 1563 934 1494 816 
L 3238 816 
z
" transform="scale(0.015625)"/>
      <path id="Arial-BoldMT-6a" d="M 441 3769 
L 441 4581 
L 1319 4581 
L 1319 3769 
L 441 3769 
z
M 1319 3319 
L 1319 103 
Q 1319 -531 1236 -792 
Q 1153 -1053 917 -1200 
Q 681 -1347 316 -1347 
Q 184 -1347 32 -1323 
Q -119 -1300 -294 -1253 
L -141 -503 
Q -78 -516 -23 -523 
Q 31 -531 78 -531 
Q 213 -531 298 -473 
Q 384 -416 412 -334 
Q 441 -253 441 153 
L 441 3319 
L 1319 3319 
z
" transform="scale(0.015625)"/>
      <path id="Arial-BoldMT-33" d="M 241 1216 
L 1091 1319 
Q 1131 994 1309 822 
Q 1488 650 1741 650 
Q 2013 650 2198 856 
Q 2384 1063 2384 1413 
Q 2384 1744 2206 1937 
Q 2028 2131 1772 2131 
Q 1603 2131 1369 2066 
L 1466 2781 
Q 1822 2772 2009 2936 
Q 2197 3100 2197 3372 
Q 2197 3603 2059 3740 
Q 1922 3878 1694 3878 
Q 1469 3878 1309 3722 
Q 1150 3566 1116 3266 
L 306 3403 
Q 391 3819 561 4067 
Q 731 4316 1036 4458 
Q 1341 4600 1719 4600 
Q 2366 4600 2756 4188 
Q 3078 3850 3078 3425 
Q 3078 2822 2419 2463 
Q 2813 2378 3048 2084 
Q 3284 1791 3284 1375 
Q 3284 772 2843 347 
Q 2403 -78 1747 -78 
Q 1125 -78 715 280 
Q 306 638 241 1216 
z
" transform="scale(0.015625)"/>
      <path id="Arial-BoldMT-63" d="M 3353 2338 
L 2488 2181 
Q 2444 2441 2289 2572 
Q 2134 2703 1888 2703 
Q 1559 2703 1364 2476 
Q 1169 2250 1169 1719 
Q 1169 1128 1367 884 
Q 1566 641 1900 641 
Q 2150 641 2309 783 
Q 2469 925 2534 1272 
L 3397 1125 
Q 3263 531 2881 228 
Q 2500 -75 1859 -75 
Q 1131 -75 698 384 
Q 266 844 266 1656 
Q 266 2478 700 2936 
Q 1134 3394 1875 3394 
Q 2481 3394 2839 3133 
Q 3197 2872 3353 2338 
z
" transform="scale(0.015625)"/>
     </defs>
     <use xlink:href="#Arial-BoldMT-54"/>
     <use xlink:href="#Arial-BoldMT-6f" transform="translate(53.708984 0)"/>
     <use xlink:href="#Arial-BoldMT-74" transform="translate(114.792969 0)"/>
     <use xlink:href="#Arial-BoldMT-61" transform="translate(148.09375 0)"/>
     <use xlink:href="#Arial-BoldMT-6c" transform="translate(203.708984 0)"/>
     <use xlink:href="#Arial-BoldMT-20" transform="translate(231.492188 0)"/>
     <use xlink:href="#Arial-BoldMT-4c" transform="translate(259.275391 0)"/>
     <use xlink:href="#Arial-BoldMT-6f" transform="translate(320.359375 0)"/>
     <use xlink:href="#Arial-BoldMT-73" transform="translate(381.443359 0)"/>
     <use xlink:href="#Arial-BoldMT-73" transform="translate(437.058594 0)"/>
     <use xlink:href="#Arial-BoldMT-20" transform="translate(492.673828 0)"/>
     <use xlink:href="#Arial-BoldMT-3d" transform="translate(520.457031 0)"/>
     <use xlink:href="#Arial-BoldMT-20" transform="translate(578.855469 0)"/>
     <use xlink:href="#Arial-BoldMT-77" transform="translate(606.638672 0)"/>
     <use xlink:href="#Arial-BoldMT-31" transform="translate(684.421875 0)"/>
     <use xlink:href="#Arial-BoldMT-2a" transform="translate(740.037109 0)"/>
     <use xlink:href="#Arial-BoldMT-4c" transform="translate(778.953125 0)"/>
     <use xlink:href="#Arial-BoldMT-62" transform="translate(840.037109 0)"/>
     <use xlink:href="#Arial-BoldMT-6f" transform="translate(901.121094 0)"/>
     <use xlink:href="#Arial-BoldMT-78" transform="translate(962.205078 0)"/>
     <use xlink:href="#Arial-BoldMT-20" transform="translate(1017.820312 0)"/>
     <use xlink:href="#Arial-BoldMT-2b" transform="translate(1045.603516 0)"/>
     <use xlink:href="#Arial-BoldMT-20" transform="translate(1104.001953 0)"/>
     <use xlink:href="#Arial-BoldMT-77" transform="translate(1131.785156 0)"/>
     <use xlink:href="#Arial-BoldMT-32" transform="translate(1209.568359 0)"/>
     <use xlink:href="#Arial-BoldMT-2a" transform="translate(1265.183594 0)"/>
     <use xlink:href="#Arial-BoldMT-4c" transform="translate(1304.099609 0)"/>
     <use xlink:href="#Arial-BoldMT-6f" transform="translate(1365.183594 0)"/>
     <use xlink:href="#Arial-BoldMT-62" transform="translate(1426.267578 0)"/>
     <use xlink:href="#Arial-BoldMT-6a" transform="translate(1487.351562 0)"/>
     <use xlink:href="#Arial-BoldMT-20" transform="translate(1515.134766 0)"/>
     <use xlink:href="#Arial-BoldMT-2b" transform="translate(1542.917969 0)"/>
     <use xlink:href="#Arial-BoldMT-20" transform="translate(1601.316406 0)"/>
     <use xlink:href="#Arial-BoldMT-77" transform="translate(1629.099609 0)"/>
     <use xlink:href="#Arial-BoldMT-33" transform="translate(1706.882812 0)"/>
     <use xlink:href="#Arial-BoldMT-2a" transform="translate(1762.498047 0)"/>
     <use xlink:href="#Arial-BoldMT-4c" transform="translate(1801.414062 0)"/>
     <use xlink:href="#Arial-BoldMT-63" transform="translate(1862.498047 0)"/>
     <use xlink:href="#Arial-BoldMT-6c" transform="translate(1918.113281 0)"/>
     <use xlink:href="#Arial-BoldMT-61" transform="translate(1945.896484 0)"/>
     <use xlink:href="#Arial-BoldMT-73" transform="translate(2001.511719 0)"/>
     <use xlink:href="#Arial-BoldMT-73" transform="translate(2057.126953 0)"/>
    </g>
   </g>
   <g id="text_2">
    <!-- Lbox -->
    <g style="fill: #ffffff" transform="translate(161.349375 317.788562) scale(0.12 -0.12)">
     <use xlink:href="#Arial-BoldMT-4c"/>
     <use xlink:href="#Arial-BoldMT-62" transform="translate(61.083984 0)"/>
     <use xlink:href="#Arial-BoldMT-6f" transform="translate(122.167969 0)"/>
     <use xlink:href="#Arial-BoldMT-78" transform="translate(183.251953 0)"/>
    </g>
    <!-- Localization Loss -->
    <g style="fill: #ffffff" transform="translate(125.34375 330.463937) scale(0.12 -0.12)">
     <defs>
      <path id="Arial-BoldMT-69" d="M 459 3769 
L 459 4581 
L 1338 4581 
L 1338 3769 
L 459 3769 
z
M 459 0 
L 459 3319 
L 1338 3319 
L 1338 0 
L 459 0 
z
" transform="scale(0.015625)"/>
      <path id="Arial-BoldMT-7a" d="M 106 0 
L 106 684 
L 1350 2113 
Q 1656 2463 1803 2609 
Q 1650 2600 1400 2597 
L 228 2591 
L 228 3319 
L 2972 3319 
L 2972 2697 
L 1703 1234 
L 1256 750 
Q 1622 772 1709 772 
L 3069 772 
L 3069 0 
L 106 0 
z
" transform="scale(0.015625)"/>
      <path id="Arial-BoldMT-6e" d="M 3478 0 
L 2600 0 
L 2600 1694 
Q 2600 2231 2544 2389 
Q 2488 2547 2361 2634 
Q 2234 2722 2056 2722 
Q 1828 2722 1647 2597 
Q 1466 2472 1398 2265 
Q 1331 2059 1331 1503 
L 1331 0 
L 453 0 
L 453 3319 
L 1269 3319 
L 1269 2831 
Q 1703 3394 2363 3394 
Q 2653 3394 2893 3289 
Q 3134 3184 3257 3021 
Q 3381 2859 3429 2653 
Q 3478 2447 3478 2063 
L 3478 0 
z
" transform="scale(0.015625)"/>
     </defs>
     <use xlink:href="#Arial-BoldMT-4c"/>
     <use xlink:href="#Arial-BoldMT-6f" transform="translate(61.083984 0)"/>
     <use xlink:href="#Arial-BoldMT-63" transform="translate(122.167969 0)"/>
     <use xlink:href="#Arial-BoldMT-61" transform="translate(177.783203 0)"/>
     <use xlink:href="#Arial-BoldMT-6c" transform="translate(233.398438 0)"/>
     <use xlink:href="#Arial-BoldMT-69" transform="translate(261.181641 0)"/>
     <use xlink:href="#Arial-BoldMT-7a" transform="translate(288.964844 0)"/>
     <use xlink:href="#Arial-BoldMT-61" transform="translate(338.964844 0)"/>
     <use xlink:href="#Arial-BoldMT-74" transform="translate(394.580078 0)"/>
     <use xlink:href="#Arial-BoldMT-69" transform="translate(427.880859 0)"/>
     <use xlink:href="#Arial-BoldMT-6f" transform="translate(455.664062 0)"/>
     <use xlink:href="#Arial-BoldMT-6e" transform="translate(516.748047 0)"/>
     <use xlink:href="#Arial-BoldMT-20" transform="translate(577.832031 0)"/>
     <use xlink:href="#Arial-BoldMT-4c" transform="translate(605.615234 0)"/>
     <use xlink:href="#Arial-BoldMT-6f" transform="translate(666.699219 0)"/>
     <use xlink:href="#Arial-BoldMT-73" transform="translate(727.783203 0)"/>
     <use xlink:href="#Arial-BoldMT-73" transform="translate(783.398438 0)"/>
    </g>
   </g>
   <g id="text_3">
    <!-- Is the box in the -->
    <g transform="translate(140.382344 178.187812) scale(0.1 -0.1)">
     <defs>
      <path id="ArialMT-49" d="M 597 0 
L 597 4581 
L 1203 4581 
L 1203 0 
L 597 0 
z
" transform="scale(0.015625)"/>
      <path id="ArialMT-73" d="M 197 991 
L 753 1078 
Q 800 744 1014 566 
Q 1228 388 1613 388 
Q 2000 388 2187 545 
Q 2375 703 2375 916 
Q 2375 1106 2209 1216 
Q 2094 1291 1634 1406 
Q 1016 1563 777 1677 
Q 538 1791 414 1992 
Q 291 2194 291 2438 
Q 291 2659 392 2848 
Q 494 3038 669 3163 
Q 800 3259 1026 3326 
Q 1253 3394 1513 3394 
Q 1903 3394 2198 3281 
Q 2494 3169 2634 2976 
Q 2775 2784 2828 2463 
L 2278 2388 
Q 2241 2644 2061 2787 
Q 1881 2931 1553 2931 
Q 1166 2931 1000 2803 
Q 834 2675 834 2503 
Q 834 2394 903 2306 
Q 972 2216 1119 2156 
Q 1203 2125 1616 2013 
Q 2213 1853 2448 1751 
Q 2684 1650 2818 1456 
Q 2953 1263 2953 975 
Q 2953 694 2789 445 
Q 2625 197 2315 61 
Q 2006 -75 1616 -75 
Q 969 -75 630 194 
Q 291 463 197 991 
z
" transform="scale(0.015625)"/>
      <path id="ArialMT-20" transform="scale(0.015625)"/>
      <path id="ArialMT-74" d="M 1650 503 
L 1731 6 
Q 1494 -44 1306 -44 
Q 1000 -44 831 53 
Q 663 150 594 308 
Q 525 466 525 972 
L 525 2881 
L 113 2881 
L 113 3319 
L 525 3319 
L 525 4141 
L 1084 4478 
L 1084 3319 
L 1650 3319 
L 1650 2881 
L 1084 2881 
L 1084 941 
Q 1084 700 1114 631 
Q 1144 563 1211 522 
Q 1278 481 1403 481 
Q 1497 481 1650 503 
z
" transform="scale(0.015625)"/>
      <path id="ArialMT-68" d="M 422 0 
L 422 4581 
L 984 4581 
L 984 2938 
Q 1378 3394 1978 3394 
Q 2347 3394 2619 3248 
Q 2891 3103 3008 2847 
Q 3125 2591 3125 2103 
L 3125 0 
L 2563 0 
L 2563 2103 
Q 2563 2525 2380 2717 
Q 2197 2909 1863 2909 
Q 1613 2909 1392 2779 
Q 1172 2650 1078 2428 
Q 984 2206 984 1816 
L 984 0 
L 422 0 
z
" transform="scale(0.015625)"/>
      <path id="ArialMT-65" d="M 2694 1069 
L 3275 997 
Q 3138 488 2766 206 
Q 2394 -75 1816 -75 
Q 1088 -75 661 373 
Q 234 822 234 1631 
Q 234 2469 665 2931 
Q 1097 3394 1784 3394 
Q 2450 3394 2872 2941 
Q 3294 2488 3294 1666 
Q 3294 1616 3291 1516 
L 816 1516 
Q 847 969 1125 678 
Q 1403 388 1819 388 
Q 2128 388 2347 550 
Q 2566 713 2694 1069 
z
M 847 1978 
L 2700 1978 
Q 2663 2397 2488 2606 
Q 2219 2931 1791 2931 
Q 1403 2931 1139 2672 
Q 875 2413 847 1978 
z
" transform="scale(0.015625)"/>
      <path id="ArialMT-62" d="M 941 0 
L 419 0 
L 419 4581 
L 981 4581 
L 981 2947 
Q 1338 3394 1891 3394 
Q 2197 3394 2470 3270 
Q 2744 3147 2920 2923 
Q 3097 2700 3197 2384 
Q 3297 2069 3297 1709 
Q 3297 856 2875 390 
Q 2453 -75 1863 -75 
Q 1275 -75 941 416 
L 941 0 
z
M 934 1684 
Q 934 1088 1097 822 
Q 1363 388 1816 388 
Q 2184 388 2453 708 
Q 2722 1028 2722 1663 
Q 2722 2313 2464 2622 
Q 2206 2931 1841 2931 
Q 1472 2931 1203 2611 
Q 934 2291 934 1684 
z
" transform="scale(0.015625)"/>
      <path id="ArialMT-6f" d="M 213 1659 
Q 213 2581 725 3025 
Q 1153 3394 1769 3394 
Q 2453 3394 2887 2945 
Q 3322 2497 3322 1706 
Q 3322 1066 3130 698 
Q 2938 331 2570 128 
Q 2203 -75 1769 -75 
Q 1072 -75 642 372 
Q 213 819 213 1659 
z
M 791 1659 
Q 791 1022 1069 705 
Q 1347 388 1769 388 
Q 2188 388 2466 706 
Q 2744 1025 2744 1678 
Q 2744 2294 2464 2611 
Q 2184 2928 1769 2928 
Q 1347 2928 1069 2612 
Q 791 2297 791 1659 
z
" transform="scale(0.015625)"/>
      <path id="ArialMT-78" d="M 47 0 
L 1259 1725 
L 138 3319 
L 841 3319 
L 1350 2541 
Q 1494 2319 1581 2169 
Q 1719 2375 1834 2534 
L 2394 3319 
L 3066 3319 
L 1919 1756 
L 3153 0 
L 2463 0 
L 1781 1031 
L 1600 1309 
L 728 0 
L 47 0 
z
" transform="scale(0.015625)"/>
      <path id="ArialMT-69" d="M 425 3934 
L 425 4581 
L 988 4581 
L 988 3934 
L 425 3934 
z
M 425 0 
L 425 3319 
L 988 3319 
L 988 0 
L 425 0 
z
" transform="scale(0.015625)"/>
      <path id="ArialMT-6e" d="M 422 0 
L 422 3319 
L 928 3319 
L 928 2847 
Q 1294 3394 1984 3394 
Q 2284 3394 2536 3286 
Q 2788 3178 2913 3003 
Q 3038 2828 3088 2588 
Q 3119 2431 3119 2041 
L 3119 0 
L 2556 0 
L 2556 2019 
Q 2556 2363 2490 2533 
Q 2425 2703 2258 2804 
Q 2091 2906 1866 2906 
Q 1506 2906 1245 2678 
Q 984 2450 984 1813 
L 984 0 
L 422 0 
z
" transform="scale(0.015625)"/>
     </defs>
     <use xlink:href="#ArialMT-49"/>
     <use xlink:href="#ArialMT-73" transform="translate(27.783203 0)"/>
     <use xlink:href="#ArialMT-20" transform="translate(77.783203 0)"/>
     <use xlink:href="#ArialMT-74" transform="translate(105.566406 0)"/>
     <use xlink:href="#ArialMT-68" transform="translate(133.349609 0)"/>
     <use xlink:href="#ArialMT-65" transform="translate(188.964844 0)"/>
     <use xlink:href="#ArialMT-20" transform="translate(244.580078 0)"/>
     <use xlink:href="#ArialMT-62" transform="translate(272.363281 0)"/>
     <use xlink:href="#ArialMT-6f" transform="translate(327.978516 0)"/>
     <use xlink:href="#ArialMT-78" transform="translate(383.59375 0)"/>
     <use xlink:href="#ArialMT-20" transform="translate(433.59375 0)"/>
     <use xlink:href="#ArialMT-69" transform="translate(461.376953 0)"/>
     <use xlink:href="#ArialMT-6e" transform="translate(483.59375 0)"/>
     <use xlink:href="#ArialMT-20" transform="translate(539.208984 0)"/>
     <use xlink:href="#ArialMT-74" transform="translate(566.992188 0)"/>
     <use xlink:href="#ArialMT-68" transform="translate(594.775391 0)"/>
     <use xlink:href="#ArialMT-65" transform="translate(650.390625 0)"/>
    </g>
    <!-- right place? -->
    <g transform="translate(149.832344 188.910937) scale(0.1 -0.1)">
     <defs>
      <path id="ArialMT-72" d="M 416 0 
L 416 3319 
L 922 3319 
L 922 2816 
Q 1116 3169 1280 3281 
Q 1444 3394 1641 3394 
Q 1925 3394 2219 3213 
L 2025 2691 
Q 1819 2813 1613 2813 
Q 1428 2813 1281 2702 
Q 1134 2591 1072 2394 
Q 978 2094 978 1738 
L 978 0 
L 416 0 
z
" transform="scale(0.015625)"/>
      <path id="ArialMT-67" d="M 319 -275 
L 866 -356 
Q 900 -609 1056 -725 
Q 1266 -881 1628 -881 
Q 2019 -881 2231 -725 
Q 2444 -569 2519 -288 
Q 2563 -116 2559 434 
Q 2191 0 1641 0 
Q 956 0 581 494 
Q 206 988 206 1678 
Q 206 2153 378 2554 
Q 550 2956 876 3175 
Q 1203 3394 1644 3394 
Q 2231 3394 2613 2919 
L 2613 3319 
L 3131 3319 
L 3131 450 
Q 3131 -325 2973 -648 
Q 2816 -972 2473 -1159 
Q 2131 -1347 1631 -1347 
Q 1038 -1347 672 -1080 
Q 306 -813 319 -275 
z
M 784 1719 
Q 784 1066 1043 766 
Q 1303 466 1694 466 
Q 2081 466 2343 764 
Q 2606 1063 2606 1700 
Q 2606 2309 2336 2618 
Q 2066 2928 1684 2928 
Q 1309 2928 1046 2623 
Q 784 2319 784 1719 
z
" transform="scale(0.015625)"/>
      <path id="ArialMT-70" d="M 422 -1272 
L 422 3319 
L 934 3319 
L 934 2888 
Q 1116 3141 1344 3267 
Q 1572 3394 1897 3394 
Q 2322 3394 2647 3175 
Q 2972 2956 3137 2557 
Q 3303 2159 3303 1684 
Q 3303 1175 3120 767 
Q 2938 359 2589 142 
Q 2241 -75 1856 -75 
Q 1575 -75 1351 44 
Q 1128 163 984 344 
L 984 -1272 
L 422 -1272 
z
M 931 1641 
Q 931 1000 1190 694 
Q 1450 388 1819 388 
Q 2194 388 2461 705 
Q 2728 1022 2728 1688 
Q 2728 2322 2467 2637 
Q 2206 2953 1844 2953 
Q 1484 2953 1207 2617 
Q 931 2281 931 1641 
z
" transform="scale(0.015625)"/>
      <path id="ArialMT-6c" d="M 409 0 
L 409 4581 
L 972 4581 
L 972 0 
L 409 0 
z
" transform="scale(0.015625)"/>
      <path id="ArialMT-61" d="M 2588 409 
Q 2275 144 1986 34 
Q 1697 -75 1366 -75 
Q 819 -75 525 192 
Q 231 459 231 875 
Q 231 1119 342 1320 
Q 453 1522 633 1644 
Q 813 1766 1038 1828 
Q 1203 1872 1538 1913 
Q 2219 1994 2541 2106 
Q 2544 2222 2544 2253 
Q 2544 2597 2384 2738 
Q 2169 2928 1744 2928 
Q 1347 2928 1158 2789 
Q 969 2650 878 2297 
L 328 2372 
Q 403 2725 575 2942 
Q 747 3159 1072 3276 
Q 1397 3394 1825 3394 
Q 2250 3394 2515 3294 
Q 2781 3194 2906 3042 
Q 3031 2891 3081 2659 
Q 3109 2516 3109 2141 
L 3109 1391 
Q 3109 606 3145 398 
Q 3181 191 3288 0 
L 2700 0 
Q 2613 175 2588 409 
z
M 2541 1666 
Q 2234 1541 1622 1453 
Q 1275 1403 1131 1340 
Q 988 1278 909 1158 
Q 831 1038 831 891 
Q 831 666 1001 516 
Q 1172 366 1500 366 
Q 1825 366 2078 508 
Q 2331 650 2450 897 
Q 2541 1088 2541 1459 
L 2541 1666 
z
" transform="scale(0.015625)"/>
      <path id="ArialMT-63" d="M 2588 1216 
L 3141 1144 
Q 3050 572 2676 248 
Q 2303 -75 1759 -75 
Q 1078 -75 664 370 
Q 250 816 250 1647 
Q 250 2184 428 2587 
Q 606 2991 970 3192 
Q 1334 3394 1763 3394 
Q 2303 3394 2647 3120 
Q 2991 2847 3088 2344 
L 2541 2259 
Q 2463 2594 2264 2762 
Q 2066 2931 1784 2931 
Q 1359 2931 1093 2626 
Q 828 2322 828 1663 
Q 828 994 1084 691 
Q 1341 388 1753 388 
Q 2084 388 2306 591 
Q 2528 794 2588 1216 
z
" transform="scale(0.015625)"/>
      <path id="ArialMT-3f" d="M 1475 1128 
Q 1472 1241 1472 1297 
Q 1472 1628 1566 1869 
Q 1634 2050 1788 2234 
Q 1900 2369 2192 2626 
Q 2484 2884 2571 3037 
Q 2659 3191 2659 3372 
Q 2659 3700 2403 3948 
Q 2147 4197 1775 4197 
Q 1416 4197 1175 3972 
Q 934 3747 859 3269 
L 281 3338 
Q 359 3978 745 4318 
Q 1131 4659 1766 4659 
Q 2438 4659 2838 4293 
Q 3238 3928 3238 3409 
Q 3238 3109 3097 2856 
Q 2956 2603 2547 2241 
Q 2272 1997 2187 1881 
Q 2103 1766 2062 1616 
Q 2022 1466 2016 1128 
L 1475 1128 
z
M 1441 0 
L 1441 641 
L 2081 641 
L 2081 0 
L 1441 0 
z
" transform="scale(0.015625)"/>
     </defs>
     <use xlink:href="#ArialMT-72"/>
     <use xlink:href="#ArialMT-69" transform="translate(33.300781 0)"/>
     <use xlink:href="#ArialMT-67" transform="translate(55.517578 0)"/>
     <use xlink:href="#ArialMT-68" transform="translate(111.132812 0)"/>
     <use xlink:href="#ArialMT-74" transform="translate(166.748047 0)"/>
     <use xlink:href="#ArialMT-20" transform="translate(194.53125 0)"/>
     <use xlink:href="#ArialMT-70" transform="translate(222.314453 0)"/>
     <use xlink:href="#ArialMT-6c" transform="translate(277.929688 0)"/>
     <use xlink:href="#ArialMT-61" transform="translate(300.146484 0)"/>
     <use xlink:href="#ArialMT-63" transform="translate(355.761719 0)"/>
     <use xlink:href="#ArialMT-65" transform="translate(405.761719 0)"/>
     <use xlink:href="#ArialMT-3f" transform="translate(461.376953 0)"/>
    </g>
   </g>
   <g id="text_4">
    <!-- Lobj -->
    <g style="fill: #ffffff" transform="translate(415.739062 317.543312) scale(0.12 -0.12)">
     <use xlink:href="#Arial-BoldMT-4c"/>
     <use xlink:href="#Arial-BoldMT-6f" transform="translate(61.083984 0)"/>
     <use xlink:href="#Arial-BoldMT-62" transform="translate(122.167969 0)"/>
     <use xlink:href="#Arial-BoldMT-6a" transform="translate(183.251953 0)"/>
    </g>
    <!-- Objectness Loss -->
    <g style="fill: #ffffff" transform="translate(380.386875 330.551687) scale(0.12 -0.12)">
     <defs>
      <path id="Arial-BoldMT-4f" d="M 278 2263 
Q 278 2963 488 3438 
Q 644 3788 914 4066 
Q 1184 4344 1506 4478 
Q 1934 4659 2494 4659 
Q 3506 4659 4114 4031 
Q 4722 3403 4722 2284 
Q 4722 1175 4119 548 
Q 3516 -78 2506 -78 
Q 1484 -78 881 545 
Q 278 1169 278 2263 
z
M 1231 2294 
Q 1231 1516 1590 1114 
Q 1950 713 2503 713 
Q 3056 713 3411 1111 
Q 3766 1509 3766 2306 
Q 3766 3094 3420 3481 
Q 3075 3869 2503 3869 
Q 1931 3869 1581 3476 
Q 1231 3084 1231 2294 
z
" transform="scale(0.015625)"/>
      <path id="Arial-BoldMT-65" d="M 2381 1056 
L 3256 909 
Q 3088 428 2723 176 
Q 2359 -75 1813 -75 
Q 947 -75 531 491 
Q 203 944 203 1634 
Q 203 2459 634 2926 
Q 1066 3394 1725 3394 
Q 2466 3394 2894 2905 
Q 3322 2416 3303 1406 
L 1103 1406 
Q 1113 1016 1316 798 
Q 1519 581 1822 581 
Q 2028 581 2168 693 
Q 2309 806 2381 1056 
z
M 2431 1944 
Q 2422 2325 2234 2523 
Q 2047 2722 1778 2722 
Q 1491 2722 1303 2513 
Q 1116 2303 1119 1944 
L 2431 1944 
z
" transform="scale(0.015625)"/>
     </defs>
     <use xlink:href="#Arial-BoldMT-4f"/>
     <use xlink:href="#Arial-BoldMT-62" transform="translate(77.783203 0)"/>
     <use xlink:href="#Arial-BoldMT-6a" transform="translate(138.867188 0)"/>
     <use xlink:href="#Arial-BoldMT-65" transform="translate(166.650391 0)"/>
     <use xlink:href="#Arial-BoldMT-63" transform="translate(222.265625 0)"/>
     <use xlink:href="#Arial-BoldMT-74" transform="translate(277.880859 0)"/>
     <use xlink:href="#Arial-BoldMT-6e" transform="translate(311.181641 0)"/>
     <use xlink:href="#Arial-BoldMT-65" transform="translate(372.265625 0)"/>
     <use xlink:href="#Arial-BoldMT-73" transform="translate(427.880859 0)"/>
     <use xlink:href="#Arial-BoldMT-73" transform="translate(483.496094 0)"/>
     <use xlink:href="#Arial-BoldMT-20" transform="translate(539.111328 0)"/>
     <use xlink:href="#Arial-BoldMT-4c" transform="translate(566.894531 0)"/>
     <use xlink:href="#Arial-BoldMT-6f" transform="translate(627.978516 0)"/>
     <use xlink:href="#Arial-BoldMT-73" transform="translate(689.0625 0)"/>
     <use xlink:href="#Arial-BoldMT-73" transform="translate(744.677734 0)"/>
    </g>
   </g>
   <g id="text_5">
    <!-- Is there an -->
    <g transform="translate(404.776562 178.187812) scale(0.1 -0.1)">
     <use xlink:href="#ArialMT-49"/>
     <use xlink:href="#ArialMT-73" transform="translate(27.783203 0)"/>
     <use xlink:href="#ArialMT-20" transform="translate(77.783203 0)"/>
     <use xlink:href="#ArialMT-74" transform="translate(105.566406 0)"/>
     <use xlink:href="#ArialMT-68" transform="translate(133.349609 0)"/>
     <use xlink:href="#ArialMT-65" transform="translate(188.964844 0)"/>
     <use xlink:href="#ArialMT-72" transform="translate(244.580078 0)"/>
     <use xlink:href="#ArialMT-65" transform="translate(277.880859 0)"/>
     <use xlink:href="#ArialMT-20" transform="translate(333.496094 0)"/>
     <use xlink:href="#ArialMT-61" transform="translate(361.279297 0)"/>
     <use xlink:href="#ArialMT-6e" transform="translate(416.894531 0)"/>
    </g>
    <!-- object here? -->
    <g transform="translate(400.882812 188.910937) scale(0.1 -0.1)">
     <defs>
      <path id="ArialMT-6a" d="M 419 3928 
L 419 4581 
L 981 4581 
L 981 3928 
L 419 3928 
z
M -294 -1288 
L -188 -809 
Q -19 -853 78 -853 
Q 250 -853 334 -739 
Q 419 -625 419 -169 
L 419 3319 
L 981 3319 
L 981 -181 
Q 981 -794 822 -1034 
Q 619 -1347 147 -1347 
Q -81 -1347 -294 -1288 
z
" transform="scale(0.015625)"/>
     </defs>
     <use xlink:href="#ArialMT-6f"/>
     <use xlink:href="#ArialMT-62" transform="translate(55.615234 0)"/>
     <use xlink:href="#ArialMT-6a" transform="translate(111.230469 0)"/>
     <use xlink:href="#ArialMT-65" transform="translate(133.447266 0)"/>
     <use xlink:href="#ArialMT-63" transform="translate(189.0625 0)"/>
     <use xlink:href="#ArialMT-74" transform="translate(239.0625 0)"/>
     <use xlink:href="#ArialMT-20" transform="translate(266.845703 0)"/>
     <use xlink:href="#ArialMT-68" transform="translate(294.628906 0)"/>
     <use xlink:href="#ArialMT-65" transform="translate(350.244141 0)"/>
     <use xlink:href="#ArialMT-72" transform="translate(405.859375 0)"/>
     <use xlink:href="#ArialMT-65" transform="translate(439.160156 0)"/>
     <use xlink:href="#ArialMT-3f" transform="translate(494.775391 0)"/>
    </g>
   </g>
   <g id="text_6">
    <!-- Lclass -->
    <g style="fill: #ffffff" transform="translate(662.442188 317.788562) scale(0.12 -0.12)">
     <use xlink:href="#Arial-BoldMT-4c"/>
     <use xlink:href="#Arial-BoldMT-63" transform="translate(61.083984 0)"/>
     <use xlink:href="#Arial-BoldMT-6c" transform="translate(116.699219 0)"/>
     <use xlink:href="#Arial-BoldMT-61" transform="translate(144.482422 0)"/>
     <use xlink:href="#Arial-BoldMT-73" transform="translate(200.097656 0)"/>
     <use xlink:href="#Arial-BoldMT-73" transform="translate(255.712891 0)"/>
    </g>
    <!-- Classification Loss -->
    <g style="fill: #ffffff" transform="translate(626.442188 330.463937) scale(0.12 -0.12)">
     <defs>
      <path id="Arial-BoldMT-43" d="M 3397 1684 
L 4294 1400 
Q 4088 650 3608 286 
Q 3128 -78 2391 -78 
Q 1478 -78 890 545 
Q 303 1169 303 2250 
Q 303 3394 893 4026 
Q 1484 4659 2447 4659 
Q 3288 4659 3813 4163 
Q 4125 3869 4281 3319 
L 3366 3100 
Q 3284 3456 3026 3662 
Q 2769 3869 2400 3869 
Q 1891 3869 1573 3503 
Q 1256 3138 1256 2319 
Q 1256 1450 1568 1081 
Q 1881 713 2381 713 
Q 2750 713 3015 947 
Q 3281 1181 3397 1684 
z
" transform="scale(0.015625)"/>
      <path id="Arial-BoldMT-66" d="M 75 3319 
L 563 3319 
L 563 3569 
Q 563 3988 652 4194 
Q 741 4400 980 4529 
Q 1219 4659 1584 4659 
Q 1959 4659 2319 4547 
L 2200 3934 
Q 1991 3984 1797 3984 
Q 1606 3984 1523 3895 
Q 1441 3806 1441 3553 
L 1441 3319 
L 2097 3319 
L 2097 2628 
L 1441 2628 
L 1441 0 
L 563 0 
L 563 2628 
L 75 2628 
L 75 3319 
z
" transform="scale(0.015625)"/>
     </defs>
     <use xlink:href="#Arial-BoldMT-43"/>
     <use xlink:href="#Arial-BoldMT-6c" transform="translate(72.216797 0)"/>
     <use xlink:href="#Arial-BoldMT-61" transform="translate(100 0)"/>
     <use xlink:href="#Arial-BoldMT-73" transform="translate(155.615234 0)"/>
     <use xlink:href="#Arial-BoldMT-73" transform="translate(211.230469 0)"/>
     <use xlink:href="#Arial-BoldMT-69" transform="translate(266.845703 0)"/>
     <use xlink:href="#Arial-BoldMT-66" transform="translate(294.628906 0)"/>
     <use xlink:href="#Arial-BoldMT-69" transform="translate(327.929688 0)"/>
     <use xlink:href="#Arial-BoldMT-63" transform="translate(355.712891 0)"/>
     <use xlink:href="#Arial-BoldMT-61" transform="translate(411.328125 0)"/>
     <use xlink:href="#Arial-BoldMT-74" transform="translate(466.943359 0)"/>
     <use xlink:href="#Arial-BoldMT-69" transform="translate(500.244141 0)"/>
     <use xlink:href="#Arial-BoldMT-6f" transform="translate(528.027344 0)"/>
     <use xlink:href="#Arial-BoldMT-6e" transform="translate(589.111328 0)"/>
     <use xlink:href="#Arial-BoldMT-20" transform="translate(650.195312 0)"/>
     <use xlink:href="#Arial-BoldMT-4c" transform="translate(677.978516 0)"/>
     <use xlink:href="#Arial-BoldMT-6f" transform="translate(739.0625 0)"/>
     <use xlink:href="#Arial-BoldMT-73" transform="translate(800.146484 0)"/>
     <use xlink:href="#Arial-BoldMT-73" transform="translate(855.761719 0)"/>
    </g>
   </g>
   <g id="text_7">
    <!-- What class -->
    <g transform="translate(656.67 178.45125) scale(0.1 -0.1)">
     <defs>
      <path id="ArialMT-57" d="M 1294 0 
L 78 4581 
L 700 4581 
L 1397 1578 
Q 1509 1106 1591 641 
Q 1766 1375 1797 1488 
L 2669 4581 
L 3400 4581 
L 4056 2263 
Q 4303 1400 4413 641 
Q 4500 1075 4641 1638 
L 5359 4581 
L 5969 4581 
L 4713 0 
L 4128 0 
L 3163 3491 
Q 3041 3928 3019 4028 
Q 2947 3713 2884 3491 
L 1913 0 
L 1294 0 
z
" transform="scale(0.015625)"/>
     </defs>
     <use xlink:href="#ArialMT-57"/>
     <use xlink:href="#ArialMT-68" transform="translate(94.384766 0)"/>
     <use xlink:href="#ArialMT-61" transform="translate(150 0)"/>
     <use xlink:href="#ArialMT-74" transform="translate(205.615234 0)"/>
     <use xlink:href="#ArialMT-20" transform="translate(233.398438 0)"/>
     <use xlink:href="#ArialMT-63" transform="translate(261.181641 0)"/>
     <use xlink:href="#ArialMT-6c" transform="translate(311.181641 0)"/>
     <use xlink:href="#ArialMT-61" transform="translate(333.398438 0)"/>
     <use xlink:href="#ArialMT-73" transform="translate(389.013672 0)"/>
     <use xlink:href="#ArialMT-73" transform="translate(439.013672 0)"/>
    </g>
    <!-- is it? -->
    <g transform="translate(670.839531 189.028125) scale(0.1 -0.1)">
     <use xlink:href="#ArialMT-69"/>
     <use xlink:href="#ArialMT-73" transform="translate(22.216797 0)"/>
     <use xlink:href="#ArialMT-20" transform="translate(72.216797 0)"/>
     <use xlink:href="#ArialMT-69" transform="translate(100 0)"/>
     <use xlink:href="#ArialMT-74" transform="translate(122.216797 0)"/>
     <use xlink:href="#ArialMT-3f" transform="translate(150 0)"/>
    </g>
   </g>
   <g id="text_8">
    <!-- Detection Loss Function -->
    <g transform="translate(311.740625 21.515625) scale(0.2 -0.2)">
     <defs>
      <path id="Arial-BoldMT-44" d="M 463 4581 
L 2153 4581 
Q 2725 4581 3025 4494 
Q 3428 4375 3715 4072 
Q 4003 3769 4153 3330 
Q 4303 2891 4303 2247 
Q 4303 1681 4163 1272 
Q 3991 772 3672 463 
Q 3431 228 3022 97 
Q 2716 0 2203 0 
L 463 0 
L 463 4581 
z
M 1388 3806 
L 1388 772 
L 2078 772 
Q 2466 772 2638 816 
Q 2863 872 3011 1006 
Q 3159 1141 3253 1448 
Q 3347 1756 3347 2288 
Q 3347 2819 3253 3103 
Q 3159 3388 2990 3547 
Q 2822 3706 2563 3763 
Q 2369 3806 1803 3806 
L 1388 3806 
z
" transform="scale(0.015625)"/>
      <path id="Arial-BoldMT-46" d="M 472 0 
L 472 4581 
L 3613 4581 
L 3613 3806 
L 1397 3806 
L 1397 2722 
L 3309 2722 
L 3309 1947 
L 1397 1947 
L 1397 0 
L 472 0 
z
" transform="scale(0.015625)"/>
      <path id="Arial-BoldMT-75" d="M 2644 0 
L 2644 497 
Q 2463 231 2167 78 
Q 1872 -75 1544 -75 
Q 1209 -75 943 72 
Q 678 219 559 484 
Q 441 750 441 1219 
L 441 3319 
L 1319 3319 
L 1319 1794 
Q 1319 1094 1367 936 
Q 1416 778 1544 686 
Q 1672 594 1869 594 
Q 2094 594 2272 717 
Q 2450 841 2515 1023 
Q 2581 1206 2581 1919 
L 2581 3319 
L 3459 3319 
L 3459 0 
L 2644 0 
z
" transform="scale(0.015625)"/>
     </defs>
     <use xlink:href="#Arial-BoldMT-44"/>
     <use xlink:href="#Arial-BoldMT-65" transform="translate(72.216797 0)"/>
     <use xlink:href="#Arial-BoldMT-74" transform="translate(127.832031 0)"/>
     <use xlink:href="#Arial-BoldMT-65" transform="translate(161.132812 0)"/>
     <use xlink:href="#Arial-BoldMT-63" transform="translate(216.748047 0)"/>
     <use xlink:href="#Arial-BoldMT-74" transform="translate(272.363281 0)"/>
     <use xlink:href="#Arial-BoldMT-69" transform="translate(305.664062 0)"/>
     <use xlink:href="#Arial-BoldMT-6f" transform="translate(333.447266 0)"/>
     <use xlink:href="#Arial-BoldMT-6e" transform="translate(394.53125 0)"/>
     <use xlink:href="#Arial-BoldMT-20" transform="translate(455.615234 0)"/>
     <use xlink:href="#Arial-BoldMT-4c" transform="translate(483.398438 0)"/>
     <use xlink:href="#Arial-BoldMT-6f" transform="translate(544.482422 0)"/>
     <use xlink:href="#Arial-BoldMT-73" transform="translate(605.566406 0)"/>
     <use xlink:href="#Arial-BoldMT-73" transform="translate(661.181641 0)"/>
     <use xlink:href="#Arial-BoldMT-20" transform="translate(716.796875 0)"/>
     <use xlink:href="#Arial-BoldMT-46" transform="translate(744.580078 0)"/>
     <use xlink:href="#Arial-BoldMT-75" transform="translate(805.664062 0)"/>
     <use xlink:href="#Arial-BoldMT-6e" transform="translate(866.748047 0)"/>
     <use xlink:href="#Arial-BoldMT-63" transform="translate(927.832031 0)"/>
     <use xlink:href="#Arial-BoldMT-74" transform="translate(983.447266 0)"/>
     <use xlink:href="#Arial-BoldMT-69" transform="translate(1016.748047 0)"/>
     <use xlink:href="#Arial-BoldMT-6f" transform="translate(1044.53125 0)"/>
     <use xlink:href="#Arial-BoldMT-6e" transform="translate(1105.615234 0)"/>
    </g>
   </g>
  </g>
 </g>
 <defs>
  <clipPath id="pe8e0c7784a">
   <rect x="7.2" y="41.515625" width="842.4" height="520"/>
  </clipPath>
 </defs>
</svg>
